%TF.GenerationSoftware,KiCad,Pcbnew,(5.1.6)-1*%
%TF.CreationDate,2020-09-30T15:31:54+02:00*%
%TF.ProjectId,wy60_usb,77793630-5f75-4736-922e-6b696361645f,rev?*%
%TF.SameCoordinates,Original*%
%TF.FileFunction,Soldermask,Bot*%
%TF.FilePolarity,Negative*%
%FSLAX46Y46*%
G04 Gerber Fmt 4.6, Leading zero omitted, Abs format (unit mm)*
G04 Created by KiCad (PCBNEW (5.1.6)-1) date 2020-09-30 15:31:54*
%MOMM*%
%LPD*%
G01*
G04 APERTURE LIST*
%ADD10C,2.350000*%
%ADD11C,4.087800*%
%ADD12C,1.850000*%
%ADD13C,3.148000*%
%ADD14O,1.200000X1.750000*%
%ADD15O,1.800000X2.800000*%
%ADD16O,1.700000X1.700000*%
%ADD17R,1.700000X1.700000*%
%ADD18C,1.600000*%
%ADD19C,2.100000*%
%ADD20C,1.700000*%
%ADD21O,1.800000X1.800000*%
%ADD22R,1.800000X1.800000*%
%ADD23C,1.300000*%
%ADD24R,1.300000X1.300000*%
G04 APERTURE END LIST*
D10*
%TO.C,MX94*%
X148778800Y-195326000D03*
D11*
X146238800Y-200406000D03*
D10*
X142428800Y-197866000D03*
D12*
X141158800Y-200406000D03*
X151318800Y-200406000D03*
D13*
X79288800Y-193421000D03*
X213188800Y-193421000D03*
D11*
X79288800Y-208661000D03*
X213188800Y-208661000D03*
%TD*%
D14*
%TO.C,USB1*%
X45542000Y-57215000D03*
X44742000Y-55515000D03*
X43942000Y-57215000D03*
X43142000Y-55515000D03*
X42342000Y-57215000D03*
D15*
X47592000Y-51915000D03*
X40292000Y-51915000D03*
%TD*%
D10*
%TO.C,MX69*%
X279906300Y-157226000D03*
D11*
X277366300Y-162306000D03*
D10*
X273556300Y-159766000D03*
D12*
X272286300Y-162306000D03*
X282446300Y-162306000D03*
%TD*%
D10*
%TO.C,MX32*%
X282281200Y-119126000D03*
D11*
X279741200Y-124206000D03*
D10*
X275931200Y-121666000D03*
D12*
X274661200Y-124206000D03*
X284821200Y-124206000D03*
%TD*%
D16*
%TO.C,D32*%
X244094000Y-122047000D03*
D17*
X244094000Y-129667000D03*
%TD*%
D16*
%TO.C,D103*%
X385318000Y-178943000D03*
D17*
X385318000Y-186563000D03*
%TD*%
D16*
%TO.C,D102*%
X385318000Y-198120000D03*
D17*
X385318000Y-205740000D03*
%TD*%
D16*
%TO.C,D101*%
X366268000Y-198120000D03*
D17*
X366268000Y-205740000D03*
%TD*%
D16*
%TO.C,D100*%
X315468000Y-198120000D03*
D17*
X315468000Y-205740000D03*
%TD*%
D16*
%TO.C,D99*%
X296418000Y-198120000D03*
D17*
X296418000Y-205740000D03*
%TD*%
D16*
%TO.C,D98*%
X277368000Y-198120000D03*
D17*
X277368000Y-205740000D03*
%TD*%
D16*
%TO.C,D97*%
X258191000Y-198120000D03*
D17*
X258191000Y-205740000D03*
%TD*%
D16*
%TO.C,D96*%
X158750000Y-196469000D03*
D17*
X158750000Y-204089000D03*
%TD*%
D16*
%TO.C,D95*%
X53594000Y-196469000D03*
D17*
X53594000Y-204089000D03*
%TD*%
D16*
%TO.C,D94*%
X366268000Y-178943000D03*
D17*
X366268000Y-186563000D03*
%TD*%
D16*
%TO.C,D93*%
X347218000Y-178943000D03*
D17*
X347218000Y-186563000D03*
%TD*%
D16*
%TO.C,D92*%
X328168000Y-178943000D03*
D17*
X328168000Y-186563000D03*
%TD*%
D16*
%TO.C,D91*%
X315468000Y-178943000D03*
D17*
X315468000Y-186563000D03*
%TD*%
D16*
%TO.C,D90*%
X296418000Y-178943000D03*
D17*
X296418000Y-186563000D03*
%TD*%
D16*
%TO.C,D89*%
X277368000Y-178943000D03*
D17*
X277368000Y-186563000D03*
%TD*%
D16*
%TO.C,D88*%
X248793000Y-178943000D03*
D17*
X248793000Y-186563000D03*
%TD*%
D16*
%TO.C,D87*%
X229743000Y-178943000D03*
D17*
X229743000Y-186563000D03*
%TD*%
D16*
%TO.C,D86*%
X210693000Y-178943000D03*
D17*
X210693000Y-186563000D03*
%TD*%
D16*
%TO.C,D85*%
X191516000Y-178943000D03*
D17*
X191516000Y-186563000D03*
%TD*%
D16*
%TO.C,D84*%
X172593000Y-178943000D03*
D17*
X172593000Y-186563000D03*
%TD*%
D16*
%TO.C,D83*%
X153477800Y-178943000D03*
D17*
X153477800Y-186563000D03*
%TD*%
D16*
%TO.C,D82*%
X134427800Y-178943000D03*
D17*
X134427800Y-186563000D03*
%TD*%
D16*
%TO.C,D81*%
X115443000Y-178943000D03*
D17*
X115443000Y-186563000D03*
%TD*%
D16*
%TO.C,D80*%
X96393000Y-178943000D03*
D17*
X96393000Y-186563000D03*
%TD*%
D16*
%TO.C,D79*%
X77343000Y-178943000D03*
D17*
X77343000Y-186563000D03*
%TD*%
D16*
%TO.C,D78*%
X58293000Y-178943000D03*
D17*
X58293000Y-186563000D03*
%TD*%
D16*
%TO.C,D77*%
X34417000Y-178943000D03*
D17*
X34417000Y-186563000D03*
%TD*%
D16*
%TO.C,D76*%
X385318000Y-160020000D03*
D17*
X385318000Y-167640000D03*
%TD*%
D16*
%TO.C,D75*%
X366268000Y-160020000D03*
D17*
X366268000Y-167640000D03*
%TD*%
D16*
%TO.C,D74*%
X347218000Y-160020000D03*
D17*
X347218000Y-167640000D03*
%TD*%
D16*
%TO.C,D73*%
X328168000Y-160020000D03*
D17*
X328168000Y-167640000D03*
%TD*%
D16*
%TO.C,D72*%
X315468000Y-160020000D03*
D17*
X315468000Y-167640000D03*
%TD*%
D16*
%TO.C,D71*%
X296860800Y-160020000D03*
D17*
X296860800Y-167640000D03*
%TD*%
D16*
%TO.C,D70*%
X258760800Y-160020000D03*
D17*
X258760800Y-167640000D03*
%TD*%
D16*
%TO.C,D69*%
X239583800Y-160020000D03*
D17*
X239583800Y-167640000D03*
%TD*%
D16*
%TO.C,D68*%
X220533800Y-160020000D03*
D17*
X220533800Y-167640000D03*
%TD*%
D16*
%TO.C,D67*%
X201356800Y-160020000D03*
D17*
X201356800Y-167640000D03*
%TD*%
D16*
%TO.C,D66*%
X182306800Y-160020000D03*
D17*
X182306800Y-167640000D03*
%TD*%
D16*
%TO.C,D65*%
X163129800Y-160020000D03*
D17*
X163129800Y-167640000D03*
%TD*%
D16*
%TO.C,D64*%
X143952800Y-160020000D03*
D17*
X143952800Y-167640000D03*
%TD*%
D16*
%TO.C,D63*%
X124902800Y-160020000D03*
D17*
X124902800Y-167640000D03*
%TD*%
D16*
%TO.C,D62*%
X105852800Y-160020000D03*
D17*
X105852800Y-167640000D03*
%TD*%
D16*
%TO.C,D61*%
X86675800Y-160020000D03*
D17*
X86675800Y-167640000D03*
%TD*%
D16*
%TO.C,D60*%
X67625800Y-160020000D03*
D17*
X67625800Y-167640000D03*
%TD*%
D16*
%TO.C,D59*%
X47178800Y-160020000D03*
D17*
X47178800Y-167640000D03*
%TD*%
D16*
%TO.C,D58*%
X385318000Y-140843000D03*
D17*
X385318000Y-148463000D03*
%TD*%
D16*
%TO.C,D57*%
X366268000Y-140843000D03*
D17*
X366268000Y-148463000D03*
%TD*%
D16*
%TO.C,D56*%
X347218000Y-140843000D03*
D17*
X347218000Y-148463000D03*
%TD*%
D16*
%TO.C,D55*%
X328168000Y-140843000D03*
D17*
X328168000Y-148463000D03*
%TD*%
D16*
%TO.C,D54*%
X315468000Y-140792200D03*
D17*
X315468000Y-148412200D03*
%TD*%
D16*
%TO.C,D53*%
X291719000Y-140843000D03*
D17*
X291719000Y-148463000D03*
%TD*%
D16*
%TO.C,D52*%
X272669000Y-140843000D03*
D17*
X272669000Y-148463000D03*
%TD*%
D16*
%TO.C,D51*%
X253492000Y-140843000D03*
D17*
X253492000Y-148463000D03*
%TD*%
D16*
%TO.C,D50*%
X234503800Y-140843000D03*
D17*
X234503800Y-148463000D03*
%TD*%
D16*
%TO.C,D49*%
X215392000Y-140843000D03*
D17*
X215392000Y-148463000D03*
%TD*%
D16*
%TO.C,D48*%
X196469000Y-140843000D03*
D17*
X196469000Y-148463000D03*
%TD*%
D16*
%TO.C,D47*%
X177419000Y-140843000D03*
D17*
X177419000Y-148463000D03*
%TD*%
D16*
%TO.C,D46*%
X158369000Y-140843000D03*
D17*
X158369000Y-148463000D03*
%TD*%
D16*
%TO.C,D45*%
X139192000Y-140843000D03*
D17*
X139192000Y-148463000D03*
%TD*%
D16*
%TO.C,D44*%
X120142000Y-140843000D03*
D17*
X120142000Y-148463000D03*
%TD*%
D16*
%TO.C,D43*%
X101092000Y-140843000D03*
D17*
X101092000Y-148463000D03*
%TD*%
D16*
%TO.C,D42*%
X82042000Y-140843000D03*
D17*
X82042000Y-148463000D03*
%TD*%
D16*
%TO.C,D41*%
X63119000Y-140843000D03*
D17*
X63119000Y-148463000D03*
%TD*%
D16*
%TO.C,D40*%
X43942000Y-140843000D03*
D17*
X43942000Y-148463000D03*
%TD*%
D16*
%TO.C,D39*%
X385318000Y-122047000D03*
D17*
X385318000Y-129667000D03*
%TD*%
D16*
%TO.C,D38*%
X366268000Y-122047000D03*
D17*
X366268000Y-129667000D03*
%TD*%
D16*
%TO.C,D37*%
X347218000Y-122047000D03*
D17*
X347218000Y-129667000D03*
%TD*%
D16*
%TO.C,D36*%
X328168000Y-122047000D03*
D17*
X328168000Y-129667000D03*
%TD*%
D16*
%TO.C,D35*%
X315468000Y-122047000D03*
D17*
X315468000Y-129667000D03*
%TD*%
D16*
%TO.C,D34*%
X296418000Y-122047000D03*
D17*
X296418000Y-129667000D03*
%TD*%
D16*
%TO.C,D33*%
X263017000Y-122047000D03*
D17*
X263017000Y-129667000D03*
%TD*%
D16*
%TO.C,D31*%
X225044000Y-122047000D03*
D17*
X225044000Y-129667000D03*
%TD*%
D16*
%TO.C,D30*%
X205928800Y-122047000D03*
D17*
X205928800Y-129667000D03*
%TD*%
D16*
%TO.C,D29*%
X186817000Y-122047000D03*
D17*
X186817000Y-129667000D03*
%TD*%
D16*
%TO.C,D28*%
X167767000Y-122047000D03*
D17*
X167767000Y-129667000D03*
%TD*%
D16*
%TO.C,D27*%
X148717000Y-122047000D03*
D17*
X148717000Y-129667000D03*
%TD*%
D16*
%TO.C,D26*%
X129667000Y-122047000D03*
D17*
X129667000Y-129667000D03*
%TD*%
D16*
%TO.C,D25*%
X110617000Y-122047000D03*
D17*
X110617000Y-129667000D03*
%TD*%
D16*
%TO.C,D24*%
X91567000Y-122047000D03*
D17*
X91567000Y-129667000D03*
%TD*%
D16*
%TO.C,D23*%
X72517000Y-122047000D03*
D17*
X72517000Y-129667000D03*
%TD*%
D16*
%TO.C,D22*%
X53467000Y-122047000D03*
D17*
X53467000Y-129667000D03*
%TD*%
D16*
%TO.C,D21*%
X34417000Y-122047000D03*
D17*
X34417000Y-129667000D03*
%TD*%
D16*
%TO.C,D20*%
X385318000Y-92024200D03*
D17*
X385318000Y-99644200D03*
%TD*%
D16*
%TO.C,D19*%
X366268000Y-92024200D03*
D17*
X366268000Y-99644200D03*
%TD*%
D16*
%TO.C,D18*%
X354711000Y-92024200D03*
D17*
X354711000Y-99644200D03*
%TD*%
D16*
%TO.C,D17*%
X335661000Y-92024200D03*
D17*
X335661000Y-99644200D03*
%TD*%
D16*
%TO.C,D16*%
X316611000Y-92024200D03*
D17*
X316611000Y-99644200D03*
%TD*%
D16*
%TO.C,D15*%
X297434000Y-92024200D03*
D17*
X297434000Y-99644200D03*
%TD*%
D16*
%TO.C,D14*%
X266954000Y-92024200D03*
D17*
X266954000Y-99644200D03*
%TD*%
D16*
%TO.C,D13*%
X247904000Y-92024200D03*
D17*
X247904000Y-99644200D03*
%TD*%
D16*
%TO.C,D12*%
X228854000Y-92024200D03*
D17*
X228854000Y-99644200D03*
%TD*%
D16*
%TO.C,D11*%
X209942000Y-92024200D03*
D17*
X209942000Y-99644200D03*
%TD*%
D16*
%TO.C,D10*%
X179208000Y-92024200D03*
D17*
X179208000Y-99644200D03*
%TD*%
D16*
%TO.C,D9*%
X160158000Y-92024200D03*
D17*
X160158000Y-99644200D03*
%TD*%
D16*
%TO.C,D8*%
X141108000Y-92024200D03*
D17*
X141108000Y-99644200D03*
%TD*%
D16*
%TO.C,D7*%
X122047000Y-92024200D03*
D17*
X122047000Y-99644200D03*
%TD*%
D16*
%TO.C,D6*%
X91694000Y-92024200D03*
D17*
X91694000Y-99644200D03*
%TD*%
D16*
%TO.C,D5*%
X72644000Y-92024200D03*
D17*
X72644000Y-99644200D03*
%TD*%
D16*
%TO.C,D4*%
X53467000Y-92024200D03*
D17*
X53467000Y-99644200D03*
%TD*%
D16*
%TO.C,D3*%
X34417000Y-92024200D03*
D17*
X34417000Y-99644200D03*
%TD*%
D10*
%TO.C,MX93*%
X37018800Y-195326000D03*
D11*
X34478800Y-200406000D03*
D10*
X30668800Y-197866000D03*
D12*
X29398800Y-200406000D03*
X39558800Y-200406000D03*
%TD*%
D10*
%TO.C,MX101*%
X389774000Y-188341000D03*
D11*
X394854000Y-190881000D03*
D10*
X392314000Y-194691000D03*
D12*
X394854000Y-195961000D03*
X394854000Y-185801000D03*
%TD*%
D10*
%TO.C,MX99*%
X349769000Y-195326000D03*
D11*
X347229000Y-200406000D03*
D10*
X343419000Y-197866000D03*
D12*
X342149000Y-200406000D03*
X352309000Y-200406000D03*
%TD*%
D10*
%TO.C,MX87*%
X265618800Y-176276000D03*
D11*
X263078800Y-181356000D03*
D10*
X259268800Y-178816000D03*
D12*
X257998800Y-181356000D03*
X268158800Y-181356000D03*
%TD*%
D10*
%TO.C,MX100*%
X378344000Y-195326000D03*
D11*
X375804000Y-200406000D03*
D10*
X371994000Y-197866000D03*
D12*
X370724000Y-200406000D03*
X380884000Y-200406000D03*
%TD*%
D10*
%TO.C,MX98*%
X308481300Y-195326000D03*
D11*
X305941300Y-200406000D03*
D10*
X302131300Y-197866000D03*
D12*
X300861300Y-200406000D03*
X311021300Y-200406000D03*
%TD*%
D10*
%TO.C,MX97*%
X289431300Y-195326000D03*
D11*
X286891300Y-200406000D03*
D10*
X283081300Y-197866000D03*
D12*
X281811300Y-200406000D03*
X291971300Y-200406000D03*
%TD*%
D10*
%TO.C,MX96*%
X270381300Y-195326000D03*
D11*
X267841300Y-200406000D03*
D10*
X264031300Y-197866000D03*
D12*
X262761300Y-200406000D03*
X272921300Y-200406000D03*
%TD*%
D10*
%TO.C,MX95*%
X251331300Y-195326000D03*
D11*
X248791300Y-200406000D03*
D10*
X244981300Y-197866000D03*
D12*
X243711300Y-200406000D03*
X253871300Y-200406000D03*
%TD*%
D10*
%TO.C,MX92*%
X378344000Y-176276000D03*
D11*
X375804000Y-181356000D03*
D10*
X371994000Y-178816000D03*
D12*
X370724000Y-181356000D03*
X380884000Y-181356000D03*
%TD*%
D10*
%TO.C,MX91*%
X359294000Y-176276000D03*
D11*
X356754000Y-181356000D03*
D10*
X352944000Y-178816000D03*
D12*
X351674000Y-181356000D03*
X361834000Y-181356000D03*
%TD*%
D10*
%TO.C,MX90*%
X340244000Y-176276000D03*
D11*
X337704000Y-181356000D03*
D10*
X333894000Y-178816000D03*
D12*
X332624000Y-181356000D03*
X342784000Y-181356000D03*
%TD*%
D10*
%TO.C,MX76*%
X48956800Y-176276000D03*
D11*
X46416800Y-181356000D03*
D10*
X42606800Y-178816000D03*
D12*
X41336800Y-181356000D03*
X51496800Y-181356000D03*
%TD*%
D10*
%TO.C,MX57*%
X34605800Y-157226000D03*
D11*
X32065800Y-162306000D03*
D10*
X28255800Y-159766000D03*
D12*
X26985800Y-162306000D03*
X37145800Y-162306000D03*
%TD*%
D10*
%TO.C,MX52*%
X306068300Y-138176000D03*
D11*
X303528300Y-143256000D03*
D10*
X299718300Y-140716000D03*
D12*
X298448300Y-143256000D03*
X308608300Y-143256000D03*
%TD*%
D10*
%TO.C,MX38*%
X32256300Y-138176000D03*
D11*
X29716300Y-143256000D03*
D10*
X25906300Y-140716000D03*
D12*
X24636300Y-143256000D03*
X34796300Y-143256000D03*
%TD*%
D18*
%TO.C,XTAL1*%
X289433000Y-62049000D03*
X289433000Y-66929000D03*
%TD*%
D16*
%TO.C,U1*%
X282257500Y-72136000D03*
X233997500Y-56896000D03*
X279717500Y-72136000D03*
X236537500Y-56896000D03*
X277177500Y-72136000D03*
X239077500Y-56896000D03*
X274637500Y-72136000D03*
X241617500Y-56896000D03*
X272097500Y-72136000D03*
X244157500Y-56896000D03*
X269557500Y-72136000D03*
X246697500Y-56896000D03*
X267017500Y-72136000D03*
X249237500Y-56896000D03*
X264477500Y-72136000D03*
X251777500Y-56896000D03*
X261937500Y-72136000D03*
X254317500Y-56896000D03*
X259397500Y-72136000D03*
X256857500Y-56896000D03*
X256857500Y-72136000D03*
X259397500Y-56896000D03*
X254317500Y-72136000D03*
X261937500Y-56896000D03*
X251777500Y-72136000D03*
X264477500Y-56896000D03*
X249237500Y-72136000D03*
X267017500Y-56896000D03*
X246697500Y-72136000D03*
X269557500Y-56896000D03*
X244157500Y-72136000D03*
X272097500Y-56896000D03*
X241617500Y-72136000D03*
X274637500Y-56896000D03*
X239077500Y-72136000D03*
X277177500Y-56896000D03*
X236537500Y-72136000D03*
X279717500Y-56896000D03*
X233997500Y-72136000D03*
D17*
X282257500Y-56896000D03*
%TD*%
D19*
%TO.C,Reset1*%
X318920000Y-60325000D03*
X318920000Y-64825000D03*
X312420000Y-60325000D03*
X312420000Y-64825000D03*
%TD*%
D16*
%TO.C,R4*%
X316738000Y-70104000D03*
D20*
X326898000Y-70104000D03*
%TD*%
D16*
%TO.C,R3*%
X95504000Y-58420000D03*
D20*
X95504000Y-68580000D03*
%TD*%
D16*
%TO.C,R2*%
X91186000Y-58420000D03*
D20*
X91186000Y-68580000D03*
%TD*%
D16*
%TO.C,R1*%
X86614000Y-58420000D03*
D20*
X86614000Y-68580000D03*
%TD*%
D10*
%TO.C,MX89*%
X308481300Y-176276000D03*
D11*
X305941300Y-181356000D03*
D10*
X302131300Y-178816000D03*
D12*
X300861300Y-181356000D03*
X311021300Y-181356000D03*
%TD*%
D10*
%TO.C,MX88*%
X289431300Y-176276000D03*
D11*
X286891300Y-181356000D03*
D10*
X283081300Y-178816000D03*
D12*
X281811300Y-181356000D03*
X291971300Y-181356000D03*
%TD*%
D10*
%TO.C,MX86*%
X241806300Y-176276000D03*
D11*
X239266300Y-181356000D03*
D10*
X235456300Y-178816000D03*
D12*
X234186300Y-181356000D03*
X244346300Y-181356000D03*
%TD*%
D10*
%TO.C,MX85*%
X222756300Y-176276000D03*
D11*
X220216300Y-181356000D03*
D10*
X216406300Y-178816000D03*
D12*
X215136300Y-181356000D03*
X225296300Y-181356000D03*
%TD*%
D10*
%TO.C,MX84*%
X203706300Y-176276000D03*
D11*
X201166300Y-181356000D03*
D10*
X197356300Y-178816000D03*
D12*
X196086300Y-181356000D03*
X206246300Y-181356000D03*
%TD*%
D10*
%TO.C,MX83*%
X184656300Y-176276000D03*
D11*
X182116300Y-181356000D03*
D10*
X178306300Y-178816000D03*
D12*
X177036300Y-181356000D03*
X187196300Y-181356000D03*
%TD*%
D10*
%TO.C,MX82*%
X165606300Y-176276000D03*
D11*
X163066300Y-181356000D03*
D10*
X159256300Y-178816000D03*
D12*
X157986300Y-181356000D03*
X168146300Y-181356000D03*
%TD*%
D10*
%TO.C,MX81*%
X146556300Y-176276000D03*
D11*
X144016300Y-181356000D03*
D10*
X140206300Y-178816000D03*
D12*
X138936300Y-181356000D03*
X149096300Y-181356000D03*
%TD*%
D10*
%TO.C,MX80*%
X127506300Y-176276000D03*
D11*
X124966300Y-181356000D03*
D10*
X121156300Y-178816000D03*
D12*
X119886300Y-181356000D03*
X130046300Y-181356000D03*
%TD*%
D10*
%TO.C,MX79*%
X108456300Y-176276000D03*
D11*
X105916300Y-181356000D03*
D10*
X102106300Y-178816000D03*
D12*
X100836300Y-181356000D03*
X110996300Y-181356000D03*
%TD*%
D10*
%TO.C,MX78*%
X89406300Y-176276000D03*
D11*
X86866300Y-181356000D03*
D10*
X83056300Y-178816000D03*
D12*
X81786300Y-181356000D03*
X91946300Y-181356000D03*
%TD*%
D10*
%TO.C,MX77*%
X70356300Y-176276000D03*
D11*
X67816300Y-181356000D03*
D10*
X64006300Y-178816000D03*
D12*
X62736300Y-181356000D03*
X72896300Y-181356000D03*
%TD*%
D10*
%TO.C,MX75*%
X27493800Y-176276000D03*
D11*
X24953800Y-181356000D03*
D10*
X21143800Y-178816000D03*
D12*
X19873800Y-181356000D03*
X30033800Y-181356000D03*
%TD*%
D10*
%TO.C,MX74*%
X397394000Y-157226000D03*
D11*
X394854000Y-162306000D03*
D10*
X391044000Y-159766000D03*
D12*
X389774000Y-162306000D03*
X399934000Y-162306000D03*
%TD*%
D10*
%TO.C,MX73*%
X378344000Y-157226000D03*
D11*
X375804000Y-162306000D03*
D10*
X371994000Y-159766000D03*
D12*
X370724000Y-162306000D03*
X380884000Y-162306000D03*
%TD*%
D10*
%TO.C,MX72*%
X359294000Y-157226000D03*
D11*
X356754000Y-162306000D03*
D10*
X352944000Y-159766000D03*
D12*
X351674000Y-162306000D03*
X361834000Y-162306000D03*
%TD*%
D10*
%TO.C,MX71*%
X340244000Y-157226000D03*
D11*
X337704000Y-162306000D03*
D10*
X333894000Y-159766000D03*
D12*
X332624000Y-162306000D03*
X342784000Y-162306000D03*
%TD*%
D10*
%TO.C,MX70*%
X308481300Y-157226000D03*
D11*
X305941300Y-162306000D03*
D10*
X302131300Y-159766000D03*
D12*
X300861300Y-162306000D03*
X311021300Y-162306000D03*
%TD*%
D10*
%TO.C,MX68*%
X251331300Y-157226000D03*
D11*
X248791300Y-162306000D03*
D10*
X244981300Y-159766000D03*
D12*
X243711300Y-162306000D03*
X253871300Y-162306000D03*
%TD*%
D10*
%TO.C,MX67*%
X232281300Y-157226000D03*
D11*
X229741300Y-162306000D03*
D10*
X225931300Y-159766000D03*
D12*
X224661300Y-162306000D03*
X234821300Y-162306000D03*
%TD*%
D10*
%TO.C,MX66*%
X213231300Y-157226000D03*
D11*
X210691300Y-162306000D03*
D10*
X206881300Y-159766000D03*
D12*
X205611300Y-162306000D03*
X215771300Y-162306000D03*
%TD*%
D10*
%TO.C,MX65*%
X194181300Y-157226000D03*
D11*
X191641300Y-162306000D03*
D10*
X187831300Y-159766000D03*
D12*
X186561300Y-162306000D03*
X196721300Y-162306000D03*
%TD*%
D10*
%TO.C,MX64*%
X175131300Y-157226000D03*
D11*
X172591300Y-162306000D03*
D10*
X168781300Y-159766000D03*
D12*
X167511300Y-162306000D03*
X177671300Y-162306000D03*
%TD*%
D10*
%TO.C,MX63*%
X156081300Y-157226000D03*
D11*
X153541300Y-162306000D03*
D10*
X149731300Y-159766000D03*
D12*
X148461300Y-162306000D03*
X158621300Y-162306000D03*
%TD*%
D10*
%TO.C,MX62*%
X137031300Y-157226000D03*
D11*
X134491300Y-162306000D03*
D10*
X130681300Y-159766000D03*
D12*
X129411300Y-162306000D03*
X139571300Y-162306000D03*
%TD*%
D10*
%TO.C,MX61*%
X117981300Y-157226000D03*
D11*
X115441300Y-162306000D03*
D10*
X111631300Y-159766000D03*
D12*
X110361300Y-162306000D03*
X120521300Y-162306000D03*
%TD*%
D10*
%TO.C,MX60*%
X98931300Y-157226000D03*
D11*
X96391300Y-162306000D03*
D10*
X92581300Y-159766000D03*
D12*
X91311300Y-162306000D03*
X101471300Y-162306000D03*
%TD*%
D10*
%TO.C,MX59*%
X79881300Y-157226000D03*
D11*
X77341300Y-162306000D03*
D10*
X73531300Y-159766000D03*
D12*
X72261300Y-162306000D03*
X82421300Y-162306000D03*
%TD*%
D10*
%TO.C,MX58*%
X60831300Y-157226000D03*
D11*
X58291300Y-162306000D03*
D10*
X54481300Y-159766000D03*
D12*
X53211300Y-162306000D03*
X63371300Y-162306000D03*
%TD*%
D10*
%TO.C,MX56*%
X397394000Y-138176000D03*
D11*
X394854000Y-143256000D03*
D10*
X391044000Y-140716000D03*
D12*
X389774000Y-143256000D03*
X399934000Y-143256000D03*
%TD*%
D10*
%TO.C,MX55*%
X378344000Y-138176000D03*
D11*
X375804000Y-143256000D03*
D10*
X371994000Y-140716000D03*
D12*
X370724000Y-143256000D03*
X380884000Y-143256000D03*
%TD*%
D10*
%TO.C,MX54*%
X359294000Y-138176000D03*
D11*
X356754000Y-143256000D03*
D10*
X352944000Y-140716000D03*
D12*
X351674000Y-143256000D03*
X361834000Y-143256000D03*
%TD*%
D10*
%TO.C,MX53*%
X340244000Y-138176000D03*
D11*
X337704000Y-143256000D03*
D10*
X333894000Y-140716000D03*
D12*
X332624000Y-143256000D03*
X342784000Y-143256000D03*
%TD*%
D10*
%TO.C,MX51*%
X284668800Y-138176000D03*
D11*
X282128800Y-143256000D03*
D10*
X278318800Y-140716000D03*
D12*
X277048800Y-143256000D03*
X287208800Y-143256000D03*
%TD*%
D10*
%TO.C,MX50*%
X265618800Y-138176000D03*
D11*
X263078800Y-143256000D03*
D10*
X259268800Y-140716000D03*
D12*
X257998800Y-143256000D03*
X268158800Y-143256000D03*
%TD*%
%TO.C,MX49*%
X249108800Y-143256000D03*
X238948800Y-143256000D03*
D10*
X240218800Y-140716000D03*
D11*
X244028800Y-143256000D03*
D10*
X246568800Y-138176000D03*
%TD*%
%TO.C,MX48*%
X227518800Y-138176000D03*
D11*
X224978800Y-143256000D03*
D10*
X221168800Y-140716000D03*
D12*
X219898800Y-143256000D03*
X230058800Y-143256000D03*
%TD*%
D10*
%TO.C,MX47*%
X208468800Y-138176000D03*
D11*
X205928800Y-143256000D03*
D10*
X202118800Y-140716000D03*
D12*
X200848800Y-143256000D03*
X211008800Y-143256000D03*
%TD*%
D10*
%TO.C,MX46*%
X189418800Y-138176000D03*
D11*
X186878800Y-143256000D03*
D10*
X183068800Y-140716000D03*
D12*
X181798800Y-143256000D03*
X191958800Y-143256000D03*
%TD*%
D10*
%TO.C,MX45*%
X170368800Y-138176000D03*
D11*
X167828800Y-143256000D03*
D10*
X164018800Y-140716000D03*
D12*
X162748800Y-143256000D03*
X172908800Y-143256000D03*
%TD*%
D10*
%TO.C,MX44*%
X151318800Y-138176000D03*
D11*
X148778800Y-143256000D03*
D10*
X144968800Y-140716000D03*
D12*
X143698800Y-143256000D03*
X153858800Y-143256000D03*
%TD*%
D10*
%TO.C,MX43*%
X132268800Y-138176000D03*
D11*
X129728800Y-143256000D03*
D10*
X125918800Y-140716000D03*
D12*
X124648800Y-143256000D03*
X134808800Y-143256000D03*
%TD*%
D10*
%TO.C,MX42*%
X113218800Y-138176000D03*
D11*
X110678800Y-143256000D03*
D10*
X106868800Y-140716000D03*
D12*
X105598800Y-143256000D03*
X115758800Y-143256000D03*
%TD*%
D10*
%TO.C,MX41*%
X94168800Y-138176000D03*
D11*
X91628800Y-143256000D03*
D10*
X87818800Y-140716000D03*
D12*
X86548800Y-143256000D03*
X96708800Y-143256000D03*
%TD*%
D10*
%TO.C,MX40*%
X75118800Y-138176000D03*
D11*
X72578800Y-143256000D03*
D10*
X68768800Y-140716000D03*
D12*
X67498800Y-143256000D03*
X77658800Y-143256000D03*
%TD*%
D10*
%TO.C,MX39*%
X56068800Y-138176000D03*
D11*
X53528800Y-143256000D03*
D10*
X49718800Y-140716000D03*
D12*
X48448800Y-143256000D03*
X58608800Y-143256000D03*
%TD*%
D10*
%TO.C,MX37*%
X397394000Y-119126000D03*
D11*
X394854000Y-124206000D03*
D10*
X391044000Y-121666000D03*
D12*
X389774000Y-124206000D03*
X399934000Y-124206000D03*
%TD*%
D10*
%TO.C,MX36*%
X378344000Y-119126000D03*
D11*
X375804000Y-124206000D03*
D10*
X371994000Y-121666000D03*
D12*
X370724000Y-124206000D03*
X380884000Y-124206000D03*
%TD*%
D10*
%TO.C,MX35*%
X359294000Y-119126000D03*
D11*
X356754000Y-124206000D03*
D10*
X352944000Y-121666000D03*
D12*
X351674000Y-124206000D03*
X361834000Y-124206000D03*
%TD*%
D10*
%TO.C,MX34*%
X340244000Y-119126000D03*
D11*
X337704000Y-124206000D03*
D10*
X333894000Y-121666000D03*
D12*
X332624000Y-124206000D03*
X342784000Y-124206000D03*
%TD*%
D10*
%TO.C,MX33*%
X308481300Y-119126000D03*
D11*
X305941300Y-124206000D03*
D10*
X302131300Y-121666000D03*
D12*
X300861300Y-124206000D03*
X311021300Y-124206000D03*
%TD*%
D10*
%TO.C,MX31*%
X256093800Y-119126000D03*
D11*
X253553800Y-124206000D03*
D10*
X249743800Y-121666000D03*
D12*
X248473800Y-124206000D03*
X258633800Y-124206000D03*
%TD*%
D10*
%TO.C,MX30*%
X237043800Y-119126000D03*
D11*
X234503800Y-124206000D03*
D10*
X230693800Y-121666000D03*
D12*
X229423800Y-124206000D03*
X239583800Y-124206000D03*
%TD*%
D10*
%TO.C,MX29*%
X217993800Y-119126000D03*
D11*
X215453800Y-124206000D03*
D10*
X211643800Y-121666000D03*
D12*
X210373800Y-124206000D03*
X220533800Y-124206000D03*
%TD*%
D10*
%TO.C,MX28*%
X198943800Y-119126000D03*
D11*
X196403800Y-124206000D03*
D10*
X192593800Y-121666000D03*
D12*
X191323800Y-124206000D03*
X201483800Y-124206000D03*
%TD*%
D10*
%TO.C,MX27*%
X179893800Y-119126000D03*
D11*
X177353800Y-124206000D03*
D10*
X173543800Y-121666000D03*
D12*
X172273800Y-124206000D03*
X182433800Y-124206000D03*
%TD*%
D10*
%TO.C,MX26*%
X160843800Y-119126000D03*
D11*
X158303800Y-124206000D03*
D10*
X154493800Y-121666000D03*
D12*
X153223800Y-124206000D03*
X163383800Y-124206000D03*
%TD*%
D10*
%TO.C,MX25*%
X141793800Y-119126000D03*
D11*
X139253800Y-124206000D03*
D10*
X135443800Y-121666000D03*
D12*
X134173800Y-124206000D03*
X144333800Y-124206000D03*
%TD*%
D10*
%TO.C,MX24*%
X122743800Y-119126000D03*
D11*
X120203800Y-124206000D03*
D10*
X116393800Y-121666000D03*
D12*
X115123800Y-124206000D03*
X125283800Y-124206000D03*
%TD*%
D10*
%TO.C,MX23*%
X103693800Y-119126000D03*
D11*
X101153800Y-124206000D03*
D10*
X97343800Y-121666000D03*
D12*
X96073800Y-124206000D03*
X106233800Y-124206000D03*
%TD*%
D10*
%TO.C,MX22*%
X84643800Y-119126000D03*
D11*
X82103800Y-124206000D03*
D10*
X78293800Y-121666000D03*
D12*
X77023800Y-124206000D03*
X87183800Y-124206000D03*
%TD*%
D10*
%TO.C,MX21*%
X65593800Y-119126000D03*
D11*
X63053800Y-124206000D03*
D10*
X59243800Y-121666000D03*
D12*
X57973800Y-124206000D03*
X68133800Y-124206000D03*
%TD*%
D10*
%TO.C,MX20*%
X46543800Y-119126000D03*
D11*
X44003800Y-124206000D03*
D10*
X40193800Y-121666000D03*
D12*
X38923800Y-124206000D03*
X49083800Y-124206000D03*
%TD*%
D10*
%TO.C,MX19*%
X27493800Y-119126000D03*
D11*
X24953800Y-124206000D03*
D10*
X21143800Y-121666000D03*
D12*
X19873800Y-124206000D03*
X30033800Y-124206000D03*
%TD*%
D10*
%TO.C,MX18*%
X397357600Y-89154000D03*
D11*
X394817600Y-94234000D03*
D10*
X391007600Y-91694000D03*
D12*
X389737600Y-94234000D03*
X399897600Y-94234000D03*
%TD*%
D10*
%TO.C,MX17*%
X378307600Y-89154000D03*
D11*
X375767600Y-94234000D03*
D10*
X371957600Y-91694000D03*
D12*
X370687600Y-94234000D03*
X380847600Y-94234000D03*
%TD*%
D10*
%TO.C,MX16*%
X347675200Y-89154000D03*
D11*
X345135200Y-94234000D03*
D10*
X341325200Y-91694000D03*
D12*
X340055200Y-94234000D03*
X350215200Y-94234000D03*
%TD*%
D10*
%TO.C,MX15*%
X328625200Y-89154000D03*
D11*
X326085200Y-94234000D03*
D10*
X322275200Y-91694000D03*
D12*
X321005200Y-94234000D03*
X331165200Y-94234000D03*
%TD*%
D10*
%TO.C,MX14*%
X309575200Y-89154000D03*
D11*
X307035200Y-94234000D03*
D10*
X303225200Y-91694000D03*
D12*
X301955200Y-94234000D03*
X312115200Y-94234000D03*
%TD*%
D10*
%TO.C,MX13*%
X290525200Y-89154000D03*
D11*
X287985200Y-94234000D03*
D10*
X284175200Y-91694000D03*
D12*
X282905200Y-94234000D03*
X293065200Y-94234000D03*
%TD*%
D10*
%TO.C,MX12*%
X259994400Y-89154000D03*
D11*
X257454400Y-94234000D03*
D10*
X253644400Y-91694000D03*
D12*
X252374400Y-94234000D03*
X262534400Y-94234000D03*
%TD*%
D10*
%TO.C,MX11*%
X240944400Y-89154000D03*
D11*
X238404400Y-94234000D03*
D10*
X234594400Y-91694000D03*
D12*
X233324400Y-94234000D03*
X243484400Y-94234000D03*
%TD*%
D10*
%TO.C,MX10*%
X221894400Y-89154000D03*
D11*
X219354400Y-94234000D03*
D10*
X215544400Y-91694000D03*
D12*
X214274400Y-94234000D03*
X224434400Y-94234000D03*
%TD*%
D10*
%TO.C,MX9*%
X202844400Y-89154000D03*
D11*
X200304400Y-94234000D03*
D10*
X196494400Y-91694000D03*
D12*
X195224400Y-94234000D03*
X205384400Y-94234000D03*
%TD*%
D10*
%TO.C,MX8*%
X172262800Y-89154000D03*
D11*
X169722800Y-94234000D03*
D10*
X165912800Y-91694000D03*
D12*
X164642800Y-94234000D03*
X174802800Y-94234000D03*
%TD*%
D10*
%TO.C,MX7*%
X153212800Y-89154000D03*
D11*
X150672800Y-94234000D03*
D10*
X146862800Y-91694000D03*
D12*
X145592800Y-94234000D03*
X155752800Y-94234000D03*
%TD*%
D10*
%TO.C,MX6*%
X134162800Y-89154000D03*
D11*
X131622800Y-94234000D03*
D10*
X127812800Y-91694000D03*
D12*
X126542800Y-94234000D03*
X136702800Y-94234000D03*
%TD*%
D10*
%TO.C,MX5*%
X115112800Y-89154000D03*
D11*
X112572800Y-94234000D03*
D10*
X108762800Y-91694000D03*
D12*
X107492800Y-94234000D03*
X117652800Y-94234000D03*
%TD*%
D10*
%TO.C,MX4*%
X84632800Y-89154000D03*
D11*
X82092800Y-94234000D03*
D10*
X78282800Y-91694000D03*
D12*
X77012800Y-94234000D03*
X87172800Y-94234000D03*
%TD*%
D10*
%TO.C,MX3*%
X65582800Y-89154000D03*
D11*
X63042800Y-94234000D03*
D10*
X59232800Y-91694000D03*
D12*
X57962800Y-94234000D03*
X68122800Y-94234000D03*
%TD*%
D10*
%TO.C,MX2*%
X46532800Y-89154000D03*
D11*
X43992800Y-94234000D03*
D10*
X40182800Y-91694000D03*
D12*
X38912800Y-94234000D03*
X49072800Y-94234000D03*
%TD*%
D10*
%TO.C,MX1*%
X27482800Y-89154000D03*
D11*
X24942800Y-94234000D03*
D10*
X21132800Y-91694000D03*
D12*
X19862800Y-94234000D03*
X30022800Y-94234000D03*
%TD*%
D21*
%TO.C,J1*%
X358013000Y-65786000D03*
X355473000Y-65786000D03*
X358013000Y-63246000D03*
X355473000Y-63246000D03*
X358013000Y-60706000D03*
D22*
X355473000Y-60706000D03*
%TD*%
D19*
%TO.C,F1*%
X58547000Y-67300000D03*
X63627000Y-67310000D03*
%TD*%
D16*
%TO.C,D2*%
X103505000Y-59817000D03*
D17*
X103505000Y-67437000D03*
%TD*%
D16*
%TO.C,D1*%
X99949000Y-59817000D03*
D17*
X99949000Y-67437000D03*
%TD*%
D20*
%TO.C,C5*%
X291766000Y-56769000D03*
X286766000Y-56769000D03*
%TD*%
%TO.C,C4*%
X291893000Y-72263000D03*
X286893000Y-72263000D03*
%TD*%
%TO.C,C3*%
X259421000Y-69088000D03*
X256921000Y-69088000D03*
%TD*%
%TO.C,C2*%
X256834000Y-53721000D03*
X259334000Y-53721000D03*
%TD*%
D23*
%TO.C,C1*%
X74017000Y-67310000D03*
D24*
X72517000Y-67310000D03*
%TD*%
D19*
%TO.C,Boot1*%
X331874000Y-60325000D03*
X331874000Y-64825000D03*
X325374000Y-60325000D03*
X325374000Y-64825000D03*
%TD*%
M02*
