M48
; DRILL file {KiCad (5.1.6)-1} date 10/15/20 10:29:55
; FORMAT={-:-/ absolute / inch / decimal}
; #@! TF.CreationDate,2020-10-15T10:29:55+02:00
; #@! TF.GenerationSoftware,Kicad,Pcbnew,(5.1.6)-1
; #@! TF.FileFunction,Plated,1,2,PTH
FMAT,2
INCH
T1C0.0157
T2C0.0236
T3C0.0276
T4C0.0295
T5C0.0315
T6C0.0394
T7C0.0433
T8C0.0579
%
G90
G05
T1
X13.6902Y-2.4898
T2
X2.855Y-2.65
X2.9141Y-2.65
T4
X1.254Y-2.43
X1.254Y-2.5087
X1.254Y-2.5875
X1.254Y-2.6662
T5
X9.795Y-7.045
X9.795Y-7.345
X6.795Y-7.045
X6.795Y-7.345
X3.605Y-4.805
X3.605Y-5.105
X12.911Y-7.0445
X12.911Y-7.3445
X13.215Y-3.623
X13.215Y-3.923
X7.355Y-4.805
X7.355Y-5.105
X5.855Y-4.805
X5.855Y-5.105
X8.1074Y-4.805
X8.1074Y-5.105
X15.161Y-7.0445
X15.161Y-7.3445
X8.48Y-5.545
X8.48Y-5.845
X2.86Y-3.623
X2.86Y-3.923
X4.9174Y-6.3
X4.9174Y-6.6
X14.411Y-6.2995
X14.411Y-6.5995
X6.3054Y-3.623
X6.3054Y-3.923
X3.795Y-7.045
X3.795Y-7.345
X3.045Y-7.045
X3.045Y-7.345
X4.075Y-2.355
X4.075Y-2.655
X10.115Y-2.72
X10.2134Y-2.72
X12.42Y-7.045
X12.42Y-7.345
X7.54Y-7.045
X7.54Y-7.345
X6.605Y-4.805
X6.605Y-5.105
X10.92Y-7.045
X10.92Y-7.345
X14.413Y-3.623
X14.413Y-3.923
X13.661Y-4.8045
X13.661Y-5.1045
X10.51Y-3.623
X10.51Y-3.923
X11.67Y-4.805
X11.67Y-5.105
X3.59Y-2.3
X3.59Y-2.7
X9.2324Y-5.545
X9.2324Y-5.845
X9.61Y-4.805
X9.61Y-5.105
X4.1674Y-6.3
X4.1674Y-6.6
X2.105Y-3.623
X2.105Y-3.923
X3.935Y-2.355
X3.935Y-2.655
X7.735Y-5.545
X7.735Y-5.845
X7.1774Y-6.3
X7.1774Y-6.6
X9.4324Y-6.3
X9.4324Y-6.6
X11.29Y-2.235
X11.4869Y-2.235
X11.295Y-2.845
X11.4919Y-2.845
X12.42Y-7.8
X12.42Y-8.1
X2.11Y-7.735
X2.11Y-8.035
X8.2654Y-3.623
X8.2654Y-3.923
X13.965Y-3.623
X13.965Y-3.923
X12.42Y-4.805
X12.42Y-5.105
X15.163Y-3.623
X15.163Y-3.923
X6.985Y-5.545
X6.985Y-5.845
X3.76Y-2.3
X3.76Y-2.7
X9.98Y-5.545
X9.98Y-5.845
X6.4224Y-6.3
X6.4224Y-6.6
X10.735Y-5.545
X10.735Y-5.845
X7.9274Y-6.3
X7.9274Y-6.6
X11.6874Y-6.3
X11.6874Y-6.6
X5.5554Y-3.623
X5.5554Y-3.923
X10.165Y-7.8
X10.165Y-8.1
X14.411Y-7.0445
X14.411Y-7.3445
X9.01Y-3.623
X9.01Y-3.923
X14.411Y-4.8045
X14.411Y-5.1045
X1.355Y-4.805
X1.355Y-5.105
X12.911Y-4.8045
X12.911Y-5.1045
X2.855Y-4.805
X2.855Y-5.105
X4.73Y-5.545
X4.73Y-5.845
X9.2125Y-2.24
X9.2125Y-2.84
X9.3125Y-2.24
X9.3125Y-2.84
X9.4125Y-2.24
X9.4125Y-2.84
X9.5125Y-2.24
X9.5125Y-2.84
X9.6125Y-2.24
X9.6125Y-2.84
X9.7125Y-2.24
X9.7125Y-2.84
X9.8125Y-2.24
X9.8125Y-2.84
X9.9125Y-2.24
X9.9125Y-2.84
X10.0125Y-2.24
X10.0125Y-2.84
X10.1125Y-2.24
X10.1125Y-2.84
X10.2125Y-2.24
X10.2125Y-2.84
X10.3125Y-2.24
X10.3125Y-2.84
X10.4125Y-2.24
X10.4125Y-2.84
X10.5125Y-2.24
X10.5125Y-2.84
X10.6125Y-2.24
X10.6125Y-2.84
X10.7125Y-2.24
X10.7125Y-2.84
X10.8125Y-2.24
X10.8125Y-2.84
X10.9125Y-2.24
X10.9125Y-2.84
X11.0125Y-2.24
X11.0125Y-2.84
X11.1125Y-2.24
X11.1125Y-2.84
X12.42Y-5.543
X12.42Y-5.843
X11.485Y-5.545
X11.485Y-5.845
X15.161Y-7.7995
X15.161Y-8.0995
X7.0554Y-3.623
X7.0554Y-3.923
X14.411Y-5.5445
X14.411Y-5.8445
X8.6824Y-6.3
X8.6824Y-6.6
X12.42Y-6.3
X12.42Y-6.6
X1.355Y-3.623
X1.355Y-3.923
X13.661Y-7.0445
X13.661Y-7.3445
X14.411Y-7.7995
X14.411Y-8.0995
X11.71Y-3.623
X11.71Y-3.923
X1.73Y-5.545
X1.73Y-5.845
X2.105Y-4.805
X2.105Y-5.105
X6.235Y-5.545
X6.235Y-5.845
X5.48Y-5.545
X5.48Y-5.845
X12.911Y-5.5445
X12.911Y-5.8445
X13.661Y-5.5445
X13.661Y-5.8445
X4.545Y-7.045
X4.545Y-7.345
X3.61Y-3.623
X3.61Y-3.923
X5.6674Y-6.3
X5.6674Y-6.6
X12.911Y-6.2995
X12.911Y-6.5995
X1.355Y-7.045
X1.355Y-7.345
X10.1116Y-2.115
X10.21Y-2.115
X11.67Y-7.045
X11.67Y-7.345
X6.25Y-7.735
X6.25Y-8.035
X10.92Y-7.8
X10.92Y-8.1
X9.76Y-3.623
X9.76Y-3.923
X2.485Y-5.545
X2.485Y-5.845
X4.355Y-4.805
X4.355Y-5.105
X10.355Y-4.805
X10.355Y-5.105
X12.47Y-2.76
X12.87Y-2.76
X15.161Y-4.8045
X15.161Y-5.1045
X15.161Y-5.5445
X15.161Y-5.8445
X2.6624Y-6.3
X2.6624Y-6.6
X6.0424Y-7.045
X6.0424Y-7.345
X10.1874Y-6.3
X10.1874Y-6.6
X2.295Y-7.045
X2.295Y-7.345
X8.295Y-7.045
X8.295Y-7.345
X11.67Y-7.8
X11.67Y-8.1
X9.045Y-7.045
X9.045Y-7.345
X12.465Y-3.623
X12.465Y-3.923
X3.98Y-5.545
X3.98Y-5.845
X5.105Y-4.805
X5.105Y-5.105
X3.23Y-5.545
X3.23Y-5.845
X8.86Y-4.805
X8.86Y-5.105
X3.41Y-2.3
X3.41Y-2.7
X11.395Y-2.4429
X11.395Y-2.635
X1.8574Y-6.3
X1.8574Y-6.6
X3.4124Y-6.3
X3.4124Y-6.6
X5.2924Y-7.045
X5.2924Y-7.345
X4.805Y-3.623
X4.805Y-3.923
X15.161Y-6.2995
X15.161Y-6.5995
X13.661Y-6.2995
X13.661Y-6.5995
T6
X2.305Y-2.6496
X2.505Y-2.65
X13.995Y-2.39
X13.995Y-2.49
X13.995Y-2.59
X14.095Y-2.39
X14.095Y-2.49
X14.095Y-2.59
T7
X12.3Y-2.375
X12.3Y-2.5522
X12.5559Y-2.375
X12.5559Y-2.5522
X12.81Y-2.375
X12.81Y-2.5522
X13.0659Y-2.375
X13.0659Y-2.5522
T8
X8.3324Y-4.79
X8.5824Y-4.69
X1.1124Y-6.29
X1.3624Y-6.19
X5.782Y-3.61
X6.032Y-3.51
X1.6774Y-7.04
X1.9274Y-6.94
X15.387Y-3.61
X15.637Y-3.51
X7.7699Y-7.04
X8.0199Y-6.94
X3.0824Y-4.79
X3.3324Y-4.69
X8.1449Y-6.29
X8.3949Y-6.19
X2.3324Y-4.79
X2.5824Y-4.69
X7.9574Y-5.54
X8.2074Y-5.44
X5.8949Y-6.29
X6.1449Y-6.19
X11.1449Y-7.79
X11.3949Y-7.69
X9.6449Y-6.29
X9.8949Y-6.19
X13.1364Y-5.5395
X13.3864Y-5.4395
X9.8324Y-4.79
X10.0824Y-4.69
X13.8864Y-4.7895
X14.1364Y-4.6895
X5.3324Y-4.79
X5.5824Y-4.69
X13.1364Y-7.0395
X13.3864Y-6.9395
X3.4574Y-5.54
X3.7074Y-5.44
X11.8949Y-7.04
X12.1449Y-6.94
X4.5824Y-4.79
X4.8324Y-4.69
X15.3864Y-5.5395
X15.6364Y-5.4395
X6.0824Y-4.79
X6.3324Y-4.69
X13.8864Y-5.5395
X14.1364Y-5.4395
X14.6364Y-7.0395
X14.8864Y-6.9395
X13.1364Y-6.2895
X13.3864Y-6.1895
X11.8949Y-7.79
X12.1449Y-7.69
X15.3864Y-6.2895
X15.6364Y-6.1895
X1.582Y-3.61
X1.832Y-3.51
X3.6449Y-6.29
X3.8949Y-6.19
X4.282Y-3.61
X4.532Y-3.51
X7.5824Y-4.79
X7.8324Y-4.69
X11.8949Y-4.79
X12.1449Y-4.69
X8.5199Y-7.04
X8.7699Y-6.94
X6.532Y-3.61
X6.782Y-3.51
X0.8324Y-4.79
X1.0824Y-4.69
X6.8324Y-4.79
X7.0824Y-4.69
X7.3949Y-6.29
X7.6449Y-6.19
X10.7699Y-6.29
X11.0199Y-6.19
X2.8949Y-6.29
X3.1449Y-6.19
X4.3949Y-6.29
X4.6449Y-6.19
X14.6364Y-7.7895
X14.8864Y-7.6895
X0.8324Y-7.04
X1.0824Y-6.94
X8.8949Y-6.29
X9.1449Y-6.19
X3.082Y-3.61
X3.332Y-3.51
X11.938Y-3.61
X12.188Y-3.51
X2.7074Y-5.54
X2.9574Y-5.44
X7.736Y-3.61
X7.986Y-3.51
X1.0199Y-5.54
X1.2699Y-5.44
X9.986Y-3.61
X10.236Y-3.51
X5.1449Y-6.29
X5.3949Y-6.19
X11.7999Y-5.54
X12.0499Y-5.44
X14.6364Y-4.7895
X14.8864Y-4.6895
X4.0199Y-7.04
X4.2699Y-6.94
X11.8949Y-6.29
X12.1449Y-6.19
X3.2699Y-7.04
X3.5199Y-6.94
X10.2074Y-7.04
X10.4574Y-6.94
X4.7699Y-7.04
X5.0199Y-6.94
X14.6364Y-5.5395
X14.8864Y-5.4395
X1.9574Y-5.54
X2.2074Y-5.44
X5.032Y-3.61
X5.282Y-3.51
X9.2699Y-7.04
X9.5199Y-6.94
X4.9574Y-5.54
X5.2074Y-5.44
X11.188Y-3.61
X11.438Y-3.51
X2.5199Y-7.04
X2.7699Y-6.94
X15.3864Y-4.7895
X15.6364Y-4.6895
X5.7074Y-5.54
X5.9574Y-5.44
X2.1449Y-6.29
X2.3949Y-6.19
X9.6449Y-7.79
X9.8949Y-7.69
X8.7074Y-5.54
X8.9574Y-5.44
X13.5114Y-7.7895
X13.7614Y-7.6895
X7.0199Y-7.04
X7.2699Y-6.94
X14.637Y-3.61
X14.887Y-3.51
X9.236Y-3.61
X9.486Y-3.51
X11.1449Y-7.04
X11.3949Y-6.94
X9.0824Y-4.79
X9.3324Y-4.69
X4.2074Y-5.54
X4.4574Y-5.44
X6.2699Y-7.04
X6.5199Y-6.94
X1.5824Y-4.79
X1.8324Y-4.69
X5.6074Y-7.79
X5.8574Y-7.69
X6.4574Y-5.54
X6.7074Y-5.44
X15.3364Y-7.4145
X15.4364Y-7.6645
X13.8864Y-6.2895
X14.1364Y-6.1895
X2.332Y-3.61
X2.582Y-3.51
X10.3949Y-7.79
X10.6449Y-7.69
X9.4574Y-5.54
X9.7074Y-5.44
X10.2074Y-5.54
X10.4574Y-5.44
X3.8324Y-4.79
X4.0824Y-4.69
X13.438Y-3.61
X13.688Y-3.51
X8.486Y-3.61
X8.736Y-3.51
X13.8864Y-7.0395
X14.1364Y-6.9395
X12.688Y-3.61
X12.938Y-3.51
X5.5199Y-7.04
X5.7699Y-6.94
X13.1364Y-4.7895
X13.3864Y-4.6895
X10.8634Y-4.79
X11.1134Y-4.69
X7.2074Y-5.54
X7.4574Y-5.44
X14.6364Y-6.2895
X14.8864Y-6.1895
X0.832Y-3.61
X1.082Y-3.51
X1.2074Y-7.79
X1.4574Y-7.69
X6.6449Y-6.29
X6.8949Y-6.19
X10.9574Y-5.54
X11.2074Y-5.44
T3
G00X1.5863Y-2.0203
M15
G01X1.5863Y-2.0675
M16
G05
G00X1.667Y-2.2427
M15
G01X1.667Y-2.2427
M16
G05
G00X1.6985Y-2.1955
M15
G01X1.6985Y-2.1955
M16
G05
G00X1.73Y-2.2427
M15
G01X1.73Y-2.2427
M16
G05
G00X1.7615Y-2.1955
M15
G01X1.7615Y-2.1955
M16
G05
G00X1.793Y-2.2427
M15
G01X1.793Y-2.2427
M16
G05
G00X1.8737Y-2.0203
M15
G01X1.8737Y-2.0675
M16
G05
T0
M30
