%TF.GenerationSoftware,KiCad,Pcbnew,(5.1.6)-1*%
%TF.CreationDate,2020-09-21T09:23:47+02:00*%
%TF.ProjectId,wy60_usb,77793630-5f75-4736-922e-6b696361645f,rev?*%
%TF.SameCoordinates,Original*%
%TF.FileFunction,Legend,Top*%
%TF.FilePolarity,Positive*%
%FSLAX46Y46*%
G04 Gerber Fmt 4.6, Leading zero omitted, Abs format (unit mm)*
G04 Created by KiCad (PCBNEW (5.1.6)-1) date 2020-09-21 09:23:47*
%MOMM*%
%LPD*%
G01*
G04 APERTURE LIST*
%ADD10C,0.120000*%
%ADD11C,0.150000*%
G04 APERTURE END LIST*
D10*
%TO.C,D33*%
X242974000Y-127758000D02*
X245214000Y-127758000D01*
X242974000Y-127518000D02*
X245214000Y-127518000D01*
X242974000Y-127638000D02*
X245214000Y-127638000D01*
X244094000Y-123468000D02*
X244094000Y-124118000D01*
X244094000Y-129008000D02*
X244094000Y-128358000D01*
X242974000Y-124118000D02*
X242974000Y-128358000D01*
X245214000Y-124118000D02*
X242974000Y-124118000D01*
X245214000Y-128358000D02*
X245214000Y-124118000D01*
X242974000Y-128358000D02*
X245214000Y-128358000D01*
%TO.C,D113*%
X384579000Y-184527000D02*
X386819000Y-184527000D01*
X384579000Y-184287000D02*
X386819000Y-184287000D01*
X384579000Y-184407000D02*
X386819000Y-184407000D01*
X385699000Y-180237000D02*
X385699000Y-180887000D01*
X385699000Y-185777000D02*
X385699000Y-185127000D01*
X384579000Y-180887000D02*
X384579000Y-185127000D01*
X386819000Y-180887000D02*
X384579000Y-180887000D01*
X386819000Y-185127000D02*
X386819000Y-180887000D01*
X384579000Y-185127000D02*
X386819000Y-185127000D01*
%TO.C,D112*%
X384579000Y-203704000D02*
X386819000Y-203704000D01*
X384579000Y-203464000D02*
X386819000Y-203464000D01*
X384579000Y-203584000D02*
X386819000Y-203584000D01*
X385699000Y-199414000D02*
X385699000Y-200064000D01*
X385699000Y-204954000D02*
X385699000Y-204304000D01*
X384579000Y-200064000D02*
X384579000Y-204304000D01*
X386819000Y-200064000D02*
X384579000Y-200064000D01*
X386819000Y-204304000D02*
X386819000Y-200064000D01*
X384579000Y-204304000D02*
X386819000Y-204304000D01*
%TO.C,D111*%
X365402000Y-203704000D02*
X367642000Y-203704000D01*
X365402000Y-203464000D02*
X367642000Y-203464000D01*
X365402000Y-203584000D02*
X367642000Y-203584000D01*
X366522000Y-199414000D02*
X366522000Y-200064000D01*
X366522000Y-204954000D02*
X366522000Y-204304000D01*
X365402000Y-200064000D02*
X365402000Y-204304000D01*
X367642000Y-200064000D02*
X365402000Y-200064000D01*
X367642000Y-204304000D02*
X367642000Y-200064000D01*
X365402000Y-204304000D02*
X367642000Y-204304000D01*
%TO.C,D110*%
X314729000Y-203704000D02*
X316969000Y-203704000D01*
X314729000Y-203464000D02*
X316969000Y-203464000D01*
X314729000Y-203584000D02*
X316969000Y-203584000D01*
X315849000Y-199414000D02*
X315849000Y-200064000D01*
X315849000Y-204954000D02*
X315849000Y-204304000D01*
X314729000Y-200064000D02*
X314729000Y-204304000D01*
X316969000Y-200064000D02*
X314729000Y-200064000D01*
X316969000Y-204304000D02*
X316969000Y-200064000D01*
X314729000Y-204304000D02*
X316969000Y-204304000D01*
%TO.C,D109*%
X295552000Y-203704000D02*
X297792000Y-203704000D01*
X295552000Y-203464000D02*
X297792000Y-203464000D01*
X295552000Y-203584000D02*
X297792000Y-203584000D01*
X296672000Y-199414000D02*
X296672000Y-200064000D01*
X296672000Y-204954000D02*
X296672000Y-204304000D01*
X295552000Y-200064000D02*
X295552000Y-204304000D01*
X297792000Y-200064000D02*
X295552000Y-200064000D01*
X297792000Y-204304000D02*
X297792000Y-200064000D01*
X295552000Y-204304000D02*
X297792000Y-204304000D01*
%TO.C,D108*%
X276375000Y-203704000D02*
X278615000Y-203704000D01*
X276375000Y-203464000D02*
X278615000Y-203464000D01*
X276375000Y-203584000D02*
X278615000Y-203584000D01*
X277495000Y-199414000D02*
X277495000Y-200064000D01*
X277495000Y-204954000D02*
X277495000Y-204304000D01*
X276375000Y-200064000D02*
X276375000Y-204304000D01*
X278615000Y-200064000D02*
X276375000Y-200064000D01*
X278615000Y-204304000D02*
X278615000Y-200064000D01*
X276375000Y-204304000D02*
X278615000Y-204304000D01*
%TO.C,D104*%
X257325000Y-203704000D02*
X259565000Y-203704000D01*
X257325000Y-203464000D02*
X259565000Y-203464000D01*
X257325000Y-203584000D02*
X259565000Y-203584000D01*
X258445000Y-199414000D02*
X258445000Y-200064000D01*
X258445000Y-204954000D02*
X258445000Y-204304000D01*
X257325000Y-200064000D02*
X257325000Y-204304000D01*
X259565000Y-200064000D02*
X257325000Y-200064000D01*
X259565000Y-204304000D02*
X259565000Y-200064000D01*
X257325000Y-204304000D02*
X259565000Y-204304000D01*
%TO.C,D98*%
X159535000Y-202053000D02*
X161775000Y-202053000D01*
X159535000Y-201813000D02*
X161775000Y-201813000D01*
X159535000Y-201933000D02*
X161775000Y-201933000D01*
X160655000Y-197763000D02*
X160655000Y-198413000D01*
X160655000Y-203303000D02*
X160655000Y-202653000D01*
X159535000Y-198413000D02*
X159535000Y-202653000D01*
X161775000Y-198413000D02*
X159535000Y-198413000D01*
X161775000Y-202653000D02*
X161775000Y-198413000D01*
X159535000Y-202653000D02*
X161775000Y-202653000D01*
%TO.C,D97*%
X53109000Y-202053000D02*
X55349000Y-202053000D01*
X53109000Y-201813000D02*
X55349000Y-201813000D01*
X53109000Y-201933000D02*
X55349000Y-201933000D01*
X54229000Y-197763000D02*
X54229000Y-198413000D01*
X54229000Y-203303000D02*
X54229000Y-202653000D01*
X53109000Y-198413000D02*
X53109000Y-202653000D01*
X55349000Y-198413000D02*
X53109000Y-198413000D01*
X55349000Y-202653000D02*
X55349000Y-198413000D01*
X53109000Y-202653000D02*
X55349000Y-202653000D01*
%TO.C,D96*%
X365402000Y-184527000D02*
X367642000Y-184527000D01*
X365402000Y-184287000D02*
X367642000Y-184287000D01*
X365402000Y-184407000D02*
X367642000Y-184407000D01*
X366522000Y-180237000D02*
X366522000Y-180887000D01*
X366522000Y-185777000D02*
X366522000Y-185127000D01*
X365402000Y-180887000D02*
X365402000Y-185127000D01*
X367642000Y-180887000D02*
X365402000Y-180887000D01*
X367642000Y-185127000D02*
X367642000Y-180887000D01*
X365402000Y-185127000D02*
X367642000Y-185127000D01*
%TO.C,D95*%
X346225000Y-184527000D02*
X348465000Y-184527000D01*
X346225000Y-184287000D02*
X348465000Y-184287000D01*
X346225000Y-184407000D02*
X348465000Y-184407000D01*
X347345000Y-180237000D02*
X347345000Y-180887000D01*
X347345000Y-185777000D02*
X347345000Y-185127000D01*
X346225000Y-180887000D02*
X346225000Y-185127000D01*
X348465000Y-180887000D02*
X346225000Y-180887000D01*
X348465000Y-185127000D02*
X348465000Y-180887000D01*
X346225000Y-185127000D02*
X348465000Y-185127000D01*
%TO.C,D94*%
X327175000Y-184527000D02*
X329415000Y-184527000D01*
X327175000Y-184287000D02*
X329415000Y-184287000D01*
X327175000Y-184407000D02*
X329415000Y-184407000D01*
X328295000Y-180237000D02*
X328295000Y-180887000D01*
X328295000Y-185777000D02*
X328295000Y-185127000D01*
X327175000Y-180887000D02*
X327175000Y-185127000D01*
X329415000Y-180887000D02*
X327175000Y-180887000D01*
X329415000Y-185127000D02*
X329415000Y-180887000D01*
X327175000Y-185127000D02*
X329415000Y-185127000D01*
%TO.C,D93*%
X314729000Y-184527000D02*
X316969000Y-184527000D01*
X314729000Y-184287000D02*
X316969000Y-184287000D01*
X314729000Y-184407000D02*
X316969000Y-184407000D01*
X315849000Y-180237000D02*
X315849000Y-180887000D01*
X315849000Y-185777000D02*
X315849000Y-185127000D01*
X314729000Y-180887000D02*
X314729000Y-185127000D01*
X316969000Y-180887000D02*
X314729000Y-180887000D01*
X316969000Y-185127000D02*
X316969000Y-180887000D01*
X314729000Y-185127000D02*
X316969000Y-185127000D01*
%TO.C,D92*%
X295552000Y-184527000D02*
X297792000Y-184527000D01*
X295552000Y-184287000D02*
X297792000Y-184287000D01*
X295552000Y-184407000D02*
X297792000Y-184407000D01*
X296672000Y-180237000D02*
X296672000Y-180887000D01*
X296672000Y-185777000D02*
X296672000Y-185127000D01*
X295552000Y-180887000D02*
X295552000Y-185127000D01*
X297792000Y-180887000D02*
X295552000Y-180887000D01*
X297792000Y-185127000D02*
X297792000Y-180887000D01*
X295552000Y-185127000D02*
X297792000Y-185127000D01*
%TO.C,D91*%
X276375000Y-184527000D02*
X278615000Y-184527000D01*
X276375000Y-184287000D02*
X278615000Y-184287000D01*
X276375000Y-184407000D02*
X278615000Y-184407000D01*
X277495000Y-180237000D02*
X277495000Y-180887000D01*
X277495000Y-185777000D02*
X277495000Y-185127000D01*
X276375000Y-180887000D02*
X276375000Y-185127000D01*
X278615000Y-180887000D02*
X276375000Y-180887000D01*
X278615000Y-185127000D02*
X278615000Y-180887000D01*
X276375000Y-185127000D02*
X278615000Y-185127000D01*
%TO.C,D90*%
X247800000Y-184527000D02*
X250040000Y-184527000D01*
X247800000Y-184287000D02*
X250040000Y-184287000D01*
X247800000Y-184407000D02*
X250040000Y-184407000D01*
X248920000Y-180237000D02*
X248920000Y-180887000D01*
X248920000Y-185777000D02*
X248920000Y-185127000D01*
X247800000Y-180887000D02*
X247800000Y-185127000D01*
X250040000Y-180887000D02*
X247800000Y-180887000D01*
X250040000Y-185127000D02*
X250040000Y-180887000D01*
X247800000Y-185127000D02*
X250040000Y-185127000D01*
%TO.C,D89*%
X228623000Y-184527000D02*
X230863000Y-184527000D01*
X228623000Y-184287000D02*
X230863000Y-184287000D01*
X228623000Y-184407000D02*
X230863000Y-184407000D01*
X229743000Y-180237000D02*
X229743000Y-180887000D01*
X229743000Y-185777000D02*
X229743000Y-185127000D01*
X228623000Y-180887000D02*
X228623000Y-185127000D01*
X230863000Y-180887000D02*
X228623000Y-180887000D01*
X230863000Y-185127000D02*
X230863000Y-180887000D01*
X228623000Y-185127000D02*
X230863000Y-185127000D01*
%TO.C,D88*%
X209573000Y-184527000D02*
X211813000Y-184527000D01*
X209573000Y-184287000D02*
X211813000Y-184287000D01*
X209573000Y-184407000D02*
X211813000Y-184407000D01*
X210693000Y-180237000D02*
X210693000Y-180887000D01*
X210693000Y-185777000D02*
X210693000Y-185127000D01*
X209573000Y-180887000D02*
X209573000Y-185127000D01*
X211813000Y-180887000D02*
X209573000Y-180887000D01*
X211813000Y-185127000D02*
X211813000Y-180887000D01*
X209573000Y-185127000D02*
X211813000Y-185127000D01*
%TO.C,D87*%
X190396000Y-184527000D02*
X192636000Y-184527000D01*
X190396000Y-184287000D02*
X192636000Y-184287000D01*
X190396000Y-184407000D02*
X192636000Y-184407000D01*
X191516000Y-180237000D02*
X191516000Y-180887000D01*
X191516000Y-185777000D02*
X191516000Y-185127000D01*
X190396000Y-180887000D02*
X190396000Y-185127000D01*
X192636000Y-180887000D02*
X190396000Y-180887000D01*
X192636000Y-185127000D02*
X192636000Y-180887000D01*
X190396000Y-185127000D02*
X192636000Y-185127000D01*
%TO.C,D86*%
X171346000Y-184527000D02*
X173586000Y-184527000D01*
X171346000Y-184287000D02*
X173586000Y-184287000D01*
X171346000Y-184407000D02*
X173586000Y-184407000D01*
X172466000Y-180237000D02*
X172466000Y-180887000D01*
X172466000Y-185777000D02*
X172466000Y-185127000D01*
X171346000Y-180887000D02*
X171346000Y-185127000D01*
X173586000Y-180887000D02*
X171346000Y-180887000D01*
X173586000Y-185127000D02*
X173586000Y-180887000D01*
X171346000Y-185127000D02*
X173586000Y-185127000D01*
%TO.C,D85*%
X152169000Y-184527000D02*
X154409000Y-184527000D01*
X152169000Y-184287000D02*
X154409000Y-184287000D01*
X152169000Y-184407000D02*
X154409000Y-184407000D01*
X153289000Y-180237000D02*
X153289000Y-180887000D01*
X153289000Y-185777000D02*
X153289000Y-185127000D01*
X152169000Y-180887000D02*
X152169000Y-185127000D01*
X154409000Y-180887000D02*
X152169000Y-180887000D01*
X154409000Y-185127000D02*
X154409000Y-180887000D01*
X152169000Y-185127000D02*
X154409000Y-185127000D01*
%TO.C,D84*%
X133119000Y-184527000D02*
X135359000Y-184527000D01*
X133119000Y-184287000D02*
X135359000Y-184287000D01*
X133119000Y-184407000D02*
X135359000Y-184407000D01*
X134239000Y-180237000D02*
X134239000Y-180887000D01*
X134239000Y-185777000D02*
X134239000Y-185127000D01*
X133119000Y-180887000D02*
X133119000Y-185127000D01*
X135359000Y-180887000D02*
X133119000Y-180887000D01*
X135359000Y-185127000D02*
X135359000Y-180887000D01*
X133119000Y-185127000D02*
X135359000Y-185127000D01*
%TO.C,D83*%
X113942000Y-184527000D02*
X116182000Y-184527000D01*
X113942000Y-184287000D02*
X116182000Y-184287000D01*
X113942000Y-184407000D02*
X116182000Y-184407000D01*
X115062000Y-180237000D02*
X115062000Y-180887000D01*
X115062000Y-185777000D02*
X115062000Y-185127000D01*
X113942000Y-180887000D02*
X113942000Y-185127000D01*
X116182000Y-180887000D02*
X113942000Y-180887000D01*
X116182000Y-185127000D02*
X116182000Y-180887000D01*
X113942000Y-185127000D02*
X116182000Y-185127000D01*
%TO.C,D82*%
X94892000Y-184527000D02*
X97132000Y-184527000D01*
X94892000Y-184287000D02*
X97132000Y-184287000D01*
X94892000Y-184407000D02*
X97132000Y-184407000D01*
X96012000Y-180237000D02*
X96012000Y-180887000D01*
X96012000Y-185777000D02*
X96012000Y-185127000D01*
X94892000Y-180887000D02*
X94892000Y-185127000D01*
X97132000Y-180887000D02*
X94892000Y-180887000D01*
X97132000Y-185127000D02*
X97132000Y-180887000D01*
X94892000Y-185127000D02*
X97132000Y-185127000D01*
%TO.C,D81*%
X75842000Y-184527000D02*
X78082000Y-184527000D01*
X75842000Y-184287000D02*
X78082000Y-184287000D01*
X75842000Y-184407000D02*
X78082000Y-184407000D01*
X76962000Y-180237000D02*
X76962000Y-180887000D01*
X76962000Y-185777000D02*
X76962000Y-185127000D01*
X75842000Y-180887000D02*
X75842000Y-185127000D01*
X78082000Y-180887000D02*
X75842000Y-180887000D01*
X78082000Y-185127000D02*
X78082000Y-180887000D01*
X75842000Y-185127000D02*
X78082000Y-185127000D01*
%TO.C,D80*%
X56665000Y-184527000D02*
X58905000Y-184527000D01*
X56665000Y-184287000D02*
X58905000Y-184287000D01*
X56665000Y-184407000D02*
X58905000Y-184407000D01*
X57785000Y-180237000D02*
X57785000Y-180887000D01*
X57785000Y-185777000D02*
X57785000Y-185127000D01*
X56665000Y-180887000D02*
X56665000Y-185127000D01*
X58905000Y-180887000D02*
X56665000Y-180887000D01*
X58905000Y-185127000D02*
X58905000Y-180887000D01*
X56665000Y-185127000D02*
X58905000Y-185127000D01*
%TO.C,D79*%
X32916000Y-184527000D02*
X35156000Y-184527000D01*
X32916000Y-184287000D02*
X35156000Y-184287000D01*
X32916000Y-184407000D02*
X35156000Y-184407000D01*
X34036000Y-180237000D02*
X34036000Y-180887000D01*
X34036000Y-185777000D02*
X34036000Y-185127000D01*
X32916000Y-180887000D02*
X32916000Y-185127000D01*
X35156000Y-180887000D02*
X32916000Y-180887000D01*
X35156000Y-185127000D02*
X35156000Y-180887000D01*
X32916000Y-185127000D02*
X35156000Y-185127000D01*
%TO.C,D78*%
X384579000Y-165604000D02*
X386819000Y-165604000D01*
X384579000Y-165364000D02*
X386819000Y-165364000D01*
X384579000Y-165484000D02*
X386819000Y-165484000D01*
X385699000Y-161314000D02*
X385699000Y-161964000D01*
X385699000Y-166854000D02*
X385699000Y-166204000D01*
X384579000Y-161964000D02*
X384579000Y-166204000D01*
X386819000Y-161964000D02*
X384579000Y-161964000D01*
X386819000Y-166204000D02*
X386819000Y-161964000D01*
X384579000Y-166204000D02*
X386819000Y-166204000D01*
%TO.C,D77*%
X365529000Y-165604000D02*
X367769000Y-165604000D01*
X365529000Y-165364000D02*
X367769000Y-165364000D01*
X365529000Y-165484000D02*
X367769000Y-165484000D01*
X366649000Y-161314000D02*
X366649000Y-161964000D01*
X366649000Y-166854000D02*
X366649000Y-166204000D01*
X365529000Y-161964000D02*
X365529000Y-166204000D01*
X367769000Y-161964000D02*
X365529000Y-161964000D01*
X367769000Y-166204000D02*
X367769000Y-161964000D01*
X365529000Y-166204000D02*
X367769000Y-166204000D01*
%TO.C,D76*%
X346352000Y-165604000D02*
X348592000Y-165604000D01*
X346352000Y-165364000D02*
X348592000Y-165364000D01*
X346352000Y-165484000D02*
X348592000Y-165484000D01*
X347472000Y-161314000D02*
X347472000Y-161964000D01*
X347472000Y-166854000D02*
X347472000Y-166204000D01*
X346352000Y-161964000D02*
X346352000Y-166204000D01*
X348592000Y-161964000D02*
X346352000Y-161964000D01*
X348592000Y-166204000D02*
X348592000Y-161964000D01*
X346352000Y-166204000D02*
X348592000Y-166204000D01*
%TO.C,D75*%
X327175000Y-165604000D02*
X329415000Y-165604000D01*
X327175000Y-165364000D02*
X329415000Y-165364000D01*
X327175000Y-165484000D02*
X329415000Y-165484000D01*
X328295000Y-161314000D02*
X328295000Y-161964000D01*
X328295000Y-166854000D02*
X328295000Y-166204000D01*
X327175000Y-161964000D02*
X327175000Y-166204000D01*
X329415000Y-161964000D02*
X327175000Y-161964000D01*
X329415000Y-166204000D02*
X329415000Y-161964000D01*
X327175000Y-166204000D02*
X329415000Y-166204000D01*
%TO.C,D74*%
X314729000Y-165604000D02*
X316969000Y-165604000D01*
X314729000Y-165364000D02*
X316969000Y-165364000D01*
X314729000Y-165484000D02*
X316969000Y-165484000D01*
X315849000Y-161314000D02*
X315849000Y-161964000D01*
X315849000Y-166854000D02*
X315849000Y-166204000D01*
X314729000Y-161964000D02*
X314729000Y-166204000D01*
X316969000Y-161964000D02*
X314729000Y-161964000D01*
X316969000Y-166204000D02*
X316969000Y-161964000D01*
X314729000Y-166204000D02*
X316969000Y-166204000D01*
%TO.C,D72*%
X295552000Y-165604000D02*
X297792000Y-165604000D01*
X295552000Y-165364000D02*
X297792000Y-165364000D01*
X295552000Y-165484000D02*
X297792000Y-165484000D01*
X296672000Y-161314000D02*
X296672000Y-161964000D01*
X296672000Y-166854000D02*
X296672000Y-166204000D01*
X295552000Y-161964000D02*
X295552000Y-166204000D01*
X297792000Y-161964000D02*
X295552000Y-161964000D01*
X297792000Y-166204000D02*
X297792000Y-161964000D01*
X295552000Y-166204000D02*
X297792000Y-166204000D01*
%TO.C,D71*%
X257452000Y-165604000D02*
X259692000Y-165604000D01*
X257452000Y-165364000D02*
X259692000Y-165364000D01*
X257452000Y-165484000D02*
X259692000Y-165484000D01*
X258572000Y-161314000D02*
X258572000Y-161964000D01*
X258572000Y-166854000D02*
X258572000Y-166204000D01*
X257452000Y-161964000D02*
X257452000Y-166204000D01*
X259692000Y-161964000D02*
X257452000Y-161964000D01*
X259692000Y-166204000D02*
X259692000Y-161964000D01*
X257452000Y-166204000D02*
X259692000Y-166204000D01*
%TO.C,D70*%
X238275000Y-165604000D02*
X240515000Y-165604000D01*
X238275000Y-165364000D02*
X240515000Y-165364000D01*
X238275000Y-165484000D02*
X240515000Y-165484000D01*
X239395000Y-161314000D02*
X239395000Y-161964000D01*
X239395000Y-166854000D02*
X239395000Y-166204000D01*
X238275000Y-161964000D02*
X238275000Y-166204000D01*
X240515000Y-161964000D02*
X238275000Y-161964000D01*
X240515000Y-166204000D02*
X240515000Y-161964000D01*
X238275000Y-166204000D02*
X240515000Y-166204000D01*
%TO.C,D69*%
X219225000Y-165604000D02*
X221465000Y-165604000D01*
X219225000Y-165364000D02*
X221465000Y-165364000D01*
X219225000Y-165484000D02*
X221465000Y-165484000D01*
X220345000Y-161314000D02*
X220345000Y-161964000D01*
X220345000Y-166854000D02*
X220345000Y-166204000D01*
X219225000Y-161964000D02*
X219225000Y-166204000D01*
X221465000Y-161964000D02*
X219225000Y-161964000D01*
X221465000Y-166204000D02*
X221465000Y-161964000D01*
X219225000Y-166204000D02*
X221465000Y-166204000D01*
%TO.C,D68*%
X200048000Y-165604000D02*
X202288000Y-165604000D01*
X200048000Y-165364000D02*
X202288000Y-165364000D01*
X200048000Y-165484000D02*
X202288000Y-165484000D01*
X201168000Y-161314000D02*
X201168000Y-161964000D01*
X201168000Y-166854000D02*
X201168000Y-166204000D01*
X200048000Y-161964000D02*
X200048000Y-166204000D01*
X202288000Y-161964000D02*
X200048000Y-161964000D01*
X202288000Y-166204000D02*
X202288000Y-161964000D01*
X200048000Y-166204000D02*
X202288000Y-166204000D01*
%TO.C,D67*%
X180998000Y-165604000D02*
X183238000Y-165604000D01*
X180998000Y-165364000D02*
X183238000Y-165364000D01*
X180998000Y-165484000D02*
X183238000Y-165484000D01*
X182118000Y-161314000D02*
X182118000Y-161964000D01*
X182118000Y-166854000D02*
X182118000Y-166204000D01*
X180998000Y-161964000D02*
X180998000Y-166204000D01*
X183238000Y-161964000D02*
X180998000Y-161964000D01*
X183238000Y-166204000D02*
X183238000Y-161964000D01*
X180998000Y-166204000D02*
X183238000Y-166204000D01*
%TO.C,D66*%
X161821000Y-165604000D02*
X164061000Y-165604000D01*
X161821000Y-165364000D02*
X164061000Y-165364000D01*
X161821000Y-165484000D02*
X164061000Y-165484000D01*
X162941000Y-161314000D02*
X162941000Y-161964000D01*
X162941000Y-166854000D02*
X162941000Y-166204000D01*
X161821000Y-161964000D02*
X161821000Y-166204000D01*
X164061000Y-161964000D02*
X161821000Y-161964000D01*
X164061000Y-166204000D02*
X164061000Y-161964000D01*
X161821000Y-166204000D02*
X164061000Y-166204000D01*
%TO.C,D65*%
X142644000Y-165604000D02*
X144884000Y-165604000D01*
X142644000Y-165364000D02*
X144884000Y-165364000D01*
X142644000Y-165484000D02*
X144884000Y-165484000D01*
X143764000Y-161314000D02*
X143764000Y-161964000D01*
X143764000Y-166854000D02*
X143764000Y-166204000D01*
X142644000Y-161964000D02*
X142644000Y-166204000D01*
X144884000Y-161964000D02*
X142644000Y-161964000D01*
X144884000Y-166204000D02*
X144884000Y-161964000D01*
X142644000Y-166204000D02*
X144884000Y-166204000D01*
%TO.C,D64*%
X123594000Y-165604000D02*
X125834000Y-165604000D01*
X123594000Y-165364000D02*
X125834000Y-165364000D01*
X123594000Y-165484000D02*
X125834000Y-165484000D01*
X124714000Y-161314000D02*
X124714000Y-161964000D01*
X124714000Y-166854000D02*
X124714000Y-166204000D01*
X123594000Y-161964000D02*
X123594000Y-166204000D01*
X125834000Y-161964000D02*
X123594000Y-161964000D01*
X125834000Y-166204000D02*
X125834000Y-161964000D01*
X123594000Y-166204000D02*
X125834000Y-166204000D01*
%TO.C,D63*%
X104544000Y-165604000D02*
X106784000Y-165604000D01*
X104544000Y-165364000D02*
X106784000Y-165364000D01*
X104544000Y-165484000D02*
X106784000Y-165484000D01*
X105664000Y-161314000D02*
X105664000Y-161964000D01*
X105664000Y-166854000D02*
X105664000Y-166204000D01*
X104544000Y-161964000D02*
X104544000Y-166204000D01*
X106784000Y-161964000D02*
X104544000Y-161964000D01*
X106784000Y-166204000D02*
X106784000Y-161964000D01*
X104544000Y-166204000D02*
X106784000Y-166204000D01*
%TO.C,D62*%
X85367000Y-165604000D02*
X87607000Y-165604000D01*
X85367000Y-165364000D02*
X87607000Y-165364000D01*
X85367000Y-165484000D02*
X87607000Y-165484000D01*
X86487000Y-161314000D02*
X86487000Y-161964000D01*
X86487000Y-166854000D02*
X86487000Y-166204000D01*
X85367000Y-161964000D02*
X85367000Y-166204000D01*
X87607000Y-161964000D02*
X85367000Y-161964000D01*
X87607000Y-166204000D02*
X87607000Y-161964000D01*
X85367000Y-166204000D02*
X87607000Y-166204000D01*
%TO.C,D61*%
X66317000Y-165604000D02*
X68557000Y-165604000D01*
X66317000Y-165364000D02*
X68557000Y-165364000D01*
X66317000Y-165484000D02*
X68557000Y-165484000D01*
X67437000Y-161314000D02*
X67437000Y-161964000D01*
X67437000Y-166854000D02*
X67437000Y-166204000D01*
X66317000Y-161964000D02*
X66317000Y-166204000D01*
X68557000Y-161964000D02*
X66317000Y-161964000D01*
X68557000Y-166204000D02*
X68557000Y-161964000D01*
X66317000Y-166204000D02*
X68557000Y-166204000D01*
%TO.C,D60*%
X45870000Y-165604000D02*
X48110000Y-165604000D01*
X45870000Y-165364000D02*
X48110000Y-165364000D01*
X45870000Y-165484000D02*
X48110000Y-165484000D01*
X46990000Y-161314000D02*
X46990000Y-161964000D01*
X46990000Y-166854000D02*
X46990000Y-166204000D01*
X45870000Y-161964000D02*
X45870000Y-166204000D01*
X48110000Y-161964000D02*
X45870000Y-161964000D01*
X48110000Y-166204000D02*
X48110000Y-161964000D01*
X45870000Y-166204000D02*
X48110000Y-166204000D01*
%TO.C,D59*%
X384579000Y-146427000D02*
X386819000Y-146427000D01*
X384579000Y-146187000D02*
X386819000Y-146187000D01*
X384579000Y-146307000D02*
X386819000Y-146307000D01*
X385699000Y-142137000D02*
X385699000Y-142787000D01*
X385699000Y-147677000D02*
X385699000Y-147027000D01*
X384579000Y-142787000D02*
X384579000Y-147027000D01*
X386819000Y-142787000D02*
X384579000Y-142787000D01*
X386819000Y-147027000D02*
X386819000Y-142787000D01*
X384579000Y-147027000D02*
X386819000Y-147027000D01*
%TO.C,D58*%
X365529000Y-146427000D02*
X367769000Y-146427000D01*
X365529000Y-146187000D02*
X367769000Y-146187000D01*
X365529000Y-146307000D02*
X367769000Y-146307000D01*
X366649000Y-142137000D02*
X366649000Y-142787000D01*
X366649000Y-147677000D02*
X366649000Y-147027000D01*
X365529000Y-142787000D02*
X365529000Y-147027000D01*
X367769000Y-142787000D02*
X365529000Y-142787000D01*
X367769000Y-147027000D02*
X367769000Y-142787000D01*
X365529000Y-147027000D02*
X367769000Y-147027000D01*
%TO.C,D57*%
X346352000Y-146427000D02*
X348592000Y-146427000D01*
X346352000Y-146187000D02*
X348592000Y-146187000D01*
X346352000Y-146307000D02*
X348592000Y-146307000D01*
X347472000Y-142137000D02*
X347472000Y-142787000D01*
X347472000Y-147677000D02*
X347472000Y-147027000D01*
X346352000Y-142787000D02*
X346352000Y-147027000D01*
X348592000Y-142787000D02*
X346352000Y-142787000D01*
X348592000Y-147027000D02*
X348592000Y-142787000D01*
X346352000Y-147027000D02*
X348592000Y-147027000D01*
%TO.C,D56*%
X327175000Y-146427000D02*
X329415000Y-146427000D01*
X327175000Y-146187000D02*
X329415000Y-146187000D01*
X327175000Y-146307000D02*
X329415000Y-146307000D01*
X328295000Y-142137000D02*
X328295000Y-142787000D01*
X328295000Y-147677000D02*
X328295000Y-147027000D01*
X327175000Y-142787000D02*
X327175000Y-147027000D01*
X329415000Y-142787000D02*
X327175000Y-142787000D01*
X329415000Y-147027000D02*
X329415000Y-142787000D01*
X327175000Y-147027000D02*
X329415000Y-147027000D01*
%TO.C,D55*%
X314602000Y-146427000D02*
X316842000Y-146427000D01*
X314602000Y-146187000D02*
X316842000Y-146187000D01*
X314602000Y-146307000D02*
X316842000Y-146307000D01*
X315722000Y-142137000D02*
X315722000Y-142787000D01*
X315722000Y-147677000D02*
X315722000Y-147027000D01*
X314602000Y-142787000D02*
X314602000Y-147027000D01*
X316842000Y-142787000D02*
X314602000Y-142787000D01*
X316842000Y-147027000D02*
X316842000Y-142787000D01*
X314602000Y-147027000D02*
X316842000Y-147027000D01*
%TO.C,D54*%
X290599000Y-146427000D02*
X292839000Y-146427000D01*
X290599000Y-146187000D02*
X292839000Y-146187000D01*
X290599000Y-146307000D02*
X292839000Y-146307000D01*
X291719000Y-142137000D02*
X291719000Y-142787000D01*
X291719000Y-147677000D02*
X291719000Y-147027000D01*
X290599000Y-142787000D02*
X290599000Y-147027000D01*
X292839000Y-142787000D02*
X290599000Y-142787000D01*
X292839000Y-147027000D02*
X292839000Y-142787000D01*
X290599000Y-147027000D02*
X292839000Y-147027000D01*
%TO.C,D53*%
X271422000Y-146427000D02*
X273662000Y-146427000D01*
X271422000Y-146187000D02*
X273662000Y-146187000D01*
X271422000Y-146307000D02*
X273662000Y-146307000D01*
X272542000Y-142137000D02*
X272542000Y-142787000D01*
X272542000Y-147677000D02*
X272542000Y-147027000D01*
X271422000Y-142787000D02*
X271422000Y-147027000D01*
X273662000Y-142787000D02*
X271422000Y-142787000D01*
X273662000Y-147027000D02*
X273662000Y-142787000D01*
X271422000Y-147027000D02*
X273662000Y-147027000D01*
%TO.C,D52*%
X252372000Y-146427000D02*
X254612000Y-146427000D01*
X252372000Y-146187000D02*
X254612000Y-146187000D01*
X252372000Y-146307000D02*
X254612000Y-146307000D01*
X253492000Y-142137000D02*
X253492000Y-142787000D01*
X253492000Y-147677000D02*
X253492000Y-147027000D01*
X252372000Y-142787000D02*
X252372000Y-147027000D01*
X254612000Y-142787000D02*
X252372000Y-142787000D01*
X254612000Y-147027000D02*
X254612000Y-142787000D01*
X252372000Y-147027000D02*
X254612000Y-147027000D01*
%TO.C,D51*%
X233195000Y-146427000D02*
X235435000Y-146427000D01*
X233195000Y-146187000D02*
X235435000Y-146187000D01*
X233195000Y-146307000D02*
X235435000Y-146307000D01*
X234315000Y-142137000D02*
X234315000Y-142787000D01*
X234315000Y-147677000D02*
X234315000Y-147027000D01*
X233195000Y-142787000D02*
X233195000Y-147027000D01*
X235435000Y-142787000D02*
X233195000Y-142787000D01*
X235435000Y-147027000D02*
X235435000Y-142787000D01*
X233195000Y-147027000D02*
X235435000Y-147027000D01*
%TO.C,D50*%
X214018000Y-146427000D02*
X216258000Y-146427000D01*
X214018000Y-146187000D02*
X216258000Y-146187000D01*
X214018000Y-146307000D02*
X216258000Y-146307000D01*
X215138000Y-142137000D02*
X215138000Y-142787000D01*
X215138000Y-147677000D02*
X215138000Y-147027000D01*
X214018000Y-142787000D02*
X214018000Y-147027000D01*
X216258000Y-142787000D02*
X214018000Y-142787000D01*
X216258000Y-147027000D02*
X216258000Y-142787000D01*
X214018000Y-147027000D02*
X216258000Y-147027000D01*
%TO.C,D49*%
X194968000Y-146427000D02*
X197208000Y-146427000D01*
X194968000Y-146187000D02*
X197208000Y-146187000D01*
X194968000Y-146307000D02*
X197208000Y-146307000D01*
X196088000Y-142137000D02*
X196088000Y-142787000D01*
X196088000Y-147677000D02*
X196088000Y-147027000D01*
X194968000Y-142787000D02*
X194968000Y-147027000D01*
X197208000Y-142787000D02*
X194968000Y-142787000D01*
X197208000Y-147027000D02*
X197208000Y-142787000D01*
X194968000Y-147027000D02*
X197208000Y-147027000D01*
%TO.C,D48*%
X175918000Y-146427000D02*
X178158000Y-146427000D01*
X175918000Y-146187000D02*
X178158000Y-146187000D01*
X175918000Y-146307000D02*
X178158000Y-146307000D01*
X177038000Y-142137000D02*
X177038000Y-142787000D01*
X177038000Y-147677000D02*
X177038000Y-147027000D01*
X175918000Y-142787000D02*
X175918000Y-147027000D01*
X178158000Y-142787000D02*
X175918000Y-142787000D01*
X178158000Y-147027000D02*
X178158000Y-142787000D01*
X175918000Y-147027000D02*
X178158000Y-147027000D01*
%TO.C,D47*%
X156741000Y-146427000D02*
X158981000Y-146427000D01*
X156741000Y-146187000D02*
X158981000Y-146187000D01*
X156741000Y-146307000D02*
X158981000Y-146307000D01*
X157861000Y-142137000D02*
X157861000Y-142787000D01*
X157861000Y-147677000D02*
X157861000Y-147027000D01*
X156741000Y-142787000D02*
X156741000Y-147027000D01*
X158981000Y-142787000D02*
X156741000Y-142787000D01*
X158981000Y-147027000D02*
X158981000Y-142787000D01*
X156741000Y-147027000D02*
X158981000Y-147027000D01*
%TO.C,D46*%
X137691000Y-146427000D02*
X139931000Y-146427000D01*
X137691000Y-146187000D02*
X139931000Y-146187000D01*
X137691000Y-146307000D02*
X139931000Y-146307000D01*
X138811000Y-142137000D02*
X138811000Y-142787000D01*
X138811000Y-147677000D02*
X138811000Y-147027000D01*
X137691000Y-142787000D02*
X137691000Y-147027000D01*
X139931000Y-142787000D02*
X137691000Y-142787000D01*
X139931000Y-147027000D02*
X139931000Y-142787000D01*
X137691000Y-147027000D02*
X139931000Y-147027000D01*
%TO.C,D45*%
X118514000Y-146427000D02*
X120754000Y-146427000D01*
X118514000Y-146187000D02*
X120754000Y-146187000D01*
X118514000Y-146307000D02*
X120754000Y-146307000D01*
X119634000Y-142137000D02*
X119634000Y-142787000D01*
X119634000Y-147677000D02*
X119634000Y-147027000D01*
X118514000Y-142787000D02*
X118514000Y-147027000D01*
X120754000Y-142787000D02*
X118514000Y-142787000D01*
X120754000Y-147027000D02*
X120754000Y-142787000D01*
X118514000Y-147027000D02*
X120754000Y-147027000D01*
%TO.C,D44*%
X99464000Y-146427000D02*
X101704000Y-146427000D01*
X99464000Y-146187000D02*
X101704000Y-146187000D01*
X99464000Y-146307000D02*
X101704000Y-146307000D01*
X100584000Y-142137000D02*
X100584000Y-142787000D01*
X100584000Y-147677000D02*
X100584000Y-147027000D01*
X99464000Y-142787000D02*
X99464000Y-147027000D01*
X101704000Y-142787000D02*
X99464000Y-142787000D01*
X101704000Y-147027000D02*
X101704000Y-142787000D01*
X99464000Y-147027000D02*
X101704000Y-147027000D01*
%TO.C,D43*%
X80414000Y-146427000D02*
X82654000Y-146427000D01*
X80414000Y-146187000D02*
X82654000Y-146187000D01*
X80414000Y-146307000D02*
X82654000Y-146307000D01*
X81534000Y-142137000D02*
X81534000Y-142787000D01*
X81534000Y-147677000D02*
X81534000Y-147027000D01*
X80414000Y-142787000D02*
X80414000Y-147027000D01*
X82654000Y-142787000D02*
X80414000Y-142787000D01*
X82654000Y-147027000D02*
X82654000Y-142787000D01*
X80414000Y-147027000D02*
X82654000Y-147027000D01*
%TO.C,D42*%
X61364000Y-146427000D02*
X63604000Y-146427000D01*
X61364000Y-146187000D02*
X63604000Y-146187000D01*
X61364000Y-146307000D02*
X63604000Y-146307000D01*
X62484000Y-142137000D02*
X62484000Y-142787000D01*
X62484000Y-147677000D02*
X62484000Y-147027000D01*
X61364000Y-142787000D02*
X61364000Y-147027000D01*
X63604000Y-142787000D02*
X61364000Y-142787000D01*
X63604000Y-147027000D02*
X63604000Y-142787000D01*
X61364000Y-147027000D02*
X63604000Y-147027000D01*
%TO.C,D41*%
X40917000Y-146427000D02*
X43157000Y-146427000D01*
X40917000Y-146187000D02*
X43157000Y-146187000D01*
X40917000Y-146307000D02*
X43157000Y-146307000D01*
X42037000Y-142137000D02*
X42037000Y-142787000D01*
X42037000Y-147677000D02*
X42037000Y-147027000D01*
X40917000Y-142787000D02*
X40917000Y-147027000D01*
X43157000Y-142787000D02*
X40917000Y-142787000D01*
X43157000Y-147027000D02*
X43157000Y-142787000D01*
X40917000Y-147027000D02*
X43157000Y-147027000D01*
%TO.C,D40*%
X384579000Y-127758000D02*
X386819000Y-127758000D01*
X384579000Y-127518000D02*
X386819000Y-127518000D01*
X384579000Y-127638000D02*
X386819000Y-127638000D01*
X385699000Y-123468000D02*
X385699000Y-124118000D01*
X385699000Y-129008000D02*
X385699000Y-128358000D01*
X384579000Y-124118000D02*
X384579000Y-128358000D01*
X386819000Y-124118000D02*
X384579000Y-124118000D01*
X386819000Y-128358000D02*
X386819000Y-124118000D01*
X384579000Y-128358000D02*
X386819000Y-128358000D01*
%TO.C,D39*%
X365402000Y-127758000D02*
X367642000Y-127758000D01*
X365402000Y-127518000D02*
X367642000Y-127518000D01*
X365402000Y-127638000D02*
X367642000Y-127638000D01*
X366522000Y-123468000D02*
X366522000Y-124118000D01*
X366522000Y-129008000D02*
X366522000Y-128358000D01*
X365402000Y-124118000D02*
X365402000Y-128358000D01*
X367642000Y-124118000D02*
X365402000Y-124118000D01*
X367642000Y-128358000D02*
X367642000Y-124118000D01*
X365402000Y-128358000D02*
X367642000Y-128358000D01*
%TO.C,D38*%
X346352000Y-127758000D02*
X348592000Y-127758000D01*
X346352000Y-127518000D02*
X348592000Y-127518000D01*
X346352000Y-127638000D02*
X348592000Y-127638000D01*
X347472000Y-123468000D02*
X347472000Y-124118000D01*
X347472000Y-129008000D02*
X347472000Y-128358000D01*
X346352000Y-124118000D02*
X346352000Y-128358000D01*
X348592000Y-124118000D02*
X346352000Y-124118000D01*
X348592000Y-128358000D02*
X348592000Y-124118000D01*
X346352000Y-128358000D02*
X348592000Y-128358000D01*
%TO.C,D37*%
X327175000Y-127758000D02*
X329415000Y-127758000D01*
X327175000Y-127518000D02*
X329415000Y-127518000D01*
X327175000Y-127638000D02*
X329415000Y-127638000D01*
X328295000Y-123468000D02*
X328295000Y-124118000D01*
X328295000Y-129008000D02*
X328295000Y-128358000D01*
X327175000Y-124118000D02*
X327175000Y-128358000D01*
X329415000Y-124118000D02*
X327175000Y-124118000D01*
X329415000Y-128358000D02*
X329415000Y-124118000D01*
X327175000Y-128358000D02*
X329415000Y-128358000D01*
%TO.C,D36*%
X314729000Y-127758000D02*
X316969000Y-127758000D01*
X314729000Y-127518000D02*
X316969000Y-127518000D01*
X314729000Y-127638000D02*
X316969000Y-127638000D01*
X315849000Y-123468000D02*
X315849000Y-124118000D01*
X315849000Y-129008000D02*
X315849000Y-128358000D01*
X314729000Y-124118000D02*
X314729000Y-128358000D01*
X316969000Y-124118000D02*
X314729000Y-124118000D01*
X316969000Y-128358000D02*
X316969000Y-124118000D01*
X314729000Y-128358000D02*
X316969000Y-128358000D01*
%TO.C,D35*%
X294282000Y-127758000D02*
X296522000Y-127758000D01*
X294282000Y-127518000D02*
X296522000Y-127518000D01*
X294282000Y-127638000D02*
X296522000Y-127638000D01*
X295402000Y-123468000D02*
X295402000Y-124118000D01*
X295402000Y-129008000D02*
X295402000Y-128358000D01*
X294282000Y-124118000D02*
X294282000Y-128358000D01*
X296522000Y-124118000D02*
X294282000Y-124118000D01*
X296522000Y-128358000D02*
X296522000Y-124118000D01*
X294282000Y-128358000D02*
X296522000Y-128358000D01*
%TO.C,D34*%
X263167000Y-127758000D02*
X265407000Y-127758000D01*
X263167000Y-127518000D02*
X265407000Y-127518000D01*
X263167000Y-127638000D02*
X265407000Y-127638000D01*
X264287000Y-123468000D02*
X264287000Y-124118000D01*
X264287000Y-129008000D02*
X264287000Y-128358000D01*
X263167000Y-124118000D02*
X263167000Y-128358000D01*
X265407000Y-124118000D02*
X263167000Y-124118000D01*
X265407000Y-128358000D02*
X265407000Y-124118000D01*
X263167000Y-128358000D02*
X265407000Y-128358000D01*
%TO.C,D32*%
X223797000Y-127758000D02*
X226037000Y-127758000D01*
X223797000Y-127518000D02*
X226037000Y-127518000D01*
X223797000Y-127638000D02*
X226037000Y-127638000D01*
X224917000Y-123468000D02*
X224917000Y-124118000D01*
X224917000Y-129008000D02*
X224917000Y-128358000D01*
X223797000Y-124118000D02*
X223797000Y-128358000D01*
X226037000Y-124118000D02*
X223797000Y-124118000D01*
X226037000Y-128358000D02*
X226037000Y-124118000D01*
X223797000Y-128358000D02*
X226037000Y-128358000D01*
%TO.C,D31*%
X204620000Y-127758000D02*
X206860000Y-127758000D01*
X204620000Y-127518000D02*
X206860000Y-127518000D01*
X204620000Y-127638000D02*
X206860000Y-127638000D01*
X205740000Y-123468000D02*
X205740000Y-124118000D01*
X205740000Y-129008000D02*
X205740000Y-128358000D01*
X204620000Y-124118000D02*
X204620000Y-128358000D01*
X206860000Y-124118000D02*
X204620000Y-124118000D01*
X206860000Y-128358000D02*
X206860000Y-124118000D01*
X204620000Y-128358000D02*
X206860000Y-128358000D01*
%TO.C,D30*%
X185443000Y-127758000D02*
X187683000Y-127758000D01*
X185443000Y-127518000D02*
X187683000Y-127518000D01*
X185443000Y-127638000D02*
X187683000Y-127638000D01*
X186563000Y-123468000D02*
X186563000Y-124118000D01*
X186563000Y-129008000D02*
X186563000Y-128358000D01*
X185443000Y-124118000D02*
X185443000Y-128358000D01*
X187683000Y-124118000D02*
X185443000Y-124118000D01*
X187683000Y-128358000D02*
X187683000Y-124118000D01*
X185443000Y-128358000D02*
X187683000Y-128358000D01*
%TO.C,D29*%
X166393000Y-127758000D02*
X168633000Y-127758000D01*
X166393000Y-127518000D02*
X168633000Y-127518000D01*
X166393000Y-127638000D02*
X168633000Y-127638000D01*
X167513000Y-123468000D02*
X167513000Y-124118000D01*
X167513000Y-129008000D02*
X167513000Y-128358000D01*
X166393000Y-124118000D02*
X166393000Y-128358000D01*
X168633000Y-124118000D02*
X166393000Y-124118000D01*
X168633000Y-128358000D02*
X168633000Y-124118000D01*
X166393000Y-128358000D02*
X168633000Y-128358000D01*
%TO.C,D28*%
X147343000Y-127758000D02*
X149583000Y-127758000D01*
X147343000Y-127518000D02*
X149583000Y-127518000D01*
X147343000Y-127638000D02*
X149583000Y-127638000D01*
X148463000Y-123468000D02*
X148463000Y-124118000D01*
X148463000Y-129008000D02*
X148463000Y-128358000D01*
X147343000Y-124118000D02*
X147343000Y-128358000D01*
X149583000Y-124118000D02*
X147343000Y-124118000D01*
X149583000Y-128358000D02*
X149583000Y-124118000D01*
X147343000Y-128358000D02*
X149583000Y-128358000D01*
%TO.C,D27*%
X128166000Y-127758000D02*
X130406000Y-127758000D01*
X128166000Y-127518000D02*
X130406000Y-127518000D01*
X128166000Y-127638000D02*
X130406000Y-127638000D01*
X129286000Y-123468000D02*
X129286000Y-124118000D01*
X129286000Y-129008000D02*
X129286000Y-128358000D01*
X128166000Y-124118000D02*
X128166000Y-128358000D01*
X130406000Y-124118000D02*
X128166000Y-124118000D01*
X130406000Y-128358000D02*
X130406000Y-124118000D01*
X128166000Y-128358000D02*
X130406000Y-128358000D01*
%TO.C,D26*%
X109116000Y-127758000D02*
X111356000Y-127758000D01*
X109116000Y-127518000D02*
X111356000Y-127518000D01*
X109116000Y-127638000D02*
X111356000Y-127638000D01*
X110236000Y-123468000D02*
X110236000Y-124118000D01*
X110236000Y-129008000D02*
X110236000Y-128358000D01*
X109116000Y-124118000D02*
X109116000Y-128358000D01*
X111356000Y-124118000D02*
X109116000Y-124118000D01*
X111356000Y-128358000D02*
X111356000Y-124118000D01*
X109116000Y-128358000D02*
X111356000Y-128358000D01*
%TO.C,D25*%
X90066000Y-127758000D02*
X92306000Y-127758000D01*
X90066000Y-127518000D02*
X92306000Y-127518000D01*
X90066000Y-127638000D02*
X92306000Y-127638000D01*
X91186000Y-123468000D02*
X91186000Y-124118000D01*
X91186000Y-129008000D02*
X91186000Y-128358000D01*
X90066000Y-124118000D02*
X90066000Y-128358000D01*
X92306000Y-124118000D02*
X90066000Y-124118000D01*
X92306000Y-128358000D02*
X92306000Y-124118000D01*
X90066000Y-128358000D02*
X92306000Y-128358000D01*
%TO.C,D24*%
X71016000Y-127758000D02*
X73256000Y-127758000D01*
X71016000Y-127518000D02*
X73256000Y-127518000D01*
X71016000Y-127638000D02*
X73256000Y-127638000D01*
X72136000Y-123468000D02*
X72136000Y-124118000D01*
X72136000Y-129008000D02*
X72136000Y-128358000D01*
X71016000Y-124118000D02*
X71016000Y-128358000D01*
X73256000Y-124118000D02*
X71016000Y-124118000D01*
X73256000Y-128358000D02*
X73256000Y-124118000D01*
X71016000Y-128358000D02*
X73256000Y-128358000D01*
%TO.C,D23*%
X51966000Y-127758000D02*
X54206000Y-127758000D01*
X51966000Y-127518000D02*
X54206000Y-127518000D01*
X51966000Y-127638000D02*
X54206000Y-127638000D01*
X53086000Y-123468000D02*
X53086000Y-124118000D01*
X53086000Y-129008000D02*
X53086000Y-128358000D01*
X51966000Y-124118000D02*
X51966000Y-128358000D01*
X54206000Y-124118000D02*
X51966000Y-124118000D01*
X54206000Y-128358000D02*
X54206000Y-124118000D01*
X51966000Y-128358000D02*
X54206000Y-128358000D01*
%TO.C,D22*%
X32916000Y-127758000D02*
X35156000Y-127758000D01*
X32916000Y-127518000D02*
X35156000Y-127518000D01*
X32916000Y-127638000D02*
X35156000Y-127638000D01*
X34036000Y-123468000D02*
X34036000Y-124118000D01*
X34036000Y-129008000D02*
X34036000Y-128358000D01*
X32916000Y-124118000D02*
X32916000Y-128358000D01*
X35156000Y-124118000D02*
X32916000Y-124118000D01*
X35156000Y-128358000D02*
X35156000Y-124118000D01*
X32916000Y-128358000D02*
X35156000Y-128358000D01*
%TO.C,D21*%
X384579000Y-97659000D02*
X386819000Y-97659000D01*
X384579000Y-97419000D02*
X386819000Y-97419000D01*
X384579000Y-97539000D02*
X386819000Y-97539000D01*
X385699000Y-93369000D02*
X385699000Y-94019000D01*
X385699000Y-98909000D02*
X385699000Y-98259000D01*
X384579000Y-94019000D02*
X384579000Y-98259000D01*
X386819000Y-94019000D02*
X384579000Y-94019000D01*
X386819000Y-98259000D02*
X386819000Y-94019000D01*
X384579000Y-98259000D02*
X386819000Y-98259000D01*
%TO.C,D20*%
X365529000Y-97659000D02*
X367769000Y-97659000D01*
X365529000Y-97419000D02*
X367769000Y-97419000D01*
X365529000Y-97539000D02*
X367769000Y-97539000D01*
X366649000Y-93369000D02*
X366649000Y-94019000D01*
X366649000Y-98909000D02*
X366649000Y-98259000D01*
X365529000Y-94019000D02*
X365529000Y-98259000D01*
X367769000Y-94019000D02*
X365529000Y-94019000D01*
X367769000Y-98259000D02*
X367769000Y-94019000D01*
X365529000Y-98259000D02*
X367769000Y-98259000D01*
%TO.C,D19*%
X353845000Y-97659000D02*
X356085000Y-97659000D01*
X353845000Y-97419000D02*
X356085000Y-97419000D01*
X353845000Y-97539000D02*
X356085000Y-97539000D01*
X354965000Y-93369000D02*
X354965000Y-94019000D01*
X354965000Y-98909000D02*
X354965000Y-98259000D01*
X353845000Y-94019000D02*
X353845000Y-98259000D01*
X356085000Y-94019000D02*
X353845000Y-94019000D01*
X356085000Y-98259000D02*
X356085000Y-94019000D01*
X353845000Y-98259000D02*
X356085000Y-98259000D01*
%TO.C,D18*%
X334795000Y-97659000D02*
X337035000Y-97659000D01*
X334795000Y-97419000D02*
X337035000Y-97419000D01*
X334795000Y-97539000D02*
X337035000Y-97539000D01*
X335915000Y-93369000D02*
X335915000Y-94019000D01*
X335915000Y-98909000D02*
X335915000Y-98259000D01*
X334795000Y-94019000D02*
X334795000Y-98259000D01*
X337035000Y-94019000D02*
X334795000Y-94019000D01*
X337035000Y-98259000D02*
X337035000Y-94019000D01*
X334795000Y-98259000D02*
X337035000Y-98259000D01*
%TO.C,D17*%
X315745000Y-97659000D02*
X317985000Y-97659000D01*
X315745000Y-97419000D02*
X317985000Y-97419000D01*
X315745000Y-97539000D02*
X317985000Y-97539000D01*
X316865000Y-93369000D02*
X316865000Y-94019000D01*
X316865000Y-98909000D02*
X316865000Y-98259000D01*
X315745000Y-94019000D02*
X315745000Y-98259000D01*
X317985000Y-94019000D02*
X315745000Y-94019000D01*
X317985000Y-98259000D02*
X317985000Y-94019000D01*
X315745000Y-98259000D02*
X317985000Y-98259000D01*
%TO.C,D16*%
X296568000Y-97659000D02*
X298808000Y-97659000D01*
X296568000Y-97419000D02*
X298808000Y-97419000D01*
X296568000Y-97539000D02*
X298808000Y-97539000D01*
X297688000Y-93369000D02*
X297688000Y-94019000D01*
X297688000Y-98909000D02*
X297688000Y-98259000D01*
X296568000Y-94019000D02*
X296568000Y-98259000D01*
X298808000Y-94019000D02*
X296568000Y-94019000D01*
X298808000Y-98259000D02*
X298808000Y-94019000D01*
X296568000Y-98259000D02*
X298808000Y-98259000D01*
%TO.C,D15*%
X266088000Y-97659000D02*
X268328000Y-97659000D01*
X266088000Y-97419000D02*
X268328000Y-97419000D01*
X266088000Y-97539000D02*
X268328000Y-97539000D01*
X267208000Y-93369000D02*
X267208000Y-94019000D01*
X267208000Y-98909000D02*
X267208000Y-98259000D01*
X266088000Y-94019000D02*
X266088000Y-98259000D01*
X268328000Y-94019000D02*
X266088000Y-94019000D01*
X268328000Y-98259000D02*
X268328000Y-94019000D01*
X266088000Y-98259000D02*
X268328000Y-98259000D01*
%TO.C,D14*%
X246911000Y-97659000D02*
X249151000Y-97659000D01*
X246911000Y-97419000D02*
X249151000Y-97419000D01*
X246911000Y-97539000D02*
X249151000Y-97539000D01*
X248031000Y-93369000D02*
X248031000Y-94019000D01*
X248031000Y-98909000D02*
X248031000Y-98259000D01*
X246911000Y-94019000D02*
X246911000Y-98259000D01*
X249151000Y-94019000D02*
X246911000Y-94019000D01*
X249151000Y-98259000D02*
X249151000Y-94019000D01*
X246911000Y-98259000D02*
X249151000Y-98259000D01*
%TO.C,D13*%
X227861000Y-97659000D02*
X230101000Y-97659000D01*
X227861000Y-97419000D02*
X230101000Y-97419000D01*
X227861000Y-97539000D02*
X230101000Y-97539000D01*
X228981000Y-93369000D02*
X228981000Y-94019000D01*
X228981000Y-98909000D02*
X228981000Y-98259000D01*
X227861000Y-94019000D02*
X227861000Y-98259000D01*
X230101000Y-94019000D02*
X227861000Y-94019000D01*
X230101000Y-98259000D02*
X230101000Y-94019000D01*
X227861000Y-98259000D02*
X230101000Y-98259000D01*
%TO.C,D12*%
X208684000Y-97659000D02*
X210924000Y-97659000D01*
X208684000Y-97419000D02*
X210924000Y-97419000D01*
X208684000Y-97539000D02*
X210924000Y-97539000D01*
X209804000Y-93369000D02*
X209804000Y-94019000D01*
X209804000Y-98909000D02*
X209804000Y-98259000D01*
X208684000Y-94019000D02*
X208684000Y-98259000D01*
X210924000Y-94019000D02*
X208684000Y-94019000D01*
X210924000Y-98259000D02*
X210924000Y-94019000D01*
X208684000Y-98259000D02*
X210924000Y-98259000D01*
%TO.C,D10*%
X177950000Y-97659000D02*
X180190000Y-97659000D01*
X177950000Y-97419000D02*
X180190000Y-97419000D01*
X177950000Y-97539000D02*
X180190000Y-97539000D01*
X179070000Y-93369000D02*
X179070000Y-94019000D01*
X179070000Y-98909000D02*
X179070000Y-98259000D01*
X177950000Y-94019000D02*
X177950000Y-98259000D01*
X180190000Y-94019000D02*
X177950000Y-94019000D01*
X180190000Y-98259000D02*
X180190000Y-94019000D01*
X177950000Y-98259000D02*
X180190000Y-98259000D01*
%TO.C,D9*%
X158900000Y-97659000D02*
X161140000Y-97659000D01*
X158900000Y-97419000D02*
X161140000Y-97419000D01*
X158900000Y-97539000D02*
X161140000Y-97539000D01*
X160020000Y-93369000D02*
X160020000Y-94019000D01*
X160020000Y-98909000D02*
X160020000Y-98259000D01*
X158900000Y-94019000D02*
X158900000Y-98259000D01*
X161140000Y-94019000D02*
X158900000Y-94019000D01*
X161140000Y-98259000D02*
X161140000Y-94019000D01*
X158900000Y-98259000D02*
X161140000Y-98259000D01*
%TO.C,D8*%
X139850000Y-97659000D02*
X142090000Y-97659000D01*
X139850000Y-97419000D02*
X142090000Y-97419000D01*
X139850000Y-97539000D02*
X142090000Y-97539000D01*
X140970000Y-93369000D02*
X140970000Y-94019000D01*
X140970000Y-98909000D02*
X140970000Y-98259000D01*
X139850000Y-94019000D02*
X139850000Y-98259000D01*
X142090000Y-94019000D02*
X139850000Y-94019000D01*
X142090000Y-98259000D02*
X142090000Y-94019000D01*
X139850000Y-98259000D02*
X142090000Y-98259000D01*
%TO.C,D7*%
X120673000Y-97659000D02*
X122913000Y-97659000D01*
X120673000Y-97419000D02*
X122913000Y-97419000D01*
X120673000Y-97539000D02*
X122913000Y-97539000D01*
X121793000Y-93369000D02*
X121793000Y-94019000D01*
X121793000Y-98909000D02*
X121793000Y-98259000D01*
X120673000Y-94019000D02*
X120673000Y-98259000D01*
X122913000Y-94019000D02*
X120673000Y-94019000D01*
X122913000Y-98259000D02*
X122913000Y-94019000D01*
X120673000Y-98259000D02*
X122913000Y-98259000D01*
%TO.C,D6*%
X90066000Y-97659000D02*
X92306000Y-97659000D01*
X90066000Y-97419000D02*
X92306000Y-97419000D01*
X90066000Y-97539000D02*
X92306000Y-97539000D01*
X91186000Y-93369000D02*
X91186000Y-94019000D01*
X91186000Y-98909000D02*
X91186000Y-98259000D01*
X90066000Y-94019000D02*
X90066000Y-98259000D01*
X92306000Y-94019000D02*
X90066000Y-94019000D01*
X92306000Y-98259000D02*
X92306000Y-94019000D01*
X90066000Y-98259000D02*
X92306000Y-98259000D01*
%TO.C,D5*%
X71016000Y-97659000D02*
X73256000Y-97659000D01*
X71016000Y-97419000D02*
X73256000Y-97419000D01*
X71016000Y-97539000D02*
X73256000Y-97539000D01*
X72136000Y-93369000D02*
X72136000Y-94019000D01*
X72136000Y-98909000D02*
X72136000Y-98259000D01*
X71016000Y-94019000D02*
X71016000Y-98259000D01*
X73256000Y-94019000D02*
X71016000Y-94019000D01*
X73256000Y-98259000D02*
X73256000Y-94019000D01*
X71016000Y-98259000D02*
X73256000Y-98259000D01*
%TO.C,D4*%
X51839000Y-97659000D02*
X54079000Y-97659000D01*
X51839000Y-97419000D02*
X54079000Y-97419000D01*
X51839000Y-97539000D02*
X54079000Y-97539000D01*
X52959000Y-93369000D02*
X52959000Y-94019000D01*
X52959000Y-98909000D02*
X52959000Y-98259000D01*
X51839000Y-94019000D02*
X51839000Y-98259000D01*
X54079000Y-94019000D02*
X51839000Y-94019000D01*
X54079000Y-98259000D02*
X54079000Y-94019000D01*
X51839000Y-98259000D02*
X54079000Y-98259000D01*
%TO.C,D3*%
X32789000Y-97659000D02*
X35029000Y-97659000D01*
X32789000Y-97419000D02*
X35029000Y-97419000D01*
X32789000Y-97539000D02*
X35029000Y-97539000D01*
X33909000Y-93369000D02*
X33909000Y-94019000D01*
X33909000Y-98909000D02*
X33909000Y-98259000D01*
X32789000Y-94019000D02*
X32789000Y-98259000D01*
X35029000Y-94019000D02*
X32789000Y-94019000D01*
X35029000Y-98259000D02*
X35029000Y-94019000D01*
X32789000Y-98259000D02*
X35029000Y-98259000D01*
%TO.C,XTAL1*%
X286781000Y-70483000D02*
X286781000Y-64083000D01*
X291831000Y-70483000D02*
X291831000Y-64083000D01*
X291831000Y-64083000D02*
G75*
G03*
X286781000Y-64083000I-2525000J0D01*
G01*
X291831000Y-70483000D02*
G75*
G02*
X286781000Y-70483000I-2525000J0D01*
G01*
D11*
%TO.C,USB1*%
X47792000Y-50165000D02*
X47792000Y-57165000D01*
X47792000Y-57165000D02*
X40092000Y-57165000D01*
X40092000Y-57165000D02*
X40092000Y-50165000D01*
D10*
%TO.C,U1*%
X283460500Y-66310000D02*
X283460500Y-60850000D01*
X283460500Y-60850000D02*
X232540500Y-60850000D01*
X232540500Y-60850000D02*
X232540500Y-73770000D01*
X232540500Y-73770000D02*
X283460500Y-73770000D01*
X283460500Y-73770000D02*
X283460500Y-68310000D01*
X283520500Y-58360000D02*
X232480500Y-58360000D01*
X232480500Y-58360000D02*
X232480500Y-76260000D01*
X232480500Y-76260000D02*
X283520500Y-76260000D01*
X283520500Y-76260000D02*
X283520500Y-58360000D01*
X283460500Y-68310000D02*
G75*
G02*
X283460500Y-66310000I0J1000000D01*
G01*
%TO.C,Reset1*%
X312658000Y-70270000D02*
X317158000Y-70270000D01*
X311408000Y-66270000D02*
X311408000Y-67770000D01*
X317158000Y-63770000D02*
X312658000Y-63770000D01*
X318408000Y-67770000D02*
X318408000Y-66270000D01*
%TO.C,R4*%
X324326000Y-76046000D02*
X324326000Y-73306000D01*
X324326000Y-73306000D02*
X317786000Y-73306000D01*
X317786000Y-73306000D02*
X317786000Y-76046000D01*
X317786000Y-76046000D02*
X324326000Y-76046000D01*
X325096000Y-74676000D02*
X324326000Y-74676000D01*
X317016000Y-74676000D02*
X317786000Y-74676000D01*
%TO.C,R3*%
X94388000Y-70580000D02*
X97128000Y-70580000D01*
X97128000Y-70580000D02*
X97128000Y-64040000D01*
X97128000Y-64040000D02*
X94388000Y-64040000D01*
X94388000Y-64040000D02*
X94388000Y-70580000D01*
X95758000Y-71350000D02*
X95758000Y-70580000D01*
X95758000Y-63270000D02*
X95758000Y-64040000D01*
%TO.C,R2*%
X90070000Y-70580000D02*
X92810000Y-70580000D01*
X92810000Y-70580000D02*
X92810000Y-64040000D01*
X92810000Y-64040000D02*
X90070000Y-64040000D01*
X90070000Y-64040000D02*
X90070000Y-70580000D01*
X91440000Y-71350000D02*
X91440000Y-70580000D01*
X91440000Y-63270000D02*
X91440000Y-64040000D01*
%TO.C,R1*%
X85498000Y-70580000D02*
X88238000Y-70580000D01*
X88238000Y-70580000D02*
X88238000Y-64040000D01*
X88238000Y-64040000D02*
X85498000Y-64040000D01*
X85498000Y-64040000D02*
X85498000Y-70580000D01*
X86868000Y-71350000D02*
X86868000Y-70580000D01*
X86868000Y-63270000D02*
X86868000Y-64040000D01*
%TO.C,J1*%
X359326000Y-61027000D02*
X359326000Y-68767000D01*
X359326000Y-68767000D02*
X361986000Y-68767000D01*
X361986000Y-68767000D02*
X361986000Y-61027000D01*
X361986000Y-61027000D02*
X359326000Y-61027000D01*
X361986000Y-61977000D02*
X367986000Y-61977000D01*
X367986000Y-61977000D02*
X367986000Y-62737000D01*
X367986000Y-62737000D02*
X361986000Y-62737000D01*
X361986000Y-62037000D02*
X367986000Y-62037000D01*
X361986000Y-62157000D02*
X367986000Y-62157000D01*
X361986000Y-62277000D02*
X367986000Y-62277000D01*
X361986000Y-62397000D02*
X367986000Y-62397000D01*
X361986000Y-62517000D02*
X367986000Y-62517000D01*
X361986000Y-62637000D02*
X367986000Y-62637000D01*
X358928929Y-61977000D02*
X359326000Y-61977000D01*
X358928929Y-62737000D02*
X359326000Y-62737000D01*
X356456000Y-61977000D02*
X356843071Y-61977000D01*
X356456000Y-62737000D02*
X356843071Y-62737000D01*
X359326000Y-63627000D02*
X361986000Y-63627000D01*
X361986000Y-64517000D02*
X367986000Y-64517000D01*
X367986000Y-64517000D02*
X367986000Y-65277000D01*
X367986000Y-65277000D02*
X361986000Y-65277000D01*
X358928929Y-64517000D02*
X359326000Y-64517000D01*
X358928929Y-65277000D02*
X359326000Y-65277000D01*
X356388929Y-64517000D02*
X356843071Y-64517000D01*
X356388929Y-65277000D02*
X356843071Y-65277000D01*
X359326000Y-66167000D02*
X361986000Y-66167000D01*
X361986000Y-67057000D02*
X367986000Y-67057000D01*
X367986000Y-67057000D02*
X367986000Y-67817000D01*
X367986000Y-67817000D02*
X361986000Y-67817000D01*
X358928929Y-67057000D02*
X359326000Y-67057000D01*
X358928929Y-67817000D02*
X359326000Y-67817000D01*
X356388929Y-67057000D02*
X356843071Y-67057000D01*
X356388929Y-67817000D02*
X356843071Y-67817000D01*
X354076000Y-62357000D02*
X354076000Y-61087000D01*
X354076000Y-61087000D02*
X355346000Y-61087000D01*
%TO.C,F1*%
X65711000Y-73240000D02*
X56971000Y-73240000D01*
X65711000Y-73240000D02*
X65711000Y-69000000D01*
X56971000Y-69000000D02*
X56971000Y-73240000D01*
X56971000Y-69000000D02*
X65711000Y-69000000D01*
%TO.C,D2*%
X102639000Y-69557000D02*
X104879000Y-69557000D01*
X104879000Y-69557000D02*
X104879000Y-65317000D01*
X104879000Y-65317000D02*
X102639000Y-65317000D01*
X102639000Y-65317000D02*
X102639000Y-69557000D01*
X103759000Y-70207000D02*
X103759000Y-69557000D01*
X103759000Y-64667000D02*
X103759000Y-65317000D01*
X102639000Y-68837000D02*
X104879000Y-68837000D01*
X102639000Y-68717000D02*
X104879000Y-68717000D01*
X102639000Y-68957000D02*
X104879000Y-68957000D01*
%TO.C,D1*%
X99083000Y-69557000D02*
X101323000Y-69557000D01*
X101323000Y-69557000D02*
X101323000Y-65317000D01*
X101323000Y-65317000D02*
X99083000Y-65317000D01*
X99083000Y-65317000D02*
X99083000Y-69557000D01*
X100203000Y-70207000D02*
X100203000Y-69557000D01*
X100203000Y-64667000D02*
X100203000Y-65317000D01*
X99083000Y-68837000D02*
X101323000Y-68837000D01*
X99083000Y-68717000D02*
X101323000Y-68717000D01*
X99083000Y-68957000D02*
X101323000Y-68957000D01*
%TO.C,C5*%
X286019000Y-58193000D02*
X292259000Y-58193000D01*
X286019000Y-60933000D02*
X292259000Y-60933000D01*
X286019000Y-58193000D02*
X286019000Y-58638000D01*
X286019000Y-60488000D02*
X286019000Y-60933000D01*
X292259000Y-58193000D02*
X292259000Y-58638000D01*
X292259000Y-60488000D02*
X292259000Y-60933000D01*
%TO.C,C4*%
X286146000Y-73687000D02*
X292386000Y-73687000D01*
X286146000Y-76427000D02*
X292386000Y-76427000D01*
X286146000Y-73687000D02*
X286146000Y-74132000D01*
X286146000Y-75982000D02*
X286146000Y-76427000D01*
X292386000Y-73687000D02*
X292386000Y-74132000D01*
X292386000Y-75982000D02*
X292386000Y-76427000D01*
%TO.C,C3*%
X256424000Y-76858000D02*
X259664000Y-76858000D01*
X256424000Y-79098000D02*
X259664000Y-79098000D01*
X256424000Y-76858000D02*
X256424000Y-76923000D01*
X256424000Y-79033000D02*
X256424000Y-79098000D01*
X259664000Y-76858000D02*
X259664000Y-76923000D01*
X259664000Y-79033000D02*
X259664000Y-79098000D01*
%TO.C,C2*%
X259704000Y-57762000D02*
X256464000Y-57762000D01*
X259704000Y-55522000D02*
X256464000Y-55522000D01*
X259704000Y-57762000D02*
X259704000Y-57697000D01*
X259704000Y-55587000D02*
X259704000Y-55522000D01*
X256464000Y-57762000D02*
X256464000Y-57697000D01*
X256464000Y-55587000D02*
X256464000Y-55522000D01*
%TO.C,C1*%
X75641000Y-71120000D02*
G75*
G03*
X75641000Y-71120000I-2120000J0D01*
G01*
X73521000Y-71960000D02*
X73521000Y-73200000D01*
X73521000Y-69040000D02*
X73521000Y-70280000D01*
X73561000Y-71960000D02*
X73561000Y-73200000D01*
X73561000Y-69040000D02*
X73561000Y-70280000D01*
X73601000Y-71960000D02*
X73601000Y-73199000D01*
X73601000Y-69041000D02*
X73601000Y-70280000D01*
X73641000Y-69043000D02*
X73641000Y-70280000D01*
X73641000Y-71960000D02*
X73641000Y-73197000D01*
X73681000Y-69046000D02*
X73681000Y-70280000D01*
X73681000Y-71960000D02*
X73681000Y-73194000D01*
X73721000Y-69049000D02*
X73721000Y-70280000D01*
X73721000Y-71960000D02*
X73721000Y-73191000D01*
X73761000Y-69053000D02*
X73761000Y-70280000D01*
X73761000Y-71960000D02*
X73761000Y-73187000D01*
X73801000Y-69058000D02*
X73801000Y-70280000D01*
X73801000Y-71960000D02*
X73801000Y-73182000D01*
X73841000Y-69064000D02*
X73841000Y-70280000D01*
X73841000Y-71960000D02*
X73841000Y-73176000D01*
X73881000Y-69070000D02*
X73881000Y-70280000D01*
X73881000Y-71960000D02*
X73881000Y-73170000D01*
X73921000Y-69078000D02*
X73921000Y-70280000D01*
X73921000Y-71960000D02*
X73921000Y-73162000D01*
X73961000Y-69086000D02*
X73961000Y-70280000D01*
X73961000Y-71960000D02*
X73961000Y-73154000D01*
X74001000Y-69095000D02*
X74001000Y-70280000D01*
X74001000Y-71960000D02*
X74001000Y-73145000D01*
X74041000Y-69104000D02*
X74041000Y-70280000D01*
X74041000Y-71960000D02*
X74041000Y-73136000D01*
X74081000Y-69115000D02*
X74081000Y-70280000D01*
X74081000Y-71960000D02*
X74081000Y-73125000D01*
X74121000Y-69126000D02*
X74121000Y-70280000D01*
X74121000Y-71960000D02*
X74121000Y-73114000D01*
X74161000Y-69138000D02*
X74161000Y-70280000D01*
X74161000Y-71960000D02*
X74161000Y-73102000D01*
X74201000Y-69152000D02*
X74201000Y-70280000D01*
X74201000Y-71960000D02*
X74201000Y-73088000D01*
X74242000Y-69166000D02*
X74242000Y-70280000D01*
X74242000Y-71960000D02*
X74242000Y-73074000D01*
X74282000Y-69180000D02*
X74282000Y-70280000D01*
X74282000Y-71960000D02*
X74282000Y-73060000D01*
X74322000Y-69196000D02*
X74322000Y-70280000D01*
X74322000Y-71960000D02*
X74322000Y-73044000D01*
X74362000Y-69213000D02*
X74362000Y-70280000D01*
X74362000Y-71960000D02*
X74362000Y-73027000D01*
X74402000Y-69231000D02*
X74402000Y-70280000D01*
X74402000Y-71960000D02*
X74402000Y-73009000D01*
X74442000Y-69250000D02*
X74442000Y-70280000D01*
X74442000Y-71960000D02*
X74442000Y-72990000D01*
X74482000Y-69269000D02*
X74482000Y-70280000D01*
X74482000Y-71960000D02*
X74482000Y-72971000D01*
X74522000Y-69290000D02*
X74522000Y-70280000D01*
X74522000Y-71960000D02*
X74522000Y-72950000D01*
X74562000Y-69312000D02*
X74562000Y-70280000D01*
X74562000Y-71960000D02*
X74562000Y-72928000D01*
X74602000Y-69335000D02*
X74602000Y-70280000D01*
X74602000Y-71960000D02*
X74602000Y-72905000D01*
X74642000Y-69360000D02*
X74642000Y-70280000D01*
X74642000Y-71960000D02*
X74642000Y-72880000D01*
X74682000Y-69385000D02*
X74682000Y-70280000D01*
X74682000Y-71960000D02*
X74682000Y-72855000D01*
X74722000Y-69412000D02*
X74722000Y-70280000D01*
X74722000Y-71960000D02*
X74722000Y-72828000D01*
X74762000Y-69440000D02*
X74762000Y-70280000D01*
X74762000Y-71960000D02*
X74762000Y-72800000D01*
X74802000Y-69470000D02*
X74802000Y-70280000D01*
X74802000Y-71960000D02*
X74802000Y-72770000D01*
X74842000Y-69501000D02*
X74842000Y-70280000D01*
X74842000Y-71960000D02*
X74842000Y-72739000D01*
X74882000Y-69533000D02*
X74882000Y-70280000D01*
X74882000Y-71960000D02*
X74882000Y-72707000D01*
X74922000Y-69568000D02*
X74922000Y-70280000D01*
X74922000Y-71960000D02*
X74922000Y-72672000D01*
X74962000Y-69604000D02*
X74962000Y-70280000D01*
X74962000Y-71960000D02*
X74962000Y-72636000D01*
X75002000Y-69642000D02*
X75002000Y-70280000D01*
X75002000Y-71960000D02*
X75002000Y-72598000D01*
X75042000Y-69682000D02*
X75042000Y-70280000D01*
X75042000Y-71960000D02*
X75042000Y-72558000D01*
X75082000Y-69724000D02*
X75082000Y-70280000D01*
X75082000Y-71960000D02*
X75082000Y-72516000D01*
X75122000Y-69769000D02*
X75122000Y-72471000D01*
X75162000Y-69816000D02*
X75162000Y-72424000D01*
X75202000Y-69866000D02*
X75202000Y-72374000D01*
X75242000Y-69920000D02*
X75242000Y-72320000D01*
X75282000Y-69978000D02*
X75282000Y-72262000D01*
X75322000Y-70040000D02*
X75322000Y-72200000D01*
X75362000Y-70107000D02*
X75362000Y-72133000D01*
X75402000Y-70180000D02*
X75402000Y-72060000D01*
X75442000Y-70261000D02*
X75442000Y-71979000D01*
X75482000Y-70352000D02*
X75482000Y-71888000D01*
X75522000Y-70456000D02*
X75522000Y-71784000D01*
X75562000Y-70583000D02*
X75562000Y-71657000D01*
X75602000Y-70750000D02*
X75602000Y-71490000D01*
X71251199Y-69925000D02*
X71651199Y-69925000D01*
X71451199Y-69725000D02*
X71451199Y-70125000D01*
%TO.C,Boot1*%
X325612000Y-70270000D02*
X330112000Y-70270000D01*
X324362000Y-66270000D02*
X324362000Y-67770000D01*
X330112000Y-63770000D02*
X325612000Y-63770000D01*
X331362000Y-67770000D02*
X331362000Y-66270000D01*
%TO.C,D33*%
D11*
X244546380Y-127262285D02*
X243546380Y-127262285D01*
X243546380Y-127024190D01*
X243594000Y-126881333D01*
X243689238Y-126786095D01*
X243784476Y-126738476D01*
X243974952Y-126690857D01*
X244117809Y-126690857D01*
X244308285Y-126738476D01*
X244403523Y-126786095D01*
X244498761Y-126881333D01*
X244546380Y-127024190D01*
X244546380Y-127262285D01*
X243546380Y-126357523D02*
X243546380Y-125738476D01*
X243927333Y-126071809D01*
X243927333Y-125928952D01*
X243974952Y-125833714D01*
X244022571Y-125786095D01*
X244117809Y-125738476D01*
X244355904Y-125738476D01*
X244451142Y-125786095D01*
X244498761Y-125833714D01*
X244546380Y-125928952D01*
X244546380Y-126214666D01*
X244498761Y-126309904D01*
X244451142Y-126357523D01*
X243546380Y-125405142D02*
X243546380Y-124786095D01*
X243927333Y-125119428D01*
X243927333Y-124976571D01*
X243974952Y-124881333D01*
X244022571Y-124833714D01*
X244117809Y-124786095D01*
X244355904Y-124786095D01*
X244451142Y-124833714D01*
X244498761Y-124881333D01*
X244546380Y-124976571D01*
X244546380Y-125262285D01*
X244498761Y-125357523D01*
X244451142Y-125405142D01*
%TO.C,D113*%
X386151380Y-184507476D02*
X385151380Y-184507476D01*
X385151380Y-184269380D01*
X385199000Y-184126523D01*
X385294238Y-184031285D01*
X385389476Y-183983666D01*
X385579952Y-183936047D01*
X385722809Y-183936047D01*
X385913285Y-183983666D01*
X386008523Y-184031285D01*
X386103761Y-184126523D01*
X386151380Y-184269380D01*
X386151380Y-184507476D01*
X386151380Y-182983666D02*
X386151380Y-183555095D01*
X386151380Y-183269380D02*
X385151380Y-183269380D01*
X385294238Y-183364619D01*
X385389476Y-183459857D01*
X385437095Y-183555095D01*
X386151380Y-182031285D02*
X386151380Y-182602714D01*
X386151380Y-182317000D02*
X385151380Y-182317000D01*
X385294238Y-182412238D01*
X385389476Y-182507476D01*
X385437095Y-182602714D01*
X385151380Y-181697952D02*
X385151380Y-181078904D01*
X385532333Y-181412238D01*
X385532333Y-181269380D01*
X385579952Y-181174142D01*
X385627571Y-181126523D01*
X385722809Y-181078904D01*
X385960904Y-181078904D01*
X386056142Y-181126523D01*
X386103761Y-181174142D01*
X386151380Y-181269380D01*
X386151380Y-181555095D01*
X386103761Y-181650333D01*
X386056142Y-181697952D01*
%TO.C,D112*%
X386151380Y-203684476D02*
X385151380Y-203684476D01*
X385151380Y-203446380D01*
X385199000Y-203303523D01*
X385294238Y-203208285D01*
X385389476Y-203160666D01*
X385579952Y-203113047D01*
X385722809Y-203113047D01*
X385913285Y-203160666D01*
X386008523Y-203208285D01*
X386103761Y-203303523D01*
X386151380Y-203446380D01*
X386151380Y-203684476D01*
X386151380Y-202160666D02*
X386151380Y-202732095D01*
X386151380Y-202446380D02*
X385151380Y-202446380D01*
X385294238Y-202541619D01*
X385389476Y-202636857D01*
X385437095Y-202732095D01*
X386151380Y-201208285D02*
X386151380Y-201779714D01*
X386151380Y-201494000D02*
X385151380Y-201494000D01*
X385294238Y-201589238D01*
X385389476Y-201684476D01*
X385437095Y-201779714D01*
X385246619Y-200827333D02*
X385199000Y-200779714D01*
X385151380Y-200684476D01*
X385151380Y-200446380D01*
X385199000Y-200351142D01*
X385246619Y-200303523D01*
X385341857Y-200255904D01*
X385437095Y-200255904D01*
X385579952Y-200303523D01*
X386151380Y-200874952D01*
X386151380Y-200255904D01*
%TO.C,D111*%
X366974380Y-203684476D02*
X365974380Y-203684476D01*
X365974380Y-203446380D01*
X366022000Y-203303523D01*
X366117238Y-203208285D01*
X366212476Y-203160666D01*
X366402952Y-203113047D01*
X366545809Y-203113047D01*
X366736285Y-203160666D01*
X366831523Y-203208285D01*
X366926761Y-203303523D01*
X366974380Y-203446380D01*
X366974380Y-203684476D01*
X366974380Y-202160666D02*
X366974380Y-202732095D01*
X366974380Y-202446380D02*
X365974380Y-202446380D01*
X366117238Y-202541619D01*
X366212476Y-202636857D01*
X366260095Y-202732095D01*
X366974380Y-201208285D02*
X366974380Y-201779714D01*
X366974380Y-201494000D02*
X365974380Y-201494000D01*
X366117238Y-201589238D01*
X366212476Y-201684476D01*
X366260095Y-201779714D01*
X366974380Y-200255904D02*
X366974380Y-200827333D01*
X366974380Y-200541619D02*
X365974380Y-200541619D01*
X366117238Y-200636857D01*
X366212476Y-200732095D01*
X366260095Y-200827333D01*
%TO.C,D110*%
X316301380Y-203684476D02*
X315301380Y-203684476D01*
X315301380Y-203446380D01*
X315349000Y-203303523D01*
X315444238Y-203208285D01*
X315539476Y-203160666D01*
X315729952Y-203113047D01*
X315872809Y-203113047D01*
X316063285Y-203160666D01*
X316158523Y-203208285D01*
X316253761Y-203303523D01*
X316301380Y-203446380D01*
X316301380Y-203684476D01*
X316301380Y-202160666D02*
X316301380Y-202732095D01*
X316301380Y-202446380D02*
X315301380Y-202446380D01*
X315444238Y-202541619D01*
X315539476Y-202636857D01*
X315587095Y-202732095D01*
X316301380Y-201208285D02*
X316301380Y-201779714D01*
X316301380Y-201494000D02*
X315301380Y-201494000D01*
X315444238Y-201589238D01*
X315539476Y-201684476D01*
X315587095Y-201779714D01*
X315301380Y-200589238D02*
X315301380Y-200494000D01*
X315349000Y-200398761D01*
X315396619Y-200351142D01*
X315491857Y-200303523D01*
X315682333Y-200255904D01*
X315920428Y-200255904D01*
X316110904Y-200303523D01*
X316206142Y-200351142D01*
X316253761Y-200398761D01*
X316301380Y-200494000D01*
X316301380Y-200589238D01*
X316253761Y-200684476D01*
X316206142Y-200732095D01*
X316110904Y-200779714D01*
X315920428Y-200827333D01*
X315682333Y-200827333D01*
X315491857Y-200779714D01*
X315396619Y-200732095D01*
X315349000Y-200684476D01*
X315301380Y-200589238D01*
%TO.C,D109*%
X297124380Y-203684476D02*
X296124380Y-203684476D01*
X296124380Y-203446380D01*
X296172000Y-203303523D01*
X296267238Y-203208285D01*
X296362476Y-203160666D01*
X296552952Y-203113047D01*
X296695809Y-203113047D01*
X296886285Y-203160666D01*
X296981523Y-203208285D01*
X297076761Y-203303523D01*
X297124380Y-203446380D01*
X297124380Y-203684476D01*
X297124380Y-202160666D02*
X297124380Y-202732095D01*
X297124380Y-202446380D02*
X296124380Y-202446380D01*
X296267238Y-202541619D01*
X296362476Y-202636857D01*
X296410095Y-202732095D01*
X296124380Y-201541619D02*
X296124380Y-201446380D01*
X296172000Y-201351142D01*
X296219619Y-201303523D01*
X296314857Y-201255904D01*
X296505333Y-201208285D01*
X296743428Y-201208285D01*
X296933904Y-201255904D01*
X297029142Y-201303523D01*
X297076761Y-201351142D01*
X297124380Y-201446380D01*
X297124380Y-201541619D01*
X297076761Y-201636857D01*
X297029142Y-201684476D01*
X296933904Y-201732095D01*
X296743428Y-201779714D01*
X296505333Y-201779714D01*
X296314857Y-201732095D01*
X296219619Y-201684476D01*
X296172000Y-201636857D01*
X296124380Y-201541619D01*
X297124380Y-200732095D02*
X297124380Y-200541619D01*
X297076761Y-200446380D01*
X297029142Y-200398761D01*
X296886285Y-200303523D01*
X296695809Y-200255904D01*
X296314857Y-200255904D01*
X296219619Y-200303523D01*
X296172000Y-200351142D01*
X296124380Y-200446380D01*
X296124380Y-200636857D01*
X296172000Y-200732095D01*
X296219619Y-200779714D01*
X296314857Y-200827333D01*
X296552952Y-200827333D01*
X296648190Y-200779714D01*
X296695809Y-200732095D01*
X296743428Y-200636857D01*
X296743428Y-200446380D01*
X296695809Y-200351142D01*
X296648190Y-200303523D01*
X296552952Y-200255904D01*
%TO.C,D108*%
X277947380Y-203684476D02*
X276947380Y-203684476D01*
X276947380Y-203446380D01*
X276995000Y-203303523D01*
X277090238Y-203208285D01*
X277185476Y-203160666D01*
X277375952Y-203113047D01*
X277518809Y-203113047D01*
X277709285Y-203160666D01*
X277804523Y-203208285D01*
X277899761Y-203303523D01*
X277947380Y-203446380D01*
X277947380Y-203684476D01*
X277947380Y-202160666D02*
X277947380Y-202732095D01*
X277947380Y-202446380D02*
X276947380Y-202446380D01*
X277090238Y-202541619D01*
X277185476Y-202636857D01*
X277233095Y-202732095D01*
X276947380Y-201541619D02*
X276947380Y-201446380D01*
X276995000Y-201351142D01*
X277042619Y-201303523D01*
X277137857Y-201255904D01*
X277328333Y-201208285D01*
X277566428Y-201208285D01*
X277756904Y-201255904D01*
X277852142Y-201303523D01*
X277899761Y-201351142D01*
X277947380Y-201446380D01*
X277947380Y-201541619D01*
X277899761Y-201636857D01*
X277852142Y-201684476D01*
X277756904Y-201732095D01*
X277566428Y-201779714D01*
X277328333Y-201779714D01*
X277137857Y-201732095D01*
X277042619Y-201684476D01*
X276995000Y-201636857D01*
X276947380Y-201541619D01*
X277375952Y-200636857D02*
X277328333Y-200732095D01*
X277280714Y-200779714D01*
X277185476Y-200827333D01*
X277137857Y-200827333D01*
X277042619Y-200779714D01*
X276995000Y-200732095D01*
X276947380Y-200636857D01*
X276947380Y-200446380D01*
X276995000Y-200351142D01*
X277042619Y-200303523D01*
X277137857Y-200255904D01*
X277185476Y-200255904D01*
X277280714Y-200303523D01*
X277328333Y-200351142D01*
X277375952Y-200446380D01*
X277375952Y-200636857D01*
X277423571Y-200732095D01*
X277471190Y-200779714D01*
X277566428Y-200827333D01*
X277756904Y-200827333D01*
X277852142Y-200779714D01*
X277899761Y-200732095D01*
X277947380Y-200636857D01*
X277947380Y-200446380D01*
X277899761Y-200351142D01*
X277852142Y-200303523D01*
X277756904Y-200255904D01*
X277566428Y-200255904D01*
X277471190Y-200303523D01*
X277423571Y-200351142D01*
X277375952Y-200446380D01*
%TO.C,D104*%
X258897380Y-203684476D02*
X257897380Y-203684476D01*
X257897380Y-203446380D01*
X257945000Y-203303523D01*
X258040238Y-203208285D01*
X258135476Y-203160666D01*
X258325952Y-203113047D01*
X258468809Y-203113047D01*
X258659285Y-203160666D01*
X258754523Y-203208285D01*
X258849761Y-203303523D01*
X258897380Y-203446380D01*
X258897380Y-203684476D01*
X258897380Y-202160666D02*
X258897380Y-202732095D01*
X258897380Y-202446380D02*
X257897380Y-202446380D01*
X258040238Y-202541619D01*
X258135476Y-202636857D01*
X258183095Y-202732095D01*
X257897380Y-201541619D02*
X257897380Y-201446380D01*
X257945000Y-201351142D01*
X257992619Y-201303523D01*
X258087857Y-201255904D01*
X258278333Y-201208285D01*
X258516428Y-201208285D01*
X258706904Y-201255904D01*
X258802142Y-201303523D01*
X258849761Y-201351142D01*
X258897380Y-201446380D01*
X258897380Y-201541619D01*
X258849761Y-201636857D01*
X258802142Y-201684476D01*
X258706904Y-201732095D01*
X258516428Y-201779714D01*
X258278333Y-201779714D01*
X258087857Y-201732095D01*
X257992619Y-201684476D01*
X257945000Y-201636857D01*
X257897380Y-201541619D01*
X258230714Y-200351142D02*
X258897380Y-200351142D01*
X257849761Y-200589238D02*
X258564047Y-200827333D01*
X258564047Y-200208285D01*
%TO.C,D98*%
X161107380Y-201557285D02*
X160107380Y-201557285D01*
X160107380Y-201319190D01*
X160155000Y-201176333D01*
X160250238Y-201081095D01*
X160345476Y-201033476D01*
X160535952Y-200985857D01*
X160678809Y-200985857D01*
X160869285Y-201033476D01*
X160964523Y-201081095D01*
X161059761Y-201176333D01*
X161107380Y-201319190D01*
X161107380Y-201557285D01*
X161107380Y-200509666D02*
X161107380Y-200319190D01*
X161059761Y-200223952D01*
X161012142Y-200176333D01*
X160869285Y-200081095D01*
X160678809Y-200033476D01*
X160297857Y-200033476D01*
X160202619Y-200081095D01*
X160155000Y-200128714D01*
X160107380Y-200223952D01*
X160107380Y-200414428D01*
X160155000Y-200509666D01*
X160202619Y-200557285D01*
X160297857Y-200604904D01*
X160535952Y-200604904D01*
X160631190Y-200557285D01*
X160678809Y-200509666D01*
X160726428Y-200414428D01*
X160726428Y-200223952D01*
X160678809Y-200128714D01*
X160631190Y-200081095D01*
X160535952Y-200033476D01*
X160535952Y-199462047D02*
X160488333Y-199557285D01*
X160440714Y-199604904D01*
X160345476Y-199652523D01*
X160297857Y-199652523D01*
X160202619Y-199604904D01*
X160155000Y-199557285D01*
X160107380Y-199462047D01*
X160107380Y-199271571D01*
X160155000Y-199176333D01*
X160202619Y-199128714D01*
X160297857Y-199081095D01*
X160345476Y-199081095D01*
X160440714Y-199128714D01*
X160488333Y-199176333D01*
X160535952Y-199271571D01*
X160535952Y-199462047D01*
X160583571Y-199557285D01*
X160631190Y-199604904D01*
X160726428Y-199652523D01*
X160916904Y-199652523D01*
X161012142Y-199604904D01*
X161059761Y-199557285D01*
X161107380Y-199462047D01*
X161107380Y-199271571D01*
X161059761Y-199176333D01*
X161012142Y-199128714D01*
X160916904Y-199081095D01*
X160726428Y-199081095D01*
X160631190Y-199128714D01*
X160583571Y-199176333D01*
X160535952Y-199271571D01*
%TO.C,D97*%
X54681380Y-201557285D02*
X53681380Y-201557285D01*
X53681380Y-201319190D01*
X53729000Y-201176333D01*
X53824238Y-201081095D01*
X53919476Y-201033476D01*
X54109952Y-200985857D01*
X54252809Y-200985857D01*
X54443285Y-201033476D01*
X54538523Y-201081095D01*
X54633761Y-201176333D01*
X54681380Y-201319190D01*
X54681380Y-201557285D01*
X54681380Y-200509666D02*
X54681380Y-200319190D01*
X54633761Y-200223952D01*
X54586142Y-200176333D01*
X54443285Y-200081095D01*
X54252809Y-200033476D01*
X53871857Y-200033476D01*
X53776619Y-200081095D01*
X53729000Y-200128714D01*
X53681380Y-200223952D01*
X53681380Y-200414428D01*
X53729000Y-200509666D01*
X53776619Y-200557285D01*
X53871857Y-200604904D01*
X54109952Y-200604904D01*
X54205190Y-200557285D01*
X54252809Y-200509666D01*
X54300428Y-200414428D01*
X54300428Y-200223952D01*
X54252809Y-200128714D01*
X54205190Y-200081095D01*
X54109952Y-200033476D01*
X53681380Y-199700142D02*
X53681380Y-199033476D01*
X54681380Y-199462047D01*
%TO.C,D96*%
X366974380Y-184031285D02*
X365974380Y-184031285D01*
X365974380Y-183793190D01*
X366022000Y-183650333D01*
X366117238Y-183555095D01*
X366212476Y-183507476D01*
X366402952Y-183459857D01*
X366545809Y-183459857D01*
X366736285Y-183507476D01*
X366831523Y-183555095D01*
X366926761Y-183650333D01*
X366974380Y-183793190D01*
X366974380Y-184031285D01*
X366974380Y-182983666D02*
X366974380Y-182793190D01*
X366926761Y-182697952D01*
X366879142Y-182650333D01*
X366736285Y-182555095D01*
X366545809Y-182507476D01*
X366164857Y-182507476D01*
X366069619Y-182555095D01*
X366022000Y-182602714D01*
X365974380Y-182697952D01*
X365974380Y-182888428D01*
X366022000Y-182983666D01*
X366069619Y-183031285D01*
X366164857Y-183078904D01*
X366402952Y-183078904D01*
X366498190Y-183031285D01*
X366545809Y-182983666D01*
X366593428Y-182888428D01*
X366593428Y-182697952D01*
X366545809Y-182602714D01*
X366498190Y-182555095D01*
X366402952Y-182507476D01*
X365974380Y-181650333D02*
X365974380Y-181840809D01*
X366022000Y-181936047D01*
X366069619Y-181983666D01*
X366212476Y-182078904D01*
X366402952Y-182126523D01*
X366783904Y-182126523D01*
X366879142Y-182078904D01*
X366926761Y-182031285D01*
X366974380Y-181936047D01*
X366974380Y-181745571D01*
X366926761Y-181650333D01*
X366879142Y-181602714D01*
X366783904Y-181555095D01*
X366545809Y-181555095D01*
X366450571Y-181602714D01*
X366402952Y-181650333D01*
X366355333Y-181745571D01*
X366355333Y-181936047D01*
X366402952Y-182031285D01*
X366450571Y-182078904D01*
X366545809Y-182126523D01*
%TO.C,D95*%
X347797380Y-184031285D02*
X346797380Y-184031285D01*
X346797380Y-183793190D01*
X346845000Y-183650333D01*
X346940238Y-183555095D01*
X347035476Y-183507476D01*
X347225952Y-183459857D01*
X347368809Y-183459857D01*
X347559285Y-183507476D01*
X347654523Y-183555095D01*
X347749761Y-183650333D01*
X347797380Y-183793190D01*
X347797380Y-184031285D01*
X347797380Y-182983666D02*
X347797380Y-182793190D01*
X347749761Y-182697952D01*
X347702142Y-182650333D01*
X347559285Y-182555095D01*
X347368809Y-182507476D01*
X346987857Y-182507476D01*
X346892619Y-182555095D01*
X346845000Y-182602714D01*
X346797380Y-182697952D01*
X346797380Y-182888428D01*
X346845000Y-182983666D01*
X346892619Y-183031285D01*
X346987857Y-183078904D01*
X347225952Y-183078904D01*
X347321190Y-183031285D01*
X347368809Y-182983666D01*
X347416428Y-182888428D01*
X347416428Y-182697952D01*
X347368809Y-182602714D01*
X347321190Y-182555095D01*
X347225952Y-182507476D01*
X346797380Y-181602714D02*
X346797380Y-182078904D01*
X347273571Y-182126523D01*
X347225952Y-182078904D01*
X347178333Y-181983666D01*
X347178333Y-181745571D01*
X347225952Y-181650333D01*
X347273571Y-181602714D01*
X347368809Y-181555095D01*
X347606904Y-181555095D01*
X347702142Y-181602714D01*
X347749761Y-181650333D01*
X347797380Y-181745571D01*
X347797380Y-181983666D01*
X347749761Y-182078904D01*
X347702142Y-182126523D01*
%TO.C,D94*%
X328747380Y-184031285D02*
X327747380Y-184031285D01*
X327747380Y-183793190D01*
X327795000Y-183650333D01*
X327890238Y-183555095D01*
X327985476Y-183507476D01*
X328175952Y-183459857D01*
X328318809Y-183459857D01*
X328509285Y-183507476D01*
X328604523Y-183555095D01*
X328699761Y-183650333D01*
X328747380Y-183793190D01*
X328747380Y-184031285D01*
X328747380Y-182983666D02*
X328747380Y-182793190D01*
X328699761Y-182697952D01*
X328652142Y-182650333D01*
X328509285Y-182555095D01*
X328318809Y-182507476D01*
X327937857Y-182507476D01*
X327842619Y-182555095D01*
X327795000Y-182602714D01*
X327747380Y-182697952D01*
X327747380Y-182888428D01*
X327795000Y-182983666D01*
X327842619Y-183031285D01*
X327937857Y-183078904D01*
X328175952Y-183078904D01*
X328271190Y-183031285D01*
X328318809Y-182983666D01*
X328366428Y-182888428D01*
X328366428Y-182697952D01*
X328318809Y-182602714D01*
X328271190Y-182555095D01*
X328175952Y-182507476D01*
X328080714Y-181650333D02*
X328747380Y-181650333D01*
X327699761Y-181888428D02*
X328414047Y-182126523D01*
X328414047Y-181507476D01*
%TO.C,D93*%
X316301380Y-184031285D02*
X315301380Y-184031285D01*
X315301380Y-183793190D01*
X315349000Y-183650333D01*
X315444238Y-183555095D01*
X315539476Y-183507476D01*
X315729952Y-183459857D01*
X315872809Y-183459857D01*
X316063285Y-183507476D01*
X316158523Y-183555095D01*
X316253761Y-183650333D01*
X316301380Y-183793190D01*
X316301380Y-184031285D01*
X316301380Y-182983666D02*
X316301380Y-182793190D01*
X316253761Y-182697952D01*
X316206142Y-182650333D01*
X316063285Y-182555095D01*
X315872809Y-182507476D01*
X315491857Y-182507476D01*
X315396619Y-182555095D01*
X315349000Y-182602714D01*
X315301380Y-182697952D01*
X315301380Y-182888428D01*
X315349000Y-182983666D01*
X315396619Y-183031285D01*
X315491857Y-183078904D01*
X315729952Y-183078904D01*
X315825190Y-183031285D01*
X315872809Y-182983666D01*
X315920428Y-182888428D01*
X315920428Y-182697952D01*
X315872809Y-182602714D01*
X315825190Y-182555095D01*
X315729952Y-182507476D01*
X315301380Y-182174142D02*
X315301380Y-181555095D01*
X315682333Y-181888428D01*
X315682333Y-181745571D01*
X315729952Y-181650333D01*
X315777571Y-181602714D01*
X315872809Y-181555095D01*
X316110904Y-181555095D01*
X316206142Y-181602714D01*
X316253761Y-181650333D01*
X316301380Y-181745571D01*
X316301380Y-182031285D01*
X316253761Y-182126523D01*
X316206142Y-182174142D01*
%TO.C,D92*%
X297124380Y-184031285D02*
X296124380Y-184031285D01*
X296124380Y-183793190D01*
X296172000Y-183650333D01*
X296267238Y-183555095D01*
X296362476Y-183507476D01*
X296552952Y-183459857D01*
X296695809Y-183459857D01*
X296886285Y-183507476D01*
X296981523Y-183555095D01*
X297076761Y-183650333D01*
X297124380Y-183793190D01*
X297124380Y-184031285D01*
X297124380Y-182983666D02*
X297124380Y-182793190D01*
X297076761Y-182697952D01*
X297029142Y-182650333D01*
X296886285Y-182555095D01*
X296695809Y-182507476D01*
X296314857Y-182507476D01*
X296219619Y-182555095D01*
X296172000Y-182602714D01*
X296124380Y-182697952D01*
X296124380Y-182888428D01*
X296172000Y-182983666D01*
X296219619Y-183031285D01*
X296314857Y-183078904D01*
X296552952Y-183078904D01*
X296648190Y-183031285D01*
X296695809Y-182983666D01*
X296743428Y-182888428D01*
X296743428Y-182697952D01*
X296695809Y-182602714D01*
X296648190Y-182555095D01*
X296552952Y-182507476D01*
X296219619Y-182126523D02*
X296172000Y-182078904D01*
X296124380Y-181983666D01*
X296124380Y-181745571D01*
X296172000Y-181650333D01*
X296219619Y-181602714D01*
X296314857Y-181555095D01*
X296410095Y-181555095D01*
X296552952Y-181602714D01*
X297124380Y-182174142D01*
X297124380Y-181555095D01*
%TO.C,D91*%
X277947380Y-184031285D02*
X276947380Y-184031285D01*
X276947380Y-183793190D01*
X276995000Y-183650333D01*
X277090238Y-183555095D01*
X277185476Y-183507476D01*
X277375952Y-183459857D01*
X277518809Y-183459857D01*
X277709285Y-183507476D01*
X277804523Y-183555095D01*
X277899761Y-183650333D01*
X277947380Y-183793190D01*
X277947380Y-184031285D01*
X277947380Y-182983666D02*
X277947380Y-182793190D01*
X277899761Y-182697952D01*
X277852142Y-182650333D01*
X277709285Y-182555095D01*
X277518809Y-182507476D01*
X277137857Y-182507476D01*
X277042619Y-182555095D01*
X276995000Y-182602714D01*
X276947380Y-182697952D01*
X276947380Y-182888428D01*
X276995000Y-182983666D01*
X277042619Y-183031285D01*
X277137857Y-183078904D01*
X277375952Y-183078904D01*
X277471190Y-183031285D01*
X277518809Y-182983666D01*
X277566428Y-182888428D01*
X277566428Y-182697952D01*
X277518809Y-182602714D01*
X277471190Y-182555095D01*
X277375952Y-182507476D01*
X277947380Y-181555095D02*
X277947380Y-182126523D01*
X277947380Y-181840809D02*
X276947380Y-181840809D01*
X277090238Y-181936047D01*
X277185476Y-182031285D01*
X277233095Y-182126523D01*
%TO.C,D90*%
X249372380Y-184031285D02*
X248372380Y-184031285D01*
X248372380Y-183793190D01*
X248420000Y-183650333D01*
X248515238Y-183555095D01*
X248610476Y-183507476D01*
X248800952Y-183459857D01*
X248943809Y-183459857D01*
X249134285Y-183507476D01*
X249229523Y-183555095D01*
X249324761Y-183650333D01*
X249372380Y-183793190D01*
X249372380Y-184031285D01*
X249372380Y-182983666D02*
X249372380Y-182793190D01*
X249324761Y-182697952D01*
X249277142Y-182650333D01*
X249134285Y-182555095D01*
X248943809Y-182507476D01*
X248562857Y-182507476D01*
X248467619Y-182555095D01*
X248420000Y-182602714D01*
X248372380Y-182697952D01*
X248372380Y-182888428D01*
X248420000Y-182983666D01*
X248467619Y-183031285D01*
X248562857Y-183078904D01*
X248800952Y-183078904D01*
X248896190Y-183031285D01*
X248943809Y-182983666D01*
X248991428Y-182888428D01*
X248991428Y-182697952D01*
X248943809Y-182602714D01*
X248896190Y-182555095D01*
X248800952Y-182507476D01*
X248372380Y-181888428D02*
X248372380Y-181793190D01*
X248420000Y-181697952D01*
X248467619Y-181650333D01*
X248562857Y-181602714D01*
X248753333Y-181555095D01*
X248991428Y-181555095D01*
X249181904Y-181602714D01*
X249277142Y-181650333D01*
X249324761Y-181697952D01*
X249372380Y-181793190D01*
X249372380Y-181888428D01*
X249324761Y-181983666D01*
X249277142Y-182031285D01*
X249181904Y-182078904D01*
X248991428Y-182126523D01*
X248753333Y-182126523D01*
X248562857Y-182078904D01*
X248467619Y-182031285D01*
X248420000Y-181983666D01*
X248372380Y-181888428D01*
%TO.C,D89*%
X230195380Y-184031285D02*
X229195380Y-184031285D01*
X229195380Y-183793190D01*
X229243000Y-183650333D01*
X229338238Y-183555095D01*
X229433476Y-183507476D01*
X229623952Y-183459857D01*
X229766809Y-183459857D01*
X229957285Y-183507476D01*
X230052523Y-183555095D01*
X230147761Y-183650333D01*
X230195380Y-183793190D01*
X230195380Y-184031285D01*
X229623952Y-182888428D02*
X229576333Y-182983666D01*
X229528714Y-183031285D01*
X229433476Y-183078904D01*
X229385857Y-183078904D01*
X229290619Y-183031285D01*
X229243000Y-182983666D01*
X229195380Y-182888428D01*
X229195380Y-182697952D01*
X229243000Y-182602714D01*
X229290619Y-182555095D01*
X229385857Y-182507476D01*
X229433476Y-182507476D01*
X229528714Y-182555095D01*
X229576333Y-182602714D01*
X229623952Y-182697952D01*
X229623952Y-182888428D01*
X229671571Y-182983666D01*
X229719190Y-183031285D01*
X229814428Y-183078904D01*
X230004904Y-183078904D01*
X230100142Y-183031285D01*
X230147761Y-182983666D01*
X230195380Y-182888428D01*
X230195380Y-182697952D01*
X230147761Y-182602714D01*
X230100142Y-182555095D01*
X230004904Y-182507476D01*
X229814428Y-182507476D01*
X229719190Y-182555095D01*
X229671571Y-182602714D01*
X229623952Y-182697952D01*
X230195380Y-182031285D02*
X230195380Y-181840809D01*
X230147761Y-181745571D01*
X230100142Y-181697952D01*
X229957285Y-181602714D01*
X229766809Y-181555095D01*
X229385857Y-181555095D01*
X229290619Y-181602714D01*
X229243000Y-181650333D01*
X229195380Y-181745571D01*
X229195380Y-181936047D01*
X229243000Y-182031285D01*
X229290619Y-182078904D01*
X229385857Y-182126523D01*
X229623952Y-182126523D01*
X229719190Y-182078904D01*
X229766809Y-182031285D01*
X229814428Y-181936047D01*
X229814428Y-181745571D01*
X229766809Y-181650333D01*
X229719190Y-181602714D01*
X229623952Y-181555095D01*
%TO.C,D88*%
X211145380Y-184031285D02*
X210145380Y-184031285D01*
X210145380Y-183793190D01*
X210193000Y-183650333D01*
X210288238Y-183555095D01*
X210383476Y-183507476D01*
X210573952Y-183459857D01*
X210716809Y-183459857D01*
X210907285Y-183507476D01*
X211002523Y-183555095D01*
X211097761Y-183650333D01*
X211145380Y-183793190D01*
X211145380Y-184031285D01*
X210573952Y-182888428D02*
X210526333Y-182983666D01*
X210478714Y-183031285D01*
X210383476Y-183078904D01*
X210335857Y-183078904D01*
X210240619Y-183031285D01*
X210193000Y-182983666D01*
X210145380Y-182888428D01*
X210145380Y-182697952D01*
X210193000Y-182602714D01*
X210240619Y-182555095D01*
X210335857Y-182507476D01*
X210383476Y-182507476D01*
X210478714Y-182555095D01*
X210526333Y-182602714D01*
X210573952Y-182697952D01*
X210573952Y-182888428D01*
X210621571Y-182983666D01*
X210669190Y-183031285D01*
X210764428Y-183078904D01*
X210954904Y-183078904D01*
X211050142Y-183031285D01*
X211097761Y-182983666D01*
X211145380Y-182888428D01*
X211145380Y-182697952D01*
X211097761Y-182602714D01*
X211050142Y-182555095D01*
X210954904Y-182507476D01*
X210764428Y-182507476D01*
X210669190Y-182555095D01*
X210621571Y-182602714D01*
X210573952Y-182697952D01*
X210573952Y-181936047D02*
X210526333Y-182031285D01*
X210478714Y-182078904D01*
X210383476Y-182126523D01*
X210335857Y-182126523D01*
X210240619Y-182078904D01*
X210193000Y-182031285D01*
X210145380Y-181936047D01*
X210145380Y-181745571D01*
X210193000Y-181650333D01*
X210240619Y-181602714D01*
X210335857Y-181555095D01*
X210383476Y-181555095D01*
X210478714Y-181602714D01*
X210526333Y-181650333D01*
X210573952Y-181745571D01*
X210573952Y-181936047D01*
X210621571Y-182031285D01*
X210669190Y-182078904D01*
X210764428Y-182126523D01*
X210954904Y-182126523D01*
X211050142Y-182078904D01*
X211097761Y-182031285D01*
X211145380Y-181936047D01*
X211145380Y-181745571D01*
X211097761Y-181650333D01*
X211050142Y-181602714D01*
X210954904Y-181555095D01*
X210764428Y-181555095D01*
X210669190Y-181602714D01*
X210621571Y-181650333D01*
X210573952Y-181745571D01*
%TO.C,D87*%
X191968380Y-184031285D02*
X190968380Y-184031285D01*
X190968380Y-183793190D01*
X191016000Y-183650333D01*
X191111238Y-183555095D01*
X191206476Y-183507476D01*
X191396952Y-183459857D01*
X191539809Y-183459857D01*
X191730285Y-183507476D01*
X191825523Y-183555095D01*
X191920761Y-183650333D01*
X191968380Y-183793190D01*
X191968380Y-184031285D01*
X191396952Y-182888428D02*
X191349333Y-182983666D01*
X191301714Y-183031285D01*
X191206476Y-183078904D01*
X191158857Y-183078904D01*
X191063619Y-183031285D01*
X191016000Y-182983666D01*
X190968380Y-182888428D01*
X190968380Y-182697952D01*
X191016000Y-182602714D01*
X191063619Y-182555095D01*
X191158857Y-182507476D01*
X191206476Y-182507476D01*
X191301714Y-182555095D01*
X191349333Y-182602714D01*
X191396952Y-182697952D01*
X191396952Y-182888428D01*
X191444571Y-182983666D01*
X191492190Y-183031285D01*
X191587428Y-183078904D01*
X191777904Y-183078904D01*
X191873142Y-183031285D01*
X191920761Y-182983666D01*
X191968380Y-182888428D01*
X191968380Y-182697952D01*
X191920761Y-182602714D01*
X191873142Y-182555095D01*
X191777904Y-182507476D01*
X191587428Y-182507476D01*
X191492190Y-182555095D01*
X191444571Y-182602714D01*
X191396952Y-182697952D01*
X190968380Y-182174142D02*
X190968380Y-181507476D01*
X191968380Y-181936047D01*
%TO.C,D86*%
X172918380Y-184031285D02*
X171918380Y-184031285D01*
X171918380Y-183793190D01*
X171966000Y-183650333D01*
X172061238Y-183555095D01*
X172156476Y-183507476D01*
X172346952Y-183459857D01*
X172489809Y-183459857D01*
X172680285Y-183507476D01*
X172775523Y-183555095D01*
X172870761Y-183650333D01*
X172918380Y-183793190D01*
X172918380Y-184031285D01*
X172346952Y-182888428D02*
X172299333Y-182983666D01*
X172251714Y-183031285D01*
X172156476Y-183078904D01*
X172108857Y-183078904D01*
X172013619Y-183031285D01*
X171966000Y-182983666D01*
X171918380Y-182888428D01*
X171918380Y-182697952D01*
X171966000Y-182602714D01*
X172013619Y-182555095D01*
X172108857Y-182507476D01*
X172156476Y-182507476D01*
X172251714Y-182555095D01*
X172299333Y-182602714D01*
X172346952Y-182697952D01*
X172346952Y-182888428D01*
X172394571Y-182983666D01*
X172442190Y-183031285D01*
X172537428Y-183078904D01*
X172727904Y-183078904D01*
X172823142Y-183031285D01*
X172870761Y-182983666D01*
X172918380Y-182888428D01*
X172918380Y-182697952D01*
X172870761Y-182602714D01*
X172823142Y-182555095D01*
X172727904Y-182507476D01*
X172537428Y-182507476D01*
X172442190Y-182555095D01*
X172394571Y-182602714D01*
X172346952Y-182697952D01*
X171918380Y-181650333D02*
X171918380Y-181840809D01*
X171966000Y-181936047D01*
X172013619Y-181983666D01*
X172156476Y-182078904D01*
X172346952Y-182126523D01*
X172727904Y-182126523D01*
X172823142Y-182078904D01*
X172870761Y-182031285D01*
X172918380Y-181936047D01*
X172918380Y-181745571D01*
X172870761Y-181650333D01*
X172823142Y-181602714D01*
X172727904Y-181555095D01*
X172489809Y-181555095D01*
X172394571Y-181602714D01*
X172346952Y-181650333D01*
X172299333Y-181745571D01*
X172299333Y-181936047D01*
X172346952Y-182031285D01*
X172394571Y-182078904D01*
X172489809Y-182126523D01*
%TO.C,D85*%
X153741380Y-184031285D02*
X152741380Y-184031285D01*
X152741380Y-183793190D01*
X152789000Y-183650333D01*
X152884238Y-183555095D01*
X152979476Y-183507476D01*
X153169952Y-183459857D01*
X153312809Y-183459857D01*
X153503285Y-183507476D01*
X153598523Y-183555095D01*
X153693761Y-183650333D01*
X153741380Y-183793190D01*
X153741380Y-184031285D01*
X153169952Y-182888428D02*
X153122333Y-182983666D01*
X153074714Y-183031285D01*
X152979476Y-183078904D01*
X152931857Y-183078904D01*
X152836619Y-183031285D01*
X152789000Y-182983666D01*
X152741380Y-182888428D01*
X152741380Y-182697952D01*
X152789000Y-182602714D01*
X152836619Y-182555095D01*
X152931857Y-182507476D01*
X152979476Y-182507476D01*
X153074714Y-182555095D01*
X153122333Y-182602714D01*
X153169952Y-182697952D01*
X153169952Y-182888428D01*
X153217571Y-182983666D01*
X153265190Y-183031285D01*
X153360428Y-183078904D01*
X153550904Y-183078904D01*
X153646142Y-183031285D01*
X153693761Y-182983666D01*
X153741380Y-182888428D01*
X153741380Y-182697952D01*
X153693761Y-182602714D01*
X153646142Y-182555095D01*
X153550904Y-182507476D01*
X153360428Y-182507476D01*
X153265190Y-182555095D01*
X153217571Y-182602714D01*
X153169952Y-182697952D01*
X152741380Y-181602714D02*
X152741380Y-182078904D01*
X153217571Y-182126523D01*
X153169952Y-182078904D01*
X153122333Y-181983666D01*
X153122333Y-181745571D01*
X153169952Y-181650333D01*
X153217571Y-181602714D01*
X153312809Y-181555095D01*
X153550904Y-181555095D01*
X153646142Y-181602714D01*
X153693761Y-181650333D01*
X153741380Y-181745571D01*
X153741380Y-181983666D01*
X153693761Y-182078904D01*
X153646142Y-182126523D01*
%TO.C,D84*%
X134691380Y-184031285D02*
X133691380Y-184031285D01*
X133691380Y-183793190D01*
X133739000Y-183650333D01*
X133834238Y-183555095D01*
X133929476Y-183507476D01*
X134119952Y-183459857D01*
X134262809Y-183459857D01*
X134453285Y-183507476D01*
X134548523Y-183555095D01*
X134643761Y-183650333D01*
X134691380Y-183793190D01*
X134691380Y-184031285D01*
X134119952Y-182888428D02*
X134072333Y-182983666D01*
X134024714Y-183031285D01*
X133929476Y-183078904D01*
X133881857Y-183078904D01*
X133786619Y-183031285D01*
X133739000Y-182983666D01*
X133691380Y-182888428D01*
X133691380Y-182697952D01*
X133739000Y-182602714D01*
X133786619Y-182555095D01*
X133881857Y-182507476D01*
X133929476Y-182507476D01*
X134024714Y-182555095D01*
X134072333Y-182602714D01*
X134119952Y-182697952D01*
X134119952Y-182888428D01*
X134167571Y-182983666D01*
X134215190Y-183031285D01*
X134310428Y-183078904D01*
X134500904Y-183078904D01*
X134596142Y-183031285D01*
X134643761Y-182983666D01*
X134691380Y-182888428D01*
X134691380Y-182697952D01*
X134643761Y-182602714D01*
X134596142Y-182555095D01*
X134500904Y-182507476D01*
X134310428Y-182507476D01*
X134215190Y-182555095D01*
X134167571Y-182602714D01*
X134119952Y-182697952D01*
X134024714Y-181650333D02*
X134691380Y-181650333D01*
X133643761Y-181888428D02*
X134358047Y-182126523D01*
X134358047Y-181507476D01*
%TO.C,D83*%
X115514380Y-184031285D02*
X114514380Y-184031285D01*
X114514380Y-183793190D01*
X114562000Y-183650333D01*
X114657238Y-183555095D01*
X114752476Y-183507476D01*
X114942952Y-183459857D01*
X115085809Y-183459857D01*
X115276285Y-183507476D01*
X115371523Y-183555095D01*
X115466761Y-183650333D01*
X115514380Y-183793190D01*
X115514380Y-184031285D01*
X114942952Y-182888428D02*
X114895333Y-182983666D01*
X114847714Y-183031285D01*
X114752476Y-183078904D01*
X114704857Y-183078904D01*
X114609619Y-183031285D01*
X114562000Y-182983666D01*
X114514380Y-182888428D01*
X114514380Y-182697952D01*
X114562000Y-182602714D01*
X114609619Y-182555095D01*
X114704857Y-182507476D01*
X114752476Y-182507476D01*
X114847714Y-182555095D01*
X114895333Y-182602714D01*
X114942952Y-182697952D01*
X114942952Y-182888428D01*
X114990571Y-182983666D01*
X115038190Y-183031285D01*
X115133428Y-183078904D01*
X115323904Y-183078904D01*
X115419142Y-183031285D01*
X115466761Y-182983666D01*
X115514380Y-182888428D01*
X115514380Y-182697952D01*
X115466761Y-182602714D01*
X115419142Y-182555095D01*
X115323904Y-182507476D01*
X115133428Y-182507476D01*
X115038190Y-182555095D01*
X114990571Y-182602714D01*
X114942952Y-182697952D01*
X114514380Y-182174142D02*
X114514380Y-181555095D01*
X114895333Y-181888428D01*
X114895333Y-181745571D01*
X114942952Y-181650333D01*
X114990571Y-181602714D01*
X115085809Y-181555095D01*
X115323904Y-181555095D01*
X115419142Y-181602714D01*
X115466761Y-181650333D01*
X115514380Y-181745571D01*
X115514380Y-182031285D01*
X115466761Y-182126523D01*
X115419142Y-182174142D01*
%TO.C,D82*%
X96464380Y-184031285D02*
X95464380Y-184031285D01*
X95464380Y-183793190D01*
X95512000Y-183650333D01*
X95607238Y-183555095D01*
X95702476Y-183507476D01*
X95892952Y-183459857D01*
X96035809Y-183459857D01*
X96226285Y-183507476D01*
X96321523Y-183555095D01*
X96416761Y-183650333D01*
X96464380Y-183793190D01*
X96464380Y-184031285D01*
X95892952Y-182888428D02*
X95845333Y-182983666D01*
X95797714Y-183031285D01*
X95702476Y-183078904D01*
X95654857Y-183078904D01*
X95559619Y-183031285D01*
X95512000Y-182983666D01*
X95464380Y-182888428D01*
X95464380Y-182697952D01*
X95512000Y-182602714D01*
X95559619Y-182555095D01*
X95654857Y-182507476D01*
X95702476Y-182507476D01*
X95797714Y-182555095D01*
X95845333Y-182602714D01*
X95892952Y-182697952D01*
X95892952Y-182888428D01*
X95940571Y-182983666D01*
X95988190Y-183031285D01*
X96083428Y-183078904D01*
X96273904Y-183078904D01*
X96369142Y-183031285D01*
X96416761Y-182983666D01*
X96464380Y-182888428D01*
X96464380Y-182697952D01*
X96416761Y-182602714D01*
X96369142Y-182555095D01*
X96273904Y-182507476D01*
X96083428Y-182507476D01*
X95988190Y-182555095D01*
X95940571Y-182602714D01*
X95892952Y-182697952D01*
X95559619Y-182126523D02*
X95512000Y-182078904D01*
X95464380Y-181983666D01*
X95464380Y-181745571D01*
X95512000Y-181650333D01*
X95559619Y-181602714D01*
X95654857Y-181555095D01*
X95750095Y-181555095D01*
X95892952Y-181602714D01*
X96464380Y-182174142D01*
X96464380Y-181555095D01*
%TO.C,D81*%
X77414380Y-184031285D02*
X76414380Y-184031285D01*
X76414380Y-183793190D01*
X76462000Y-183650333D01*
X76557238Y-183555095D01*
X76652476Y-183507476D01*
X76842952Y-183459857D01*
X76985809Y-183459857D01*
X77176285Y-183507476D01*
X77271523Y-183555095D01*
X77366761Y-183650333D01*
X77414380Y-183793190D01*
X77414380Y-184031285D01*
X76842952Y-182888428D02*
X76795333Y-182983666D01*
X76747714Y-183031285D01*
X76652476Y-183078904D01*
X76604857Y-183078904D01*
X76509619Y-183031285D01*
X76462000Y-182983666D01*
X76414380Y-182888428D01*
X76414380Y-182697952D01*
X76462000Y-182602714D01*
X76509619Y-182555095D01*
X76604857Y-182507476D01*
X76652476Y-182507476D01*
X76747714Y-182555095D01*
X76795333Y-182602714D01*
X76842952Y-182697952D01*
X76842952Y-182888428D01*
X76890571Y-182983666D01*
X76938190Y-183031285D01*
X77033428Y-183078904D01*
X77223904Y-183078904D01*
X77319142Y-183031285D01*
X77366761Y-182983666D01*
X77414380Y-182888428D01*
X77414380Y-182697952D01*
X77366761Y-182602714D01*
X77319142Y-182555095D01*
X77223904Y-182507476D01*
X77033428Y-182507476D01*
X76938190Y-182555095D01*
X76890571Y-182602714D01*
X76842952Y-182697952D01*
X77414380Y-181555095D02*
X77414380Y-182126523D01*
X77414380Y-181840809D02*
X76414380Y-181840809D01*
X76557238Y-181936047D01*
X76652476Y-182031285D01*
X76700095Y-182126523D01*
%TO.C,D80*%
X58237380Y-184031285D02*
X57237380Y-184031285D01*
X57237380Y-183793190D01*
X57285000Y-183650333D01*
X57380238Y-183555095D01*
X57475476Y-183507476D01*
X57665952Y-183459857D01*
X57808809Y-183459857D01*
X57999285Y-183507476D01*
X58094523Y-183555095D01*
X58189761Y-183650333D01*
X58237380Y-183793190D01*
X58237380Y-184031285D01*
X57665952Y-182888428D02*
X57618333Y-182983666D01*
X57570714Y-183031285D01*
X57475476Y-183078904D01*
X57427857Y-183078904D01*
X57332619Y-183031285D01*
X57285000Y-182983666D01*
X57237380Y-182888428D01*
X57237380Y-182697952D01*
X57285000Y-182602714D01*
X57332619Y-182555095D01*
X57427857Y-182507476D01*
X57475476Y-182507476D01*
X57570714Y-182555095D01*
X57618333Y-182602714D01*
X57665952Y-182697952D01*
X57665952Y-182888428D01*
X57713571Y-182983666D01*
X57761190Y-183031285D01*
X57856428Y-183078904D01*
X58046904Y-183078904D01*
X58142142Y-183031285D01*
X58189761Y-182983666D01*
X58237380Y-182888428D01*
X58237380Y-182697952D01*
X58189761Y-182602714D01*
X58142142Y-182555095D01*
X58046904Y-182507476D01*
X57856428Y-182507476D01*
X57761190Y-182555095D01*
X57713571Y-182602714D01*
X57665952Y-182697952D01*
X57237380Y-181888428D02*
X57237380Y-181793190D01*
X57285000Y-181697952D01*
X57332619Y-181650333D01*
X57427857Y-181602714D01*
X57618333Y-181555095D01*
X57856428Y-181555095D01*
X58046904Y-181602714D01*
X58142142Y-181650333D01*
X58189761Y-181697952D01*
X58237380Y-181793190D01*
X58237380Y-181888428D01*
X58189761Y-181983666D01*
X58142142Y-182031285D01*
X58046904Y-182078904D01*
X57856428Y-182126523D01*
X57618333Y-182126523D01*
X57427857Y-182078904D01*
X57332619Y-182031285D01*
X57285000Y-181983666D01*
X57237380Y-181888428D01*
%TO.C,D79*%
X34488380Y-184031285D02*
X33488380Y-184031285D01*
X33488380Y-183793190D01*
X33536000Y-183650333D01*
X33631238Y-183555095D01*
X33726476Y-183507476D01*
X33916952Y-183459857D01*
X34059809Y-183459857D01*
X34250285Y-183507476D01*
X34345523Y-183555095D01*
X34440761Y-183650333D01*
X34488380Y-183793190D01*
X34488380Y-184031285D01*
X33488380Y-183126523D02*
X33488380Y-182459857D01*
X34488380Y-182888428D01*
X34488380Y-182031285D02*
X34488380Y-181840809D01*
X34440761Y-181745571D01*
X34393142Y-181697952D01*
X34250285Y-181602714D01*
X34059809Y-181555095D01*
X33678857Y-181555095D01*
X33583619Y-181602714D01*
X33536000Y-181650333D01*
X33488380Y-181745571D01*
X33488380Y-181936047D01*
X33536000Y-182031285D01*
X33583619Y-182078904D01*
X33678857Y-182126523D01*
X33916952Y-182126523D01*
X34012190Y-182078904D01*
X34059809Y-182031285D01*
X34107428Y-181936047D01*
X34107428Y-181745571D01*
X34059809Y-181650333D01*
X34012190Y-181602714D01*
X33916952Y-181555095D01*
%TO.C,D78*%
X386151380Y-165108285D02*
X385151380Y-165108285D01*
X385151380Y-164870190D01*
X385199000Y-164727333D01*
X385294238Y-164632095D01*
X385389476Y-164584476D01*
X385579952Y-164536857D01*
X385722809Y-164536857D01*
X385913285Y-164584476D01*
X386008523Y-164632095D01*
X386103761Y-164727333D01*
X386151380Y-164870190D01*
X386151380Y-165108285D01*
X385151380Y-164203523D02*
X385151380Y-163536857D01*
X386151380Y-163965428D01*
X385579952Y-163013047D02*
X385532333Y-163108285D01*
X385484714Y-163155904D01*
X385389476Y-163203523D01*
X385341857Y-163203523D01*
X385246619Y-163155904D01*
X385199000Y-163108285D01*
X385151380Y-163013047D01*
X385151380Y-162822571D01*
X385199000Y-162727333D01*
X385246619Y-162679714D01*
X385341857Y-162632095D01*
X385389476Y-162632095D01*
X385484714Y-162679714D01*
X385532333Y-162727333D01*
X385579952Y-162822571D01*
X385579952Y-163013047D01*
X385627571Y-163108285D01*
X385675190Y-163155904D01*
X385770428Y-163203523D01*
X385960904Y-163203523D01*
X386056142Y-163155904D01*
X386103761Y-163108285D01*
X386151380Y-163013047D01*
X386151380Y-162822571D01*
X386103761Y-162727333D01*
X386056142Y-162679714D01*
X385960904Y-162632095D01*
X385770428Y-162632095D01*
X385675190Y-162679714D01*
X385627571Y-162727333D01*
X385579952Y-162822571D01*
%TO.C,D77*%
X367101380Y-165108285D02*
X366101380Y-165108285D01*
X366101380Y-164870190D01*
X366149000Y-164727333D01*
X366244238Y-164632095D01*
X366339476Y-164584476D01*
X366529952Y-164536857D01*
X366672809Y-164536857D01*
X366863285Y-164584476D01*
X366958523Y-164632095D01*
X367053761Y-164727333D01*
X367101380Y-164870190D01*
X367101380Y-165108285D01*
X366101380Y-164203523D02*
X366101380Y-163536857D01*
X367101380Y-163965428D01*
X366101380Y-163251142D02*
X366101380Y-162584476D01*
X367101380Y-163013047D01*
%TO.C,D76*%
X347924380Y-165108285D02*
X346924380Y-165108285D01*
X346924380Y-164870190D01*
X346972000Y-164727333D01*
X347067238Y-164632095D01*
X347162476Y-164584476D01*
X347352952Y-164536857D01*
X347495809Y-164536857D01*
X347686285Y-164584476D01*
X347781523Y-164632095D01*
X347876761Y-164727333D01*
X347924380Y-164870190D01*
X347924380Y-165108285D01*
X346924380Y-164203523D02*
X346924380Y-163536857D01*
X347924380Y-163965428D01*
X346924380Y-162727333D02*
X346924380Y-162917809D01*
X346972000Y-163013047D01*
X347019619Y-163060666D01*
X347162476Y-163155904D01*
X347352952Y-163203523D01*
X347733904Y-163203523D01*
X347829142Y-163155904D01*
X347876761Y-163108285D01*
X347924380Y-163013047D01*
X347924380Y-162822571D01*
X347876761Y-162727333D01*
X347829142Y-162679714D01*
X347733904Y-162632095D01*
X347495809Y-162632095D01*
X347400571Y-162679714D01*
X347352952Y-162727333D01*
X347305333Y-162822571D01*
X347305333Y-163013047D01*
X347352952Y-163108285D01*
X347400571Y-163155904D01*
X347495809Y-163203523D01*
%TO.C,D75*%
X328747380Y-165108285D02*
X327747380Y-165108285D01*
X327747380Y-164870190D01*
X327795000Y-164727333D01*
X327890238Y-164632095D01*
X327985476Y-164584476D01*
X328175952Y-164536857D01*
X328318809Y-164536857D01*
X328509285Y-164584476D01*
X328604523Y-164632095D01*
X328699761Y-164727333D01*
X328747380Y-164870190D01*
X328747380Y-165108285D01*
X327747380Y-164203523D02*
X327747380Y-163536857D01*
X328747380Y-163965428D01*
X327747380Y-162679714D02*
X327747380Y-163155904D01*
X328223571Y-163203523D01*
X328175952Y-163155904D01*
X328128333Y-163060666D01*
X328128333Y-162822571D01*
X328175952Y-162727333D01*
X328223571Y-162679714D01*
X328318809Y-162632095D01*
X328556904Y-162632095D01*
X328652142Y-162679714D01*
X328699761Y-162727333D01*
X328747380Y-162822571D01*
X328747380Y-163060666D01*
X328699761Y-163155904D01*
X328652142Y-163203523D01*
%TO.C,D74*%
X316301380Y-165108285D02*
X315301380Y-165108285D01*
X315301380Y-164870190D01*
X315349000Y-164727333D01*
X315444238Y-164632095D01*
X315539476Y-164584476D01*
X315729952Y-164536857D01*
X315872809Y-164536857D01*
X316063285Y-164584476D01*
X316158523Y-164632095D01*
X316253761Y-164727333D01*
X316301380Y-164870190D01*
X316301380Y-165108285D01*
X315301380Y-164203523D02*
X315301380Y-163536857D01*
X316301380Y-163965428D01*
X315634714Y-162727333D02*
X316301380Y-162727333D01*
X315253761Y-162965428D02*
X315968047Y-163203523D01*
X315968047Y-162584476D01*
%TO.C,D72*%
X297124380Y-165108285D02*
X296124380Y-165108285D01*
X296124380Y-164870190D01*
X296172000Y-164727333D01*
X296267238Y-164632095D01*
X296362476Y-164584476D01*
X296552952Y-164536857D01*
X296695809Y-164536857D01*
X296886285Y-164584476D01*
X296981523Y-164632095D01*
X297076761Y-164727333D01*
X297124380Y-164870190D01*
X297124380Y-165108285D01*
X296124380Y-164203523D02*
X296124380Y-163536857D01*
X297124380Y-163965428D01*
X296219619Y-163203523D02*
X296172000Y-163155904D01*
X296124380Y-163060666D01*
X296124380Y-162822571D01*
X296172000Y-162727333D01*
X296219619Y-162679714D01*
X296314857Y-162632095D01*
X296410095Y-162632095D01*
X296552952Y-162679714D01*
X297124380Y-163251142D01*
X297124380Y-162632095D01*
%TO.C,D71*%
X259024380Y-165108285D02*
X258024380Y-165108285D01*
X258024380Y-164870190D01*
X258072000Y-164727333D01*
X258167238Y-164632095D01*
X258262476Y-164584476D01*
X258452952Y-164536857D01*
X258595809Y-164536857D01*
X258786285Y-164584476D01*
X258881523Y-164632095D01*
X258976761Y-164727333D01*
X259024380Y-164870190D01*
X259024380Y-165108285D01*
X258024380Y-164203523D02*
X258024380Y-163536857D01*
X259024380Y-163965428D01*
X259024380Y-162632095D02*
X259024380Y-163203523D01*
X259024380Y-162917809D02*
X258024380Y-162917809D01*
X258167238Y-163013047D01*
X258262476Y-163108285D01*
X258310095Y-163203523D01*
%TO.C,D70*%
X239847380Y-165108285D02*
X238847380Y-165108285D01*
X238847380Y-164870190D01*
X238895000Y-164727333D01*
X238990238Y-164632095D01*
X239085476Y-164584476D01*
X239275952Y-164536857D01*
X239418809Y-164536857D01*
X239609285Y-164584476D01*
X239704523Y-164632095D01*
X239799761Y-164727333D01*
X239847380Y-164870190D01*
X239847380Y-165108285D01*
X238847380Y-164203523D02*
X238847380Y-163536857D01*
X239847380Y-163965428D01*
X238847380Y-162965428D02*
X238847380Y-162870190D01*
X238895000Y-162774952D01*
X238942619Y-162727333D01*
X239037857Y-162679714D01*
X239228333Y-162632095D01*
X239466428Y-162632095D01*
X239656904Y-162679714D01*
X239752142Y-162727333D01*
X239799761Y-162774952D01*
X239847380Y-162870190D01*
X239847380Y-162965428D01*
X239799761Y-163060666D01*
X239752142Y-163108285D01*
X239656904Y-163155904D01*
X239466428Y-163203523D01*
X239228333Y-163203523D01*
X239037857Y-163155904D01*
X238942619Y-163108285D01*
X238895000Y-163060666D01*
X238847380Y-162965428D01*
%TO.C,D69*%
X220797380Y-165108285D02*
X219797380Y-165108285D01*
X219797380Y-164870190D01*
X219845000Y-164727333D01*
X219940238Y-164632095D01*
X220035476Y-164584476D01*
X220225952Y-164536857D01*
X220368809Y-164536857D01*
X220559285Y-164584476D01*
X220654523Y-164632095D01*
X220749761Y-164727333D01*
X220797380Y-164870190D01*
X220797380Y-165108285D01*
X219797380Y-163679714D02*
X219797380Y-163870190D01*
X219845000Y-163965428D01*
X219892619Y-164013047D01*
X220035476Y-164108285D01*
X220225952Y-164155904D01*
X220606904Y-164155904D01*
X220702142Y-164108285D01*
X220749761Y-164060666D01*
X220797380Y-163965428D01*
X220797380Y-163774952D01*
X220749761Y-163679714D01*
X220702142Y-163632095D01*
X220606904Y-163584476D01*
X220368809Y-163584476D01*
X220273571Y-163632095D01*
X220225952Y-163679714D01*
X220178333Y-163774952D01*
X220178333Y-163965428D01*
X220225952Y-164060666D01*
X220273571Y-164108285D01*
X220368809Y-164155904D01*
X220797380Y-163108285D02*
X220797380Y-162917809D01*
X220749761Y-162822571D01*
X220702142Y-162774952D01*
X220559285Y-162679714D01*
X220368809Y-162632095D01*
X219987857Y-162632095D01*
X219892619Y-162679714D01*
X219845000Y-162727333D01*
X219797380Y-162822571D01*
X219797380Y-163013047D01*
X219845000Y-163108285D01*
X219892619Y-163155904D01*
X219987857Y-163203523D01*
X220225952Y-163203523D01*
X220321190Y-163155904D01*
X220368809Y-163108285D01*
X220416428Y-163013047D01*
X220416428Y-162822571D01*
X220368809Y-162727333D01*
X220321190Y-162679714D01*
X220225952Y-162632095D01*
%TO.C,D68*%
X201620380Y-165108285D02*
X200620380Y-165108285D01*
X200620380Y-164870190D01*
X200668000Y-164727333D01*
X200763238Y-164632095D01*
X200858476Y-164584476D01*
X201048952Y-164536857D01*
X201191809Y-164536857D01*
X201382285Y-164584476D01*
X201477523Y-164632095D01*
X201572761Y-164727333D01*
X201620380Y-164870190D01*
X201620380Y-165108285D01*
X200620380Y-163679714D02*
X200620380Y-163870190D01*
X200668000Y-163965428D01*
X200715619Y-164013047D01*
X200858476Y-164108285D01*
X201048952Y-164155904D01*
X201429904Y-164155904D01*
X201525142Y-164108285D01*
X201572761Y-164060666D01*
X201620380Y-163965428D01*
X201620380Y-163774952D01*
X201572761Y-163679714D01*
X201525142Y-163632095D01*
X201429904Y-163584476D01*
X201191809Y-163584476D01*
X201096571Y-163632095D01*
X201048952Y-163679714D01*
X201001333Y-163774952D01*
X201001333Y-163965428D01*
X201048952Y-164060666D01*
X201096571Y-164108285D01*
X201191809Y-164155904D01*
X201048952Y-163013047D02*
X201001333Y-163108285D01*
X200953714Y-163155904D01*
X200858476Y-163203523D01*
X200810857Y-163203523D01*
X200715619Y-163155904D01*
X200668000Y-163108285D01*
X200620380Y-163013047D01*
X200620380Y-162822571D01*
X200668000Y-162727333D01*
X200715619Y-162679714D01*
X200810857Y-162632095D01*
X200858476Y-162632095D01*
X200953714Y-162679714D01*
X201001333Y-162727333D01*
X201048952Y-162822571D01*
X201048952Y-163013047D01*
X201096571Y-163108285D01*
X201144190Y-163155904D01*
X201239428Y-163203523D01*
X201429904Y-163203523D01*
X201525142Y-163155904D01*
X201572761Y-163108285D01*
X201620380Y-163013047D01*
X201620380Y-162822571D01*
X201572761Y-162727333D01*
X201525142Y-162679714D01*
X201429904Y-162632095D01*
X201239428Y-162632095D01*
X201144190Y-162679714D01*
X201096571Y-162727333D01*
X201048952Y-162822571D01*
%TO.C,D67*%
X182570380Y-165108285D02*
X181570380Y-165108285D01*
X181570380Y-164870190D01*
X181618000Y-164727333D01*
X181713238Y-164632095D01*
X181808476Y-164584476D01*
X181998952Y-164536857D01*
X182141809Y-164536857D01*
X182332285Y-164584476D01*
X182427523Y-164632095D01*
X182522761Y-164727333D01*
X182570380Y-164870190D01*
X182570380Y-165108285D01*
X181570380Y-163679714D02*
X181570380Y-163870190D01*
X181618000Y-163965428D01*
X181665619Y-164013047D01*
X181808476Y-164108285D01*
X181998952Y-164155904D01*
X182379904Y-164155904D01*
X182475142Y-164108285D01*
X182522761Y-164060666D01*
X182570380Y-163965428D01*
X182570380Y-163774952D01*
X182522761Y-163679714D01*
X182475142Y-163632095D01*
X182379904Y-163584476D01*
X182141809Y-163584476D01*
X182046571Y-163632095D01*
X181998952Y-163679714D01*
X181951333Y-163774952D01*
X181951333Y-163965428D01*
X181998952Y-164060666D01*
X182046571Y-164108285D01*
X182141809Y-164155904D01*
X181570380Y-163251142D02*
X181570380Y-162584476D01*
X182570380Y-163013047D01*
%TO.C,D66*%
X163393380Y-165108285D02*
X162393380Y-165108285D01*
X162393380Y-164870190D01*
X162441000Y-164727333D01*
X162536238Y-164632095D01*
X162631476Y-164584476D01*
X162821952Y-164536857D01*
X162964809Y-164536857D01*
X163155285Y-164584476D01*
X163250523Y-164632095D01*
X163345761Y-164727333D01*
X163393380Y-164870190D01*
X163393380Y-165108285D01*
X162393380Y-163679714D02*
X162393380Y-163870190D01*
X162441000Y-163965428D01*
X162488619Y-164013047D01*
X162631476Y-164108285D01*
X162821952Y-164155904D01*
X163202904Y-164155904D01*
X163298142Y-164108285D01*
X163345761Y-164060666D01*
X163393380Y-163965428D01*
X163393380Y-163774952D01*
X163345761Y-163679714D01*
X163298142Y-163632095D01*
X163202904Y-163584476D01*
X162964809Y-163584476D01*
X162869571Y-163632095D01*
X162821952Y-163679714D01*
X162774333Y-163774952D01*
X162774333Y-163965428D01*
X162821952Y-164060666D01*
X162869571Y-164108285D01*
X162964809Y-164155904D01*
X162393380Y-162727333D02*
X162393380Y-162917809D01*
X162441000Y-163013047D01*
X162488619Y-163060666D01*
X162631476Y-163155904D01*
X162821952Y-163203523D01*
X163202904Y-163203523D01*
X163298142Y-163155904D01*
X163345761Y-163108285D01*
X163393380Y-163013047D01*
X163393380Y-162822571D01*
X163345761Y-162727333D01*
X163298142Y-162679714D01*
X163202904Y-162632095D01*
X162964809Y-162632095D01*
X162869571Y-162679714D01*
X162821952Y-162727333D01*
X162774333Y-162822571D01*
X162774333Y-163013047D01*
X162821952Y-163108285D01*
X162869571Y-163155904D01*
X162964809Y-163203523D01*
%TO.C,D65*%
X144216380Y-165108285D02*
X143216380Y-165108285D01*
X143216380Y-164870190D01*
X143264000Y-164727333D01*
X143359238Y-164632095D01*
X143454476Y-164584476D01*
X143644952Y-164536857D01*
X143787809Y-164536857D01*
X143978285Y-164584476D01*
X144073523Y-164632095D01*
X144168761Y-164727333D01*
X144216380Y-164870190D01*
X144216380Y-165108285D01*
X143216380Y-163679714D02*
X143216380Y-163870190D01*
X143264000Y-163965428D01*
X143311619Y-164013047D01*
X143454476Y-164108285D01*
X143644952Y-164155904D01*
X144025904Y-164155904D01*
X144121142Y-164108285D01*
X144168761Y-164060666D01*
X144216380Y-163965428D01*
X144216380Y-163774952D01*
X144168761Y-163679714D01*
X144121142Y-163632095D01*
X144025904Y-163584476D01*
X143787809Y-163584476D01*
X143692571Y-163632095D01*
X143644952Y-163679714D01*
X143597333Y-163774952D01*
X143597333Y-163965428D01*
X143644952Y-164060666D01*
X143692571Y-164108285D01*
X143787809Y-164155904D01*
X143216380Y-162679714D02*
X143216380Y-163155904D01*
X143692571Y-163203523D01*
X143644952Y-163155904D01*
X143597333Y-163060666D01*
X143597333Y-162822571D01*
X143644952Y-162727333D01*
X143692571Y-162679714D01*
X143787809Y-162632095D01*
X144025904Y-162632095D01*
X144121142Y-162679714D01*
X144168761Y-162727333D01*
X144216380Y-162822571D01*
X144216380Y-163060666D01*
X144168761Y-163155904D01*
X144121142Y-163203523D01*
%TO.C,D64*%
X125166380Y-165108285D02*
X124166380Y-165108285D01*
X124166380Y-164870190D01*
X124214000Y-164727333D01*
X124309238Y-164632095D01*
X124404476Y-164584476D01*
X124594952Y-164536857D01*
X124737809Y-164536857D01*
X124928285Y-164584476D01*
X125023523Y-164632095D01*
X125118761Y-164727333D01*
X125166380Y-164870190D01*
X125166380Y-165108285D01*
X124166380Y-163679714D02*
X124166380Y-163870190D01*
X124214000Y-163965428D01*
X124261619Y-164013047D01*
X124404476Y-164108285D01*
X124594952Y-164155904D01*
X124975904Y-164155904D01*
X125071142Y-164108285D01*
X125118761Y-164060666D01*
X125166380Y-163965428D01*
X125166380Y-163774952D01*
X125118761Y-163679714D01*
X125071142Y-163632095D01*
X124975904Y-163584476D01*
X124737809Y-163584476D01*
X124642571Y-163632095D01*
X124594952Y-163679714D01*
X124547333Y-163774952D01*
X124547333Y-163965428D01*
X124594952Y-164060666D01*
X124642571Y-164108285D01*
X124737809Y-164155904D01*
X124499714Y-162727333D02*
X125166380Y-162727333D01*
X124118761Y-162965428D02*
X124833047Y-163203523D01*
X124833047Y-162584476D01*
%TO.C,D63*%
X106116380Y-165108285D02*
X105116380Y-165108285D01*
X105116380Y-164870190D01*
X105164000Y-164727333D01*
X105259238Y-164632095D01*
X105354476Y-164584476D01*
X105544952Y-164536857D01*
X105687809Y-164536857D01*
X105878285Y-164584476D01*
X105973523Y-164632095D01*
X106068761Y-164727333D01*
X106116380Y-164870190D01*
X106116380Y-165108285D01*
X105116380Y-163679714D02*
X105116380Y-163870190D01*
X105164000Y-163965428D01*
X105211619Y-164013047D01*
X105354476Y-164108285D01*
X105544952Y-164155904D01*
X105925904Y-164155904D01*
X106021142Y-164108285D01*
X106068761Y-164060666D01*
X106116380Y-163965428D01*
X106116380Y-163774952D01*
X106068761Y-163679714D01*
X106021142Y-163632095D01*
X105925904Y-163584476D01*
X105687809Y-163584476D01*
X105592571Y-163632095D01*
X105544952Y-163679714D01*
X105497333Y-163774952D01*
X105497333Y-163965428D01*
X105544952Y-164060666D01*
X105592571Y-164108285D01*
X105687809Y-164155904D01*
X105116380Y-163251142D02*
X105116380Y-162632095D01*
X105497333Y-162965428D01*
X105497333Y-162822571D01*
X105544952Y-162727333D01*
X105592571Y-162679714D01*
X105687809Y-162632095D01*
X105925904Y-162632095D01*
X106021142Y-162679714D01*
X106068761Y-162727333D01*
X106116380Y-162822571D01*
X106116380Y-163108285D01*
X106068761Y-163203523D01*
X106021142Y-163251142D01*
%TO.C,D62*%
X86939380Y-165108285D02*
X85939380Y-165108285D01*
X85939380Y-164870190D01*
X85987000Y-164727333D01*
X86082238Y-164632095D01*
X86177476Y-164584476D01*
X86367952Y-164536857D01*
X86510809Y-164536857D01*
X86701285Y-164584476D01*
X86796523Y-164632095D01*
X86891761Y-164727333D01*
X86939380Y-164870190D01*
X86939380Y-165108285D01*
X85939380Y-163679714D02*
X85939380Y-163870190D01*
X85987000Y-163965428D01*
X86034619Y-164013047D01*
X86177476Y-164108285D01*
X86367952Y-164155904D01*
X86748904Y-164155904D01*
X86844142Y-164108285D01*
X86891761Y-164060666D01*
X86939380Y-163965428D01*
X86939380Y-163774952D01*
X86891761Y-163679714D01*
X86844142Y-163632095D01*
X86748904Y-163584476D01*
X86510809Y-163584476D01*
X86415571Y-163632095D01*
X86367952Y-163679714D01*
X86320333Y-163774952D01*
X86320333Y-163965428D01*
X86367952Y-164060666D01*
X86415571Y-164108285D01*
X86510809Y-164155904D01*
X86034619Y-163203523D02*
X85987000Y-163155904D01*
X85939380Y-163060666D01*
X85939380Y-162822571D01*
X85987000Y-162727333D01*
X86034619Y-162679714D01*
X86129857Y-162632095D01*
X86225095Y-162632095D01*
X86367952Y-162679714D01*
X86939380Y-163251142D01*
X86939380Y-162632095D01*
%TO.C,D61*%
X67889380Y-165108285D02*
X66889380Y-165108285D01*
X66889380Y-164870190D01*
X66937000Y-164727333D01*
X67032238Y-164632095D01*
X67127476Y-164584476D01*
X67317952Y-164536857D01*
X67460809Y-164536857D01*
X67651285Y-164584476D01*
X67746523Y-164632095D01*
X67841761Y-164727333D01*
X67889380Y-164870190D01*
X67889380Y-165108285D01*
X66889380Y-163679714D02*
X66889380Y-163870190D01*
X66937000Y-163965428D01*
X66984619Y-164013047D01*
X67127476Y-164108285D01*
X67317952Y-164155904D01*
X67698904Y-164155904D01*
X67794142Y-164108285D01*
X67841761Y-164060666D01*
X67889380Y-163965428D01*
X67889380Y-163774952D01*
X67841761Y-163679714D01*
X67794142Y-163632095D01*
X67698904Y-163584476D01*
X67460809Y-163584476D01*
X67365571Y-163632095D01*
X67317952Y-163679714D01*
X67270333Y-163774952D01*
X67270333Y-163965428D01*
X67317952Y-164060666D01*
X67365571Y-164108285D01*
X67460809Y-164155904D01*
X67889380Y-162632095D02*
X67889380Y-163203523D01*
X67889380Y-162917809D02*
X66889380Y-162917809D01*
X67032238Y-163013047D01*
X67127476Y-163108285D01*
X67175095Y-163203523D01*
%TO.C,D60*%
X47442380Y-165108285D02*
X46442380Y-165108285D01*
X46442380Y-164870190D01*
X46490000Y-164727333D01*
X46585238Y-164632095D01*
X46680476Y-164584476D01*
X46870952Y-164536857D01*
X47013809Y-164536857D01*
X47204285Y-164584476D01*
X47299523Y-164632095D01*
X47394761Y-164727333D01*
X47442380Y-164870190D01*
X47442380Y-165108285D01*
X46442380Y-163679714D02*
X46442380Y-163870190D01*
X46490000Y-163965428D01*
X46537619Y-164013047D01*
X46680476Y-164108285D01*
X46870952Y-164155904D01*
X47251904Y-164155904D01*
X47347142Y-164108285D01*
X47394761Y-164060666D01*
X47442380Y-163965428D01*
X47442380Y-163774952D01*
X47394761Y-163679714D01*
X47347142Y-163632095D01*
X47251904Y-163584476D01*
X47013809Y-163584476D01*
X46918571Y-163632095D01*
X46870952Y-163679714D01*
X46823333Y-163774952D01*
X46823333Y-163965428D01*
X46870952Y-164060666D01*
X46918571Y-164108285D01*
X47013809Y-164155904D01*
X46442380Y-162965428D02*
X46442380Y-162870190D01*
X46490000Y-162774952D01*
X46537619Y-162727333D01*
X46632857Y-162679714D01*
X46823333Y-162632095D01*
X47061428Y-162632095D01*
X47251904Y-162679714D01*
X47347142Y-162727333D01*
X47394761Y-162774952D01*
X47442380Y-162870190D01*
X47442380Y-162965428D01*
X47394761Y-163060666D01*
X47347142Y-163108285D01*
X47251904Y-163155904D01*
X47061428Y-163203523D01*
X46823333Y-163203523D01*
X46632857Y-163155904D01*
X46537619Y-163108285D01*
X46490000Y-163060666D01*
X46442380Y-162965428D01*
%TO.C,D59*%
X386151380Y-145931285D02*
X385151380Y-145931285D01*
X385151380Y-145693190D01*
X385199000Y-145550333D01*
X385294238Y-145455095D01*
X385389476Y-145407476D01*
X385579952Y-145359857D01*
X385722809Y-145359857D01*
X385913285Y-145407476D01*
X386008523Y-145455095D01*
X386103761Y-145550333D01*
X386151380Y-145693190D01*
X386151380Y-145931285D01*
X385151380Y-144455095D02*
X385151380Y-144931285D01*
X385627571Y-144978904D01*
X385579952Y-144931285D01*
X385532333Y-144836047D01*
X385532333Y-144597952D01*
X385579952Y-144502714D01*
X385627571Y-144455095D01*
X385722809Y-144407476D01*
X385960904Y-144407476D01*
X386056142Y-144455095D01*
X386103761Y-144502714D01*
X386151380Y-144597952D01*
X386151380Y-144836047D01*
X386103761Y-144931285D01*
X386056142Y-144978904D01*
X386151380Y-143931285D02*
X386151380Y-143740809D01*
X386103761Y-143645571D01*
X386056142Y-143597952D01*
X385913285Y-143502714D01*
X385722809Y-143455095D01*
X385341857Y-143455095D01*
X385246619Y-143502714D01*
X385199000Y-143550333D01*
X385151380Y-143645571D01*
X385151380Y-143836047D01*
X385199000Y-143931285D01*
X385246619Y-143978904D01*
X385341857Y-144026523D01*
X385579952Y-144026523D01*
X385675190Y-143978904D01*
X385722809Y-143931285D01*
X385770428Y-143836047D01*
X385770428Y-143645571D01*
X385722809Y-143550333D01*
X385675190Y-143502714D01*
X385579952Y-143455095D01*
%TO.C,D58*%
X367101380Y-145931285D02*
X366101380Y-145931285D01*
X366101380Y-145693190D01*
X366149000Y-145550333D01*
X366244238Y-145455095D01*
X366339476Y-145407476D01*
X366529952Y-145359857D01*
X366672809Y-145359857D01*
X366863285Y-145407476D01*
X366958523Y-145455095D01*
X367053761Y-145550333D01*
X367101380Y-145693190D01*
X367101380Y-145931285D01*
X366101380Y-144455095D02*
X366101380Y-144931285D01*
X366577571Y-144978904D01*
X366529952Y-144931285D01*
X366482333Y-144836047D01*
X366482333Y-144597952D01*
X366529952Y-144502714D01*
X366577571Y-144455095D01*
X366672809Y-144407476D01*
X366910904Y-144407476D01*
X367006142Y-144455095D01*
X367053761Y-144502714D01*
X367101380Y-144597952D01*
X367101380Y-144836047D01*
X367053761Y-144931285D01*
X367006142Y-144978904D01*
X366529952Y-143836047D02*
X366482333Y-143931285D01*
X366434714Y-143978904D01*
X366339476Y-144026523D01*
X366291857Y-144026523D01*
X366196619Y-143978904D01*
X366149000Y-143931285D01*
X366101380Y-143836047D01*
X366101380Y-143645571D01*
X366149000Y-143550333D01*
X366196619Y-143502714D01*
X366291857Y-143455095D01*
X366339476Y-143455095D01*
X366434714Y-143502714D01*
X366482333Y-143550333D01*
X366529952Y-143645571D01*
X366529952Y-143836047D01*
X366577571Y-143931285D01*
X366625190Y-143978904D01*
X366720428Y-144026523D01*
X366910904Y-144026523D01*
X367006142Y-143978904D01*
X367053761Y-143931285D01*
X367101380Y-143836047D01*
X367101380Y-143645571D01*
X367053761Y-143550333D01*
X367006142Y-143502714D01*
X366910904Y-143455095D01*
X366720428Y-143455095D01*
X366625190Y-143502714D01*
X366577571Y-143550333D01*
X366529952Y-143645571D01*
%TO.C,D57*%
X347924380Y-145931285D02*
X346924380Y-145931285D01*
X346924380Y-145693190D01*
X346972000Y-145550333D01*
X347067238Y-145455095D01*
X347162476Y-145407476D01*
X347352952Y-145359857D01*
X347495809Y-145359857D01*
X347686285Y-145407476D01*
X347781523Y-145455095D01*
X347876761Y-145550333D01*
X347924380Y-145693190D01*
X347924380Y-145931285D01*
X346924380Y-144455095D02*
X346924380Y-144931285D01*
X347400571Y-144978904D01*
X347352952Y-144931285D01*
X347305333Y-144836047D01*
X347305333Y-144597952D01*
X347352952Y-144502714D01*
X347400571Y-144455095D01*
X347495809Y-144407476D01*
X347733904Y-144407476D01*
X347829142Y-144455095D01*
X347876761Y-144502714D01*
X347924380Y-144597952D01*
X347924380Y-144836047D01*
X347876761Y-144931285D01*
X347829142Y-144978904D01*
X346924380Y-144074142D02*
X346924380Y-143407476D01*
X347924380Y-143836047D01*
%TO.C,D56*%
X328747380Y-145931285D02*
X327747380Y-145931285D01*
X327747380Y-145693190D01*
X327795000Y-145550333D01*
X327890238Y-145455095D01*
X327985476Y-145407476D01*
X328175952Y-145359857D01*
X328318809Y-145359857D01*
X328509285Y-145407476D01*
X328604523Y-145455095D01*
X328699761Y-145550333D01*
X328747380Y-145693190D01*
X328747380Y-145931285D01*
X327747380Y-144455095D02*
X327747380Y-144931285D01*
X328223571Y-144978904D01*
X328175952Y-144931285D01*
X328128333Y-144836047D01*
X328128333Y-144597952D01*
X328175952Y-144502714D01*
X328223571Y-144455095D01*
X328318809Y-144407476D01*
X328556904Y-144407476D01*
X328652142Y-144455095D01*
X328699761Y-144502714D01*
X328747380Y-144597952D01*
X328747380Y-144836047D01*
X328699761Y-144931285D01*
X328652142Y-144978904D01*
X327747380Y-143550333D02*
X327747380Y-143740809D01*
X327795000Y-143836047D01*
X327842619Y-143883666D01*
X327985476Y-143978904D01*
X328175952Y-144026523D01*
X328556904Y-144026523D01*
X328652142Y-143978904D01*
X328699761Y-143931285D01*
X328747380Y-143836047D01*
X328747380Y-143645571D01*
X328699761Y-143550333D01*
X328652142Y-143502714D01*
X328556904Y-143455095D01*
X328318809Y-143455095D01*
X328223571Y-143502714D01*
X328175952Y-143550333D01*
X328128333Y-143645571D01*
X328128333Y-143836047D01*
X328175952Y-143931285D01*
X328223571Y-143978904D01*
X328318809Y-144026523D01*
%TO.C,D55*%
X316174380Y-145931285D02*
X315174380Y-145931285D01*
X315174380Y-145693190D01*
X315222000Y-145550333D01*
X315317238Y-145455095D01*
X315412476Y-145407476D01*
X315602952Y-145359857D01*
X315745809Y-145359857D01*
X315936285Y-145407476D01*
X316031523Y-145455095D01*
X316126761Y-145550333D01*
X316174380Y-145693190D01*
X316174380Y-145931285D01*
X315174380Y-144455095D02*
X315174380Y-144931285D01*
X315650571Y-144978904D01*
X315602952Y-144931285D01*
X315555333Y-144836047D01*
X315555333Y-144597952D01*
X315602952Y-144502714D01*
X315650571Y-144455095D01*
X315745809Y-144407476D01*
X315983904Y-144407476D01*
X316079142Y-144455095D01*
X316126761Y-144502714D01*
X316174380Y-144597952D01*
X316174380Y-144836047D01*
X316126761Y-144931285D01*
X316079142Y-144978904D01*
X315174380Y-143502714D02*
X315174380Y-143978904D01*
X315650571Y-144026523D01*
X315602952Y-143978904D01*
X315555333Y-143883666D01*
X315555333Y-143645571D01*
X315602952Y-143550333D01*
X315650571Y-143502714D01*
X315745809Y-143455095D01*
X315983904Y-143455095D01*
X316079142Y-143502714D01*
X316126761Y-143550333D01*
X316174380Y-143645571D01*
X316174380Y-143883666D01*
X316126761Y-143978904D01*
X316079142Y-144026523D01*
%TO.C,D54*%
X292171380Y-145931285D02*
X291171380Y-145931285D01*
X291171380Y-145693190D01*
X291219000Y-145550333D01*
X291314238Y-145455095D01*
X291409476Y-145407476D01*
X291599952Y-145359857D01*
X291742809Y-145359857D01*
X291933285Y-145407476D01*
X292028523Y-145455095D01*
X292123761Y-145550333D01*
X292171380Y-145693190D01*
X292171380Y-145931285D01*
X291171380Y-144455095D02*
X291171380Y-144931285D01*
X291647571Y-144978904D01*
X291599952Y-144931285D01*
X291552333Y-144836047D01*
X291552333Y-144597952D01*
X291599952Y-144502714D01*
X291647571Y-144455095D01*
X291742809Y-144407476D01*
X291980904Y-144407476D01*
X292076142Y-144455095D01*
X292123761Y-144502714D01*
X292171380Y-144597952D01*
X292171380Y-144836047D01*
X292123761Y-144931285D01*
X292076142Y-144978904D01*
X291504714Y-143550333D02*
X292171380Y-143550333D01*
X291123761Y-143788428D02*
X291838047Y-144026523D01*
X291838047Y-143407476D01*
%TO.C,D53*%
X272994380Y-145931285D02*
X271994380Y-145931285D01*
X271994380Y-145693190D01*
X272042000Y-145550333D01*
X272137238Y-145455095D01*
X272232476Y-145407476D01*
X272422952Y-145359857D01*
X272565809Y-145359857D01*
X272756285Y-145407476D01*
X272851523Y-145455095D01*
X272946761Y-145550333D01*
X272994380Y-145693190D01*
X272994380Y-145931285D01*
X271994380Y-144455095D02*
X271994380Y-144931285D01*
X272470571Y-144978904D01*
X272422952Y-144931285D01*
X272375333Y-144836047D01*
X272375333Y-144597952D01*
X272422952Y-144502714D01*
X272470571Y-144455095D01*
X272565809Y-144407476D01*
X272803904Y-144407476D01*
X272899142Y-144455095D01*
X272946761Y-144502714D01*
X272994380Y-144597952D01*
X272994380Y-144836047D01*
X272946761Y-144931285D01*
X272899142Y-144978904D01*
X271994380Y-144074142D02*
X271994380Y-143455095D01*
X272375333Y-143788428D01*
X272375333Y-143645571D01*
X272422952Y-143550333D01*
X272470571Y-143502714D01*
X272565809Y-143455095D01*
X272803904Y-143455095D01*
X272899142Y-143502714D01*
X272946761Y-143550333D01*
X272994380Y-143645571D01*
X272994380Y-143931285D01*
X272946761Y-144026523D01*
X272899142Y-144074142D01*
%TO.C,D52*%
X253944380Y-145931285D02*
X252944380Y-145931285D01*
X252944380Y-145693190D01*
X252992000Y-145550333D01*
X253087238Y-145455095D01*
X253182476Y-145407476D01*
X253372952Y-145359857D01*
X253515809Y-145359857D01*
X253706285Y-145407476D01*
X253801523Y-145455095D01*
X253896761Y-145550333D01*
X253944380Y-145693190D01*
X253944380Y-145931285D01*
X252944380Y-144455095D02*
X252944380Y-144931285D01*
X253420571Y-144978904D01*
X253372952Y-144931285D01*
X253325333Y-144836047D01*
X253325333Y-144597952D01*
X253372952Y-144502714D01*
X253420571Y-144455095D01*
X253515809Y-144407476D01*
X253753904Y-144407476D01*
X253849142Y-144455095D01*
X253896761Y-144502714D01*
X253944380Y-144597952D01*
X253944380Y-144836047D01*
X253896761Y-144931285D01*
X253849142Y-144978904D01*
X253039619Y-144026523D02*
X252992000Y-143978904D01*
X252944380Y-143883666D01*
X252944380Y-143645571D01*
X252992000Y-143550333D01*
X253039619Y-143502714D01*
X253134857Y-143455095D01*
X253230095Y-143455095D01*
X253372952Y-143502714D01*
X253944380Y-144074142D01*
X253944380Y-143455095D01*
%TO.C,D51*%
X234767380Y-145931285D02*
X233767380Y-145931285D01*
X233767380Y-145693190D01*
X233815000Y-145550333D01*
X233910238Y-145455095D01*
X234005476Y-145407476D01*
X234195952Y-145359857D01*
X234338809Y-145359857D01*
X234529285Y-145407476D01*
X234624523Y-145455095D01*
X234719761Y-145550333D01*
X234767380Y-145693190D01*
X234767380Y-145931285D01*
X233767380Y-144455095D02*
X233767380Y-144931285D01*
X234243571Y-144978904D01*
X234195952Y-144931285D01*
X234148333Y-144836047D01*
X234148333Y-144597952D01*
X234195952Y-144502714D01*
X234243571Y-144455095D01*
X234338809Y-144407476D01*
X234576904Y-144407476D01*
X234672142Y-144455095D01*
X234719761Y-144502714D01*
X234767380Y-144597952D01*
X234767380Y-144836047D01*
X234719761Y-144931285D01*
X234672142Y-144978904D01*
X234767380Y-143455095D02*
X234767380Y-144026523D01*
X234767380Y-143740809D02*
X233767380Y-143740809D01*
X233910238Y-143836047D01*
X234005476Y-143931285D01*
X234053095Y-144026523D01*
%TO.C,D50*%
X215590380Y-145931285D02*
X214590380Y-145931285D01*
X214590380Y-145693190D01*
X214638000Y-145550333D01*
X214733238Y-145455095D01*
X214828476Y-145407476D01*
X215018952Y-145359857D01*
X215161809Y-145359857D01*
X215352285Y-145407476D01*
X215447523Y-145455095D01*
X215542761Y-145550333D01*
X215590380Y-145693190D01*
X215590380Y-145931285D01*
X214590380Y-144455095D02*
X214590380Y-144931285D01*
X215066571Y-144978904D01*
X215018952Y-144931285D01*
X214971333Y-144836047D01*
X214971333Y-144597952D01*
X215018952Y-144502714D01*
X215066571Y-144455095D01*
X215161809Y-144407476D01*
X215399904Y-144407476D01*
X215495142Y-144455095D01*
X215542761Y-144502714D01*
X215590380Y-144597952D01*
X215590380Y-144836047D01*
X215542761Y-144931285D01*
X215495142Y-144978904D01*
X214590380Y-143788428D02*
X214590380Y-143693190D01*
X214638000Y-143597952D01*
X214685619Y-143550333D01*
X214780857Y-143502714D01*
X214971333Y-143455095D01*
X215209428Y-143455095D01*
X215399904Y-143502714D01*
X215495142Y-143550333D01*
X215542761Y-143597952D01*
X215590380Y-143693190D01*
X215590380Y-143788428D01*
X215542761Y-143883666D01*
X215495142Y-143931285D01*
X215399904Y-143978904D01*
X215209428Y-144026523D01*
X214971333Y-144026523D01*
X214780857Y-143978904D01*
X214685619Y-143931285D01*
X214638000Y-143883666D01*
X214590380Y-143788428D01*
%TO.C,D49*%
X196540380Y-145931285D02*
X195540380Y-145931285D01*
X195540380Y-145693190D01*
X195588000Y-145550333D01*
X195683238Y-145455095D01*
X195778476Y-145407476D01*
X195968952Y-145359857D01*
X196111809Y-145359857D01*
X196302285Y-145407476D01*
X196397523Y-145455095D01*
X196492761Y-145550333D01*
X196540380Y-145693190D01*
X196540380Y-145931285D01*
X195873714Y-144502714D02*
X196540380Y-144502714D01*
X195492761Y-144740809D02*
X196207047Y-144978904D01*
X196207047Y-144359857D01*
X196540380Y-143931285D02*
X196540380Y-143740809D01*
X196492761Y-143645571D01*
X196445142Y-143597952D01*
X196302285Y-143502714D01*
X196111809Y-143455095D01*
X195730857Y-143455095D01*
X195635619Y-143502714D01*
X195588000Y-143550333D01*
X195540380Y-143645571D01*
X195540380Y-143836047D01*
X195588000Y-143931285D01*
X195635619Y-143978904D01*
X195730857Y-144026523D01*
X195968952Y-144026523D01*
X196064190Y-143978904D01*
X196111809Y-143931285D01*
X196159428Y-143836047D01*
X196159428Y-143645571D01*
X196111809Y-143550333D01*
X196064190Y-143502714D01*
X195968952Y-143455095D01*
%TO.C,D48*%
X177490380Y-145931285D02*
X176490380Y-145931285D01*
X176490380Y-145693190D01*
X176538000Y-145550333D01*
X176633238Y-145455095D01*
X176728476Y-145407476D01*
X176918952Y-145359857D01*
X177061809Y-145359857D01*
X177252285Y-145407476D01*
X177347523Y-145455095D01*
X177442761Y-145550333D01*
X177490380Y-145693190D01*
X177490380Y-145931285D01*
X176823714Y-144502714D02*
X177490380Y-144502714D01*
X176442761Y-144740809D02*
X177157047Y-144978904D01*
X177157047Y-144359857D01*
X176918952Y-143836047D02*
X176871333Y-143931285D01*
X176823714Y-143978904D01*
X176728476Y-144026523D01*
X176680857Y-144026523D01*
X176585619Y-143978904D01*
X176538000Y-143931285D01*
X176490380Y-143836047D01*
X176490380Y-143645571D01*
X176538000Y-143550333D01*
X176585619Y-143502714D01*
X176680857Y-143455095D01*
X176728476Y-143455095D01*
X176823714Y-143502714D01*
X176871333Y-143550333D01*
X176918952Y-143645571D01*
X176918952Y-143836047D01*
X176966571Y-143931285D01*
X177014190Y-143978904D01*
X177109428Y-144026523D01*
X177299904Y-144026523D01*
X177395142Y-143978904D01*
X177442761Y-143931285D01*
X177490380Y-143836047D01*
X177490380Y-143645571D01*
X177442761Y-143550333D01*
X177395142Y-143502714D01*
X177299904Y-143455095D01*
X177109428Y-143455095D01*
X177014190Y-143502714D01*
X176966571Y-143550333D01*
X176918952Y-143645571D01*
%TO.C,D47*%
X158313380Y-145931285D02*
X157313380Y-145931285D01*
X157313380Y-145693190D01*
X157361000Y-145550333D01*
X157456238Y-145455095D01*
X157551476Y-145407476D01*
X157741952Y-145359857D01*
X157884809Y-145359857D01*
X158075285Y-145407476D01*
X158170523Y-145455095D01*
X158265761Y-145550333D01*
X158313380Y-145693190D01*
X158313380Y-145931285D01*
X157646714Y-144502714D02*
X158313380Y-144502714D01*
X157265761Y-144740809D02*
X157980047Y-144978904D01*
X157980047Y-144359857D01*
X157313380Y-144074142D02*
X157313380Y-143407476D01*
X158313380Y-143836047D01*
%TO.C,D46*%
X139263380Y-145931285D02*
X138263380Y-145931285D01*
X138263380Y-145693190D01*
X138311000Y-145550333D01*
X138406238Y-145455095D01*
X138501476Y-145407476D01*
X138691952Y-145359857D01*
X138834809Y-145359857D01*
X139025285Y-145407476D01*
X139120523Y-145455095D01*
X139215761Y-145550333D01*
X139263380Y-145693190D01*
X139263380Y-145931285D01*
X138596714Y-144502714D02*
X139263380Y-144502714D01*
X138215761Y-144740809D02*
X138930047Y-144978904D01*
X138930047Y-144359857D01*
X138263380Y-143550333D02*
X138263380Y-143740809D01*
X138311000Y-143836047D01*
X138358619Y-143883666D01*
X138501476Y-143978904D01*
X138691952Y-144026523D01*
X139072904Y-144026523D01*
X139168142Y-143978904D01*
X139215761Y-143931285D01*
X139263380Y-143836047D01*
X139263380Y-143645571D01*
X139215761Y-143550333D01*
X139168142Y-143502714D01*
X139072904Y-143455095D01*
X138834809Y-143455095D01*
X138739571Y-143502714D01*
X138691952Y-143550333D01*
X138644333Y-143645571D01*
X138644333Y-143836047D01*
X138691952Y-143931285D01*
X138739571Y-143978904D01*
X138834809Y-144026523D01*
%TO.C,D45*%
X120086380Y-145931285D02*
X119086380Y-145931285D01*
X119086380Y-145693190D01*
X119134000Y-145550333D01*
X119229238Y-145455095D01*
X119324476Y-145407476D01*
X119514952Y-145359857D01*
X119657809Y-145359857D01*
X119848285Y-145407476D01*
X119943523Y-145455095D01*
X120038761Y-145550333D01*
X120086380Y-145693190D01*
X120086380Y-145931285D01*
X119419714Y-144502714D02*
X120086380Y-144502714D01*
X119038761Y-144740809D02*
X119753047Y-144978904D01*
X119753047Y-144359857D01*
X119086380Y-143502714D02*
X119086380Y-143978904D01*
X119562571Y-144026523D01*
X119514952Y-143978904D01*
X119467333Y-143883666D01*
X119467333Y-143645571D01*
X119514952Y-143550333D01*
X119562571Y-143502714D01*
X119657809Y-143455095D01*
X119895904Y-143455095D01*
X119991142Y-143502714D01*
X120038761Y-143550333D01*
X120086380Y-143645571D01*
X120086380Y-143883666D01*
X120038761Y-143978904D01*
X119991142Y-144026523D01*
%TO.C,D44*%
X101036380Y-145931285D02*
X100036380Y-145931285D01*
X100036380Y-145693190D01*
X100084000Y-145550333D01*
X100179238Y-145455095D01*
X100274476Y-145407476D01*
X100464952Y-145359857D01*
X100607809Y-145359857D01*
X100798285Y-145407476D01*
X100893523Y-145455095D01*
X100988761Y-145550333D01*
X101036380Y-145693190D01*
X101036380Y-145931285D01*
X100369714Y-144502714D02*
X101036380Y-144502714D01*
X99988761Y-144740809D02*
X100703047Y-144978904D01*
X100703047Y-144359857D01*
X100369714Y-143550333D02*
X101036380Y-143550333D01*
X99988761Y-143788428D02*
X100703047Y-144026523D01*
X100703047Y-143407476D01*
%TO.C,D43*%
X81986380Y-145931285D02*
X80986380Y-145931285D01*
X80986380Y-145693190D01*
X81034000Y-145550333D01*
X81129238Y-145455095D01*
X81224476Y-145407476D01*
X81414952Y-145359857D01*
X81557809Y-145359857D01*
X81748285Y-145407476D01*
X81843523Y-145455095D01*
X81938761Y-145550333D01*
X81986380Y-145693190D01*
X81986380Y-145931285D01*
X81319714Y-144502714D02*
X81986380Y-144502714D01*
X80938761Y-144740809D02*
X81653047Y-144978904D01*
X81653047Y-144359857D01*
X80986380Y-144074142D02*
X80986380Y-143455095D01*
X81367333Y-143788428D01*
X81367333Y-143645571D01*
X81414952Y-143550333D01*
X81462571Y-143502714D01*
X81557809Y-143455095D01*
X81795904Y-143455095D01*
X81891142Y-143502714D01*
X81938761Y-143550333D01*
X81986380Y-143645571D01*
X81986380Y-143931285D01*
X81938761Y-144026523D01*
X81891142Y-144074142D01*
%TO.C,D42*%
X62936380Y-145931285D02*
X61936380Y-145931285D01*
X61936380Y-145693190D01*
X61984000Y-145550333D01*
X62079238Y-145455095D01*
X62174476Y-145407476D01*
X62364952Y-145359857D01*
X62507809Y-145359857D01*
X62698285Y-145407476D01*
X62793523Y-145455095D01*
X62888761Y-145550333D01*
X62936380Y-145693190D01*
X62936380Y-145931285D01*
X62269714Y-144502714D02*
X62936380Y-144502714D01*
X61888761Y-144740809D02*
X62603047Y-144978904D01*
X62603047Y-144359857D01*
X62031619Y-144026523D02*
X61984000Y-143978904D01*
X61936380Y-143883666D01*
X61936380Y-143645571D01*
X61984000Y-143550333D01*
X62031619Y-143502714D01*
X62126857Y-143455095D01*
X62222095Y-143455095D01*
X62364952Y-143502714D01*
X62936380Y-144074142D01*
X62936380Y-143455095D01*
%TO.C,D41*%
X42489380Y-145931285D02*
X41489380Y-145931285D01*
X41489380Y-145693190D01*
X41537000Y-145550333D01*
X41632238Y-145455095D01*
X41727476Y-145407476D01*
X41917952Y-145359857D01*
X42060809Y-145359857D01*
X42251285Y-145407476D01*
X42346523Y-145455095D01*
X42441761Y-145550333D01*
X42489380Y-145693190D01*
X42489380Y-145931285D01*
X41822714Y-144502714D02*
X42489380Y-144502714D01*
X41441761Y-144740809D02*
X42156047Y-144978904D01*
X42156047Y-144359857D01*
X42489380Y-143455095D02*
X42489380Y-144026523D01*
X42489380Y-143740809D02*
X41489380Y-143740809D01*
X41632238Y-143836047D01*
X41727476Y-143931285D01*
X41775095Y-144026523D01*
%TO.C,D40*%
X386151380Y-127262285D02*
X385151380Y-127262285D01*
X385151380Y-127024190D01*
X385199000Y-126881333D01*
X385294238Y-126786095D01*
X385389476Y-126738476D01*
X385579952Y-126690857D01*
X385722809Y-126690857D01*
X385913285Y-126738476D01*
X386008523Y-126786095D01*
X386103761Y-126881333D01*
X386151380Y-127024190D01*
X386151380Y-127262285D01*
X385484714Y-125833714D02*
X386151380Y-125833714D01*
X385103761Y-126071809D02*
X385818047Y-126309904D01*
X385818047Y-125690857D01*
X385151380Y-125119428D02*
X385151380Y-125024190D01*
X385199000Y-124928952D01*
X385246619Y-124881333D01*
X385341857Y-124833714D01*
X385532333Y-124786095D01*
X385770428Y-124786095D01*
X385960904Y-124833714D01*
X386056142Y-124881333D01*
X386103761Y-124928952D01*
X386151380Y-125024190D01*
X386151380Y-125119428D01*
X386103761Y-125214666D01*
X386056142Y-125262285D01*
X385960904Y-125309904D01*
X385770428Y-125357523D01*
X385532333Y-125357523D01*
X385341857Y-125309904D01*
X385246619Y-125262285D01*
X385199000Y-125214666D01*
X385151380Y-125119428D01*
%TO.C,D39*%
X366974380Y-127262285D02*
X365974380Y-127262285D01*
X365974380Y-127024190D01*
X366022000Y-126881333D01*
X366117238Y-126786095D01*
X366212476Y-126738476D01*
X366402952Y-126690857D01*
X366545809Y-126690857D01*
X366736285Y-126738476D01*
X366831523Y-126786095D01*
X366926761Y-126881333D01*
X366974380Y-127024190D01*
X366974380Y-127262285D01*
X365974380Y-126357523D02*
X365974380Y-125738476D01*
X366355333Y-126071809D01*
X366355333Y-125928952D01*
X366402952Y-125833714D01*
X366450571Y-125786095D01*
X366545809Y-125738476D01*
X366783904Y-125738476D01*
X366879142Y-125786095D01*
X366926761Y-125833714D01*
X366974380Y-125928952D01*
X366974380Y-126214666D01*
X366926761Y-126309904D01*
X366879142Y-126357523D01*
X366974380Y-125262285D02*
X366974380Y-125071809D01*
X366926761Y-124976571D01*
X366879142Y-124928952D01*
X366736285Y-124833714D01*
X366545809Y-124786095D01*
X366164857Y-124786095D01*
X366069619Y-124833714D01*
X366022000Y-124881333D01*
X365974380Y-124976571D01*
X365974380Y-125167047D01*
X366022000Y-125262285D01*
X366069619Y-125309904D01*
X366164857Y-125357523D01*
X366402952Y-125357523D01*
X366498190Y-125309904D01*
X366545809Y-125262285D01*
X366593428Y-125167047D01*
X366593428Y-124976571D01*
X366545809Y-124881333D01*
X366498190Y-124833714D01*
X366402952Y-124786095D01*
%TO.C,D38*%
X347924380Y-127262285D02*
X346924380Y-127262285D01*
X346924380Y-127024190D01*
X346972000Y-126881333D01*
X347067238Y-126786095D01*
X347162476Y-126738476D01*
X347352952Y-126690857D01*
X347495809Y-126690857D01*
X347686285Y-126738476D01*
X347781523Y-126786095D01*
X347876761Y-126881333D01*
X347924380Y-127024190D01*
X347924380Y-127262285D01*
X346924380Y-126357523D02*
X346924380Y-125738476D01*
X347305333Y-126071809D01*
X347305333Y-125928952D01*
X347352952Y-125833714D01*
X347400571Y-125786095D01*
X347495809Y-125738476D01*
X347733904Y-125738476D01*
X347829142Y-125786095D01*
X347876761Y-125833714D01*
X347924380Y-125928952D01*
X347924380Y-126214666D01*
X347876761Y-126309904D01*
X347829142Y-126357523D01*
X347352952Y-125167047D02*
X347305333Y-125262285D01*
X347257714Y-125309904D01*
X347162476Y-125357523D01*
X347114857Y-125357523D01*
X347019619Y-125309904D01*
X346972000Y-125262285D01*
X346924380Y-125167047D01*
X346924380Y-124976571D01*
X346972000Y-124881333D01*
X347019619Y-124833714D01*
X347114857Y-124786095D01*
X347162476Y-124786095D01*
X347257714Y-124833714D01*
X347305333Y-124881333D01*
X347352952Y-124976571D01*
X347352952Y-125167047D01*
X347400571Y-125262285D01*
X347448190Y-125309904D01*
X347543428Y-125357523D01*
X347733904Y-125357523D01*
X347829142Y-125309904D01*
X347876761Y-125262285D01*
X347924380Y-125167047D01*
X347924380Y-124976571D01*
X347876761Y-124881333D01*
X347829142Y-124833714D01*
X347733904Y-124786095D01*
X347543428Y-124786095D01*
X347448190Y-124833714D01*
X347400571Y-124881333D01*
X347352952Y-124976571D01*
%TO.C,D37*%
X328747380Y-127262285D02*
X327747380Y-127262285D01*
X327747380Y-127024190D01*
X327795000Y-126881333D01*
X327890238Y-126786095D01*
X327985476Y-126738476D01*
X328175952Y-126690857D01*
X328318809Y-126690857D01*
X328509285Y-126738476D01*
X328604523Y-126786095D01*
X328699761Y-126881333D01*
X328747380Y-127024190D01*
X328747380Y-127262285D01*
X327747380Y-126357523D02*
X327747380Y-125738476D01*
X328128333Y-126071809D01*
X328128333Y-125928952D01*
X328175952Y-125833714D01*
X328223571Y-125786095D01*
X328318809Y-125738476D01*
X328556904Y-125738476D01*
X328652142Y-125786095D01*
X328699761Y-125833714D01*
X328747380Y-125928952D01*
X328747380Y-126214666D01*
X328699761Y-126309904D01*
X328652142Y-126357523D01*
X327747380Y-125405142D02*
X327747380Y-124738476D01*
X328747380Y-125167047D01*
%TO.C,D36*%
X316301380Y-127262285D02*
X315301380Y-127262285D01*
X315301380Y-127024190D01*
X315349000Y-126881333D01*
X315444238Y-126786095D01*
X315539476Y-126738476D01*
X315729952Y-126690857D01*
X315872809Y-126690857D01*
X316063285Y-126738476D01*
X316158523Y-126786095D01*
X316253761Y-126881333D01*
X316301380Y-127024190D01*
X316301380Y-127262285D01*
X315301380Y-126357523D02*
X315301380Y-125738476D01*
X315682333Y-126071809D01*
X315682333Y-125928952D01*
X315729952Y-125833714D01*
X315777571Y-125786095D01*
X315872809Y-125738476D01*
X316110904Y-125738476D01*
X316206142Y-125786095D01*
X316253761Y-125833714D01*
X316301380Y-125928952D01*
X316301380Y-126214666D01*
X316253761Y-126309904D01*
X316206142Y-126357523D01*
X315301380Y-124881333D02*
X315301380Y-125071809D01*
X315349000Y-125167047D01*
X315396619Y-125214666D01*
X315539476Y-125309904D01*
X315729952Y-125357523D01*
X316110904Y-125357523D01*
X316206142Y-125309904D01*
X316253761Y-125262285D01*
X316301380Y-125167047D01*
X316301380Y-124976571D01*
X316253761Y-124881333D01*
X316206142Y-124833714D01*
X316110904Y-124786095D01*
X315872809Y-124786095D01*
X315777571Y-124833714D01*
X315729952Y-124881333D01*
X315682333Y-124976571D01*
X315682333Y-125167047D01*
X315729952Y-125262285D01*
X315777571Y-125309904D01*
X315872809Y-125357523D01*
%TO.C,D35*%
X295854380Y-127262285D02*
X294854380Y-127262285D01*
X294854380Y-127024190D01*
X294902000Y-126881333D01*
X294997238Y-126786095D01*
X295092476Y-126738476D01*
X295282952Y-126690857D01*
X295425809Y-126690857D01*
X295616285Y-126738476D01*
X295711523Y-126786095D01*
X295806761Y-126881333D01*
X295854380Y-127024190D01*
X295854380Y-127262285D01*
X294854380Y-126357523D02*
X294854380Y-125738476D01*
X295235333Y-126071809D01*
X295235333Y-125928952D01*
X295282952Y-125833714D01*
X295330571Y-125786095D01*
X295425809Y-125738476D01*
X295663904Y-125738476D01*
X295759142Y-125786095D01*
X295806761Y-125833714D01*
X295854380Y-125928952D01*
X295854380Y-126214666D01*
X295806761Y-126309904D01*
X295759142Y-126357523D01*
X294854380Y-124833714D02*
X294854380Y-125309904D01*
X295330571Y-125357523D01*
X295282952Y-125309904D01*
X295235333Y-125214666D01*
X295235333Y-124976571D01*
X295282952Y-124881333D01*
X295330571Y-124833714D01*
X295425809Y-124786095D01*
X295663904Y-124786095D01*
X295759142Y-124833714D01*
X295806761Y-124881333D01*
X295854380Y-124976571D01*
X295854380Y-125214666D01*
X295806761Y-125309904D01*
X295759142Y-125357523D01*
%TO.C,D34*%
X264739380Y-127262285D02*
X263739380Y-127262285D01*
X263739380Y-127024190D01*
X263787000Y-126881333D01*
X263882238Y-126786095D01*
X263977476Y-126738476D01*
X264167952Y-126690857D01*
X264310809Y-126690857D01*
X264501285Y-126738476D01*
X264596523Y-126786095D01*
X264691761Y-126881333D01*
X264739380Y-127024190D01*
X264739380Y-127262285D01*
X263739380Y-126357523D02*
X263739380Y-125738476D01*
X264120333Y-126071809D01*
X264120333Y-125928952D01*
X264167952Y-125833714D01*
X264215571Y-125786095D01*
X264310809Y-125738476D01*
X264548904Y-125738476D01*
X264644142Y-125786095D01*
X264691761Y-125833714D01*
X264739380Y-125928952D01*
X264739380Y-126214666D01*
X264691761Y-126309904D01*
X264644142Y-126357523D01*
X264072714Y-124881333D02*
X264739380Y-124881333D01*
X263691761Y-125119428D02*
X264406047Y-125357523D01*
X264406047Y-124738476D01*
%TO.C,D32*%
X225369380Y-127262285D02*
X224369380Y-127262285D01*
X224369380Y-127024190D01*
X224417000Y-126881333D01*
X224512238Y-126786095D01*
X224607476Y-126738476D01*
X224797952Y-126690857D01*
X224940809Y-126690857D01*
X225131285Y-126738476D01*
X225226523Y-126786095D01*
X225321761Y-126881333D01*
X225369380Y-127024190D01*
X225369380Y-127262285D01*
X224369380Y-126357523D02*
X224369380Y-125738476D01*
X224750333Y-126071809D01*
X224750333Y-125928952D01*
X224797952Y-125833714D01*
X224845571Y-125786095D01*
X224940809Y-125738476D01*
X225178904Y-125738476D01*
X225274142Y-125786095D01*
X225321761Y-125833714D01*
X225369380Y-125928952D01*
X225369380Y-126214666D01*
X225321761Y-126309904D01*
X225274142Y-126357523D01*
X224464619Y-125357523D02*
X224417000Y-125309904D01*
X224369380Y-125214666D01*
X224369380Y-124976571D01*
X224417000Y-124881333D01*
X224464619Y-124833714D01*
X224559857Y-124786095D01*
X224655095Y-124786095D01*
X224797952Y-124833714D01*
X225369380Y-125405142D01*
X225369380Y-124786095D01*
%TO.C,D31*%
X206192380Y-127262285D02*
X205192380Y-127262285D01*
X205192380Y-127024190D01*
X205240000Y-126881333D01*
X205335238Y-126786095D01*
X205430476Y-126738476D01*
X205620952Y-126690857D01*
X205763809Y-126690857D01*
X205954285Y-126738476D01*
X206049523Y-126786095D01*
X206144761Y-126881333D01*
X206192380Y-127024190D01*
X206192380Y-127262285D01*
X205192380Y-126357523D02*
X205192380Y-125738476D01*
X205573333Y-126071809D01*
X205573333Y-125928952D01*
X205620952Y-125833714D01*
X205668571Y-125786095D01*
X205763809Y-125738476D01*
X206001904Y-125738476D01*
X206097142Y-125786095D01*
X206144761Y-125833714D01*
X206192380Y-125928952D01*
X206192380Y-126214666D01*
X206144761Y-126309904D01*
X206097142Y-126357523D01*
X206192380Y-124786095D02*
X206192380Y-125357523D01*
X206192380Y-125071809D02*
X205192380Y-125071809D01*
X205335238Y-125167047D01*
X205430476Y-125262285D01*
X205478095Y-125357523D01*
%TO.C,D30*%
X187015380Y-127262285D02*
X186015380Y-127262285D01*
X186015380Y-127024190D01*
X186063000Y-126881333D01*
X186158238Y-126786095D01*
X186253476Y-126738476D01*
X186443952Y-126690857D01*
X186586809Y-126690857D01*
X186777285Y-126738476D01*
X186872523Y-126786095D01*
X186967761Y-126881333D01*
X187015380Y-127024190D01*
X187015380Y-127262285D01*
X186015380Y-126357523D02*
X186015380Y-125738476D01*
X186396333Y-126071809D01*
X186396333Y-125928952D01*
X186443952Y-125833714D01*
X186491571Y-125786095D01*
X186586809Y-125738476D01*
X186824904Y-125738476D01*
X186920142Y-125786095D01*
X186967761Y-125833714D01*
X187015380Y-125928952D01*
X187015380Y-126214666D01*
X186967761Y-126309904D01*
X186920142Y-126357523D01*
X186015380Y-125119428D02*
X186015380Y-125024190D01*
X186063000Y-124928952D01*
X186110619Y-124881333D01*
X186205857Y-124833714D01*
X186396333Y-124786095D01*
X186634428Y-124786095D01*
X186824904Y-124833714D01*
X186920142Y-124881333D01*
X186967761Y-124928952D01*
X187015380Y-125024190D01*
X187015380Y-125119428D01*
X186967761Y-125214666D01*
X186920142Y-125262285D01*
X186824904Y-125309904D01*
X186634428Y-125357523D01*
X186396333Y-125357523D01*
X186205857Y-125309904D01*
X186110619Y-125262285D01*
X186063000Y-125214666D01*
X186015380Y-125119428D01*
%TO.C,D29*%
X167965380Y-127262285D02*
X166965380Y-127262285D01*
X166965380Y-127024190D01*
X167013000Y-126881333D01*
X167108238Y-126786095D01*
X167203476Y-126738476D01*
X167393952Y-126690857D01*
X167536809Y-126690857D01*
X167727285Y-126738476D01*
X167822523Y-126786095D01*
X167917761Y-126881333D01*
X167965380Y-127024190D01*
X167965380Y-127262285D01*
X167060619Y-126309904D02*
X167013000Y-126262285D01*
X166965380Y-126167047D01*
X166965380Y-125928952D01*
X167013000Y-125833714D01*
X167060619Y-125786095D01*
X167155857Y-125738476D01*
X167251095Y-125738476D01*
X167393952Y-125786095D01*
X167965380Y-126357523D01*
X167965380Y-125738476D01*
X167965380Y-125262285D02*
X167965380Y-125071809D01*
X167917761Y-124976571D01*
X167870142Y-124928952D01*
X167727285Y-124833714D01*
X167536809Y-124786095D01*
X167155857Y-124786095D01*
X167060619Y-124833714D01*
X167013000Y-124881333D01*
X166965380Y-124976571D01*
X166965380Y-125167047D01*
X167013000Y-125262285D01*
X167060619Y-125309904D01*
X167155857Y-125357523D01*
X167393952Y-125357523D01*
X167489190Y-125309904D01*
X167536809Y-125262285D01*
X167584428Y-125167047D01*
X167584428Y-124976571D01*
X167536809Y-124881333D01*
X167489190Y-124833714D01*
X167393952Y-124786095D01*
%TO.C,D28*%
X148915380Y-127262285D02*
X147915380Y-127262285D01*
X147915380Y-127024190D01*
X147963000Y-126881333D01*
X148058238Y-126786095D01*
X148153476Y-126738476D01*
X148343952Y-126690857D01*
X148486809Y-126690857D01*
X148677285Y-126738476D01*
X148772523Y-126786095D01*
X148867761Y-126881333D01*
X148915380Y-127024190D01*
X148915380Y-127262285D01*
X148010619Y-126309904D02*
X147963000Y-126262285D01*
X147915380Y-126167047D01*
X147915380Y-125928952D01*
X147963000Y-125833714D01*
X148010619Y-125786095D01*
X148105857Y-125738476D01*
X148201095Y-125738476D01*
X148343952Y-125786095D01*
X148915380Y-126357523D01*
X148915380Y-125738476D01*
X148343952Y-125167047D02*
X148296333Y-125262285D01*
X148248714Y-125309904D01*
X148153476Y-125357523D01*
X148105857Y-125357523D01*
X148010619Y-125309904D01*
X147963000Y-125262285D01*
X147915380Y-125167047D01*
X147915380Y-124976571D01*
X147963000Y-124881333D01*
X148010619Y-124833714D01*
X148105857Y-124786095D01*
X148153476Y-124786095D01*
X148248714Y-124833714D01*
X148296333Y-124881333D01*
X148343952Y-124976571D01*
X148343952Y-125167047D01*
X148391571Y-125262285D01*
X148439190Y-125309904D01*
X148534428Y-125357523D01*
X148724904Y-125357523D01*
X148820142Y-125309904D01*
X148867761Y-125262285D01*
X148915380Y-125167047D01*
X148915380Y-124976571D01*
X148867761Y-124881333D01*
X148820142Y-124833714D01*
X148724904Y-124786095D01*
X148534428Y-124786095D01*
X148439190Y-124833714D01*
X148391571Y-124881333D01*
X148343952Y-124976571D01*
%TO.C,D27*%
X129738380Y-127262285D02*
X128738380Y-127262285D01*
X128738380Y-127024190D01*
X128786000Y-126881333D01*
X128881238Y-126786095D01*
X128976476Y-126738476D01*
X129166952Y-126690857D01*
X129309809Y-126690857D01*
X129500285Y-126738476D01*
X129595523Y-126786095D01*
X129690761Y-126881333D01*
X129738380Y-127024190D01*
X129738380Y-127262285D01*
X128833619Y-126309904D02*
X128786000Y-126262285D01*
X128738380Y-126167047D01*
X128738380Y-125928952D01*
X128786000Y-125833714D01*
X128833619Y-125786095D01*
X128928857Y-125738476D01*
X129024095Y-125738476D01*
X129166952Y-125786095D01*
X129738380Y-126357523D01*
X129738380Y-125738476D01*
X128738380Y-125405142D02*
X128738380Y-124738476D01*
X129738380Y-125167047D01*
%TO.C,D26*%
X110688380Y-127262285D02*
X109688380Y-127262285D01*
X109688380Y-127024190D01*
X109736000Y-126881333D01*
X109831238Y-126786095D01*
X109926476Y-126738476D01*
X110116952Y-126690857D01*
X110259809Y-126690857D01*
X110450285Y-126738476D01*
X110545523Y-126786095D01*
X110640761Y-126881333D01*
X110688380Y-127024190D01*
X110688380Y-127262285D01*
X109783619Y-126309904D02*
X109736000Y-126262285D01*
X109688380Y-126167047D01*
X109688380Y-125928952D01*
X109736000Y-125833714D01*
X109783619Y-125786095D01*
X109878857Y-125738476D01*
X109974095Y-125738476D01*
X110116952Y-125786095D01*
X110688380Y-126357523D01*
X110688380Y-125738476D01*
X109688380Y-124881333D02*
X109688380Y-125071809D01*
X109736000Y-125167047D01*
X109783619Y-125214666D01*
X109926476Y-125309904D01*
X110116952Y-125357523D01*
X110497904Y-125357523D01*
X110593142Y-125309904D01*
X110640761Y-125262285D01*
X110688380Y-125167047D01*
X110688380Y-124976571D01*
X110640761Y-124881333D01*
X110593142Y-124833714D01*
X110497904Y-124786095D01*
X110259809Y-124786095D01*
X110164571Y-124833714D01*
X110116952Y-124881333D01*
X110069333Y-124976571D01*
X110069333Y-125167047D01*
X110116952Y-125262285D01*
X110164571Y-125309904D01*
X110259809Y-125357523D01*
%TO.C,D25*%
X91638380Y-127262285D02*
X90638380Y-127262285D01*
X90638380Y-127024190D01*
X90686000Y-126881333D01*
X90781238Y-126786095D01*
X90876476Y-126738476D01*
X91066952Y-126690857D01*
X91209809Y-126690857D01*
X91400285Y-126738476D01*
X91495523Y-126786095D01*
X91590761Y-126881333D01*
X91638380Y-127024190D01*
X91638380Y-127262285D01*
X90733619Y-126309904D02*
X90686000Y-126262285D01*
X90638380Y-126167047D01*
X90638380Y-125928952D01*
X90686000Y-125833714D01*
X90733619Y-125786095D01*
X90828857Y-125738476D01*
X90924095Y-125738476D01*
X91066952Y-125786095D01*
X91638380Y-126357523D01*
X91638380Y-125738476D01*
X90638380Y-124833714D02*
X90638380Y-125309904D01*
X91114571Y-125357523D01*
X91066952Y-125309904D01*
X91019333Y-125214666D01*
X91019333Y-124976571D01*
X91066952Y-124881333D01*
X91114571Y-124833714D01*
X91209809Y-124786095D01*
X91447904Y-124786095D01*
X91543142Y-124833714D01*
X91590761Y-124881333D01*
X91638380Y-124976571D01*
X91638380Y-125214666D01*
X91590761Y-125309904D01*
X91543142Y-125357523D01*
%TO.C,D24*%
X72588380Y-127262285D02*
X71588380Y-127262285D01*
X71588380Y-127024190D01*
X71636000Y-126881333D01*
X71731238Y-126786095D01*
X71826476Y-126738476D01*
X72016952Y-126690857D01*
X72159809Y-126690857D01*
X72350285Y-126738476D01*
X72445523Y-126786095D01*
X72540761Y-126881333D01*
X72588380Y-127024190D01*
X72588380Y-127262285D01*
X71683619Y-126309904D02*
X71636000Y-126262285D01*
X71588380Y-126167047D01*
X71588380Y-125928952D01*
X71636000Y-125833714D01*
X71683619Y-125786095D01*
X71778857Y-125738476D01*
X71874095Y-125738476D01*
X72016952Y-125786095D01*
X72588380Y-126357523D01*
X72588380Y-125738476D01*
X71921714Y-124881333D02*
X72588380Y-124881333D01*
X71540761Y-125119428D02*
X72255047Y-125357523D01*
X72255047Y-124738476D01*
%TO.C,D23*%
X53538380Y-127262285D02*
X52538380Y-127262285D01*
X52538380Y-127024190D01*
X52586000Y-126881333D01*
X52681238Y-126786095D01*
X52776476Y-126738476D01*
X52966952Y-126690857D01*
X53109809Y-126690857D01*
X53300285Y-126738476D01*
X53395523Y-126786095D01*
X53490761Y-126881333D01*
X53538380Y-127024190D01*
X53538380Y-127262285D01*
X52633619Y-126309904D02*
X52586000Y-126262285D01*
X52538380Y-126167047D01*
X52538380Y-125928952D01*
X52586000Y-125833714D01*
X52633619Y-125786095D01*
X52728857Y-125738476D01*
X52824095Y-125738476D01*
X52966952Y-125786095D01*
X53538380Y-126357523D01*
X53538380Y-125738476D01*
X52538380Y-125405142D02*
X52538380Y-124786095D01*
X52919333Y-125119428D01*
X52919333Y-124976571D01*
X52966952Y-124881333D01*
X53014571Y-124833714D01*
X53109809Y-124786095D01*
X53347904Y-124786095D01*
X53443142Y-124833714D01*
X53490761Y-124881333D01*
X53538380Y-124976571D01*
X53538380Y-125262285D01*
X53490761Y-125357523D01*
X53443142Y-125405142D01*
%TO.C,D22*%
X34488380Y-127262285D02*
X33488380Y-127262285D01*
X33488380Y-127024190D01*
X33536000Y-126881333D01*
X33631238Y-126786095D01*
X33726476Y-126738476D01*
X33916952Y-126690857D01*
X34059809Y-126690857D01*
X34250285Y-126738476D01*
X34345523Y-126786095D01*
X34440761Y-126881333D01*
X34488380Y-127024190D01*
X34488380Y-127262285D01*
X33583619Y-126309904D02*
X33536000Y-126262285D01*
X33488380Y-126167047D01*
X33488380Y-125928952D01*
X33536000Y-125833714D01*
X33583619Y-125786095D01*
X33678857Y-125738476D01*
X33774095Y-125738476D01*
X33916952Y-125786095D01*
X34488380Y-126357523D01*
X34488380Y-125738476D01*
X33583619Y-125357523D02*
X33536000Y-125309904D01*
X33488380Y-125214666D01*
X33488380Y-124976571D01*
X33536000Y-124881333D01*
X33583619Y-124833714D01*
X33678857Y-124786095D01*
X33774095Y-124786095D01*
X33916952Y-124833714D01*
X34488380Y-125405142D01*
X34488380Y-124786095D01*
%TO.C,D21*%
X386151380Y-97163285D02*
X385151380Y-97163285D01*
X385151380Y-96925190D01*
X385199000Y-96782333D01*
X385294238Y-96687095D01*
X385389476Y-96639476D01*
X385579952Y-96591857D01*
X385722809Y-96591857D01*
X385913285Y-96639476D01*
X386008523Y-96687095D01*
X386103761Y-96782333D01*
X386151380Y-96925190D01*
X386151380Y-97163285D01*
X385246619Y-96210904D02*
X385199000Y-96163285D01*
X385151380Y-96068047D01*
X385151380Y-95829952D01*
X385199000Y-95734714D01*
X385246619Y-95687095D01*
X385341857Y-95639476D01*
X385437095Y-95639476D01*
X385579952Y-95687095D01*
X386151380Y-96258523D01*
X386151380Y-95639476D01*
X386151380Y-94687095D02*
X386151380Y-95258523D01*
X386151380Y-94972809D02*
X385151380Y-94972809D01*
X385294238Y-95068047D01*
X385389476Y-95163285D01*
X385437095Y-95258523D01*
%TO.C,D20*%
X367101380Y-97163285D02*
X366101380Y-97163285D01*
X366101380Y-96925190D01*
X366149000Y-96782333D01*
X366244238Y-96687095D01*
X366339476Y-96639476D01*
X366529952Y-96591857D01*
X366672809Y-96591857D01*
X366863285Y-96639476D01*
X366958523Y-96687095D01*
X367053761Y-96782333D01*
X367101380Y-96925190D01*
X367101380Y-97163285D01*
X366196619Y-96210904D02*
X366149000Y-96163285D01*
X366101380Y-96068047D01*
X366101380Y-95829952D01*
X366149000Y-95734714D01*
X366196619Y-95687095D01*
X366291857Y-95639476D01*
X366387095Y-95639476D01*
X366529952Y-95687095D01*
X367101380Y-96258523D01*
X367101380Y-95639476D01*
X366101380Y-95020428D02*
X366101380Y-94925190D01*
X366149000Y-94829952D01*
X366196619Y-94782333D01*
X366291857Y-94734714D01*
X366482333Y-94687095D01*
X366720428Y-94687095D01*
X366910904Y-94734714D01*
X367006142Y-94782333D01*
X367053761Y-94829952D01*
X367101380Y-94925190D01*
X367101380Y-95020428D01*
X367053761Y-95115666D01*
X367006142Y-95163285D01*
X366910904Y-95210904D01*
X366720428Y-95258523D01*
X366482333Y-95258523D01*
X366291857Y-95210904D01*
X366196619Y-95163285D01*
X366149000Y-95115666D01*
X366101380Y-95020428D01*
%TO.C,D19*%
X355417380Y-97163285D02*
X354417380Y-97163285D01*
X354417380Y-96925190D01*
X354465000Y-96782333D01*
X354560238Y-96687095D01*
X354655476Y-96639476D01*
X354845952Y-96591857D01*
X354988809Y-96591857D01*
X355179285Y-96639476D01*
X355274523Y-96687095D01*
X355369761Y-96782333D01*
X355417380Y-96925190D01*
X355417380Y-97163285D01*
X355417380Y-95639476D02*
X355417380Y-96210904D01*
X355417380Y-95925190D02*
X354417380Y-95925190D01*
X354560238Y-96020428D01*
X354655476Y-96115666D01*
X354703095Y-96210904D01*
X355417380Y-95163285D02*
X355417380Y-94972809D01*
X355369761Y-94877571D01*
X355322142Y-94829952D01*
X355179285Y-94734714D01*
X354988809Y-94687095D01*
X354607857Y-94687095D01*
X354512619Y-94734714D01*
X354465000Y-94782333D01*
X354417380Y-94877571D01*
X354417380Y-95068047D01*
X354465000Y-95163285D01*
X354512619Y-95210904D01*
X354607857Y-95258523D01*
X354845952Y-95258523D01*
X354941190Y-95210904D01*
X354988809Y-95163285D01*
X355036428Y-95068047D01*
X355036428Y-94877571D01*
X354988809Y-94782333D01*
X354941190Y-94734714D01*
X354845952Y-94687095D01*
%TO.C,D18*%
X336367380Y-97163285D02*
X335367380Y-97163285D01*
X335367380Y-96925190D01*
X335415000Y-96782333D01*
X335510238Y-96687095D01*
X335605476Y-96639476D01*
X335795952Y-96591857D01*
X335938809Y-96591857D01*
X336129285Y-96639476D01*
X336224523Y-96687095D01*
X336319761Y-96782333D01*
X336367380Y-96925190D01*
X336367380Y-97163285D01*
X336367380Y-95639476D02*
X336367380Y-96210904D01*
X336367380Y-95925190D02*
X335367380Y-95925190D01*
X335510238Y-96020428D01*
X335605476Y-96115666D01*
X335653095Y-96210904D01*
X335795952Y-95068047D02*
X335748333Y-95163285D01*
X335700714Y-95210904D01*
X335605476Y-95258523D01*
X335557857Y-95258523D01*
X335462619Y-95210904D01*
X335415000Y-95163285D01*
X335367380Y-95068047D01*
X335367380Y-94877571D01*
X335415000Y-94782333D01*
X335462619Y-94734714D01*
X335557857Y-94687095D01*
X335605476Y-94687095D01*
X335700714Y-94734714D01*
X335748333Y-94782333D01*
X335795952Y-94877571D01*
X335795952Y-95068047D01*
X335843571Y-95163285D01*
X335891190Y-95210904D01*
X335986428Y-95258523D01*
X336176904Y-95258523D01*
X336272142Y-95210904D01*
X336319761Y-95163285D01*
X336367380Y-95068047D01*
X336367380Y-94877571D01*
X336319761Y-94782333D01*
X336272142Y-94734714D01*
X336176904Y-94687095D01*
X335986428Y-94687095D01*
X335891190Y-94734714D01*
X335843571Y-94782333D01*
X335795952Y-94877571D01*
%TO.C,D17*%
X317317380Y-97163285D02*
X316317380Y-97163285D01*
X316317380Y-96925190D01*
X316365000Y-96782333D01*
X316460238Y-96687095D01*
X316555476Y-96639476D01*
X316745952Y-96591857D01*
X316888809Y-96591857D01*
X317079285Y-96639476D01*
X317174523Y-96687095D01*
X317269761Y-96782333D01*
X317317380Y-96925190D01*
X317317380Y-97163285D01*
X317317380Y-95639476D02*
X317317380Y-96210904D01*
X317317380Y-95925190D02*
X316317380Y-95925190D01*
X316460238Y-96020428D01*
X316555476Y-96115666D01*
X316603095Y-96210904D01*
X316317380Y-95306142D02*
X316317380Y-94639476D01*
X317317380Y-95068047D01*
%TO.C,D16*%
X298140380Y-97163285D02*
X297140380Y-97163285D01*
X297140380Y-96925190D01*
X297188000Y-96782333D01*
X297283238Y-96687095D01*
X297378476Y-96639476D01*
X297568952Y-96591857D01*
X297711809Y-96591857D01*
X297902285Y-96639476D01*
X297997523Y-96687095D01*
X298092761Y-96782333D01*
X298140380Y-96925190D01*
X298140380Y-97163285D01*
X298140380Y-95639476D02*
X298140380Y-96210904D01*
X298140380Y-95925190D02*
X297140380Y-95925190D01*
X297283238Y-96020428D01*
X297378476Y-96115666D01*
X297426095Y-96210904D01*
X297140380Y-94782333D02*
X297140380Y-94972809D01*
X297188000Y-95068047D01*
X297235619Y-95115666D01*
X297378476Y-95210904D01*
X297568952Y-95258523D01*
X297949904Y-95258523D01*
X298045142Y-95210904D01*
X298092761Y-95163285D01*
X298140380Y-95068047D01*
X298140380Y-94877571D01*
X298092761Y-94782333D01*
X298045142Y-94734714D01*
X297949904Y-94687095D01*
X297711809Y-94687095D01*
X297616571Y-94734714D01*
X297568952Y-94782333D01*
X297521333Y-94877571D01*
X297521333Y-95068047D01*
X297568952Y-95163285D01*
X297616571Y-95210904D01*
X297711809Y-95258523D01*
%TO.C,D15*%
X267660380Y-97163285D02*
X266660380Y-97163285D01*
X266660380Y-96925190D01*
X266708000Y-96782333D01*
X266803238Y-96687095D01*
X266898476Y-96639476D01*
X267088952Y-96591857D01*
X267231809Y-96591857D01*
X267422285Y-96639476D01*
X267517523Y-96687095D01*
X267612761Y-96782333D01*
X267660380Y-96925190D01*
X267660380Y-97163285D01*
X267660380Y-95639476D02*
X267660380Y-96210904D01*
X267660380Y-95925190D02*
X266660380Y-95925190D01*
X266803238Y-96020428D01*
X266898476Y-96115666D01*
X266946095Y-96210904D01*
X266660380Y-94734714D02*
X266660380Y-95210904D01*
X267136571Y-95258523D01*
X267088952Y-95210904D01*
X267041333Y-95115666D01*
X267041333Y-94877571D01*
X267088952Y-94782333D01*
X267136571Y-94734714D01*
X267231809Y-94687095D01*
X267469904Y-94687095D01*
X267565142Y-94734714D01*
X267612761Y-94782333D01*
X267660380Y-94877571D01*
X267660380Y-95115666D01*
X267612761Y-95210904D01*
X267565142Y-95258523D01*
%TO.C,D14*%
X248483380Y-97163285D02*
X247483380Y-97163285D01*
X247483380Y-96925190D01*
X247531000Y-96782333D01*
X247626238Y-96687095D01*
X247721476Y-96639476D01*
X247911952Y-96591857D01*
X248054809Y-96591857D01*
X248245285Y-96639476D01*
X248340523Y-96687095D01*
X248435761Y-96782333D01*
X248483380Y-96925190D01*
X248483380Y-97163285D01*
X248483380Y-95639476D02*
X248483380Y-96210904D01*
X248483380Y-95925190D02*
X247483380Y-95925190D01*
X247626238Y-96020428D01*
X247721476Y-96115666D01*
X247769095Y-96210904D01*
X247816714Y-94782333D02*
X248483380Y-94782333D01*
X247435761Y-95020428D02*
X248150047Y-95258523D01*
X248150047Y-94639476D01*
%TO.C,D13*%
X229433380Y-97163285D02*
X228433380Y-97163285D01*
X228433380Y-96925190D01*
X228481000Y-96782333D01*
X228576238Y-96687095D01*
X228671476Y-96639476D01*
X228861952Y-96591857D01*
X229004809Y-96591857D01*
X229195285Y-96639476D01*
X229290523Y-96687095D01*
X229385761Y-96782333D01*
X229433380Y-96925190D01*
X229433380Y-97163285D01*
X229433380Y-95639476D02*
X229433380Y-96210904D01*
X229433380Y-95925190D02*
X228433380Y-95925190D01*
X228576238Y-96020428D01*
X228671476Y-96115666D01*
X228719095Y-96210904D01*
X228433380Y-95306142D02*
X228433380Y-94687095D01*
X228814333Y-95020428D01*
X228814333Y-94877571D01*
X228861952Y-94782333D01*
X228909571Y-94734714D01*
X229004809Y-94687095D01*
X229242904Y-94687095D01*
X229338142Y-94734714D01*
X229385761Y-94782333D01*
X229433380Y-94877571D01*
X229433380Y-95163285D01*
X229385761Y-95258523D01*
X229338142Y-95306142D01*
%TO.C,D12*%
X210256380Y-97163285D02*
X209256380Y-97163285D01*
X209256380Y-96925190D01*
X209304000Y-96782333D01*
X209399238Y-96687095D01*
X209494476Y-96639476D01*
X209684952Y-96591857D01*
X209827809Y-96591857D01*
X210018285Y-96639476D01*
X210113523Y-96687095D01*
X210208761Y-96782333D01*
X210256380Y-96925190D01*
X210256380Y-97163285D01*
X210256380Y-95639476D02*
X210256380Y-96210904D01*
X210256380Y-95925190D02*
X209256380Y-95925190D01*
X209399238Y-96020428D01*
X209494476Y-96115666D01*
X209542095Y-96210904D01*
X209351619Y-95258523D02*
X209304000Y-95210904D01*
X209256380Y-95115666D01*
X209256380Y-94877571D01*
X209304000Y-94782333D01*
X209351619Y-94734714D01*
X209446857Y-94687095D01*
X209542095Y-94687095D01*
X209684952Y-94734714D01*
X210256380Y-95306142D01*
X210256380Y-94687095D01*
%TO.C,D10*%
X179522380Y-97163285D02*
X178522380Y-97163285D01*
X178522380Y-96925190D01*
X178570000Y-96782333D01*
X178665238Y-96687095D01*
X178760476Y-96639476D01*
X178950952Y-96591857D01*
X179093809Y-96591857D01*
X179284285Y-96639476D01*
X179379523Y-96687095D01*
X179474761Y-96782333D01*
X179522380Y-96925190D01*
X179522380Y-97163285D01*
X179522380Y-95639476D02*
X179522380Y-96210904D01*
X179522380Y-95925190D02*
X178522380Y-95925190D01*
X178665238Y-96020428D01*
X178760476Y-96115666D01*
X178808095Y-96210904D01*
X178522380Y-95020428D02*
X178522380Y-94925190D01*
X178570000Y-94829952D01*
X178617619Y-94782333D01*
X178712857Y-94734714D01*
X178903333Y-94687095D01*
X179141428Y-94687095D01*
X179331904Y-94734714D01*
X179427142Y-94782333D01*
X179474761Y-94829952D01*
X179522380Y-94925190D01*
X179522380Y-95020428D01*
X179474761Y-95115666D01*
X179427142Y-95163285D01*
X179331904Y-95210904D01*
X179141428Y-95258523D01*
X178903333Y-95258523D01*
X178712857Y-95210904D01*
X178617619Y-95163285D01*
X178570000Y-95115666D01*
X178522380Y-95020428D01*
%TO.C,D9*%
X160472380Y-96687095D02*
X159472380Y-96687095D01*
X159472380Y-96449000D01*
X159520000Y-96306142D01*
X159615238Y-96210904D01*
X159710476Y-96163285D01*
X159900952Y-96115666D01*
X160043809Y-96115666D01*
X160234285Y-96163285D01*
X160329523Y-96210904D01*
X160424761Y-96306142D01*
X160472380Y-96449000D01*
X160472380Y-96687095D01*
X160472380Y-95639476D02*
X160472380Y-95449000D01*
X160424761Y-95353761D01*
X160377142Y-95306142D01*
X160234285Y-95210904D01*
X160043809Y-95163285D01*
X159662857Y-95163285D01*
X159567619Y-95210904D01*
X159520000Y-95258523D01*
X159472380Y-95353761D01*
X159472380Y-95544238D01*
X159520000Y-95639476D01*
X159567619Y-95687095D01*
X159662857Y-95734714D01*
X159900952Y-95734714D01*
X159996190Y-95687095D01*
X160043809Y-95639476D01*
X160091428Y-95544238D01*
X160091428Y-95353761D01*
X160043809Y-95258523D01*
X159996190Y-95210904D01*
X159900952Y-95163285D01*
%TO.C,D8*%
X141422380Y-96687095D02*
X140422380Y-96687095D01*
X140422380Y-96449000D01*
X140470000Y-96306142D01*
X140565238Y-96210904D01*
X140660476Y-96163285D01*
X140850952Y-96115666D01*
X140993809Y-96115666D01*
X141184285Y-96163285D01*
X141279523Y-96210904D01*
X141374761Y-96306142D01*
X141422380Y-96449000D01*
X141422380Y-96687095D01*
X140850952Y-95544238D02*
X140803333Y-95639476D01*
X140755714Y-95687095D01*
X140660476Y-95734714D01*
X140612857Y-95734714D01*
X140517619Y-95687095D01*
X140470000Y-95639476D01*
X140422380Y-95544238D01*
X140422380Y-95353761D01*
X140470000Y-95258523D01*
X140517619Y-95210904D01*
X140612857Y-95163285D01*
X140660476Y-95163285D01*
X140755714Y-95210904D01*
X140803333Y-95258523D01*
X140850952Y-95353761D01*
X140850952Y-95544238D01*
X140898571Y-95639476D01*
X140946190Y-95687095D01*
X141041428Y-95734714D01*
X141231904Y-95734714D01*
X141327142Y-95687095D01*
X141374761Y-95639476D01*
X141422380Y-95544238D01*
X141422380Y-95353761D01*
X141374761Y-95258523D01*
X141327142Y-95210904D01*
X141231904Y-95163285D01*
X141041428Y-95163285D01*
X140946190Y-95210904D01*
X140898571Y-95258523D01*
X140850952Y-95353761D01*
%TO.C,D7*%
X122245380Y-96687095D02*
X121245380Y-96687095D01*
X121245380Y-96449000D01*
X121293000Y-96306142D01*
X121388238Y-96210904D01*
X121483476Y-96163285D01*
X121673952Y-96115666D01*
X121816809Y-96115666D01*
X122007285Y-96163285D01*
X122102523Y-96210904D01*
X122197761Y-96306142D01*
X122245380Y-96449000D01*
X122245380Y-96687095D01*
X121245380Y-95782333D02*
X121245380Y-95115666D01*
X122245380Y-95544238D01*
%TO.C,D6*%
X91638380Y-96687095D02*
X90638380Y-96687095D01*
X90638380Y-96449000D01*
X90686000Y-96306142D01*
X90781238Y-96210904D01*
X90876476Y-96163285D01*
X91066952Y-96115666D01*
X91209809Y-96115666D01*
X91400285Y-96163285D01*
X91495523Y-96210904D01*
X91590761Y-96306142D01*
X91638380Y-96449000D01*
X91638380Y-96687095D01*
X90638380Y-95258523D02*
X90638380Y-95449000D01*
X90686000Y-95544238D01*
X90733619Y-95591857D01*
X90876476Y-95687095D01*
X91066952Y-95734714D01*
X91447904Y-95734714D01*
X91543142Y-95687095D01*
X91590761Y-95639476D01*
X91638380Y-95544238D01*
X91638380Y-95353761D01*
X91590761Y-95258523D01*
X91543142Y-95210904D01*
X91447904Y-95163285D01*
X91209809Y-95163285D01*
X91114571Y-95210904D01*
X91066952Y-95258523D01*
X91019333Y-95353761D01*
X91019333Y-95544238D01*
X91066952Y-95639476D01*
X91114571Y-95687095D01*
X91209809Y-95734714D01*
%TO.C,D5*%
X72588380Y-96687095D02*
X71588380Y-96687095D01*
X71588380Y-96449000D01*
X71636000Y-96306142D01*
X71731238Y-96210904D01*
X71826476Y-96163285D01*
X72016952Y-96115666D01*
X72159809Y-96115666D01*
X72350285Y-96163285D01*
X72445523Y-96210904D01*
X72540761Y-96306142D01*
X72588380Y-96449000D01*
X72588380Y-96687095D01*
X71588380Y-95210904D02*
X71588380Y-95687095D01*
X72064571Y-95734714D01*
X72016952Y-95687095D01*
X71969333Y-95591857D01*
X71969333Y-95353761D01*
X72016952Y-95258523D01*
X72064571Y-95210904D01*
X72159809Y-95163285D01*
X72397904Y-95163285D01*
X72493142Y-95210904D01*
X72540761Y-95258523D01*
X72588380Y-95353761D01*
X72588380Y-95591857D01*
X72540761Y-95687095D01*
X72493142Y-95734714D01*
%TO.C,D4*%
X53411380Y-96687095D02*
X52411380Y-96687095D01*
X52411380Y-96449000D01*
X52459000Y-96306142D01*
X52554238Y-96210904D01*
X52649476Y-96163285D01*
X52839952Y-96115666D01*
X52982809Y-96115666D01*
X53173285Y-96163285D01*
X53268523Y-96210904D01*
X53363761Y-96306142D01*
X53411380Y-96449000D01*
X53411380Y-96687095D01*
X52744714Y-95258523D02*
X53411380Y-95258523D01*
X52363761Y-95496619D02*
X53078047Y-95734714D01*
X53078047Y-95115666D01*
%TO.C,D3*%
X34361380Y-96687095D02*
X33361380Y-96687095D01*
X33361380Y-96449000D01*
X33409000Y-96306142D01*
X33504238Y-96210904D01*
X33599476Y-96163285D01*
X33789952Y-96115666D01*
X33932809Y-96115666D01*
X34123285Y-96163285D01*
X34218523Y-96210904D01*
X34313761Y-96306142D01*
X34361380Y-96449000D01*
X34361380Y-96687095D01*
X33361380Y-95782333D02*
X33361380Y-95163285D01*
X33742333Y-95496619D01*
X33742333Y-95353761D01*
X33789952Y-95258523D01*
X33837571Y-95210904D01*
X33932809Y-95163285D01*
X34170904Y-95163285D01*
X34266142Y-95210904D01*
X34313761Y-95258523D01*
X34361380Y-95353761D01*
X34361380Y-95639476D01*
X34313761Y-95734714D01*
X34266142Y-95782333D01*
%TO.C,XTAL1*%
X285233380Y-69306809D02*
X286233380Y-68640142D01*
X285233380Y-68640142D02*
X286233380Y-69306809D01*
X285233380Y-68402047D02*
X285233380Y-67830619D01*
X286233380Y-68116333D02*
X285233380Y-68116333D01*
X285947666Y-67544904D02*
X285947666Y-67068714D01*
X286233380Y-67640142D02*
X285233380Y-67306809D01*
X286233380Y-66973476D01*
X286233380Y-66163952D02*
X286233380Y-66640142D01*
X285233380Y-66640142D01*
X286233380Y-65306809D02*
X286233380Y-65878238D01*
X286233380Y-65592523D02*
X285233380Y-65592523D01*
X285376238Y-65687761D01*
X285471476Y-65783000D01*
X285519095Y-65878238D01*
%TO.C,USB1*%
X42203904Y-52067380D02*
X42203904Y-52876904D01*
X42251523Y-52972142D01*
X42299142Y-53019761D01*
X42394380Y-53067380D01*
X42584857Y-53067380D01*
X42680095Y-53019761D01*
X42727714Y-52972142D01*
X42775333Y-52876904D01*
X42775333Y-52067380D01*
X43203904Y-53019761D02*
X43346761Y-53067380D01*
X43584857Y-53067380D01*
X43680095Y-53019761D01*
X43727714Y-52972142D01*
X43775333Y-52876904D01*
X43775333Y-52781666D01*
X43727714Y-52686428D01*
X43680095Y-52638809D01*
X43584857Y-52591190D01*
X43394380Y-52543571D01*
X43299142Y-52495952D01*
X43251523Y-52448333D01*
X43203904Y-52353095D01*
X43203904Y-52257857D01*
X43251523Y-52162619D01*
X43299142Y-52115000D01*
X43394380Y-52067380D01*
X43632476Y-52067380D01*
X43775333Y-52115000D01*
X44537238Y-52543571D02*
X44680095Y-52591190D01*
X44727714Y-52638809D01*
X44775333Y-52734047D01*
X44775333Y-52876904D01*
X44727714Y-52972142D01*
X44680095Y-53019761D01*
X44584857Y-53067380D01*
X44203904Y-53067380D01*
X44203904Y-52067380D01*
X44537238Y-52067380D01*
X44632476Y-52115000D01*
X44680095Y-52162619D01*
X44727714Y-52257857D01*
X44727714Y-52353095D01*
X44680095Y-52448333D01*
X44632476Y-52495952D01*
X44537238Y-52543571D01*
X44203904Y-52543571D01*
X45727714Y-53067380D02*
X45156285Y-53067380D01*
X45442000Y-53067380D02*
X45442000Y-52067380D01*
X45346761Y-52210238D01*
X45251523Y-52305476D01*
X45156285Y-52353095D01*
%TO.C,U1*%
X283912880Y-68071904D02*
X284722404Y-68071904D01*
X284817642Y-68024285D01*
X284865261Y-67976666D01*
X284912880Y-67881428D01*
X284912880Y-67690952D01*
X284865261Y-67595714D01*
X284817642Y-67548095D01*
X284722404Y-67500476D01*
X283912880Y-67500476D01*
X284912880Y-66500476D02*
X284912880Y-67071904D01*
X284912880Y-66786190D02*
X283912880Y-66786190D01*
X284055738Y-66881428D01*
X284150976Y-66976666D01*
X284198595Y-67071904D01*
%TO.C,Reset1*%
X313193714Y-63222380D02*
X312860380Y-62746190D01*
X312622285Y-63222380D02*
X312622285Y-62222380D01*
X313003238Y-62222380D01*
X313098476Y-62270000D01*
X313146095Y-62317619D01*
X313193714Y-62412857D01*
X313193714Y-62555714D01*
X313146095Y-62650952D01*
X313098476Y-62698571D01*
X313003238Y-62746190D01*
X312622285Y-62746190D01*
X314003238Y-63174761D02*
X313908000Y-63222380D01*
X313717523Y-63222380D01*
X313622285Y-63174761D01*
X313574666Y-63079523D01*
X313574666Y-62698571D01*
X313622285Y-62603333D01*
X313717523Y-62555714D01*
X313908000Y-62555714D01*
X314003238Y-62603333D01*
X314050857Y-62698571D01*
X314050857Y-62793809D01*
X313574666Y-62889047D01*
X314431809Y-63174761D02*
X314527047Y-63222380D01*
X314717523Y-63222380D01*
X314812761Y-63174761D01*
X314860380Y-63079523D01*
X314860380Y-63031904D01*
X314812761Y-62936666D01*
X314717523Y-62889047D01*
X314574666Y-62889047D01*
X314479428Y-62841428D01*
X314431809Y-62746190D01*
X314431809Y-62698571D01*
X314479428Y-62603333D01*
X314574666Y-62555714D01*
X314717523Y-62555714D01*
X314812761Y-62603333D01*
X315669904Y-63174761D02*
X315574666Y-63222380D01*
X315384190Y-63222380D01*
X315288952Y-63174761D01*
X315241333Y-63079523D01*
X315241333Y-62698571D01*
X315288952Y-62603333D01*
X315384190Y-62555714D01*
X315574666Y-62555714D01*
X315669904Y-62603333D01*
X315717523Y-62698571D01*
X315717523Y-62793809D01*
X315241333Y-62889047D01*
X316003238Y-62555714D02*
X316384190Y-62555714D01*
X316146095Y-62222380D02*
X316146095Y-63079523D01*
X316193714Y-63174761D01*
X316288952Y-63222380D01*
X316384190Y-63222380D01*
X317241333Y-63222380D02*
X316669904Y-63222380D01*
X316955619Y-63222380D02*
X316955619Y-62222380D01*
X316860380Y-62365238D01*
X316765142Y-62460476D01*
X316669904Y-62508095D01*
%TO.C,R4*%
X320889333Y-77498380D02*
X320556000Y-77022190D01*
X320317904Y-77498380D02*
X320317904Y-76498380D01*
X320698857Y-76498380D01*
X320794095Y-76546000D01*
X320841714Y-76593619D01*
X320889333Y-76688857D01*
X320889333Y-76831714D01*
X320841714Y-76926952D01*
X320794095Y-76974571D01*
X320698857Y-77022190D01*
X320317904Y-77022190D01*
X321746476Y-76831714D02*
X321746476Y-77498380D01*
X321508380Y-76450761D02*
X321270285Y-77165047D01*
X321889333Y-77165047D01*
%TO.C,R3*%
X93840380Y-67476666D02*
X93364190Y-67810000D01*
X93840380Y-68048095D02*
X92840380Y-68048095D01*
X92840380Y-67667142D01*
X92888000Y-67571904D01*
X92935619Y-67524285D01*
X93030857Y-67476666D01*
X93173714Y-67476666D01*
X93268952Y-67524285D01*
X93316571Y-67571904D01*
X93364190Y-67667142D01*
X93364190Y-68048095D01*
X92840380Y-67143333D02*
X92840380Y-66524285D01*
X93221333Y-66857619D01*
X93221333Y-66714761D01*
X93268952Y-66619523D01*
X93316571Y-66571904D01*
X93411809Y-66524285D01*
X93649904Y-66524285D01*
X93745142Y-66571904D01*
X93792761Y-66619523D01*
X93840380Y-66714761D01*
X93840380Y-67000476D01*
X93792761Y-67095714D01*
X93745142Y-67143333D01*
%TO.C,R2*%
X89522380Y-67476666D02*
X89046190Y-67810000D01*
X89522380Y-68048095D02*
X88522380Y-68048095D01*
X88522380Y-67667142D01*
X88570000Y-67571904D01*
X88617619Y-67524285D01*
X88712857Y-67476666D01*
X88855714Y-67476666D01*
X88950952Y-67524285D01*
X88998571Y-67571904D01*
X89046190Y-67667142D01*
X89046190Y-68048095D01*
X88617619Y-67095714D02*
X88570000Y-67048095D01*
X88522380Y-66952857D01*
X88522380Y-66714761D01*
X88570000Y-66619523D01*
X88617619Y-66571904D01*
X88712857Y-66524285D01*
X88808095Y-66524285D01*
X88950952Y-66571904D01*
X89522380Y-67143333D01*
X89522380Y-66524285D01*
%TO.C,R1*%
X84950380Y-67476666D02*
X84474190Y-67810000D01*
X84950380Y-68048095D02*
X83950380Y-68048095D01*
X83950380Y-67667142D01*
X83998000Y-67571904D01*
X84045619Y-67524285D01*
X84140857Y-67476666D01*
X84283714Y-67476666D01*
X84378952Y-67524285D01*
X84426571Y-67571904D01*
X84474190Y-67667142D01*
X84474190Y-68048095D01*
X84950380Y-66524285D02*
X84950380Y-67095714D01*
X84950380Y-66810000D02*
X83950380Y-66810000D01*
X84093238Y-66905238D01*
X84188476Y-67000476D01*
X84236095Y-67095714D01*
%TO.C,J1*%
X360667666Y-59539380D02*
X360667666Y-60253666D01*
X360620047Y-60396523D01*
X360524809Y-60491761D01*
X360381952Y-60539380D01*
X360286714Y-60539380D01*
X361667666Y-60539380D02*
X361096238Y-60539380D01*
X361381952Y-60539380D02*
X361381952Y-59539380D01*
X361286714Y-59682238D01*
X361191476Y-59777476D01*
X361096238Y-59825095D01*
%TO.C,F1*%
X60897666Y-73998571D02*
X60564333Y-73998571D01*
X60564333Y-74522380D02*
X60564333Y-73522380D01*
X61040523Y-73522380D01*
X61945285Y-74522380D02*
X61373857Y-74522380D01*
X61659571Y-74522380D02*
X61659571Y-73522380D01*
X61564333Y-73665238D01*
X61469095Y-73760476D01*
X61373857Y-73808095D01*
%TO.C,D2*%
X102091380Y-68175095D02*
X101091380Y-68175095D01*
X101091380Y-67937000D01*
X101139000Y-67794142D01*
X101234238Y-67698904D01*
X101329476Y-67651285D01*
X101519952Y-67603666D01*
X101662809Y-67603666D01*
X101853285Y-67651285D01*
X101948523Y-67698904D01*
X102043761Y-67794142D01*
X102091380Y-67937000D01*
X102091380Y-68175095D01*
X101186619Y-67222714D02*
X101139000Y-67175095D01*
X101091380Y-67079857D01*
X101091380Y-66841761D01*
X101139000Y-66746523D01*
X101186619Y-66698904D01*
X101281857Y-66651285D01*
X101377095Y-66651285D01*
X101519952Y-66698904D01*
X102091380Y-67270333D01*
X102091380Y-66651285D01*
X102411380Y-71508904D02*
X101411380Y-71508904D01*
X102411380Y-70937476D02*
X101839952Y-71366047D01*
X101411380Y-70937476D02*
X101982809Y-71508904D01*
%TO.C,D1*%
X98535380Y-68175095D02*
X97535380Y-68175095D01*
X97535380Y-67937000D01*
X97583000Y-67794142D01*
X97678238Y-67698904D01*
X97773476Y-67651285D01*
X97963952Y-67603666D01*
X98106809Y-67603666D01*
X98297285Y-67651285D01*
X98392523Y-67698904D01*
X98487761Y-67794142D01*
X98535380Y-67937000D01*
X98535380Y-68175095D01*
X98535380Y-66651285D02*
X98535380Y-67222714D01*
X98535380Y-66937000D02*
X97535380Y-66937000D01*
X97678238Y-67032238D01*
X97773476Y-67127476D01*
X97821095Y-67222714D01*
X98855380Y-71508904D02*
X97855380Y-71508904D01*
X98855380Y-70937476D02*
X98283952Y-71366047D01*
X97855380Y-70937476D02*
X98426809Y-71508904D01*
%TO.C,C5*%
X288972333Y-57420142D02*
X288924714Y-57467761D01*
X288781857Y-57515380D01*
X288686619Y-57515380D01*
X288543761Y-57467761D01*
X288448523Y-57372523D01*
X288400904Y-57277285D01*
X288353285Y-57086809D01*
X288353285Y-56943952D01*
X288400904Y-56753476D01*
X288448523Y-56658238D01*
X288543761Y-56563000D01*
X288686619Y-56515380D01*
X288781857Y-56515380D01*
X288924714Y-56563000D01*
X288972333Y-56610619D01*
X289877095Y-56515380D02*
X289400904Y-56515380D01*
X289353285Y-56991571D01*
X289400904Y-56943952D01*
X289496142Y-56896333D01*
X289734238Y-56896333D01*
X289829476Y-56943952D01*
X289877095Y-56991571D01*
X289924714Y-57086809D01*
X289924714Y-57324904D01*
X289877095Y-57420142D01*
X289829476Y-57467761D01*
X289734238Y-57515380D01*
X289496142Y-57515380D01*
X289400904Y-57467761D01*
X289353285Y-57420142D01*
%TO.C,C4*%
X289099333Y-72914142D02*
X289051714Y-72961761D01*
X288908857Y-73009380D01*
X288813619Y-73009380D01*
X288670761Y-72961761D01*
X288575523Y-72866523D01*
X288527904Y-72771285D01*
X288480285Y-72580809D01*
X288480285Y-72437952D01*
X288527904Y-72247476D01*
X288575523Y-72152238D01*
X288670761Y-72057000D01*
X288813619Y-72009380D01*
X288908857Y-72009380D01*
X289051714Y-72057000D01*
X289099333Y-72104619D01*
X289956476Y-72342714D02*
X289956476Y-73009380D01*
X289718380Y-71961761D02*
X289480285Y-72676047D01*
X290099333Y-72676047D01*
%TO.C,C3*%
X257877333Y-76085142D02*
X257829714Y-76132761D01*
X257686857Y-76180380D01*
X257591619Y-76180380D01*
X257448761Y-76132761D01*
X257353523Y-76037523D01*
X257305904Y-75942285D01*
X257258285Y-75751809D01*
X257258285Y-75608952D01*
X257305904Y-75418476D01*
X257353523Y-75323238D01*
X257448761Y-75228000D01*
X257591619Y-75180380D01*
X257686857Y-75180380D01*
X257829714Y-75228000D01*
X257877333Y-75275619D01*
X258210666Y-75180380D02*
X258829714Y-75180380D01*
X258496380Y-75561333D01*
X258639238Y-75561333D01*
X258734476Y-75608952D01*
X258782095Y-75656571D01*
X258829714Y-75751809D01*
X258829714Y-75989904D01*
X258782095Y-76085142D01*
X258734476Y-76132761D01*
X258639238Y-76180380D01*
X258353523Y-76180380D01*
X258258285Y-76132761D01*
X258210666Y-76085142D01*
%TO.C,C2*%
X257917333Y-59249142D02*
X257869714Y-59296761D01*
X257726857Y-59344380D01*
X257631619Y-59344380D01*
X257488761Y-59296761D01*
X257393523Y-59201523D01*
X257345904Y-59106285D01*
X257298285Y-58915809D01*
X257298285Y-58772952D01*
X257345904Y-58582476D01*
X257393523Y-58487238D01*
X257488761Y-58392000D01*
X257631619Y-58344380D01*
X257726857Y-58344380D01*
X257869714Y-58392000D01*
X257917333Y-58439619D01*
X258298285Y-58439619D02*
X258345904Y-58392000D01*
X258441142Y-58344380D01*
X258679238Y-58344380D01*
X258774476Y-58392000D01*
X258822095Y-58439619D01*
X258869714Y-58534857D01*
X258869714Y-58630095D01*
X258822095Y-58772952D01*
X258250666Y-59344380D01*
X258869714Y-59344380D01*
%TO.C,C1*%
X73354333Y-68227142D02*
X73306714Y-68274761D01*
X73163857Y-68322380D01*
X73068619Y-68322380D01*
X72925761Y-68274761D01*
X72830523Y-68179523D01*
X72782904Y-68084285D01*
X72735285Y-67893809D01*
X72735285Y-67750952D01*
X72782904Y-67560476D01*
X72830523Y-67465238D01*
X72925761Y-67370000D01*
X73068619Y-67322380D01*
X73163857Y-67322380D01*
X73306714Y-67370000D01*
X73354333Y-67417619D01*
X74306714Y-68322380D02*
X73735285Y-68322380D01*
X74021000Y-68322380D02*
X74021000Y-67322380D01*
X73925761Y-67465238D01*
X73830523Y-67560476D01*
X73735285Y-67608095D01*
%TO.C,Boot1*%
X326266761Y-62698571D02*
X326409619Y-62746190D01*
X326457238Y-62793809D01*
X326504857Y-62889047D01*
X326504857Y-63031904D01*
X326457238Y-63127142D01*
X326409619Y-63174761D01*
X326314380Y-63222380D01*
X325933428Y-63222380D01*
X325933428Y-62222380D01*
X326266761Y-62222380D01*
X326362000Y-62270000D01*
X326409619Y-62317619D01*
X326457238Y-62412857D01*
X326457238Y-62508095D01*
X326409619Y-62603333D01*
X326362000Y-62650952D01*
X326266761Y-62698571D01*
X325933428Y-62698571D01*
X327076285Y-63222380D02*
X326981047Y-63174761D01*
X326933428Y-63127142D01*
X326885809Y-63031904D01*
X326885809Y-62746190D01*
X326933428Y-62650952D01*
X326981047Y-62603333D01*
X327076285Y-62555714D01*
X327219142Y-62555714D01*
X327314380Y-62603333D01*
X327362000Y-62650952D01*
X327409619Y-62746190D01*
X327409619Y-63031904D01*
X327362000Y-63127142D01*
X327314380Y-63174761D01*
X327219142Y-63222380D01*
X327076285Y-63222380D01*
X327981047Y-63222380D02*
X327885809Y-63174761D01*
X327838190Y-63127142D01*
X327790571Y-63031904D01*
X327790571Y-62746190D01*
X327838190Y-62650952D01*
X327885809Y-62603333D01*
X327981047Y-62555714D01*
X328123904Y-62555714D01*
X328219142Y-62603333D01*
X328266761Y-62650952D01*
X328314380Y-62746190D01*
X328314380Y-63031904D01*
X328266761Y-63127142D01*
X328219142Y-63174761D01*
X328123904Y-63222380D01*
X327981047Y-63222380D01*
X328600095Y-62555714D02*
X328981047Y-62555714D01*
X328742952Y-62222380D02*
X328742952Y-63079523D01*
X328790571Y-63174761D01*
X328885809Y-63222380D01*
X328981047Y-63222380D01*
X329838190Y-63222380D02*
X329266761Y-63222380D01*
X329552476Y-63222380D02*
X329552476Y-62222380D01*
X329457238Y-62365238D01*
X329362000Y-62460476D01*
X329266761Y-62508095D01*
%TD*%
M02*
