M48
; DRILL file {KiCad (5.1.6)-1} date 10/15/20 10:29:55
; FORMAT={-:-/ absolute / inch / decimal}
; #@! TF.CreationDate,2020-10-15T10:29:55+02:00
; #@! TF.GenerationSoftware,Kicad,Pcbnew,(5.1.6)-1
; #@! TF.FileFunction,NonPlated,1,2,NPTH
FMAT,2
INCH
T1C0.0689
T2C0.1200
T3C0.1570
%
G90
G05
T1
X7.5324Y-4.89
X7.9324Y-4.89
X11.8449Y-4.89
X12.2449Y-4.89
X8.4699Y-7.14
X8.8699Y-7.14
X6.482Y-3.71
X6.882Y-3.71
X0.7824Y-4.89
X1.1824Y-4.89
X6.7824Y-4.89
X7.1824Y-4.89
X7.3449Y-6.39
X7.7449Y-6.39
X10.7199Y-6.39
X11.1199Y-6.39
X2.8449Y-6.39
X3.2449Y-6.39
X4.3449Y-6.39
X4.7449Y-6.39
X14.5864Y-7.8895
X14.9864Y-7.8895
X0.7824Y-7.14
X1.1824Y-7.14
X8.8449Y-6.39
X9.2449Y-6.39
X3.032Y-3.71
X3.432Y-3.71
X11.888Y-3.71
X12.288Y-3.71
X2.6574Y-5.64
X3.0574Y-5.64
X7.686Y-3.71
X8.086Y-3.71
X0.9699Y-5.64
X1.3699Y-5.64
X9.936Y-3.71
X10.336Y-3.71
X5.0949Y-6.39
X5.4949Y-6.39
X11.7499Y-5.64
X12.1499Y-5.64
X14.5864Y-4.8895
X14.9864Y-4.8895
X3.9699Y-7.14
X4.3699Y-7.14
X11.8449Y-6.39
X12.2449Y-6.39
X3.2199Y-7.14
X3.6199Y-7.14
X10.1574Y-7.14
X10.5574Y-7.14
X4.7199Y-7.14
X5.1199Y-7.14
X14.5864Y-5.6395
X14.9864Y-5.6395
X1.9074Y-5.64
X2.3074Y-5.64
X4.982Y-3.71
X5.382Y-3.71
X9.2199Y-7.14
X9.6199Y-7.14
X4.9074Y-5.64
X5.3074Y-5.64
X11.138Y-3.71
X11.538Y-3.71
X2.4699Y-7.14
X2.8699Y-7.14
X15.3364Y-4.8895
X15.7364Y-4.8895
X5.6574Y-5.64
X6.0574Y-5.64
X2.0949Y-6.39
X2.4949Y-6.39
X9.5949Y-7.89
X9.9949Y-7.89
X8.6574Y-5.64
X9.0574Y-5.64
X13.4614Y-7.8895
X13.8614Y-7.8895
X6.9699Y-7.14
X7.3699Y-7.14
X14.587Y-3.71
X14.987Y-3.71
X9.186Y-3.71
X9.586Y-3.71
X11.0949Y-7.14
X11.4949Y-7.14
X9.0324Y-4.89
X9.4324Y-4.89
X4.1574Y-5.64
X4.5574Y-5.64
X6.2199Y-7.14
X6.6199Y-7.14
X1.5324Y-4.89
X1.9324Y-4.89
X5.5574Y-7.89
X5.9574Y-7.89
X6.4074Y-5.64
X6.8074Y-5.64
X15.5364Y-7.3145
X15.5364Y-7.7145
X13.8364Y-6.3895
X14.2364Y-6.3895
X2.282Y-3.71
X2.682Y-3.71
X10.3449Y-7.89
X10.7449Y-7.89
X9.4074Y-5.64
X9.8074Y-5.64
X10.1574Y-5.64
X10.5574Y-5.64
X3.7824Y-4.89
X4.1824Y-4.89
X13.388Y-3.71
X13.788Y-3.71
X8.436Y-3.71
X8.836Y-3.71
X13.8364Y-7.1395
X14.2364Y-7.1395
X12.638Y-3.71
X13.038Y-3.71
X5.4699Y-7.14
X5.8699Y-7.14
X13.0864Y-4.8895
X13.4864Y-4.8895
X10.8134Y-4.89
X11.2134Y-4.89
X7.1574Y-5.64
X7.5574Y-5.64
X14.5864Y-6.3895
X14.9864Y-6.3895
X0.782Y-3.71
X1.182Y-3.71
X1.1574Y-7.89
X1.5574Y-7.89
X6.5949Y-6.39
X6.9949Y-6.39
X10.9074Y-5.64
X11.3074Y-5.64
X8.2824Y-4.89
X8.6824Y-4.89
X1.0624Y-6.39
X1.4624Y-6.39
X5.732Y-3.71
X6.132Y-3.71
X1.6274Y-7.14
X2.0274Y-7.14
X15.337Y-3.71
X15.737Y-3.71
X7.7199Y-7.14
X8.1199Y-7.14
X3.0324Y-4.89
X3.4324Y-4.89
X8.0949Y-6.39
X8.4949Y-6.39
X2.2824Y-4.89
X2.6824Y-4.89
X7.9074Y-5.64
X8.3074Y-5.64
X5.8449Y-6.39
X6.2449Y-6.39
X11.0949Y-7.89
X11.4949Y-7.89
X9.5949Y-6.39
X9.9949Y-6.39
X13.0864Y-5.6395
X13.4864Y-5.6395
X9.7824Y-4.89
X10.1824Y-4.89
X13.8364Y-4.8895
X14.2364Y-4.8895
X5.2824Y-4.89
X5.6824Y-4.89
X13.0864Y-7.1395
X13.4864Y-7.1395
X3.4074Y-5.64
X3.8074Y-5.64
X11.8449Y-7.14
X12.2449Y-7.14
X4.5324Y-4.89
X4.9324Y-4.89
X15.3364Y-5.6395
X15.7364Y-5.6395
X6.0324Y-4.89
X6.4324Y-4.89
X13.8364Y-5.6395
X14.2364Y-5.6395
X14.5864Y-7.1395
X14.9864Y-7.1395
X13.0864Y-6.3895
X13.4864Y-6.3895
X11.8449Y-7.89
X12.2449Y-7.89
X15.3364Y-6.3895
X15.7364Y-6.3895
X1.532Y-3.71
X1.932Y-3.71
X3.5949Y-6.39
X3.9949Y-6.39
X4.232Y-3.71
X4.632Y-3.71
T2
X3.1216Y-7.615
X8.3933Y-7.615
T3
X8.4824Y-4.89
X1.2624Y-6.39
X5.932Y-3.71
X1.8274Y-7.14
X15.537Y-3.71
X7.9199Y-7.14
X3.2324Y-4.89
X8.2949Y-6.39
X2.4824Y-4.89
X8.1074Y-5.64
X6.0449Y-6.39
X11.2949Y-7.89
X9.7949Y-6.39
X13.2864Y-5.6395
X9.9824Y-4.89
X14.0364Y-4.8895
X5.4824Y-4.89
X13.2864Y-7.1395
X3.6074Y-5.64
X12.0449Y-7.14
X4.7324Y-4.89
X15.5364Y-5.6395
X6.2324Y-4.89
X14.0364Y-5.6395
X14.7864Y-7.1395
X13.2864Y-6.3895
X12.0449Y-7.89
X15.5364Y-6.3895
X1.732Y-3.71
X3.7949Y-6.39
X4.432Y-3.71
X7.7324Y-4.89
X12.0449Y-4.89
X8.6699Y-7.14
X6.682Y-3.71
X0.9824Y-4.89
X6.9824Y-4.89
X7.5449Y-6.39
X10.9199Y-6.39
X3.0449Y-6.39
X4.5449Y-6.39
X14.7864Y-7.8895
X0.9824Y-7.14
X9.0449Y-6.39
X3.232Y-3.71
X12.088Y-3.71
X2.8574Y-5.64
X7.886Y-3.71
X1.1699Y-5.64
X10.136Y-3.71
X5.2949Y-6.39
X11.9499Y-5.64
X14.7864Y-4.8895
X4.1699Y-7.14
X12.0449Y-6.39
X3.4199Y-7.14
X10.3574Y-7.14
X4.9199Y-7.14
X14.7864Y-5.6395
X2.1074Y-5.64
X5.182Y-3.71
X9.4199Y-7.14
X5.1074Y-5.64
X11.338Y-3.71
X2.6699Y-7.14
X15.5364Y-4.8895
X5.8574Y-5.64
X2.2949Y-6.39
X9.7949Y-7.89
X8.8574Y-5.64
X13.6614Y-7.8895
X7.1699Y-7.14
X14.787Y-3.71
X9.386Y-3.71
X11.2949Y-7.14
X9.2324Y-4.89
X4.3574Y-5.64
X6.4199Y-7.14
X1.7324Y-4.89
X3.1216Y-8.215
X5.7574Y-7.89
X8.3933Y-8.215
X6.6074Y-5.64
X15.5364Y-7.5145
X14.0364Y-6.3895
X2.482Y-3.71
X10.5449Y-7.89
X9.6074Y-5.64
X10.3574Y-5.64
X3.9824Y-4.89
X13.588Y-3.71
X8.636Y-3.71
X14.0364Y-7.1395
X12.838Y-3.71
X5.6699Y-7.14
X13.2864Y-4.8895
X11.0134Y-4.89
X7.3574Y-5.64
X14.7864Y-6.3895
X0.982Y-3.71
X1.3574Y-7.89
X6.7949Y-6.39
X11.1074Y-5.64
T0
M30
