%TF.GenerationSoftware,KiCad,Pcbnew,(5.1.6)-1*%
%TF.CreationDate,2020-10-15T10:29:54+02:00*%
%TF.ProjectId,wy60_usb,77793630-5f75-4736-922e-6b696361645f,rev?*%
%TF.SameCoordinates,Original*%
%TF.FileFunction,Soldermask,Top*%
%TF.FilePolarity,Negative*%
%FSLAX46Y46*%
G04 Gerber Fmt 4.6, Leading zero omitted, Abs format (unit mm)*
G04 Created by KiCad (PCBNEW (5.1.6)-1) date 2020-10-15 10:29:54*
%MOMM*%
%LPD*%
G01*
G04 APERTURE LIST*
%ADD10C,0.010000*%
%ADD11O,1.850000X1.300000*%
%ADD12C,4.087800*%
%ADD13C,1.850000*%
%ADD14C,3.148000*%
%ADD15O,1.800000X2.800000*%
%ADD16O,1.700000X1.700000*%
%ADD17R,1.700000X1.700000*%
%ADD18C,1.600000*%
%ADD19C,2.100000*%
%ADD20C,1.700000*%
%ADD21O,1.800000X1.800000*%
%ADD22R,1.800000X1.800000*%
%ADD23C,1.300000*%
%ADD24R,1.300000X1.300000*%
G04 APERTURE END LIST*
D10*
%TO.C,G\u002A\u002A\u002A*%
G36*
X151892480Y-62162892D02*
G01*
X152002110Y-62223096D01*
X152118270Y-62333383D01*
X152233995Y-62481787D01*
X152342323Y-62656342D01*
X152436292Y-62845081D01*
X152508938Y-63036037D01*
X152553299Y-63217244D01*
X152563433Y-63316039D01*
X152550755Y-63442476D01*
X152507851Y-63516825D01*
X152443513Y-63536240D01*
X152366529Y-63497878D01*
X152289325Y-63404750D01*
X152219127Y-63293107D01*
X152144353Y-63174245D01*
X152127489Y-63147448D01*
X152045478Y-63017146D01*
X151995870Y-63091885D01*
X151856378Y-63265438D01*
X151659396Y-63453856D01*
X151408370Y-63654138D01*
X151119466Y-63854965D01*
X151028143Y-63936853D01*
X150942926Y-64049981D01*
X150877695Y-64172049D01*
X150846328Y-64280757D01*
X150845381Y-64295337D01*
X150827003Y-64358451D01*
X150815286Y-64374712D01*
X150792620Y-64420083D01*
X150757706Y-64516956D01*
X150713418Y-64655162D01*
X150662630Y-64824531D01*
X150608218Y-65014891D01*
X150553055Y-65216074D01*
X150500016Y-65417909D01*
X150451975Y-65610226D01*
X150411806Y-65782854D01*
X150394699Y-65862848D01*
X150364321Y-66007816D01*
X150336476Y-66131610D01*
X150306188Y-66254308D01*
X150268479Y-66395989D01*
X150218375Y-66576730D01*
X150213080Y-66595625D01*
X150135084Y-66868275D01*
X150069973Y-67084050D01*
X150018291Y-67241197D01*
X149985974Y-67325875D01*
X149961325Y-67386147D01*
X149922159Y-67485162D01*
X149876612Y-67602339D01*
X149873035Y-67611625D01*
X149655469Y-68093666D01*
X149389957Y-68535735D01*
X149078288Y-68935802D01*
X148722252Y-69291836D01*
X148323638Y-69601808D01*
X147891500Y-69859927D01*
X147512094Y-70035571D01*
X147113200Y-70181292D01*
X146707025Y-70294370D01*
X146305775Y-70372085D01*
X145921657Y-70411715D01*
X145566878Y-70410542D01*
X145462625Y-70401227D01*
X145029766Y-70332351D01*
X144613317Y-70223566D01*
X144204707Y-70071215D01*
X143795365Y-69871639D01*
X143376719Y-69621181D01*
X142967866Y-69336692D01*
X142762656Y-69184537D01*
X142577055Y-69045748D01*
X142417017Y-68924862D01*
X142288496Y-68826413D01*
X142197444Y-68754939D01*
X142149817Y-68714973D01*
X142144750Y-68709621D01*
X142113211Y-68681340D01*
X142043338Y-68625729D01*
X141946804Y-68551491D01*
X141835281Y-68467329D01*
X141720441Y-68381947D01*
X141613955Y-68304050D01*
X141527495Y-68242340D01*
X141472734Y-68205522D01*
X141459995Y-68199000D01*
X141425273Y-68182827D01*
X141356743Y-68141548D01*
X141309095Y-68110574D01*
X141201284Y-68042998D01*
X141074367Y-67969279D01*
X141009478Y-67933854D01*
X140842582Y-67845559D01*
X140628478Y-67931327D01*
X140339208Y-68016542D01*
X140044693Y-68045727D01*
X139755861Y-68019297D01*
X139483640Y-67937669D01*
X139370115Y-67883388D01*
X139188734Y-67785257D01*
X139209967Y-67972931D01*
X139219743Y-68078874D01*
X139216436Y-68138434D01*
X139196776Y-68167963D01*
X139168448Y-68180523D01*
X139086712Y-68187819D01*
X139011274Y-68149079D01*
X138930972Y-68057721D01*
X138910586Y-68028492D01*
X138816740Y-67871540D01*
X138757101Y-67720086D01*
X138725512Y-67552155D01*
X138715819Y-67345777D01*
X138715799Y-67333169D01*
X138725387Y-67125511D01*
X138755975Y-66970809D01*
X138810420Y-66861164D01*
X138891578Y-66788680D01*
X138917785Y-66774766D01*
X139004037Y-66748346D01*
X139082715Y-66765355D01*
X139087707Y-66767586D01*
X139126871Y-66788372D01*
X139148840Y-66816244D01*
X139156580Y-66866107D01*
X139153057Y-66952867D01*
X139144595Y-67053505D01*
X139122472Y-67303425D01*
X139310263Y-67413486D01*
X139428659Y-67478056D01*
X139546161Y-67534398D01*
X139622839Y-67565067D01*
X139751934Y-67591072D01*
X139915871Y-67600942D01*
X140088316Y-67595173D01*
X140242935Y-67574256D01*
X140323679Y-67551927D01*
X140428675Y-67516113D01*
X140526880Y-67488153D01*
X140539089Y-67485307D01*
X140661302Y-67445898D01*
X140812521Y-67379499D01*
X140970850Y-67297087D01*
X141114395Y-67209639D01*
X141175085Y-67166462D01*
X141314235Y-67067731D01*
X141418027Y-67012421D01*
X141493904Y-66997045D01*
X141523600Y-67003204D01*
X141566933Y-67048183D01*
X141565017Y-67125005D01*
X141519999Y-67223256D01*
X141462124Y-67301394D01*
X141400289Y-67376154D01*
X141359944Y-67429765D01*
X141351000Y-67446015D01*
X141378291Y-67465108D01*
X141442383Y-67479197D01*
X141516602Y-67485078D01*
X141574272Y-67479544D01*
X141585732Y-67474227D01*
X141632086Y-67450785D01*
X141719561Y-67414983D01*
X141827250Y-67375277D01*
X141965301Y-67316974D01*
X142106743Y-67241905D01*
X142192375Y-67186414D01*
X142334467Y-67084493D01*
X142436310Y-67017766D01*
X142506885Y-66981325D01*
X142555178Y-66970259D01*
X142579810Y-66974701D01*
X142613056Y-67016647D01*
X142609331Y-67091408D01*
X142573002Y-67183598D01*
X142508437Y-67277828D01*
X142487152Y-67301189D01*
X142424570Y-67369810D01*
X142410866Y-67399641D01*
X142447662Y-67394307D01*
X142516318Y-67366386D01*
X142648924Y-67294829D01*
X142812672Y-67184831D01*
X142995900Y-67044851D01*
X143186940Y-66883347D01*
X143206771Y-66865671D01*
X143324207Y-66762979D01*
X143407190Y-66698187D01*
X143466503Y-66664629D01*
X143512927Y-66655637D01*
X143540146Y-66659519D01*
X143628880Y-66693523D01*
X143669208Y-66748754D01*
X143676687Y-66815493D01*
X143679907Y-66859009D01*
X143699025Y-66883473D01*
X143748225Y-66894365D01*
X143841690Y-66897167D01*
X143888298Y-66897250D01*
X144050847Y-66891271D01*
X144202460Y-66870771D01*
X144351461Y-66831900D01*
X144506174Y-66770812D01*
X144674921Y-66683657D01*
X144866028Y-66566589D01*
X145087817Y-66415758D01*
X145348613Y-66227317D01*
X145367375Y-66213482D01*
X145483919Y-66132774D01*
X145596044Y-66064136D01*
X145683757Y-66019581D01*
X145700750Y-66013208D01*
X145978580Y-65934437D01*
X146223042Y-65891654D01*
X146409569Y-65881250D01*
X146590335Y-65875548D01*
X146785157Y-65859803D01*
X146981773Y-65836054D01*
X147167918Y-65806338D01*
X147331328Y-65772696D01*
X147459740Y-65737164D01*
X147540891Y-65701783D01*
X147554837Y-65690862D01*
X147611082Y-65664163D01*
X147651506Y-65659000D01*
X147722274Y-65642938D01*
X147827995Y-65600865D01*
X147950756Y-65541950D01*
X148072646Y-65475363D01*
X148175752Y-65410273D01*
X148240780Y-65357343D01*
X148281646Y-65303533D01*
X148279652Y-65278600D01*
X148274665Y-65278000D01*
X148215622Y-65256421D01*
X148138717Y-65202790D01*
X148062580Y-65133765D01*
X148005840Y-65066007D01*
X147986750Y-65020546D01*
X147996857Y-64980499D01*
X148031559Y-64949147D01*
X148097425Y-64925353D01*
X148201024Y-64907984D01*
X148348925Y-64895903D01*
X148547697Y-64887976D01*
X148780500Y-64883385D01*
X149012413Y-64879041D01*
X149191919Y-64872691D01*
X149330102Y-64863391D01*
X149438046Y-64850196D01*
X149526833Y-64832162D01*
X149588743Y-64814504D01*
X149688181Y-64781595D01*
X149733222Y-64761442D01*
X149730374Y-64748829D01*
X149686143Y-64738542D01*
X149683993Y-64738171D01*
X149612650Y-64712334D01*
X149583167Y-64654874D01*
X149579893Y-64632991D01*
X149580046Y-64563972D01*
X149605157Y-64509978D01*
X149664875Y-64462694D01*
X149768852Y-64413808D01*
X149885553Y-64369698D01*
X150120508Y-64273736D01*
X150295011Y-64176426D01*
X150408812Y-64079812D01*
X150444165Y-64034679D01*
X150432866Y-64012819D01*
X150370852Y-63997457D01*
X150278055Y-63956243D01*
X150232848Y-63888238D01*
X150233454Y-63806591D01*
X150278093Y-63724451D01*
X150364989Y-63654965D01*
X150420508Y-63630209D01*
X150640024Y-63544933D01*
X150862517Y-63446012D01*
X151070617Y-63341968D01*
X151246950Y-63241325D01*
X151340010Y-63179061D01*
X151427378Y-63105473D01*
X151521220Y-63011651D01*
X151609891Y-62911273D01*
X151681746Y-62818017D01*
X151725139Y-62745559D01*
X151732672Y-62717871D01*
X151715786Y-62677943D01*
X151673116Y-62605308D01*
X151637422Y-62550659D01*
X151567009Y-62428890D01*
X151546133Y-62336678D01*
X151575382Y-62263126D01*
X151655345Y-62197343D01*
X151656529Y-62196609D01*
X151738836Y-62152831D01*
X151806410Y-62143447D01*
X151892480Y-62162892D01*
G37*
X151892480Y-62162892D02*
X152002110Y-62223096D01*
X152118270Y-62333383D01*
X152233995Y-62481787D01*
X152342323Y-62656342D01*
X152436292Y-62845081D01*
X152508938Y-63036037D01*
X152553299Y-63217244D01*
X152563433Y-63316039D01*
X152550755Y-63442476D01*
X152507851Y-63516825D01*
X152443513Y-63536240D01*
X152366529Y-63497878D01*
X152289325Y-63404750D01*
X152219127Y-63293107D01*
X152144353Y-63174245D01*
X152127489Y-63147448D01*
X152045478Y-63017146D01*
X151995870Y-63091885D01*
X151856378Y-63265438D01*
X151659396Y-63453856D01*
X151408370Y-63654138D01*
X151119466Y-63854965D01*
X151028143Y-63936853D01*
X150942926Y-64049981D01*
X150877695Y-64172049D01*
X150846328Y-64280757D01*
X150845381Y-64295337D01*
X150827003Y-64358451D01*
X150815286Y-64374712D01*
X150792620Y-64420083D01*
X150757706Y-64516956D01*
X150713418Y-64655162D01*
X150662630Y-64824531D01*
X150608218Y-65014891D01*
X150553055Y-65216074D01*
X150500016Y-65417909D01*
X150451975Y-65610226D01*
X150411806Y-65782854D01*
X150394699Y-65862848D01*
X150364321Y-66007816D01*
X150336476Y-66131610D01*
X150306188Y-66254308D01*
X150268479Y-66395989D01*
X150218375Y-66576730D01*
X150213080Y-66595625D01*
X150135084Y-66868275D01*
X150069973Y-67084050D01*
X150018291Y-67241197D01*
X149985974Y-67325875D01*
X149961325Y-67386147D01*
X149922159Y-67485162D01*
X149876612Y-67602339D01*
X149873035Y-67611625D01*
X149655469Y-68093666D01*
X149389957Y-68535735D01*
X149078288Y-68935802D01*
X148722252Y-69291836D01*
X148323638Y-69601808D01*
X147891500Y-69859927D01*
X147512094Y-70035571D01*
X147113200Y-70181292D01*
X146707025Y-70294370D01*
X146305775Y-70372085D01*
X145921657Y-70411715D01*
X145566878Y-70410542D01*
X145462625Y-70401227D01*
X145029766Y-70332351D01*
X144613317Y-70223566D01*
X144204707Y-70071215D01*
X143795365Y-69871639D01*
X143376719Y-69621181D01*
X142967866Y-69336692D01*
X142762656Y-69184537D01*
X142577055Y-69045748D01*
X142417017Y-68924862D01*
X142288496Y-68826413D01*
X142197444Y-68754939D01*
X142149817Y-68714973D01*
X142144750Y-68709621D01*
X142113211Y-68681340D01*
X142043338Y-68625729D01*
X141946804Y-68551491D01*
X141835281Y-68467329D01*
X141720441Y-68381947D01*
X141613955Y-68304050D01*
X141527495Y-68242340D01*
X141472734Y-68205522D01*
X141459995Y-68199000D01*
X141425273Y-68182827D01*
X141356743Y-68141548D01*
X141309095Y-68110574D01*
X141201284Y-68042998D01*
X141074367Y-67969279D01*
X141009478Y-67933854D01*
X140842582Y-67845559D01*
X140628478Y-67931327D01*
X140339208Y-68016542D01*
X140044693Y-68045727D01*
X139755861Y-68019297D01*
X139483640Y-67937669D01*
X139370115Y-67883388D01*
X139188734Y-67785257D01*
X139209967Y-67972931D01*
X139219743Y-68078874D01*
X139216436Y-68138434D01*
X139196776Y-68167963D01*
X139168448Y-68180523D01*
X139086712Y-68187819D01*
X139011274Y-68149079D01*
X138930972Y-68057721D01*
X138910586Y-68028492D01*
X138816740Y-67871540D01*
X138757101Y-67720086D01*
X138725512Y-67552155D01*
X138715819Y-67345777D01*
X138715799Y-67333169D01*
X138725387Y-67125511D01*
X138755975Y-66970809D01*
X138810420Y-66861164D01*
X138891578Y-66788680D01*
X138917785Y-66774766D01*
X139004037Y-66748346D01*
X139082715Y-66765355D01*
X139087707Y-66767586D01*
X139126871Y-66788372D01*
X139148840Y-66816244D01*
X139156580Y-66866107D01*
X139153057Y-66952867D01*
X139144595Y-67053505D01*
X139122472Y-67303425D01*
X139310263Y-67413486D01*
X139428659Y-67478056D01*
X139546161Y-67534398D01*
X139622839Y-67565067D01*
X139751934Y-67591072D01*
X139915871Y-67600942D01*
X140088316Y-67595173D01*
X140242935Y-67574256D01*
X140323679Y-67551927D01*
X140428675Y-67516113D01*
X140526880Y-67488153D01*
X140539089Y-67485307D01*
X140661302Y-67445898D01*
X140812521Y-67379499D01*
X140970850Y-67297087D01*
X141114395Y-67209639D01*
X141175085Y-67166462D01*
X141314235Y-67067731D01*
X141418027Y-67012421D01*
X141493904Y-66997045D01*
X141523600Y-67003204D01*
X141566933Y-67048183D01*
X141565017Y-67125005D01*
X141519999Y-67223256D01*
X141462124Y-67301394D01*
X141400289Y-67376154D01*
X141359944Y-67429765D01*
X141351000Y-67446015D01*
X141378291Y-67465108D01*
X141442383Y-67479197D01*
X141516602Y-67485078D01*
X141574272Y-67479544D01*
X141585732Y-67474227D01*
X141632086Y-67450785D01*
X141719561Y-67414983D01*
X141827250Y-67375277D01*
X141965301Y-67316974D01*
X142106743Y-67241905D01*
X142192375Y-67186414D01*
X142334467Y-67084493D01*
X142436310Y-67017766D01*
X142506885Y-66981325D01*
X142555178Y-66970259D01*
X142579810Y-66974701D01*
X142613056Y-67016647D01*
X142609331Y-67091408D01*
X142573002Y-67183598D01*
X142508437Y-67277828D01*
X142487152Y-67301189D01*
X142424570Y-67369810D01*
X142410866Y-67399641D01*
X142447662Y-67394307D01*
X142516318Y-67366386D01*
X142648924Y-67294829D01*
X142812672Y-67184831D01*
X142995900Y-67044851D01*
X143186940Y-66883347D01*
X143206771Y-66865671D01*
X143324207Y-66762979D01*
X143407190Y-66698187D01*
X143466503Y-66664629D01*
X143512927Y-66655637D01*
X143540146Y-66659519D01*
X143628880Y-66693523D01*
X143669208Y-66748754D01*
X143676687Y-66815493D01*
X143679907Y-66859009D01*
X143699025Y-66883473D01*
X143748225Y-66894365D01*
X143841690Y-66897167D01*
X143888298Y-66897250D01*
X144050847Y-66891271D01*
X144202460Y-66870771D01*
X144351461Y-66831900D01*
X144506174Y-66770812D01*
X144674921Y-66683657D01*
X144866028Y-66566589D01*
X145087817Y-66415758D01*
X145348613Y-66227317D01*
X145367375Y-66213482D01*
X145483919Y-66132774D01*
X145596044Y-66064136D01*
X145683757Y-66019581D01*
X145700750Y-66013208D01*
X145978580Y-65934437D01*
X146223042Y-65891654D01*
X146409569Y-65881250D01*
X146590335Y-65875548D01*
X146785157Y-65859803D01*
X146981773Y-65836054D01*
X147167918Y-65806338D01*
X147331328Y-65772696D01*
X147459740Y-65737164D01*
X147540891Y-65701783D01*
X147554837Y-65690862D01*
X147611082Y-65664163D01*
X147651506Y-65659000D01*
X147722274Y-65642938D01*
X147827995Y-65600865D01*
X147950756Y-65541950D01*
X148072646Y-65475363D01*
X148175752Y-65410273D01*
X148240780Y-65357343D01*
X148281646Y-65303533D01*
X148279652Y-65278600D01*
X148274665Y-65278000D01*
X148215622Y-65256421D01*
X148138717Y-65202790D01*
X148062580Y-65133765D01*
X148005840Y-65066007D01*
X147986750Y-65020546D01*
X147996857Y-64980499D01*
X148031559Y-64949147D01*
X148097425Y-64925353D01*
X148201024Y-64907984D01*
X148348925Y-64895903D01*
X148547697Y-64887976D01*
X148780500Y-64883385D01*
X149012413Y-64879041D01*
X149191919Y-64872691D01*
X149330102Y-64863391D01*
X149438046Y-64850196D01*
X149526833Y-64832162D01*
X149588743Y-64814504D01*
X149688181Y-64781595D01*
X149733222Y-64761442D01*
X149730374Y-64748829D01*
X149686143Y-64738542D01*
X149683993Y-64738171D01*
X149612650Y-64712334D01*
X149583167Y-64654874D01*
X149579893Y-64632991D01*
X149580046Y-64563972D01*
X149605157Y-64509978D01*
X149664875Y-64462694D01*
X149768852Y-64413808D01*
X149885553Y-64369698D01*
X150120508Y-64273736D01*
X150295011Y-64176426D01*
X150408812Y-64079812D01*
X150444165Y-64034679D01*
X150432866Y-64012819D01*
X150370852Y-63997457D01*
X150278055Y-63956243D01*
X150232848Y-63888238D01*
X150233454Y-63806591D01*
X150278093Y-63724451D01*
X150364989Y-63654965D01*
X150420508Y-63630209D01*
X150640024Y-63544933D01*
X150862517Y-63446012D01*
X151070617Y-63341968D01*
X151246950Y-63241325D01*
X151340010Y-63179061D01*
X151427378Y-63105473D01*
X151521220Y-63011651D01*
X151609891Y-62911273D01*
X151681746Y-62818017D01*
X151725139Y-62745559D01*
X151732672Y-62717871D01*
X151715786Y-62677943D01*
X151673116Y-62605308D01*
X151637422Y-62550659D01*
X151567009Y-62428890D01*
X151546133Y-62336678D01*
X151575382Y-62263126D01*
X151655345Y-62197343D01*
X151656529Y-62196609D01*
X151738836Y-62152831D01*
X151806410Y-62143447D01*
X151892480Y-62162892D01*
G36*
X141719312Y-58762463D02*
G01*
X141865652Y-58803139D01*
X141866091Y-58803280D01*
X142100756Y-58909063D01*
X142291742Y-59060322D01*
X142437197Y-59254756D01*
X142535271Y-59490066D01*
X142575789Y-59685610D01*
X142573295Y-59896484D01*
X142515923Y-60106222D01*
X142411536Y-60303899D01*
X142267998Y-60478593D01*
X142093173Y-60619380D01*
X141894923Y-60715339D01*
X141818970Y-60736890D01*
X141671265Y-60758995D01*
X141507908Y-60764945D01*
X141354841Y-60755038D01*
X141239875Y-60730252D01*
X141036707Y-60628272D01*
X140856591Y-60482354D01*
X140711422Y-60305317D01*
X140613097Y-60109975D01*
X140589541Y-60029556D01*
X140557590Y-59766386D01*
X140583990Y-59521377D01*
X140664872Y-59300004D01*
X140796368Y-59107741D01*
X140974610Y-58950064D01*
X141195728Y-58832446D01*
X141455853Y-58760364D01*
X141490255Y-58754924D01*
X141602966Y-58747522D01*
X141719312Y-58762463D01*
G37*
X141719312Y-58762463D02*
X141865652Y-58803139D01*
X141866091Y-58803280D01*
X142100756Y-58909063D01*
X142291742Y-59060322D01*
X142437197Y-59254756D01*
X142535271Y-59490066D01*
X142575789Y-59685610D01*
X142573295Y-59896484D01*
X142515923Y-60106222D01*
X142411536Y-60303899D01*
X142267998Y-60478593D01*
X142093173Y-60619380D01*
X141894923Y-60715339D01*
X141818970Y-60736890D01*
X141671265Y-60758995D01*
X141507908Y-60764945D01*
X141354841Y-60755038D01*
X141239875Y-60730252D01*
X141036707Y-60628272D01*
X140856591Y-60482354D01*
X140711422Y-60305317D01*
X140613097Y-60109975D01*
X140589541Y-60029556D01*
X140557590Y-59766386D01*
X140583990Y-59521377D01*
X140664872Y-59300004D01*
X140796368Y-59107741D01*
X140974610Y-58950064D01*
X141195728Y-58832446D01*
X141455853Y-58760364D01*
X141490255Y-58754924D01*
X141602966Y-58747522D01*
X141719312Y-58762463D01*
G36*
X145367856Y-57465017D02*
G01*
X145579484Y-57529028D01*
X145777554Y-57634844D01*
X145946701Y-57771834D01*
X146071558Y-57929363D01*
X146091618Y-57965841D01*
X146179034Y-58169948D01*
X146220411Y-58353627D01*
X146219330Y-58536078D01*
X146210020Y-58600708D01*
X146137947Y-58859473D01*
X146019515Y-59075152D01*
X145855033Y-59247315D01*
X145647933Y-59374109D01*
X145525030Y-59414047D01*
X145367401Y-59442494D01*
X145196605Y-59457888D01*
X145034200Y-59458665D01*
X144901742Y-59443262D01*
X144859375Y-59431281D01*
X144707372Y-59353034D01*
X144552562Y-59236218D01*
X144413715Y-59097993D01*
X144309605Y-58955520D01*
X144283514Y-58904866D01*
X144250841Y-58794656D01*
X144232436Y-58638243D01*
X144227242Y-58483500D01*
X144235046Y-58277084D01*
X144267578Y-58112674D01*
X144331854Y-57971296D01*
X144434887Y-57833976D01*
X144489025Y-57775415D01*
X144663598Y-57632234D01*
X144867169Y-57527331D01*
X145083287Y-57466515D01*
X145295500Y-57455598D01*
X145367856Y-57465017D01*
G37*
X145367856Y-57465017D02*
X145579484Y-57529028D01*
X145777554Y-57634844D01*
X145946701Y-57771834D01*
X146071558Y-57929363D01*
X146091618Y-57965841D01*
X146179034Y-58169948D01*
X146220411Y-58353627D01*
X146219330Y-58536078D01*
X146210020Y-58600708D01*
X146137947Y-58859473D01*
X146019515Y-59075152D01*
X145855033Y-59247315D01*
X145647933Y-59374109D01*
X145525030Y-59414047D01*
X145367401Y-59442494D01*
X145196605Y-59457888D01*
X145034200Y-59458665D01*
X144901742Y-59443262D01*
X144859375Y-59431281D01*
X144707372Y-59353034D01*
X144552562Y-59236218D01*
X144413715Y-59097993D01*
X144309605Y-58955520D01*
X144283514Y-58904866D01*
X144250841Y-58794656D01*
X144232436Y-58638243D01*
X144227242Y-58483500D01*
X144235046Y-58277084D01*
X144267578Y-58112674D01*
X144331854Y-57971296D01*
X144434887Y-57833976D01*
X144489025Y-57775415D01*
X144663598Y-57632234D01*
X144867169Y-57527331D01*
X145083287Y-57466515D01*
X145295500Y-57455598D01*
X145367856Y-57465017D01*
G36*
X145712082Y-55678889D02*
G01*
X145972683Y-55706169D01*
X146169658Y-55753502D01*
X146300295Y-55798783D01*
X146426789Y-55846155D01*
X146510375Y-55880486D01*
X146610098Y-55922087D01*
X146699467Y-55955066D01*
X146716750Y-55960546D01*
X146801743Y-55998051D01*
X146875500Y-56044786D01*
X147104341Y-56224023D01*
X147288945Y-56380473D01*
X147439127Y-56524673D01*
X147564704Y-56667158D01*
X147675492Y-56818466D01*
X147781306Y-56989133D01*
X147821923Y-57060661D01*
X147902870Y-57234782D01*
X147978263Y-57448985D01*
X148041405Y-57679861D01*
X148085596Y-57904004D01*
X148101080Y-58036224D01*
X148108905Y-58154442D01*
X148118077Y-58237560D01*
X148138439Y-58292869D01*
X148179835Y-58327663D01*
X148252108Y-58349237D01*
X148365102Y-58364883D01*
X148528659Y-58381896D01*
X148574125Y-58386732D01*
X148827007Y-58417519D01*
X149100522Y-58456596D01*
X149366850Y-58499723D01*
X149598170Y-58542659D01*
X149601924Y-58543420D01*
X149719312Y-58555082D01*
X149861394Y-58552303D01*
X149935299Y-58544745D01*
X150021348Y-58532371D01*
X150096014Y-58519741D01*
X150173270Y-58503633D01*
X150267086Y-58480822D01*
X150391431Y-58448085D01*
X150560277Y-58402197D01*
X150599383Y-58391495D01*
X150745399Y-58355958D01*
X150847053Y-58346002D01*
X150919236Y-58364374D01*
X150976839Y-58413821D01*
X151016500Y-58468457D01*
X151054648Y-58567154D01*
X151074644Y-58704107D01*
X151076406Y-58856694D01*
X151059853Y-59002295D01*
X151024900Y-59118291D01*
X151018910Y-59130186D01*
X150984137Y-59202885D01*
X150970944Y-59247701D01*
X150972642Y-59252908D01*
X151008316Y-59264805D01*
X151096948Y-59290245D01*
X151230009Y-59326901D01*
X151398972Y-59372448D01*
X151595309Y-59424559D01*
X151765000Y-59469057D01*
X151885932Y-59512128D01*
X152036946Y-59582304D01*
X152197384Y-59668514D01*
X152346585Y-59759686D01*
X152459955Y-59841507D01*
X152551996Y-59930414D01*
X152651291Y-60047081D01*
X152724091Y-60148162D01*
X152803100Y-60291029D01*
X152832822Y-60406132D01*
X152814101Y-60504684D01*
X152757164Y-60587795D01*
X152736065Y-60615651D01*
X152732223Y-60644105D01*
X152751756Y-60682275D01*
X152800779Y-60739280D01*
X152885410Y-60824238D01*
X152971854Y-60907863D01*
X153091958Y-61021482D01*
X153183439Y-61100097D01*
X153262251Y-61153925D01*
X153344346Y-61193187D01*
X153445680Y-61228100D01*
X153495375Y-61243197D01*
X153670261Y-61304782D01*
X153789237Y-61371275D01*
X153859870Y-61449272D01*
X153889725Y-61545368D01*
X153891952Y-61588832D01*
X153867373Y-61714914D01*
X153799872Y-61862936D01*
X153697960Y-62017600D01*
X153574634Y-62159145D01*
X153440564Y-62293214D01*
X153600621Y-62437119D01*
X153737681Y-62581137D01*
X153866953Y-62754914D01*
X153981643Y-62945110D01*
X154074954Y-63138386D01*
X154140091Y-63321402D01*
X154170257Y-63480819D01*
X154169470Y-63553692D01*
X154143754Y-63677650D01*
X154093444Y-63753556D01*
X154007177Y-63795465D01*
X153966530Y-63804675D01*
X153893125Y-63825969D01*
X153871985Y-63857115D01*
X153876609Y-63876953D01*
X153947436Y-64122696D01*
X153981803Y-64386212D01*
X153980460Y-64651998D01*
X153944157Y-64904550D01*
X153873643Y-65128364D01*
X153810185Y-65250509D01*
X153747206Y-65361880D01*
X153690357Y-65480537D01*
X153682044Y-65500565D01*
X153620491Y-65612858D01*
X153539674Y-65672637D01*
X153424709Y-65690737D01*
X153420796Y-65690750D01*
X153372328Y-65693019D01*
X153342641Y-65708745D01*
X153325102Y-65751307D01*
X153313079Y-65834082D01*
X153304113Y-65926107D01*
X153301502Y-66115191D01*
X153326196Y-66295907D01*
X153374380Y-66449821D01*
X153432796Y-66548000D01*
X153495460Y-66637018D01*
X153557124Y-66748724D01*
X153607295Y-66861168D01*
X153635481Y-66952398D01*
X153638250Y-66977833D01*
X153609214Y-67098130D01*
X153528253Y-67197489D01*
X153404583Y-67272114D01*
X153247421Y-67318205D01*
X153065985Y-67331967D01*
X152869491Y-67309601D01*
X152845656Y-67304382D01*
X152815882Y-67319415D01*
X152789292Y-67384095D01*
X152763846Y-67500500D01*
X152680203Y-67831335D01*
X152553212Y-68156070D01*
X152390004Y-68462313D01*
X152197711Y-68737671D01*
X151983465Y-68969753D01*
X151857316Y-69075625D01*
X151758775Y-69145742D01*
X151671315Y-69200770D01*
X151617384Y-69227340D01*
X151564805Y-69264072D01*
X151496202Y-69337876D01*
X151439290Y-69414340D01*
X151296596Y-69603352D01*
X151120365Y-69799107D01*
X150918636Y-69995670D01*
X150699448Y-70187107D01*
X150470840Y-70367484D01*
X150240849Y-70530866D01*
X150017515Y-70671319D01*
X149808875Y-70782909D01*
X149622969Y-70859700D01*
X149467834Y-70895759D01*
X149429926Y-70897750D01*
X149352749Y-70920140D01*
X149252005Y-70980854D01*
X149198946Y-71022113D01*
X148987135Y-71183946D01*
X148780660Y-71312472D01*
X148587954Y-71403758D01*
X148417452Y-71453874D01*
X148277590Y-71458890D01*
X148266047Y-71456846D01*
X148187314Y-71453167D01*
X148099135Y-71476685D01*
X147989342Y-71532402D01*
X147845771Y-71625314D01*
X147830673Y-71635743D01*
X147738863Y-71696753D01*
X147666824Y-71739748D01*
X147631605Y-71755000D01*
X147590691Y-71770711D01*
X147517845Y-71810552D01*
X147476594Y-71835735D01*
X147347271Y-71904605D01*
X147174216Y-71978802D01*
X146976020Y-72051479D01*
X146771272Y-72115788D01*
X146589750Y-72162421D01*
X146406533Y-72192218D01*
X146191889Y-72209888D01*
X145964190Y-72215513D01*
X145741804Y-72209175D01*
X145543102Y-72190957D01*
X145386453Y-72160941D01*
X145372801Y-72156989D01*
X145268654Y-72127149D01*
X145199419Y-72117249D01*
X145139306Y-72128584D01*
X145062526Y-72162452D01*
X145039426Y-72173746D01*
X144889096Y-72223215D01*
X144696542Y-72249969D01*
X144479177Y-72253112D01*
X144254413Y-72231745D01*
X144176750Y-72218218D01*
X144030123Y-72186095D01*
X143874030Y-72146991D01*
X143785581Y-72122145D01*
X143679381Y-72092752D01*
X143614458Y-72083939D01*
X143572261Y-72095008D01*
X143547456Y-72113209D01*
X143420505Y-72183893D01*
X143252348Y-72216539D01*
X143050788Y-72213491D01*
X142823627Y-72177091D01*
X142578668Y-72109680D01*
X142323713Y-72013601D01*
X142066565Y-71891196D01*
X141815025Y-71744807D01*
X141576897Y-71576777D01*
X141470286Y-71489669D01*
X141287948Y-71333116D01*
X141221919Y-71417058D01*
X141171979Y-71468064D01*
X141111492Y-71493147D01*
X141016823Y-71500808D01*
X140988541Y-71501000D01*
X140777918Y-71475857D01*
X140544535Y-71404036D01*
X140301952Y-71290950D01*
X140063723Y-71142012D01*
X140032409Y-71119286D01*
X139948136Y-71050257D01*
X139844764Y-70955535D01*
X139731710Y-70845017D01*
X139618389Y-70728603D01*
X139514219Y-70616192D01*
X139428616Y-70517683D01*
X139370997Y-70442974D01*
X139350750Y-70402714D01*
X139330655Y-70387204D01*
X139266733Y-70403211D01*
X139176801Y-70441149D01*
X139065104Y-70480000D01*
X138924798Y-70511393D01*
X138772761Y-70533622D01*
X138625874Y-70544981D01*
X138501016Y-70543766D01*
X138415068Y-70528270D01*
X138398250Y-70519820D01*
X138376934Y-70492124D01*
X138362719Y-70436740D01*
X138354396Y-70343407D01*
X138350757Y-70201863D01*
X138350317Y-70113070D01*
X138350711Y-69991469D01*
X138349873Y-69896979D01*
X138344430Y-69818992D01*
X138331011Y-69746896D01*
X138306241Y-69670080D01*
X138266750Y-69577934D01*
X138209163Y-69459847D01*
X138130110Y-69305209D01*
X138034605Y-69119750D01*
X137955234Y-68962383D01*
X137870000Y-68789011D01*
X137794887Y-68632231D01*
X137781591Y-68603812D01*
X137727284Y-68492634D01*
X137680925Y-68407852D01*
X137649978Y-68362739D01*
X137643758Y-68358759D01*
X137602775Y-68376822D01*
X137558744Y-68406384D01*
X137462282Y-68447341D01*
X137359348Y-68443314D01*
X137276486Y-68395416D01*
X137275654Y-68394505D01*
X137240977Y-68338764D01*
X137194230Y-68240646D01*
X137143638Y-68117944D01*
X137125483Y-68069583D01*
X137084772Y-67951516D01*
X137056116Y-67846925D01*
X137036694Y-67738275D01*
X137023683Y-67608037D01*
X137014260Y-67438676D01*
X137010944Y-67358140D01*
X137005335Y-67119665D01*
X137009867Y-66923398D01*
X137025492Y-66748712D01*
X137045069Y-66619423D01*
X137067609Y-66486371D01*
X137085127Y-66374713D01*
X137095114Y-66300855D01*
X137096500Y-66283136D01*
X137068937Y-66248476D01*
X136999894Y-66212856D01*
X136969371Y-66202462D01*
X136839072Y-66136133D01*
X136758256Y-66030433D01*
X136727084Y-65885983D01*
X136745718Y-65703406D01*
X136752600Y-65679938D01*
X137202105Y-65679938D01*
X137244517Y-65682288D01*
X137314694Y-65651566D01*
X137394257Y-65598321D01*
X137464827Y-65533104D01*
X137471604Y-65525232D01*
X137567387Y-65411144D01*
X137632348Y-65337733D01*
X137676535Y-65297076D01*
X137709996Y-65281254D01*
X137742782Y-65282343D01*
X137771216Y-65289053D01*
X137853184Y-65339197D01*
X137896828Y-65436523D01*
X137902019Y-65577482D01*
X137868626Y-65758526D01*
X137796519Y-65976107D01*
X137796366Y-65976500D01*
X137688932Y-66265024D01*
X137609026Y-66513936D01*
X137553204Y-66739060D01*
X137518021Y-66956220D01*
X137500035Y-67181238D01*
X137495796Y-67357625D01*
X137497809Y-67546772D01*
X137505955Y-67683367D01*
X137519615Y-67765180D01*
X137538168Y-67789980D01*
X137560995Y-67755538D01*
X137583971Y-67675125D01*
X137625762Y-67563445D01*
X137693197Y-67450452D01*
X137772179Y-67355558D01*
X137848608Y-67298176D01*
X137861323Y-67293228D01*
X137929659Y-67286658D01*
X137975516Y-67322370D01*
X138002247Y-67406665D01*
X138013209Y-67545842D01*
X138013791Y-67579598D01*
X138025189Y-67780704D01*
X138057392Y-67979207D01*
X138113757Y-68184462D01*
X138197640Y-68405826D01*
X138312396Y-68652655D01*
X138461382Y-68934306D01*
X138566207Y-69119750D01*
X138681918Y-69328158D01*
X138765116Y-69497677D01*
X138820676Y-69640748D01*
X138853473Y-69769808D01*
X138867916Y-69889687D01*
X138877579Y-69997003D01*
X138889801Y-70073883D01*
X138901969Y-70103987D01*
X138902195Y-70104000D01*
X138946301Y-70075337D01*
X138976282Y-70000264D01*
X138987546Y-69895147D01*
X138982541Y-69817597D01*
X138980036Y-69677189D01*
X139007387Y-69556845D01*
X139058473Y-69467512D01*
X139127175Y-69420138D01*
X139202684Y-69423776D01*
X139243148Y-69457241D01*
X139306192Y-69528737D01*
X139378996Y-69623580D01*
X139387547Y-69635505D01*
X139601618Y-69919229D01*
X139824733Y-70183534D01*
X140049216Y-70420730D01*
X140267391Y-70623129D01*
X140471579Y-70783040D01*
X140631232Y-70881285D01*
X140718333Y-70925454D01*
X140779378Y-70954495D01*
X140797110Y-70961250D01*
X140800558Y-70932482D01*
X140797951Y-70857423D01*
X140790745Y-70762812D01*
X140782915Y-70651228D01*
X140788160Y-70581746D01*
X140811350Y-70533502D01*
X140854927Y-70487884D01*
X140937225Y-70411393D01*
X141068326Y-70470512D01*
X141152079Y-70520145D01*
X141260585Y-70600667D01*
X141374447Y-70697325D01*
X141410151Y-70730496D01*
X141593723Y-70899912D01*
X141775002Y-71057014D01*
X141942695Y-71192556D01*
X142085513Y-71297293D01*
X142160625Y-71345032D01*
X142420347Y-71487754D01*
X142635999Y-71590783D01*
X142811537Y-71655965D01*
X142851088Y-71666938D01*
X143023559Y-71710865D01*
X142981225Y-71629745D01*
X142943219Y-71527532D01*
X142953839Y-71441497D01*
X142989706Y-71378521D01*
X143027224Y-71338628D01*
X143075308Y-71322237D01*
X143144546Y-71331102D01*
X143245526Y-71366978D01*
X143388836Y-71431617D01*
X143430625Y-71451566D01*
X143600637Y-71532158D01*
X143732458Y-71590379D01*
X143844611Y-71632418D01*
X143955621Y-71664461D01*
X144084011Y-71692696D01*
X144239427Y-71721714D01*
X144426398Y-71754498D01*
X144560454Y-71774884D01*
X144650949Y-71782898D01*
X144707239Y-71778570D01*
X144738681Y-71761926D01*
X144754630Y-71732994D01*
X144757449Y-71723250D01*
X144769436Y-71692994D01*
X144792735Y-71673643D01*
X144836329Y-71665349D01*
X144909197Y-71668267D01*
X145020321Y-71682550D01*
X145178683Y-71708352D01*
X145319750Y-71732875D01*
X145507976Y-71764963D01*
X145657697Y-71786702D01*
X145787673Y-71798990D01*
X145916666Y-71802728D01*
X146063436Y-71798814D01*
X146246745Y-71788149D01*
X146340197Y-71781799D01*
X146588330Y-71755930D01*
X146819142Y-71711494D01*
X147043384Y-71644120D01*
X147271806Y-71549441D01*
X147515156Y-71423086D01*
X147784187Y-71260686D01*
X148043103Y-71089669D01*
X148218805Y-70979242D01*
X148353293Y-70915407D01*
X148448011Y-70897723D01*
X148504407Y-70925748D01*
X148515060Y-70945484D01*
X148552086Y-70966440D01*
X148625479Y-70944002D01*
X148729351Y-70882175D01*
X148857817Y-70784968D01*
X149004989Y-70656386D01*
X149157012Y-70508572D01*
X149331619Y-70337322D01*
X149487820Y-70197217D01*
X149619941Y-70092773D01*
X149722306Y-70028507D01*
X149784951Y-70008750D01*
X149841667Y-70034859D01*
X149868719Y-70100713D01*
X149861245Y-70187603D01*
X149843162Y-70232861D01*
X149792647Y-70330545D01*
X149866011Y-70291948D01*
X150065098Y-70165933D01*
X150277606Y-69994003D01*
X150491103Y-69788242D01*
X150693158Y-69560735D01*
X150871337Y-69323566D01*
X150888560Y-69297986D01*
X151038621Y-69048227D01*
X151144361Y-68811546D01*
X151214868Y-68566678D01*
X151227382Y-68505253D01*
X151265379Y-68378017D01*
X151321173Y-68279546D01*
X151386118Y-68219994D01*
X151451569Y-68209511D01*
X151471655Y-68218456D01*
X151516081Y-68265102D01*
X151571654Y-68348345D01*
X151608591Y-68415647D01*
X151690307Y-68578264D01*
X151802048Y-68460069D01*
X151930627Y-68307809D01*
X152034997Y-68144514D01*
X152118843Y-67960081D01*
X152185848Y-67744411D01*
X152239698Y-67487403D01*
X152284077Y-67178955D01*
X152291080Y-67119500D01*
X152322928Y-66878252D01*
X152358165Y-66697168D01*
X152399999Y-66572913D01*
X152451639Y-66502152D01*
X152516294Y-66481549D01*
X152597174Y-66507769D01*
X152697489Y-66577477D01*
X152760459Y-66631658D01*
X152901787Y-66753751D01*
X153003138Y-66829230D01*
X153066299Y-66859316D01*
X153087916Y-66854916D01*
X153086649Y-66817704D01*
X153058914Y-66762189D01*
X153023075Y-66696063D01*
X152974976Y-66592656D01*
X152924881Y-66474061D01*
X152923720Y-66471163D01*
X152892124Y-66390103D01*
X152869606Y-66321186D01*
X152854997Y-66251911D01*
X152847131Y-66169775D01*
X152844838Y-66062277D01*
X152846951Y-65916916D01*
X152852301Y-65721191D01*
X152852621Y-65710277D01*
X152864237Y-65441275D01*
X152882786Y-65229804D01*
X152910136Y-65070098D01*
X152948157Y-64956391D01*
X152998717Y-64882916D01*
X153063685Y-64843907D01*
X153136790Y-64833500D01*
X153204945Y-64845411D01*
X153250219Y-64892535D01*
X153275171Y-64944624D01*
X153311652Y-65016324D01*
X153343573Y-65054051D01*
X153349066Y-65055750D01*
X153367299Y-65026515D01*
X153387745Y-64948567D01*
X153408184Y-64836535D01*
X153426394Y-64705051D01*
X153440157Y-64568744D01*
X153447251Y-64442247D01*
X153447750Y-64405548D01*
X153426056Y-64153485D01*
X153359748Y-63877468D01*
X153246985Y-63570587D01*
X153191727Y-63444783D01*
X153142994Y-63315510D01*
X153135663Y-63225774D01*
X153169826Y-63166879D01*
X153194949Y-63150108D01*
X153266373Y-63128835D01*
X153339510Y-63147971D01*
X153425488Y-63212692D01*
X153505266Y-63294454D01*
X153594703Y-63380686D01*
X153667846Y-63428425D01*
X153716624Y-63434043D01*
X153733042Y-63396812D01*
X153712395Y-63354643D01*
X153657058Y-63277285D01*
X153576216Y-63175456D01*
X153479053Y-63059876D01*
X153374751Y-62941261D01*
X153272494Y-62830331D01*
X153181465Y-62737805D01*
X153121518Y-62683080D01*
X153025697Y-62606434D01*
X152904552Y-62514141D01*
X152789330Y-62429808D01*
X152651546Y-62318440D01*
X152574667Y-62224571D01*
X152558669Y-62148385D01*
X152603524Y-62090063D01*
X152709209Y-62049788D01*
X152845960Y-62029954D01*
X153031896Y-61998573D01*
X153183140Y-61941165D01*
X153288686Y-61862628D01*
X153319787Y-61819047D01*
X153332212Y-61792223D01*
X153330482Y-61769751D01*
X153305864Y-61745631D01*
X153249625Y-61713863D01*
X153153032Y-61668445D01*
X153007352Y-61603379D01*
X153003250Y-61601556D01*
X152892309Y-61548110D01*
X152798053Y-61490369D01*
X152708127Y-61417824D01*
X152610178Y-61319962D01*
X152491850Y-61186273D01*
X152431750Y-61115299D01*
X152243590Y-60911472D01*
X152057161Y-60747757D01*
X151893198Y-60639081D01*
X151746688Y-60549310D01*
X151642397Y-60462924D01*
X151587151Y-60386325D01*
X151580622Y-60345812D01*
X151617161Y-60283954D01*
X151658112Y-60267714D01*
X151716996Y-60271235D01*
X151819672Y-60288200D01*
X151948806Y-60314858D01*
X152087063Y-60347458D01*
X152217107Y-60382247D01*
X152288875Y-60404210D01*
X152302707Y-60397404D01*
X152272730Y-60357045D01*
X152209500Y-60295075D01*
X152071579Y-60190379D01*
X151891587Y-60083511D01*
X151689736Y-59984649D01*
X151486242Y-59903973D01*
X151352250Y-59863415D01*
X151238361Y-59832557D01*
X151144480Y-59803680D01*
X151094501Y-59784591D01*
X151046988Y-59770181D01*
X150946328Y-59746519D01*
X150801888Y-59715496D01*
X150623035Y-59679001D01*
X150419137Y-59638922D01*
X150199561Y-59597150D01*
X149973674Y-59555575D01*
X149845594Y-59532673D01*
X149720812Y-59507015D01*
X149647576Y-59478744D01*
X149614237Y-59439030D01*
X149609147Y-59379043D01*
X149611455Y-59355188D01*
X149642035Y-59284151D01*
X149717833Y-59233437D01*
X149843800Y-59201321D01*
X150024889Y-59186082D01*
X150102367Y-59184415D01*
X150360610Y-59182000D01*
X150477898Y-59052176D01*
X150540050Y-58979013D01*
X150577302Y-58926508D01*
X150582569Y-58909735D01*
X150547702Y-58909362D01*
X150466441Y-58919633D01*
X150354600Y-58938442D01*
X150323307Y-58944309D01*
X149993170Y-58985815D01*
X149683429Y-58977605D01*
X149463125Y-58941057D01*
X149239090Y-58895121D01*
X149012059Y-58855392D01*
X148790825Y-58822725D01*
X148584181Y-58797979D01*
X148400922Y-58782010D01*
X148249842Y-58775675D01*
X148139734Y-58779830D01*
X148079392Y-58795333D01*
X148071011Y-58805408D01*
X147957589Y-59159210D01*
X147817957Y-59470434D01*
X147643298Y-59757572D01*
X147566588Y-59863318D01*
X147431427Y-60021856D01*
X147267508Y-60183478D01*
X147092222Y-60333004D01*
X146922956Y-60455252D01*
X146819937Y-60515170D01*
X146740835Y-60559554D01*
X146692279Y-60595189D01*
X146685000Y-60606239D01*
X146703942Y-60642079D01*
X146751790Y-60706186D01*
X146778959Y-60738949D01*
X146835650Y-60809488D01*
X146869824Y-60860117D01*
X146874209Y-60871277D01*
X146891405Y-60908918D01*
X146933352Y-60978046D01*
X146957056Y-61013860D01*
X147012112Y-61104262D01*
X147078584Y-61226546D01*
X147142237Y-61354505D01*
X147143215Y-61356583D01*
X147313182Y-61784212D01*
X147426277Y-62218253D01*
X147483190Y-62653228D01*
X147484614Y-63083658D01*
X147431240Y-63504064D01*
X147323759Y-63908967D01*
X147162865Y-64292888D01*
X146949247Y-64650349D01*
X146686675Y-64972618D01*
X146436971Y-65210425D01*
X146181663Y-65395988D01*
X145904213Y-65539614D01*
X145605500Y-65646473D01*
X145223469Y-65727752D01*
X144834440Y-65748207D01*
X144444972Y-65709049D01*
X144061624Y-65611490D01*
X143690955Y-65456741D01*
X143339525Y-65246014D01*
X143305282Y-65221612D01*
X143182432Y-65129780D01*
X143080181Y-65044649D01*
X142983579Y-64951887D01*
X142877674Y-64837163D01*
X142751308Y-64690625D01*
X142478628Y-64320503D01*
X142261235Y-63920785D01*
X142101006Y-63496223D01*
X141999819Y-63051571D01*
X141963223Y-62696520D01*
X141949320Y-62419994D01*
X142378436Y-62419994D01*
X142379735Y-62547500D01*
X142387806Y-62712346D01*
X142400817Y-62871189D01*
X142416782Y-63003083D01*
X142429415Y-63071375D01*
X142466578Y-63209020D01*
X142513010Y-63358387D01*
X142563172Y-63503952D01*
X142611525Y-63630189D01*
X142652529Y-63721574D01*
X142673897Y-63756500D01*
X142709242Y-63816982D01*
X142716250Y-63848002D01*
X142736909Y-63912468D01*
X142793463Y-64012072D01*
X142877774Y-64136199D01*
X142981703Y-64274233D01*
X143097112Y-64415558D01*
X143215863Y-64549559D01*
X143329819Y-64665620D01*
X143374473Y-64706621D01*
X143677168Y-64937604D01*
X143998759Y-65115382D01*
X144332238Y-65237065D01*
X144670598Y-65299764D01*
X144832769Y-65308060D01*
X144999829Y-65302290D01*
X145183885Y-65285554D01*
X145337281Y-65262803D01*
X145655367Y-65170342D01*
X145954087Y-65021226D01*
X146227851Y-64820787D01*
X146471069Y-64574359D01*
X146678152Y-64287273D01*
X146843510Y-63964862D01*
X146922256Y-63750738D01*
X146999569Y-63442037D01*
X147045002Y-63116467D01*
X147058028Y-62790898D01*
X147038118Y-62482201D01*
X146984747Y-62207247D01*
X146971868Y-62163668D01*
X146938838Y-62049153D01*
X146915636Y-61951294D01*
X146907659Y-61895752D01*
X146889405Y-61820307D01*
X146858614Y-61761942D01*
X146816475Y-61686635D01*
X146773286Y-61587456D01*
X146764617Y-61563936D01*
X146662760Y-61346079D01*
X146512243Y-61118068D01*
X146324289Y-60890863D01*
X146110126Y-60675422D01*
X145880979Y-60482705D01*
X145648074Y-60323672D01*
X145422635Y-60209283D01*
X145349634Y-60182492D01*
X145249289Y-60147285D01*
X145172717Y-60115971D01*
X145144532Y-60100757D01*
X145078015Y-60072556D01*
X144964589Y-60048020D01*
X144820822Y-60029004D01*
X144663280Y-60017364D01*
X144508528Y-60014954D01*
X144416860Y-60019251D01*
X144219253Y-60042172D01*
X144033976Y-60076869D01*
X143878503Y-60119431D01*
X143776116Y-60162570D01*
X143705988Y-60197251D01*
X143614710Y-60236673D01*
X143605250Y-60240459D01*
X143524084Y-60281938D01*
X143416278Y-60349110D01*
X143304583Y-60427757D01*
X143300077Y-60431152D01*
X143032508Y-60672470D01*
X142807174Y-60957554D01*
X142626588Y-61280624D01*
X142493262Y-61635906D01*
X142409707Y-62017621D01*
X142378436Y-62419994D01*
X141949320Y-62419994D01*
X141944228Y-62318736D01*
X141814301Y-62340896D01*
X141482345Y-62382595D01*
X141167623Y-62393106D01*
X140882330Y-62372738D01*
X140638659Y-62321798D01*
X140602879Y-62310333D01*
X140510910Y-62281428D01*
X140442378Y-62264032D01*
X140425202Y-62261750D01*
X140371460Y-62246314D01*
X140277772Y-62205017D01*
X140158216Y-62145367D01*
X140026869Y-62074878D01*
X139897808Y-62001059D01*
X139785109Y-61931422D01*
X139714671Y-61882627D01*
X139554360Y-61761591D01*
X139174742Y-62104395D01*
X139017072Y-62250250D01*
X138850287Y-62410384D01*
X138691924Y-62567608D01*
X138559520Y-62704731D01*
X138532195Y-62734221D01*
X138412340Y-62861883D01*
X138322415Y-62948595D01*
X138252214Y-63002614D01*
X138191530Y-63032197D01*
X138151195Y-63042443D01*
X138036569Y-63067855D01*
X137984948Y-63091488D01*
X137996471Y-63113118D01*
X138071278Y-63132522D01*
X138092371Y-63135896D01*
X138241477Y-63141421D01*
X138413942Y-63112980D01*
X138456225Y-63102250D01*
X138583231Y-63072345D01*
X138702714Y-63050734D01*
X138779250Y-63042721D01*
X138854674Y-63046369D01*
X138888047Y-63073953D01*
X138899848Y-63136441D01*
X138898662Y-63188689D01*
X138877944Y-63238545D01*
X138828853Y-63298407D01*
X138742553Y-63380673D01*
X138696128Y-63422191D01*
X138400755Y-63711306D01*
X138110394Y-64047207D01*
X137837514Y-64413619D01*
X137594584Y-64794268D01*
X137465408Y-65028480D01*
X137394218Y-65172413D01*
X137327596Y-65318122D01*
X137270353Y-65453702D01*
X137227301Y-65567248D01*
X137203252Y-65646853D01*
X137202105Y-65679938D01*
X136752600Y-65679938D01*
X136795983Y-65532000D01*
X136849153Y-65397166D01*
X136920178Y-65235287D01*
X137003968Y-65056200D01*
X137095429Y-64869741D01*
X137189468Y-64685747D01*
X137280993Y-64514054D01*
X137364911Y-64364499D01*
X137436128Y-64246918D01*
X137489554Y-64171148D01*
X137511888Y-64149244D01*
X137538500Y-64105037D01*
X137541000Y-64084654D01*
X137560201Y-64040260D01*
X137611421Y-63962039D01*
X137685081Y-63864143D01*
X137716763Y-63824970D01*
X137892527Y-63611884D01*
X137804076Y-63583061D01*
X137684159Y-63526700D01*
X137562095Y-63441750D01*
X137459166Y-63345175D01*
X137399738Y-63260790D01*
X137354881Y-63143685D01*
X137353463Y-63055580D01*
X137400808Y-62981609D01*
X137502239Y-62906904D01*
X137533062Y-62888473D01*
X137634673Y-62830664D01*
X137719569Y-62785035D01*
X137765753Y-62763033D01*
X137888798Y-62700044D01*
X138043063Y-62594294D01*
X138219975Y-62452511D01*
X138410961Y-62281418D01*
X138543155Y-62153111D01*
X138681783Y-62015409D01*
X138821437Y-61878612D01*
X138948453Y-61755980D01*
X139049165Y-61660773D01*
X139074967Y-61637025D01*
X139160824Y-61556231D01*
X139224542Y-61491253D01*
X139254558Y-61454009D01*
X139255500Y-61450932D01*
X139237017Y-61416468D01*
X139189084Y-61349286D01*
X139136437Y-61281906D01*
X138992708Y-61066774D01*
X138867436Y-60806798D01*
X138766139Y-60519300D01*
X138694335Y-60221602D01*
X138657541Y-59931028D01*
X138655764Y-59835709D01*
X139070565Y-59835709D01*
X139073450Y-59912088D01*
X139095404Y-60160764D01*
X139140420Y-60381811D01*
X139215152Y-60598879D01*
X139326251Y-60835616D01*
X139341438Y-60864750D01*
X139529745Y-61156721D01*
X139764488Y-61411973D01*
X140037783Y-61626671D01*
X140341744Y-61796979D01*
X140668488Y-61919064D01*
X141010128Y-61989090D01*
X141358781Y-62003222D01*
X141622981Y-61974332D01*
X141791832Y-61941490D01*
X141906597Y-61910885D01*
X141976386Y-61878534D01*
X142010308Y-61840456D01*
X142017750Y-61801775D01*
X142029387Y-61724408D01*
X142060537Y-61605341D01*
X142105556Y-61461176D01*
X142158800Y-61308517D01*
X142214626Y-61163970D01*
X142267391Y-61044136D01*
X142290501Y-60999322D01*
X142462109Y-60721933D01*
X142652469Y-60467757D01*
X142853630Y-60245134D01*
X143057642Y-60062403D01*
X143256554Y-59927905D01*
X143359187Y-59878212D01*
X143429548Y-59839667D01*
X143440206Y-59800162D01*
X143398875Y-59753500D01*
X143358903Y-59706594D01*
X143351250Y-59683993D01*
X143333726Y-59641273D01*
X143290214Y-59572559D01*
X143276013Y-59552944D01*
X143213643Y-59445409D01*
X143147482Y-59291330D01*
X143082906Y-59106997D01*
X143025292Y-58908703D01*
X142980015Y-58712737D01*
X142959803Y-58594713D01*
X142919204Y-58309051D01*
X142699184Y-58124262D01*
X142618702Y-58067012D01*
X143331864Y-58067012D01*
X143332963Y-58390217D01*
X143384944Y-58725887D01*
X143483042Y-59055899D01*
X143622491Y-59362129D01*
X143710580Y-59507171D01*
X143772434Y-59593059D01*
X143818913Y-59635050D01*
X143866092Y-59644414D01*
X143899317Y-59639503D01*
X144043717Y-59616659D01*
X144224296Y-59598130D01*
X144413776Y-59585873D01*
X144584879Y-59581845D01*
X144668875Y-59584284D01*
X144921065Y-59614458D01*
X145187464Y-59671636D01*
X145444798Y-59749483D01*
X145669798Y-59841663D01*
X145732500Y-59873882D01*
X145833534Y-59929104D01*
X145924565Y-59978640D01*
X145954750Y-59994977D01*
X146022472Y-60037746D01*
X146116163Y-60104438D01*
X146192875Y-60162952D01*
X146285918Y-60235406D01*
X146346031Y-60274598D01*
X146390601Y-60285994D01*
X146437019Y-60275063D01*
X146485068Y-60254825D01*
X146660151Y-60159865D01*
X146850866Y-60024401D01*
X147040595Y-59862633D01*
X147212722Y-59688759D01*
X147350632Y-59516978D01*
X147353663Y-59512594D01*
X147524296Y-59210747D01*
X147645341Y-58878953D01*
X147712912Y-58531351D01*
X147723123Y-58182080D01*
X147722444Y-58170790D01*
X147703209Y-57947257D01*
X147673463Y-57764381D01*
X147627553Y-57599506D01*
X147559824Y-57429975D01*
X147512280Y-57328707D01*
X147318157Y-56998797D01*
X147079266Y-56713837D01*
X146796187Y-56474329D01*
X146469500Y-56280773D01*
X146145250Y-56148467D01*
X146050480Y-56122382D01*
X145940684Y-56104772D01*
X145801731Y-56094282D01*
X145619490Y-56089551D01*
X145526125Y-56088954D01*
X145346184Y-56089269D01*
X145213043Y-56092815D01*
X145110009Y-56101983D01*
X145020386Y-56119162D01*
X144927482Y-56146742D01*
X144814601Y-56187112D01*
X144798423Y-56193114D01*
X144664193Y-56245293D01*
X144544236Y-56296027D01*
X144457112Y-56337297D01*
X144433298Y-56350816D01*
X144107082Y-56592002D01*
X143836229Y-56861691D01*
X143621650Y-57158462D01*
X143464259Y-57480894D01*
X143364966Y-57827565D01*
X143331864Y-58067012D01*
X142618702Y-58067012D01*
X142389878Y-57904242D01*
X142056977Y-57742522D01*
X141704039Y-57640006D01*
X141334626Y-57597594D01*
X140952297Y-57616187D01*
X140792745Y-57641632D01*
X140665451Y-57669842D01*
X140548795Y-57706167D01*
X140425084Y-57757653D01*
X140276621Y-57831347D01*
X140160375Y-57893458D01*
X139907030Y-58061653D01*
X139669380Y-58277213D01*
X139462718Y-58524006D01*
X139302337Y-58785900D01*
X139289509Y-58812141D01*
X139180614Y-59068861D01*
X139110824Y-59309758D01*
X139075641Y-59557738D01*
X139070565Y-59835709D01*
X138655764Y-59835709D01*
X138654518Y-59768953D01*
X138670043Y-59587243D01*
X138704405Y-59381387D01*
X138753516Y-59165673D01*
X138813288Y-58954392D01*
X138879632Y-58761834D01*
X138948460Y-58602288D01*
X139015685Y-58490044D01*
X139022974Y-58480999D01*
X139057540Y-58429811D01*
X139065000Y-58407868D01*
X139087694Y-58355390D01*
X139149260Y-58271772D01*
X139239922Y-58166689D01*
X139349903Y-58049815D01*
X139469429Y-57930823D01*
X139588722Y-57819388D01*
X139698008Y-57725182D01*
X139787510Y-57657879D01*
X139847453Y-57627154D01*
X139854870Y-57626249D01*
X139888797Y-57607759D01*
X139890500Y-57599651D01*
X139918785Y-57568772D01*
X139995879Y-57523757D01*
X140110132Y-57469904D01*
X140249898Y-57412506D01*
X140403529Y-57356860D01*
X140477875Y-57332610D01*
X140711977Y-57264424D01*
X140910056Y-57220835D01*
X141093509Y-57199331D01*
X141283735Y-57197398D01*
X141501062Y-57212421D01*
X141909900Y-57281471D01*
X142292884Y-57408503D01*
X142650239Y-57593600D01*
X142810399Y-57701399D01*
X142952125Y-57804370D01*
X143050757Y-57500387D01*
X143205373Y-57116266D01*
X143406707Y-56774308D01*
X143655753Y-56473468D01*
X143953505Y-56212701D01*
X144300957Y-55990961D01*
X144637125Y-55831970D01*
X144873779Y-55756262D01*
X145144146Y-55704881D01*
X145429741Y-55678775D01*
X145712082Y-55678889D01*
G37*
X145712082Y-55678889D02*
X145972683Y-55706169D01*
X146169658Y-55753502D01*
X146300295Y-55798783D01*
X146426789Y-55846155D01*
X146510375Y-55880486D01*
X146610098Y-55922087D01*
X146699467Y-55955066D01*
X146716750Y-55960546D01*
X146801743Y-55998051D01*
X146875500Y-56044786D01*
X147104341Y-56224023D01*
X147288945Y-56380473D01*
X147439127Y-56524673D01*
X147564704Y-56667158D01*
X147675492Y-56818466D01*
X147781306Y-56989133D01*
X147821923Y-57060661D01*
X147902870Y-57234782D01*
X147978263Y-57448985D01*
X148041405Y-57679861D01*
X148085596Y-57904004D01*
X148101080Y-58036224D01*
X148108905Y-58154442D01*
X148118077Y-58237560D01*
X148138439Y-58292869D01*
X148179835Y-58327663D01*
X148252108Y-58349237D01*
X148365102Y-58364883D01*
X148528659Y-58381896D01*
X148574125Y-58386732D01*
X148827007Y-58417519D01*
X149100522Y-58456596D01*
X149366850Y-58499723D01*
X149598170Y-58542659D01*
X149601924Y-58543420D01*
X149719312Y-58555082D01*
X149861394Y-58552303D01*
X149935299Y-58544745D01*
X150021348Y-58532371D01*
X150096014Y-58519741D01*
X150173270Y-58503633D01*
X150267086Y-58480822D01*
X150391431Y-58448085D01*
X150560277Y-58402197D01*
X150599383Y-58391495D01*
X150745399Y-58355958D01*
X150847053Y-58346002D01*
X150919236Y-58364374D01*
X150976839Y-58413821D01*
X151016500Y-58468457D01*
X151054648Y-58567154D01*
X151074644Y-58704107D01*
X151076406Y-58856694D01*
X151059853Y-59002295D01*
X151024900Y-59118291D01*
X151018910Y-59130186D01*
X150984137Y-59202885D01*
X150970944Y-59247701D01*
X150972642Y-59252908D01*
X151008316Y-59264805D01*
X151096948Y-59290245D01*
X151230009Y-59326901D01*
X151398972Y-59372448D01*
X151595309Y-59424559D01*
X151765000Y-59469057D01*
X151885932Y-59512128D01*
X152036946Y-59582304D01*
X152197384Y-59668514D01*
X152346585Y-59759686D01*
X152459955Y-59841507D01*
X152551996Y-59930414D01*
X152651291Y-60047081D01*
X152724091Y-60148162D01*
X152803100Y-60291029D01*
X152832822Y-60406132D01*
X152814101Y-60504684D01*
X152757164Y-60587795D01*
X152736065Y-60615651D01*
X152732223Y-60644105D01*
X152751756Y-60682275D01*
X152800779Y-60739280D01*
X152885410Y-60824238D01*
X152971854Y-60907863D01*
X153091958Y-61021482D01*
X153183439Y-61100097D01*
X153262251Y-61153925D01*
X153344346Y-61193187D01*
X153445680Y-61228100D01*
X153495375Y-61243197D01*
X153670261Y-61304782D01*
X153789237Y-61371275D01*
X153859870Y-61449272D01*
X153889725Y-61545368D01*
X153891952Y-61588832D01*
X153867373Y-61714914D01*
X153799872Y-61862936D01*
X153697960Y-62017600D01*
X153574634Y-62159145D01*
X153440564Y-62293214D01*
X153600621Y-62437119D01*
X153737681Y-62581137D01*
X153866953Y-62754914D01*
X153981643Y-62945110D01*
X154074954Y-63138386D01*
X154140091Y-63321402D01*
X154170257Y-63480819D01*
X154169470Y-63553692D01*
X154143754Y-63677650D01*
X154093444Y-63753556D01*
X154007177Y-63795465D01*
X153966530Y-63804675D01*
X153893125Y-63825969D01*
X153871985Y-63857115D01*
X153876609Y-63876953D01*
X153947436Y-64122696D01*
X153981803Y-64386212D01*
X153980460Y-64651998D01*
X153944157Y-64904550D01*
X153873643Y-65128364D01*
X153810185Y-65250509D01*
X153747206Y-65361880D01*
X153690357Y-65480537D01*
X153682044Y-65500565D01*
X153620491Y-65612858D01*
X153539674Y-65672637D01*
X153424709Y-65690737D01*
X153420796Y-65690750D01*
X153372328Y-65693019D01*
X153342641Y-65708745D01*
X153325102Y-65751307D01*
X153313079Y-65834082D01*
X153304113Y-65926107D01*
X153301502Y-66115191D01*
X153326196Y-66295907D01*
X153374380Y-66449821D01*
X153432796Y-66548000D01*
X153495460Y-66637018D01*
X153557124Y-66748724D01*
X153607295Y-66861168D01*
X153635481Y-66952398D01*
X153638250Y-66977833D01*
X153609214Y-67098130D01*
X153528253Y-67197489D01*
X153404583Y-67272114D01*
X153247421Y-67318205D01*
X153065985Y-67331967D01*
X152869491Y-67309601D01*
X152845656Y-67304382D01*
X152815882Y-67319415D01*
X152789292Y-67384095D01*
X152763846Y-67500500D01*
X152680203Y-67831335D01*
X152553212Y-68156070D01*
X152390004Y-68462313D01*
X152197711Y-68737671D01*
X151983465Y-68969753D01*
X151857316Y-69075625D01*
X151758775Y-69145742D01*
X151671315Y-69200770D01*
X151617384Y-69227340D01*
X151564805Y-69264072D01*
X151496202Y-69337876D01*
X151439290Y-69414340D01*
X151296596Y-69603352D01*
X151120365Y-69799107D01*
X150918636Y-69995670D01*
X150699448Y-70187107D01*
X150470840Y-70367484D01*
X150240849Y-70530866D01*
X150017515Y-70671319D01*
X149808875Y-70782909D01*
X149622969Y-70859700D01*
X149467834Y-70895759D01*
X149429926Y-70897750D01*
X149352749Y-70920140D01*
X149252005Y-70980854D01*
X149198946Y-71022113D01*
X148987135Y-71183946D01*
X148780660Y-71312472D01*
X148587954Y-71403758D01*
X148417452Y-71453874D01*
X148277590Y-71458890D01*
X148266047Y-71456846D01*
X148187314Y-71453167D01*
X148099135Y-71476685D01*
X147989342Y-71532402D01*
X147845771Y-71625314D01*
X147830673Y-71635743D01*
X147738863Y-71696753D01*
X147666824Y-71739748D01*
X147631605Y-71755000D01*
X147590691Y-71770711D01*
X147517845Y-71810552D01*
X147476594Y-71835735D01*
X147347271Y-71904605D01*
X147174216Y-71978802D01*
X146976020Y-72051479D01*
X146771272Y-72115788D01*
X146589750Y-72162421D01*
X146406533Y-72192218D01*
X146191889Y-72209888D01*
X145964190Y-72215513D01*
X145741804Y-72209175D01*
X145543102Y-72190957D01*
X145386453Y-72160941D01*
X145372801Y-72156989D01*
X145268654Y-72127149D01*
X145199419Y-72117249D01*
X145139306Y-72128584D01*
X145062526Y-72162452D01*
X145039426Y-72173746D01*
X144889096Y-72223215D01*
X144696542Y-72249969D01*
X144479177Y-72253112D01*
X144254413Y-72231745D01*
X144176750Y-72218218D01*
X144030123Y-72186095D01*
X143874030Y-72146991D01*
X143785581Y-72122145D01*
X143679381Y-72092752D01*
X143614458Y-72083939D01*
X143572261Y-72095008D01*
X143547456Y-72113209D01*
X143420505Y-72183893D01*
X143252348Y-72216539D01*
X143050788Y-72213491D01*
X142823627Y-72177091D01*
X142578668Y-72109680D01*
X142323713Y-72013601D01*
X142066565Y-71891196D01*
X141815025Y-71744807D01*
X141576897Y-71576777D01*
X141470286Y-71489669D01*
X141287948Y-71333116D01*
X141221919Y-71417058D01*
X141171979Y-71468064D01*
X141111492Y-71493147D01*
X141016823Y-71500808D01*
X140988541Y-71501000D01*
X140777918Y-71475857D01*
X140544535Y-71404036D01*
X140301952Y-71290950D01*
X140063723Y-71142012D01*
X140032409Y-71119286D01*
X139948136Y-71050257D01*
X139844764Y-70955535D01*
X139731710Y-70845017D01*
X139618389Y-70728603D01*
X139514219Y-70616192D01*
X139428616Y-70517683D01*
X139370997Y-70442974D01*
X139350750Y-70402714D01*
X139330655Y-70387204D01*
X139266733Y-70403211D01*
X139176801Y-70441149D01*
X139065104Y-70480000D01*
X138924798Y-70511393D01*
X138772761Y-70533622D01*
X138625874Y-70544981D01*
X138501016Y-70543766D01*
X138415068Y-70528270D01*
X138398250Y-70519820D01*
X138376934Y-70492124D01*
X138362719Y-70436740D01*
X138354396Y-70343407D01*
X138350757Y-70201863D01*
X138350317Y-70113070D01*
X138350711Y-69991469D01*
X138349873Y-69896979D01*
X138344430Y-69818992D01*
X138331011Y-69746896D01*
X138306241Y-69670080D01*
X138266750Y-69577934D01*
X138209163Y-69459847D01*
X138130110Y-69305209D01*
X138034605Y-69119750D01*
X137955234Y-68962383D01*
X137870000Y-68789011D01*
X137794887Y-68632231D01*
X137781591Y-68603812D01*
X137727284Y-68492634D01*
X137680925Y-68407852D01*
X137649978Y-68362739D01*
X137643758Y-68358759D01*
X137602775Y-68376822D01*
X137558744Y-68406384D01*
X137462282Y-68447341D01*
X137359348Y-68443314D01*
X137276486Y-68395416D01*
X137275654Y-68394505D01*
X137240977Y-68338764D01*
X137194230Y-68240646D01*
X137143638Y-68117944D01*
X137125483Y-68069583D01*
X137084772Y-67951516D01*
X137056116Y-67846925D01*
X137036694Y-67738275D01*
X137023683Y-67608037D01*
X137014260Y-67438676D01*
X137010944Y-67358140D01*
X137005335Y-67119665D01*
X137009867Y-66923398D01*
X137025492Y-66748712D01*
X137045069Y-66619423D01*
X137067609Y-66486371D01*
X137085127Y-66374713D01*
X137095114Y-66300855D01*
X137096500Y-66283136D01*
X137068937Y-66248476D01*
X136999894Y-66212856D01*
X136969371Y-66202462D01*
X136839072Y-66136133D01*
X136758256Y-66030433D01*
X136727084Y-65885983D01*
X136745718Y-65703406D01*
X136752600Y-65679938D01*
X137202105Y-65679938D01*
X137244517Y-65682288D01*
X137314694Y-65651566D01*
X137394257Y-65598321D01*
X137464827Y-65533104D01*
X137471604Y-65525232D01*
X137567387Y-65411144D01*
X137632348Y-65337733D01*
X137676535Y-65297076D01*
X137709996Y-65281254D01*
X137742782Y-65282343D01*
X137771216Y-65289053D01*
X137853184Y-65339197D01*
X137896828Y-65436523D01*
X137902019Y-65577482D01*
X137868626Y-65758526D01*
X137796519Y-65976107D01*
X137796366Y-65976500D01*
X137688932Y-66265024D01*
X137609026Y-66513936D01*
X137553204Y-66739060D01*
X137518021Y-66956220D01*
X137500035Y-67181238D01*
X137495796Y-67357625D01*
X137497809Y-67546772D01*
X137505955Y-67683367D01*
X137519615Y-67765180D01*
X137538168Y-67789980D01*
X137560995Y-67755538D01*
X137583971Y-67675125D01*
X137625762Y-67563445D01*
X137693197Y-67450452D01*
X137772179Y-67355558D01*
X137848608Y-67298176D01*
X137861323Y-67293228D01*
X137929659Y-67286658D01*
X137975516Y-67322370D01*
X138002247Y-67406665D01*
X138013209Y-67545842D01*
X138013791Y-67579598D01*
X138025189Y-67780704D01*
X138057392Y-67979207D01*
X138113757Y-68184462D01*
X138197640Y-68405826D01*
X138312396Y-68652655D01*
X138461382Y-68934306D01*
X138566207Y-69119750D01*
X138681918Y-69328158D01*
X138765116Y-69497677D01*
X138820676Y-69640748D01*
X138853473Y-69769808D01*
X138867916Y-69889687D01*
X138877579Y-69997003D01*
X138889801Y-70073883D01*
X138901969Y-70103987D01*
X138902195Y-70104000D01*
X138946301Y-70075337D01*
X138976282Y-70000264D01*
X138987546Y-69895147D01*
X138982541Y-69817597D01*
X138980036Y-69677189D01*
X139007387Y-69556845D01*
X139058473Y-69467512D01*
X139127175Y-69420138D01*
X139202684Y-69423776D01*
X139243148Y-69457241D01*
X139306192Y-69528737D01*
X139378996Y-69623580D01*
X139387547Y-69635505D01*
X139601618Y-69919229D01*
X139824733Y-70183534D01*
X140049216Y-70420730D01*
X140267391Y-70623129D01*
X140471579Y-70783040D01*
X140631232Y-70881285D01*
X140718333Y-70925454D01*
X140779378Y-70954495D01*
X140797110Y-70961250D01*
X140800558Y-70932482D01*
X140797951Y-70857423D01*
X140790745Y-70762812D01*
X140782915Y-70651228D01*
X140788160Y-70581746D01*
X140811350Y-70533502D01*
X140854927Y-70487884D01*
X140937225Y-70411393D01*
X141068326Y-70470512D01*
X141152079Y-70520145D01*
X141260585Y-70600667D01*
X141374447Y-70697325D01*
X141410151Y-70730496D01*
X141593723Y-70899912D01*
X141775002Y-71057014D01*
X141942695Y-71192556D01*
X142085513Y-71297293D01*
X142160625Y-71345032D01*
X142420347Y-71487754D01*
X142635999Y-71590783D01*
X142811537Y-71655965D01*
X142851088Y-71666938D01*
X143023559Y-71710865D01*
X142981225Y-71629745D01*
X142943219Y-71527532D01*
X142953839Y-71441497D01*
X142989706Y-71378521D01*
X143027224Y-71338628D01*
X143075308Y-71322237D01*
X143144546Y-71331102D01*
X143245526Y-71366978D01*
X143388836Y-71431617D01*
X143430625Y-71451566D01*
X143600637Y-71532158D01*
X143732458Y-71590379D01*
X143844611Y-71632418D01*
X143955621Y-71664461D01*
X144084011Y-71692696D01*
X144239427Y-71721714D01*
X144426398Y-71754498D01*
X144560454Y-71774884D01*
X144650949Y-71782898D01*
X144707239Y-71778570D01*
X144738681Y-71761926D01*
X144754630Y-71732994D01*
X144757449Y-71723250D01*
X144769436Y-71692994D01*
X144792735Y-71673643D01*
X144836329Y-71665349D01*
X144909197Y-71668267D01*
X145020321Y-71682550D01*
X145178683Y-71708352D01*
X145319750Y-71732875D01*
X145507976Y-71764963D01*
X145657697Y-71786702D01*
X145787673Y-71798990D01*
X145916666Y-71802728D01*
X146063436Y-71798814D01*
X146246745Y-71788149D01*
X146340197Y-71781799D01*
X146588330Y-71755930D01*
X146819142Y-71711494D01*
X147043384Y-71644120D01*
X147271806Y-71549441D01*
X147515156Y-71423086D01*
X147784187Y-71260686D01*
X148043103Y-71089669D01*
X148218805Y-70979242D01*
X148353293Y-70915407D01*
X148448011Y-70897723D01*
X148504407Y-70925748D01*
X148515060Y-70945484D01*
X148552086Y-70966440D01*
X148625479Y-70944002D01*
X148729351Y-70882175D01*
X148857817Y-70784968D01*
X149004989Y-70656386D01*
X149157012Y-70508572D01*
X149331619Y-70337322D01*
X149487820Y-70197217D01*
X149619941Y-70092773D01*
X149722306Y-70028507D01*
X149784951Y-70008750D01*
X149841667Y-70034859D01*
X149868719Y-70100713D01*
X149861245Y-70187603D01*
X149843162Y-70232861D01*
X149792647Y-70330545D01*
X149866011Y-70291948D01*
X150065098Y-70165933D01*
X150277606Y-69994003D01*
X150491103Y-69788242D01*
X150693158Y-69560735D01*
X150871337Y-69323566D01*
X150888560Y-69297986D01*
X151038621Y-69048227D01*
X151144361Y-68811546D01*
X151214868Y-68566678D01*
X151227382Y-68505253D01*
X151265379Y-68378017D01*
X151321173Y-68279546D01*
X151386118Y-68219994D01*
X151451569Y-68209511D01*
X151471655Y-68218456D01*
X151516081Y-68265102D01*
X151571654Y-68348345D01*
X151608591Y-68415647D01*
X151690307Y-68578264D01*
X151802048Y-68460069D01*
X151930627Y-68307809D01*
X152034997Y-68144514D01*
X152118843Y-67960081D01*
X152185848Y-67744411D01*
X152239698Y-67487403D01*
X152284077Y-67178955D01*
X152291080Y-67119500D01*
X152322928Y-66878252D01*
X152358165Y-66697168D01*
X152399999Y-66572913D01*
X152451639Y-66502152D01*
X152516294Y-66481549D01*
X152597174Y-66507769D01*
X152697489Y-66577477D01*
X152760459Y-66631658D01*
X152901787Y-66753751D01*
X153003138Y-66829230D01*
X153066299Y-66859316D01*
X153087916Y-66854916D01*
X153086649Y-66817704D01*
X153058914Y-66762189D01*
X153023075Y-66696063D01*
X152974976Y-66592656D01*
X152924881Y-66474061D01*
X152923720Y-66471163D01*
X152892124Y-66390103D01*
X152869606Y-66321186D01*
X152854997Y-66251911D01*
X152847131Y-66169775D01*
X152844838Y-66062277D01*
X152846951Y-65916916D01*
X152852301Y-65721191D01*
X152852621Y-65710277D01*
X152864237Y-65441275D01*
X152882786Y-65229804D01*
X152910136Y-65070098D01*
X152948157Y-64956391D01*
X152998717Y-64882916D01*
X153063685Y-64843907D01*
X153136790Y-64833500D01*
X153204945Y-64845411D01*
X153250219Y-64892535D01*
X153275171Y-64944624D01*
X153311652Y-65016324D01*
X153343573Y-65054051D01*
X153349066Y-65055750D01*
X153367299Y-65026515D01*
X153387745Y-64948567D01*
X153408184Y-64836535D01*
X153426394Y-64705051D01*
X153440157Y-64568744D01*
X153447251Y-64442247D01*
X153447750Y-64405548D01*
X153426056Y-64153485D01*
X153359748Y-63877468D01*
X153246985Y-63570587D01*
X153191727Y-63444783D01*
X153142994Y-63315510D01*
X153135663Y-63225774D01*
X153169826Y-63166879D01*
X153194949Y-63150108D01*
X153266373Y-63128835D01*
X153339510Y-63147971D01*
X153425488Y-63212692D01*
X153505266Y-63294454D01*
X153594703Y-63380686D01*
X153667846Y-63428425D01*
X153716624Y-63434043D01*
X153733042Y-63396812D01*
X153712395Y-63354643D01*
X153657058Y-63277285D01*
X153576216Y-63175456D01*
X153479053Y-63059876D01*
X153374751Y-62941261D01*
X153272494Y-62830331D01*
X153181465Y-62737805D01*
X153121518Y-62683080D01*
X153025697Y-62606434D01*
X152904552Y-62514141D01*
X152789330Y-62429808D01*
X152651546Y-62318440D01*
X152574667Y-62224571D01*
X152558669Y-62148385D01*
X152603524Y-62090063D01*
X152709209Y-62049788D01*
X152845960Y-62029954D01*
X153031896Y-61998573D01*
X153183140Y-61941165D01*
X153288686Y-61862628D01*
X153319787Y-61819047D01*
X153332212Y-61792223D01*
X153330482Y-61769751D01*
X153305864Y-61745631D01*
X153249625Y-61713863D01*
X153153032Y-61668445D01*
X153007352Y-61603379D01*
X153003250Y-61601556D01*
X152892309Y-61548110D01*
X152798053Y-61490369D01*
X152708127Y-61417824D01*
X152610178Y-61319962D01*
X152491850Y-61186273D01*
X152431750Y-61115299D01*
X152243590Y-60911472D01*
X152057161Y-60747757D01*
X151893198Y-60639081D01*
X151746688Y-60549310D01*
X151642397Y-60462924D01*
X151587151Y-60386325D01*
X151580622Y-60345812D01*
X151617161Y-60283954D01*
X151658112Y-60267714D01*
X151716996Y-60271235D01*
X151819672Y-60288200D01*
X151948806Y-60314858D01*
X152087063Y-60347458D01*
X152217107Y-60382247D01*
X152288875Y-60404210D01*
X152302707Y-60397404D01*
X152272730Y-60357045D01*
X152209500Y-60295075D01*
X152071579Y-60190379D01*
X151891587Y-60083511D01*
X151689736Y-59984649D01*
X151486242Y-59903973D01*
X151352250Y-59863415D01*
X151238361Y-59832557D01*
X151144480Y-59803680D01*
X151094501Y-59784591D01*
X151046988Y-59770181D01*
X150946328Y-59746519D01*
X150801888Y-59715496D01*
X150623035Y-59679001D01*
X150419137Y-59638922D01*
X150199561Y-59597150D01*
X149973674Y-59555575D01*
X149845594Y-59532673D01*
X149720812Y-59507015D01*
X149647576Y-59478744D01*
X149614237Y-59439030D01*
X149609147Y-59379043D01*
X149611455Y-59355188D01*
X149642035Y-59284151D01*
X149717833Y-59233437D01*
X149843800Y-59201321D01*
X150024889Y-59186082D01*
X150102367Y-59184415D01*
X150360610Y-59182000D01*
X150477898Y-59052176D01*
X150540050Y-58979013D01*
X150577302Y-58926508D01*
X150582569Y-58909735D01*
X150547702Y-58909362D01*
X150466441Y-58919633D01*
X150354600Y-58938442D01*
X150323307Y-58944309D01*
X149993170Y-58985815D01*
X149683429Y-58977605D01*
X149463125Y-58941057D01*
X149239090Y-58895121D01*
X149012059Y-58855392D01*
X148790825Y-58822725D01*
X148584181Y-58797979D01*
X148400922Y-58782010D01*
X148249842Y-58775675D01*
X148139734Y-58779830D01*
X148079392Y-58795333D01*
X148071011Y-58805408D01*
X147957589Y-59159210D01*
X147817957Y-59470434D01*
X147643298Y-59757572D01*
X147566588Y-59863318D01*
X147431427Y-60021856D01*
X147267508Y-60183478D01*
X147092222Y-60333004D01*
X146922956Y-60455252D01*
X146819937Y-60515170D01*
X146740835Y-60559554D01*
X146692279Y-60595189D01*
X146685000Y-60606239D01*
X146703942Y-60642079D01*
X146751790Y-60706186D01*
X146778959Y-60738949D01*
X146835650Y-60809488D01*
X146869824Y-60860117D01*
X146874209Y-60871277D01*
X146891405Y-60908918D01*
X146933352Y-60978046D01*
X146957056Y-61013860D01*
X147012112Y-61104262D01*
X147078584Y-61226546D01*
X147142237Y-61354505D01*
X147143215Y-61356583D01*
X147313182Y-61784212D01*
X147426277Y-62218253D01*
X147483190Y-62653228D01*
X147484614Y-63083658D01*
X147431240Y-63504064D01*
X147323759Y-63908967D01*
X147162865Y-64292888D01*
X146949247Y-64650349D01*
X146686675Y-64972618D01*
X146436971Y-65210425D01*
X146181663Y-65395988D01*
X145904213Y-65539614D01*
X145605500Y-65646473D01*
X145223469Y-65727752D01*
X144834440Y-65748207D01*
X144444972Y-65709049D01*
X144061624Y-65611490D01*
X143690955Y-65456741D01*
X143339525Y-65246014D01*
X143305282Y-65221612D01*
X143182432Y-65129780D01*
X143080181Y-65044649D01*
X142983579Y-64951887D01*
X142877674Y-64837163D01*
X142751308Y-64690625D01*
X142478628Y-64320503D01*
X142261235Y-63920785D01*
X142101006Y-63496223D01*
X141999819Y-63051571D01*
X141963223Y-62696520D01*
X141949320Y-62419994D01*
X142378436Y-62419994D01*
X142379735Y-62547500D01*
X142387806Y-62712346D01*
X142400817Y-62871189D01*
X142416782Y-63003083D01*
X142429415Y-63071375D01*
X142466578Y-63209020D01*
X142513010Y-63358387D01*
X142563172Y-63503952D01*
X142611525Y-63630189D01*
X142652529Y-63721574D01*
X142673897Y-63756500D01*
X142709242Y-63816982D01*
X142716250Y-63848002D01*
X142736909Y-63912468D01*
X142793463Y-64012072D01*
X142877774Y-64136199D01*
X142981703Y-64274233D01*
X143097112Y-64415558D01*
X143215863Y-64549559D01*
X143329819Y-64665620D01*
X143374473Y-64706621D01*
X143677168Y-64937604D01*
X143998759Y-65115382D01*
X144332238Y-65237065D01*
X144670598Y-65299764D01*
X144832769Y-65308060D01*
X144999829Y-65302290D01*
X145183885Y-65285554D01*
X145337281Y-65262803D01*
X145655367Y-65170342D01*
X145954087Y-65021226D01*
X146227851Y-64820787D01*
X146471069Y-64574359D01*
X146678152Y-64287273D01*
X146843510Y-63964862D01*
X146922256Y-63750738D01*
X146999569Y-63442037D01*
X147045002Y-63116467D01*
X147058028Y-62790898D01*
X147038118Y-62482201D01*
X146984747Y-62207247D01*
X146971868Y-62163668D01*
X146938838Y-62049153D01*
X146915636Y-61951294D01*
X146907659Y-61895752D01*
X146889405Y-61820307D01*
X146858614Y-61761942D01*
X146816475Y-61686635D01*
X146773286Y-61587456D01*
X146764617Y-61563936D01*
X146662760Y-61346079D01*
X146512243Y-61118068D01*
X146324289Y-60890863D01*
X146110126Y-60675422D01*
X145880979Y-60482705D01*
X145648074Y-60323672D01*
X145422635Y-60209283D01*
X145349634Y-60182492D01*
X145249289Y-60147285D01*
X145172717Y-60115971D01*
X145144532Y-60100757D01*
X145078015Y-60072556D01*
X144964589Y-60048020D01*
X144820822Y-60029004D01*
X144663280Y-60017364D01*
X144508528Y-60014954D01*
X144416860Y-60019251D01*
X144219253Y-60042172D01*
X144033976Y-60076869D01*
X143878503Y-60119431D01*
X143776116Y-60162570D01*
X143705988Y-60197251D01*
X143614710Y-60236673D01*
X143605250Y-60240459D01*
X143524084Y-60281938D01*
X143416278Y-60349110D01*
X143304583Y-60427757D01*
X143300077Y-60431152D01*
X143032508Y-60672470D01*
X142807174Y-60957554D01*
X142626588Y-61280624D01*
X142493262Y-61635906D01*
X142409707Y-62017621D01*
X142378436Y-62419994D01*
X141949320Y-62419994D01*
X141944228Y-62318736D01*
X141814301Y-62340896D01*
X141482345Y-62382595D01*
X141167623Y-62393106D01*
X140882330Y-62372738D01*
X140638659Y-62321798D01*
X140602879Y-62310333D01*
X140510910Y-62281428D01*
X140442378Y-62264032D01*
X140425202Y-62261750D01*
X140371460Y-62246314D01*
X140277772Y-62205017D01*
X140158216Y-62145367D01*
X140026869Y-62074878D01*
X139897808Y-62001059D01*
X139785109Y-61931422D01*
X139714671Y-61882627D01*
X139554360Y-61761591D01*
X139174742Y-62104395D01*
X139017072Y-62250250D01*
X138850287Y-62410384D01*
X138691924Y-62567608D01*
X138559520Y-62704731D01*
X138532195Y-62734221D01*
X138412340Y-62861883D01*
X138322415Y-62948595D01*
X138252214Y-63002614D01*
X138191530Y-63032197D01*
X138151195Y-63042443D01*
X138036569Y-63067855D01*
X137984948Y-63091488D01*
X137996471Y-63113118D01*
X138071278Y-63132522D01*
X138092371Y-63135896D01*
X138241477Y-63141421D01*
X138413942Y-63112980D01*
X138456225Y-63102250D01*
X138583231Y-63072345D01*
X138702714Y-63050734D01*
X138779250Y-63042721D01*
X138854674Y-63046369D01*
X138888047Y-63073953D01*
X138899848Y-63136441D01*
X138898662Y-63188689D01*
X138877944Y-63238545D01*
X138828853Y-63298407D01*
X138742553Y-63380673D01*
X138696128Y-63422191D01*
X138400755Y-63711306D01*
X138110394Y-64047207D01*
X137837514Y-64413619D01*
X137594584Y-64794268D01*
X137465408Y-65028480D01*
X137394218Y-65172413D01*
X137327596Y-65318122D01*
X137270353Y-65453702D01*
X137227301Y-65567248D01*
X137203252Y-65646853D01*
X137202105Y-65679938D01*
X136752600Y-65679938D01*
X136795983Y-65532000D01*
X136849153Y-65397166D01*
X136920178Y-65235287D01*
X137003968Y-65056200D01*
X137095429Y-64869741D01*
X137189468Y-64685747D01*
X137280993Y-64514054D01*
X137364911Y-64364499D01*
X137436128Y-64246918D01*
X137489554Y-64171148D01*
X137511888Y-64149244D01*
X137538500Y-64105037D01*
X137541000Y-64084654D01*
X137560201Y-64040260D01*
X137611421Y-63962039D01*
X137685081Y-63864143D01*
X137716763Y-63824970D01*
X137892527Y-63611884D01*
X137804076Y-63583061D01*
X137684159Y-63526700D01*
X137562095Y-63441750D01*
X137459166Y-63345175D01*
X137399738Y-63260790D01*
X137354881Y-63143685D01*
X137353463Y-63055580D01*
X137400808Y-62981609D01*
X137502239Y-62906904D01*
X137533062Y-62888473D01*
X137634673Y-62830664D01*
X137719569Y-62785035D01*
X137765753Y-62763033D01*
X137888798Y-62700044D01*
X138043063Y-62594294D01*
X138219975Y-62452511D01*
X138410961Y-62281418D01*
X138543155Y-62153111D01*
X138681783Y-62015409D01*
X138821437Y-61878612D01*
X138948453Y-61755980D01*
X139049165Y-61660773D01*
X139074967Y-61637025D01*
X139160824Y-61556231D01*
X139224542Y-61491253D01*
X139254558Y-61454009D01*
X139255500Y-61450932D01*
X139237017Y-61416468D01*
X139189084Y-61349286D01*
X139136437Y-61281906D01*
X138992708Y-61066774D01*
X138867436Y-60806798D01*
X138766139Y-60519300D01*
X138694335Y-60221602D01*
X138657541Y-59931028D01*
X138655764Y-59835709D01*
X139070565Y-59835709D01*
X139073450Y-59912088D01*
X139095404Y-60160764D01*
X139140420Y-60381811D01*
X139215152Y-60598879D01*
X139326251Y-60835616D01*
X139341438Y-60864750D01*
X139529745Y-61156721D01*
X139764488Y-61411973D01*
X140037783Y-61626671D01*
X140341744Y-61796979D01*
X140668488Y-61919064D01*
X141010128Y-61989090D01*
X141358781Y-62003222D01*
X141622981Y-61974332D01*
X141791832Y-61941490D01*
X141906597Y-61910885D01*
X141976386Y-61878534D01*
X142010308Y-61840456D01*
X142017750Y-61801775D01*
X142029387Y-61724408D01*
X142060537Y-61605341D01*
X142105556Y-61461176D01*
X142158800Y-61308517D01*
X142214626Y-61163970D01*
X142267391Y-61044136D01*
X142290501Y-60999322D01*
X142462109Y-60721933D01*
X142652469Y-60467757D01*
X142853630Y-60245134D01*
X143057642Y-60062403D01*
X143256554Y-59927905D01*
X143359187Y-59878212D01*
X143429548Y-59839667D01*
X143440206Y-59800162D01*
X143398875Y-59753500D01*
X143358903Y-59706594D01*
X143351250Y-59683993D01*
X143333726Y-59641273D01*
X143290214Y-59572559D01*
X143276013Y-59552944D01*
X143213643Y-59445409D01*
X143147482Y-59291330D01*
X143082906Y-59106997D01*
X143025292Y-58908703D01*
X142980015Y-58712737D01*
X142959803Y-58594713D01*
X142919204Y-58309051D01*
X142699184Y-58124262D01*
X142618702Y-58067012D01*
X143331864Y-58067012D01*
X143332963Y-58390217D01*
X143384944Y-58725887D01*
X143483042Y-59055899D01*
X143622491Y-59362129D01*
X143710580Y-59507171D01*
X143772434Y-59593059D01*
X143818913Y-59635050D01*
X143866092Y-59644414D01*
X143899317Y-59639503D01*
X144043717Y-59616659D01*
X144224296Y-59598130D01*
X144413776Y-59585873D01*
X144584879Y-59581845D01*
X144668875Y-59584284D01*
X144921065Y-59614458D01*
X145187464Y-59671636D01*
X145444798Y-59749483D01*
X145669798Y-59841663D01*
X145732500Y-59873882D01*
X145833534Y-59929104D01*
X145924565Y-59978640D01*
X145954750Y-59994977D01*
X146022472Y-60037746D01*
X146116163Y-60104438D01*
X146192875Y-60162952D01*
X146285918Y-60235406D01*
X146346031Y-60274598D01*
X146390601Y-60285994D01*
X146437019Y-60275063D01*
X146485068Y-60254825D01*
X146660151Y-60159865D01*
X146850866Y-60024401D01*
X147040595Y-59862633D01*
X147212722Y-59688759D01*
X147350632Y-59516978D01*
X147353663Y-59512594D01*
X147524296Y-59210747D01*
X147645341Y-58878953D01*
X147712912Y-58531351D01*
X147723123Y-58182080D01*
X147722444Y-58170790D01*
X147703209Y-57947257D01*
X147673463Y-57764381D01*
X147627553Y-57599506D01*
X147559824Y-57429975D01*
X147512280Y-57328707D01*
X147318157Y-56998797D01*
X147079266Y-56713837D01*
X146796187Y-56474329D01*
X146469500Y-56280773D01*
X146145250Y-56148467D01*
X146050480Y-56122382D01*
X145940684Y-56104772D01*
X145801731Y-56094282D01*
X145619490Y-56089551D01*
X145526125Y-56088954D01*
X145346184Y-56089269D01*
X145213043Y-56092815D01*
X145110009Y-56101983D01*
X145020386Y-56119162D01*
X144927482Y-56146742D01*
X144814601Y-56187112D01*
X144798423Y-56193114D01*
X144664193Y-56245293D01*
X144544236Y-56296027D01*
X144457112Y-56337297D01*
X144433298Y-56350816D01*
X144107082Y-56592002D01*
X143836229Y-56861691D01*
X143621650Y-57158462D01*
X143464259Y-57480894D01*
X143364966Y-57827565D01*
X143331864Y-58067012D01*
X142618702Y-58067012D01*
X142389878Y-57904242D01*
X142056977Y-57742522D01*
X141704039Y-57640006D01*
X141334626Y-57597594D01*
X140952297Y-57616187D01*
X140792745Y-57641632D01*
X140665451Y-57669842D01*
X140548795Y-57706167D01*
X140425084Y-57757653D01*
X140276621Y-57831347D01*
X140160375Y-57893458D01*
X139907030Y-58061653D01*
X139669380Y-58277213D01*
X139462718Y-58524006D01*
X139302337Y-58785900D01*
X139289509Y-58812141D01*
X139180614Y-59068861D01*
X139110824Y-59309758D01*
X139075641Y-59557738D01*
X139070565Y-59835709D01*
X138655764Y-59835709D01*
X138654518Y-59768953D01*
X138670043Y-59587243D01*
X138704405Y-59381387D01*
X138753516Y-59165673D01*
X138813288Y-58954392D01*
X138879632Y-58761834D01*
X138948460Y-58602288D01*
X139015685Y-58490044D01*
X139022974Y-58480999D01*
X139057540Y-58429811D01*
X139065000Y-58407868D01*
X139087694Y-58355390D01*
X139149260Y-58271772D01*
X139239922Y-58166689D01*
X139349903Y-58049815D01*
X139469429Y-57930823D01*
X139588722Y-57819388D01*
X139698008Y-57725182D01*
X139787510Y-57657879D01*
X139847453Y-57627154D01*
X139854870Y-57626249D01*
X139888797Y-57607759D01*
X139890500Y-57599651D01*
X139918785Y-57568772D01*
X139995879Y-57523757D01*
X140110132Y-57469904D01*
X140249898Y-57412506D01*
X140403529Y-57356860D01*
X140477875Y-57332610D01*
X140711977Y-57264424D01*
X140910056Y-57220835D01*
X141093509Y-57199331D01*
X141283735Y-57197398D01*
X141501062Y-57212421D01*
X141909900Y-57281471D01*
X142292884Y-57408503D01*
X142650239Y-57593600D01*
X142810399Y-57701399D01*
X142952125Y-57804370D01*
X143050757Y-57500387D01*
X143205373Y-57116266D01*
X143406707Y-56774308D01*
X143655753Y-56473468D01*
X143953505Y-56212701D01*
X144300957Y-55990961D01*
X144637125Y-55831970D01*
X144873779Y-55756262D01*
X145144146Y-55704881D01*
X145429741Y-55678775D01*
X145712082Y-55678889D01*
%TD*%
D11*
%TO.C,J2*%
X31851600Y-67722000D03*
X31851600Y-65722000D03*
X31851600Y-63722000D03*
G36*
G01*
X31197432Y-61072000D02*
X32505768Y-61072000D01*
G75*
G02*
X32776600Y-61342832I0J-270832D01*
G01*
X32776600Y-62101168D01*
G75*
G02*
X32505768Y-62372000I-270832J0D01*
G01*
X31197432Y-62372000D01*
G75*
G02*
X30926600Y-62101168I0J270832D01*
G01*
X30926600Y-61342832D01*
G75*
G02*
X31197432Y-61072000I270832J0D01*
G01*
G37*
%TD*%
D12*
%TO.C,MX94*%
X146238800Y-200406000D03*
D13*
X141158800Y-200406000D03*
X151318800Y-200406000D03*
D14*
X79288800Y-193421000D03*
X213188800Y-193421000D03*
D12*
X79288800Y-208661000D03*
X213188800Y-208661000D03*
%TD*%
D15*
%TO.C,USB1*%
X47592000Y-51915000D03*
X40292000Y-51915000D03*
%TD*%
D12*
%TO.C,MX69*%
X277366300Y-162306000D03*
D13*
X272286300Y-162306000D03*
X282446300Y-162306000D03*
%TD*%
D12*
%TO.C,MX32*%
X279741200Y-124206000D03*
D13*
X274661200Y-124206000D03*
X284821200Y-124206000D03*
%TD*%
D16*
%TO.C,D32*%
X244094000Y-122047000D03*
D17*
X244094000Y-129667000D03*
%TD*%
D16*
%TO.C,D103*%
X385089400Y-178930300D03*
D17*
X385089400Y-186550300D03*
%TD*%
D16*
%TO.C,D102*%
X385089400Y-198107300D03*
D17*
X385089400Y-205727300D03*
%TD*%
D16*
%TO.C,D101*%
X366039400Y-198107300D03*
D17*
X366039400Y-205727300D03*
%TD*%
D16*
%TO.C,D100*%
X315468000Y-198120000D03*
D17*
X315468000Y-205740000D03*
%TD*%
D16*
%TO.C,D99*%
X296418000Y-198120000D03*
D17*
X296418000Y-205740000D03*
%TD*%
D16*
%TO.C,D98*%
X277368000Y-198120000D03*
D17*
X277368000Y-205740000D03*
%TD*%
D16*
%TO.C,D97*%
X258191000Y-198120000D03*
D17*
X258191000Y-205740000D03*
%TD*%
D16*
%TO.C,D96*%
X158750000Y-196469000D03*
D17*
X158750000Y-204089000D03*
%TD*%
D16*
%TO.C,D95*%
X53594000Y-196469000D03*
D17*
X53594000Y-204089000D03*
%TD*%
D16*
%TO.C,D94*%
X366039400Y-178930300D03*
D17*
X366039400Y-186550300D03*
%TD*%
D16*
%TO.C,D93*%
X346989400Y-178930300D03*
D17*
X346989400Y-186550300D03*
%TD*%
D16*
%TO.C,D92*%
X327939400Y-178930300D03*
D17*
X327939400Y-186550300D03*
%TD*%
D16*
%TO.C,D91*%
X315468000Y-178943000D03*
D17*
X315468000Y-186563000D03*
%TD*%
D16*
%TO.C,D90*%
X296418000Y-178943000D03*
D17*
X296418000Y-186563000D03*
%TD*%
D16*
%TO.C,D89*%
X277368000Y-178943000D03*
D17*
X277368000Y-186563000D03*
%TD*%
D16*
%TO.C,D88*%
X248793000Y-178943000D03*
D17*
X248793000Y-186563000D03*
%TD*%
D16*
%TO.C,D87*%
X229743000Y-178943000D03*
D17*
X229743000Y-186563000D03*
%TD*%
D16*
%TO.C,D86*%
X210693000Y-178943000D03*
D17*
X210693000Y-186563000D03*
%TD*%
D16*
%TO.C,D85*%
X191516000Y-178943000D03*
D17*
X191516000Y-186563000D03*
%TD*%
D16*
%TO.C,D84*%
X172593000Y-178943000D03*
D17*
X172593000Y-186563000D03*
%TD*%
D16*
%TO.C,D83*%
X153477800Y-178943000D03*
D17*
X153477800Y-186563000D03*
%TD*%
D16*
%TO.C,D82*%
X134427800Y-178943000D03*
D17*
X134427800Y-186563000D03*
%TD*%
D16*
%TO.C,D81*%
X115443000Y-178943000D03*
D17*
X115443000Y-186563000D03*
%TD*%
D16*
%TO.C,D80*%
X96393000Y-178943000D03*
D17*
X96393000Y-186563000D03*
%TD*%
D16*
%TO.C,D79*%
X77343000Y-178943000D03*
D17*
X77343000Y-186563000D03*
%TD*%
D16*
%TO.C,D78*%
X58293000Y-178943000D03*
D17*
X58293000Y-186563000D03*
%TD*%
D16*
%TO.C,D77*%
X34417000Y-178943000D03*
D17*
X34417000Y-186563000D03*
%TD*%
D16*
%TO.C,D76*%
X385089400Y-160007300D03*
D17*
X385089400Y-167627300D03*
%TD*%
D16*
%TO.C,D75*%
X366039400Y-160007300D03*
D17*
X366039400Y-167627300D03*
%TD*%
D16*
%TO.C,D74*%
X346989400Y-160007300D03*
D17*
X346989400Y-167627300D03*
%TD*%
D16*
%TO.C,D73*%
X327939400Y-160007300D03*
D17*
X327939400Y-167627300D03*
%TD*%
D16*
%TO.C,D72*%
X315468000Y-160020000D03*
D17*
X315468000Y-167640000D03*
%TD*%
D16*
%TO.C,D71*%
X296860800Y-160020000D03*
D17*
X296860800Y-167640000D03*
%TD*%
D16*
%TO.C,D70*%
X258760800Y-160020000D03*
D17*
X258760800Y-167640000D03*
%TD*%
D16*
%TO.C,D69*%
X239583800Y-160020000D03*
D17*
X239583800Y-167640000D03*
%TD*%
D16*
%TO.C,D68*%
X220533800Y-160020000D03*
D17*
X220533800Y-167640000D03*
%TD*%
D16*
%TO.C,D67*%
X201356800Y-160020000D03*
D17*
X201356800Y-167640000D03*
%TD*%
D16*
%TO.C,D66*%
X182306800Y-160020000D03*
D17*
X182306800Y-167640000D03*
%TD*%
D16*
%TO.C,D65*%
X163129800Y-160020000D03*
D17*
X163129800Y-167640000D03*
%TD*%
D16*
%TO.C,D64*%
X143952800Y-160020000D03*
D17*
X143952800Y-167640000D03*
%TD*%
D16*
%TO.C,D63*%
X124902800Y-160020000D03*
D17*
X124902800Y-167640000D03*
%TD*%
D16*
%TO.C,D62*%
X105852800Y-160020000D03*
D17*
X105852800Y-167640000D03*
%TD*%
D16*
%TO.C,D61*%
X86675800Y-160020000D03*
D17*
X86675800Y-167640000D03*
%TD*%
D16*
%TO.C,D60*%
X67625800Y-160020000D03*
D17*
X67625800Y-167640000D03*
%TD*%
D16*
%TO.C,D59*%
X47178800Y-160020000D03*
D17*
X47178800Y-167640000D03*
%TD*%
D16*
%TO.C,D58*%
X385089400Y-140830300D03*
D17*
X385089400Y-148450300D03*
%TD*%
D16*
%TO.C,D57*%
X366039400Y-140830300D03*
D17*
X366039400Y-148450300D03*
%TD*%
D16*
%TO.C,D56*%
X346989400Y-140830300D03*
D17*
X346989400Y-148450300D03*
%TD*%
D16*
%TO.C,D55*%
X327939400Y-140830300D03*
D17*
X327939400Y-148450300D03*
%TD*%
D16*
%TO.C,D54*%
X315468000Y-140792200D03*
D17*
X315468000Y-148412200D03*
%TD*%
D16*
%TO.C,D53*%
X291719000Y-140843000D03*
D17*
X291719000Y-148463000D03*
%TD*%
D16*
%TO.C,D52*%
X272669000Y-140843000D03*
D17*
X272669000Y-148463000D03*
%TD*%
D16*
%TO.C,D51*%
X253492000Y-140843000D03*
D17*
X253492000Y-148463000D03*
%TD*%
D16*
%TO.C,D50*%
X234503800Y-140843000D03*
D17*
X234503800Y-148463000D03*
%TD*%
D16*
%TO.C,D49*%
X215392000Y-140843000D03*
D17*
X215392000Y-148463000D03*
%TD*%
D16*
%TO.C,D48*%
X196469000Y-140843000D03*
D17*
X196469000Y-148463000D03*
%TD*%
D16*
%TO.C,D47*%
X177419000Y-140843000D03*
D17*
X177419000Y-148463000D03*
%TD*%
D16*
%TO.C,D46*%
X158369000Y-140843000D03*
D17*
X158369000Y-148463000D03*
%TD*%
D16*
%TO.C,D45*%
X139192000Y-140843000D03*
D17*
X139192000Y-148463000D03*
%TD*%
D16*
%TO.C,D44*%
X120142000Y-140843000D03*
D17*
X120142000Y-148463000D03*
%TD*%
D16*
%TO.C,D43*%
X101092000Y-140843000D03*
D17*
X101092000Y-148463000D03*
%TD*%
D16*
%TO.C,D42*%
X82042000Y-140843000D03*
D17*
X82042000Y-148463000D03*
%TD*%
D16*
%TO.C,D41*%
X63119000Y-140843000D03*
D17*
X63119000Y-148463000D03*
%TD*%
D16*
%TO.C,D40*%
X43942000Y-140843000D03*
D17*
X43942000Y-148463000D03*
%TD*%
D16*
%TO.C,D39*%
X385089400Y-122034300D03*
D17*
X385089400Y-129654300D03*
%TD*%
D16*
%TO.C,D38*%
X366039400Y-122034300D03*
D17*
X366039400Y-129654300D03*
%TD*%
D16*
%TO.C,D37*%
X346989400Y-122034300D03*
D17*
X346989400Y-129654300D03*
%TD*%
D16*
%TO.C,D36*%
X327939400Y-122034300D03*
D17*
X327939400Y-129654300D03*
%TD*%
D16*
%TO.C,D35*%
X315468000Y-122047000D03*
D17*
X315468000Y-129667000D03*
%TD*%
D16*
%TO.C,D34*%
X296418000Y-122047000D03*
D17*
X296418000Y-129667000D03*
%TD*%
D16*
%TO.C,D33*%
X263017000Y-122047000D03*
D17*
X263017000Y-129667000D03*
%TD*%
D16*
%TO.C,D31*%
X225044000Y-122047000D03*
D17*
X225044000Y-129667000D03*
%TD*%
D16*
%TO.C,D30*%
X205928800Y-122047000D03*
D17*
X205928800Y-129667000D03*
%TD*%
D16*
%TO.C,D29*%
X186817000Y-122047000D03*
D17*
X186817000Y-129667000D03*
%TD*%
D16*
%TO.C,D28*%
X167767000Y-122047000D03*
D17*
X167767000Y-129667000D03*
%TD*%
D16*
%TO.C,D27*%
X148717000Y-122047000D03*
D17*
X148717000Y-129667000D03*
%TD*%
D16*
%TO.C,D26*%
X129667000Y-122047000D03*
D17*
X129667000Y-129667000D03*
%TD*%
D16*
%TO.C,D25*%
X110617000Y-122047000D03*
D17*
X110617000Y-129667000D03*
%TD*%
D16*
%TO.C,D24*%
X91567000Y-122047000D03*
D17*
X91567000Y-129667000D03*
%TD*%
D16*
%TO.C,D23*%
X72517000Y-122047000D03*
D17*
X72517000Y-129667000D03*
%TD*%
D16*
%TO.C,D22*%
X53467000Y-122047000D03*
D17*
X53467000Y-129667000D03*
%TD*%
D16*
%TO.C,D21*%
X34417000Y-122047000D03*
D17*
X34417000Y-129667000D03*
%TD*%
D16*
%TO.C,D20*%
X385140200Y-92024200D03*
D17*
X385140200Y-99644200D03*
%TD*%
D16*
%TO.C,D19*%
X366090200Y-92024200D03*
D17*
X366090200Y-99644200D03*
%TD*%
D16*
%TO.C,D18*%
X354711000Y-92024200D03*
D17*
X354711000Y-99644200D03*
%TD*%
D16*
%TO.C,D17*%
X335661000Y-92024200D03*
D17*
X335661000Y-99644200D03*
%TD*%
D16*
%TO.C,D16*%
X316611000Y-92024200D03*
D17*
X316611000Y-99644200D03*
%TD*%
D16*
%TO.C,D15*%
X297434000Y-92024200D03*
D17*
X297434000Y-99644200D03*
%TD*%
D16*
%TO.C,D14*%
X266954000Y-92024200D03*
D17*
X266954000Y-99644200D03*
%TD*%
D16*
%TO.C,D13*%
X247904000Y-92024200D03*
D17*
X247904000Y-99644200D03*
%TD*%
D16*
%TO.C,D12*%
X228854000Y-92024200D03*
D17*
X228854000Y-99644200D03*
%TD*%
D16*
%TO.C,D11*%
X209942000Y-92024200D03*
D17*
X209942000Y-99644200D03*
%TD*%
D16*
%TO.C,D10*%
X179208000Y-92024200D03*
D17*
X179208000Y-99644200D03*
%TD*%
D16*
%TO.C,D9*%
X160158000Y-92024200D03*
D17*
X160158000Y-99644200D03*
%TD*%
D16*
%TO.C,D8*%
X141108000Y-92024200D03*
D17*
X141108000Y-99644200D03*
%TD*%
D16*
%TO.C,D7*%
X122047000Y-92024200D03*
D17*
X122047000Y-99644200D03*
%TD*%
D16*
%TO.C,D6*%
X91694000Y-92024200D03*
D17*
X91694000Y-99644200D03*
%TD*%
D16*
%TO.C,D5*%
X72644000Y-92024200D03*
D17*
X72644000Y-99644200D03*
%TD*%
D16*
%TO.C,D4*%
X53467000Y-92024200D03*
D17*
X53467000Y-99644200D03*
%TD*%
D16*
%TO.C,D3*%
X34417000Y-92024200D03*
D17*
X34417000Y-99644200D03*
%TD*%
D12*
%TO.C,MX93*%
X34478800Y-200406000D03*
D13*
X29398800Y-200406000D03*
X39558800Y-200406000D03*
%TD*%
D12*
%TO.C,MX101*%
X394625400Y-190868300D03*
D13*
X394625400Y-195948300D03*
X394625400Y-185788300D03*
%TD*%
D12*
%TO.C,MX99*%
X347000400Y-200393300D03*
D13*
X341920400Y-200393300D03*
X352080400Y-200393300D03*
%TD*%
D12*
%TO.C,MX87*%
X263078800Y-181356000D03*
D13*
X257998800Y-181356000D03*
X268158800Y-181356000D03*
%TD*%
D12*
%TO.C,MX100*%
X375575400Y-200393300D03*
D13*
X370495400Y-200393300D03*
X380655400Y-200393300D03*
%TD*%
D12*
%TO.C,MX98*%
X305941300Y-200406000D03*
D13*
X300861300Y-200406000D03*
X311021300Y-200406000D03*
%TD*%
D12*
%TO.C,MX97*%
X286891300Y-200406000D03*
D13*
X281811300Y-200406000D03*
X291971300Y-200406000D03*
%TD*%
D12*
%TO.C,MX96*%
X267841300Y-200406000D03*
D13*
X262761300Y-200406000D03*
X272921300Y-200406000D03*
%TD*%
D12*
%TO.C,MX95*%
X248791300Y-200406000D03*
D13*
X243711300Y-200406000D03*
X253871300Y-200406000D03*
%TD*%
D12*
%TO.C,MX92*%
X375575400Y-181343300D03*
D13*
X370495400Y-181343300D03*
X380655400Y-181343300D03*
%TD*%
D12*
%TO.C,MX91*%
X356525400Y-181343300D03*
D13*
X351445400Y-181343300D03*
X361605400Y-181343300D03*
%TD*%
D12*
%TO.C,MX90*%
X337475400Y-181343300D03*
D13*
X332395400Y-181343300D03*
X342555400Y-181343300D03*
%TD*%
D12*
%TO.C,MX76*%
X46416800Y-181356000D03*
D13*
X41336800Y-181356000D03*
X51496800Y-181356000D03*
%TD*%
D12*
%TO.C,MX57*%
X32065800Y-162306000D03*
D13*
X26985800Y-162306000D03*
X37145800Y-162306000D03*
%TD*%
D12*
%TO.C,MX52*%
X303528300Y-143256000D03*
D13*
X298448300Y-143256000D03*
X308608300Y-143256000D03*
%TD*%
D12*
%TO.C,MX38*%
X29716300Y-143256000D03*
D13*
X24636300Y-143256000D03*
X34796300Y-143256000D03*
%TD*%
D18*
%TO.C,XTAL1*%
X289433000Y-62049000D03*
X289433000Y-66929000D03*
%TD*%
D16*
%TO.C,U1*%
X282257500Y-72136000D03*
X233997500Y-56896000D03*
X279717500Y-72136000D03*
X236537500Y-56896000D03*
X277177500Y-72136000D03*
X239077500Y-56896000D03*
X274637500Y-72136000D03*
X241617500Y-56896000D03*
X272097500Y-72136000D03*
X244157500Y-56896000D03*
X269557500Y-72136000D03*
X246697500Y-56896000D03*
X267017500Y-72136000D03*
X249237500Y-56896000D03*
X264477500Y-72136000D03*
X251777500Y-56896000D03*
X261937500Y-72136000D03*
X254317500Y-56896000D03*
X259397500Y-72136000D03*
X256857500Y-56896000D03*
X256857500Y-72136000D03*
X259397500Y-56896000D03*
X254317500Y-72136000D03*
X261937500Y-56896000D03*
X251777500Y-72136000D03*
X264477500Y-56896000D03*
X249237500Y-72136000D03*
X267017500Y-56896000D03*
X246697500Y-72136000D03*
X269557500Y-56896000D03*
X244157500Y-72136000D03*
X272097500Y-56896000D03*
X241617500Y-72136000D03*
X274637500Y-56896000D03*
X239077500Y-72136000D03*
X277177500Y-56896000D03*
X236537500Y-72136000D03*
X279717500Y-56896000D03*
X233997500Y-72136000D03*
D17*
X282257500Y-56896000D03*
%TD*%
D19*
%TO.C,Reset1*%
X318920000Y-60325000D03*
X318920000Y-64825000D03*
X312420000Y-60325000D03*
X312420000Y-64825000D03*
%TD*%
D16*
%TO.C,R4*%
X316738000Y-70104000D03*
D20*
X326898000Y-70104000D03*
%TD*%
D16*
%TO.C,R3*%
X95504000Y-58420000D03*
D20*
X95504000Y-68580000D03*
%TD*%
D16*
%TO.C,R2*%
X91186000Y-58420000D03*
D20*
X91186000Y-68580000D03*
%TD*%
D16*
%TO.C,R1*%
X86614000Y-58420000D03*
D20*
X86614000Y-68580000D03*
%TD*%
D12*
%TO.C,MX89*%
X305941300Y-181356000D03*
D13*
X300861300Y-181356000D03*
X311021300Y-181356000D03*
%TD*%
D12*
%TO.C,MX88*%
X286891300Y-181356000D03*
D13*
X281811300Y-181356000D03*
X291971300Y-181356000D03*
%TD*%
D12*
%TO.C,MX86*%
X239266300Y-181356000D03*
D13*
X234186300Y-181356000D03*
X244346300Y-181356000D03*
%TD*%
D12*
%TO.C,MX85*%
X220216300Y-181356000D03*
D13*
X215136300Y-181356000D03*
X225296300Y-181356000D03*
%TD*%
D12*
%TO.C,MX84*%
X201166300Y-181356000D03*
D13*
X196086300Y-181356000D03*
X206246300Y-181356000D03*
%TD*%
D12*
%TO.C,MX83*%
X182116300Y-181356000D03*
D13*
X177036300Y-181356000D03*
X187196300Y-181356000D03*
%TD*%
D12*
%TO.C,MX82*%
X163066300Y-181356000D03*
D13*
X157986300Y-181356000D03*
X168146300Y-181356000D03*
%TD*%
D12*
%TO.C,MX81*%
X144016300Y-181356000D03*
D13*
X138936300Y-181356000D03*
X149096300Y-181356000D03*
%TD*%
D12*
%TO.C,MX80*%
X124966300Y-181356000D03*
D13*
X119886300Y-181356000D03*
X130046300Y-181356000D03*
%TD*%
D12*
%TO.C,MX79*%
X105916300Y-181356000D03*
D13*
X100836300Y-181356000D03*
X110996300Y-181356000D03*
%TD*%
D12*
%TO.C,MX78*%
X86866300Y-181356000D03*
D13*
X81786300Y-181356000D03*
X91946300Y-181356000D03*
%TD*%
D12*
%TO.C,MX77*%
X67816300Y-181356000D03*
D13*
X62736300Y-181356000D03*
X72896300Y-181356000D03*
%TD*%
D12*
%TO.C,MX75*%
X24953800Y-181356000D03*
D13*
X19873800Y-181356000D03*
X30033800Y-181356000D03*
%TD*%
D12*
%TO.C,MX74*%
X394625400Y-162293300D03*
D13*
X389545400Y-162293300D03*
X399705400Y-162293300D03*
%TD*%
D12*
%TO.C,MX73*%
X375575400Y-162293300D03*
D13*
X370495400Y-162293300D03*
X380655400Y-162293300D03*
%TD*%
D12*
%TO.C,MX72*%
X356525400Y-162293300D03*
D13*
X351445400Y-162293300D03*
X361605400Y-162293300D03*
%TD*%
D12*
%TO.C,MX71*%
X337475400Y-162293300D03*
D13*
X332395400Y-162293300D03*
X342555400Y-162293300D03*
%TD*%
D12*
%TO.C,MX70*%
X305941300Y-162306000D03*
D13*
X300861300Y-162306000D03*
X311021300Y-162306000D03*
%TD*%
D12*
%TO.C,MX68*%
X248791300Y-162306000D03*
D13*
X243711300Y-162306000D03*
X253871300Y-162306000D03*
%TD*%
D12*
%TO.C,MX67*%
X229741300Y-162306000D03*
D13*
X224661300Y-162306000D03*
X234821300Y-162306000D03*
%TD*%
D12*
%TO.C,MX66*%
X210691300Y-162306000D03*
D13*
X205611300Y-162306000D03*
X215771300Y-162306000D03*
%TD*%
D12*
%TO.C,MX65*%
X191641300Y-162306000D03*
D13*
X186561300Y-162306000D03*
X196721300Y-162306000D03*
%TD*%
D12*
%TO.C,MX64*%
X172591300Y-162306000D03*
D13*
X167511300Y-162306000D03*
X177671300Y-162306000D03*
%TD*%
D12*
%TO.C,MX63*%
X153541300Y-162306000D03*
D13*
X148461300Y-162306000D03*
X158621300Y-162306000D03*
%TD*%
D12*
%TO.C,MX62*%
X134491300Y-162306000D03*
D13*
X129411300Y-162306000D03*
X139571300Y-162306000D03*
%TD*%
D12*
%TO.C,MX61*%
X115441300Y-162306000D03*
D13*
X110361300Y-162306000D03*
X120521300Y-162306000D03*
%TD*%
D12*
%TO.C,MX60*%
X96391300Y-162306000D03*
D13*
X91311300Y-162306000D03*
X101471300Y-162306000D03*
%TD*%
D12*
%TO.C,MX59*%
X77341300Y-162306000D03*
D13*
X72261300Y-162306000D03*
X82421300Y-162306000D03*
%TD*%
D12*
%TO.C,MX58*%
X58291300Y-162306000D03*
D13*
X53211300Y-162306000D03*
X63371300Y-162306000D03*
%TD*%
D12*
%TO.C,MX56*%
X394625400Y-143243300D03*
D13*
X389545400Y-143243300D03*
X399705400Y-143243300D03*
%TD*%
D12*
%TO.C,MX55*%
X375575400Y-143243300D03*
D13*
X370495400Y-143243300D03*
X380655400Y-143243300D03*
%TD*%
D12*
%TO.C,MX54*%
X356525400Y-143243300D03*
D13*
X351445400Y-143243300D03*
X361605400Y-143243300D03*
%TD*%
D12*
%TO.C,MX53*%
X337475400Y-143243300D03*
D13*
X332395400Y-143243300D03*
X342555400Y-143243300D03*
%TD*%
D12*
%TO.C,MX51*%
X282128800Y-143256000D03*
D13*
X277048800Y-143256000D03*
X287208800Y-143256000D03*
%TD*%
D12*
%TO.C,MX50*%
X263078800Y-143256000D03*
D13*
X257998800Y-143256000D03*
X268158800Y-143256000D03*
%TD*%
%TO.C,MX49*%
X249108800Y-143256000D03*
X238948800Y-143256000D03*
D12*
X244028800Y-143256000D03*
%TD*%
%TO.C,MX48*%
X224978800Y-143256000D03*
D13*
X219898800Y-143256000D03*
X230058800Y-143256000D03*
%TD*%
D12*
%TO.C,MX47*%
X205928800Y-143256000D03*
D13*
X200848800Y-143256000D03*
X211008800Y-143256000D03*
%TD*%
D12*
%TO.C,MX46*%
X186878800Y-143256000D03*
D13*
X181798800Y-143256000D03*
X191958800Y-143256000D03*
%TD*%
D12*
%TO.C,MX45*%
X167828800Y-143256000D03*
D13*
X162748800Y-143256000D03*
X172908800Y-143256000D03*
%TD*%
D12*
%TO.C,MX44*%
X148778800Y-143256000D03*
D13*
X143698800Y-143256000D03*
X153858800Y-143256000D03*
%TD*%
D12*
%TO.C,MX43*%
X129728800Y-143256000D03*
D13*
X124648800Y-143256000D03*
X134808800Y-143256000D03*
%TD*%
D12*
%TO.C,MX42*%
X110678800Y-143256000D03*
D13*
X105598800Y-143256000D03*
X115758800Y-143256000D03*
%TD*%
D12*
%TO.C,MX41*%
X91628800Y-143256000D03*
D13*
X86548800Y-143256000D03*
X96708800Y-143256000D03*
%TD*%
D12*
%TO.C,MX40*%
X72578800Y-143256000D03*
D13*
X67498800Y-143256000D03*
X77658800Y-143256000D03*
%TD*%
D12*
%TO.C,MX39*%
X53528800Y-143256000D03*
D13*
X48448800Y-143256000D03*
X58608800Y-143256000D03*
%TD*%
D12*
%TO.C,MX37*%
X394625400Y-124193300D03*
D13*
X389545400Y-124193300D03*
X399705400Y-124193300D03*
%TD*%
D12*
%TO.C,MX36*%
X375575400Y-124193300D03*
D13*
X370495400Y-124193300D03*
X380655400Y-124193300D03*
%TD*%
D12*
%TO.C,MX35*%
X356525400Y-124193300D03*
D13*
X351445400Y-124193300D03*
X361605400Y-124193300D03*
%TD*%
D12*
%TO.C,MX34*%
X337475400Y-124193300D03*
D13*
X332395400Y-124193300D03*
X342555400Y-124193300D03*
%TD*%
D12*
%TO.C,MX33*%
X305941300Y-124206000D03*
D13*
X300861300Y-124206000D03*
X311021300Y-124206000D03*
%TD*%
D12*
%TO.C,MX31*%
X253553800Y-124206000D03*
D13*
X248473800Y-124206000D03*
X258633800Y-124206000D03*
%TD*%
D12*
%TO.C,MX30*%
X234503800Y-124206000D03*
D13*
X229423800Y-124206000D03*
X239583800Y-124206000D03*
%TD*%
D12*
%TO.C,MX29*%
X215453800Y-124206000D03*
D13*
X210373800Y-124206000D03*
X220533800Y-124206000D03*
%TD*%
D12*
%TO.C,MX28*%
X196403800Y-124206000D03*
D13*
X191323800Y-124206000D03*
X201483800Y-124206000D03*
%TD*%
D12*
%TO.C,MX27*%
X177353800Y-124206000D03*
D13*
X172273800Y-124206000D03*
X182433800Y-124206000D03*
%TD*%
D12*
%TO.C,MX26*%
X158303800Y-124206000D03*
D13*
X153223800Y-124206000D03*
X163383800Y-124206000D03*
%TD*%
D12*
%TO.C,MX25*%
X139253800Y-124206000D03*
D13*
X134173800Y-124206000D03*
X144333800Y-124206000D03*
%TD*%
D12*
%TO.C,MX24*%
X120203800Y-124206000D03*
D13*
X115123800Y-124206000D03*
X125283800Y-124206000D03*
%TD*%
D12*
%TO.C,MX23*%
X101153800Y-124206000D03*
D13*
X96073800Y-124206000D03*
X106233800Y-124206000D03*
%TD*%
D12*
%TO.C,MX22*%
X82103800Y-124206000D03*
D13*
X77023800Y-124206000D03*
X87183800Y-124206000D03*
%TD*%
D12*
%TO.C,MX21*%
X63053800Y-124206000D03*
D13*
X57973800Y-124206000D03*
X68133800Y-124206000D03*
%TD*%
D12*
%TO.C,MX20*%
X44003800Y-124206000D03*
D13*
X38923800Y-124206000D03*
X49083800Y-124206000D03*
%TD*%
D12*
%TO.C,MX19*%
X24953800Y-124206000D03*
D13*
X19873800Y-124206000D03*
X30033800Y-124206000D03*
%TD*%
D12*
%TO.C,MX18*%
X394639800Y-94234000D03*
D13*
X389559800Y-94234000D03*
X399719800Y-94234000D03*
%TD*%
D12*
%TO.C,MX17*%
X375589800Y-94234000D03*
D13*
X370509800Y-94234000D03*
X380669800Y-94234000D03*
%TD*%
D12*
%TO.C,MX16*%
X345135200Y-94234000D03*
D13*
X340055200Y-94234000D03*
X350215200Y-94234000D03*
%TD*%
D12*
%TO.C,MX15*%
X326085200Y-94234000D03*
D13*
X321005200Y-94234000D03*
X331165200Y-94234000D03*
%TD*%
D12*
%TO.C,MX14*%
X307035200Y-94234000D03*
D13*
X301955200Y-94234000D03*
X312115200Y-94234000D03*
%TD*%
D12*
%TO.C,MX13*%
X287985200Y-94234000D03*
D13*
X282905200Y-94234000D03*
X293065200Y-94234000D03*
%TD*%
D12*
%TO.C,MX12*%
X257454400Y-94234000D03*
D13*
X252374400Y-94234000D03*
X262534400Y-94234000D03*
%TD*%
D12*
%TO.C,MX11*%
X238404400Y-94234000D03*
D13*
X233324400Y-94234000D03*
X243484400Y-94234000D03*
%TD*%
D12*
%TO.C,MX10*%
X219354400Y-94234000D03*
D13*
X214274400Y-94234000D03*
X224434400Y-94234000D03*
%TD*%
D12*
%TO.C,MX9*%
X200304400Y-94234000D03*
D13*
X195224400Y-94234000D03*
X205384400Y-94234000D03*
%TD*%
D12*
%TO.C,MX8*%
X169722800Y-94234000D03*
D13*
X164642800Y-94234000D03*
X174802800Y-94234000D03*
%TD*%
D12*
%TO.C,MX7*%
X150672800Y-94234000D03*
D13*
X145592800Y-94234000D03*
X155752800Y-94234000D03*
%TD*%
D12*
%TO.C,MX6*%
X131622800Y-94234000D03*
D13*
X126542800Y-94234000D03*
X136702800Y-94234000D03*
%TD*%
D12*
%TO.C,MX5*%
X112572800Y-94234000D03*
D13*
X107492800Y-94234000D03*
X117652800Y-94234000D03*
%TD*%
D12*
%TO.C,MX4*%
X82092800Y-94234000D03*
D13*
X77012800Y-94234000D03*
X87172800Y-94234000D03*
%TD*%
D12*
%TO.C,MX3*%
X63042800Y-94234000D03*
D13*
X57962800Y-94234000D03*
X68122800Y-94234000D03*
%TD*%
D12*
%TO.C,MX2*%
X43992800Y-94234000D03*
D13*
X38912800Y-94234000D03*
X49072800Y-94234000D03*
%TD*%
D12*
%TO.C,MX1*%
X24942800Y-94234000D03*
D13*
X19862800Y-94234000D03*
X30022800Y-94234000D03*
%TD*%
D21*
%TO.C,J1*%
X358013000Y-65786000D03*
X355473000Y-65786000D03*
X358013000Y-63246000D03*
X355473000Y-63246000D03*
X358013000Y-60706000D03*
D22*
X355473000Y-60706000D03*
%TD*%
D19*
%TO.C,F1*%
X58547000Y-67300000D03*
X63627000Y-67310000D03*
%TD*%
D16*
%TO.C,D2*%
X103505000Y-59817000D03*
D17*
X103505000Y-67437000D03*
%TD*%
D16*
%TO.C,D1*%
X99949000Y-59817000D03*
D17*
X99949000Y-67437000D03*
%TD*%
D20*
%TO.C,C5*%
X291766000Y-56769000D03*
X286766000Y-56769000D03*
%TD*%
%TO.C,C4*%
X291893000Y-72263000D03*
X286893000Y-72263000D03*
%TD*%
%TO.C,C3*%
X259421000Y-69088000D03*
X256921000Y-69088000D03*
%TD*%
%TO.C,C2*%
X256834000Y-53721000D03*
X259334000Y-53721000D03*
%TD*%
D23*
%TO.C,C1*%
X74017000Y-67310000D03*
D24*
X72517000Y-67310000D03*
%TD*%
D19*
%TO.C,Boot1*%
X331874000Y-60325000D03*
X331874000Y-64825000D03*
X325374000Y-60325000D03*
X325374000Y-64825000D03*
%TD*%
M02*
