M48
; DRILL file {KiCad (5.1.6)-1} date 09/21/20 09:23:48
; FORMAT={-:-/ absolute / inch / decimal}
; #@! TF.CreationDate,2020-09-21T09:23:48+02:00
; #@! TF.GenerationSoftware,Kicad,Pcbnew,(5.1.6)-1
; #@! TF.FileFunction,Plated,1,2,PTH
FMAT,2
INCH
T1C0.0157
T2C0.0236
T3C0.0276
T4C0.0315
T5C0.0394
T6C0.0433
T7C0.0579
%
G90
G05
T1
X13.745Y-2.555
T2
X2.865Y-2.8
X2.9241Y-2.8
T4
X2.09Y-4.82
X2.09Y-5.12
X10.73Y-5.555
X10.73Y-5.855
X13.68Y-5.555
X13.68Y-5.855
X10.18Y-6.31
X10.18Y-6.61
X9.8Y-7.055
X9.8Y-7.355
X11.68Y-6.31
X11.68Y-6.61
X9.045Y-7.055
X9.045Y-7.355
X2.275Y-7.055
X2.275Y-7.355
X3.945Y-2.505
X3.945Y-2.805
X12.435Y-7.055
X12.435Y-7.355
X3.6Y-2.45
X3.6Y-2.85
X10.11Y-3.07
X10.2084Y-3.07
X4.71Y-5.555
X4.71Y-5.855
X15.185Y-7.055
X15.185Y-7.355
X5.09Y-4.82
X5.09Y-5.12
X13.225Y-3.635
X13.225Y-3.935
X2.085Y-3.635
X2.085Y-3.935
X8.26Y-3.635
X8.26Y-3.935
X11.485Y-5.555
X11.485Y-5.855
X6.97Y-5.555
X6.97Y-5.855
X1.34Y-7.055
X1.34Y-7.355
X4.53Y-7.055
X4.53Y-7.355
X15.185Y-6.31
X15.185Y-6.61
X12.925Y-7.055
X12.925Y-7.355
X13.68Y-6.31
X13.68Y-6.61
X13.68Y-4.82
X13.68Y-5.12
X9.61Y-4.82
X9.61Y-5.12
X8.855Y-4.82
X8.855Y-5.12
X11.285Y-2.345
X11.4819Y-2.345
X1.34Y-4.82
X1.34Y-5.12
X3.59Y-3.635
X3.59Y-3.935
X6.3Y-3.635
X6.3Y-3.935
X4.16Y-6.31
X4.16Y-6.61
X7.72Y-5.555
X7.72Y-5.855
X12.925Y-6.31
X12.925Y-6.61
X6.325Y-7.745
X6.325Y-8.045
X4.91Y-6.31
X4.91Y-6.61
X2.135Y-7.745
X2.135Y-8.045
X8.675Y-6.31
X8.675Y-6.61
X11.29Y-2.955
X11.4869Y-2.955
X2.46Y-5.555
X2.46Y-5.855
X14.43Y-7.81
X14.43Y-8.11
X12.435Y-4.82
X12.435Y-5.12
X15.185Y-4.82
X15.185Y-5.12
X15.185Y-3.635
X15.185Y-3.935
X2.84Y-4.82
X2.84Y-5.12
X9.015Y-3.635
X9.015Y-3.935
X1.85Y-6.31
X1.85Y-6.61
X3.405Y-6.31
X3.405Y-6.61
X8.47Y-5.555
X8.47Y-5.855
X14.435Y-6.31
X14.435Y-6.61
X5.285Y-7.055
X5.285Y-7.355
X3.77Y-2.45
X3.77Y-2.85
X9.425Y-6.31
X9.425Y-6.61
X10.175Y-7.81
X10.175Y-8.11
X9.2075Y-2.35
X9.2075Y-2.95
X9.3075Y-2.35
X9.3075Y-2.95
X9.4075Y-2.35
X9.4075Y-2.95
X9.5075Y-2.35
X9.5075Y-2.95
X9.6075Y-2.35
X9.6075Y-2.95
X9.7075Y-2.35
X9.7075Y-2.95
X9.8075Y-2.35
X9.8075Y-2.95
X9.9075Y-2.35
X9.9075Y-2.95
X10.0075Y-2.35
X10.0075Y-2.95
X10.1075Y-2.35
X10.1075Y-2.95
X10.2075Y-2.35
X10.2075Y-2.95
X10.3075Y-2.35
X10.3075Y-2.95
X10.4075Y-2.35
X10.4075Y-2.95
X10.5075Y-2.35
X10.5075Y-2.95
X10.6075Y-2.35
X10.6075Y-2.95
X10.7075Y-2.35
X10.7075Y-2.95
X10.8075Y-2.35
X10.8075Y-2.95
X10.9075Y-2.35
X10.9075Y-2.95
X11.0075Y-2.35
X11.0075Y-2.95
X11.1075Y-2.35
X11.1075Y-2.95
X3.21Y-5.555
X3.21Y-5.855
X15.185Y-7.81
X15.185Y-8.11
X7.345Y-4.82
X7.345Y-5.12
X12.435Y-7.81
X12.435Y-8.11
X5.845Y-4.82
X5.845Y-5.12
X10.52Y-3.635
X10.52Y-3.935
X3.59Y-4.82
X3.59Y-5.12
X13.975Y-3.635
X13.975Y-3.935
X2.655Y-6.31
X2.655Y-6.61
X12.925Y-5.555
X12.925Y-5.855
X6.035Y-7.055
X6.035Y-7.355
X12.43Y-5.555
X12.43Y-5.855
X12.435Y-6.31
X12.435Y-6.61
X10.925Y-7.81
X10.925Y-8.11
X3.42Y-2.45
X3.42Y-2.85
X5.66Y-6.31
X5.66Y-6.61
X11.68Y-7.055
X11.68Y-7.355
X4.085Y-2.505
X4.085Y-2.805
X6.595Y-4.82
X6.595Y-5.12
X14.43Y-4.82
X14.43Y-5.12
X8.1Y-4.82
X8.1Y-5.12
X12.475Y-3.635
X12.475Y-3.935
X1.335Y-3.635
X1.335Y-3.935
X9.765Y-3.635
X9.765Y-3.935
X4.34Y-4.82
X4.34Y-5.12
X14.435Y-5.555
X14.435Y-5.855
X5.465Y-5.555
X5.465Y-5.855
X14.43Y-7.055
X14.43Y-7.355
X9.225Y-5.555
X9.225Y-5.855
X3.78Y-7.055
X3.78Y-7.355
X6.79Y-7.055
X6.79Y-7.355
X7.17Y-6.31
X7.17Y-6.61
X10.925Y-7.055
X10.925Y-7.355
X11.39Y-2.5529
X11.39Y-2.745
X10.405Y-4.82
X10.405Y-5.12
X11.68Y-7.81
X11.68Y-8.11
X1.655Y-5.555
X1.655Y-5.855
X12.925Y-4.82
X12.925Y-5.12
X11.72Y-3.635
X11.72Y-3.935
X4.795Y-3.635
X4.795Y-3.935
X5.55Y-3.635
X5.55Y-3.935
X14.435Y-3.635
X14.435Y-3.935
X9.98Y-5.555
X9.98Y-5.855
X6.215Y-5.555
X6.215Y-5.855
X3.03Y-7.055
X3.03Y-7.355
X13.675Y-7.055
X13.675Y-7.355
X15.185Y-5.555
X15.185Y-5.855
X6.415Y-6.31
X6.415Y-6.61
X7.54Y-7.055
X7.54Y-7.355
X7.92Y-6.31
X7.92Y-6.61
X10.1116Y-2.23
X10.21Y-2.23
X8.295Y-7.055
X8.295Y-7.355
X12.44Y-2.94
X12.84Y-2.94
X11.63Y-4.82
X11.63Y-5.12
X3.96Y-5.555
X3.96Y-5.855
X2.84Y-3.635
X2.84Y-3.935
X7.05Y-3.635
X7.05Y-3.935
T5
X2.315Y-2.7996
X2.515Y-2.8
X13.99Y-2.455
X13.99Y-2.555
X13.99Y-2.655
X14.09Y-2.455
X14.09Y-2.555
X14.09Y-2.655
T6
X12.78Y-2.55
X12.78Y-2.7272
X13.0359Y-2.55
X13.0359Y-2.7272
X12.27Y-2.55
X12.27Y-2.7272
X12.5259Y-2.55
X12.5259Y-2.7272
T7
X3.435Y-5.5475
X3.685Y-5.4475
X12.6975Y-3.615
X12.9475Y-3.515
X10.4Y-7.8
X10.65Y-7.7
X14.6575Y-4.8
X14.9075Y-4.7
X5.6Y-7.8025
X5.85Y-7.7025
X5.69Y-5.5475
X5.94Y-5.4475
X5.51Y-7.0475
X5.76Y-6.9475
X4.005Y-7.0475
X4.255Y-6.9475
X8.145Y-6.2975
X8.395Y-6.1975
X11.9075Y-7.0475
X12.1575Y-6.9475
X14.66Y-5.545
X14.91Y-5.445
X4.1875Y-5.5475
X4.4375Y-5.4475
X15.41Y-4.8
X15.66Y-4.7
X4.565Y-4.8
X4.815Y-4.7
X13.5275Y-7.8
X13.7775Y-7.7
X7.575Y-4.8
X7.825Y-4.7
X5.775Y-3.615
X6.025Y-3.515
X14.66Y-7.0475
X14.91Y-6.9475
X6.4425Y-5.5475
X6.6925Y-5.4475
X3.635Y-6.2975
X3.885Y-6.1975
X4.7575Y-7.0475
X5.0075Y-6.9475
X11.1525Y-7.0475
X11.4025Y-6.9475
X8.6975Y-5.5475
X8.9475Y-5.4475
X13.1525Y-5.5475
X13.4025Y-5.4475
X0.81Y-3.615
X1.06Y-3.515
X9.835Y-4.8
X10.085Y-4.7
X6.8175Y-4.8
X7.0675Y-4.7
X6.525Y-3.615
X6.775Y-3.515
X13.905Y-4.8
X14.155Y-4.7
X15.3575Y-7.4225
X15.4575Y-7.6725
X5.3175Y-4.8
X5.5675Y-4.7
X2.315Y-4.8
X2.565Y-4.7
X11.9075Y-7.8
X12.1575Y-7.7
X7.945Y-5.5475
X8.195Y-5.4475
X2.505Y-7.0475
X2.755Y-6.9475
X7.195Y-5.5475
X7.445Y-5.4475
X11.81Y-5.5475
X12.06Y-5.4475
X10.205Y-5.5475
X10.455Y-5.4475
X9.45Y-5.5475
X9.7Y-5.4475
X3.065Y-3.615
X3.315Y-3.515
X10.87Y-4.8
X11.12Y-4.7
X11.9475Y-3.615
X12.1975Y-3.515
X3.065Y-4.8
X3.315Y-4.7
X8.325Y-4.8
X8.575Y-4.7
X5.0225Y-3.615
X5.2725Y-3.515
X1.565Y-4.8
X1.815Y-4.7
X13.905Y-7.0475
X14.155Y-6.9475
X14.66Y-7.8
X14.91Y-7.7
X15.4075Y-5.545
X15.6575Y-5.445
X6.64Y-6.2975
X6.89Y-6.1975
X0.995Y-5.5475
X1.245Y-5.4475
X9.6475Y-6.2975
X9.8975Y-6.1975
X5.1375Y-6.2975
X5.3875Y-6.1975
X2.315Y-3.615
X2.565Y-3.515
X7.395Y-6.2975
X7.645Y-6.1975
X3.815Y-4.8
X4.065Y-4.7
X4.27Y-3.615
X4.52Y-3.515
X1.935Y-5.5475
X2.185Y-5.4475
X9.99Y-3.615
X10.24Y-3.515
X1.185Y-7.8025
X1.435Y-7.7025
X6.0675Y-4.8
X6.3175Y-4.7
X10.21Y-7.0475
X10.46Y-6.9475
X2.13Y-6.2975
X2.38Y-6.1975
X13.1525Y-6.2975
X13.4025Y-6.1975
X8.52Y-7.0475
X8.77Y-6.9475
X13.905Y-5.545
X14.155Y-5.445
X1.5625Y-3.615
X1.8125Y-3.515
X11.9075Y-6.2975
X12.1575Y-6.1975
X7.765Y-7.0475
X8.015Y-6.9475
X4.385Y-6.2975
X4.635Y-6.1975
X0.81Y-4.8
X1.06Y-4.7
X8.485Y-3.615
X8.735Y-3.515
X2.685Y-5.5475
X2.935Y-5.4475
X14.66Y-3.615
X14.91Y-3.515
X9.6475Y-7.8
X9.8975Y-7.7
X7.735Y-3.615
X7.985Y-3.515
X6.2625Y-7.0475
X6.5125Y-6.9475
X8.8975Y-6.2975
X9.1475Y-6.1975
X0.8125Y-7.0475
X1.0625Y-6.9475
X1.6575Y-7.0475
X1.9075Y-6.9475
X5.8875Y-6.2975
X6.1375Y-6.1975
X7.0125Y-7.0475
X7.2625Y-6.9475
X10.955Y-5.5475
X11.205Y-5.4475
X9.2725Y-7.0475
X9.5225Y-6.9475
X4.9375Y-5.5475
X5.1875Y-5.4475
X10.78Y-6.2975
X11.03Y-6.1975
X9.2375Y-3.615
X9.4875Y-3.515
X11.9075Y-4.8
X12.1575Y-4.7
X15.41Y-3.615
X15.66Y-3.515
X11.195Y-3.615
X11.445Y-3.515
X13.1525Y-7.0475
X13.4025Y-6.9475
X13.45Y-3.615
X13.7Y-3.515
X11.1525Y-7.8
X11.4025Y-7.7
X15.4075Y-6.2975
X15.6575Y-6.1975
X14.66Y-6.2975
X14.91Y-6.1975
X3.255Y-7.0475
X3.505Y-6.9475
X13.9075Y-6.2975
X14.1575Y-6.1975
X1.0975Y-6.2975
X1.3475Y-6.1975
X2.88Y-6.2975
X3.13Y-6.1975
X9.08Y-4.8
X9.33Y-4.7
X13.1525Y-4.8
X13.4025Y-4.7
T3
G00X1.5863Y-2.0203
M15
G01X1.5863Y-2.0675
M16
G05
G00X1.667Y-2.2427
M15
G01X1.667Y-2.2427
M16
G05
G00X1.6985Y-2.1955
M15
G01X1.6985Y-2.1955
M16
G05
G00X1.73Y-2.2427
M15
G01X1.73Y-2.2427
M16
G05
G00X1.7615Y-2.1955
M15
G01X1.7615Y-2.1955
M16
G05
G00X1.793Y-2.2427
M15
G01X1.793Y-2.2427
M16
G05
G00X1.8737Y-2.0203
M15
G01X1.8737Y-2.0675
M16
G05
T0
M30
