%TF.GenerationSoftware,KiCad,Pcbnew,(5.1.6)-1*%
%TF.CreationDate,2020-09-21T09:23:47+02:00*%
%TF.ProjectId,wy60_usb,77793630-5f75-4736-922e-6b696361645f,rev?*%
%TF.SameCoordinates,Original*%
%TF.FileFunction,Legend,Bot*%
%TF.FilePolarity,Positive*%
%FSLAX46Y46*%
G04 Gerber Fmt 4.6, Leading zero omitted, Abs format (unit mm)*
G04 Created by KiCad (PCBNEW (5.1.6)-1) date 2020-09-21 09:23:47*
%MOMM*%
%LPD*%
G01*
G04 APERTURE LIST*
%ADD10C,0.300000*%
%ADD11C,0.010000*%
G04 APERTURE END LIST*
D10*
X151482714Y-65716571D02*
X151125571Y-67216571D01*
X150839857Y-66145142D01*
X150554142Y-67216571D01*
X150197000Y-65716571D01*
X149339857Y-66502285D02*
X149339857Y-67216571D01*
X149839857Y-65716571D02*
X149339857Y-66502285D01*
X148839857Y-65716571D01*
X148339857Y-66645142D02*
X147197000Y-66645142D01*
X145839857Y-65716571D02*
X146125571Y-65716571D01*
X146268428Y-65788000D01*
X146339857Y-65859428D01*
X146482714Y-66073714D01*
X146554142Y-66359428D01*
X146554142Y-66930857D01*
X146482714Y-67073714D01*
X146411285Y-67145142D01*
X146268428Y-67216571D01*
X145982714Y-67216571D01*
X145839857Y-67145142D01*
X145768428Y-67073714D01*
X145697000Y-66930857D01*
X145697000Y-66573714D01*
X145768428Y-66430857D01*
X145839857Y-66359428D01*
X145982714Y-66288000D01*
X146268428Y-66288000D01*
X146411285Y-66359428D01*
X146482714Y-66430857D01*
X146554142Y-66573714D01*
X144768428Y-65716571D02*
X144625571Y-65716571D01*
X144482714Y-65788000D01*
X144411285Y-65859428D01*
X144339857Y-66002285D01*
X144268428Y-66288000D01*
X144268428Y-66645142D01*
X144339857Y-66930857D01*
X144411285Y-67073714D01*
X144482714Y-67145142D01*
X144625571Y-67216571D01*
X144768428Y-67216571D01*
X144911285Y-67145142D01*
X144982714Y-67073714D01*
X145054142Y-66930857D01*
X145125571Y-66645142D01*
X145125571Y-66288000D01*
X145054142Y-66002285D01*
X144982714Y-65859428D01*
X144911285Y-65788000D01*
X144768428Y-65716571D01*
X142482714Y-65716571D02*
X142482714Y-66930857D01*
X142411285Y-67073714D01*
X142339857Y-67145142D01*
X142197000Y-67216571D01*
X141911285Y-67216571D01*
X141768428Y-67145142D01*
X141697000Y-67073714D01*
X141625571Y-66930857D01*
X141625571Y-65716571D01*
X140982714Y-67145142D02*
X140768428Y-67216571D01*
X140411285Y-67216571D01*
X140268428Y-67145142D01*
X140197000Y-67073714D01*
X140125571Y-66930857D01*
X140125571Y-66788000D01*
X140197000Y-66645142D01*
X140268428Y-66573714D01*
X140411285Y-66502285D01*
X140697000Y-66430857D01*
X140839857Y-66359428D01*
X140911285Y-66288000D01*
X140982714Y-66145142D01*
X140982714Y-66002285D01*
X140911285Y-65859428D01*
X140839857Y-65788000D01*
X140697000Y-65716571D01*
X140339857Y-65716571D01*
X140125571Y-65788000D01*
X138982714Y-66430857D02*
X138768428Y-66502285D01*
X138697000Y-66573714D01*
X138625571Y-66716571D01*
X138625571Y-66930857D01*
X138697000Y-67073714D01*
X138768428Y-67145142D01*
X138911285Y-67216571D01*
X139482714Y-67216571D01*
X139482714Y-65716571D01*
X138982714Y-65716571D01*
X138839857Y-65788000D01*
X138768428Y-65859428D01*
X138697000Y-66002285D01*
X138697000Y-66145142D01*
X138768428Y-66288000D01*
X138839857Y-66359428D01*
X138982714Y-66430857D01*
X139482714Y-66430857D01*
X136839857Y-67216571D02*
X136839857Y-65716571D01*
X136268428Y-65716571D01*
X136125571Y-65788000D01*
X136054142Y-65859428D01*
X135982714Y-66002285D01*
X135982714Y-66216571D01*
X136054142Y-66359428D01*
X136125571Y-66430857D01*
X136268428Y-66502285D01*
X136839857Y-66502285D01*
X134482714Y-67073714D02*
X134554142Y-67145142D01*
X134768428Y-67216571D01*
X134911285Y-67216571D01*
X135125571Y-67145142D01*
X135268428Y-67002285D01*
X135339857Y-66859428D01*
X135411285Y-66573714D01*
X135411285Y-66359428D01*
X135339857Y-66073714D01*
X135268428Y-65930857D01*
X135125571Y-65788000D01*
X134911285Y-65716571D01*
X134768428Y-65716571D01*
X134554142Y-65788000D01*
X134482714Y-65859428D01*
X133339857Y-66430857D02*
X133125571Y-66502285D01*
X133054142Y-66573714D01*
X132982714Y-66716571D01*
X132982714Y-66930857D01*
X133054142Y-67073714D01*
X133125571Y-67145142D01*
X133268428Y-67216571D01*
X133839857Y-67216571D01*
X133839857Y-65716571D01*
X133339857Y-65716571D01*
X133197000Y-65788000D01*
X133125571Y-65859428D01*
X133054142Y-66002285D01*
X133054142Y-66145142D01*
X133125571Y-66288000D01*
X133197000Y-66359428D01*
X133339857Y-66430857D01*
X133839857Y-66430857D01*
X131197000Y-67216571D02*
X131197000Y-66216571D01*
X131197000Y-66502285D02*
X131125571Y-66359428D01*
X131054142Y-66288000D01*
X130911285Y-66216571D01*
X130768428Y-66216571D01*
X129697000Y-67145142D02*
X129839857Y-67216571D01*
X130125571Y-67216571D01*
X130268428Y-67145142D01*
X130339857Y-67002285D01*
X130339857Y-66430857D01*
X130268428Y-66288000D01*
X130125571Y-66216571D01*
X129839857Y-66216571D01*
X129697000Y-66288000D01*
X129625571Y-66430857D01*
X129625571Y-66573714D01*
X130339857Y-66716571D01*
X129125571Y-66216571D02*
X128768428Y-67216571D01*
X128411285Y-66216571D01*
X127839857Y-67073714D02*
X127768428Y-67145142D01*
X127839857Y-67216571D01*
X127911285Y-67145142D01*
X127839857Y-67073714D01*
X127839857Y-67216571D01*
X125197000Y-67216571D02*
X126054142Y-67216571D01*
X125625571Y-67216571D02*
X125625571Y-65716571D01*
X125768428Y-65930857D01*
X125911285Y-66073714D01*
X126054142Y-66145142D01*
X150697000Y-68766571D02*
X150697000Y-69980857D01*
X150768428Y-70123714D01*
X150839857Y-70195142D01*
X150982714Y-70266571D01*
X151197000Y-70266571D01*
X151339857Y-70195142D01*
X150697000Y-69695142D02*
X150839857Y-69766571D01*
X151125571Y-69766571D01*
X151268428Y-69695142D01*
X151339857Y-69623714D01*
X151411285Y-69480857D01*
X151411285Y-69052285D01*
X151339857Y-68909428D01*
X151268428Y-68838000D01*
X151125571Y-68766571D01*
X150839857Y-68766571D01*
X150697000Y-68838000D01*
X149982714Y-69766571D02*
X149982714Y-68766571D01*
X149982714Y-68266571D02*
X150054142Y-68338000D01*
X149982714Y-68409428D01*
X149911285Y-68338000D01*
X149982714Y-68266571D01*
X149982714Y-68409428D01*
X149482714Y-68766571D02*
X148911285Y-68766571D01*
X149268428Y-68266571D02*
X149268428Y-69552285D01*
X149197000Y-69695142D01*
X149054142Y-69766571D01*
X148911285Y-69766571D01*
X148411285Y-69766571D02*
X148411285Y-68266571D01*
X147768428Y-69766571D02*
X147768428Y-68980857D01*
X147839857Y-68838000D01*
X147982714Y-68766571D01*
X148197000Y-68766571D01*
X148339857Y-68838000D01*
X148411285Y-68909428D01*
X146411285Y-68766571D02*
X146411285Y-69766571D01*
X147054142Y-68766571D02*
X147054142Y-69552285D01*
X146982714Y-69695142D01*
X146839857Y-69766571D01*
X146625571Y-69766571D01*
X146482714Y-69695142D01*
X146411285Y-69623714D01*
X145697000Y-69766571D02*
X145697000Y-68266571D01*
X145697000Y-68838000D02*
X145554142Y-68766571D01*
X145268428Y-68766571D01*
X145125571Y-68838000D01*
X145054142Y-68909428D01*
X144982714Y-69052285D01*
X144982714Y-69480857D01*
X145054142Y-69623714D01*
X145125571Y-69695142D01*
X145268428Y-69766571D01*
X145554142Y-69766571D01*
X145697000Y-69695142D01*
X144339857Y-69623714D02*
X144268428Y-69695142D01*
X144339857Y-69766571D01*
X144411285Y-69695142D01*
X144339857Y-69623714D01*
X144339857Y-69766571D01*
X142982714Y-69695142D02*
X143125571Y-69766571D01*
X143411285Y-69766571D01*
X143554142Y-69695142D01*
X143625571Y-69623714D01*
X143697000Y-69480857D01*
X143697000Y-69052285D01*
X143625571Y-68909428D01*
X143554142Y-68838000D01*
X143411285Y-68766571D01*
X143125571Y-68766571D01*
X142982714Y-68838000D01*
X142125571Y-69766571D02*
X142268428Y-69695142D01*
X142339857Y-69623714D01*
X142411285Y-69480857D01*
X142411285Y-69052285D01*
X142339857Y-68909428D01*
X142268428Y-68838000D01*
X142125571Y-68766571D01*
X141911285Y-68766571D01*
X141768428Y-68838000D01*
X141697000Y-68909428D01*
X141625571Y-69052285D01*
X141625571Y-69480857D01*
X141697000Y-69623714D01*
X141768428Y-69695142D01*
X141911285Y-69766571D01*
X142125571Y-69766571D01*
X140982714Y-69766571D02*
X140982714Y-68766571D01*
X140982714Y-68909428D02*
X140911285Y-68838000D01*
X140768428Y-68766571D01*
X140554142Y-68766571D01*
X140411285Y-68838000D01*
X140339857Y-68980857D01*
X140339857Y-69766571D01*
X140339857Y-68980857D02*
X140268428Y-68838000D01*
X140125571Y-68766571D01*
X139911285Y-68766571D01*
X139768428Y-68838000D01*
X139697000Y-68980857D01*
X139697000Y-69766571D01*
X137911285Y-68195142D02*
X139197000Y-70123714D01*
X137411285Y-69766571D02*
X137411285Y-68266571D01*
X137268428Y-69195142D02*
X136839857Y-69766571D01*
X136839857Y-68766571D02*
X137411285Y-69338000D01*
X136197000Y-69766571D02*
X136197000Y-68266571D01*
X136197000Y-68838000D02*
X136054142Y-68766571D01*
X135768428Y-68766571D01*
X135625571Y-68838000D01*
X135554142Y-68909428D01*
X135482714Y-69052285D01*
X135482714Y-69480857D01*
X135554142Y-69623714D01*
X135625571Y-69695142D01*
X135768428Y-69766571D01*
X136054142Y-69766571D01*
X136197000Y-69695142D01*
X134839857Y-69195142D02*
X133697000Y-69195142D01*
X132411285Y-69695142D02*
X132554142Y-69766571D01*
X132839857Y-69766571D01*
X132982714Y-69695142D01*
X133054142Y-69552285D01*
X133054142Y-68980857D01*
X132982714Y-68838000D01*
X132839857Y-68766571D01*
X132554142Y-68766571D01*
X132411285Y-68838000D01*
X132339857Y-68980857D01*
X132339857Y-69123714D01*
X133054142Y-69266571D01*
X131482714Y-69766571D02*
X131625571Y-69695142D01*
X131697000Y-69552285D01*
X131697000Y-68266571D01*
X130911285Y-69766571D02*
X130911285Y-68766571D01*
X130911285Y-68909428D02*
X130839857Y-68838000D01*
X130697000Y-68766571D01*
X130482714Y-68766571D01*
X130339857Y-68838000D01*
X130268428Y-68980857D01*
X130268428Y-69766571D01*
X130268428Y-68980857D02*
X130197000Y-68838000D01*
X130054142Y-68766571D01*
X129839857Y-68766571D01*
X129697000Y-68838000D01*
X129625571Y-68980857D01*
X129625571Y-69766571D01*
X128697000Y-69766571D02*
X128839857Y-69695142D01*
X128911285Y-69623714D01*
X128982714Y-69480857D01*
X128982714Y-69052285D01*
X128911285Y-68909428D01*
X128839857Y-68838000D01*
X128697000Y-68766571D01*
X128482714Y-68766571D01*
X128339857Y-68838000D01*
X128268428Y-68909428D01*
X128197000Y-69052285D01*
X128197000Y-69480857D01*
X128268428Y-69623714D01*
X128339857Y-69695142D01*
X128482714Y-69766571D01*
X128697000Y-69766571D01*
X126482714Y-68195142D02*
X127768428Y-70123714D01*
X126125571Y-68766571D02*
X125839857Y-69766571D01*
X125554142Y-69052285D01*
X125268428Y-69766571D01*
X124982714Y-68766571D01*
X124554142Y-68766571D02*
X124197000Y-69766571D01*
X123839857Y-68766571D02*
X124197000Y-69766571D01*
X124339857Y-70123714D01*
X124411285Y-70195142D01*
X124554142Y-70266571D01*
X122625571Y-68266571D02*
X122911285Y-68266571D01*
X123054142Y-68338000D01*
X123125571Y-68409428D01*
X123268428Y-68623714D01*
X123339857Y-68909428D01*
X123339857Y-69480857D01*
X123268428Y-69623714D01*
X123197000Y-69695142D01*
X123054142Y-69766571D01*
X122768428Y-69766571D01*
X122625571Y-69695142D01*
X122554142Y-69623714D01*
X122482714Y-69480857D01*
X122482714Y-69123714D01*
X122554142Y-68980857D01*
X122625571Y-68909428D01*
X122768428Y-68838000D01*
X123054142Y-68838000D01*
X123197000Y-68909428D01*
X123268428Y-68980857D01*
X123339857Y-69123714D01*
X121554142Y-68266571D02*
X121411285Y-68266571D01*
X121268428Y-68338000D01*
X121197000Y-68409428D01*
X121125571Y-68552285D01*
X121054142Y-68838000D01*
X121054142Y-69195142D01*
X121125571Y-69480857D01*
X121197000Y-69623714D01*
X121268428Y-69695142D01*
X121411285Y-69766571D01*
X121554142Y-69766571D01*
X121697000Y-69695142D01*
X121768428Y-69623714D01*
X121839857Y-69480857D01*
X121911285Y-69195142D01*
X121911285Y-68838000D01*
X121839857Y-68552285D01*
X121768428Y-68409428D01*
X121697000Y-68338000D01*
X121554142Y-68266571D01*
X120768428Y-69909428D02*
X119625571Y-69909428D01*
X118625571Y-68766571D02*
X118625571Y-69766571D01*
X119268428Y-68766571D02*
X119268428Y-69552285D01*
X119197000Y-69695142D01*
X119054142Y-69766571D01*
X118839857Y-69766571D01*
X118697000Y-69695142D01*
X118625571Y-69623714D01*
X117982714Y-69695142D02*
X117839857Y-69766571D01*
X117554142Y-69766571D01*
X117411285Y-69695142D01*
X117339857Y-69552285D01*
X117339857Y-69480857D01*
X117411285Y-69338000D01*
X117554142Y-69266571D01*
X117768428Y-69266571D01*
X117911285Y-69195142D01*
X117982714Y-69052285D01*
X117982714Y-68980857D01*
X117911285Y-68838000D01*
X117768428Y-68766571D01*
X117554142Y-68766571D01*
X117411285Y-68838000D01*
X116697000Y-69766571D02*
X116697000Y-68266571D01*
X116697000Y-68838000D02*
X116554142Y-68766571D01*
X116268428Y-68766571D01*
X116125571Y-68838000D01*
X116054142Y-68909428D01*
X115982714Y-69052285D01*
X115982714Y-69480857D01*
X116054142Y-69623714D01*
X116125571Y-69695142D01*
X116268428Y-69766571D01*
X116554142Y-69766571D01*
X116697000Y-69695142D01*
X150768428Y-72245142D02*
X150911285Y-72316571D01*
X151197000Y-72316571D01*
X151339857Y-72245142D01*
X151411285Y-72102285D01*
X151411285Y-71530857D01*
X151339857Y-71388000D01*
X151197000Y-71316571D01*
X150911285Y-71316571D01*
X150768428Y-71388000D01*
X150697000Y-71530857D01*
X150697000Y-71673714D01*
X151411285Y-71816571D01*
X149839857Y-72316571D02*
X149982714Y-72245142D01*
X150054142Y-72102285D01*
X150054142Y-70816571D01*
X149268428Y-72316571D02*
X149268428Y-71316571D01*
X149268428Y-71459428D02*
X149197000Y-71388000D01*
X149054142Y-71316571D01*
X148839857Y-71316571D01*
X148697000Y-71388000D01*
X148625571Y-71530857D01*
X148625571Y-72316571D01*
X148625571Y-71530857D02*
X148554142Y-71388000D01*
X148411285Y-71316571D01*
X148197000Y-71316571D01*
X148054142Y-71388000D01*
X147982714Y-71530857D01*
X147982714Y-72316571D01*
X147054142Y-72316571D02*
X147197000Y-72245142D01*
X147268428Y-72173714D01*
X147339857Y-72030857D01*
X147339857Y-71602285D01*
X147268428Y-71459428D01*
X147197000Y-71388000D01*
X147054142Y-71316571D01*
X146839857Y-71316571D01*
X146697000Y-71388000D01*
X146625571Y-71459428D01*
X146554142Y-71602285D01*
X146554142Y-72030857D01*
X146625571Y-72173714D01*
X146697000Y-72245142D01*
X146839857Y-72316571D01*
X147054142Y-72316571D01*
X145911285Y-72173714D02*
X145839857Y-72245142D01*
X145911285Y-72316571D01*
X145982714Y-72245142D01*
X145911285Y-72173714D01*
X145911285Y-72316571D01*
X145268428Y-72245142D02*
X145125571Y-72316571D01*
X144839857Y-72316571D01*
X144697000Y-72245142D01*
X144625571Y-72102285D01*
X144625571Y-72030857D01*
X144697000Y-71888000D01*
X144839857Y-71816571D01*
X145054142Y-71816571D01*
X145197000Y-71745142D01*
X145268428Y-71602285D01*
X145268428Y-71530857D01*
X145197000Y-71388000D01*
X145054142Y-71316571D01*
X144839857Y-71316571D01*
X144697000Y-71388000D01*
X143982714Y-71316571D02*
X143982714Y-72816571D01*
X143982714Y-71388000D02*
X143839857Y-71316571D01*
X143554142Y-71316571D01*
X143411285Y-71388000D01*
X143339857Y-71459428D01*
X143268428Y-71602285D01*
X143268428Y-72030857D01*
X143339857Y-72173714D01*
X143411285Y-72245142D01*
X143554142Y-72316571D01*
X143839857Y-72316571D01*
X143982714Y-72245142D01*
X141982714Y-72316571D02*
X141982714Y-71530857D01*
X142054142Y-71388000D01*
X142197000Y-71316571D01*
X142482714Y-71316571D01*
X142625571Y-71388000D01*
X141982714Y-72245142D02*
X142125571Y-72316571D01*
X142482714Y-72316571D01*
X142625571Y-72245142D01*
X142697000Y-72102285D01*
X142697000Y-71959428D01*
X142625571Y-71816571D01*
X142482714Y-71745142D01*
X142125571Y-71745142D01*
X141982714Y-71673714D01*
X140625571Y-72245142D02*
X140768428Y-72316571D01*
X141054142Y-72316571D01*
X141197000Y-72245142D01*
X141268428Y-72173714D01*
X141339857Y-72030857D01*
X141339857Y-71602285D01*
X141268428Y-71459428D01*
X141197000Y-71388000D01*
X141054142Y-71316571D01*
X140768428Y-71316571D01*
X140625571Y-71388000D01*
X139411285Y-72245142D02*
X139554142Y-72316571D01*
X139839857Y-72316571D01*
X139982714Y-72245142D01*
X140054142Y-72102285D01*
X140054142Y-71530857D01*
X139982714Y-71388000D01*
X139839857Y-71316571D01*
X139554142Y-71316571D01*
X139411285Y-71388000D01*
X139339857Y-71530857D01*
X139339857Y-71673714D01*
X140054142Y-71816571D01*
D11*
%TO.C,G\u002A\u002A\u002A*%
G36*
X122682505Y-60531547D02*
G01*
X122613049Y-60564961D01*
X122586750Y-60615801D01*
X122606828Y-60660272D01*
X122663752Y-60745888D01*
X122752563Y-60866002D01*
X122868299Y-61013964D01*
X123006001Y-61183126D01*
X123045112Y-61230147D01*
X123503474Y-61778819D01*
X123011734Y-62436670D01*
X122879251Y-62616336D01*
X122761043Y-62781316D01*
X122662085Y-62924283D01*
X122587352Y-63037907D01*
X122541819Y-63114863D01*
X122529858Y-63146448D01*
X122565207Y-63181169D01*
X122641454Y-63203392D01*
X122736965Y-63211683D01*
X122830107Y-63204606D01*
X122899249Y-63180726D01*
X122910511Y-63171703D01*
X122941487Y-63134093D01*
X123004118Y-63052825D01*
X123092654Y-62935553D01*
X123201341Y-62789931D01*
X123324428Y-62623611D01*
X123414369Y-62501300D01*
X123872625Y-61876497D01*
X123904375Y-63198375D01*
X124064345Y-63207738D01*
X124160560Y-63208983D01*
X124228963Y-63201791D01*
X124246908Y-63194509D01*
X124251794Y-63158864D01*
X124256317Y-63066525D01*
X124260360Y-62924297D01*
X124263808Y-62738986D01*
X124266542Y-62517395D01*
X124268448Y-62266332D01*
X124269407Y-61992600D01*
X124269500Y-61874672D01*
X124269500Y-60577428D01*
X124182188Y-60544188D01*
X124063650Y-60527623D01*
X123999625Y-60538179D01*
X123904375Y-60565409D01*
X123872625Y-61729803D01*
X123413490Y-61151069D01*
X123266734Y-60969130D01*
X123134853Y-60811555D01*
X123023300Y-60684502D01*
X122937527Y-60594130D01*
X122882986Y-60546598D01*
X122874071Y-60541811D01*
X122775921Y-60522180D01*
X122682505Y-60531547D01*
G37*
X122682505Y-60531547D02*
X122613049Y-60564961D01*
X122586750Y-60615801D01*
X122606828Y-60660272D01*
X122663752Y-60745888D01*
X122752563Y-60866002D01*
X122868299Y-61013964D01*
X123006001Y-61183126D01*
X123045112Y-61230147D01*
X123503474Y-61778819D01*
X123011734Y-62436670D01*
X122879251Y-62616336D01*
X122761043Y-62781316D01*
X122662085Y-62924283D01*
X122587352Y-63037907D01*
X122541819Y-63114863D01*
X122529858Y-63146448D01*
X122565207Y-63181169D01*
X122641454Y-63203392D01*
X122736965Y-63211683D01*
X122830107Y-63204606D01*
X122899249Y-63180726D01*
X122910511Y-63171703D01*
X122941487Y-63134093D01*
X123004118Y-63052825D01*
X123092654Y-62935553D01*
X123201341Y-62789931D01*
X123324428Y-62623611D01*
X123414369Y-62501300D01*
X123872625Y-61876497D01*
X123904375Y-63198375D01*
X124064345Y-63207738D01*
X124160560Y-63208983D01*
X124228963Y-63201791D01*
X124246908Y-63194509D01*
X124251794Y-63158864D01*
X124256317Y-63066525D01*
X124260360Y-62924297D01*
X124263808Y-62738986D01*
X124266542Y-62517395D01*
X124268448Y-62266332D01*
X124269407Y-61992600D01*
X124269500Y-61874672D01*
X124269500Y-60577428D01*
X124182188Y-60544188D01*
X124063650Y-60527623D01*
X123999625Y-60538179D01*
X123904375Y-60565409D01*
X123872625Y-61729803D01*
X123413490Y-61151069D01*
X123266734Y-60969130D01*
X123134853Y-60811555D01*
X123023300Y-60684502D01*
X122937527Y-60594130D01*
X122882986Y-60546598D01*
X122874071Y-60541811D01*
X122775921Y-60522180D01*
X122682505Y-60531547D01*
G36*
X125074255Y-60560980D02*
G01*
X124997136Y-60588459D01*
X124985785Y-60597500D01*
X124973152Y-60615906D01*
X124962911Y-60647259D01*
X124954878Y-60697436D01*
X124948865Y-60772317D01*
X124944688Y-60877779D01*
X124942159Y-61019701D01*
X124941093Y-61203961D01*
X124941304Y-61436438D01*
X124942605Y-61723009D01*
X124943830Y-61923063D01*
X124952125Y-63198375D01*
X125301375Y-63198375D01*
X125333125Y-60923055D01*
X125774747Y-62028965D01*
X125875331Y-62279892D01*
X125969491Y-62512964D01*
X126054435Y-62721410D01*
X126127375Y-62898463D01*
X126185521Y-63037355D01*
X126226082Y-63131318D01*
X126246270Y-63173583D01*
X126246947Y-63174562D01*
X126295664Y-63199302D01*
X126380523Y-63213169D01*
X126412625Y-63214250D01*
X126503390Y-63205546D01*
X126567075Y-63183774D01*
X126577740Y-63174562D01*
X126595594Y-63136777D01*
X126633361Y-63046463D01*
X126688339Y-62910427D01*
X126757826Y-62735478D01*
X126839119Y-62528422D01*
X126929515Y-62296067D01*
X127026313Y-62045220D01*
X127034065Y-62025047D01*
X127460375Y-60915219D01*
X127492125Y-63198375D01*
X127635166Y-63207734D01*
X127738186Y-63205030D01*
X127808159Y-63184865D01*
X127817728Y-63177572D01*
X127828573Y-63135596D01*
X127837807Y-63038635D01*
X127845435Y-62895180D01*
X127851463Y-62713725D01*
X127855895Y-62502764D01*
X127858735Y-62270790D01*
X127859990Y-62026295D01*
X127859663Y-61777773D01*
X127857759Y-61533717D01*
X127854284Y-61302620D01*
X127849242Y-61092976D01*
X127842638Y-60913278D01*
X127834476Y-60772018D01*
X127824762Y-60677691D01*
X127816286Y-60642500D01*
X127788320Y-60599664D01*
X127747249Y-60574456D01*
X127676232Y-60561048D01*
X127559508Y-60553662D01*
X127410824Y-60554187D01*
X127310912Y-60572371D01*
X127268991Y-60592535D01*
X127240682Y-60623414D01*
X127202353Y-60687625D01*
X127151998Y-60789644D01*
X127087611Y-60933945D01*
X127007187Y-61125003D01*
X126908720Y-61367292D01*
X126805749Y-61625934D01*
X126712374Y-61860598D01*
X126625814Y-62075259D01*
X126548927Y-62263056D01*
X126484567Y-62417130D01*
X126435590Y-62530620D01*
X126404852Y-62596668D01*
X126395686Y-62611000D01*
X126379138Y-62582733D01*
X126341558Y-62502466D01*
X126285890Y-62376995D01*
X126215081Y-62213118D01*
X126132075Y-62017633D01*
X126039819Y-61797337D01*
X125968552Y-61625312D01*
X125842199Y-61322494D01*
X125733390Y-61069116D01*
X125643077Y-60867263D01*
X125572218Y-60719018D01*
X125521765Y-60626468D01*
X125496064Y-60593437D01*
X125418629Y-60563609D01*
X125307510Y-60548376D01*
X125185216Y-60547559D01*
X125074255Y-60560980D01*
G37*
X125074255Y-60560980D02*
X124997136Y-60588459D01*
X124985785Y-60597500D01*
X124973152Y-60615906D01*
X124962911Y-60647259D01*
X124954878Y-60697436D01*
X124948865Y-60772317D01*
X124944688Y-60877779D01*
X124942159Y-61019701D01*
X124941093Y-61203961D01*
X124941304Y-61436438D01*
X124942605Y-61723009D01*
X124943830Y-61923063D01*
X124952125Y-63198375D01*
X125301375Y-63198375D01*
X125333125Y-60923055D01*
X125774747Y-62028965D01*
X125875331Y-62279892D01*
X125969491Y-62512964D01*
X126054435Y-62721410D01*
X126127375Y-62898463D01*
X126185521Y-63037355D01*
X126226082Y-63131318D01*
X126246270Y-63173583D01*
X126246947Y-63174562D01*
X126295664Y-63199302D01*
X126380523Y-63213169D01*
X126412625Y-63214250D01*
X126503390Y-63205546D01*
X126567075Y-63183774D01*
X126577740Y-63174562D01*
X126595594Y-63136777D01*
X126633361Y-63046463D01*
X126688339Y-62910427D01*
X126757826Y-62735478D01*
X126839119Y-62528422D01*
X126929515Y-62296067D01*
X127026313Y-62045220D01*
X127034065Y-62025047D01*
X127460375Y-60915219D01*
X127492125Y-63198375D01*
X127635166Y-63207734D01*
X127738186Y-63205030D01*
X127808159Y-63184865D01*
X127817728Y-63177572D01*
X127828573Y-63135596D01*
X127837807Y-63038635D01*
X127845435Y-62895180D01*
X127851463Y-62713725D01*
X127855895Y-62502764D01*
X127858735Y-62270790D01*
X127859990Y-62026295D01*
X127859663Y-61777773D01*
X127857759Y-61533717D01*
X127854284Y-61302620D01*
X127849242Y-61092976D01*
X127842638Y-60913278D01*
X127834476Y-60772018D01*
X127824762Y-60677691D01*
X127816286Y-60642500D01*
X127788320Y-60599664D01*
X127747249Y-60574456D01*
X127676232Y-60561048D01*
X127559508Y-60553662D01*
X127410824Y-60554187D01*
X127310912Y-60572371D01*
X127268991Y-60592535D01*
X127240682Y-60623414D01*
X127202353Y-60687625D01*
X127151998Y-60789644D01*
X127087611Y-60933945D01*
X127007187Y-61125003D01*
X126908720Y-61367292D01*
X126805749Y-61625934D01*
X126712374Y-61860598D01*
X126625814Y-62075259D01*
X126548927Y-62263056D01*
X126484567Y-62417130D01*
X126435590Y-62530620D01*
X126404852Y-62596668D01*
X126395686Y-62611000D01*
X126379138Y-62582733D01*
X126341558Y-62502466D01*
X126285890Y-62376995D01*
X126215081Y-62213118D01*
X126132075Y-62017633D01*
X126039819Y-61797337D01*
X125968552Y-61625312D01*
X125842199Y-61322494D01*
X125733390Y-61069116D01*
X125643077Y-60867263D01*
X125572218Y-60719018D01*
X125521765Y-60626468D01*
X125496064Y-60593437D01*
X125418629Y-60563609D01*
X125307510Y-60548376D01*
X125185216Y-60547559D01*
X125074255Y-60560980D01*
G36*
X141381319Y-61223214D02*
G01*
X141303885Y-61257434D01*
X141265757Y-61326524D01*
X141255750Y-61437644D01*
X141255750Y-61595554D01*
X141431898Y-61574852D01*
X141570537Y-61568984D01*
X141677400Y-61594963D01*
X141770763Y-61661531D01*
X141868906Y-61777428D01*
X141876222Y-61787333D01*
X141984627Y-61935011D01*
X142001875Y-63198375D01*
X142145933Y-63207776D01*
X142237276Y-63208843D01*
X142300197Y-63200598D01*
X142312620Y-63194547D01*
X142318268Y-63158278D01*
X142323402Y-63066463D01*
X142327838Y-62927057D01*
X142331394Y-62748014D01*
X142333889Y-62537286D01*
X142335139Y-62302829D01*
X142335250Y-62207093D01*
X142335250Y-61242270D01*
X142184438Y-61251947D01*
X142033625Y-61261625D01*
X142023908Y-61395639D01*
X142014190Y-61529653D01*
X141916007Y-61417830D01*
X141783696Y-61296163D01*
X141644574Y-61230674D01*
X141509240Y-61214000D01*
X141381319Y-61223214D01*
G37*
X141381319Y-61223214D02*
X141303885Y-61257434D01*
X141265757Y-61326524D01*
X141255750Y-61437644D01*
X141255750Y-61595554D01*
X141431898Y-61574852D01*
X141570537Y-61568984D01*
X141677400Y-61594963D01*
X141770763Y-61661531D01*
X141868906Y-61777428D01*
X141876222Y-61787333D01*
X141984627Y-61935011D01*
X142001875Y-63198375D01*
X142145933Y-63207776D01*
X142237276Y-63208843D01*
X142300197Y-63200598D01*
X142312620Y-63194547D01*
X142318268Y-63158278D01*
X142323402Y-63066463D01*
X142327838Y-62927057D01*
X142331394Y-62748014D01*
X142333889Y-62537286D01*
X142335139Y-62302829D01*
X142335250Y-62207093D01*
X142335250Y-61242270D01*
X142184438Y-61251947D01*
X142033625Y-61261625D01*
X142023908Y-61395639D01*
X142014190Y-61529653D01*
X141916007Y-61417830D01*
X141783696Y-61296163D01*
X141644574Y-61230674D01*
X141509240Y-61214000D01*
X141381319Y-61223214D01*
G36*
X147149854Y-61507687D02*
G01*
X147101617Y-61669464D01*
X147049453Y-61846445D01*
X147004293Y-62001532D01*
X147002500Y-62007750D01*
X146958540Y-62158703D01*
X146906582Y-62334778D01*
X146857144Y-62500353D01*
X146852506Y-62515750D01*
X146771125Y-62785625D01*
X146572980Y-62050339D01*
X146516573Y-61842823D01*
X146464619Y-61655095D01*
X146419664Y-61496080D01*
X146384254Y-61374707D01*
X146360936Y-61299903D01*
X146353419Y-61280401D01*
X146311567Y-61260191D01*
X146229160Y-61247704D01*
X146176619Y-61245750D01*
X146082713Y-61248676D01*
X146032451Y-61264863D01*
X146006013Y-61305420D01*
X145992542Y-61348937D01*
X145933439Y-61559118D01*
X145871457Y-61775378D01*
X145809185Y-61989113D01*
X145749209Y-62191717D01*
X145694118Y-62374586D01*
X145646499Y-62529114D01*
X145608939Y-62646697D01*
X145584027Y-62718728D01*
X145574913Y-62737775D01*
X145561182Y-62708729D01*
X145533472Y-62628196D01*
X145494847Y-62505862D01*
X145448372Y-62351408D01*
X145401552Y-62190087D01*
X145346089Y-61996419D01*
X145291941Y-61808357D01*
X145243425Y-61640827D01*
X145204860Y-61508750D01*
X145185739Y-61444187D01*
X145126250Y-61245750D01*
X144970874Y-61245750D01*
X144876668Y-61251707D01*
X144811293Y-61266866D01*
X144795967Y-61277352D01*
X144801006Y-61312612D01*
X144822327Y-61399384D01*
X144857224Y-61528587D01*
X144902991Y-61691138D01*
X144956925Y-61877953D01*
X145016318Y-62079952D01*
X145078467Y-62288050D01*
X145140666Y-62493166D01*
X145200211Y-62686217D01*
X145254395Y-62858120D01*
X145300515Y-62999794D01*
X145335864Y-63102155D01*
X145351574Y-63142812D01*
X145376704Y-63183464D01*
X145419558Y-63205039D01*
X145497672Y-63213295D01*
X145569182Y-63214250D01*
X145686000Y-63207476D01*
X145766095Y-63189173D01*
X145789042Y-63174562D01*
X145807292Y-63133328D01*
X145839813Y-63040603D01*
X145883516Y-62905979D01*
X145935316Y-62739048D01*
X145992125Y-62549401D01*
X146011290Y-62484000D01*
X146200971Y-61833125D01*
X146239099Y-61976000D01*
X146326923Y-62304283D01*
X146399749Y-62574646D01*
X146458558Y-62790623D01*
X146504331Y-62955749D01*
X146538050Y-63073560D01*
X146560695Y-63147591D01*
X146573248Y-63181378D01*
X146573980Y-63182669D01*
X146616995Y-63202484D01*
X146700593Y-63212507D01*
X146802686Y-63213163D01*
X146901185Y-63204876D01*
X146974001Y-63188071D01*
X146995785Y-63174562D01*
X147013786Y-63134148D01*
X147046818Y-63042176D01*
X147091985Y-62908006D01*
X147146390Y-62740996D01*
X147207138Y-62550506D01*
X147271332Y-62345894D01*
X147336075Y-62136520D01*
X147398471Y-61931743D01*
X147455625Y-61740921D01*
X147504639Y-61573415D01*
X147542617Y-61438583D01*
X147566664Y-61345784D01*
X147574000Y-61306137D01*
X147565377Y-61270948D01*
X147529591Y-61252711D01*
X147451765Y-61246222D01*
X147401297Y-61245750D01*
X147228593Y-61245750D01*
X147149854Y-61507687D01*
G37*
X147149854Y-61507687D02*
X147101617Y-61669464D01*
X147049453Y-61846445D01*
X147004293Y-62001532D01*
X147002500Y-62007750D01*
X146958540Y-62158703D01*
X146906582Y-62334778D01*
X146857144Y-62500353D01*
X146852506Y-62515750D01*
X146771125Y-62785625D01*
X146572980Y-62050339D01*
X146516573Y-61842823D01*
X146464619Y-61655095D01*
X146419664Y-61496080D01*
X146384254Y-61374707D01*
X146360936Y-61299903D01*
X146353419Y-61280401D01*
X146311567Y-61260191D01*
X146229160Y-61247704D01*
X146176619Y-61245750D01*
X146082713Y-61248676D01*
X146032451Y-61264863D01*
X146006013Y-61305420D01*
X145992542Y-61348937D01*
X145933439Y-61559118D01*
X145871457Y-61775378D01*
X145809185Y-61989113D01*
X145749209Y-62191717D01*
X145694118Y-62374586D01*
X145646499Y-62529114D01*
X145608939Y-62646697D01*
X145584027Y-62718728D01*
X145574913Y-62737775D01*
X145561182Y-62708729D01*
X145533472Y-62628196D01*
X145494847Y-62505862D01*
X145448372Y-62351408D01*
X145401552Y-62190087D01*
X145346089Y-61996419D01*
X145291941Y-61808357D01*
X145243425Y-61640827D01*
X145204860Y-61508750D01*
X145185739Y-61444187D01*
X145126250Y-61245750D01*
X144970874Y-61245750D01*
X144876668Y-61251707D01*
X144811293Y-61266866D01*
X144795967Y-61277352D01*
X144801006Y-61312612D01*
X144822327Y-61399384D01*
X144857224Y-61528587D01*
X144902991Y-61691138D01*
X144956925Y-61877953D01*
X145016318Y-62079952D01*
X145078467Y-62288050D01*
X145140666Y-62493166D01*
X145200211Y-62686217D01*
X145254395Y-62858120D01*
X145300515Y-62999794D01*
X145335864Y-63102155D01*
X145351574Y-63142812D01*
X145376704Y-63183464D01*
X145419558Y-63205039D01*
X145497672Y-63213295D01*
X145569182Y-63214250D01*
X145686000Y-63207476D01*
X145766095Y-63189173D01*
X145789042Y-63174562D01*
X145807292Y-63133328D01*
X145839813Y-63040603D01*
X145883516Y-62905979D01*
X145935316Y-62739048D01*
X145992125Y-62549401D01*
X146011290Y-62484000D01*
X146200971Y-61833125D01*
X146239099Y-61976000D01*
X146326923Y-62304283D01*
X146399749Y-62574646D01*
X146458558Y-62790623D01*
X146504331Y-62955749D01*
X146538050Y-63073560D01*
X146560695Y-63147591D01*
X146573248Y-63181378D01*
X146573980Y-63182669D01*
X146616995Y-63202484D01*
X146700593Y-63212507D01*
X146802686Y-63213163D01*
X146901185Y-63204876D01*
X146974001Y-63188071D01*
X146995785Y-63174562D01*
X147013786Y-63134148D01*
X147046818Y-63042176D01*
X147091985Y-62908006D01*
X147146390Y-62740996D01*
X147207138Y-62550506D01*
X147271332Y-62345894D01*
X147336075Y-62136520D01*
X147398471Y-61931743D01*
X147455625Y-61740921D01*
X147504639Y-61573415D01*
X147542617Y-61438583D01*
X147566664Y-61345784D01*
X147574000Y-61306137D01*
X147565377Y-61270948D01*
X147529591Y-61252711D01*
X147451765Y-61246222D01*
X147401297Y-61245750D01*
X147228593Y-61245750D01*
X147149854Y-61507687D01*
G36*
X150954987Y-60548643D02*
G01*
X150791802Y-60556900D01*
X150646743Y-60570034D01*
X150533371Y-60587907D01*
X150500316Y-60596237D01*
X150299952Y-60685149D01*
X150144825Y-60817424D01*
X150037720Y-60989200D01*
X149981424Y-61196616D01*
X149973130Y-61326984D01*
X149999772Y-61569421D01*
X150077313Y-61774954D01*
X150203813Y-61941901D01*
X150377335Y-62068580D01*
X150595940Y-62153308D01*
X150857690Y-62194403D01*
X150977013Y-62198250D01*
X151225250Y-62198250D01*
X151225250Y-62668150D01*
X151227580Y-62882583D01*
X151234726Y-63036807D01*
X151246922Y-63133946D01*
X151263350Y-63176150D01*
X151315874Y-63198621D01*
X151401862Y-63211614D01*
X151494142Y-63213699D01*
X151565542Y-63203446D01*
X151585084Y-63193083D01*
X151589701Y-63157723D01*
X151593971Y-63065722D01*
X151597781Y-62923940D01*
X151601020Y-62739236D01*
X151603576Y-62518469D01*
X151605336Y-62268498D01*
X151606187Y-61996183D01*
X151606250Y-61897683D01*
X151605727Y-61554933D01*
X151604075Y-61271507D01*
X151601174Y-61043238D01*
X151596902Y-60865957D01*
X151596849Y-60864750D01*
X151225250Y-60864750D01*
X151225250Y-61880750D01*
X150979188Y-61880700D01*
X150801997Y-61872269D01*
X150673816Y-61845761D01*
X150624257Y-61825138D01*
X150501349Y-61740289D01*
X150423320Y-61628179D01*
X150383013Y-61476463D01*
X150375510Y-61396220D01*
X150383060Y-61209405D01*
X150431855Y-61066115D01*
X150525153Y-60963401D01*
X150666213Y-60898314D01*
X150858292Y-60867905D01*
X150962818Y-60864750D01*
X151225250Y-60864750D01*
X151596849Y-60864750D01*
X151591139Y-60735496D01*
X151583765Y-60647689D01*
X151574657Y-60598366D01*
X151568151Y-60585350D01*
X151517758Y-60567148D01*
X151417684Y-60554516D01*
X151281490Y-60547313D01*
X151122737Y-60545401D01*
X150954987Y-60548643D01*
G37*
X150954987Y-60548643D02*
X150791802Y-60556900D01*
X150646743Y-60570034D01*
X150533371Y-60587907D01*
X150500316Y-60596237D01*
X150299952Y-60685149D01*
X150144825Y-60817424D01*
X150037720Y-60989200D01*
X149981424Y-61196616D01*
X149973130Y-61326984D01*
X149999772Y-61569421D01*
X150077313Y-61774954D01*
X150203813Y-61941901D01*
X150377335Y-62068580D01*
X150595940Y-62153308D01*
X150857690Y-62194403D01*
X150977013Y-62198250D01*
X151225250Y-62198250D01*
X151225250Y-62668150D01*
X151227580Y-62882583D01*
X151234726Y-63036807D01*
X151246922Y-63133946D01*
X151263350Y-63176150D01*
X151315874Y-63198621D01*
X151401862Y-63211614D01*
X151494142Y-63213699D01*
X151565542Y-63203446D01*
X151585084Y-63193083D01*
X151589701Y-63157723D01*
X151593971Y-63065722D01*
X151597781Y-62923940D01*
X151601020Y-62739236D01*
X151603576Y-62518469D01*
X151605336Y-62268498D01*
X151606187Y-61996183D01*
X151606250Y-61897683D01*
X151605727Y-61554933D01*
X151604075Y-61271507D01*
X151601174Y-61043238D01*
X151596902Y-60865957D01*
X151596849Y-60864750D01*
X151225250Y-60864750D01*
X151225250Y-61880750D01*
X150979188Y-61880700D01*
X150801997Y-61872269D01*
X150673816Y-61845761D01*
X150624257Y-61825138D01*
X150501349Y-61740289D01*
X150423320Y-61628179D01*
X150383013Y-61476463D01*
X150375510Y-61396220D01*
X150383060Y-61209405D01*
X150431855Y-61066115D01*
X150525153Y-60963401D01*
X150666213Y-60898314D01*
X150858292Y-60867905D01*
X150962818Y-60864750D01*
X151225250Y-60864750D01*
X151596849Y-60864750D01*
X151591139Y-60735496D01*
X151583765Y-60647689D01*
X151574657Y-60598366D01*
X151568151Y-60585350D01*
X151517758Y-60567148D01*
X151417684Y-60554516D01*
X151281490Y-60547313D01*
X151122737Y-60545401D01*
X150954987Y-60548643D01*
G36*
X135435141Y-60354652D02*
G01*
X135350250Y-60386928D01*
X135350250Y-61475536D01*
X135239113Y-61390768D01*
X135055860Y-61278545D01*
X134868656Y-61222783D01*
X134747000Y-61214000D01*
X134534840Y-61240894D01*
X134356772Y-61320467D01*
X134214041Y-61451054D01*
X134107892Y-61630989D01*
X134039571Y-61858606D01*
X134010321Y-62132239D01*
X134009252Y-62200935D01*
X134029968Y-62493576D01*
X134092046Y-62739531D01*
X134195167Y-62938134D01*
X134339014Y-63088718D01*
X134471080Y-63168652D01*
X134669599Y-63231694D01*
X134867847Y-63240099D01*
X135051487Y-63193582D01*
X135079186Y-63180710D01*
X135182095Y-63119748D01*
X135276167Y-63049043D01*
X135291350Y-63035218D01*
X135377704Y-62952485D01*
X135387790Y-63075430D01*
X135396775Y-63149683D01*
X135419646Y-63187025D01*
X135474307Y-63202211D01*
X135548688Y-63208052D01*
X135699500Y-63217729D01*
X135699500Y-62597778D01*
X135350250Y-62597778D01*
X135215313Y-62729745D01*
X135059921Y-62855261D01*
X134911982Y-62918939D01*
X134768216Y-62921525D01*
X134625778Y-62864034D01*
X134516998Y-62766259D01*
X134442045Y-62624093D01*
X134399429Y-62433466D01*
X134387492Y-62214125D01*
X134397589Y-62003856D01*
X134429597Y-61841154D01*
X134487542Y-61712653D01*
X134569185Y-61611178D01*
X134678812Y-61543265D01*
X134812333Y-61526023D01*
X134959001Y-61556904D01*
X135108071Y-61633360D01*
X135248796Y-61752842D01*
X135271553Y-61777746D01*
X135304752Y-61819832D01*
X135326757Y-61865249D01*
X135339898Y-61927615D01*
X135346510Y-62020546D01*
X135348925Y-62157660D01*
X135349247Y-62231326D01*
X135350250Y-62597778D01*
X135699500Y-62597778D01*
X135699500Y-60361795D01*
X135609766Y-60342086D01*
X135510648Y-60338566D01*
X135435141Y-60354652D01*
G37*
X135435141Y-60354652D02*
X135350250Y-60386928D01*
X135350250Y-61475536D01*
X135239113Y-61390768D01*
X135055860Y-61278545D01*
X134868656Y-61222783D01*
X134747000Y-61214000D01*
X134534840Y-61240894D01*
X134356772Y-61320467D01*
X134214041Y-61451054D01*
X134107892Y-61630989D01*
X134039571Y-61858606D01*
X134010321Y-62132239D01*
X134009252Y-62200935D01*
X134029968Y-62493576D01*
X134092046Y-62739531D01*
X134195167Y-62938134D01*
X134339014Y-63088718D01*
X134471080Y-63168652D01*
X134669599Y-63231694D01*
X134867847Y-63240099D01*
X135051487Y-63193582D01*
X135079186Y-63180710D01*
X135182095Y-63119748D01*
X135276167Y-63049043D01*
X135291350Y-63035218D01*
X135377704Y-62952485D01*
X135387790Y-63075430D01*
X135396775Y-63149683D01*
X135419646Y-63187025D01*
X135474307Y-63202211D01*
X135548688Y-63208052D01*
X135699500Y-63217729D01*
X135699500Y-62597778D01*
X135350250Y-62597778D01*
X135215313Y-62729745D01*
X135059921Y-62855261D01*
X134911982Y-62918939D01*
X134768216Y-62921525D01*
X134625778Y-62864034D01*
X134516998Y-62766259D01*
X134442045Y-62624093D01*
X134399429Y-62433466D01*
X134387492Y-62214125D01*
X134397589Y-62003856D01*
X134429597Y-61841154D01*
X134487542Y-61712653D01*
X134569185Y-61611178D01*
X134678812Y-61543265D01*
X134812333Y-61526023D01*
X134959001Y-61556904D01*
X135108071Y-61633360D01*
X135248796Y-61752842D01*
X135271553Y-61777746D01*
X135304752Y-61819832D01*
X135326757Y-61865249D01*
X135339898Y-61927615D01*
X135346510Y-62020546D01*
X135348925Y-62157660D01*
X135349247Y-62231326D01*
X135350250Y-62597778D01*
X135699500Y-62597778D01*
X135699500Y-60361795D01*
X135609766Y-60342086D01*
X135510648Y-60338566D01*
X135435141Y-60354652D01*
G36*
X137426804Y-60362749D02*
G01*
X137271125Y-60372625D01*
X137271125Y-63198375D01*
X137556875Y-63198375D01*
X137572750Y-63059713D01*
X137588625Y-62921052D01*
X137652087Y-62991566D01*
X137796927Y-63110011D01*
X137976137Y-63192415D01*
X138170871Y-63233966D01*
X138362282Y-63229855D01*
X138473664Y-63201290D01*
X138648543Y-63103644D01*
X138785964Y-62955563D01*
X138885119Y-62758466D01*
X138945203Y-62513772D01*
X138962357Y-62341125D01*
X138960620Y-62230000D01*
X138588396Y-62230000D01*
X138578762Y-62439976D01*
X138547328Y-62601978D01*
X138490302Y-62728927D01*
X138414028Y-62823822D01*
X138289791Y-62907623D01*
X138148874Y-62932849D01*
X138000147Y-62899061D01*
X137908875Y-62848940D01*
X137801428Y-62772230D01*
X137726880Y-62703580D01*
X137679213Y-62628889D01*
X137652407Y-62534055D01*
X137640443Y-62404977D01*
X137637300Y-62227553D01*
X137637254Y-62212631D01*
X137636250Y-61830137D01*
X137755313Y-61716322D01*
X137867534Y-61618433D01*
X137964011Y-61561702D01*
X138066672Y-61536168D01*
X138162227Y-61531500D01*
X138263004Y-61538414D01*
X138334820Y-61568349D01*
X138409025Y-61635094D01*
X138417086Y-61643584D01*
X138498230Y-61749212D01*
X138550893Y-61870759D01*
X138579477Y-62023299D01*
X138588387Y-62221904D01*
X138588396Y-62230000D01*
X138960620Y-62230000D01*
X138957748Y-62046352D01*
X138911837Y-61792104D01*
X138826554Y-61580977D01*
X138703829Y-61415569D01*
X138545591Y-61298475D01*
X138353770Y-61232294D01*
X138130294Y-61219621D01*
X138129196Y-61219691D01*
X137994941Y-61234739D01*
X137893544Y-61266012D01*
X137794679Y-61323415D01*
X137779626Y-61333881D01*
X137636250Y-61434941D01*
X137635764Y-60935533D01*
X137633985Y-60761521D01*
X137629393Y-60608433D01*
X137622582Y-60488210D01*
X137614145Y-60412793D01*
X137608880Y-60394499D01*
X137554665Y-60366717D01*
X137442775Y-60361858D01*
X137426804Y-60362749D01*
G37*
X137426804Y-60362749D02*
X137271125Y-60372625D01*
X137271125Y-63198375D01*
X137556875Y-63198375D01*
X137572750Y-63059713D01*
X137588625Y-62921052D01*
X137652087Y-62991566D01*
X137796927Y-63110011D01*
X137976137Y-63192415D01*
X138170871Y-63233966D01*
X138362282Y-63229855D01*
X138473664Y-63201290D01*
X138648543Y-63103644D01*
X138785964Y-62955563D01*
X138885119Y-62758466D01*
X138945203Y-62513772D01*
X138962357Y-62341125D01*
X138960620Y-62230000D01*
X138588396Y-62230000D01*
X138578762Y-62439976D01*
X138547328Y-62601978D01*
X138490302Y-62728927D01*
X138414028Y-62823822D01*
X138289791Y-62907623D01*
X138148874Y-62932849D01*
X138000147Y-62899061D01*
X137908875Y-62848940D01*
X137801428Y-62772230D01*
X137726880Y-62703580D01*
X137679213Y-62628889D01*
X137652407Y-62534055D01*
X137640443Y-62404977D01*
X137637300Y-62227553D01*
X137637254Y-62212631D01*
X137636250Y-61830137D01*
X137755313Y-61716322D01*
X137867534Y-61618433D01*
X137964011Y-61561702D01*
X138066672Y-61536168D01*
X138162227Y-61531500D01*
X138263004Y-61538414D01*
X138334820Y-61568349D01*
X138409025Y-61635094D01*
X138417086Y-61643584D01*
X138498230Y-61749212D01*
X138550893Y-61870759D01*
X138579477Y-62023299D01*
X138588387Y-62221904D01*
X138588396Y-62230000D01*
X138960620Y-62230000D01*
X138957748Y-62046352D01*
X138911837Y-61792104D01*
X138826554Y-61580977D01*
X138703829Y-61415569D01*
X138545591Y-61298475D01*
X138353770Y-61232294D01*
X138130294Y-61219621D01*
X138129196Y-61219691D01*
X137994941Y-61234739D01*
X137893544Y-61266012D01*
X137794679Y-61323415D01*
X137779626Y-61333881D01*
X137636250Y-61434941D01*
X137635764Y-60935533D01*
X137633985Y-60761521D01*
X137629393Y-60608433D01*
X137622582Y-60488210D01*
X137614145Y-60412793D01*
X137608880Y-60394499D01*
X137554665Y-60366717D01*
X137442775Y-60361858D01*
X137426804Y-60362749D01*
G36*
X140086763Y-61219066D02*
G01*
X139863448Y-61258737D01*
X139677641Y-61348838D01*
X139531722Y-61486899D01*
X139428069Y-61670451D01*
X139369063Y-61897025D01*
X139360451Y-61972684D01*
X139351953Y-62075680D01*
X139350922Y-62153906D01*
X139364750Y-62210763D01*
X139400827Y-62249652D01*
X139466544Y-62273975D01*
X139569291Y-62287132D01*
X139716461Y-62292527D01*
X139915443Y-62293559D01*
X140057561Y-62293500D01*
X140693095Y-62293500D01*
X140674035Y-62454438D01*
X140629192Y-62641424D01*
X140543373Y-62781215D01*
X140414629Y-62875396D01*
X140241012Y-62925552D01*
X140082832Y-62935258D01*
X139931929Y-62923396D01*
X139769041Y-62895132D01*
X139678492Y-62871417D01*
X139550949Y-62837694D01*
X139470640Y-62835644D01*
X139428242Y-62868065D01*
X139414433Y-62937755D01*
X139414250Y-62950724D01*
X139438689Y-63037746D01*
X139514853Y-63108249D01*
X139647020Y-63165267D01*
X139758537Y-63195080D01*
X140040922Y-63238837D01*
X140289267Y-63233013D01*
X140478539Y-63188804D01*
X140672966Y-63102910D01*
X140818246Y-62991602D01*
X140924414Y-62843794D01*
X141001504Y-62648401D01*
X141016437Y-62594567D01*
X141057563Y-62336542D01*
X141052398Y-62073082D01*
X141037781Y-61999812D01*
X140684073Y-61999812D01*
X140668067Y-62015720D01*
X140615331Y-62027094D01*
X140519036Y-62034483D01*
X140372351Y-62038433D01*
X140188592Y-62039500D01*
X139692934Y-62039500D01*
X139715064Y-61921534D01*
X139770776Y-61739940D01*
X139860940Y-61611289D01*
X139987502Y-61533978D01*
X140152405Y-61506401D01*
X140216291Y-61507988D01*
X140331933Y-61520963D01*
X140412324Y-61549195D01*
X140485597Y-61604111D01*
X140510289Y-61627393D01*
X140602651Y-61746621D01*
X140664796Y-61885715D01*
X140684073Y-61999812D01*
X141037781Y-61999812D01*
X141002602Y-61823488D01*
X140935666Y-61654429D01*
X140848070Y-61528464D01*
X140722919Y-61406348D01*
X140581740Y-61306099D01*
X140448059Y-61246291D01*
X140339732Y-61227220D01*
X140201491Y-61217763D01*
X140086763Y-61219066D01*
G37*
X140086763Y-61219066D02*
X139863448Y-61258737D01*
X139677641Y-61348838D01*
X139531722Y-61486899D01*
X139428069Y-61670451D01*
X139369063Y-61897025D01*
X139360451Y-61972684D01*
X139351953Y-62075680D01*
X139350922Y-62153906D01*
X139364750Y-62210763D01*
X139400827Y-62249652D01*
X139466544Y-62273975D01*
X139569291Y-62287132D01*
X139716461Y-62292527D01*
X139915443Y-62293559D01*
X140057561Y-62293500D01*
X140693095Y-62293500D01*
X140674035Y-62454438D01*
X140629192Y-62641424D01*
X140543373Y-62781215D01*
X140414629Y-62875396D01*
X140241012Y-62925552D01*
X140082832Y-62935258D01*
X139931929Y-62923396D01*
X139769041Y-62895132D01*
X139678492Y-62871417D01*
X139550949Y-62837694D01*
X139470640Y-62835644D01*
X139428242Y-62868065D01*
X139414433Y-62937755D01*
X139414250Y-62950724D01*
X139438689Y-63037746D01*
X139514853Y-63108249D01*
X139647020Y-63165267D01*
X139758537Y-63195080D01*
X140040922Y-63238837D01*
X140289267Y-63233013D01*
X140478539Y-63188804D01*
X140672966Y-63102910D01*
X140818246Y-62991602D01*
X140924414Y-62843794D01*
X141001504Y-62648401D01*
X141016437Y-62594567D01*
X141057563Y-62336542D01*
X141052398Y-62073082D01*
X141037781Y-61999812D01*
X140684073Y-61999812D01*
X140668067Y-62015720D01*
X140615331Y-62027094D01*
X140519036Y-62034483D01*
X140372351Y-62038433D01*
X140188592Y-62039500D01*
X139692934Y-62039500D01*
X139715064Y-61921534D01*
X139770776Y-61739940D01*
X139860940Y-61611289D01*
X139987502Y-61533978D01*
X140152405Y-61506401D01*
X140216291Y-61507988D01*
X140331933Y-61520963D01*
X140412324Y-61549195D01*
X140485597Y-61604111D01*
X140510289Y-61627393D01*
X140602651Y-61746621D01*
X140664796Y-61885715D01*
X140684073Y-61999812D01*
X141037781Y-61999812D01*
X141002602Y-61823488D01*
X140935666Y-61654429D01*
X140848070Y-61528464D01*
X140722919Y-61406348D01*
X140581740Y-61306099D01*
X140448059Y-61246291D01*
X140339732Y-61227220D01*
X140201491Y-61217763D01*
X140086763Y-61219066D01*
G36*
X143416072Y-61239940D02*
G01*
X143216989Y-61314920D01*
X143057755Y-61438094D01*
X142940502Y-61607994D01*
X142888199Y-61741489D01*
X142860177Y-61867804D01*
X142846261Y-62001742D01*
X142846701Y-62124607D01*
X142861745Y-62217703D01*
X142881350Y-62255400D01*
X142919445Y-62270018D01*
X143003547Y-62280881D01*
X143138130Y-62288242D01*
X143327666Y-62292358D01*
X143548100Y-62293500D01*
X144176750Y-62293500D01*
X144175357Y-62380812D01*
X144144502Y-62560090D01*
X144063972Y-62720536D01*
X143943035Y-62846440D01*
X143875692Y-62888791D01*
X143763318Y-62922427D01*
X143610884Y-62934998D01*
X143438020Y-62927107D01*
X143264354Y-62899357D01*
X143146941Y-62866416D01*
X143036981Y-62831712D01*
X142971701Y-62821630D01*
X142937936Y-62834598D01*
X142933115Y-62840877D01*
X142909744Y-62917104D01*
X142913063Y-63005940D01*
X142940890Y-63074552D01*
X142949179Y-63082937D01*
X143050546Y-63138709D01*
X143197410Y-63183792D01*
X143372356Y-63216130D01*
X143557970Y-63233665D01*
X143736839Y-63234340D01*
X143891547Y-63216097D01*
X143948998Y-63201052D01*
X144154798Y-63105769D01*
X144315397Y-62968463D01*
X144432741Y-62786648D01*
X144508779Y-62557836D01*
X144526348Y-62463913D01*
X144541848Y-62229675D01*
X144521519Y-61988595D01*
X144510654Y-61943627D01*
X144176100Y-61943627D01*
X144173791Y-61989073D01*
X144137300Y-62017271D01*
X144059841Y-62032334D01*
X143934630Y-62038374D01*
X143754880Y-62039504D01*
X143684625Y-62039500D01*
X143497275Y-62038931D01*
X143364272Y-62036538D01*
X143276469Y-62031286D01*
X143224717Y-62022142D01*
X143199868Y-62008074D01*
X143192775Y-61988048D01*
X143192678Y-61983937D01*
X143218436Y-61835940D01*
X143285497Y-61692541D01*
X143351017Y-61611098D01*
X143424379Y-61553572D01*
X143507836Y-61522172D01*
X143627832Y-61506990D01*
X143629031Y-61506905D01*
X143802725Y-61517858D01*
X143942374Y-61580231D01*
X144054474Y-61697811D01*
X144105313Y-61784546D01*
X144151012Y-61876822D01*
X144176100Y-61943627D01*
X144510654Y-61943627D01*
X144468276Y-61768240D01*
X144446710Y-61711223D01*
X144334801Y-61521431D01*
X144178540Y-61373444D01*
X143984827Y-61271580D01*
X143760564Y-61220156D01*
X143652875Y-61214620D01*
X143416072Y-61239940D01*
G37*
X143416072Y-61239940D02*
X143216989Y-61314920D01*
X143057755Y-61438094D01*
X142940502Y-61607994D01*
X142888199Y-61741489D01*
X142860177Y-61867804D01*
X142846261Y-62001742D01*
X142846701Y-62124607D01*
X142861745Y-62217703D01*
X142881350Y-62255400D01*
X142919445Y-62270018D01*
X143003547Y-62280881D01*
X143138130Y-62288242D01*
X143327666Y-62292358D01*
X143548100Y-62293500D01*
X144176750Y-62293500D01*
X144175357Y-62380812D01*
X144144502Y-62560090D01*
X144063972Y-62720536D01*
X143943035Y-62846440D01*
X143875692Y-62888791D01*
X143763318Y-62922427D01*
X143610884Y-62934998D01*
X143438020Y-62927107D01*
X143264354Y-62899357D01*
X143146941Y-62866416D01*
X143036981Y-62831712D01*
X142971701Y-62821630D01*
X142937936Y-62834598D01*
X142933115Y-62840877D01*
X142909744Y-62917104D01*
X142913063Y-63005940D01*
X142940890Y-63074552D01*
X142949179Y-63082937D01*
X143050546Y-63138709D01*
X143197410Y-63183792D01*
X143372356Y-63216130D01*
X143557970Y-63233665D01*
X143736839Y-63234340D01*
X143891547Y-63216097D01*
X143948998Y-63201052D01*
X144154798Y-63105769D01*
X144315397Y-62968463D01*
X144432741Y-62786648D01*
X144508779Y-62557836D01*
X144526348Y-62463913D01*
X144541848Y-62229675D01*
X144521519Y-61988595D01*
X144510654Y-61943627D01*
X144176100Y-61943627D01*
X144173791Y-61989073D01*
X144137300Y-62017271D01*
X144059841Y-62032334D01*
X143934630Y-62038374D01*
X143754880Y-62039504D01*
X143684625Y-62039500D01*
X143497275Y-62038931D01*
X143364272Y-62036538D01*
X143276469Y-62031286D01*
X143224717Y-62022142D01*
X143199868Y-62008074D01*
X143192775Y-61988048D01*
X143192678Y-61983937D01*
X143218436Y-61835940D01*
X143285497Y-61692541D01*
X143351017Y-61611098D01*
X143424379Y-61553572D01*
X143507836Y-61522172D01*
X143627832Y-61506990D01*
X143629031Y-61506905D01*
X143802725Y-61517858D01*
X143942374Y-61580231D01*
X144054474Y-61697811D01*
X144105313Y-61784546D01*
X144151012Y-61876822D01*
X144176100Y-61943627D01*
X144510654Y-61943627D01*
X144468276Y-61768240D01*
X144446710Y-61711223D01*
X144334801Y-61521431D01*
X144178540Y-61373444D01*
X143984827Y-61271580D01*
X143760564Y-61220156D01*
X143652875Y-61214620D01*
X143416072Y-61239940D01*
G36*
X148673596Y-61220606D02*
G01*
X148454120Y-61247743D01*
X148280174Y-61305722D01*
X148139082Y-61399999D01*
X148056670Y-61486125D01*
X147958206Y-61648784D01*
X147889669Y-61852733D01*
X147853192Y-62082168D01*
X147850906Y-62321287D01*
X147884944Y-62554286D01*
X147903295Y-62623107D01*
X147987165Y-62806929D01*
X148116629Y-62973104D01*
X148277008Y-63106638D01*
X148453618Y-63192540D01*
X148464068Y-63195750D01*
X148645280Y-63231475D01*
X148842838Y-63241431D01*
X149026440Y-63224953D01*
X149093573Y-63209569D01*
X149294112Y-63122675D01*
X149454188Y-62988298D01*
X149575167Y-62804907D01*
X149656322Y-62579250D01*
X149696297Y-62322266D01*
X149693494Y-62238296D01*
X149320250Y-62238296D01*
X149300262Y-62463132D01*
X149242130Y-62649530D01*
X149148604Y-62791821D01*
X149022435Y-62884336D01*
X149002734Y-62892830D01*
X148898068Y-62916954D01*
X148764492Y-62925504D01*
X148633581Y-62918072D01*
X148547552Y-62898718D01*
X148421879Y-62818395D01*
X148322326Y-62688606D01*
X148253222Y-62519529D01*
X148218895Y-62321342D01*
X148220914Y-62130702D01*
X148254317Y-61916292D01*
X148312464Y-61755040D01*
X148400114Y-61639830D01*
X148522027Y-61563546D01*
X148621708Y-61531510D01*
X148811211Y-61512882D01*
X148976526Y-61550526D01*
X149113822Y-61640565D01*
X149219266Y-61779124D01*
X149289029Y-61962324D01*
X149319277Y-62186290D01*
X149320250Y-62238296D01*
X149693494Y-62238296D01*
X149687820Y-62068408D01*
X149633534Y-61829936D01*
X149536083Y-61619113D01*
X149416276Y-61465752D01*
X149265492Y-61341215D01*
X149101216Y-61261861D01*
X148909609Y-61223122D01*
X148676833Y-61220431D01*
X148673596Y-61220606D01*
G37*
X148673596Y-61220606D02*
X148454120Y-61247743D01*
X148280174Y-61305722D01*
X148139082Y-61399999D01*
X148056670Y-61486125D01*
X147958206Y-61648784D01*
X147889669Y-61852733D01*
X147853192Y-62082168D01*
X147850906Y-62321287D01*
X147884944Y-62554286D01*
X147903295Y-62623107D01*
X147987165Y-62806929D01*
X148116629Y-62973104D01*
X148277008Y-63106638D01*
X148453618Y-63192540D01*
X148464068Y-63195750D01*
X148645280Y-63231475D01*
X148842838Y-63241431D01*
X149026440Y-63224953D01*
X149093573Y-63209569D01*
X149294112Y-63122675D01*
X149454188Y-62988298D01*
X149575167Y-62804907D01*
X149656322Y-62579250D01*
X149696297Y-62322266D01*
X149693494Y-62238296D01*
X149320250Y-62238296D01*
X149300262Y-62463132D01*
X149242130Y-62649530D01*
X149148604Y-62791821D01*
X149022435Y-62884336D01*
X149002734Y-62892830D01*
X148898068Y-62916954D01*
X148764492Y-62925504D01*
X148633581Y-62918072D01*
X148547552Y-62898718D01*
X148421879Y-62818395D01*
X148322326Y-62688606D01*
X148253222Y-62519529D01*
X148218895Y-62321342D01*
X148220914Y-62130702D01*
X148254317Y-61916292D01*
X148312464Y-61755040D01*
X148400114Y-61639830D01*
X148522027Y-61563546D01*
X148621708Y-61531510D01*
X148811211Y-61512882D01*
X148976526Y-61550526D01*
X149113822Y-61640565D01*
X149219266Y-61779124D01*
X149289029Y-61962324D01*
X149319277Y-62186290D01*
X149320250Y-62238296D01*
X149693494Y-62238296D01*
X149687820Y-62068408D01*
X149633534Y-61829936D01*
X149536083Y-61619113D01*
X149416276Y-61465752D01*
X149265492Y-61341215D01*
X149101216Y-61261861D01*
X148909609Y-61223122D01*
X148676833Y-61220431D01*
X148673596Y-61220606D01*
G36*
X129299080Y-60539716D02*
G01*
X129052506Y-60610514D01*
X128847603Y-60728899D01*
X128684071Y-60895187D01*
X128561608Y-61109697D01*
X128479914Y-61372744D01*
X128438687Y-61684647D01*
X128436222Y-61730158D01*
X128436032Y-62040758D01*
X128467805Y-62305015D01*
X128533732Y-62532674D01*
X128636008Y-62733482D01*
X128674981Y-62791167D01*
X128746586Y-62891148D01*
X128627356Y-62985103D01*
X128533278Y-63050590D01*
X128411392Y-63124222D01*
X128313688Y-63176841D01*
X128183117Y-63256016D01*
X128110699Y-63337033D01*
X128091447Y-63428500D01*
X128113657Y-63522205D01*
X128138935Y-63569858D01*
X128176742Y-63588732D01*
X128240954Y-63579221D01*
X128345447Y-63541721D01*
X128375468Y-63529653D01*
X128505099Y-63466151D01*
X128669514Y-63366062D01*
X128873371Y-63226462D01*
X128973407Y-63154222D01*
X129020242Y-63129740D01*
X129074700Y-63131559D01*
X129160510Y-63160845D01*
X129167831Y-63163764D01*
X129367731Y-63218384D01*
X129595219Y-63239374D01*
X129829884Y-63227906D01*
X130051320Y-63185150D01*
X130239116Y-63112279D01*
X130259173Y-63101132D01*
X130411998Y-62986685D01*
X130551224Y-62835887D01*
X130657656Y-62671162D01*
X130689945Y-62597902D01*
X130756905Y-62352329D01*
X130793601Y-62074787D01*
X130794447Y-62015172D01*
X130395170Y-62015172D01*
X130379995Y-62206680D01*
X130364527Y-62298086D01*
X130305342Y-62483465D01*
X130215620Y-62646661D01*
X130105547Y-62771112D01*
X130048283Y-62812336D01*
X129894202Y-62873825D01*
X129708581Y-62904365D01*
X129515820Y-62903054D01*
X129340321Y-62868990D01*
X129270125Y-62841109D01*
X129105737Y-62726876D01*
X128973711Y-62566866D01*
X128903556Y-62425225D01*
X128849199Y-62223564D01*
X128821396Y-61993546D01*
X128819649Y-61753982D01*
X128843460Y-61523679D01*
X128892328Y-61321449D01*
X128935588Y-61217251D01*
X129056489Y-61044355D01*
X129214735Y-60922765D01*
X129410007Y-60852661D01*
X129610418Y-60833697D01*
X129830843Y-60858827D01*
X130014033Y-60934226D01*
X130163821Y-61062426D01*
X130284045Y-61245960D01*
X130306619Y-61293375D01*
X130348915Y-61428515D01*
X130378516Y-61606752D01*
X130394306Y-61808751D01*
X130395170Y-62015172D01*
X130794447Y-62015172D01*
X130797641Y-61790359D01*
X130782872Y-61622858D01*
X130718751Y-61317712D01*
X130614239Y-61061468D01*
X130469481Y-60854261D01*
X130284621Y-60696226D01*
X130059805Y-60587495D01*
X129795176Y-60528203D01*
X129587625Y-60516187D01*
X129299080Y-60539716D01*
G37*
X129299080Y-60539716D02*
X129052506Y-60610514D01*
X128847603Y-60728899D01*
X128684071Y-60895187D01*
X128561608Y-61109697D01*
X128479914Y-61372744D01*
X128438687Y-61684647D01*
X128436222Y-61730158D01*
X128436032Y-62040758D01*
X128467805Y-62305015D01*
X128533732Y-62532674D01*
X128636008Y-62733482D01*
X128674981Y-62791167D01*
X128746586Y-62891148D01*
X128627356Y-62985103D01*
X128533278Y-63050590D01*
X128411392Y-63124222D01*
X128313688Y-63176841D01*
X128183117Y-63256016D01*
X128110699Y-63337033D01*
X128091447Y-63428500D01*
X128113657Y-63522205D01*
X128138935Y-63569858D01*
X128176742Y-63588732D01*
X128240954Y-63579221D01*
X128345447Y-63541721D01*
X128375468Y-63529653D01*
X128505099Y-63466151D01*
X128669514Y-63366062D01*
X128873371Y-63226462D01*
X128973407Y-63154222D01*
X129020242Y-63129740D01*
X129074700Y-63131559D01*
X129160510Y-63160845D01*
X129167831Y-63163764D01*
X129367731Y-63218384D01*
X129595219Y-63239374D01*
X129829884Y-63227906D01*
X130051320Y-63185150D01*
X130239116Y-63112279D01*
X130259173Y-63101132D01*
X130411998Y-62986685D01*
X130551224Y-62835887D01*
X130657656Y-62671162D01*
X130689945Y-62597902D01*
X130756905Y-62352329D01*
X130793601Y-62074787D01*
X130794447Y-62015172D01*
X130395170Y-62015172D01*
X130379995Y-62206680D01*
X130364527Y-62298086D01*
X130305342Y-62483465D01*
X130215620Y-62646661D01*
X130105547Y-62771112D01*
X130048283Y-62812336D01*
X129894202Y-62873825D01*
X129708581Y-62904365D01*
X129515820Y-62903054D01*
X129340321Y-62868990D01*
X129270125Y-62841109D01*
X129105737Y-62726876D01*
X128973711Y-62566866D01*
X128903556Y-62425225D01*
X128849199Y-62223564D01*
X128821396Y-61993546D01*
X128819649Y-61753982D01*
X128843460Y-61523679D01*
X128892328Y-61321449D01*
X128935588Y-61217251D01*
X129056489Y-61044355D01*
X129214735Y-60922765D01*
X129410007Y-60852661D01*
X129610418Y-60833697D01*
X129830843Y-60858827D01*
X130014033Y-60934226D01*
X130163821Y-61062426D01*
X130284045Y-61245960D01*
X130306619Y-61293375D01*
X130348915Y-61428515D01*
X130378516Y-61606752D01*
X130394306Y-61808751D01*
X130395170Y-62015172D01*
X130794447Y-62015172D01*
X130797641Y-61790359D01*
X130782872Y-61622858D01*
X130718751Y-61317712D01*
X130614239Y-61061468D01*
X130469481Y-60854261D01*
X130284621Y-60696226D01*
X130059805Y-60587495D01*
X129795176Y-60528203D01*
X129587625Y-60516187D01*
X129299080Y-60539716D01*
G36*
X132078966Y-61249106D02*
G01*
X132032140Y-61263498D01*
X132017147Y-61295407D01*
X132016500Y-61310312D01*
X132027033Y-61353041D01*
X132056793Y-61447637D01*
X132103020Y-61586395D01*
X132162956Y-61761610D01*
X132233843Y-61965577D01*
X132312922Y-62190590D01*
X132397435Y-62428945D01*
X132484622Y-62672935D01*
X132571726Y-62914857D01*
X132655987Y-63147003D01*
X132734647Y-63361670D01*
X132804947Y-63551152D01*
X132864129Y-63707744D01*
X132909435Y-63823740D01*
X132938104Y-63891435D01*
X132945378Y-63904812D01*
X132993404Y-63927845D01*
X133077288Y-63940932D01*
X133172739Y-63943480D01*
X133255467Y-63934897D01*
X133301181Y-63914589D01*
X133301906Y-63913510D01*
X133298710Y-63873007D01*
X133275270Y-63787240D01*
X133235657Y-63669605D01*
X133194284Y-63559575D01*
X133067510Y-63236630D01*
X133415130Y-62305007D01*
X133500984Y-62072936D01*
X133579129Y-61857893D01*
X133646855Y-61667636D01*
X133701453Y-61509924D01*
X133740213Y-61392516D01*
X133760426Y-61323170D01*
X133762750Y-61309567D01*
X133755107Y-61272416D01*
X133722054Y-61253228D01*
X133648404Y-61246346D01*
X133591522Y-61245750D01*
X133484234Y-61250760D01*
X133424449Y-61268738D01*
X133397829Y-61301312D01*
X133380947Y-61346577D01*
X133346256Y-61442205D01*
X133297166Y-61578705D01*
X133237084Y-61746589D01*
X133169419Y-61936367D01*
X133139717Y-62019876D01*
X133070256Y-62214276D01*
X133007102Y-62389076D01*
X132953592Y-62535196D01*
X132913063Y-62643560D01*
X132888850Y-62705090D01*
X132884239Y-62714966D01*
X132868933Y-62695435D01*
X132836510Y-62623453D01*
X132789989Y-62506790D01*
X132732393Y-62353216D01*
X132666743Y-62170500D01*
X132617461Y-62028975D01*
X132547345Y-61826135D01*
X132483274Y-61642768D01*
X132428357Y-61487608D01*
X132385700Y-61369391D01*
X132358413Y-61296851D01*
X132350384Y-61278322D01*
X132309378Y-61259418D01*
X132227439Y-61247665D01*
X132173377Y-61245750D01*
X132078966Y-61249106D01*
G37*
X132078966Y-61249106D02*
X132032140Y-61263498D01*
X132017147Y-61295407D01*
X132016500Y-61310312D01*
X132027033Y-61353041D01*
X132056793Y-61447637D01*
X132103020Y-61586395D01*
X132162956Y-61761610D01*
X132233843Y-61965577D01*
X132312922Y-62190590D01*
X132397435Y-62428945D01*
X132484622Y-62672935D01*
X132571726Y-62914857D01*
X132655987Y-63147003D01*
X132734647Y-63361670D01*
X132804947Y-63551152D01*
X132864129Y-63707744D01*
X132909435Y-63823740D01*
X132938104Y-63891435D01*
X132945378Y-63904812D01*
X132993404Y-63927845D01*
X133077288Y-63940932D01*
X133172739Y-63943480D01*
X133255467Y-63934897D01*
X133301181Y-63914589D01*
X133301906Y-63913510D01*
X133298710Y-63873007D01*
X133275270Y-63787240D01*
X133235657Y-63669605D01*
X133194284Y-63559575D01*
X133067510Y-63236630D01*
X133415130Y-62305007D01*
X133500984Y-62072936D01*
X133579129Y-61857893D01*
X133646855Y-61667636D01*
X133701453Y-61509924D01*
X133740213Y-61392516D01*
X133760426Y-61323170D01*
X133762750Y-61309567D01*
X133755107Y-61272416D01*
X133722054Y-61253228D01*
X133648404Y-61246346D01*
X133591522Y-61245750D01*
X133484234Y-61250760D01*
X133424449Y-61268738D01*
X133397829Y-61301312D01*
X133380947Y-61346577D01*
X133346256Y-61442205D01*
X133297166Y-61578705D01*
X133237084Y-61746589D01*
X133169419Y-61936367D01*
X133139717Y-62019876D01*
X133070256Y-62214276D01*
X133007102Y-62389076D01*
X132953592Y-62535196D01*
X132913063Y-62643560D01*
X132888850Y-62705090D01*
X132884239Y-62714966D01*
X132868933Y-62695435D01*
X132836510Y-62623453D01*
X132789989Y-62506790D01*
X132732393Y-62353216D01*
X132666743Y-62170500D01*
X132617461Y-62028975D01*
X132547345Y-61826135D01*
X132483274Y-61642768D01*
X132428357Y-61487608D01*
X132385700Y-61369391D01*
X132358413Y-61296851D01*
X132350384Y-61278322D01*
X132309378Y-61259418D01*
X132227439Y-61247665D01*
X132173377Y-61245750D01*
X132078966Y-61249106D01*
G36*
X156916438Y-59092947D02*
G01*
X156765625Y-59102625D01*
X156756452Y-59380437D01*
X156747278Y-59658250D01*
X156434723Y-59658250D01*
X156425549Y-59380437D01*
X156416375Y-59102625D01*
X156130625Y-59102625D01*
X156121452Y-59380437D01*
X156112278Y-59658250D01*
X155799723Y-59658250D01*
X155790549Y-59380437D01*
X155781375Y-59102625D01*
X155641647Y-59092627D01*
X155533259Y-59095562D01*
X155476828Y-59122355D01*
X155475446Y-59124377D01*
X155462700Y-59174673D01*
X155453173Y-59269541D01*
X155448635Y-59390067D01*
X155448487Y-59412187D01*
X155448000Y-59658250D01*
X155132973Y-59658250D01*
X155123799Y-59380437D01*
X155114625Y-59102625D01*
X154828875Y-59102625D01*
X154819702Y-59380437D01*
X154810528Y-59658250D01*
X154673883Y-59658250D01*
X154493724Y-59688117D01*
X154331621Y-59771104D01*
X154198023Y-59897288D01*
X154103377Y-60056745D01*
X154058134Y-60239554D01*
X154057809Y-60243331D01*
X154043333Y-60417889D01*
X153495375Y-60436125D01*
X153485378Y-60575853D01*
X153488313Y-60684241D01*
X153515106Y-60740672D01*
X153517128Y-60742054D01*
X153567424Y-60754800D01*
X153662292Y-60764327D01*
X153782818Y-60768865D01*
X153804938Y-60769013D01*
X154051000Y-60769500D01*
X154051000Y-61055250D01*
X153804938Y-61055736D01*
X153681885Y-61059228D01*
X153581212Y-61068016D01*
X153521831Y-61080331D01*
X153517128Y-61082695D01*
X153489131Y-61136227D01*
X153484921Y-61242085D01*
X153485378Y-61248896D01*
X153495375Y-61388625D01*
X153773188Y-61397798D01*
X154051001Y-61406972D01*
X154051001Y-61719527D01*
X153495375Y-61737875D01*
X153495375Y-62023625D01*
X153773188Y-62032798D01*
X154051000Y-62041972D01*
X154051000Y-62354527D01*
X153773188Y-62363701D01*
X153495375Y-62372875D01*
X153485378Y-62512603D01*
X153488313Y-62620991D01*
X153515106Y-62677422D01*
X153517128Y-62678804D01*
X153567361Y-62691508D01*
X153662258Y-62701024D01*
X153783002Y-62705598D01*
X153806678Y-62705763D01*
X154054480Y-62706250D01*
X154044803Y-62857062D01*
X154035125Y-63007875D01*
X153755625Y-63017073D01*
X153476124Y-63026271D01*
X153485750Y-63175823D01*
X153495375Y-63325375D01*
X153769354Y-63334492D01*
X154043333Y-63343610D01*
X154057809Y-63518168D01*
X154101971Y-63701337D01*
X154195742Y-63861352D01*
X154328673Y-63988288D01*
X154490314Y-64072225D01*
X154670217Y-64103237D01*
X154673883Y-64103250D01*
X154810528Y-64103250D01*
X154819702Y-64381062D01*
X154828875Y-64658875D01*
X154979688Y-64668552D01*
X155130500Y-64678229D01*
X155130500Y-64103250D01*
X155448000Y-64103250D01*
X155448487Y-64349312D01*
X155451979Y-64472365D01*
X155460767Y-64573038D01*
X155473082Y-64632419D01*
X155475446Y-64637122D01*
X155528978Y-64665119D01*
X155634836Y-64669329D01*
X155641647Y-64668872D01*
X155781375Y-64658875D01*
X155790549Y-64381062D01*
X155799723Y-64103250D01*
X156112278Y-64103250D01*
X156121452Y-64381062D01*
X156130625Y-64658875D01*
X156416375Y-64658875D01*
X156425549Y-64381062D01*
X156434723Y-64103250D01*
X156747278Y-64103250D01*
X156756452Y-64381062D01*
X156765625Y-64658875D01*
X156916438Y-64668552D01*
X157067250Y-64678229D01*
X157067250Y-64103250D01*
X157384750Y-64103250D01*
X157384750Y-64338778D01*
X157386807Y-64488103D01*
X157396809Y-64585154D01*
X157420510Y-64641116D01*
X157463660Y-64667176D01*
X157532012Y-64674522D01*
X157557481Y-64674750D01*
X157645485Y-64670136D01*
X157704020Y-64658586D01*
X157712834Y-64653583D01*
X157722630Y-64613999D01*
X157730022Y-64527406D01*
X157733771Y-64410285D01*
X157734000Y-64371764D01*
X157734000Y-64111113D01*
X157901618Y-64097213D01*
X158090798Y-64051695D01*
X158254004Y-63954517D01*
X158381657Y-63815241D01*
X158464177Y-63643428D01*
X158489866Y-63510047D01*
X158503668Y-63343610D01*
X158777647Y-63334492D01*
X159051625Y-63325375D01*
X159051625Y-63039625D01*
X158773813Y-63030451D01*
X158496000Y-63021277D01*
X158496000Y-62706250D01*
X158742063Y-62705763D01*
X158865116Y-62702271D01*
X158965789Y-62693483D01*
X159025170Y-62681168D01*
X159029873Y-62678804D01*
X159057870Y-62625272D01*
X159062080Y-62519414D01*
X159061623Y-62512603D01*
X159051625Y-62372875D01*
X158773813Y-62363701D01*
X158496000Y-62354527D01*
X158496000Y-62041972D01*
X158773813Y-62032798D01*
X159051625Y-62023625D01*
X159051625Y-61737875D01*
X158773813Y-61728701D01*
X158496000Y-61719527D01*
X158496000Y-61406972D01*
X158773813Y-61397798D01*
X159051625Y-61388625D01*
X159061623Y-61248896D01*
X159058688Y-61140508D01*
X159031895Y-61084077D01*
X159029873Y-61082695D01*
X158979577Y-61069949D01*
X158884709Y-61060422D01*
X158764183Y-61055884D01*
X158742063Y-61055736D01*
X158496000Y-61055250D01*
X158496000Y-60974474D01*
X157542353Y-60974474D01*
X157540320Y-61190047D01*
X157538605Y-61289569D01*
X157526396Y-61937193D01*
X157415628Y-62155034D01*
X157296174Y-62341659D01*
X157147425Y-62482322D01*
X156961588Y-62581884D01*
X156730871Y-62645207D01*
X156598938Y-62664494D01*
X156432250Y-62683383D01*
X156432250Y-62946171D01*
X156427966Y-63096992D01*
X156414748Y-63188711D01*
X156392563Y-63224972D01*
X156287676Y-63242703D01*
X156177349Y-63226890D01*
X156144413Y-63213132D01*
X156112925Y-63187695D01*
X156094311Y-63143391D01*
X156085395Y-63065642D01*
X156083006Y-62939873D01*
X156083000Y-62931041D01*
X156083000Y-62681816D01*
X155912758Y-62660546D01*
X155685745Y-62605818D01*
X155474335Y-62505155D01*
X155292284Y-62367541D01*
X155153353Y-62201961D01*
X155119080Y-62142258D01*
X155076937Y-62037624D01*
X155045297Y-61905207D01*
X155023212Y-61736878D01*
X155009731Y-61524506D01*
X155003906Y-61259961D01*
X155003500Y-61152334D01*
X155003808Y-60942600D01*
X155006345Y-60787969D01*
X155013535Y-60680044D01*
X155027801Y-60610430D01*
X155051567Y-60570729D01*
X155087255Y-60552546D01*
X155137290Y-60547482D01*
X155178126Y-60547249D01*
X155237589Y-60548186D01*
X155281745Y-60556478D01*
X155312876Y-60580351D01*
X155333260Y-60628030D01*
X155345179Y-60707739D01*
X155350912Y-60827703D01*
X155352741Y-60996148D01*
X155352928Y-61177709D01*
X155354678Y-61373691D01*
X155359431Y-61555246D01*
X155366616Y-61709818D01*
X155375664Y-61824848D01*
X155385010Y-61884484D01*
X155467671Y-62071068D01*
X155598187Y-62218774D01*
X155770603Y-62322442D01*
X155948063Y-62372473D01*
X156083000Y-62394331D01*
X156083000Y-61508890D01*
X156083256Y-61236858D01*
X156084775Y-61021665D01*
X156088681Y-60856652D01*
X156096100Y-60735160D01*
X156108157Y-60650527D01*
X156125979Y-60596094D01*
X156150690Y-60565202D01*
X156183416Y-60551189D01*
X156225283Y-60547397D01*
X156245504Y-60547250D01*
X156298824Y-60546962D01*
X156340910Y-60550568D01*
X156373088Y-60564770D01*
X156396682Y-60596271D01*
X156413020Y-60651772D01*
X156423426Y-60737978D01*
X156429226Y-60861589D01*
X156431747Y-61029309D01*
X156432315Y-61247841D01*
X156432250Y-61491329D01*
X156432250Y-62396865D01*
X156567188Y-62375827D01*
X156781028Y-62315701D01*
X156953834Y-62209366D01*
X157082461Y-62058760D01*
X157082958Y-62057949D01*
X157178375Y-61901774D01*
X157189246Y-61248386D01*
X157194983Y-60995632D01*
X157202856Y-60803918D01*
X157213035Y-60670810D01*
X157225692Y-60593878D01*
X157236871Y-60571609D01*
X157310644Y-60549951D01*
X157403436Y-60551673D01*
X157483818Y-60574144D01*
X157511520Y-60594597D01*
X157525568Y-60629916D01*
X157535224Y-60700764D01*
X157540737Y-60813499D01*
X157542353Y-60974474D01*
X158496000Y-60974474D01*
X158496000Y-60769500D01*
X158728057Y-60769500D01*
X158882869Y-60763677D01*
X158984127Y-60742395D01*
X159041024Y-60699936D01*
X159062755Y-60630581D01*
X159061877Y-60561858D01*
X159051625Y-60436125D01*
X158778134Y-60427014D01*
X158504642Y-60417903D01*
X158486946Y-60246446D01*
X158437809Y-60053746D01*
X158338395Y-59890343D01*
X158197394Y-59764897D01*
X158023495Y-59686066D01*
X157902798Y-59664384D01*
X157736361Y-59650582D01*
X157727243Y-59376603D01*
X157718125Y-59102625D01*
X157578397Y-59092627D01*
X157470009Y-59095562D01*
X157413578Y-59122355D01*
X157412196Y-59124377D01*
X157399450Y-59174673D01*
X157389923Y-59269541D01*
X157385385Y-59390067D01*
X157385237Y-59412187D01*
X157384750Y-59658250D01*
X157067250Y-59658250D01*
X157067250Y-59083270D01*
X156916438Y-59092947D01*
G37*
X156916438Y-59092947D02*
X156765625Y-59102625D01*
X156756452Y-59380437D01*
X156747278Y-59658250D01*
X156434723Y-59658250D01*
X156425549Y-59380437D01*
X156416375Y-59102625D01*
X156130625Y-59102625D01*
X156121452Y-59380437D01*
X156112278Y-59658250D01*
X155799723Y-59658250D01*
X155790549Y-59380437D01*
X155781375Y-59102625D01*
X155641647Y-59092627D01*
X155533259Y-59095562D01*
X155476828Y-59122355D01*
X155475446Y-59124377D01*
X155462700Y-59174673D01*
X155453173Y-59269541D01*
X155448635Y-59390067D01*
X155448487Y-59412187D01*
X155448000Y-59658250D01*
X155132973Y-59658250D01*
X155123799Y-59380437D01*
X155114625Y-59102625D01*
X154828875Y-59102625D01*
X154819702Y-59380437D01*
X154810528Y-59658250D01*
X154673883Y-59658250D01*
X154493724Y-59688117D01*
X154331621Y-59771104D01*
X154198023Y-59897288D01*
X154103377Y-60056745D01*
X154058134Y-60239554D01*
X154057809Y-60243331D01*
X154043333Y-60417889D01*
X153495375Y-60436125D01*
X153485378Y-60575853D01*
X153488313Y-60684241D01*
X153515106Y-60740672D01*
X153517128Y-60742054D01*
X153567424Y-60754800D01*
X153662292Y-60764327D01*
X153782818Y-60768865D01*
X153804938Y-60769013D01*
X154051000Y-60769500D01*
X154051000Y-61055250D01*
X153804938Y-61055736D01*
X153681885Y-61059228D01*
X153581212Y-61068016D01*
X153521831Y-61080331D01*
X153517128Y-61082695D01*
X153489131Y-61136227D01*
X153484921Y-61242085D01*
X153485378Y-61248896D01*
X153495375Y-61388625D01*
X153773188Y-61397798D01*
X154051001Y-61406972D01*
X154051001Y-61719527D01*
X153495375Y-61737875D01*
X153495375Y-62023625D01*
X153773188Y-62032798D01*
X154051000Y-62041972D01*
X154051000Y-62354527D01*
X153773188Y-62363701D01*
X153495375Y-62372875D01*
X153485378Y-62512603D01*
X153488313Y-62620991D01*
X153515106Y-62677422D01*
X153517128Y-62678804D01*
X153567361Y-62691508D01*
X153662258Y-62701024D01*
X153783002Y-62705598D01*
X153806678Y-62705763D01*
X154054480Y-62706250D01*
X154044803Y-62857062D01*
X154035125Y-63007875D01*
X153755625Y-63017073D01*
X153476124Y-63026271D01*
X153485750Y-63175823D01*
X153495375Y-63325375D01*
X153769354Y-63334492D01*
X154043333Y-63343610D01*
X154057809Y-63518168D01*
X154101971Y-63701337D01*
X154195742Y-63861352D01*
X154328673Y-63988288D01*
X154490314Y-64072225D01*
X154670217Y-64103237D01*
X154673883Y-64103250D01*
X154810528Y-64103250D01*
X154819702Y-64381062D01*
X154828875Y-64658875D01*
X154979688Y-64668552D01*
X155130500Y-64678229D01*
X155130500Y-64103250D01*
X155448000Y-64103250D01*
X155448487Y-64349312D01*
X155451979Y-64472365D01*
X155460767Y-64573038D01*
X155473082Y-64632419D01*
X155475446Y-64637122D01*
X155528978Y-64665119D01*
X155634836Y-64669329D01*
X155641647Y-64668872D01*
X155781375Y-64658875D01*
X155790549Y-64381062D01*
X155799723Y-64103250D01*
X156112278Y-64103250D01*
X156121452Y-64381062D01*
X156130625Y-64658875D01*
X156416375Y-64658875D01*
X156425549Y-64381062D01*
X156434723Y-64103250D01*
X156747278Y-64103250D01*
X156756452Y-64381062D01*
X156765625Y-64658875D01*
X156916438Y-64668552D01*
X157067250Y-64678229D01*
X157067250Y-64103250D01*
X157384750Y-64103250D01*
X157384750Y-64338778D01*
X157386807Y-64488103D01*
X157396809Y-64585154D01*
X157420510Y-64641116D01*
X157463660Y-64667176D01*
X157532012Y-64674522D01*
X157557481Y-64674750D01*
X157645485Y-64670136D01*
X157704020Y-64658586D01*
X157712834Y-64653583D01*
X157722630Y-64613999D01*
X157730022Y-64527406D01*
X157733771Y-64410285D01*
X157734000Y-64371764D01*
X157734000Y-64111113D01*
X157901618Y-64097213D01*
X158090798Y-64051695D01*
X158254004Y-63954517D01*
X158381657Y-63815241D01*
X158464177Y-63643428D01*
X158489866Y-63510047D01*
X158503668Y-63343610D01*
X158777647Y-63334492D01*
X159051625Y-63325375D01*
X159051625Y-63039625D01*
X158773813Y-63030451D01*
X158496000Y-63021277D01*
X158496000Y-62706250D01*
X158742063Y-62705763D01*
X158865116Y-62702271D01*
X158965789Y-62693483D01*
X159025170Y-62681168D01*
X159029873Y-62678804D01*
X159057870Y-62625272D01*
X159062080Y-62519414D01*
X159061623Y-62512603D01*
X159051625Y-62372875D01*
X158773813Y-62363701D01*
X158496000Y-62354527D01*
X158496000Y-62041972D01*
X158773813Y-62032798D01*
X159051625Y-62023625D01*
X159051625Y-61737875D01*
X158773813Y-61728701D01*
X158496000Y-61719527D01*
X158496000Y-61406972D01*
X158773813Y-61397798D01*
X159051625Y-61388625D01*
X159061623Y-61248896D01*
X159058688Y-61140508D01*
X159031895Y-61084077D01*
X159029873Y-61082695D01*
X158979577Y-61069949D01*
X158884709Y-61060422D01*
X158764183Y-61055884D01*
X158742063Y-61055736D01*
X158496000Y-61055250D01*
X158496000Y-60974474D01*
X157542353Y-60974474D01*
X157540320Y-61190047D01*
X157538605Y-61289569D01*
X157526396Y-61937193D01*
X157415628Y-62155034D01*
X157296174Y-62341659D01*
X157147425Y-62482322D01*
X156961588Y-62581884D01*
X156730871Y-62645207D01*
X156598938Y-62664494D01*
X156432250Y-62683383D01*
X156432250Y-62946171D01*
X156427966Y-63096992D01*
X156414748Y-63188711D01*
X156392563Y-63224972D01*
X156287676Y-63242703D01*
X156177349Y-63226890D01*
X156144413Y-63213132D01*
X156112925Y-63187695D01*
X156094311Y-63143391D01*
X156085395Y-63065642D01*
X156083006Y-62939873D01*
X156083000Y-62931041D01*
X156083000Y-62681816D01*
X155912758Y-62660546D01*
X155685745Y-62605818D01*
X155474335Y-62505155D01*
X155292284Y-62367541D01*
X155153353Y-62201961D01*
X155119080Y-62142258D01*
X155076937Y-62037624D01*
X155045297Y-61905207D01*
X155023212Y-61736878D01*
X155009731Y-61524506D01*
X155003906Y-61259961D01*
X155003500Y-61152334D01*
X155003808Y-60942600D01*
X155006345Y-60787969D01*
X155013535Y-60680044D01*
X155027801Y-60610430D01*
X155051567Y-60570729D01*
X155087255Y-60552546D01*
X155137290Y-60547482D01*
X155178126Y-60547249D01*
X155237589Y-60548186D01*
X155281745Y-60556478D01*
X155312876Y-60580351D01*
X155333260Y-60628030D01*
X155345179Y-60707739D01*
X155350912Y-60827703D01*
X155352741Y-60996148D01*
X155352928Y-61177709D01*
X155354678Y-61373691D01*
X155359431Y-61555246D01*
X155366616Y-61709818D01*
X155375664Y-61824848D01*
X155385010Y-61884484D01*
X155467671Y-62071068D01*
X155598187Y-62218774D01*
X155770603Y-62322442D01*
X155948063Y-62372473D01*
X156083000Y-62394331D01*
X156083000Y-61508890D01*
X156083256Y-61236858D01*
X156084775Y-61021665D01*
X156088681Y-60856652D01*
X156096100Y-60735160D01*
X156108157Y-60650527D01*
X156125979Y-60596094D01*
X156150690Y-60565202D01*
X156183416Y-60551189D01*
X156225283Y-60547397D01*
X156245504Y-60547250D01*
X156298824Y-60546962D01*
X156340910Y-60550568D01*
X156373088Y-60564770D01*
X156396682Y-60596271D01*
X156413020Y-60651772D01*
X156423426Y-60737978D01*
X156429226Y-60861589D01*
X156431747Y-61029309D01*
X156432315Y-61247841D01*
X156432250Y-61491329D01*
X156432250Y-62396865D01*
X156567188Y-62375827D01*
X156781028Y-62315701D01*
X156953834Y-62209366D01*
X157082461Y-62058760D01*
X157082958Y-62057949D01*
X157178375Y-61901774D01*
X157189246Y-61248386D01*
X157194983Y-60995632D01*
X157202856Y-60803918D01*
X157213035Y-60670810D01*
X157225692Y-60593878D01*
X157236871Y-60571609D01*
X157310644Y-60549951D01*
X157403436Y-60551673D01*
X157483818Y-60574144D01*
X157511520Y-60594597D01*
X157525568Y-60629916D01*
X157535224Y-60700764D01*
X157540737Y-60813499D01*
X157542353Y-60974474D01*
X158496000Y-60974474D01*
X158496000Y-60769500D01*
X158728057Y-60769500D01*
X158882869Y-60763677D01*
X158984127Y-60742395D01*
X159041024Y-60699936D01*
X159062755Y-60630581D01*
X159061877Y-60561858D01*
X159051625Y-60436125D01*
X158778134Y-60427014D01*
X158504642Y-60417903D01*
X158486946Y-60246446D01*
X158437809Y-60053746D01*
X158338395Y-59890343D01*
X158197394Y-59764897D01*
X158023495Y-59686066D01*
X157902798Y-59664384D01*
X157736361Y-59650582D01*
X157727243Y-59376603D01*
X157718125Y-59102625D01*
X157578397Y-59092627D01*
X157470009Y-59095562D01*
X157413578Y-59122355D01*
X157412196Y-59124377D01*
X157399450Y-59174673D01*
X157389923Y-59269541D01*
X157385385Y-59390067D01*
X157385237Y-59412187D01*
X157384750Y-59658250D01*
X157067250Y-59658250D01*
X157067250Y-59083270D01*
X156916438Y-59092947D01*
G36*
X117894875Y-58589403D02*
G01*
X117826319Y-58589652D01*
X117771503Y-58590144D01*
X117728830Y-58590942D01*
X117696703Y-58592108D01*
X117673525Y-58593706D01*
X117657699Y-58595799D01*
X117647630Y-58598448D01*
X117641719Y-58601717D01*
X117640705Y-58602638D01*
X117630070Y-58615738D01*
X117627400Y-58622091D01*
X117625898Y-58631523D01*
X117621619Y-58655745D01*
X117614902Y-58692905D01*
X117606084Y-58741149D01*
X117595507Y-58798623D01*
X117583507Y-58863475D01*
X117570425Y-58933851D01*
X117568373Y-58944862D01*
X117551903Y-59032269D01*
X117537945Y-59104171D01*
X117526231Y-59161765D01*
X117516491Y-59206252D01*
X117508459Y-59238828D01*
X117501866Y-59260693D01*
X117496443Y-59273044D01*
X117494289Y-59275841D01*
X117482722Y-59282678D01*
X117457587Y-59294812D01*
X117421053Y-59311286D01*
X117375289Y-59331145D01*
X117322464Y-59353434D01*
X117264746Y-59377197D01*
X117257656Y-59380078D01*
X117190105Y-59407285D01*
X117136439Y-59428401D01*
X117094976Y-59443997D01*
X117064035Y-59454646D01*
X117041933Y-59460921D01*
X117026989Y-59463394D01*
X117017521Y-59462638D01*
X117016356Y-59462238D01*
X117005102Y-59455814D01*
X116981588Y-59440859D01*
X116947471Y-59418479D01*
X116904414Y-59389783D01*
X116854077Y-59355877D01*
X116798119Y-59317869D01*
X116738202Y-59276867D01*
X116730670Y-59271692D01*
X116670756Y-59230734D01*
X116614885Y-59192975D01*
X116564660Y-59159466D01*
X116521687Y-59131260D01*
X116487569Y-59109408D01*
X116463912Y-59094961D01*
X116452320Y-59088971D01*
X116451729Y-59088867D01*
X116443034Y-59094669D01*
X116423803Y-59111211D01*
X116395408Y-59137193D01*
X116359222Y-59171319D01*
X116316620Y-59212290D01*
X116268973Y-59258808D01*
X116217656Y-59309574D01*
X116206413Y-59320781D01*
X116146313Y-59380929D01*
X116097303Y-59430393D01*
X116058353Y-59470310D01*
X116028430Y-59501818D01*
X116006503Y-59526056D01*
X115991539Y-59544162D01*
X115982507Y-59557273D01*
X115978375Y-59566527D01*
X115978023Y-59572665D01*
X115983599Y-59583989D01*
X115997758Y-59607539D01*
X116019409Y-59641644D01*
X116047461Y-59684633D01*
X116080822Y-59734834D01*
X116118400Y-59790576D01*
X116159105Y-59850189D01*
X116162449Y-59855054D01*
X116216794Y-59934636D01*
X116261180Y-60000875D01*
X116295760Y-60054013D01*
X116320688Y-60094291D01*
X116336115Y-60121948D01*
X116342194Y-60137227D01*
X116342307Y-60138687D01*
X116338794Y-60152504D01*
X116329345Y-60179242D01*
X116315021Y-60216412D01*
X116296886Y-60261529D01*
X116276002Y-60312107D01*
X116253431Y-60365659D01*
X116230237Y-60419698D01*
X116207482Y-60471738D01*
X116186228Y-60519294D01*
X116167538Y-60559877D01*
X116152475Y-60591003D01*
X116142101Y-60610184D01*
X116138924Y-60614600D01*
X116129186Y-60619759D01*
X116108282Y-60626395D01*
X116075276Y-60634715D01*
X116029235Y-60644929D01*
X115969224Y-60657244D01*
X115894308Y-60671868D01*
X115809709Y-60687859D01*
X115738701Y-60701225D01*
X115672821Y-60713817D01*
X115613952Y-60725260D01*
X115563976Y-60735180D01*
X115524777Y-60743204D01*
X115498236Y-60748956D01*
X115486237Y-60752062D01*
X115485859Y-60752242D01*
X115483247Y-60761659D01*
X115481093Y-60786573D01*
X115479388Y-60827246D01*
X115478127Y-60883942D01*
X115477302Y-60956925D01*
X115476907Y-61046457D01*
X115476867Y-61090696D01*
X115476956Y-61176867D01*
X115477256Y-61247583D01*
X115477820Y-61304323D01*
X115478699Y-61348564D01*
X115479942Y-61381785D01*
X115481603Y-61405464D01*
X115483732Y-61421079D01*
X115486380Y-61430107D01*
X115488752Y-61433457D01*
X115499557Y-61437224D01*
X115525085Y-61443609D01*
X115563400Y-61452202D01*
X115612563Y-61462594D01*
X115670637Y-61474375D01*
X115735685Y-61487137D01*
X115805770Y-61500468D01*
X115806431Y-61500592D01*
X115889901Y-61516499D01*
X115962398Y-61530877D01*
X116022859Y-61543493D01*
X116070225Y-61554115D01*
X116103433Y-61562512D01*
X116121423Y-61568450D01*
X116124116Y-61570082D01*
X116131049Y-61581883D01*
X116142901Y-61607129D01*
X116158715Y-61643387D01*
X116177529Y-61688224D01*
X116198384Y-61739204D01*
X116220319Y-61793895D01*
X116242377Y-61849863D01*
X116263595Y-61904673D01*
X116283015Y-61955892D01*
X116299677Y-62001085D01*
X116312620Y-62037821D01*
X116320886Y-62063663D01*
X116323533Y-62075738D01*
X116319944Y-62087867D01*
X116308872Y-62109617D01*
X116289864Y-62141712D01*
X116262466Y-62184875D01*
X116226224Y-62239829D01*
X116180684Y-62307297D01*
X116149967Y-62352252D01*
X116110113Y-62410734D01*
X116073482Y-62465187D01*
X116041153Y-62513957D01*
X116014203Y-62555385D01*
X115993710Y-62587817D01*
X115980751Y-62609595D01*
X115976400Y-62618964D01*
X115982217Y-62627770D01*
X115998807Y-62647093D01*
X116024877Y-62675570D01*
X116059134Y-62711837D01*
X116100287Y-62754530D01*
X116147044Y-62802286D01*
X116198111Y-62853739D01*
X116211998Y-62867617D01*
X116273436Y-62928724D01*
X116324109Y-62978653D01*
X116365063Y-63018357D01*
X116397346Y-63048792D01*
X116422007Y-63070909D01*
X116440092Y-63085663D01*
X116452650Y-63094007D01*
X116460727Y-63096895D01*
X116463514Y-63096554D01*
X116474037Y-63090453D01*
X116496773Y-63075866D01*
X116530007Y-63053939D01*
X116572025Y-63025818D01*
X116621113Y-62992649D01*
X116675555Y-62955579D01*
X116723552Y-62922690D01*
X116781141Y-62883453D01*
X116834893Y-62847474D01*
X116883087Y-62815856D01*
X116924001Y-62789703D01*
X116955914Y-62770119D01*
X116977103Y-62758205D01*
X116985333Y-62754933D01*
X116998808Y-62758762D01*
X117024013Y-62769297D01*
X117057823Y-62785112D01*
X117097115Y-62804781D01*
X117115167Y-62814200D01*
X117155411Y-62835029D01*
X117191033Y-62852656D01*
X117219060Y-62865669D01*
X117236519Y-62872661D01*
X117240150Y-62873467D01*
X117248302Y-62865966D01*
X117261457Y-62843301D01*
X117279737Y-62805226D01*
X117303261Y-62751495D01*
X117318672Y-62714717D01*
X117335698Y-62673593D01*
X117358200Y-62619261D01*
X117385168Y-62554153D01*
X117415595Y-62480705D01*
X117448473Y-62401350D01*
X117482792Y-62318522D01*
X117517544Y-62234656D01*
X117543991Y-62170836D01*
X117575581Y-62094318D01*
X117605094Y-62022263D01*
X117631906Y-61956236D01*
X117655390Y-61897806D01*
X117674922Y-61848539D01*
X117689876Y-61810001D01*
X117699627Y-61783760D01*
X117703551Y-61771382D01*
X117703600Y-61770893D01*
X117696886Y-61757972D01*
X117679769Y-61741845D01*
X117668193Y-61733728D01*
X117568870Y-61664106D01*
X117485340Y-61590182D01*
X117416752Y-61510780D01*
X117362258Y-61424724D01*
X117321007Y-61330835D01*
X117292149Y-61227938D01*
X117287993Y-61207251D01*
X117282456Y-61157984D01*
X117281566Y-61098486D01*
X117284971Y-61034706D01*
X117292320Y-60972591D01*
X117303261Y-60918090D01*
X117305590Y-60909528D01*
X117342971Y-60808289D01*
X117393993Y-60715907D01*
X117457311Y-60633393D01*
X117531583Y-60561764D01*
X117615466Y-60502034D01*
X117707614Y-60455216D01*
X117806686Y-60422327D01*
X117911338Y-60404379D01*
X117978767Y-60401200D01*
X118086215Y-60409325D01*
X118188922Y-60433025D01*
X118285541Y-60471284D01*
X118374732Y-60523088D01*
X118455149Y-60587423D01*
X118525450Y-60663274D01*
X118584291Y-60749627D01*
X118630328Y-60845467D01*
X118651943Y-60909528D01*
X118663495Y-60962021D01*
X118671518Y-61023202D01*
X118675661Y-61087121D01*
X118675572Y-61147832D01*
X118670899Y-61199385D01*
X118669540Y-61207251D01*
X118642944Y-61311995D01*
X118604115Y-61407506D01*
X118552205Y-61494962D01*
X118486363Y-61575539D01*
X118405740Y-61650414D01*
X118309486Y-61720763D01*
X118289340Y-61733728D01*
X118268589Y-61749637D01*
X118255868Y-61764828D01*
X118253933Y-61770893D01*
X118257095Y-61781452D01*
X118266161Y-61806068D01*
X118280507Y-61843174D01*
X118299508Y-61891202D01*
X118322539Y-61948587D01*
X118348974Y-62013761D01*
X118378188Y-62085158D01*
X118409555Y-62161210D01*
X118413542Y-62170836D01*
X118447940Y-62253842D01*
X118482683Y-62337686D01*
X118516760Y-62419933D01*
X118549165Y-62498149D01*
X118578888Y-62569900D01*
X118604922Y-62632753D01*
X118626258Y-62684273D01*
X118638862Y-62714717D01*
X118665359Y-62777268D01*
X118686543Y-62824026D01*
X118702535Y-62855238D01*
X118713456Y-62871149D01*
X118717384Y-62873467D01*
X118729078Y-62869667D01*
X118752687Y-62859206D01*
X118785237Y-62843494D01*
X118823756Y-62823941D01*
X118842367Y-62814200D01*
X118883072Y-62793296D01*
X118919656Y-62775626D01*
X118948996Y-62762614D01*
X118967969Y-62755687D01*
X118972201Y-62754933D01*
X118983119Y-62759598D01*
X119006198Y-62772854D01*
X119039716Y-62793600D01*
X119081951Y-62820731D01*
X119131182Y-62853145D01*
X119185687Y-62889739D01*
X119233982Y-62922690D01*
X119291566Y-62962126D01*
X119345216Y-62998612D01*
X119393220Y-63031001D01*
X119433861Y-63058147D01*
X119465427Y-63078904D01*
X119486202Y-63092125D01*
X119494020Y-63096554D01*
X119500176Y-63096135D01*
X119510265Y-63090757D01*
X119525335Y-63079467D01*
X119546433Y-63061311D01*
X119574608Y-63035336D01*
X119610907Y-63000588D01*
X119656377Y-62956114D01*
X119712066Y-62900959D01*
X119745536Y-62867617D01*
X119797517Y-62815422D01*
X119845523Y-62766569D01*
X119888265Y-62722422D01*
X119924448Y-62684345D01*
X119952781Y-62653702D01*
X119971971Y-62631857D01*
X119980726Y-62620173D01*
X119981133Y-62618964D01*
X119976486Y-62609062D01*
X119963261Y-62586905D01*
X119942537Y-62554150D01*
X119915392Y-62512452D01*
X119882903Y-62463469D01*
X119846149Y-62408855D01*
X119807567Y-62352252D01*
X119756450Y-62277226D01*
X119714893Y-62215131D01*
X119682442Y-62165246D01*
X119658644Y-62126846D01*
X119643043Y-62099209D01*
X119635187Y-62081612D01*
X119634000Y-62075738D01*
X119637102Y-62062097D01*
X119645766Y-62035318D01*
X119659034Y-61997837D01*
X119675945Y-61952086D01*
X119695540Y-61900500D01*
X119716858Y-61845512D01*
X119738940Y-61789557D01*
X119760826Y-61735067D01*
X119781557Y-61684478D01*
X119800171Y-61640223D01*
X119815710Y-61604735D01*
X119827214Y-61580449D01*
X119833417Y-61570082D01*
X119845037Y-61565189D01*
X119872299Y-61557746D01*
X119914142Y-61547984D01*
X119969504Y-61536136D01*
X120037325Y-61522434D01*
X120116543Y-61507109D01*
X120151102Y-61500592D01*
X120221224Y-61487257D01*
X120286328Y-61474489D01*
X120344475Y-61462697D01*
X120393728Y-61452290D01*
X120432151Y-61443679D01*
X120457806Y-61437272D01*
X120468755Y-61433479D01*
X120468782Y-61433457D01*
X120471856Y-61428417D01*
X120474371Y-61417906D01*
X120476380Y-61400445D01*
X120477934Y-61374556D01*
X120479083Y-61338762D01*
X120479879Y-61291584D01*
X120480374Y-61231544D01*
X120480618Y-61157164D01*
X120480667Y-61090696D01*
X120480456Y-60993873D01*
X120479819Y-60913714D01*
X120478749Y-60849956D01*
X120477238Y-60802336D01*
X120475281Y-60770591D01*
X120472869Y-60754456D01*
X120471675Y-60752242D01*
X120461578Y-60749484D01*
X120436711Y-60744035D01*
X120398956Y-60736269D01*
X120350194Y-60726560D01*
X120292310Y-60715282D01*
X120227184Y-60702810D01*
X120156701Y-60689519D01*
X120147825Y-60687859D01*
X120058088Y-60670882D01*
X119984131Y-60656409D01*
X119925021Y-60644231D01*
X119879822Y-60634142D01*
X119847600Y-60625933D01*
X119827421Y-60619395D01*
X119818610Y-60614600D01*
X119811078Y-60602574D01*
X119798308Y-60577317D01*
X119781362Y-60541316D01*
X119761302Y-60497057D01*
X119739190Y-60447027D01*
X119716091Y-60393711D01*
X119693065Y-60339597D01*
X119671176Y-60287170D01*
X119651486Y-60238917D01*
X119635058Y-60197325D01*
X119622954Y-60164880D01*
X119616237Y-60144069D01*
X119615227Y-60138687D01*
X119619641Y-60125599D01*
X119633391Y-60100143D01*
X119656627Y-60062083D01*
X119689496Y-60011186D01*
X119732149Y-59947214D01*
X119784734Y-59869933D01*
X119794948Y-59855054D01*
X119835785Y-59795379D01*
X119873603Y-59739638D01*
X119907312Y-59689470D01*
X119935824Y-59646516D01*
X119958052Y-59612415D01*
X119972906Y-59588809D01*
X119979300Y-59577338D01*
X119979421Y-59576966D01*
X119974636Y-59567262D01*
X119959146Y-59547474D01*
X119934521Y-59519184D01*
X119902333Y-59483971D01*
X119864152Y-59443416D01*
X119821549Y-59399101D01*
X119776094Y-59352605D01*
X119729358Y-59305509D01*
X119682912Y-59259393D01*
X119638327Y-59215839D01*
X119597172Y-59176426D01*
X119561019Y-59142736D01*
X119531438Y-59116349D01*
X119510001Y-59098844D01*
X119498277Y-59091804D01*
X119497273Y-59091781D01*
X119487341Y-59097223D01*
X119465088Y-59111203D01*
X119432135Y-59132648D01*
X119390101Y-59160484D01*
X119340608Y-59193637D01*
X119285273Y-59231033D01*
X119225719Y-59271599D01*
X119217873Y-59276966D01*
X119157803Y-59317949D01*
X119101679Y-59355994D01*
X119051134Y-59390012D01*
X119007802Y-59418915D01*
X118973316Y-59441612D01*
X118949310Y-59457016D01*
X118937419Y-59464038D01*
X118936877Y-59464268D01*
X118925258Y-59462620D01*
X118900531Y-59455244D01*
X118865138Y-59443113D01*
X118821523Y-59427198D01*
X118772130Y-59408473D01*
X118719400Y-59387908D01*
X118665777Y-59366477D01*
X118613705Y-59345151D01*
X118565626Y-59324902D01*
X118523983Y-59306702D01*
X118491220Y-59291525D01*
X118469780Y-59280341D01*
X118463189Y-59275785D01*
X118458210Y-59267417D01*
X118452205Y-59250197D01*
X118444904Y-59222914D01*
X118436034Y-59184355D01*
X118425325Y-59133309D01*
X118412505Y-59068563D01*
X118397301Y-58988906D01*
X118389106Y-58945171D01*
X118375892Y-58874152D01*
X118363710Y-58808361D01*
X118352900Y-58749657D01*
X118343801Y-58699897D01*
X118336753Y-58660937D01*
X118332095Y-58634635D01*
X118330166Y-58622850D01*
X118330133Y-58622455D01*
X118324785Y-58611896D01*
X118316829Y-58602638D01*
X118311708Y-58599204D01*
X118302827Y-58596406D01*
X118288589Y-58594180D01*
X118267397Y-58592465D01*
X118237655Y-58591196D01*
X118197766Y-58590312D01*
X118146133Y-58589750D01*
X118081159Y-58589446D01*
X118001248Y-58589337D01*
X117978767Y-58589334D01*
X117894875Y-58589403D01*
G37*
X117894875Y-58589403D02*
X117826319Y-58589652D01*
X117771503Y-58590144D01*
X117728830Y-58590942D01*
X117696703Y-58592108D01*
X117673525Y-58593706D01*
X117657699Y-58595799D01*
X117647630Y-58598448D01*
X117641719Y-58601717D01*
X117640705Y-58602638D01*
X117630070Y-58615738D01*
X117627400Y-58622091D01*
X117625898Y-58631523D01*
X117621619Y-58655745D01*
X117614902Y-58692905D01*
X117606084Y-58741149D01*
X117595507Y-58798623D01*
X117583507Y-58863475D01*
X117570425Y-58933851D01*
X117568373Y-58944862D01*
X117551903Y-59032269D01*
X117537945Y-59104171D01*
X117526231Y-59161765D01*
X117516491Y-59206252D01*
X117508459Y-59238828D01*
X117501866Y-59260693D01*
X117496443Y-59273044D01*
X117494289Y-59275841D01*
X117482722Y-59282678D01*
X117457587Y-59294812D01*
X117421053Y-59311286D01*
X117375289Y-59331145D01*
X117322464Y-59353434D01*
X117264746Y-59377197D01*
X117257656Y-59380078D01*
X117190105Y-59407285D01*
X117136439Y-59428401D01*
X117094976Y-59443997D01*
X117064035Y-59454646D01*
X117041933Y-59460921D01*
X117026989Y-59463394D01*
X117017521Y-59462638D01*
X117016356Y-59462238D01*
X117005102Y-59455814D01*
X116981588Y-59440859D01*
X116947471Y-59418479D01*
X116904414Y-59389783D01*
X116854077Y-59355877D01*
X116798119Y-59317869D01*
X116738202Y-59276867D01*
X116730670Y-59271692D01*
X116670756Y-59230734D01*
X116614885Y-59192975D01*
X116564660Y-59159466D01*
X116521687Y-59131260D01*
X116487569Y-59109408D01*
X116463912Y-59094961D01*
X116452320Y-59088971D01*
X116451729Y-59088867D01*
X116443034Y-59094669D01*
X116423803Y-59111211D01*
X116395408Y-59137193D01*
X116359222Y-59171319D01*
X116316620Y-59212290D01*
X116268973Y-59258808D01*
X116217656Y-59309574D01*
X116206413Y-59320781D01*
X116146313Y-59380929D01*
X116097303Y-59430393D01*
X116058353Y-59470310D01*
X116028430Y-59501818D01*
X116006503Y-59526056D01*
X115991539Y-59544162D01*
X115982507Y-59557273D01*
X115978375Y-59566527D01*
X115978023Y-59572665D01*
X115983599Y-59583989D01*
X115997758Y-59607539D01*
X116019409Y-59641644D01*
X116047461Y-59684633D01*
X116080822Y-59734834D01*
X116118400Y-59790576D01*
X116159105Y-59850189D01*
X116162449Y-59855054D01*
X116216794Y-59934636D01*
X116261180Y-60000875D01*
X116295760Y-60054013D01*
X116320688Y-60094291D01*
X116336115Y-60121948D01*
X116342194Y-60137227D01*
X116342307Y-60138687D01*
X116338794Y-60152504D01*
X116329345Y-60179242D01*
X116315021Y-60216412D01*
X116296886Y-60261529D01*
X116276002Y-60312107D01*
X116253431Y-60365659D01*
X116230237Y-60419698D01*
X116207482Y-60471738D01*
X116186228Y-60519294D01*
X116167538Y-60559877D01*
X116152475Y-60591003D01*
X116142101Y-60610184D01*
X116138924Y-60614600D01*
X116129186Y-60619759D01*
X116108282Y-60626395D01*
X116075276Y-60634715D01*
X116029235Y-60644929D01*
X115969224Y-60657244D01*
X115894308Y-60671868D01*
X115809709Y-60687859D01*
X115738701Y-60701225D01*
X115672821Y-60713817D01*
X115613952Y-60725260D01*
X115563976Y-60735180D01*
X115524777Y-60743204D01*
X115498236Y-60748956D01*
X115486237Y-60752062D01*
X115485859Y-60752242D01*
X115483247Y-60761659D01*
X115481093Y-60786573D01*
X115479388Y-60827246D01*
X115478127Y-60883942D01*
X115477302Y-60956925D01*
X115476907Y-61046457D01*
X115476867Y-61090696D01*
X115476956Y-61176867D01*
X115477256Y-61247583D01*
X115477820Y-61304323D01*
X115478699Y-61348564D01*
X115479942Y-61381785D01*
X115481603Y-61405464D01*
X115483732Y-61421079D01*
X115486380Y-61430107D01*
X115488752Y-61433457D01*
X115499557Y-61437224D01*
X115525085Y-61443609D01*
X115563400Y-61452202D01*
X115612563Y-61462594D01*
X115670637Y-61474375D01*
X115735685Y-61487137D01*
X115805770Y-61500468D01*
X115806431Y-61500592D01*
X115889901Y-61516499D01*
X115962398Y-61530877D01*
X116022859Y-61543493D01*
X116070225Y-61554115D01*
X116103433Y-61562512D01*
X116121423Y-61568450D01*
X116124116Y-61570082D01*
X116131049Y-61581883D01*
X116142901Y-61607129D01*
X116158715Y-61643387D01*
X116177529Y-61688224D01*
X116198384Y-61739204D01*
X116220319Y-61793895D01*
X116242377Y-61849863D01*
X116263595Y-61904673D01*
X116283015Y-61955892D01*
X116299677Y-62001085D01*
X116312620Y-62037821D01*
X116320886Y-62063663D01*
X116323533Y-62075738D01*
X116319944Y-62087867D01*
X116308872Y-62109617D01*
X116289864Y-62141712D01*
X116262466Y-62184875D01*
X116226224Y-62239829D01*
X116180684Y-62307297D01*
X116149967Y-62352252D01*
X116110113Y-62410734D01*
X116073482Y-62465187D01*
X116041153Y-62513957D01*
X116014203Y-62555385D01*
X115993710Y-62587817D01*
X115980751Y-62609595D01*
X115976400Y-62618964D01*
X115982217Y-62627770D01*
X115998807Y-62647093D01*
X116024877Y-62675570D01*
X116059134Y-62711837D01*
X116100287Y-62754530D01*
X116147044Y-62802286D01*
X116198111Y-62853739D01*
X116211998Y-62867617D01*
X116273436Y-62928724D01*
X116324109Y-62978653D01*
X116365063Y-63018357D01*
X116397346Y-63048792D01*
X116422007Y-63070909D01*
X116440092Y-63085663D01*
X116452650Y-63094007D01*
X116460727Y-63096895D01*
X116463514Y-63096554D01*
X116474037Y-63090453D01*
X116496773Y-63075866D01*
X116530007Y-63053939D01*
X116572025Y-63025818D01*
X116621113Y-62992649D01*
X116675555Y-62955579D01*
X116723552Y-62922690D01*
X116781141Y-62883453D01*
X116834893Y-62847474D01*
X116883087Y-62815856D01*
X116924001Y-62789703D01*
X116955914Y-62770119D01*
X116977103Y-62758205D01*
X116985333Y-62754933D01*
X116998808Y-62758762D01*
X117024013Y-62769297D01*
X117057823Y-62785112D01*
X117097115Y-62804781D01*
X117115167Y-62814200D01*
X117155411Y-62835029D01*
X117191033Y-62852656D01*
X117219060Y-62865669D01*
X117236519Y-62872661D01*
X117240150Y-62873467D01*
X117248302Y-62865966D01*
X117261457Y-62843301D01*
X117279737Y-62805226D01*
X117303261Y-62751495D01*
X117318672Y-62714717D01*
X117335698Y-62673593D01*
X117358200Y-62619261D01*
X117385168Y-62554153D01*
X117415595Y-62480705D01*
X117448473Y-62401350D01*
X117482792Y-62318522D01*
X117517544Y-62234656D01*
X117543991Y-62170836D01*
X117575581Y-62094318D01*
X117605094Y-62022263D01*
X117631906Y-61956236D01*
X117655390Y-61897806D01*
X117674922Y-61848539D01*
X117689876Y-61810001D01*
X117699627Y-61783760D01*
X117703551Y-61771382D01*
X117703600Y-61770893D01*
X117696886Y-61757972D01*
X117679769Y-61741845D01*
X117668193Y-61733728D01*
X117568870Y-61664106D01*
X117485340Y-61590182D01*
X117416752Y-61510780D01*
X117362258Y-61424724D01*
X117321007Y-61330835D01*
X117292149Y-61227938D01*
X117287993Y-61207251D01*
X117282456Y-61157984D01*
X117281566Y-61098486D01*
X117284971Y-61034706D01*
X117292320Y-60972591D01*
X117303261Y-60918090D01*
X117305590Y-60909528D01*
X117342971Y-60808289D01*
X117393993Y-60715907D01*
X117457311Y-60633393D01*
X117531583Y-60561764D01*
X117615466Y-60502034D01*
X117707614Y-60455216D01*
X117806686Y-60422327D01*
X117911338Y-60404379D01*
X117978767Y-60401200D01*
X118086215Y-60409325D01*
X118188922Y-60433025D01*
X118285541Y-60471284D01*
X118374732Y-60523088D01*
X118455149Y-60587423D01*
X118525450Y-60663274D01*
X118584291Y-60749627D01*
X118630328Y-60845467D01*
X118651943Y-60909528D01*
X118663495Y-60962021D01*
X118671518Y-61023202D01*
X118675661Y-61087121D01*
X118675572Y-61147832D01*
X118670899Y-61199385D01*
X118669540Y-61207251D01*
X118642944Y-61311995D01*
X118604115Y-61407506D01*
X118552205Y-61494962D01*
X118486363Y-61575539D01*
X118405740Y-61650414D01*
X118309486Y-61720763D01*
X118289340Y-61733728D01*
X118268589Y-61749637D01*
X118255868Y-61764828D01*
X118253933Y-61770893D01*
X118257095Y-61781452D01*
X118266161Y-61806068D01*
X118280507Y-61843174D01*
X118299508Y-61891202D01*
X118322539Y-61948587D01*
X118348974Y-62013761D01*
X118378188Y-62085158D01*
X118409555Y-62161210D01*
X118413542Y-62170836D01*
X118447940Y-62253842D01*
X118482683Y-62337686D01*
X118516760Y-62419933D01*
X118549165Y-62498149D01*
X118578888Y-62569900D01*
X118604922Y-62632753D01*
X118626258Y-62684273D01*
X118638862Y-62714717D01*
X118665359Y-62777268D01*
X118686543Y-62824026D01*
X118702535Y-62855238D01*
X118713456Y-62871149D01*
X118717384Y-62873467D01*
X118729078Y-62869667D01*
X118752687Y-62859206D01*
X118785237Y-62843494D01*
X118823756Y-62823941D01*
X118842367Y-62814200D01*
X118883072Y-62793296D01*
X118919656Y-62775626D01*
X118948996Y-62762614D01*
X118967969Y-62755687D01*
X118972201Y-62754933D01*
X118983119Y-62759598D01*
X119006198Y-62772854D01*
X119039716Y-62793600D01*
X119081951Y-62820731D01*
X119131182Y-62853145D01*
X119185687Y-62889739D01*
X119233982Y-62922690D01*
X119291566Y-62962126D01*
X119345216Y-62998612D01*
X119393220Y-63031001D01*
X119433861Y-63058147D01*
X119465427Y-63078904D01*
X119486202Y-63092125D01*
X119494020Y-63096554D01*
X119500176Y-63096135D01*
X119510265Y-63090757D01*
X119525335Y-63079467D01*
X119546433Y-63061311D01*
X119574608Y-63035336D01*
X119610907Y-63000588D01*
X119656377Y-62956114D01*
X119712066Y-62900959D01*
X119745536Y-62867617D01*
X119797517Y-62815422D01*
X119845523Y-62766569D01*
X119888265Y-62722422D01*
X119924448Y-62684345D01*
X119952781Y-62653702D01*
X119971971Y-62631857D01*
X119980726Y-62620173D01*
X119981133Y-62618964D01*
X119976486Y-62609062D01*
X119963261Y-62586905D01*
X119942537Y-62554150D01*
X119915392Y-62512452D01*
X119882903Y-62463469D01*
X119846149Y-62408855D01*
X119807567Y-62352252D01*
X119756450Y-62277226D01*
X119714893Y-62215131D01*
X119682442Y-62165246D01*
X119658644Y-62126846D01*
X119643043Y-62099209D01*
X119635187Y-62081612D01*
X119634000Y-62075738D01*
X119637102Y-62062097D01*
X119645766Y-62035318D01*
X119659034Y-61997837D01*
X119675945Y-61952086D01*
X119695540Y-61900500D01*
X119716858Y-61845512D01*
X119738940Y-61789557D01*
X119760826Y-61735067D01*
X119781557Y-61684478D01*
X119800171Y-61640223D01*
X119815710Y-61604735D01*
X119827214Y-61580449D01*
X119833417Y-61570082D01*
X119845037Y-61565189D01*
X119872299Y-61557746D01*
X119914142Y-61547984D01*
X119969504Y-61536136D01*
X120037325Y-61522434D01*
X120116543Y-61507109D01*
X120151102Y-61500592D01*
X120221224Y-61487257D01*
X120286328Y-61474489D01*
X120344475Y-61462697D01*
X120393728Y-61452290D01*
X120432151Y-61443679D01*
X120457806Y-61437272D01*
X120468755Y-61433479D01*
X120468782Y-61433457D01*
X120471856Y-61428417D01*
X120474371Y-61417906D01*
X120476380Y-61400445D01*
X120477934Y-61374556D01*
X120479083Y-61338762D01*
X120479879Y-61291584D01*
X120480374Y-61231544D01*
X120480618Y-61157164D01*
X120480667Y-61090696D01*
X120480456Y-60993873D01*
X120479819Y-60913714D01*
X120478749Y-60849956D01*
X120477238Y-60802336D01*
X120475281Y-60770591D01*
X120472869Y-60754456D01*
X120471675Y-60752242D01*
X120461578Y-60749484D01*
X120436711Y-60744035D01*
X120398956Y-60736269D01*
X120350194Y-60726560D01*
X120292310Y-60715282D01*
X120227184Y-60702810D01*
X120156701Y-60689519D01*
X120147825Y-60687859D01*
X120058088Y-60670882D01*
X119984131Y-60656409D01*
X119925021Y-60644231D01*
X119879822Y-60634142D01*
X119847600Y-60625933D01*
X119827421Y-60619395D01*
X119818610Y-60614600D01*
X119811078Y-60602574D01*
X119798308Y-60577317D01*
X119781362Y-60541316D01*
X119761302Y-60497057D01*
X119739190Y-60447027D01*
X119716091Y-60393711D01*
X119693065Y-60339597D01*
X119671176Y-60287170D01*
X119651486Y-60238917D01*
X119635058Y-60197325D01*
X119622954Y-60164880D01*
X119616237Y-60144069D01*
X119615227Y-60138687D01*
X119619641Y-60125599D01*
X119633391Y-60100143D01*
X119656627Y-60062083D01*
X119689496Y-60011186D01*
X119732149Y-59947214D01*
X119784734Y-59869933D01*
X119794948Y-59855054D01*
X119835785Y-59795379D01*
X119873603Y-59739638D01*
X119907312Y-59689470D01*
X119935824Y-59646516D01*
X119958052Y-59612415D01*
X119972906Y-59588809D01*
X119979300Y-59577338D01*
X119979421Y-59576966D01*
X119974636Y-59567262D01*
X119959146Y-59547474D01*
X119934521Y-59519184D01*
X119902333Y-59483971D01*
X119864152Y-59443416D01*
X119821549Y-59399101D01*
X119776094Y-59352605D01*
X119729358Y-59305509D01*
X119682912Y-59259393D01*
X119638327Y-59215839D01*
X119597172Y-59176426D01*
X119561019Y-59142736D01*
X119531438Y-59116349D01*
X119510001Y-59098844D01*
X119498277Y-59091804D01*
X119497273Y-59091781D01*
X119487341Y-59097223D01*
X119465088Y-59111203D01*
X119432135Y-59132648D01*
X119390101Y-59160484D01*
X119340608Y-59193637D01*
X119285273Y-59231033D01*
X119225719Y-59271599D01*
X119217873Y-59276966D01*
X119157803Y-59317949D01*
X119101679Y-59355994D01*
X119051134Y-59390012D01*
X119007802Y-59418915D01*
X118973316Y-59441612D01*
X118949310Y-59457016D01*
X118937419Y-59464038D01*
X118936877Y-59464268D01*
X118925258Y-59462620D01*
X118900531Y-59455244D01*
X118865138Y-59443113D01*
X118821523Y-59427198D01*
X118772130Y-59408473D01*
X118719400Y-59387908D01*
X118665777Y-59366477D01*
X118613705Y-59345151D01*
X118565626Y-59324902D01*
X118523983Y-59306702D01*
X118491220Y-59291525D01*
X118469780Y-59280341D01*
X118463189Y-59275785D01*
X118458210Y-59267417D01*
X118452205Y-59250197D01*
X118444904Y-59222914D01*
X118436034Y-59184355D01*
X118425325Y-59133309D01*
X118412505Y-59068563D01*
X118397301Y-58988906D01*
X118389106Y-58945171D01*
X118375892Y-58874152D01*
X118363710Y-58808361D01*
X118352900Y-58749657D01*
X118343801Y-58699897D01*
X118336753Y-58660937D01*
X118332095Y-58634635D01*
X118330166Y-58622850D01*
X118330133Y-58622455D01*
X118324785Y-58611896D01*
X118316829Y-58602638D01*
X118311708Y-58599204D01*
X118302827Y-58596406D01*
X118288589Y-58594180D01*
X118267397Y-58592465D01*
X118237655Y-58591196D01*
X118197766Y-58590312D01*
X118146133Y-58589750D01*
X118081159Y-58589446D01*
X118001248Y-58589337D01*
X117978767Y-58589334D01*
X117894875Y-58589403D01*
G36*
X115973060Y-63620799D02*
G01*
X115931898Y-63634413D01*
X115920909Y-63639553D01*
X115874486Y-63662266D01*
X115899420Y-63693317D01*
X115921487Y-63720413D01*
X115944607Y-63748256D01*
X115949160Y-63753654D01*
X115973967Y-63782942D01*
X115998467Y-63766862D01*
X116035109Y-63752241D01*
X116075729Y-63751149D01*
X116115900Y-63762414D01*
X116151194Y-63784866D01*
X116175067Y-63813566D01*
X116180276Y-63823474D01*
X116184369Y-63834808D01*
X116187514Y-63849715D01*
X116189880Y-63870343D01*
X116191636Y-63898842D01*
X116192950Y-63937359D01*
X116193991Y-63988042D01*
X116194926Y-64053040D01*
X116195134Y-64069384D01*
X116197967Y-64295867D01*
X116261016Y-64295867D01*
X116299372Y-64294491D01*
X116321634Y-64290299D01*
X116328135Y-64285260D01*
X116328987Y-64274675D01*
X116329664Y-64249065D01*
X116330157Y-64210335D01*
X116330455Y-64160394D01*
X116330548Y-64101148D01*
X116330425Y-64034503D01*
X116330075Y-63962367D01*
X116329986Y-63948710D01*
X116327767Y-63622767D01*
X116196533Y-63617821D01*
X116196533Y-63652044D01*
X116194608Y-63676507D01*
X116188087Y-63685094D01*
X116175860Y-63678500D01*
X116167609Y-63670116D01*
X116141207Y-63650092D01*
X116103674Y-63633178D01*
X116060778Y-63621415D01*
X116018290Y-63616845D01*
X116017012Y-63616840D01*
X115973060Y-63620799D01*
G37*
X115973060Y-63620799D02*
X115931898Y-63634413D01*
X115920909Y-63639553D01*
X115874486Y-63662266D01*
X115899420Y-63693317D01*
X115921487Y-63720413D01*
X115944607Y-63748256D01*
X115949160Y-63753654D01*
X115973967Y-63782942D01*
X115998467Y-63766862D01*
X116035109Y-63752241D01*
X116075729Y-63751149D01*
X116115900Y-63762414D01*
X116151194Y-63784866D01*
X116175067Y-63813566D01*
X116180276Y-63823474D01*
X116184369Y-63834808D01*
X116187514Y-63849715D01*
X116189880Y-63870343D01*
X116191636Y-63898842D01*
X116192950Y-63937359D01*
X116193991Y-63988042D01*
X116194926Y-64053040D01*
X116195134Y-64069384D01*
X116197967Y-64295867D01*
X116261016Y-64295867D01*
X116299372Y-64294491D01*
X116321634Y-64290299D01*
X116328135Y-64285260D01*
X116328987Y-64274675D01*
X116329664Y-64249065D01*
X116330157Y-64210335D01*
X116330455Y-64160394D01*
X116330548Y-64101148D01*
X116330425Y-64034503D01*
X116330075Y-63962367D01*
X116329986Y-63948710D01*
X116327767Y-63622767D01*
X116196533Y-63617821D01*
X116196533Y-63652044D01*
X116194608Y-63676507D01*
X116188087Y-63685094D01*
X116175860Y-63678500D01*
X116167609Y-63670116D01*
X116141207Y-63650092D01*
X116103674Y-63633178D01*
X116060778Y-63621415D01*
X116018290Y-63616845D01*
X116017012Y-63616840D01*
X115973060Y-63620799D01*
G36*
X118865604Y-63624352D02*
G01*
X118810538Y-63646390D01*
X118763986Y-63681699D01*
X118728124Y-63728915D01*
X118718685Y-63747589D01*
X118712952Y-63760858D01*
X118708434Y-63773631D01*
X118704984Y-63788041D01*
X118702458Y-63806220D01*
X118700710Y-63830300D01*
X118699593Y-63862413D01*
X118698962Y-63904693D01*
X118698670Y-63959272D01*
X118698573Y-64028282D01*
X118698566Y-64041867D01*
X118698433Y-64291634D01*
X118763424Y-64294095D01*
X118828414Y-64296557D01*
X118831157Y-64073962D01*
X118832074Y-64006157D01*
X118833070Y-63953069D01*
X118834325Y-63912480D01*
X118836014Y-63882173D01*
X118838315Y-63859930D01*
X118841405Y-63843536D01*
X118845462Y-63830772D01*
X118850663Y-63819422D01*
X118851659Y-63817500D01*
X118878105Y-63783352D01*
X118912967Y-63761228D01*
X118952674Y-63751191D01*
X118993657Y-63753302D01*
X119032348Y-63767622D01*
X119065177Y-63794214D01*
X119079134Y-63813566D01*
X119084340Y-63823461D01*
X119088428Y-63834759D01*
X119091563Y-63849607D01*
X119093912Y-63870155D01*
X119095643Y-63898551D01*
X119096921Y-63936942D01*
X119097914Y-63987479D01*
X119098788Y-64052308D01*
X119098988Y-64069384D01*
X119101610Y-64295867D01*
X119236067Y-64295867D01*
X119236067Y-63618534D01*
X119100600Y-63618534D01*
X119100600Y-63696488D01*
X119069466Y-63669151D01*
X119028230Y-63639530D01*
X118984494Y-63622861D01*
X118932455Y-63617017D01*
X118927010Y-63616949D01*
X118865604Y-63624352D01*
G37*
X118865604Y-63624352D02*
X118810538Y-63646390D01*
X118763986Y-63681699D01*
X118728124Y-63728915D01*
X118718685Y-63747589D01*
X118712952Y-63760858D01*
X118708434Y-63773631D01*
X118704984Y-63788041D01*
X118702458Y-63806220D01*
X118700710Y-63830300D01*
X118699593Y-63862413D01*
X118698962Y-63904693D01*
X118698670Y-63959272D01*
X118698573Y-64028282D01*
X118698566Y-64041867D01*
X118698433Y-64291634D01*
X118763424Y-64294095D01*
X118828414Y-64296557D01*
X118831157Y-64073962D01*
X118832074Y-64006157D01*
X118833070Y-63953069D01*
X118834325Y-63912480D01*
X118836014Y-63882173D01*
X118838315Y-63859930D01*
X118841405Y-63843536D01*
X118845462Y-63830772D01*
X118850663Y-63819422D01*
X118851659Y-63817500D01*
X118878105Y-63783352D01*
X118912967Y-63761228D01*
X118952674Y-63751191D01*
X118993657Y-63753302D01*
X119032348Y-63767622D01*
X119065177Y-63794214D01*
X119079134Y-63813566D01*
X119084340Y-63823461D01*
X119088428Y-63834759D01*
X119091563Y-63849607D01*
X119093912Y-63870155D01*
X119095643Y-63898551D01*
X119096921Y-63936942D01*
X119097914Y-63987479D01*
X119098788Y-64052308D01*
X119098988Y-64069384D01*
X119101610Y-64295867D01*
X119236067Y-64295867D01*
X119236067Y-63618534D01*
X119100600Y-63618534D01*
X119100600Y-63696488D01*
X119069466Y-63669151D01*
X119028230Y-63639530D01*
X118984494Y-63622861D01*
X118932455Y-63617017D01*
X118927010Y-63616949D01*
X118865604Y-63624352D01*
G36*
X114944301Y-63630380D02*
G01*
X114886388Y-63657334D01*
X114850677Y-63683044D01*
X114809749Y-63728524D01*
X114780522Y-63786231D01*
X114763003Y-63856145D01*
X114757200Y-63937812D01*
X114757200Y-64008000D01*
X115174269Y-64008000D01*
X115169866Y-64047067D01*
X115157363Y-64091281D01*
X115132506Y-64126784D01*
X115097939Y-64152718D01*
X115056311Y-64168225D01*
X115010268Y-64172447D01*
X114962457Y-64164525D01*
X114915524Y-64143601D01*
X114901288Y-64134139D01*
X114866719Y-64109097D01*
X114820426Y-64149063D01*
X114797786Y-64169345D01*
X114781292Y-64185523D01*
X114774200Y-64194384D01*
X114774133Y-64194749D01*
X114780288Y-64202609D01*
X114796236Y-64217109D01*
X114813405Y-64231064D01*
X114874933Y-64268470D01*
X114943815Y-64291162D01*
X115018316Y-64298713D01*
X115072240Y-64294850D01*
X115138214Y-64278245D01*
X115193653Y-64248512D01*
X115238354Y-64205934D01*
X115272118Y-64150795D01*
X115294746Y-64083380D01*
X115306035Y-64003971D01*
X115307368Y-63961434D01*
X115304620Y-63893532D01*
X115301605Y-63874327D01*
X115172067Y-63874327D01*
X115172067Y-63897934D01*
X115032367Y-63897934D01*
X114980826Y-63897845D01*
X114943816Y-63897381D01*
X114918936Y-63896248D01*
X114903784Y-63894148D01*
X114895958Y-63890786D01*
X114893056Y-63885866D01*
X114892667Y-63880728D01*
X114897177Y-63856509D01*
X114908503Y-63826503D01*
X114923344Y-63798498D01*
X114933186Y-63785193D01*
X114965459Y-63761127D01*
X115006350Y-63747203D01*
X115050358Y-63744219D01*
X115091983Y-63752968D01*
X115106961Y-63760063D01*
X115130308Y-63780640D01*
X115151498Y-63811321D01*
X115166690Y-63845364D01*
X115172067Y-63874327D01*
X115301605Y-63874327D01*
X115295702Y-63836731D01*
X115279510Y-63785972D01*
X115260230Y-63745681D01*
X115223914Y-63695410D01*
X115177707Y-63657047D01*
X115124125Y-63630977D01*
X115065686Y-63617587D01*
X115004906Y-63617259D01*
X114944301Y-63630380D01*
G37*
X114944301Y-63630380D02*
X114886388Y-63657334D01*
X114850677Y-63683044D01*
X114809749Y-63728524D01*
X114780522Y-63786231D01*
X114763003Y-63856145D01*
X114757200Y-63937812D01*
X114757200Y-64008000D01*
X115174269Y-64008000D01*
X115169866Y-64047067D01*
X115157363Y-64091281D01*
X115132506Y-64126784D01*
X115097939Y-64152718D01*
X115056311Y-64168225D01*
X115010268Y-64172447D01*
X114962457Y-64164525D01*
X114915524Y-64143601D01*
X114901288Y-64134139D01*
X114866719Y-64109097D01*
X114820426Y-64149063D01*
X114797786Y-64169345D01*
X114781292Y-64185523D01*
X114774200Y-64194384D01*
X114774133Y-64194749D01*
X114780288Y-64202609D01*
X114796236Y-64217109D01*
X114813405Y-64231064D01*
X114874933Y-64268470D01*
X114943815Y-64291162D01*
X115018316Y-64298713D01*
X115072240Y-64294850D01*
X115138214Y-64278245D01*
X115193653Y-64248512D01*
X115238354Y-64205934D01*
X115272118Y-64150795D01*
X115294746Y-64083380D01*
X115306035Y-64003971D01*
X115307368Y-63961434D01*
X115304620Y-63893532D01*
X115301605Y-63874327D01*
X115172067Y-63874327D01*
X115172067Y-63897934D01*
X115032367Y-63897934D01*
X114980826Y-63897845D01*
X114943816Y-63897381D01*
X114918936Y-63896248D01*
X114903784Y-63894148D01*
X114895958Y-63890786D01*
X114893056Y-63885866D01*
X114892667Y-63880728D01*
X114897177Y-63856509D01*
X114908503Y-63826503D01*
X114923344Y-63798498D01*
X114933186Y-63785193D01*
X114965459Y-63761127D01*
X115006350Y-63747203D01*
X115050358Y-63744219D01*
X115091983Y-63752968D01*
X115106961Y-63760063D01*
X115130308Y-63780640D01*
X115151498Y-63811321D01*
X115166690Y-63845364D01*
X115172067Y-63874327D01*
X115301605Y-63874327D01*
X115295702Y-63836731D01*
X115279510Y-63785972D01*
X115260230Y-63745681D01*
X115223914Y-63695410D01*
X115177707Y-63657047D01*
X115124125Y-63630977D01*
X115065686Y-63617587D01*
X115004906Y-63617259D01*
X114944301Y-63630380D01*
G36*
X115499353Y-63628008D02*
G01*
X115439509Y-63652702D01*
X115421833Y-63663524D01*
X115397743Y-63681195D01*
X115375133Y-63700322D01*
X115357917Y-63717316D01*
X115350009Y-63728587D01*
X115349867Y-63729530D01*
X115355850Y-63737709D01*
X115371597Y-63753386D01*
X115393803Y-63773288D01*
X115395662Y-63774882D01*
X115441457Y-63814006D01*
X115478789Y-63787692D01*
X115527350Y-63761949D01*
X115577066Y-63750778D01*
X115625269Y-63753683D01*
X115669288Y-63770167D01*
X115706453Y-63799734D01*
X115730498Y-63834466D01*
X115740997Y-63857163D01*
X115747453Y-63878930D01*
X115750800Y-63905075D01*
X115751967Y-63940908D01*
X115752033Y-63957200D01*
X115751422Y-63997820D01*
X115748968Y-64026841D01*
X115743738Y-64049572D01*
X115734801Y-64071322D01*
X115730498Y-64079934D01*
X115700926Y-64120791D01*
X115662466Y-64148620D01*
X115617620Y-64162918D01*
X115568893Y-64163186D01*
X115518787Y-64148922D01*
X115483292Y-64129393D01*
X115440904Y-64100868D01*
X115395385Y-64139755D01*
X115372898Y-64159785D01*
X115356630Y-64175836D01*
X115349896Y-64184624D01*
X115349867Y-64184871D01*
X115355536Y-64194141D01*
X115369534Y-64209090D01*
X115373150Y-64212487D01*
X115433304Y-64257108D01*
X115498993Y-64286065D01*
X115568925Y-64298965D01*
X115641809Y-64295415D01*
X115644285Y-64295007D01*
X115710112Y-64275725D01*
X115767723Y-64242069D01*
X115815593Y-64195221D01*
X115852193Y-64136366D01*
X115853919Y-64132650D01*
X115876599Y-64066341D01*
X115887645Y-63995120D01*
X115887480Y-63922389D01*
X115876525Y-63851552D01*
X115855203Y-63786014D01*
X115823937Y-63729178D01*
X115800274Y-63700352D01*
X115750947Y-63660853D01*
X115692866Y-63633546D01*
X115629356Y-63618754D01*
X115563743Y-63616800D01*
X115499353Y-63628008D01*
G37*
X115499353Y-63628008D02*
X115439509Y-63652702D01*
X115421833Y-63663524D01*
X115397743Y-63681195D01*
X115375133Y-63700322D01*
X115357917Y-63717316D01*
X115350009Y-63728587D01*
X115349867Y-63729530D01*
X115355850Y-63737709D01*
X115371597Y-63753386D01*
X115393803Y-63773288D01*
X115395662Y-63774882D01*
X115441457Y-63814006D01*
X115478789Y-63787692D01*
X115527350Y-63761949D01*
X115577066Y-63750778D01*
X115625269Y-63753683D01*
X115669288Y-63770167D01*
X115706453Y-63799734D01*
X115730498Y-63834466D01*
X115740997Y-63857163D01*
X115747453Y-63878930D01*
X115750800Y-63905075D01*
X115751967Y-63940908D01*
X115752033Y-63957200D01*
X115751422Y-63997820D01*
X115748968Y-64026841D01*
X115743738Y-64049572D01*
X115734801Y-64071322D01*
X115730498Y-64079934D01*
X115700926Y-64120791D01*
X115662466Y-64148620D01*
X115617620Y-64162918D01*
X115568893Y-64163186D01*
X115518787Y-64148922D01*
X115483292Y-64129393D01*
X115440904Y-64100868D01*
X115395385Y-64139755D01*
X115372898Y-64159785D01*
X115356630Y-64175836D01*
X115349896Y-64184624D01*
X115349867Y-64184871D01*
X115355536Y-64194141D01*
X115369534Y-64209090D01*
X115373150Y-64212487D01*
X115433304Y-64257108D01*
X115498993Y-64286065D01*
X115568925Y-64298965D01*
X115641809Y-64295415D01*
X115644285Y-64295007D01*
X115710112Y-64275725D01*
X115767723Y-64242069D01*
X115815593Y-64195221D01*
X115852193Y-64136366D01*
X115853919Y-64132650D01*
X115876599Y-64066341D01*
X115887645Y-63995120D01*
X115887480Y-63922389D01*
X115876525Y-63851552D01*
X115855203Y-63786014D01*
X115823937Y-63729178D01*
X115800274Y-63700352D01*
X115750947Y-63660853D01*
X115692866Y-63633546D01*
X115629356Y-63618754D01*
X115563743Y-63616800D01*
X115499353Y-63628008D01*
G36*
X116878100Y-63622767D02*
G01*
X116873867Y-63851367D01*
X116872486Y-63920586D01*
X116871096Y-63974967D01*
X116869533Y-64016604D01*
X116867629Y-64047593D01*
X116865218Y-64070028D01*
X116862136Y-64086004D01*
X116858216Y-64097614D01*
X116853669Y-64106336D01*
X116825121Y-64138878D01*
X116786893Y-64157784D01*
X116739858Y-64163339D01*
X116698529Y-64158003D01*
X116666981Y-64141690D01*
X116641506Y-64111998D01*
X116630450Y-64092494D01*
X116624639Y-64080433D01*
X116620147Y-64068283D01*
X116616805Y-64053770D01*
X116614442Y-64034622D01*
X116612891Y-64008566D01*
X116611981Y-63973329D01*
X116611543Y-63926638D01*
X116611408Y-63866222D01*
X116611400Y-63836873D01*
X116611400Y-63618534D01*
X116475933Y-63618534D01*
X116475933Y-64295867D01*
X116611400Y-64295867D01*
X116611400Y-64217696D01*
X116644160Y-64247293D01*
X116690952Y-64278525D01*
X116745345Y-64295995D01*
X116803961Y-64298833D01*
X116830291Y-64295208D01*
X116877124Y-64279795D01*
X116921854Y-64254128D01*
X116957783Y-64222229D01*
X116963472Y-64215262D01*
X116975698Y-64198452D01*
X116985496Y-64182130D01*
X116993139Y-64164238D01*
X116998896Y-64142722D01*
X117003038Y-64115524D01*
X117005837Y-64080590D01*
X117007564Y-64035863D01*
X117008488Y-63979286D01*
X117008883Y-63908805D01*
X117008962Y-63870061D01*
X117009334Y-63617821D01*
X116878100Y-63622767D01*
G37*
X116878100Y-63622767D02*
X116873867Y-63851367D01*
X116872486Y-63920586D01*
X116871096Y-63974967D01*
X116869533Y-64016604D01*
X116867629Y-64047593D01*
X116865218Y-64070028D01*
X116862136Y-64086004D01*
X116858216Y-64097614D01*
X116853669Y-64106336D01*
X116825121Y-64138878D01*
X116786893Y-64157784D01*
X116739858Y-64163339D01*
X116698529Y-64158003D01*
X116666981Y-64141690D01*
X116641506Y-64111998D01*
X116630450Y-64092494D01*
X116624639Y-64080433D01*
X116620147Y-64068283D01*
X116616805Y-64053770D01*
X116614442Y-64034622D01*
X116612891Y-64008566D01*
X116611981Y-63973329D01*
X116611543Y-63926638D01*
X116611408Y-63866222D01*
X116611400Y-63836873D01*
X116611400Y-63618534D01*
X116475933Y-63618534D01*
X116475933Y-64295867D01*
X116611400Y-64295867D01*
X116611400Y-64217696D01*
X116644160Y-64247293D01*
X116690952Y-64278525D01*
X116745345Y-64295995D01*
X116803961Y-64298833D01*
X116830291Y-64295208D01*
X116877124Y-64279795D01*
X116921854Y-64254128D01*
X116957783Y-64222229D01*
X116963472Y-64215262D01*
X116975698Y-64198452D01*
X116985496Y-64182130D01*
X116993139Y-64164238D01*
X116998896Y-64142722D01*
X117003038Y-64115524D01*
X117005837Y-64080590D01*
X117007564Y-64035863D01*
X117008488Y-63979286D01*
X117008883Y-63908805D01*
X117008962Y-63870061D01*
X117009334Y-63617821D01*
X116878100Y-63622767D01*
G36*
X117349332Y-63620323D02*
G01*
X117296628Y-63634702D01*
X117250124Y-63660954D01*
X117212189Y-63693973D01*
X117183818Y-63725407D01*
X117162788Y-63756809D01*
X117148100Y-63791456D01*
X117138757Y-63832625D01*
X117133763Y-63883596D01*
X117132120Y-63947644D01*
X117132100Y-63957200D01*
X117133378Y-64023210D01*
X117137875Y-64075710D01*
X117146589Y-64117980D01*
X117160518Y-64153296D01*
X117180659Y-64184937D01*
X117208009Y-64216181D01*
X117212189Y-64220428D01*
X117263219Y-64261499D01*
X117320066Y-64287395D01*
X117383941Y-64298489D01*
X117455012Y-64295296D01*
X117514341Y-64279148D01*
X117568605Y-64248549D01*
X117614812Y-64205856D01*
X117649977Y-64153424D01*
X117658398Y-64135000D01*
X117664456Y-64117456D01*
X117668760Y-64097127D01*
X117671585Y-64070890D01*
X117673203Y-64035623D01*
X117673888Y-63988202D01*
X117673967Y-63957200D01*
X117542734Y-63957200D01*
X117542287Y-64004675D01*
X117540671Y-64038803D01*
X117537472Y-64063151D01*
X117532277Y-64081289D01*
X117527058Y-64092526D01*
X117498291Y-64129979D01*
X117460532Y-64153943D01*
X117415836Y-64163761D01*
X117366254Y-64158780D01*
X117342479Y-64151380D01*
X117310648Y-64131476D01*
X117287170Y-64098541D01*
X117271795Y-64051957D01*
X117264274Y-63991105D01*
X117263381Y-63955568D01*
X117265383Y-63900544D01*
X117271981Y-63858248D01*
X117284183Y-63824854D01*
X117303000Y-63796541D01*
X117306467Y-63792482D01*
X117339102Y-63767304D01*
X117379687Y-63753686D01*
X117423434Y-63752032D01*
X117465556Y-63762745D01*
X117490419Y-63776994D01*
X117510826Y-63795244D01*
X117525351Y-63816734D01*
X117534886Y-63844530D01*
X117540319Y-63881698D01*
X117542543Y-63931304D01*
X117542734Y-63957200D01*
X117673967Y-63957200D01*
X117673664Y-63902102D01*
X117672572Y-63860807D01*
X117670418Y-63830192D01*
X117666929Y-63807132D01*
X117661832Y-63788507D01*
X117658398Y-63779400D01*
X117626359Y-63722275D01*
X117582382Y-63676046D01*
X117528525Y-63642078D01*
X117466846Y-63621739D01*
X117412422Y-63616191D01*
X117349332Y-63620323D01*
G37*
X117349332Y-63620323D02*
X117296628Y-63634702D01*
X117250124Y-63660954D01*
X117212189Y-63693973D01*
X117183818Y-63725407D01*
X117162788Y-63756809D01*
X117148100Y-63791456D01*
X117138757Y-63832625D01*
X117133763Y-63883596D01*
X117132120Y-63947644D01*
X117132100Y-63957200D01*
X117133378Y-64023210D01*
X117137875Y-64075710D01*
X117146589Y-64117980D01*
X117160518Y-64153296D01*
X117180659Y-64184937D01*
X117208009Y-64216181D01*
X117212189Y-64220428D01*
X117263219Y-64261499D01*
X117320066Y-64287395D01*
X117383941Y-64298489D01*
X117455012Y-64295296D01*
X117514341Y-64279148D01*
X117568605Y-64248549D01*
X117614812Y-64205856D01*
X117649977Y-64153424D01*
X117658398Y-64135000D01*
X117664456Y-64117456D01*
X117668760Y-64097127D01*
X117671585Y-64070890D01*
X117673203Y-64035623D01*
X117673888Y-63988202D01*
X117673967Y-63957200D01*
X117542734Y-63957200D01*
X117542287Y-64004675D01*
X117540671Y-64038803D01*
X117537472Y-64063151D01*
X117532277Y-64081289D01*
X117527058Y-64092526D01*
X117498291Y-64129979D01*
X117460532Y-64153943D01*
X117415836Y-64163761D01*
X117366254Y-64158780D01*
X117342479Y-64151380D01*
X117310648Y-64131476D01*
X117287170Y-64098541D01*
X117271795Y-64051957D01*
X117264274Y-63991105D01*
X117263381Y-63955568D01*
X117265383Y-63900544D01*
X117271981Y-63858248D01*
X117284183Y-63824854D01*
X117303000Y-63796541D01*
X117306467Y-63792482D01*
X117339102Y-63767304D01*
X117379687Y-63753686D01*
X117423434Y-63752032D01*
X117465556Y-63762745D01*
X117490419Y-63776994D01*
X117510826Y-63795244D01*
X117525351Y-63816734D01*
X117534886Y-63844530D01*
X117540319Y-63881698D01*
X117542543Y-63931304D01*
X117542734Y-63957200D01*
X117673967Y-63957200D01*
X117673664Y-63902102D01*
X117672572Y-63860807D01*
X117670418Y-63830192D01*
X117666929Y-63807132D01*
X117661832Y-63788507D01*
X117658398Y-63779400D01*
X117626359Y-63722275D01*
X117582382Y-63676046D01*
X117528525Y-63642078D01*
X117466846Y-63621739D01*
X117412422Y-63616191D01*
X117349332Y-63620323D01*
G36*
X117999958Y-63618848D02*
G01*
X117952605Y-63623420D01*
X117916603Y-63630467D01*
X117889677Y-63639798D01*
X117859127Y-63653354D01*
X117828915Y-63668960D01*
X117803003Y-63684441D01*
X117785352Y-63697622D01*
X117779800Y-63705554D01*
X117784967Y-63715142D01*
X117798542Y-63733460D01*
X117817637Y-63756622D01*
X117818521Y-63757648D01*
X117857243Y-63802499D01*
X117901230Y-63778674D01*
X117948142Y-63758324D01*
X117995415Y-63746721D01*
X118040558Y-63743445D01*
X118081084Y-63748077D01*
X118114503Y-63760198D01*
X118138327Y-63779391D01*
X118150066Y-63805236D01*
X118150618Y-63820628D01*
X118146066Y-63842689D01*
X118135253Y-63859196D01*
X118115894Y-63871233D01*
X118085702Y-63879888D01*
X118042392Y-63886245D01*
X118005138Y-63889740D01*
X117944385Y-63896278D01*
X117897306Y-63905417D01*
X117860714Y-63918234D01*
X117831418Y-63935806D01*
X117809371Y-63955813D01*
X117785140Y-63987955D01*
X117770606Y-64024784D01*
X117764161Y-64071036D01*
X117763511Y-64090971D01*
X117767286Y-64140095D01*
X117781442Y-64180379D01*
X117808216Y-64217827D01*
X117812517Y-64222559D01*
X117852061Y-64253969D01*
X117903666Y-64277868D01*
X117963795Y-64293336D01*
X118028912Y-64299451D01*
X118093067Y-64295634D01*
X118165197Y-64278937D01*
X118233928Y-64250459D01*
X118293642Y-64212625D01*
X118302898Y-64205094D01*
X118330696Y-64181544D01*
X118284855Y-64136272D01*
X118239014Y-64091001D01*
X118194892Y-64121351D01*
X118143510Y-64150352D01*
X118090321Y-64166286D01*
X118033772Y-64171114D01*
X117979904Y-64167077D01*
X117939209Y-64154031D01*
X117912219Y-64132301D01*
X117899466Y-64102212D01*
X117898463Y-64088666D01*
X117900520Y-64066929D01*
X117907949Y-64050622D01*
X117923013Y-64038615D01*
X117947974Y-64029780D01*
X117985095Y-64022989D01*
X118036639Y-64017111D01*
X118043157Y-64016484D01*
X118117353Y-64005684D01*
X118176653Y-63988354D01*
X118222080Y-63963734D01*
X118254658Y-63931063D01*
X118275412Y-63889580D01*
X118285365Y-63838526D01*
X118285540Y-63836445D01*
X118282717Y-63777596D01*
X118264918Y-63725830D01*
X118233072Y-63682414D01*
X118188104Y-63648614D01*
X118131297Y-63625793D01*
X118095614Y-63619898D01*
X118049731Y-63617629D01*
X117999958Y-63618848D01*
G37*
X117999958Y-63618848D02*
X117952605Y-63623420D01*
X117916603Y-63630467D01*
X117889677Y-63639798D01*
X117859127Y-63653354D01*
X117828915Y-63668960D01*
X117803003Y-63684441D01*
X117785352Y-63697622D01*
X117779800Y-63705554D01*
X117784967Y-63715142D01*
X117798542Y-63733460D01*
X117817637Y-63756622D01*
X117818521Y-63757648D01*
X117857243Y-63802499D01*
X117901230Y-63778674D01*
X117948142Y-63758324D01*
X117995415Y-63746721D01*
X118040558Y-63743445D01*
X118081084Y-63748077D01*
X118114503Y-63760198D01*
X118138327Y-63779391D01*
X118150066Y-63805236D01*
X118150618Y-63820628D01*
X118146066Y-63842689D01*
X118135253Y-63859196D01*
X118115894Y-63871233D01*
X118085702Y-63879888D01*
X118042392Y-63886245D01*
X118005138Y-63889740D01*
X117944385Y-63896278D01*
X117897306Y-63905417D01*
X117860714Y-63918234D01*
X117831418Y-63935806D01*
X117809371Y-63955813D01*
X117785140Y-63987955D01*
X117770606Y-64024784D01*
X117764161Y-64071036D01*
X117763511Y-64090971D01*
X117767286Y-64140095D01*
X117781442Y-64180379D01*
X117808216Y-64217827D01*
X117812517Y-64222559D01*
X117852061Y-64253969D01*
X117903666Y-64277868D01*
X117963795Y-64293336D01*
X118028912Y-64299451D01*
X118093067Y-64295634D01*
X118165197Y-64278937D01*
X118233928Y-64250459D01*
X118293642Y-64212625D01*
X118302898Y-64205094D01*
X118330696Y-64181544D01*
X118284855Y-64136272D01*
X118239014Y-64091001D01*
X118194892Y-64121351D01*
X118143510Y-64150352D01*
X118090321Y-64166286D01*
X118033772Y-64171114D01*
X117979904Y-64167077D01*
X117939209Y-64154031D01*
X117912219Y-64132301D01*
X117899466Y-64102212D01*
X117898463Y-64088666D01*
X117900520Y-64066929D01*
X117907949Y-64050622D01*
X117923013Y-64038615D01*
X117947974Y-64029780D01*
X117985095Y-64022989D01*
X118036639Y-64017111D01*
X118043157Y-64016484D01*
X118117353Y-64005684D01*
X118176653Y-63988354D01*
X118222080Y-63963734D01*
X118254658Y-63931063D01*
X118275412Y-63889580D01*
X118285365Y-63838526D01*
X118285540Y-63836445D01*
X118282717Y-63777596D01*
X118264918Y-63725830D01*
X118233072Y-63682414D01*
X118188104Y-63648614D01*
X118131297Y-63625793D01*
X118095614Y-63619898D01*
X118049731Y-63617629D01*
X117999958Y-63618848D01*
G36*
X119581170Y-63619600D02*
G01*
X119578147Y-63620061D01*
X119519979Y-63635210D01*
X119469887Y-63662339D01*
X119426034Y-63700889D01*
X119396225Y-63737855D01*
X119374632Y-63779419D01*
X119360035Y-63829050D01*
X119351212Y-63890218D01*
X119348961Y-63919737D01*
X119343560Y-64008000D01*
X119771351Y-64008000D01*
X119765625Y-64039750D01*
X119749273Y-64090176D01*
X119721719Y-64129311D01*
X119685011Y-64156406D01*
X119641196Y-64170714D01*
X119592324Y-64171484D01*
X119540442Y-64157970D01*
X119499263Y-64137069D01*
X119458453Y-64111700D01*
X119411350Y-64151895D01*
X119364247Y-64192089D01*
X119391174Y-64217248D01*
X119447798Y-64258879D01*
X119512371Y-64286414D01*
X119582507Y-64299171D01*
X119655819Y-64296468D01*
X119663919Y-64295207D01*
X119730124Y-64276446D01*
X119786310Y-64244535D01*
X119831991Y-64200318D01*
X119866678Y-64144641D01*
X119889887Y-64078348D01*
X119901130Y-64002283D01*
X119899921Y-63917293D01*
X119897879Y-63897934D01*
X119771351Y-63897934D01*
X119483874Y-63897934D01*
X119489775Y-63866184D01*
X119505237Y-63816003D01*
X119530844Y-63779104D01*
X119567245Y-63754747D01*
X119595709Y-63745577D01*
X119642556Y-63742889D01*
X119685424Y-63755312D01*
X119721842Y-63781092D01*
X119749340Y-63818474D01*
X119765448Y-63865703D01*
X119765536Y-63866184D01*
X119771351Y-63897934D01*
X119897879Y-63897934D01*
X119897077Y-63890332D01*
X119880931Y-63813728D01*
X119853657Y-63748524D01*
X119816136Y-63695466D01*
X119769246Y-63655298D01*
X119713869Y-63628768D01*
X119650884Y-63616620D01*
X119581170Y-63619600D01*
G37*
X119581170Y-63619600D02*
X119578147Y-63620061D01*
X119519979Y-63635210D01*
X119469887Y-63662339D01*
X119426034Y-63700889D01*
X119396225Y-63737855D01*
X119374632Y-63779419D01*
X119360035Y-63829050D01*
X119351212Y-63890218D01*
X119348961Y-63919737D01*
X119343560Y-64008000D01*
X119771351Y-64008000D01*
X119765625Y-64039750D01*
X119749273Y-64090176D01*
X119721719Y-64129311D01*
X119685011Y-64156406D01*
X119641196Y-64170714D01*
X119592324Y-64171484D01*
X119540442Y-64157970D01*
X119499263Y-64137069D01*
X119458453Y-64111700D01*
X119411350Y-64151895D01*
X119364247Y-64192089D01*
X119391174Y-64217248D01*
X119447798Y-64258879D01*
X119512371Y-64286414D01*
X119582507Y-64299171D01*
X119655819Y-64296468D01*
X119663919Y-64295207D01*
X119730124Y-64276446D01*
X119786310Y-64244535D01*
X119831991Y-64200318D01*
X119866678Y-64144641D01*
X119889887Y-64078348D01*
X119901130Y-64002283D01*
X119899921Y-63917293D01*
X119897879Y-63897934D01*
X119771351Y-63897934D01*
X119483874Y-63897934D01*
X119489775Y-63866184D01*
X119505237Y-63816003D01*
X119530844Y-63779104D01*
X119567245Y-63754747D01*
X119595709Y-63745577D01*
X119642556Y-63742889D01*
X119685424Y-63755312D01*
X119721842Y-63781092D01*
X119749340Y-63818474D01*
X119765448Y-63865703D01*
X119765536Y-63866184D01*
X119771351Y-63897934D01*
X119897879Y-63897934D01*
X119897077Y-63890332D01*
X119880931Y-63813728D01*
X119853657Y-63748524D01*
X119816136Y-63695466D01*
X119769246Y-63655298D01*
X119713869Y-63628768D01*
X119650884Y-63616620D01*
X119581170Y-63619600D01*
G36*
X120887412Y-63616961D02*
G01*
X120824835Y-63632090D01*
X120768342Y-63660892D01*
X120720013Y-63702495D01*
X120681926Y-63756025D01*
X120670652Y-63779126D01*
X120664365Y-63795822D01*
X120659884Y-63814425D01*
X120656921Y-63838072D01*
X120655185Y-63869898D01*
X120654389Y-63913038D01*
X120654233Y-63957200D01*
X120654492Y-64011501D01*
X120655462Y-64052009D01*
X120657431Y-64081860D01*
X120660688Y-64104189D01*
X120665524Y-64122133D01*
X120670652Y-64135274D01*
X120703671Y-64193524D01*
X120746822Y-64238603D01*
X120796272Y-64269361D01*
X120851798Y-64290262D01*
X120907275Y-64298521D01*
X120969149Y-64295146D01*
X121029299Y-64279257D01*
X121083975Y-64249473D01*
X121130276Y-64208200D01*
X121165301Y-64157843D01*
X121181327Y-64119219D01*
X121189473Y-64080606D01*
X121194649Y-64030367D01*
X121196866Y-63973542D01*
X121196372Y-63934116D01*
X121064233Y-63934116D01*
X121064085Y-63983577D01*
X121060972Y-64029588D01*
X121055276Y-64063991D01*
X121036949Y-64105663D01*
X121007342Y-64137059D01*
X120969452Y-64157009D01*
X120926273Y-64164347D01*
X120880800Y-64157903D01*
X120848967Y-64144435D01*
X120829724Y-64128256D01*
X120810862Y-64103870D01*
X120804517Y-64092796D01*
X120796010Y-64073856D01*
X120790463Y-64054397D01*
X120787285Y-64030179D01*
X120785885Y-63996962D01*
X120785653Y-63957523D01*
X120786381Y-63910126D01*
X120788686Y-63875575D01*
X120793063Y-63849816D01*
X120800004Y-63828796D01*
X120801877Y-63824510D01*
X120826254Y-63788544D01*
X120859066Y-63764579D01*
X120897155Y-63752278D01*
X120937359Y-63751303D01*
X120976519Y-63761315D01*
X121011475Y-63781976D01*
X121039066Y-63812949D01*
X121055591Y-63851663D01*
X121061405Y-63887909D01*
X121064233Y-63934116D01*
X121196372Y-63934116D01*
X121196134Y-63915173D01*
X121192462Y-63860304D01*
X121185862Y-63813975D01*
X121180672Y-63792928D01*
X121157973Y-63744434D01*
X121122693Y-63698954D01*
X121079097Y-63660849D01*
X121031451Y-63634478D01*
X121022503Y-63631223D01*
X120953995Y-63616381D01*
X120887412Y-63616961D01*
G37*
X120887412Y-63616961D02*
X120824835Y-63632090D01*
X120768342Y-63660892D01*
X120720013Y-63702495D01*
X120681926Y-63756025D01*
X120670652Y-63779126D01*
X120664365Y-63795822D01*
X120659884Y-63814425D01*
X120656921Y-63838072D01*
X120655185Y-63869898D01*
X120654389Y-63913038D01*
X120654233Y-63957200D01*
X120654492Y-64011501D01*
X120655462Y-64052009D01*
X120657431Y-64081860D01*
X120660688Y-64104189D01*
X120665524Y-64122133D01*
X120670652Y-64135274D01*
X120703671Y-64193524D01*
X120746822Y-64238603D01*
X120796272Y-64269361D01*
X120851798Y-64290262D01*
X120907275Y-64298521D01*
X120969149Y-64295146D01*
X121029299Y-64279257D01*
X121083975Y-64249473D01*
X121130276Y-64208200D01*
X121165301Y-64157843D01*
X121181327Y-64119219D01*
X121189473Y-64080606D01*
X121194649Y-64030367D01*
X121196866Y-63973542D01*
X121196372Y-63934116D01*
X121064233Y-63934116D01*
X121064085Y-63983577D01*
X121060972Y-64029588D01*
X121055276Y-64063991D01*
X121036949Y-64105663D01*
X121007342Y-64137059D01*
X120969452Y-64157009D01*
X120926273Y-64164347D01*
X120880800Y-64157903D01*
X120848967Y-64144435D01*
X120829724Y-64128256D01*
X120810862Y-64103870D01*
X120804517Y-64092796D01*
X120796010Y-64073856D01*
X120790463Y-64054397D01*
X120787285Y-64030179D01*
X120785885Y-63996962D01*
X120785653Y-63957523D01*
X120786381Y-63910126D01*
X120788686Y-63875575D01*
X120793063Y-63849816D01*
X120800004Y-63828796D01*
X120801877Y-63824510D01*
X120826254Y-63788544D01*
X120859066Y-63764579D01*
X120897155Y-63752278D01*
X120937359Y-63751303D01*
X120976519Y-63761315D01*
X121011475Y-63781976D01*
X121039066Y-63812949D01*
X121055591Y-63851663D01*
X121061405Y-63887909D01*
X121064233Y-63934116D01*
X121196372Y-63934116D01*
X121196134Y-63915173D01*
X121192462Y-63860304D01*
X121185862Y-63813975D01*
X121180672Y-63792928D01*
X121157973Y-63744434D01*
X121122693Y-63698954D01*
X121079097Y-63660849D01*
X121031451Y-63634478D01*
X121022503Y-63631223D01*
X120953995Y-63616381D01*
X120887412Y-63616961D01*
G36*
X116108666Y-64690531D02*
G01*
X116054799Y-64717152D01*
X116053259Y-64718174D01*
X116049263Y-64724689D01*
X116053049Y-64735982D01*
X116065996Y-64754593D01*
X116086763Y-64779868D01*
X116107980Y-64804919D01*
X116124611Y-64824680D01*
X116133909Y-64835881D01*
X116134894Y-64837134D01*
X116143343Y-64836192D01*
X116161184Y-64829363D01*
X116167294Y-64826551D01*
X116212090Y-64813453D01*
X116256609Y-64815235D01*
X116297285Y-64830925D01*
X116330549Y-64859556D01*
X116340513Y-64873639D01*
X116345578Y-64882938D01*
X116349515Y-64893633D01*
X116352465Y-64907858D01*
X116354569Y-64927744D01*
X116355969Y-64955425D01*
X116356807Y-64993032D01*
X116357224Y-65042698D01*
X116357361Y-65106554D01*
X116357369Y-65127717D01*
X116357400Y-65354200D01*
X116492867Y-65354200D01*
X116492867Y-64685334D01*
X116357400Y-64685334D01*
X116357400Y-64754386D01*
X116323179Y-64725094D01*
X116276119Y-64695462D01*
X116222538Y-64679769D01*
X116165650Y-64678098D01*
X116108666Y-64690531D01*
G37*
X116108666Y-64690531D02*
X116054799Y-64717152D01*
X116053259Y-64718174D01*
X116049263Y-64724689D01*
X116053049Y-64735982D01*
X116065996Y-64754593D01*
X116086763Y-64779868D01*
X116107980Y-64804919D01*
X116124611Y-64824680D01*
X116133909Y-64835881D01*
X116134894Y-64837134D01*
X116143343Y-64836192D01*
X116161184Y-64829363D01*
X116167294Y-64826551D01*
X116212090Y-64813453D01*
X116256609Y-64815235D01*
X116297285Y-64830925D01*
X116330549Y-64859556D01*
X116340513Y-64873639D01*
X116345578Y-64882938D01*
X116349515Y-64893633D01*
X116352465Y-64907858D01*
X116354569Y-64927744D01*
X116355969Y-64955425D01*
X116356807Y-64993032D01*
X116357224Y-65042698D01*
X116357361Y-65106554D01*
X116357369Y-65127717D01*
X116357400Y-65354200D01*
X116492867Y-65354200D01*
X116492867Y-64685334D01*
X116357400Y-64685334D01*
X116357400Y-64754386D01*
X116323179Y-64725094D01*
X116276119Y-64695462D01*
X116222538Y-64679769D01*
X116165650Y-64678098D01*
X116108666Y-64690531D01*
G36*
X117940355Y-64913934D02*
G01*
X117924100Y-64973181D01*
X117909091Y-65026721D01*
X117895936Y-65072481D01*
X117885241Y-65108391D01*
X117877613Y-65132377D01*
X117873657Y-65142369D01*
X117873428Y-65142533D01*
X117869672Y-65134807D01*
X117861457Y-65112981D01*
X117849486Y-65079082D01*
X117834458Y-65035138D01*
X117817076Y-64983176D01*
X117798041Y-64925226D01*
X117794369Y-64913934D01*
X117720160Y-64685334D01*
X117620689Y-64685334D01*
X117555839Y-64886417D01*
X117537330Y-64943787D01*
X117519960Y-64997584D01*
X117504594Y-65045136D01*
X117492095Y-65083771D01*
X117483327Y-65110817D01*
X117479889Y-65121367D01*
X117468790Y-65155233D01*
X117455230Y-65108667D01*
X117448989Y-65086714D01*
X117439175Y-65051558D01*
X117426657Y-65006337D01*
X117412300Y-64954187D01*
X117396975Y-64898247D01*
X117391214Y-64877151D01*
X117376558Y-64823857D01*
X117363240Y-64776239D01*
X117351940Y-64736664D01*
X117343338Y-64707495D01*
X117338114Y-64691097D01*
X117336964Y-64688408D01*
X117327312Y-64686928D01*
X117305040Y-64686362D01*
X117274438Y-64686788D01*
X117265084Y-64687091D01*
X117196998Y-64689567D01*
X117289449Y-64977434D01*
X117311477Y-65046107D01*
X117332385Y-65111452D01*
X117351474Y-65171273D01*
X117368045Y-65223374D01*
X117381401Y-65265558D01*
X117390842Y-65295629D01*
X117395184Y-65309750D01*
X117408468Y-65354200D01*
X117530034Y-65354120D01*
X117592881Y-65140377D01*
X117610119Y-65081954D01*
X117626157Y-65027989D01*
X117640268Y-64980894D01*
X117651728Y-64943077D01*
X117659810Y-64916951D01*
X117663581Y-64905467D01*
X117666529Y-64901402D01*
X117670598Y-64903982D01*
X117676316Y-64914641D01*
X117684209Y-64934814D01*
X117694806Y-64965934D01*
X117708633Y-65009437D01*
X117726220Y-65066755D01*
X117741429Y-65117133D01*
X117811424Y-65349967D01*
X117871334Y-65352445D01*
X117931243Y-65354923D01*
X117991680Y-65166178D01*
X118027422Y-65054530D01*
X118058354Y-64957855D01*
X118084415Y-64876340D01*
X118105546Y-64810173D01*
X118121687Y-64759542D01*
X118132778Y-64724634D01*
X118138758Y-64705637D01*
X118139146Y-64704384D01*
X118141278Y-64695129D01*
X118138625Y-64689494D01*
X118128102Y-64686582D01*
X118106627Y-64685494D01*
X118073720Y-64685334D01*
X118002432Y-64685334D01*
X117940355Y-64913934D01*
G37*
X117940355Y-64913934D02*
X117924100Y-64973181D01*
X117909091Y-65026721D01*
X117895936Y-65072481D01*
X117885241Y-65108391D01*
X117877613Y-65132377D01*
X117873657Y-65142369D01*
X117873428Y-65142533D01*
X117869672Y-65134807D01*
X117861457Y-65112981D01*
X117849486Y-65079082D01*
X117834458Y-65035138D01*
X117817076Y-64983176D01*
X117798041Y-64925226D01*
X117794369Y-64913934D01*
X117720160Y-64685334D01*
X117620689Y-64685334D01*
X117555839Y-64886417D01*
X117537330Y-64943787D01*
X117519960Y-64997584D01*
X117504594Y-65045136D01*
X117492095Y-65083771D01*
X117483327Y-65110817D01*
X117479889Y-65121367D01*
X117468790Y-65155233D01*
X117455230Y-65108667D01*
X117448989Y-65086714D01*
X117439175Y-65051558D01*
X117426657Y-65006337D01*
X117412300Y-64954187D01*
X117396975Y-64898247D01*
X117391214Y-64877151D01*
X117376558Y-64823857D01*
X117363240Y-64776239D01*
X117351940Y-64736664D01*
X117343338Y-64707495D01*
X117338114Y-64691097D01*
X117336964Y-64688408D01*
X117327312Y-64686928D01*
X117305040Y-64686362D01*
X117274438Y-64686788D01*
X117265084Y-64687091D01*
X117196998Y-64689567D01*
X117289449Y-64977434D01*
X117311477Y-65046107D01*
X117332385Y-65111452D01*
X117351474Y-65171273D01*
X117368045Y-65223374D01*
X117381401Y-65265558D01*
X117390842Y-65295629D01*
X117395184Y-65309750D01*
X117408468Y-65354200D01*
X117530034Y-65354120D01*
X117592881Y-65140377D01*
X117610119Y-65081954D01*
X117626157Y-65027989D01*
X117640268Y-64980894D01*
X117651728Y-64943077D01*
X117659810Y-64916951D01*
X117663581Y-64905467D01*
X117666529Y-64901402D01*
X117670598Y-64903982D01*
X117676316Y-64914641D01*
X117684209Y-64934814D01*
X117694806Y-64965934D01*
X117708633Y-65009437D01*
X117726220Y-65066755D01*
X117741429Y-65117133D01*
X117811424Y-65349967D01*
X117871334Y-65352445D01*
X117931243Y-65354923D01*
X117991680Y-65166178D01*
X118027422Y-65054530D01*
X118058354Y-64957855D01*
X118084415Y-64876340D01*
X118105546Y-64810173D01*
X118121687Y-64759542D01*
X118132778Y-64724634D01*
X118138758Y-64705637D01*
X118139146Y-64704384D01*
X118141278Y-64695129D01*
X118138625Y-64689494D01*
X118128102Y-64686582D01*
X118106627Y-64685494D01*
X118073720Y-64685334D01*
X118002432Y-64685334D01*
X117940355Y-64913934D01*
G36*
X118840744Y-64685691D02*
G01*
X118787127Y-64707774D01*
X118771084Y-64717884D01*
X118767030Y-64724447D01*
X118770430Y-64735719D01*
X118782635Y-64754305D01*
X118804312Y-64781969D01*
X118825944Y-64807356D01*
X118844327Y-64826615D01*
X118856439Y-64836664D01*
X118858662Y-64837433D01*
X118872194Y-64833301D01*
X118888933Y-64825034D01*
X118922397Y-64814185D01*
X118961698Y-64813476D01*
X118999401Y-64822528D01*
X119016798Y-64831552D01*
X119033253Y-64843310D01*
X119046292Y-64855497D01*
X119056311Y-64870151D01*
X119063706Y-64889311D01*
X119068873Y-64915014D01*
X119072209Y-64949298D01*
X119074108Y-64994202D01*
X119074969Y-65051762D01*
X119075185Y-65124017D01*
X119075187Y-65131950D01*
X119075200Y-65354200D01*
X119210667Y-65354200D01*
X119210667Y-64685334D01*
X119075200Y-64685334D01*
X119075200Y-64756235D01*
X119051917Y-64733983D01*
X119006581Y-64701815D01*
X118953953Y-64682911D01*
X118897514Y-64677470D01*
X118840744Y-64685691D01*
G37*
X118840744Y-64685691D02*
X118787127Y-64707774D01*
X118771084Y-64717884D01*
X118767030Y-64724447D01*
X118770430Y-64735719D01*
X118782635Y-64754305D01*
X118804312Y-64781969D01*
X118825944Y-64807356D01*
X118844327Y-64826615D01*
X118856439Y-64836664D01*
X118858662Y-64837433D01*
X118872194Y-64833301D01*
X118888933Y-64825034D01*
X118922397Y-64814185D01*
X118961698Y-64813476D01*
X118999401Y-64822528D01*
X119016798Y-64831552D01*
X119033253Y-64843310D01*
X119046292Y-64855497D01*
X119056311Y-64870151D01*
X119063706Y-64889311D01*
X119068873Y-64915014D01*
X119072209Y-64949298D01*
X119074108Y-64994202D01*
X119074969Y-65051762D01*
X119075185Y-65124017D01*
X119075187Y-65131950D01*
X119075200Y-65354200D01*
X119210667Y-65354200D01*
X119210667Y-64685334D01*
X119075200Y-64685334D01*
X119075200Y-64756235D01*
X119051917Y-64733983D01*
X119006581Y-64701815D01*
X118953953Y-64682911D01*
X118897514Y-64677470D01*
X118840744Y-64685691D01*
G36*
X120160818Y-63624944D02*
G01*
X120107806Y-63646151D01*
X120063177Y-63679297D01*
X120029293Y-63722583D01*
X120008513Y-63774210D01*
X120007313Y-63779453D01*
X120003458Y-63807697D01*
X120000677Y-63848705D01*
X119998972Y-63898340D01*
X119998342Y-63952466D01*
X119998787Y-64006949D01*
X120000307Y-64057652D01*
X120002903Y-64100439D01*
X120006573Y-64131175D01*
X120007313Y-64134947D01*
X120026347Y-64186580D01*
X120057798Y-64229602D01*
X120098972Y-64263046D01*
X120147175Y-64285943D01*
X120199713Y-64297325D01*
X120253893Y-64296223D01*
X120307020Y-64281669D01*
X120349434Y-64257930D01*
X120369233Y-64244026D01*
X120384192Y-64234125D01*
X120385417Y-64233384D01*
X120388476Y-64234827D01*
X120390922Y-64244101D01*
X120392812Y-64262623D01*
X120394204Y-64291809D01*
X120395157Y-64333078D01*
X120395729Y-64387847D01*
X120395978Y-64457533D01*
X120396000Y-64491685D01*
X120396000Y-64756235D01*
X120372717Y-64733983D01*
X120326608Y-64700691D01*
X120275142Y-64681699D01*
X120221056Y-64676433D01*
X120167089Y-64684323D01*
X120115980Y-64704794D01*
X120070466Y-64737275D01*
X120033287Y-64781192D01*
X120018279Y-64808100D01*
X120012554Y-64820651D01*
X120008037Y-64832772D01*
X120004584Y-64846566D01*
X120002051Y-64864135D01*
X120000295Y-64887582D01*
X119999171Y-64919010D01*
X119998536Y-64960520D01*
X119998246Y-65014216D01*
X119998157Y-65082201D01*
X119998150Y-65102317D01*
X119998067Y-65354200D01*
X120133533Y-65354200D01*
X120133547Y-65131950D01*
X120133667Y-65063319D01*
X120134103Y-65009468D01*
X120134981Y-64968248D01*
X120136428Y-64937506D01*
X120138571Y-64915092D01*
X120141536Y-64898854D01*
X120145449Y-64886641D01*
X120148363Y-64880236D01*
X120174119Y-64845666D01*
X120208282Y-64823069D01*
X120247319Y-64812453D01*
X120287697Y-64813825D01*
X120325884Y-64827192D01*
X120358347Y-64852562D01*
X120376950Y-64879744D01*
X120382762Y-64891964D01*
X120387254Y-64904254D01*
X120390597Y-64918890D01*
X120392959Y-64938151D01*
X120394511Y-64964314D01*
X120395420Y-64999657D01*
X120395858Y-65046457D01*
X120395993Y-65106993D01*
X120396000Y-65135861D01*
X120396000Y-65354200D01*
X120531467Y-65354200D01*
X120531467Y-63937053D01*
X120394545Y-63937053D01*
X120393702Y-64009134D01*
X120384894Y-64066737D01*
X120367871Y-64110457D01*
X120342387Y-64140889D01*
X120308192Y-64158627D01*
X120301303Y-64160468D01*
X120257161Y-64163593D01*
X120211218Y-64154735D01*
X120190018Y-64146007D01*
X120168570Y-64130377D01*
X120152868Y-64106926D01*
X120142284Y-64073535D01*
X120136187Y-64028085D01*
X120133948Y-63968458D01*
X120133905Y-63957200D01*
X120136086Y-63891083D01*
X120143303Y-63839864D01*
X120156568Y-63801994D01*
X120176893Y-63775924D01*
X120205291Y-63760105D01*
X120242771Y-63752985D01*
X120267769Y-63752218D01*
X120309400Y-63757335D01*
X120341726Y-63772683D01*
X120365606Y-63799517D01*
X120381900Y-63839089D01*
X120391468Y-63892653D01*
X120394545Y-63937053D01*
X120531467Y-63937053D01*
X120531467Y-63618534D01*
X120396000Y-63618534D01*
X120396000Y-63687129D01*
X120368028Y-63665793D01*
X120319563Y-63636474D01*
X120267251Y-63621002D01*
X120219853Y-63617475D01*
X120160818Y-63624944D01*
G37*
X120160818Y-63624944D02*
X120107806Y-63646151D01*
X120063177Y-63679297D01*
X120029293Y-63722583D01*
X120008513Y-63774210D01*
X120007313Y-63779453D01*
X120003458Y-63807697D01*
X120000677Y-63848705D01*
X119998972Y-63898340D01*
X119998342Y-63952466D01*
X119998787Y-64006949D01*
X120000307Y-64057652D01*
X120002903Y-64100439D01*
X120006573Y-64131175D01*
X120007313Y-64134947D01*
X120026347Y-64186580D01*
X120057798Y-64229602D01*
X120098972Y-64263046D01*
X120147175Y-64285943D01*
X120199713Y-64297325D01*
X120253893Y-64296223D01*
X120307020Y-64281669D01*
X120349434Y-64257930D01*
X120369233Y-64244026D01*
X120384192Y-64234125D01*
X120385417Y-64233384D01*
X120388476Y-64234827D01*
X120390922Y-64244101D01*
X120392812Y-64262623D01*
X120394204Y-64291809D01*
X120395157Y-64333078D01*
X120395729Y-64387847D01*
X120395978Y-64457533D01*
X120396000Y-64491685D01*
X120396000Y-64756235D01*
X120372717Y-64733983D01*
X120326608Y-64700691D01*
X120275142Y-64681699D01*
X120221056Y-64676433D01*
X120167089Y-64684323D01*
X120115980Y-64704794D01*
X120070466Y-64737275D01*
X120033287Y-64781192D01*
X120018279Y-64808100D01*
X120012554Y-64820651D01*
X120008037Y-64832772D01*
X120004584Y-64846566D01*
X120002051Y-64864135D01*
X120000295Y-64887582D01*
X119999171Y-64919010D01*
X119998536Y-64960520D01*
X119998246Y-65014216D01*
X119998157Y-65082201D01*
X119998150Y-65102317D01*
X119998067Y-65354200D01*
X120133533Y-65354200D01*
X120133547Y-65131950D01*
X120133667Y-65063319D01*
X120134103Y-65009468D01*
X120134981Y-64968248D01*
X120136428Y-64937506D01*
X120138571Y-64915092D01*
X120141536Y-64898854D01*
X120145449Y-64886641D01*
X120148363Y-64880236D01*
X120174119Y-64845666D01*
X120208282Y-64823069D01*
X120247319Y-64812453D01*
X120287697Y-64813825D01*
X120325884Y-64827192D01*
X120358347Y-64852562D01*
X120376950Y-64879744D01*
X120382762Y-64891964D01*
X120387254Y-64904254D01*
X120390597Y-64918890D01*
X120392959Y-64938151D01*
X120394511Y-64964314D01*
X120395420Y-64999657D01*
X120395858Y-65046457D01*
X120395993Y-65106993D01*
X120396000Y-65135861D01*
X120396000Y-65354200D01*
X120531467Y-65354200D01*
X120531467Y-63937053D01*
X120394545Y-63937053D01*
X120393702Y-64009134D01*
X120384894Y-64066737D01*
X120367871Y-64110457D01*
X120342387Y-64140889D01*
X120308192Y-64158627D01*
X120301303Y-64160468D01*
X120257161Y-64163593D01*
X120211218Y-64154735D01*
X120190018Y-64146007D01*
X120168570Y-64130377D01*
X120152868Y-64106926D01*
X120142284Y-64073535D01*
X120136187Y-64028085D01*
X120133948Y-63968458D01*
X120133905Y-63957200D01*
X120136086Y-63891083D01*
X120143303Y-63839864D01*
X120156568Y-63801994D01*
X120176893Y-63775924D01*
X120205291Y-63760105D01*
X120242771Y-63752985D01*
X120267769Y-63752218D01*
X120309400Y-63757335D01*
X120341726Y-63772683D01*
X120365606Y-63799517D01*
X120381900Y-63839089D01*
X120391468Y-63892653D01*
X120394545Y-63937053D01*
X120531467Y-63937053D01*
X120531467Y-63618534D01*
X120396000Y-63618534D01*
X120396000Y-63687129D01*
X120368028Y-63665793D01*
X120319563Y-63636474D01*
X120267251Y-63621002D01*
X120219853Y-63617475D01*
X120160818Y-63624944D01*
G36*
X115716504Y-64681500D02*
G01*
X115656807Y-64698222D01*
X115601794Y-64727736D01*
X115566107Y-64757524D01*
X115530201Y-64802912D01*
X115505160Y-64857191D01*
X115490401Y-64922133D01*
X115485342Y-64999510D01*
X115485333Y-65003250D01*
X115485333Y-65066334D01*
X115900200Y-65066334D01*
X115900200Y-65096931D01*
X115893166Y-65133802D01*
X115874650Y-65170914D01*
X115848535Y-65201389D01*
X115836005Y-65210696D01*
X115790866Y-65229067D01*
X115740489Y-65233328D01*
X115688596Y-65223737D01*
X115638912Y-65200551D01*
X115632937Y-65196638D01*
X115614436Y-65185256D01*
X115599341Y-65180980D01*
X115583847Y-65184904D01*
X115564149Y-65198124D01*
X115536443Y-65221731D01*
X115532019Y-65225652D01*
X115500383Y-65253737D01*
X115519860Y-65274470D01*
X115561363Y-65307896D01*
X115614200Y-65334320D01*
X115673786Y-65352516D01*
X115735539Y-65361260D01*
X115794874Y-65359328D01*
X115819767Y-65354599D01*
X115883160Y-65331107D01*
X115937866Y-65293837D01*
X115942212Y-65289984D01*
X115980296Y-65247235D01*
X116007908Y-65196386D01*
X116025710Y-65135518D01*
X116034362Y-65062713D01*
X116035466Y-65019767D01*
X116031030Y-64938815D01*
X116029969Y-64933540D01*
X115900200Y-64933540D01*
X115900200Y-64956267D01*
X115618683Y-64956267D01*
X115624151Y-64928928D01*
X115637433Y-64888102D01*
X115658517Y-64851374D01*
X115682413Y-64826239D01*
X115715564Y-64810698D01*
X115756284Y-64804849D01*
X115798109Y-64808904D01*
X115831680Y-64821376D01*
X115862279Y-64846503D01*
X115885919Y-64880898D01*
X115898857Y-64918435D01*
X115900200Y-64933540D01*
X116029969Y-64933540D01*
X116017259Y-64870385D01*
X115993454Y-64812431D01*
X115958917Y-64762912D01*
X115941542Y-64744619D01*
X115893405Y-64709130D01*
X115837833Y-64686850D01*
X115777856Y-64677675D01*
X115716504Y-64681500D01*
G37*
X115716504Y-64681500D02*
X115656807Y-64698222D01*
X115601794Y-64727736D01*
X115566107Y-64757524D01*
X115530201Y-64802912D01*
X115505160Y-64857191D01*
X115490401Y-64922133D01*
X115485342Y-64999510D01*
X115485333Y-65003250D01*
X115485333Y-65066334D01*
X115900200Y-65066334D01*
X115900200Y-65096931D01*
X115893166Y-65133802D01*
X115874650Y-65170914D01*
X115848535Y-65201389D01*
X115836005Y-65210696D01*
X115790866Y-65229067D01*
X115740489Y-65233328D01*
X115688596Y-65223737D01*
X115638912Y-65200551D01*
X115632937Y-65196638D01*
X115614436Y-65185256D01*
X115599341Y-65180980D01*
X115583847Y-65184904D01*
X115564149Y-65198124D01*
X115536443Y-65221731D01*
X115532019Y-65225652D01*
X115500383Y-65253737D01*
X115519860Y-65274470D01*
X115561363Y-65307896D01*
X115614200Y-65334320D01*
X115673786Y-65352516D01*
X115735539Y-65361260D01*
X115794874Y-65359328D01*
X115819767Y-65354599D01*
X115883160Y-65331107D01*
X115937866Y-65293837D01*
X115942212Y-65289984D01*
X115980296Y-65247235D01*
X116007908Y-65196386D01*
X116025710Y-65135518D01*
X116034362Y-65062713D01*
X116035466Y-65019767D01*
X116031030Y-64938815D01*
X116029969Y-64933540D01*
X115900200Y-64933540D01*
X115900200Y-64956267D01*
X115618683Y-64956267D01*
X115624151Y-64928928D01*
X115637433Y-64888102D01*
X115658517Y-64851374D01*
X115682413Y-64826239D01*
X115715564Y-64810698D01*
X115756284Y-64804849D01*
X115798109Y-64808904D01*
X115831680Y-64821376D01*
X115862279Y-64846503D01*
X115885919Y-64880898D01*
X115898857Y-64918435D01*
X115900200Y-64933540D01*
X116029969Y-64933540D01*
X116017259Y-64870385D01*
X115993454Y-64812431D01*
X115958917Y-64762912D01*
X115941542Y-64744619D01*
X115893405Y-64709130D01*
X115837833Y-64686850D01*
X115777856Y-64677675D01*
X115716504Y-64681500D01*
G36*
X116868484Y-64679878D02*
G01*
X116814485Y-64687646D01*
X116770016Y-64700284D01*
X116765549Y-64702139D01*
X116720837Y-64728990D01*
X116684092Y-64765592D01*
X116659261Y-64807749D01*
X116655093Y-64819602D01*
X116651659Y-64840694D01*
X116648954Y-64878503D01*
X116646983Y-64932826D01*
X116645754Y-65003462D01*
X116645274Y-65090210D01*
X116645267Y-65103299D01*
X116645267Y-65354200D01*
X116780733Y-65354200D01*
X116780733Y-65296606D01*
X116805886Y-65320103D01*
X116840746Y-65342390D01*
X116886389Y-65356573D01*
X116938470Y-65362152D01*
X116992644Y-65358629D01*
X117040385Y-65346994D01*
X117096386Y-65320421D01*
X117138452Y-65284322D01*
X117166436Y-65238896D01*
X117180188Y-65184346D01*
X117181693Y-65155631D01*
X117181113Y-65151258D01*
X117055336Y-65151258D01*
X117049451Y-65176955D01*
X117047677Y-65181356D01*
X117039226Y-65200145D01*
X117033632Y-65209980D01*
X117033049Y-65210394D01*
X117024313Y-65213164D01*
X117005400Y-65219969D01*
X116996633Y-65223231D01*
X116967895Y-65229908D01*
X116930817Y-65233006D01*
X116891005Y-65232680D01*
X116854067Y-65229085D01*
X116825611Y-65222377D01*
X116816868Y-65218260D01*
X116796742Y-65196551D01*
X116784793Y-65161419D01*
X116780736Y-65112020D01*
X116780733Y-65110494D01*
X116780733Y-65064047D01*
X116884450Y-65068073D01*
X116940897Y-65071399D01*
X116982868Y-65076930D01*
X117012766Y-65085505D01*
X117032993Y-65097962D01*
X117045950Y-65115140D01*
X117050560Y-65126066D01*
X117055336Y-65151258D01*
X117181113Y-65151258D01*
X117174072Y-65098184D01*
X117151438Y-65048470D01*
X117122292Y-65013866D01*
X117099958Y-64995190D01*
X117075871Y-64981309D01*
X117046952Y-64971433D01*
X117010126Y-64964768D01*
X116962315Y-64960521D01*
X116905617Y-64958057D01*
X116780733Y-64954171D01*
X116780733Y-64908096D01*
X116782381Y-64878721D01*
X116786592Y-64854171D01*
X116789882Y-64844927D01*
X116808756Y-64826103D01*
X116839500Y-64812882D01*
X116877978Y-64805342D01*
X116920055Y-64803555D01*
X116961596Y-64807598D01*
X116998465Y-64817545D01*
X117026527Y-64833472D01*
X117033527Y-64840502D01*
X117040656Y-64846622D01*
X117049675Y-64846410D01*
X117063976Y-64838466D01*
X117086947Y-64821392D01*
X117094910Y-64815165D01*
X117118920Y-64795487D01*
X117136603Y-64779442D01*
X117144633Y-64770079D01*
X117144800Y-64769411D01*
X117137781Y-64756965D01*
X117119433Y-64740242D01*
X117093817Y-64722022D01*
X117064996Y-64705086D01*
X117037032Y-64692215D01*
X117027139Y-64688869D01*
X116980863Y-64680183D01*
X116925960Y-64677288D01*
X116868484Y-64679878D01*
G37*
X116868484Y-64679878D02*
X116814485Y-64687646D01*
X116770016Y-64700284D01*
X116765549Y-64702139D01*
X116720837Y-64728990D01*
X116684092Y-64765592D01*
X116659261Y-64807749D01*
X116655093Y-64819602D01*
X116651659Y-64840694D01*
X116648954Y-64878503D01*
X116646983Y-64932826D01*
X116645754Y-65003462D01*
X116645274Y-65090210D01*
X116645267Y-65103299D01*
X116645267Y-65354200D01*
X116780733Y-65354200D01*
X116780733Y-65296606D01*
X116805886Y-65320103D01*
X116840746Y-65342390D01*
X116886389Y-65356573D01*
X116938470Y-65362152D01*
X116992644Y-65358629D01*
X117040385Y-65346994D01*
X117096386Y-65320421D01*
X117138452Y-65284322D01*
X117166436Y-65238896D01*
X117180188Y-65184346D01*
X117181693Y-65155631D01*
X117181113Y-65151258D01*
X117055336Y-65151258D01*
X117049451Y-65176955D01*
X117047677Y-65181356D01*
X117039226Y-65200145D01*
X117033632Y-65209980D01*
X117033049Y-65210394D01*
X117024313Y-65213164D01*
X117005400Y-65219969D01*
X116996633Y-65223231D01*
X116967895Y-65229908D01*
X116930817Y-65233006D01*
X116891005Y-65232680D01*
X116854067Y-65229085D01*
X116825611Y-65222377D01*
X116816868Y-65218260D01*
X116796742Y-65196551D01*
X116784793Y-65161419D01*
X116780736Y-65112020D01*
X116780733Y-65110494D01*
X116780733Y-65064047D01*
X116884450Y-65068073D01*
X116940897Y-65071399D01*
X116982868Y-65076930D01*
X117012766Y-65085505D01*
X117032993Y-65097962D01*
X117045950Y-65115140D01*
X117050560Y-65126066D01*
X117055336Y-65151258D01*
X117181113Y-65151258D01*
X117174072Y-65098184D01*
X117151438Y-65048470D01*
X117122292Y-65013866D01*
X117099958Y-64995190D01*
X117075871Y-64981309D01*
X117046952Y-64971433D01*
X117010126Y-64964768D01*
X116962315Y-64960521D01*
X116905617Y-64958057D01*
X116780733Y-64954171D01*
X116780733Y-64908096D01*
X116782381Y-64878721D01*
X116786592Y-64854171D01*
X116789882Y-64844927D01*
X116808756Y-64826103D01*
X116839500Y-64812882D01*
X116877978Y-64805342D01*
X116920055Y-64803555D01*
X116961596Y-64807598D01*
X116998465Y-64817545D01*
X117026527Y-64833472D01*
X117033527Y-64840502D01*
X117040656Y-64846622D01*
X117049675Y-64846410D01*
X117063976Y-64838466D01*
X117086947Y-64821392D01*
X117094910Y-64815165D01*
X117118920Y-64795487D01*
X117136603Y-64779442D01*
X117144633Y-64770079D01*
X117144800Y-64769411D01*
X117137781Y-64756965D01*
X117119433Y-64740242D01*
X117093817Y-64722022D01*
X117064996Y-64705086D01*
X117037032Y-64692215D01*
X117027139Y-64688869D01*
X116980863Y-64680183D01*
X116925960Y-64677288D01*
X116868484Y-64679878D01*
G36*
X118220067Y-65354200D02*
G01*
X118355533Y-65354200D01*
X118355533Y-65285669D01*
X118388230Y-65311944D01*
X118439825Y-65342955D01*
X118497322Y-65358651D01*
X118558708Y-65358690D01*
X118604114Y-65348850D01*
X118643225Y-65330090D01*
X118681247Y-65300301D01*
X118713434Y-65264136D01*
X118735034Y-65226247D01*
X118738055Y-65217615D01*
X118742807Y-65192549D01*
X118746357Y-65155050D01*
X118748725Y-65108466D01*
X118749935Y-65056147D01*
X118749983Y-65019767D01*
X118613767Y-65019767D01*
X118613491Y-65068459D01*
X118612402Y-65103572D01*
X118610112Y-65128455D01*
X118606232Y-65146455D01*
X118600372Y-65160923D01*
X118596545Y-65167933D01*
X118569131Y-65199117D01*
X118531317Y-65219648D01*
X118487466Y-65227172D01*
X118486767Y-65227174D01*
X118455916Y-65223195D01*
X118426167Y-65213502D01*
X118423848Y-65212370D01*
X118400477Y-65197238D01*
X118383280Y-65177402D01*
X118371438Y-65150338D01*
X118364128Y-65113523D01*
X118360528Y-65064432D01*
X118359767Y-65015534D01*
X118360649Y-64958908D01*
X118363885Y-64916285D01*
X118370359Y-64884798D01*
X118380956Y-64861580D01*
X118396559Y-64843764D01*
X118417328Y-64828924D01*
X118456563Y-64813869D01*
X118498879Y-64812149D01*
X118539844Y-64822678D01*
X118575030Y-64844369D01*
X118598539Y-64873342D01*
X118604874Y-64887750D01*
X118609228Y-64905882D01*
X118611937Y-64930968D01*
X118613338Y-64966242D01*
X118613765Y-65014933D01*
X118613767Y-65019767D01*
X118749983Y-65019767D01*
X118750008Y-65001439D01*
X118748965Y-64947692D01*
X118746828Y-64898255D01*
X118743618Y-64856475D01*
X118739359Y-64825700D01*
X118735425Y-64811718D01*
X118703625Y-64760212D01*
X118661855Y-64720580D01*
X118612751Y-64693420D01*
X118558946Y-64679332D01*
X118503074Y-64678917D01*
X118447771Y-64692774D01*
X118395670Y-64721503D01*
X118382987Y-64731472D01*
X118355533Y-64754572D01*
X118355533Y-64414400D01*
X118220067Y-64414400D01*
X118220067Y-65354200D01*
G37*
X118220067Y-65354200D02*
X118355533Y-65354200D01*
X118355533Y-65285669D01*
X118388230Y-65311944D01*
X118439825Y-65342955D01*
X118497322Y-65358651D01*
X118558708Y-65358690D01*
X118604114Y-65348850D01*
X118643225Y-65330090D01*
X118681247Y-65300301D01*
X118713434Y-65264136D01*
X118735034Y-65226247D01*
X118738055Y-65217615D01*
X118742807Y-65192549D01*
X118746357Y-65155050D01*
X118748725Y-65108466D01*
X118749935Y-65056147D01*
X118749983Y-65019767D01*
X118613767Y-65019767D01*
X118613491Y-65068459D01*
X118612402Y-65103572D01*
X118610112Y-65128455D01*
X118606232Y-65146455D01*
X118600372Y-65160923D01*
X118596545Y-65167933D01*
X118569131Y-65199117D01*
X118531317Y-65219648D01*
X118487466Y-65227172D01*
X118486767Y-65227174D01*
X118455916Y-65223195D01*
X118426167Y-65213502D01*
X118423848Y-65212370D01*
X118400477Y-65197238D01*
X118383280Y-65177402D01*
X118371438Y-65150338D01*
X118364128Y-65113523D01*
X118360528Y-65064432D01*
X118359767Y-65015534D01*
X118360649Y-64958908D01*
X118363885Y-64916285D01*
X118370359Y-64884798D01*
X118380956Y-64861580D01*
X118396559Y-64843764D01*
X118417328Y-64828924D01*
X118456563Y-64813869D01*
X118498879Y-64812149D01*
X118539844Y-64822678D01*
X118575030Y-64844369D01*
X118598539Y-64873342D01*
X118604874Y-64887750D01*
X118609228Y-64905882D01*
X118611937Y-64930968D01*
X118613338Y-64966242D01*
X118613765Y-65014933D01*
X118613767Y-65019767D01*
X118749983Y-65019767D01*
X118750008Y-65001439D01*
X118748965Y-64947692D01*
X118746828Y-64898255D01*
X118743618Y-64856475D01*
X118739359Y-64825700D01*
X118735425Y-64811718D01*
X118703625Y-64760212D01*
X118661855Y-64720580D01*
X118612751Y-64693420D01*
X118558946Y-64679332D01*
X118503074Y-64678917D01*
X118447771Y-64692774D01*
X118395670Y-64721503D01*
X118382987Y-64731472D01*
X118355533Y-64754572D01*
X118355533Y-64414400D01*
X118220067Y-64414400D01*
X118220067Y-65354200D01*
G36*
X119575105Y-64680220D02*
G01*
X119507663Y-64693122D01*
X119452628Y-64717203D01*
X119410171Y-64752393D01*
X119384237Y-64790713D01*
X119363067Y-64832592D01*
X119363067Y-65354200D01*
X119498534Y-65354200D01*
X119498534Y-65301895D01*
X119524196Y-65323489D01*
X119562129Y-65345556D01*
X119610407Y-65358778D01*
X119664681Y-65362725D01*
X119720601Y-65356965D01*
X119758903Y-65346751D01*
X119813275Y-65320377D01*
X119854282Y-65283659D01*
X119881607Y-65237038D01*
X119894934Y-65180956D01*
X119896281Y-65154911D01*
X119895783Y-65151000D01*
X119769467Y-65151000D01*
X119761655Y-65183553D01*
X119739646Y-65209299D01*
X119705584Y-65225880D01*
X119700170Y-65227290D01*
X119658498Y-65233316D01*
X119612095Y-65234183D01*
X119569679Y-65229918D01*
X119555933Y-65226824D01*
X119528563Y-65215389D01*
X119511032Y-65197264D01*
X119501607Y-65169337D01*
X119498555Y-65128494D01*
X119498534Y-65123716D01*
X119498534Y-65066334D01*
X119576850Y-65066702D01*
X119642488Y-65069012D01*
X119692935Y-65075635D01*
X119729517Y-65087151D01*
X119753558Y-65104139D01*
X119766386Y-65127182D01*
X119769467Y-65151000D01*
X119895783Y-65151000D01*
X119888970Y-65097559D01*
X119867283Y-65048519D01*
X119832250Y-65009078D01*
X119784903Y-64980527D01*
X119746823Y-64968136D01*
X119717727Y-64963361D01*
X119677570Y-64959514D01*
X119632219Y-64957055D01*
X119597630Y-64956399D01*
X119497760Y-64956267D01*
X119500263Y-64899987D01*
X119504320Y-64862792D01*
X119514334Y-64836879D01*
X119532883Y-64820137D01*
X119562543Y-64810453D01*
X119605891Y-64805718D01*
X119615948Y-64805201D01*
X119666748Y-64805899D01*
X119707041Y-64814097D01*
X119742071Y-64831080D01*
X119753352Y-64838818D01*
X119763048Y-64842337D01*
X119776232Y-64838572D01*
X119796379Y-64826036D01*
X119814735Y-64812571D01*
X119838342Y-64793979D01*
X119855441Y-64779049D01*
X119862565Y-64770821D01*
X119862600Y-64770567D01*
X119855745Y-64758296D01*
X119837891Y-64741467D01*
X119813102Y-64723254D01*
X119785443Y-64706834D01*
X119773700Y-64701124D01*
X119739182Y-64689147D01*
X119697362Y-64681798D01*
X119654785Y-64678570D01*
X119575105Y-64680220D01*
G37*
X119575105Y-64680220D02*
X119507663Y-64693122D01*
X119452628Y-64717203D01*
X119410171Y-64752393D01*
X119384237Y-64790713D01*
X119363067Y-64832592D01*
X119363067Y-65354200D01*
X119498534Y-65354200D01*
X119498534Y-65301895D01*
X119524196Y-65323489D01*
X119562129Y-65345556D01*
X119610407Y-65358778D01*
X119664681Y-65362725D01*
X119720601Y-65356965D01*
X119758903Y-65346751D01*
X119813275Y-65320377D01*
X119854282Y-65283659D01*
X119881607Y-65237038D01*
X119894934Y-65180956D01*
X119896281Y-65154911D01*
X119895783Y-65151000D01*
X119769467Y-65151000D01*
X119761655Y-65183553D01*
X119739646Y-65209299D01*
X119705584Y-65225880D01*
X119700170Y-65227290D01*
X119658498Y-65233316D01*
X119612095Y-65234183D01*
X119569679Y-65229918D01*
X119555933Y-65226824D01*
X119528563Y-65215389D01*
X119511032Y-65197264D01*
X119501607Y-65169337D01*
X119498555Y-65128494D01*
X119498534Y-65123716D01*
X119498534Y-65066334D01*
X119576850Y-65066702D01*
X119642488Y-65069012D01*
X119692935Y-65075635D01*
X119729517Y-65087151D01*
X119753558Y-65104139D01*
X119766386Y-65127182D01*
X119769467Y-65151000D01*
X119895783Y-65151000D01*
X119888970Y-65097559D01*
X119867283Y-65048519D01*
X119832250Y-65009078D01*
X119784903Y-64980527D01*
X119746823Y-64968136D01*
X119717727Y-64963361D01*
X119677570Y-64959514D01*
X119632219Y-64957055D01*
X119597630Y-64956399D01*
X119497760Y-64956267D01*
X119500263Y-64899987D01*
X119504320Y-64862792D01*
X119514334Y-64836879D01*
X119532883Y-64820137D01*
X119562543Y-64810453D01*
X119605891Y-64805718D01*
X119615948Y-64805201D01*
X119666748Y-64805899D01*
X119707041Y-64814097D01*
X119742071Y-64831080D01*
X119753352Y-64838818D01*
X119763048Y-64842337D01*
X119776232Y-64838572D01*
X119796379Y-64826036D01*
X119814735Y-64812571D01*
X119838342Y-64793979D01*
X119855441Y-64779049D01*
X119862565Y-64770821D01*
X119862600Y-64770567D01*
X119855745Y-64758296D01*
X119837891Y-64741467D01*
X119813102Y-64723254D01*
X119785443Y-64706834D01*
X119773700Y-64701124D01*
X119739182Y-64689147D01*
X119697362Y-64681798D01*
X119654785Y-64678570D01*
X119575105Y-64680220D01*
%TD*%
M02*
