%TF.GenerationSoftware,KiCad,Pcbnew,(5.1.6)-1*%
%TF.CreationDate,2020-09-21T09:23:47+02:00*%
%TF.ProjectId,wy60_usb,77793630-5f75-4736-922e-6b696361645f,rev?*%
%TF.SameCoordinates,Original*%
%TF.FileFunction,Profile,NP*%
%FSLAX46Y46*%
G04 Gerber Fmt 4.6, Leading zero omitted, Abs format (unit mm)*
G04 Created by KiCad (PCBNEW (5.1.6)-1) date 2020-09-21 09:23:47*
%MOMM*%
%LPD*%
G01*
G04 APERTURE LIST*
%TA.AperFunction,Profile*%
%ADD10C,0.100000*%
%TD*%
G04 APERTURE END LIST*
D10*
X411276800Y-83515200D02*
G75*
G03*
X411276800Y-83515200I-1524000J0D01*
G01*
X410718000Y-210261200D02*
G75*
G03*
X410718000Y-210261200I-1511300J0D01*
G01*
X224587654Y-208432400D02*
G75*
G03*
X224587654Y-208432400I-1512154J0D01*
G01*
X16916400Y-212902800D02*
G75*
G03*
X16916400Y-212902800I-1511300J0D01*
G01*
X11938000Y-85407500D02*
G75*
G03*
X11938000Y-85407500I-1524000J0D01*
G01*
X189866763Y-83185000D02*
G75*
G03*
X189866763Y-83185000I-4575526J0D01*
G01*
X5461000Y-210439000D02*
G75*
G03*
X5922028Y-211454999I1350027J0D01*
G01*
X16129000Y-221060027D02*
G75*
G02*
X15113001Y-220598999I0J1350027D01*
G01*
X403606001Y-221060028D02*
G75*
G03*
X404622000Y-220599000I0J1350027D01*
G01*
X414528000Y-210185000D02*
G75*
G02*
X414066972Y-211200999I-1350027J0D01*
G01*
X409437470Y-79122910D02*
G75*
G02*
X414528000Y-84074000I137530J-4951090D01*
G01*
X400568530Y-79119090D02*
G75*
G02*
X395478000Y-74168000I-137530J4951090D01*
G01*
X390387470Y-50166910D02*
G75*
G02*
X395478000Y-55118000I137530J-4951090D01*
G01*
X24512910Y-55255530D02*
G75*
G02*
X29464000Y-50165000I4951090J137530D01*
G01*
X24511000Y-74930000D02*
X24512910Y-55255530D01*
X24511000Y-74930000D02*
G75*
G02*
X20193000Y-79248000I-4318000J0D01*
G01*
X5462910Y-84338530D02*
G75*
G02*
X10414000Y-79248000I4951090J137530D01*
G01*
X10414000Y-79248000D02*
X20193000Y-79248000D01*
X5461000Y-210439000D02*
X5462910Y-84338530D01*
X15113001Y-220598999D02*
X5922028Y-211454999D01*
X200914000Y-221107000D02*
G75*
G02*
X199009000Y-219202000I0J1905000D01*
G01*
X190373000Y-219202000D02*
X190373000Y-216535000D01*
X199009000Y-219202000D02*
X199009000Y-216535000D01*
X190373000Y-219202000D02*
G75*
G02*
X188468000Y-221107000I-1905000J0D01*
G01*
X190373000Y-216535000D02*
G75*
G02*
X199009000Y-216535000I4318000J0D01*
G01*
X188468000Y-221107000D02*
X16129000Y-221060027D01*
X403606001Y-221060028D02*
X200914000Y-221107000D01*
X414066972Y-211200999D02*
X404622000Y-220599000D01*
X414528000Y-84074000D02*
X414528000Y-210185000D01*
X400568530Y-79119090D02*
X409437470Y-79122910D01*
X395478000Y-55118000D02*
X395478000Y-74168000D01*
X29464000Y-50165000D02*
X390387470Y-50166910D01*
M02*
