%TF.GenerationSoftware,KiCad,Pcbnew,(5.1.6)-1*%
%TF.CreationDate,2020-10-15T09:52:07+02:00*%
%TF.ProjectId,wy60_usb,77793630-5f75-4736-922e-6b696361645f,rev?*%
%TF.SameCoordinates,Original*%
%TF.FileFunction,Legend,Top*%
%TF.FilePolarity,Positive*%
%FSLAX46Y46*%
G04 Gerber Fmt 4.6, Leading zero omitted, Abs format (unit mm)*
G04 Created by KiCad (PCBNEW (5.1.6)-1) date 2020-10-15 09:52:07*
%MOMM*%
%LPD*%
G01*
G04 APERTURE LIST*
%ADD10C,0.150000*%
%ADD11C,0.120000*%
G04 APERTURE END LIST*
D10*
%TO.C,USB1*%
X40092000Y-57165000D02*
X40092000Y-50165000D01*
X47792000Y-57165000D02*
X40092000Y-57165000D01*
X47792000Y-50165000D02*
X47792000Y-57165000D01*
D11*
%TO.C,D32*%
X242974000Y-127377000D02*
X245214000Y-127377000D01*
X242974000Y-127137000D02*
X245214000Y-127137000D01*
X242974000Y-127257000D02*
X245214000Y-127257000D01*
X244094000Y-123087000D02*
X244094000Y-123737000D01*
X244094000Y-128627000D02*
X244094000Y-127977000D01*
X242974000Y-123737000D02*
X242974000Y-127977000D01*
X245214000Y-123737000D02*
X242974000Y-123737000D01*
X245214000Y-127977000D02*
X245214000Y-123737000D01*
X242974000Y-127977000D02*
X245214000Y-127977000D01*
%TO.C,D103*%
X383969400Y-184260300D02*
X386209400Y-184260300D01*
X383969400Y-184020300D02*
X386209400Y-184020300D01*
X383969400Y-184140300D02*
X386209400Y-184140300D01*
X385089400Y-179970300D02*
X385089400Y-180620300D01*
X385089400Y-185510300D02*
X385089400Y-184860300D01*
X383969400Y-180620300D02*
X383969400Y-184860300D01*
X386209400Y-180620300D02*
X383969400Y-180620300D01*
X386209400Y-184860300D02*
X386209400Y-180620300D01*
X383969400Y-184860300D02*
X386209400Y-184860300D01*
%TO.C,D102*%
X383969400Y-203437300D02*
X386209400Y-203437300D01*
X383969400Y-203197300D02*
X386209400Y-203197300D01*
X383969400Y-203317300D02*
X386209400Y-203317300D01*
X385089400Y-199147300D02*
X385089400Y-199797300D01*
X385089400Y-204687300D02*
X385089400Y-204037300D01*
X383969400Y-199797300D02*
X383969400Y-204037300D01*
X386209400Y-199797300D02*
X383969400Y-199797300D01*
X386209400Y-204037300D02*
X386209400Y-199797300D01*
X383969400Y-204037300D02*
X386209400Y-204037300D01*
%TO.C,D101*%
X364919400Y-203437300D02*
X367159400Y-203437300D01*
X364919400Y-203197300D02*
X367159400Y-203197300D01*
X364919400Y-203317300D02*
X367159400Y-203317300D01*
X366039400Y-199147300D02*
X366039400Y-199797300D01*
X366039400Y-204687300D02*
X366039400Y-204037300D01*
X364919400Y-199797300D02*
X364919400Y-204037300D01*
X367159400Y-199797300D02*
X364919400Y-199797300D01*
X367159400Y-204037300D02*
X367159400Y-199797300D01*
X364919400Y-204037300D02*
X367159400Y-204037300D01*
%TO.C,D100*%
X314348000Y-203450000D02*
X316588000Y-203450000D01*
X314348000Y-203210000D02*
X316588000Y-203210000D01*
X314348000Y-203330000D02*
X316588000Y-203330000D01*
X315468000Y-199160000D02*
X315468000Y-199810000D01*
X315468000Y-204700000D02*
X315468000Y-204050000D01*
X314348000Y-199810000D02*
X314348000Y-204050000D01*
X316588000Y-199810000D02*
X314348000Y-199810000D01*
X316588000Y-204050000D02*
X316588000Y-199810000D01*
X314348000Y-204050000D02*
X316588000Y-204050000D01*
%TO.C,D99*%
X295298000Y-203450000D02*
X297538000Y-203450000D01*
X295298000Y-203210000D02*
X297538000Y-203210000D01*
X295298000Y-203330000D02*
X297538000Y-203330000D01*
X296418000Y-199160000D02*
X296418000Y-199810000D01*
X296418000Y-204700000D02*
X296418000Y-204050000D01*
X295298000Y-199810000D02*
X295298000Y-204050000D01*
X297538000Y-199810000D02*
X295298000Y-199810000D01*
X297538000Y-204050000D02*
X297538000Y-199810000D01*
X295298000Y-204050000D02*
X297538000Y-204050000D01*
%TO.C,D98*%
X276248000Y-203450000D02*
X278488000Y-203450000D01*
X276248000Y-203210000D02*
X278488000Y-203210000D01*
X276248000Y-203330000D02*
X278488000Y-203330000D01*
X277368000Y-199160000D02*
X277368000Y-199810000D01*
X277368000Y-204700000D02*
X277368000Y-204050000D01*
X276248000Y-199810000D02*
X276248000Y-204050000D01*
X278488000Y-199810000D02*
X276248000Y-199810000D01*
X278488000Y-204050000D02*
X278488000Y-199810000D01*
X276248000Y-204050000D02*
X278488000Y-204050000D01*
%TO.C,D97*%
X257071000Y-203450000D02*
X259311000Y-203450000D01*
X257071000Y-203210000D02*
X259311000Y-203210000D01*
X257071000Y-203330000D02*
X259311000Y-203330000D01*
X258191000Y-199160000D02*
X258191000Y-199810000D01*
X258191000Y-204700000D02*
X258191000Y-204050000D01*
X257071000Y-199810000D02*
X257071000Y-204050000D01*
X259311000Y-199810000D02*
X257071000Y-199810000D01*
X259311000Y-204050000D02*
X259311000Y-199810000D01*
X257071000Y-204050000D02*
X259311000Y-204050000D01*
%TO.C,D96*%
X157630000Y-201799000D02*
X159870000Y-201799000D01*
X157630000Y-201559000D02*
X159870000Y-201559000D01*
X157630000Y-201679000D02*
X159870000Y-201679000D01*
X158750000Y-197509000D02*
X158750000Y-198159000D01*
X158750000Y-203049000D02*
X158750000Y-202399000D01*
X157630000Y-198159000D02*
X157630000Y-202399000D01*
X159870000Y-198159000D02*
X157630000Y-198159000D01*
X159870000Y-202399000D02*
X159870000Y-198159000D01*
X157630000Y-202399000D02*
X159870000Y-202399000D01*
%TO.C,D95*%
X52474000Y-201799000D02*
X54714000Y-201799000D01*
X52474000Y-201559000D02*
X54714000Y-201559000D01*
X52474000Y-201679000D02*
X54714000Y-201679000D01*
X53594000Y-197509000D02*
X53594000Y-198159000D01*
X53594000Y-203049000D02*
X53594000Y-202399000D01*
X52474000Y-198159000D02*
X52474000Y-202399000D01*
X54714000Y-198159000D02*
X52474000Y-198159000D01*
X54714000Y-202399000D02*
X54714000Y-198159000D01*
X52474000Y-202399000D02*
X54714000Y-202399000D01*
%TO.C,D94*%
X364919400Y-184260300D02*
X367159400Y-184260300D01*
X364919400Y-184020300D02*
X367159400Y-184020300D01*
X364919400Y-184140300D02*
X367159400Y-184140300D01*
X366039400Y-179970300D02*
X366039400Y-180620300D01*
X366039400Y-185510300D02*
X366039400Y-184860300D01*
X364919400Y-180620300D02*
X364919400Y-184860300D01*
X367159400Y-180620300D02*
X364919400Y-180620300D01*
X367159400Y-184860300D02*
X367159400Y-180620300D01*
X364919400Y-184860300D02*
X367159400Y-184860300D01*
%TO.C,D93*%
X345869400Y-184260300D02*
X348109400Y-184260300D01*
X345869400Y-184020300D02*
X348109400Y-184020300D01*
X345869400Y-184140300D02*
X348109400Y-184140300D01*
X346989400Y-179970300D02*
X346989400Y-180620300D01*
X346989400Y-185510300D02*
X346989400Y-184860300D01*
X345869400Y-180620300D02*
X345869400Y-184860300D01*
X348109400Y-180620300D02*
X345869400Y-180620300D01*
X348109400Y-184860300D02*
X348109400Y-180620300D01*
X345869400Y-184860300D02*
X348109400Y-184860300D01*
%TO.C,D92*%
X326819400Y-184260300D02*
X329059400Y-184260300D01*
X326819400Y-184020300D02*
X329059400Y-184020300D01*
X326819400Y-184140300D02*
X329059400Y-184140300D01*
X327939400Y-179970300D02*
X327939400Y-180620300D01*
X327939400Y-185510300D02*
X327939400Y-184860300D01*
X326819400Y-180620300D02*
X326819400Y-184860300D01*
X329059400Y-180620300D02*
X326819400Y-180620300D01*
X329059400Y-184860300D02*
X329059400Y-180620300D01*
X326819400Y-184860300D02*
X329059400Y-184860300D01*
%TO.C,D91*%
X314348000Y-184273000D02*
X316588000Y-184273000D01*
X314348000Y-184033000D02*
X316588000Y-184033000D01*
X314348000Y-184153000D02*
X316588000Y-184153000D01*
X315468000Y-179983000D02*
X315468000Y-180633000D01*
X315468000Y-185523000D02*
X315468000Y-184873000D01*
X314348000Y-180633000D02*
X314348000Y-184873000D01*
X316588000Y-180633000D02*
X314348000Y-180633000D01*
X316588000Y-184873000D02*
X316588000Y-180633000D01*
X314348000Y-184873000D02*
X316588000Y-184873000D01*
%TO.C,D90*%
X295298000Y-184273000D02*
X297538000Y-184273000D01*
X295298000Y-184033000D02*
X297538000Y-184033000D01*
X295298000Y-184153000D02*
X297538000Y-184153000D01*
X296418000Y-179983000D02*
X296418000Y-180633000D01*
X296418000Y-185523000D02*
X296418000Y-184873000D01*
X295298000Y-180633000D02*
X295298000Y-184873000D01*
X297538000Y-180633000D02*
X295298000Y-180633000D01*
X297538000Y-184873000D02*
X297538000Y-180633000D01*
X295298000Y-184873000D02*
X297538000Y-184873000D01*
%TO.C,D89*%
X276248000Y-184273000D02*
X278488000Y-184273000D01*
X276248000Y-184033000D02*
X278488000Y-184033000D01*
X276248000Y-184153000D02*
X278488000Y-184153000D01*
X277368000Y-179983000D02*
X277368000Y-180633000D01*
X277368000Y-185523000D02*
X277368000Y-184873000D01*
X276248000Y-180633000D02*
X276248000Y-184873000D01*
X278488000Y-180633000D02*
X276248000Y-180633000D01*
X278488000Y-184873000D02*
X278488000Y-180633000D01*
X276248000Y-184873000D02*
X278488000Y-184873000D01*
%TO.C,D88*%
X247673000Y-184273000D02*
X249913000Y-184273000D01*
X247673000Y-184033000D02*
X249913000Y-184033000D01*
X247673000Y-184153000D02*
X249913000Y-184153000D01*
X248793000Y-179983000D02*
X248793000Y-180633000D01*
X248793000Y-185523000D02*
X248793000Y-184873000D01*
X247673000Y-180633000D02*
X247673000Y-184873000D01*
X249913000Y-180633000D02*
X247673000Y-180633000D01*
X249913000Y-184873000D02*
X249913000Y-180633000D01*
X247673000Y-184873000D02*
X249913000Y-184873000D01*
%TO.C,D87*%
X228623000Y-184273000D02*
X230863000Y-184273000D01*
X228623000Y-184033000D02*
X230863000Y-184033000D01*
X228623000Y-184153000D02*
X230863000Y-184153000D01*
X229743000Y-179983000D02*
X229743000Y-180633000D01*
X229743000Y-185523000D02*
X229743000Y-184873000D01*
X228623000Y-180633000D02*
X228623000Y-184873000D01*
X230863000Y-180633000D02*
X228623000Y-180633000D01*
X230863000Y-184873000D02*
X230863000Y-180633000D01*
X228623000Y-184873000D02*
X230863000Y-184873000D01*
%TO.C,D86*%
X209573000Y-184273000D02*
X211813000Y-184273000D01*
X209573000Y-184033000D02*
X211813000Y-184033000D01*
X209573000Y-184153000D02*
X211813000Y-184153000D01*
X210693000Y-179983000D02*
X210693000Y-180633000D01*
X210693000Y-185523000D02*
X210693000Y-184873000D01*
X209573000Y-180633000D02*
X209573000Y-184873000D01*
X211813000Y-180633000D02*
X209573000Y-180633000D01*
X211813000Y-184873000D02*
X211813000Y-180633000D01*
X209573000Y-184873000D02*
X211813000Y-184873000D01*
%TO.C,D85*%
X190396000Y-184273000D02*
X192636000Y-184273000D01*
X190396000Y-184033000D02*
X192636000Y-184033000D01*
X190396000Y-184153000D02*
X192636000Y-184153000D01*
X191516000Y-179983000D02*
X191516000Y-180633000D01*
X191516000Y-185523000D02*
X191516000Y-184873000D01*
X190396000Y-180633000D02*
X190396000Y-184873000D01*
X192636000Y-180633000D02*
X190396000Y-180633000D01*
X192636000Y-184873000D02*
X192636000Y-180633000D01*
X190396000Y-184873000D02*
X192636000Y-184873000D01*
%TO.C,D84*%
X171473000Y-184273000D02*
X173713000Y-184273000D01*
X171473000Y-184033000D02*
X173713000Y-184033000D01*
X171473000Y-184153000D02*
X173713000Y-184153000D01*
X172593000Y-179983000D02*
X172593000Y-180633000D01*
X172593000Y-185523000D02*
X172593000Y-184873000D01*
X171473000Y-180633000D02*
X171473000Y-184873000D01*
X173713000Y-180633000D02*
X171473000Y-180633000D01*
X173713000Y-184873000D02*
X173713000Y-180633000D01*
X171473000Y-184873000D02*
X173713000Y-184873000D01*
%TO.C,D83*%
X152357800Y-184273000D02*
X154597800Y-184273000D01*
X152357800Y-184033000D02*
X154597800Y-184033000D01*
X152357800Y-184153000D02*
X154597800Y-184153000D01*
X153477800Y-179983000D02*
X153477800Y-180633000D01*
X153477800Y-185523000D02*
X153477800Y-184873000D01*
X152357800Y-180633000D02*
X152357800Y-184873000D01*
X154597800Y-180633000D02*
X152357800Y-180633000D01*
X154597800Y-184873000D02*
X154597800Y-180633000D01*
X152357800Y-184873000D02*
X154597800Y-184873000D01*
%TO.C,D82*%
X133307800Y-184273000D02*
X135547800Y-184273000D01*
X133307800Y-184033000D02*
X135547800Y-184033000D01*
X133307800Y-184153000D02*
X135547800Y-184153000D01*
X134427800Y-179983000D02*
X134427800Y-180633000D01*
X134427800Y-185523000D02*
X134427800Y-184873000D01*
X133307800Y-180633000D02*
X133307800Y-184873000D01*
X135547800Y-180633000D02*
X133307800Y-180633000D01*
X135547800Y-184873000D02*
X135547800Y-180633000D01*
X133307800Y-184873000D02*
X135547800Y-184873000D01*
%TO.C,D81*%
X114323000Y-184273000D02*
X116563000Y-184273000D01*
X114323000Y-184033000D02*
X116563000Y-184033000D01*
X114323000Y-184153000D02*
X116563000Y-184153000D01*
X115443000Y-179983000D02*
X115443000Y-180633000D01*
X115443000Y-185523000D02*
X115443000Y-184873000D01*
X114323000Y-180633000D02*
X114323000Y-184873000D01*
X116563000Y-180633000D02*
X114323000Y-180633000D01*
X116563000Y-184873000D02*
X116563000Y-180633000D01*
X114323000Y-184873000D02*
X116563000Y-184873000D01*
%TO.C,D80*%
X95273000Y-184273000D02*
X97513000Y-184273000D01*
X95273000Y-184033000D02*
X97513000Y-184033000D01*
X95273000Y-184153000D02*
X97513000Y-184153000D01*
X96393000Y-179983000D02*
X96393000Y-180633000D01*
X96393000Y-185523000D02*
X96393000Y-184873000D01*
X95273000Y-180633000D02*
X95273000Y-184873000D01*
X97513000Y-180633000D02*
X95273000Y-180633000D01*
X97513000Y-184873000D02*
X97513000Y-180633000D01*
X95273000Y-184873000D02*
X97513000Y-184873000D01*
%TO.C,D79*%
X76223000Y-184273000D02*
X78463000Y-184273000D01*
X76223000Y-184033000D02*
X78463000Y-184033000D01*
X76223000Y-184153000D02*
X78463000Y-184153000D01*
X77343000Y-179983000D02*
X77343000Y-180633000D01*
X77343000Y-185523000D02*
X77343000Y-184873000D01*
X76223000Y-180633000D02*
X76223000Y-184873000D01*
X78463000Y-180633000D02*
X76223000Y-180633000D01*
X78463000Y-184873000D02*
X78463000Y-180633000D01*
X76223000Y-184873000D02*
X78463000Y-184873000D01*
%TO.C,D78*%
X57173000Y-184273000D02*
X59413000Y-184273000D01*
X57173000Y-184033000D02*
X59413000Y-184033000D01*
X57173000Y-184153000D02*
X59413000Y-184153000D01*
X58293000Y-179983000D02*
X58293000Y-180633000D01*
X58293000Y-185523000D02*
X58293000Y-184873000D01*
X57173000Y-180633000D02*
X57173000Y-184873000D01*
X59413000Y-180633000D02*
X57173000Y-180633000D01*
X59413000Y-184873000D02*
X59413000Y-180633000D01*
X57173000Y-184873000D02*
X59413000Y-184873000D01*
%TO.C,D77*%
X33297000Y-184273000D02*
X35537000Y-184273000D01*
X33297000Y-184033000D02*
X35537000Y-184033000D01*
X33297000Y-184153000D02*
X35537000Y-184153000D01*
X34417000Y-179983000D02*
X34417000Y-180633000D01*
X34417000Y-185523000D02*
X34417000Y-184873000D01*
X33297000Y-180633000D02*
X33297000Y-184873000D01*
X35537000Y-180633000D02*
X33297000Y-180633000D01*
X35537000Y-184873000D02*
X35537000Y-180633000D01*
X33297000Y-184873000D02*
X35537000Y-184873000D01*
%TO.C,D76*%
X383969400Y-165337300D02*
X386209400Y-165337300D01*
X383969400Y-165097300D02*
X386209400Y-165097300D01*
X383969400Y-165217300D02*
X386209400Y-165217300D01*
X385089400Y-161047300D02*
X385089400Y-161697300D01*
X385089400Y-166587300D02*
X385089400Y-165937300D01*
X383969400Y-161697300D02*
X383969400Y-165937300D01*
X386209400Y-161697300D02*
X383969400Y-161697300D01*
X386209400Y-165937300D02*
X386209400Y-161697300D01*
X383969400Y-165937300D02*
X386209400Y-165937300D01*
%TO.C,D75*%
X364919400Y-165337300D02*
X367159400Y-165337300D01*
X364919400Y-165097300D02*
X367159400Y-165097300D01*
X364919400Y-165217300D02*
X367159400Y-165217300D01*
X366039400Y-161047300D02*
X366039400Y-161697300D01*
X366039400Y-166587300D02*
X366039400Y-165937300D01*
X364919400Y-161697300D02*
X364919400Y-165937300D01*
X367159400Y-161697300D02*
X364919400Y-161697300D01*
X367159400Y-165937300D02*
X367159400Y-161697300D01*
X364919400Y-165937300D02*
X367159400Y-165937300D01*
%TO.C,D74*%
X345869400Y-165337300D02*
X348109400Y-165337300D01*
X345869400Y-165097300D02*
X348109400Y-165097300D01*
X345869400Y-165217300D02*
X348109400Y-165217300D01*
X346989400Y-161047300D02*
X346989400Y-161697300D01*
X346989400Y-166587300D02*
X346989400Y-165937300D01*
X345869400Y-161697300D02*
X345869400Y-165937300D01*
X348109400Y-161697300D02*
X345869400Y-161697300D01*
X348109400Y-165937300D02*
X348109400Y-161697300D01*
X345869400Y-165937300D02*
X348109400Y-165937300D01*
%TO.C,D73*%
X326819400Y-165337300D02*
X329059400Y-165337300D01*
X326819400Y-165097300D02*
X329059400Y-165097300D01*
X326819400Y-165217300D02*
X329059400Y-165217300D01*
X327939400Y-161047300D02*
X327939400Y-161697300D01*
X327939400Y-166587300D02*
X327939400Y-165937300D01*
X326819400Y-161697300D02*
X326819400Y-165937300D01*
X329059400Y-161697300D02*
X326819400Y-161697300D01*
X329059400Y-165937300D02*
X329059400Y-161697300D01*
X326819400Y-165937300D02*
X329059400Y-165937300D01*
%TO.C,D72*%
X314348000Y-165350000D02*
X316588000Y-165350000D01*
X314348000Y-165110000D02*
X316588000Y-165110000D01*
X314348000Y-165230000D02*
X316588000Y-165230000D01*
X315468000Y-161060000D02*
X315468000Y-161710000D01*
X315468000Y-166600000D02*
X315468000Y-165950000D01*
X314348000Y-161710000D02*
X314348000Y-165950000D01*
X316588000Y-161710000D02*
X314348000Y-161710000D01*
X316588000Y-165950000D02*
X316588000Y-161710000D01*
X314348000Y-165950000D02*
X316588000Y-165950000D01*
%TO.C,D71*%
X295740800Y-165350000D02*
X297980800Y-165350000D01*
X295740800Y-165110000D02*
X297980800Y-165110000D01*
X295740800Y-165230000D02*
X297980800Y-165230000D01*
X296860800Y-161060000D02*
X296860800Y-161710000D01*
X296860800Y-166600000D02*
X296860800Y-165950000D01*
X295740800Y-161710000D02*
X295740800Y-165950000D01*
X297980800Y-161710000D02*
X295740800Y-161710000D01*
X297980800Y-165950000D02*
X297980800Y-161710000D01*
X295740800Y-165950000D02*
X297980800Y-165950000D01*
%TO.C,D70*%
X257640800Y-165350000D02*
X259880800Y-165350000D01*
X257640800Y-165110000D02*
X259880800Y-165110000D01*
X257640800Y-165230000D02*
X259880800Y-165230000D01*
X258760800Y-161060000D02*
X258760800Y-161710000D01*
X258760800Y-166600000D02*
X258760800Y-165950000D01*
X257640800Y-161710000D02*
X257640800Y-165950000D01*
X259880800Y-161710000D02*
X257640800Y-161710000D01*
X259880800Y-165950000D02*
X259880800Y-161710000D01*
X257640800Y-165950000D02*
X259880800Y-165950000D01*
%TO.C,D69*%
X238463800Y-165350000D02*
X240703800Y-165350000D01*
X238463800Y-165110000D02*
X240703800Y-165110000D01*
X238463800Y-165230000D02*
X240703800Y-165230000D01*
X239583800Y-161060000D02*
X239583800Y-161710000D01*
X239583800Y-166600000D02*
X239583800Y-165950000D01*
X238463800Y-161710000D02*
X238463800Y-165950000D01*
X240703800Y-161710000D02*
X238463800Y-161710000D01*
X240703800Y-165950000D02*
X240703800Y-161710000D01*
X238463800Y-165950000D02*
X240703800Y-165950000D01*
%TO.C,D68*%
X219413800Y-165350000D02*
X221653800Y-165350000D01*
X219413800Y-165110000D02*
X221653800Y-165110000D01*
X219413800Y-165230000D02*
X221653800Y-165230000D01*
X220533800Y-161060000D02*
X220533800Y-161710000D01*
X220533800Y-166600000D02*
X220533800Y-165950000D01*
X219413800Y-161710000D02*
X219413800Y-165950000D01*
X221653800Y-161710000D02*
X219413800Y-161710000D01*
X221653800Y-165950000D02*
X221653800Y-161710000D01*
X219413800Y-165950000D02*
X221653800Y-165950000D01*
%TO.C,D67*%
X200236800Y-165350000D02*
X202476800Y-165350000D01*
X200236800Y-165110000D02*
X202476800Y-165110000D01*
X200236800Y-165230000D02*
X202476800Y-165230000D01*
X201356800Y-161060000D02*
X201356800Y-161710000D01*
X201356800Y-166600000D02*
X201356800Y-165950000D01*
X200236800Y-161710000D02*
X200236800Y-165950000D01*
X202476800Y-161710000D02*
X200236800Y-161710000D01*
X202476800Y-165950000D02*
X202476800Y-161710000D01*
X200236800Y-165950000D02*
X202476800Y-165950000D01*
%TO.C,D66*%
X181186800Y-165350000D02*
X183426800Y-165350000D01*
X181186800Y-165110000D02*
X183426800Y-165110000D01*
X181186800Y-165230000D02*
X183426800Y-165230000D01*
X182306800Y-161060000D02*
X182306800Y-161710000D01*
X182306800Y-166600000D02*
X182306800Y-165950000D01*
X181186800Y-161710000D02*
X181186800Y-165950000D01*
X183426800Y-161710000D02*
X181186800Y-161710000D01*
X183426800Y-165950000D02*
X183426800Y-161710000D01*
X181186800Y-165950000D02*
X183426800Y-165950000D01*
%TO.C,D65*%
X162009800Y-165350000D02*
X164249800Y-165350000D01*
X162009800Y-165110000D02*
X164249800Y-165110000D01*
X162009800Y-165230000D02*
X164249800Y-165230000D01*
X163129800Y-161060000D02*
X163129800Y-161710000D01*
X163129800Y-166600000D02*
X163129800Y-165950000D01*
X162009800Y-161710000D02*
X162009800Y-165950000D01*
X164249800Y-161710000D02*
X162009800Y-161710000D01*
X164249800Y-165950000D02*
X164249800Y-161710000D01*
X162009800Y-165950000D02*
X164249800Y-165950000D01*
%TO.C,D64*%
X142832800Y-165350000D02*
X145072800Y-165350000D01*
X142832800Y-165110000D02*
X145072800Y-165110000D01*
X142832800Y-165230000D02*
X145072800Y-165230000D01*
X143952800Y-161060000D02*
X143952800Y-161710000D01*
X143952800Y-166600000D02*
X143952800Y-165950000D01*
X142832800Y-161710000D02*
X142832800Y-165950000D01*
X145072800Y-161710000D02*
X142832800Y-161710000D01*
X145072800Y-165950000D02*
X145072800Y-161710000D01*
X142832800Y-165950000D02*
X145072800Y-165950000D01*
%TO.C,D63*%
X123782800Y-165350000D02*
X126022800Y-165350000D01*
X123782800Y-165110000D02*
X126022800Y-165110000D01*
X123782800Y-165230000D02*
X126022800Y-165230000D01*
X124902800Y-161060000D02*
X124902800Y-161710000D01*
X124902800Y-166600000D02*
X124902800Y-165950000D01*
X123782800Y-161710000D02*
X123782800Y-165950000D01*
X126022800Y-161710000D02*
X123782800Y-161710000D01*
X126022800Y-165950000D02*
X126022800Y-161710000D01*
X123782800Y-165950000D02*
X126022800Y-165950000D01*
%TO.C,D62*%
X104732800Y-165350000D02*
X106972800Y-165350000D01*
X104732800Y-165110000D02*
X106972800Y-165110000D01*
X104732800Y-165230000D02*
X106972800Y-165230000D01*
X105852800Y-161060000D02*
X105852800Y-161710000D01*
X105852800Y-166600000D02*
X105852800Y-165950000D01*
X104732800Y-161710000D02*
X104732800Y-165950000D01*
X106972800Y-161710000D02*
X104732800Y-161710000D01*
X106972800Y-165950000D02*
X106972800Y-161710000D01*
X104732800Y-165950000D02*
X106972800Y-165950000D01*
%TO.C,D61*%
X85555800Y-165350000D02*
X87795800Y-165350000D01*
X85555800Y-165110000D02*
X87795800Y-165110000D01*
X85555800Y-165230000D02*
X87795800Y-165230000D01*
X86675800Y-161060000D02*
X86675800Y-161710000D01*
X86675800Y-166600000D02*
X86675800Y-165950000D01*
X85555800Y-161710000D02*
X85555800Y-165950000D01*
X87795800Y-161710000D02*
X85555800Y-161710000D01*
X87795800Y-165950000D02*
X87795800Y-161710000D01*
X85555800Y-165950000D02*
X87795800Y-165950000D01*
%TO.C,D60*%
X66505800Y-165350000D02*
X68745800Y-165350000D01*
X66505800Y-165110000D02*
X68745800Y-165110000D01*
X66505800Y-165230000D02*
X68745800Y-165230000D01*
X67625800Y-161060000D02*
X67625800Y-161710000D01*
X67625800Y-166600000D02*
X67625800Y-165950000D01*
X66505800Y-161710000D02*
X66505800Y-165950000D01*
X68745800Y-161710000D02*
X66505800Y-161710000D01*
X68745800Y-165950000D02*
X68745800Y-161710000D01*
X66505800Y-165950000D02*
X68745800Y-165950000D01*
%TO.C,D59*%
X46058800Y-165350000D02*
X48298800Y-165350000D01*
X46058800Y-165110000D02*
X48298800Y-165110000D01*
X46058800Y-165230000D02*
X48298800Y-165230000D01*
X47178800Y-161060000D02*
X47178800Y-161710000D01*
X47178800Y-166600000D02*
X47178800Y-165950000D01*
X46058800Y-161710000D02*
X46058800Y-165950000D01*
X48298800Y-161710000D02*
X46058800Y-161710000D01*
X48298800Y-165950000D02*
X48298800Y-161710000D01*
X46058800Y-165950000D02*
X48298800Y-165950000D01*
%TO.C,D58*%
X383969400Y-146160300D02*
X386209400Y-146160300D01*
X383969400Y-145920300D02*
X386209400Y-145920300D01*
X383969400Y-146040300D02*
X386209400Y-146040300D01*
X385089400Y-141870300D02*
X385089400Y-142520300D01*
X385089400Y-147410300D02*
X385089400Y-146760300D01*
X383969400Y-142520300D02*
X383969400Y-146760300D01*
X386209400Y-142520300D02*
X383969400Y-142520300D01*
X386209400Y-146760300D02*
X386209400Y-142520300D01*
X383969400Y-146760300D02*
X386209400Y-146760300D01*
%TO.C,D57*%
X364919400Y-146160300D02*
X367159400Y-146160300D01*
X364919400Y-145920300D02*
X367159400Y-145920300D01*
X364919400Y-146040300D02*
X367159400Y-146040300D01*
X366039400Y-141870300D02*
X366039400Y-142520300D01*
X366039400Y-147410300D02*
X366039400Y-146760300D01*
X364919400Y-142520300D02*
X364919400Y-146760300D01*
X367159400Y-142520300D02*
X364919400Y-142520300D01*
X367159400Y-146760300D02*
X367159400Y-142520300D01*
X364919400Y-146760300D02*
X367159400Y-146760300D01*
%TO.C,D56*%
X345869400Y-146160300D02*
X348109400Y-146160300D01*
X345869400Y-145920300D02*
X348109400Y-145920300D01*
X345869400Y-146040300D02*
X348109400Y-146040300D01*
X346989400Y-141870300D02*
X346989400Y-142520300D01*
X346989400Y-147410300D02*
X346989400Y-146760300D01*
X345869400Y-142520300D02*
X345869400Y-146760300D01*
X348109400Y-142520300D02*
X345869400Y-142520300D01*
X348109400Y-146760300D02*
X348109400Y-142520300D01*
X345869400Y-146760300D02*
X348109400Y-146760300D01*
%TO.C,D55*%
X326819400Y-146160300D02*
X329059400Y-146160300D01*
X326819400Y-145920300D02*
X329059400Y-145920300D01*
X326819400Y-146040300D02*
X329059400Y-146040300D01*
X327939400Y-141870300D02*
X327939400Y-142520300D01*
X327939400Y-147410300D02*
X327939400Y-146760300D01*
X326819400Y-142520300D02*
X326819400Y-146760300D01*
X329059400Y-142520300D02*
X326819400Y-142520300D01*
X329059400Y-146760300D02*
X329059400Y-142520300D01*
X326819400Y-146760300D02*
X329059400Y-146760300D01*
%TO.C,D54*%
X314348000Y-146122200D02*
X316588000Y-146122200D01*
X314348000Y-145882200D02*
X316588000Y-145882200D01*
X314348000Y-146002200D02*
X316588000Y-146002200D01*
X315468000Y-141832200D02*
X315468000Y-142482200D01*
X315468000Y-147372200D02*
X315468000Y-146722200D01*
X314348000Y-142482200D02*
X314348000Y-146722200D01*
X316588000Y-142482200D02*
X314348000Y-142482200D01*
X316588000Y-146722200D02*
X316588000Y-142482200D01*
X314348000Y-146722200D02*
X316588000Y-146722200D01*
%TO.C,D53*%
X290599000Y-146173000D02*
X292839000Y-146173000D01*
X290599000Y-145933000D02*
X292839000Y-145933000D01*
X290599000Y-146053000D02*
X292839000Y-146053000D01*
X291719000Y-141883000D02*
X291719000Y-142533000D01*
X291719000Y-147423000D02*
X291719000Y-146773000D01*
X290599000Y-142533000D02*
X290599000Y-146773000D01*
X292839000Y-142533000D02*
X290599000Y-142533000D01*
X292839000Y-146773000D02*
X292839000Y-142533000D01*
X290599000Y-146773000D02*
X292839000Y-146773000D01*
%TO.C,D52*%
X271549000Y-146173000D02*
X273789000Y-146173000D01*
X271549000Y-145933000D02*
X273789000Y-145933000D01*
X271549000Y-146053000D02*
X273789000Y-146053000D01*
X272669000Y-141883000D02*
X272669000Y-142533000D01*
X272669000Y-147423000D02*
X272669000Y-146773000D01*
X271549000Y-142533000D02*
X271549000Y-146773000D01*
X273789000Y-142533000D02*
X271549000Y-142533000D01*
X273789000Y-146773000D02*
X273789000Y-142533000D01*
X271549000Y-146773000D02*
X273789000Y-146773000D01*
%TO.C,D51*%
X252372000Y-146173000D02*
X254612000Y-146173000D01*
X252372000Y-145933000D02*
X254612000Y-145933000D01*
X252372000Y-146053000D02*
X254612000Y-146053000D01*
X253492000Y-141883000D02*
X253492000Y-142533000D01*
X253492000Y-147423000D02*
X253492000Y-146773000D01*
X252372000Y-142533000D02*
X252372000Y-146773000D01*
X254612000Y-142533000D02*
X252372000Y-142533000D01*
X254612000Y-146773000D02*
X254612000Y-142533000D01*
X252372000Y-146773000D02*
X254612000Y-146773000D01*
%TO.C,D50*%
X233383800Y-146173000D02*
X235623800Y-146173000D01*
X233383800Y-145933000D02*
X235623800Y-145933000D01*
X233383800Y-146053000D02*
X235623800Y-146053000D01*
X234503800Y-141883000D02*
X234503800Y-142533000D01*
X234503800Y-147423000D02*
X234503800Y-146773000D01*
X233383800Y-142533000D02*
X233383800Y-146773000D01*
X235623800Y-142533000D02*
X233383800Y-142533000D01*
X235623800Y-146773000D02*
X235623800Y-142533000D01*
X233383800Y-146773000D02*
X235623800Y-146773000D01*
%TO.C,D49*%
X214272000Y-146173000D02*
X216512000Y-146173000D01*
X214272000Y-145933000D02*
X216512000Y-145933000D01*
X214272000Y-146053000D02*
X216512000Y-146053000D01*
X215392000Y-141883000D02*
X215392000Y-142533000D01*
X215392000Y-147423000D02*
X215392000Y-146773000D01*
X214272000Y-142533000D02*
X214272000Y-146773000D01*
X216512000Y-142533000D02*
X214272000Y-142533000D01*
X216512000Y-146773000D02*
X216512000Y-142533000D01*
X214272000Y-146773000D02*
X216512000Y-146773000D01*
%TO.C,D48*%
X195349000Y-146173000D02*
X197589000Y-146173000D01*
X195349000Y-145933000D02*
X197589000Y-145933000D01*
X195349000Y-146053000D02*
X197589000Y-146053000D01*
X196469000Y-141883000D02*
X196469000Y-142533000D01*
X196469000Y-147423000D02*
X196469000Y-146773000D01*
X195349000Y-142533000D02*
X195349000Y-146773000D01*
X197589000Y-142533000D02*
X195349000Y-142533000D01*
X197589000Y-146773000D02*
X197589000Y-142533000D01*
X195349000Y-146773000D02*
X197589000Y-146773000D01*
%TO.C,D47*%
X176299000Y-146173000D02*
X178539000Y-146173000D01*
X176299000Y-145933000D02*
X178539000Y-145933000D01*
X176299000Y-146053000D02*
X178539000Y-146053000D01*
X177419000Y-141883000D02*
X177419000Y-142533000D01*
X177419000Y-147423000D02*
X177419000Y-146773000D01*
X176299000Y-142533000D02*
X176299000Y-146773000D01*
X178539000Y-142533000D02*
X176299000Y-142533000D01*
X178539000Y-146773000D02*
X178539000Y-142533000D01*
X176299000Y-146773000D02*
X178539000Y-146773000D01*
%TO.C,D46*%
X157249000Y-146173000D02*
X159489000Y-146173000D01*
X157249000Y-145933000D02*
X159489000Y-145933000D01*
X157249000Y-146053000D02*
X159489000Y-146053000D01*
X158369000Y-141883000D02*
X158369000Y-142533000D01*
X158369000Y-147423000D02*
X158369000Y-146773000D01*
X157249000Y-142533000D02*
X157249000Y-146773000D01*
X159489000Y-142533000D02*
X157249000Y-142533000D01*
X159489000Y-146773000D02*
X159489000Y-142533000D01*
X157249000Y-146773000D02*
X159489000Y-146773000D01*
%TO.C,D45*%
X138072000Y-146173000D02*
X140312000Y-146173000D01*
X138072000Y-145933000D02*
X140312000Y-145933000D01*
X138072000Y-146053000D02*
X140312000Y-146053000D01*
X139192000Y-141883000D02*
X139192000Y-142533000D01*
X139192000Y-147423000D02*
X139192000Y-146773000D01*
X138072000Y-142533000D02*
X138072000Y-146773000D01*
X140312000Y-142533000D02*
X138072000Y-142533000D01*
X140312000Y-146773000D02*
X140312000Y-142533000D01*
X138072000Y-146773000D02*
X140312000Y-146773000D01*
%TO.C,D44*%
X119022000Y-146173000D02*
X121262000Y-146173000D01*
X119022000Y-145933000D02*
X121262000Y-145933000D01*
X119022000Y-146053000D02*
X121262000Y-146053000D01*
X120142000Y-141883000D02*
X120142000Y-142533000D01*
X120142000Y-147423000D02*
X120142000Y-146773000D01*
X119022000Y-142533000D02*
X119022000Y-146773000D01*
X121262000Y-142533000D02*
X119022000Y-142533000D01*
X121262000Y-146773000D02*
X121262000Y-142533000D01*
X119022000Y-146773000D02*
X121262000Y-146773000D01*
%TO.C,D43*%
X99972000Y-146173000D02*
X102212000Y-146173000D01*
X99972000Y-145933000D02*
X102212000Y-145933000D01*
X99972000Y-146053000D02*
X102212000Y-146053000D01*
X101092000Y-141883000D02*
X101092000Y-142533000D01*
X101092000Y-147423000D02*
X101092000Y-146773000D01*
X99972000Y-142533000D02*
X99972000Y-146773000D01*
X102212000Y-142533000D02*
X99972000Y-142533000D01*
X102212000Y-146773000D02*
X102212000Y-142533000D01*
X99972000Y-146773000D02*
X102212000Y-146773000D01*
%TO.C,D42*%
X80922000Y-146173000D02*
X83162000Y-146173000D01*
X80922000Y-145933000D02*
X83162000Y-145933000D01*
X80922000Y-146053000D02*
X83162000Y-146053000D01*
X82042000Y-141883000D02*
X82042000Y-142533000D01*
X82042000Y-147423000D02*
X82042000Y-146773000D01*
X80922000Y-142533000D02*
X80922000Y-146773000D01*
X83162000Y-142533000D02*
X80922000Y-142533000D01*
X83162000Y-146773000D02*
X83162000Y-142533000D01*
X80922000Y-146773000D02*
X83162000Y-146773000D01*
%TO.C,D41*%
X61999000Y-146173000D02*
X64239000Y-146173000D01*
X61999000Y-145933000D02*
X64239000Y-145933000D01*
X61999000Y-146053000D02*
X64239000Y-146053000D01*
X63119000Y-141883000D02*
X63119000Y-142533000D01*
X63119000Y-147423000D02*
X63119000Y-146773000D01*
X61999000Y-142533000D02*
X61999000Y-146773000D01*
X64239000Y-142533000D02*
X61999000Y-142533000D01*
X64239000Y-146773000D02*
X64239000Y-142533000D01*
X61999000Y-146773000D02*
X64239000Y-146773000D01*
%TO.C,D40*%
X42822000Y-146173000D02*
X45062000Y-146173000D01*
X42822000Y-145933000D02*
X45062000Y-145933000D01*
X42822000Y-146053000D02*
X45062000Y-146053000D01*
X43942000Y-141883000D02*
X43942000Y-142533000D01*
X43942000Y-147423000D02*
X43942000Y-146773000D01*
X42822000Y-142533000D02*
X42822000Y-146773000D01*
X45062000Y-142533000D02*
X42822000Y-142533000D01*
X45062000Y-146773000D02*
X45062000Y-142533000D01*
X42822000Y-146773000D02*
X45062000Y-146773000D01*
%TO.C,D39*%
X383969400Y-127364300D02*
X386209400Y-127364300D01*
X383969400Y-127124300D02*
X386209400Y-127124300D01*
X383969400Y-127244300D02*
X386209400Y-127244300D01*
X385089400Y-123074300D02*
X385089400Y-123724300D01*
X385089400Y-128614300D02*
X385089400Y-127964300D01*
X383969400Y-123724300D02*
X383969400Y-127964300D01*
X386209400Y-123724300D02*
X383969400Y-123724300D01*
X386209400Y-127964300D02*
X386209400Y-123724300D01*
X383969400Y-127964300D02*
X386209400Y-127964300D01*
%TO.C,D38*%
X364919400Y-127364300D02*
X367159400Y-127364300D01*
X364919400Y-127124300D02*
X367159400Y-127124300D01*
X364919400Y-127244300D02*
X367159400Y-127244300D01*
X366039400Y-123074300D02*
X366039400Y-123724300D01*
X366039400Y-128614300D02*
X366039400Y-127964300D01*
X364919400Y-123724300D02*
X364919400Y-127964300D01*
X367159400Y-123724300D02*
X364919400Y-123724300D01*
X367159400Y-127964300D02*
X367159400Y-123724300D01*
X364919400Y-127964300D02*
X367159400Y-127964300D01*
%TO.C,D37*%
X345869400Y-127364300D02*
X348109400Y-127364300D01*
X345869400Y-127124300D02*
X348109400Y-127124300D01*
X345869400Y-127244300D02*
X348109400Y-127244300D01*
X346989400Y-123074300D02*
X346989400Y-123724300D01*
X346989400Y-128614300D02*
X346989400Y-127964300D01*
X345869400Y-123724300D02*
X345869400Y-127964300D01*
X348109400Y-123724300D02*
X345869400Y-123724300D01*
X348109400Y-127964300D02*
X348109400Y-123724300D01*
X345869400Y-127964300D02*
X348109400Y-127964300D01*
%TO.C,D36*%
X326819400Y-127364300D02*
X329059400Y-127364300D01*
X326819400Y-127124300D02*
X329059400Y-127124300D01*
X326819400Y-127244300D02*
X329059400Y-127244300D01*
X327939400Y-123074300D02*
X327939400Y-123724300D01*
X327939400Y-128614300D02*
X327939400Y-127964300D01*
X326819400Y-123724300D02*
X326819400Y-127964300D01*
X329059400Y-123724300D02*
X326819400Y-123724300D01*
X329059400Y-127964300D02*
X329059400Y-123724300D01*
X326819400Y-127964300D02*
X329059400Y-127964300D01*
%TO.C,D35*%
X314348000Y-127377000D02*
X316588000Y-127377000D01*
X314348000Y-127137000D02*
X316588000Y-127137000D01*
X314348000Y-127257000D02*
X316588000Y-127257000D01*
X315468000Y-123087000D02*
X315468000Y-123737000D01*
X315468000Y-128627000D02*
X315468000Y-127977000D01*
X314348000Y-123737000D02*
X314348000Y-127977000D01*
X316588000Y-123737000D02*
X314348000Y-123737000D01*
X316588000Y-127977000D02*
X316588000Y-123737000D01*
X314348000Y-127977000D02*
X316588000Y-127977000D01*
%TO.C,D34*%
X295298000Y-127377000D02*
X297538000Y-127377000D01*
X295298000Y-127137000D02*
X297538000Y-127137000D01*
X295298000Y-127257000D02*
X297538000Y-127257000D01*
X296418000Y-123087000D02*
X296418000Y-123737000D01*
X296418000Y-128627000D02*
X296418000Y-127977000D01*
X295298000Y-123737000D02*
X295298000Y-127977000D01*
X297538000Y-123737000D02*
X295298000Y-123737000D01*
X297538000Y-127977000D02*
X297538000Y-123737000D01*
X295298000Y-127977000D02*
X297538000Y-127977000D01*
%TO.C,D33*%
X261897000Y-127377000D02*
X264137000Y-127377000D01*
X261897000Y-127137000D02*
X264137000Y-127137000D01*
X261897000Y-127257000D02*
X264137000Y-127257000D01*
X263017000Y-123087000D02*
X263017000Y-123737000D01*
X263017000Y-128627000D02*
X263017000Y-127977000D01*
X261897000Y-123737000D02*
X261897000Y-127977000D01*
X264137000Y-123737000D02*
X261897000Y-123737000D01*
X264137000Y-127977000D02*
X264137000Y-123737000D01*
X261897000Y-127977000D02*
X264137000Y-127977000D01*
%TO.C,D31*%
X223924000Y-127377000D02*
X226164000Y-127377000D01*
X223924000Y-127137000D02*
X226164000Y-127137000D01*
X223924000Y-127257000D02*
X226164000Y-127257000D01*
X225044000Y-123087000D02*
X225044000Y-123737000D01*
X225044000Y-128627000D02*
X225044000Y-127977000D01*
X223924000Y-123737000D02*
X223924000Y-127977000D01*
X226164000Y-123737000D02*
X223924000Y-123737000D01*
X226164000Y-127977000D02*
X226164000Y-123737000D01*
X223924000Y-127977000D02*
X226164000Y-127977000D01*
%TO.C,D30*%
X204808800Y-127377000D02*
X207048800Y-127377000D01*
X204808800Y-127137000D02*
X207048800Y-127137000D01*
X204808800Y-127257000D02*
X207048800Y-127257000D01*
X205928800Y-123087000D02*
X205928800Y-123737000D01*
X205928800Y-128627000D02*
X205928800Y-127977000D01*
X204808800Y-123737000D02*
X204808800Y-127977000D01*
X207048800Y-123737000D02*
X204808800Y-123737000D01*
X207048800Y-127977000D02*
X207048800Y-123737000D01*
X204808800Y-127977000D02*
X207048800Y-127977000D01*
%TO.C,D29*%
X185697000Y-127377000D02*
X187937000Y-127377000D01*
X185697000Y-127137000D02*
X187937000Y-127137000D01*
X185697000Y-127257000D02*
X187937000Y-127257000D01*
X186817000Y-123087000D02*
X186817000Y-123737000D01*
X186817000Y-128627000D02*
X186817000Y-127977000D01*
X185697000Y-123737000D02*
X185697000Y-127977000D01*
X187937000Y-123737000D02*
X185697000Y-123737000D01*
X187937000Y-127977000D02*
X187937000Y-123737000D01*
X185697000Y-127977000D02*
X187937000Y-127977000D01*
%TO.C,D28*%
X166647000Y-127377000D02*
X168887000Y-127377000D01*
X166647000Y-127137000D02*
X168887000Y-127137000D01*
X166647000Y-127257000D02*
X168887000Y-127257000D01*
X167767000Y-123087000D02*
X167767000Y-123737000D01*
X167767000Y-128627000D02*
X167767000Y-127977000D01*
X166647000Y-123737000D02*
X166647000Y-127977000D01*
X168887000Y-123737000D02*
X166647000Y-123737000D01*
X168887000Y-127977000D02*
X168887000Y-123737000D01*
X166647000Y-127977000D02*
X168887000Y-127977000D01*
%TO.C,D27*%
X147597000Y-127377000D02*
X149837000Y-127377000D01*
X147597000Y-127137000D02*
X149837000Y-127137000D01*
X147597000Y-127257000D02*
X149837000Y-127257000D01*
X148717000Y-123087000D02*
X148717000Y-123737000D01*
X148717000Y-128627000D02*
X148717000Y-127977000D01*
X147597000Y-123737000D02*
X147597000Y-127977000D01*
X149837000Y-123737000D02*
X147597000Y-123737000D01*
X149837000Y-127977000D02*
X149837000Y-123737000D01*
X147597000Y-127977000D02*
X149837000Y-127977000D01*
%TO.C,D26*%
X128547000Y-127377000D02*
X130787000Y-127377000D01*
X128547000Y-127137000D02*
X130787000Y-127137000D01*
X128547000Y-127257000D02*
X130787000Y-127257000D01*
X129667000Y-123087000D02*
X129667000Y-123737000D01*
X129667000Y-128627000D02*
X129667000Y-127977000D01*
X128547000Y-123737000D02*
X128547000Y-127977000D01*
X130787000Y-123737000D02*
X128547000Y-123737000D01*
X130787000Y-127977000D02*
X130787000Y-123737000D01*
X128547000Y-127977000D02*
X130787000Y-127977000D01*
%TO.C,D25*%
X109497000Y-127377000D02*
X111737000Y-127377000D01*
X109497000Y-127137000D02*
X111737000Y-127137000D01*
X109497000Y-127257000D02*
X111737000Y-127257000D01*
X110617000Y-123087000D02*
X110617000Y-123737000D01*
X110617000Y-128627000D02*
X110617000Y-127977000D01*
X109497000Y-123737000D02*
X109497000Y-127977000D01*
X111737000Y-123737000D02*
X109497000Y-123737000D01*
X111737000Y-127977000D02*
X111737000Y-123737000D01*
X109497000Y-127977000D02*
X111737000Y-127977000D01*
%TO.C,D24*%
X90447000Y-127377000D02*
X92687000Y-127377000D01*
X90447000Y-127137000D02*
X92687000Y-127137000D01*
X90447000Y-127257000D02*
X92687000Y-127257000D01*
X91567000Y-123087000D02*
X91567000Y-123737000D01*
X91567000Y-128627000D02*
X91567000Y-127977000D01*
X90447000Y-123737000D02*
X90447000Y-127977000D01*
X92687000Y-123737000D02*
X90447000Y-123737000D01*
X92687000Y-127977000D02*
X92687000Y-123737000D01*
X90447000Y-127977000D02*
X92687000Y-127977000D01*
%TO.C,D23*%
X71397000Y-127377000D02*
X73637000Y-127377000D01*
X71397000Y-127137000D02*
X73637000Y-127137000D01*
X71397000Y-127257000D02*
X73637000Y-127257000D01*
X72517000Y-123087000D02*
X72517000Y-123737000D01*
X72517000Y-128627000D02*
X72517000Y-127977000D01*
X71397000Y-123737000D02*
X71397000Y-127977000D01*
X73637000Y-123737000D02*
X71397000Y-123737000D01*
X73637000Y-127977000D02*
X73637000Y-123737000D01*
X71397000Y-127977000D02*
X73637000Y-127977000D01*
%TO.C,D22*%
X52347000Y-127377000D02*
X54587000Y-127377000D01*
X52347000Y-127137000D02*
X54587000Y-127137000D01*
X52347000Y-127257000D02*
X54587000Y-127257000D01*
X53467000Y-123087000D02*
X53467000Y-123737000D01*
X53467000Y-128627000D02*
X53467000Y-127977000D01*
X52347000Y-123737000D02*
X52347000Y-127977000D01*
X54587000Y-123737000D02*
X52347000Y-123737000D01*
X54587000Y-127977000D02*
X54587000Y-123737000D01*
X52347000Y-127977000D02*
X54587000Y-127977000D01*
%TO.C,D21*%
X33297000Y-127377000D02*
X35537000Y-127377000D01*
X33297000Y-127137000D02*
X35537000Y-127137000D01*
X33297000Y-127257000D02*
X35537000Y-127257000D01*
X34417000Y-123087000D02*
X34417000Y-123737000D01*
X34417000Y-128627000D02*
X34417000Y-127977000D01*
X33297000Y-123737000D02*
X33297000Y-127977000D01*
X35537000Y-123737000D02*
X33297000Y-123737000D01*
X35537000Y-127977000D02*
X35537000Y-123737000D01*
X33297000Y-127977000D02*
X35537000Y-127977000D01*
%TO.C,D20*%
X384020200Y-97354200D02*
X386260200Y-97354200D01*
X384020200Y-97114200D02*
X386260200Y-97114200D01*
X384020200Y-97234200D02*
X386260200Y-97234200D01*
X385140200Y-93064200D02*
X385140200Y-93714200D01*
X385140200Y-98604200D02*
X385140200Y-97954200D01*
X384020200Y-93714200D02*
X384020200Y-97954200D01*
X386260200Y-93714200D02*
X384020200Y-93714200D01*
X386260200Y-97954200D02*
X386260200Y-93714200D01*
X384020200Y-97954200D02*
X386260200Y-97954200D01*
%TO.C,D19*%
X364970200Y-97354200D02*
X367210200Y-97354200D01*
X364970200Y-97114200D02*
X367210200Y-97114200D01*
X364970200Y-97234200D02*
X367210200Y-97234200D01*
X366090200Y-93064200D02*
X366090200Y-93714200D01*
X366090200Y-98604200D02*
X366090200Y-97954200D01*
X364970200Y-93714200D02*
X364970200Y-97954200D01*
X367210200Y-93714200D02*
X364970200Y-93714200D01*
X367210200Y-97954200D02*
X367210200Y-93714200D01*
X364970200Y-97954200D02*
X367210200Y-97954200D01*
%TO.C,D18*%
X353591000Y-97354200D02*
X355831000Y-97354200D01*
X353591000Y-97114200D02*
X355831000Y-97114200D01*
X353591000Y-97234200D02*
X355831000Y-97234200D01*
X354711000Y-93064200D02*
X354711000Y-93714200D01*
X354711000Y-98604200D02*
X354711000Y-97954200D01*
X353591000Y-93714200D02*
X353591000Y-97954200D01*
X355831000Y-93714200D02*
X353591000Y-93714200D01*
X355831000Y-97954200D02*
X355831000Y-93714200D01*
X353591000Y-97954200D02*
X355831000Y-97954200D01*
%TO.C,D17*%
X334541000Y-97354200D02*
X336781000Y-97354200D01*
X334541000Y-97114200D02*
X336781000Y-97114200D01*
X334541000Y-97234200D02*
X336781000Y-97234200D01*
X335661000Y-93064200D02*
X335661000Y-93714200D01*
X335661000Y-98604200D02*
X335661000Y-97954200D01*
X334541000Y-93714200D02*
X334541000Y-97954200D01*
X336781000Y-93714200D02*
X334541000Y-93714200D01*
X336781000Y-97954200D02*
X336781000Y-93714200D01*
X334541000Y-97954200D02*
X336781000Y-97954200D01*
%TO.C,D16*%
X315491000Y-97354200D02*
X317731000Y-97354200D01*
X315491000Y-97114200D02*
X317731000Y-97114200D01*
X315491000Y-97234200D02*
X317731000Y-97234200D01*
X316611000Y-93064200D02*
X316611000Y-93714200D01*
X316611000Y-98604200D02*
X316611000Y-97954200D01*
X315491000Y-93714200D02*
X315491000Y-97954200D01*
X317731000Y-93714200D02*
X315491000Y-93714200D01*
X317731000Y-97954200D02*
X317731000Y-93714200D01*
X315491000Y-97954200D02*
X317731000Y-97954200D01*
%TO.C,D15*%
X296314000Y-97354200D02*
X298554000Y-97354200D01*
X296314000Y-97114200D02*
X298554000Y-97114200D01*
X296314000Y-97234200D02*
X298554000Y-97234200D01*
X297434000Y-93064200D02*
X297434000Y-93714200D01*
X297434000Y-98604200D02*
X297434000Y-97954200D01*
X296314000Y-93714200D02*
X296314000Y-97954200D01*
X298554000Y-93714200D02*
X296314000Y-93714200D01*
X298554000Y-97954200D02*
X298554000Y-93714200D01*
X296314000Y-97954200D02*
X298554000Y-97954200D01*
%TO.C,D14*%
X265834000Y-97354200D02*
X268074000Y-97354200D01*
X265834000Y-97114200D02*
X268074000Y-97114200D01*
X265834000Y-97234200D02*
X268074000Y-97234200D01*
X266954000Y-93064200D02*
X266954000Y-93714200D01*
X266954000Y-98604200D02*
X266954000Y-97954200D01*
X265834000Y-93714200D02*
X265834000Y-97954200D01*
X268074000Y-93714200D02*
X265834000Y-93714200D01*
X268074000Y-97954200D02*
X268074000Y-93714200D01*
X265834000Y-97954200D02*
X268074000Y-97954200D01*
%TO.C,D13*%
X246784000Y-97354200D02*
X249024000Y-97354200D01*
X246784000Y-97114200D02*
X249024000Y-97114200D01*
X246784000Y-97234200D02*
X249024000Y-97234200D01*
X247904000Y-93064200D02*
X247904000Y-93714200D01*
X247904000Y-98604200D02*
X247904000Y-97954200D01*
X246784000Y-93714200D02*
X246784000Y-97954200D01*
X249024000Y-93714200D02*
X246784000Y-93714200D01*
X249024000Y-97954200D02*
X249024000Y-93714200D01*
X246784000Y-97954200D02*
X249024000Y-97954200D01*
%TO.C,D12*%
X227734000Y-97354200D02*
X229974000Y-97354200D01*
X227734000Y-97114200D02*
X229974000Y-97114200D01*
X227734000Y-97234200D02*
X229974000Y-97234200D01*
X228854000Y-93064200D02*
X228854000Y-93714200D01*
X228854000Y-98604200D02*
X228854000Y-97954200D01*
X227734000Y-93714200D02*
X227734000Y-97954200D01*
X229974000Y-93714200D02*
X227734000Y-93714200D01*
X229974000Y-97954200D02*
X229974000Y-93714200D01*
X227734000Y-97954200D02*
X229974000Y-97954200D01*
%TO.C,D11*%
X208822000Y-97354200D02*
X211062000Y-97354200D01*
X208822000Y-97114200D02*
X211062000Y-97114200D01*
X208822000Y-97234200D02*
X211062000Y-97234200D01*
X209942000Y-93064200D02*
X209942000Y-93714200D01*
X209942000Y-98604200D02*
X209942000Y-97954200D01*
X208822000Y-93714200D02*
X208822000Y-97954200D01*
X211062000Y-93714200D02*
X208822000Y-93714200D01*
X211062000Y-97954200D02*
X211062000Y-93714200D01*
X208822000Y-97954200D02*
X211062000Y-97954200D01*
%TO.C,D10*%
X178088000Y-97354200D02*
X180328000Y-97354200D01*
X178088000Y-97114200D02*
X180328000Y-97114200D01*
X178088000Y-97234200D02*
X180328000Y-97234200D01*
X179208000Y-93064200D02*
X179208000Y-93714200D01*
X179208000Y-98604200D02*
X179208000Y-97954200D01*
X178088000Y-93714200D02*
X178088000Y-97954200D01*
X180328000Y-93714200D02*
X178088000Y-93714200D01*
X180328000Y-97954200D02*
X180328000Y-93714200D01*
X178088000Y-97954200D02*
X180328000Y-97954200D01*
%TO.C,D9*%
X159038000Y-97354200D02*
X161278000Y-97354200D01*
X159038000Y-97114200D02*
X161278000Y-97114200D01*
X159038000Y-97234200D02*
X161278000Y-97234200D01*
X160158000Y-93064200D02*
X160158000Y-93714200D01*
X160158000Y-98604200D02*
X160158000Y-97954200D01*
X159038000Y-93714200D02*
X159038000Y-97954200D01*
X161278000Y-93714200D02*
X159038000Y-93714200D01*
X161278000Y-97954200D02*
X161278000Y-93714200D01*
X159038000Y-97954200D02*
X161278000Y-97954200D01*
%TO.C,D8*%
X139988000Y-97354200D02*
X142228000Y-97354200D01*
X139988000Y-97114200D02*
X142228000Y-97114200D01*
X139988000Y-97234200D02*
X142228000Y-97234200D01*
X141108000Y-93064200D02*
X141108000Y-93714200D01*
X141108000Y-98604200D02*
X141108000Y-97954200D01*
X139988000Y-93714200D02*
X139988000Y-97954200D01*
X142228000Y-93714200D02*
X139988000Y-93714200D01*
X142228000Y-97954200D02*
X142228000Y-93714200D01*
X139988000Y-97954200D02*
X142228000Y-97954200D01*
%TO.C,D7*%
X120927000Y-97354200D02*
X123167000Y-97354200D01*
X120927000Y-97114200D02*
X123167000Y-97114200D01*
X120927000Y-97234200D02*
X123167000Y-97234200D01*
X122047000Y-93064200D02*
X122047000Y-93714200D01*
X122047000Y-98604200D02*
X122047000Y-97954200D01*
X120927000Y-93714200D02*
X120927000Y-97954200D01*
X123167000Y-93714200D02*
X120927000Y-93714200D01*
X123167000Y-97954200D02*
X123167000Y-93714200D01*
X120927000Y-97954200D02*
X123167000Y-97954200D01*
%TO.C,D6*%
X90574000Y-97354200D02*
X92814000Y-97354200D01*
X90574000Y-97114200D02*
X92814000Y-97114200D01*
X90574000Y-97234200D02*
X92814000Y-97234200D01*
X91694000Y-93064200D02*
X91694000Y-93714200D01*
X91694000Y-98604200D02*
X91694000Y-97954200D01*
X90574000Y-93714200D02*
X90574000Y-97954200D01*
X92814000Y-93714200D02*
X90574000Y-93714200D01*
X92814000Y-97954200D02*
X92814000Y-93714200D01*
X90574000Y-97954200D02*
X92814000Y-97954200D01*
%TO.C,D5*%
X71524000Y-97354200D02*
X73764000Y-97354200D01*
X71524000Y-97114200D02*
X73764000Y-97114200D01*
X71524000Y-97234200D02*
X73764000Y-97234200D01*
X72644000Y-93064200D02*
X72644000Y-93714200D01*
X72644000Y-98604200D02*
X72644000Y-97954200D01*
X71524000Y-93714200D02*
X71524000Y-97954200D01*
X73764000Y-93714200D02*
X71524000Y-93714200D01*
X73764000Y-97954200D02*
X73764000Y-93714200D01*
X71524000Y-97954200D02*
X73764000Y-97954200D01*
%TO.C,D4*%
X52347000Y-97354200D02*
X54587000Y-97354200D01*
X52347000Y-97114200D02*
X54587000Y-97114200D01*
X52347000Y-97234200D02*
X54587000Y-97234200D01*
X53467000Y-93064200D02*
X53467000Y-93714200D01*
X53467000Y-98604200D02*
X53467000Y-97954200D01*
X52347000Y-93714200D02*
X52347000Y-97954200D01*
X54587000Y-93714200D02*
X52347000Y-93714200D01*
X54587000Y-97954200D02*
X54587000Y-93714200D01*
X52347000Y-97954200D02*
X54587000Y-97954200D01*
%TO.C,D3*%
X33297000Y-97354200D02*
X35537000Y-97354200D01*
X33297000Y-97114200D02*
X35537000Y-97114200D01*
X33297000Y-97234200D02*
X35537000Y-97234200D01*
X34417000Y-93064200D02*
X34417000Y-93714200D01*
X34417000Y-98604200D02*
X34417000Y-97954200D01*
X33297000Y-93714200D02*
X33297000Y-97954200D01*
X35537000Y-93714200D02*
X33297000Y-93714200D01*
X35537000Y-97954200D02*
X35537000Y-93714200D01*
X33297000Y-97954200D02*
X35537000Y-97954200D01*
%TO.C,XTAL1*%
X286908000Y-67689000D02*
X286908000Y-61289000D01*
X291958000Y-67689000D02*
X291958000Y-61289000D01*
X291958000Y-61289000D02*
G75*
G03*
X286908000Y-61289000I-2525000J0D01*
G01*
X291958000Y-67689000D02*
G75*
G02*
X286908000Y-67689000I-2525000J0D01*
G01*
%TO.C,U1*%
X283587500Y-63516000D02*
X283587500Y-58056000D01*
X283587500Y-58056000D02*
X232667500Y-58056000D01*
X232667500Y-58056000D02*
X232667500Y-70976000D01*
X232667500Y-70976000D02*
X283587500Y-70976000D01*
X283587500Y-70976000D02*
X283587500Y-65516000D01*
X283647500Y-55566000D02*
X232607500Y-55566000D01*
X232607500Y-55566000D02*
X232607500Y-73466000D01*
X232607500Y-73466000D02*
X283647500Y-73466000D01*
X283647500Y-73466000D02*
X283647500Y-55566000D01*
X283587500Y-65516000D02*
G75*
G02*
X283587500Y-63516000I0J1000000D01*
G01*
%TO.C,Reset1*%
X313420000Y-65825000D02*
X317920000Y-65825000D01*
X312170000Y-61825000D02*
X312170000Y-63325000D01*
X317920000Y-59325000D02*
X313420000Y-59325000D01*
X319170000Y-63325000D02*
X319170000Y-61825000D01*
%TO.C,R4*%
X325088000Y-71474000D02*
X325088000Y-68734000D01*
X325088000Y-68734000D02*
X318548000Y-68734000D01*
X318548000Y-68734000D02*
X318548000Y-71474000D01*
X318548000Y-71474000D02*
X325088000Y-71474000D01*
X325858000Y-70104000D02*
X325088000Y-70104000D01*
X317778000Y-70104000D02*
X318548000Y-70104000D01*
%TO.C,R3*%
X94134000Y-66770000D02*
X96874000Y-66770000D01*
X96874000Y-66770000D02*
X96874000Y-60230000D01*
X96874000Y-60230000D02*
X94134000Y-60230000D01*
X94134000Y-60230000D02*
X94134000Y-66770000D01*
X95504000Y-67540000D02*
X95504000Y-66770000D01*
X95504000Y-59460000D02*
X95504000Y-60230000D01*
%TO.C,R2*%
X89816000Y-66770000D02*
X92556000Y-66770000D01*
X92556000Y-66770000D02*
X92556000Y-60230000D01*
X92556000Y-60230000D02*
X89816000Y-60230000D01*
X89816000Y-60230000D02*
X89816000Y-66770000D01*
X91186000Y-67540000D02*
X91186000Y-66770000D01*
X91186000Y-59460000D02*
X91186000Y-60230000D01*
%TO.C,R1*%
X85244000Y-66770000D02*
X87984000Y-66770000D01*
X87984000Y-66770000D02*
X87984000Y-60230000D01*
X87984000Y-60230000D02*
X85244000Y-60230000D01*
X85244000Y-60230000D02*
X85244000Y-66770000D01*
X86614000Y-67540000D02*
X86614000Y-66770000D01*
X86614000Y-59460000D02*
X86614000Y-60230000D01*
%TO.C,J1*%
X359453000Y-59376000D02*
X359453000Y-67116000D01*
X359453000Y-67116000D02*
X362113000Y-67116000D01*
X362113000Y-67116000D02*
X362113000Y-59376000D01*
X362113000Y-59376000D02*
X359453000Y-59376000D01*
X362113000Y-60326000D02*
X368113000Y-60326000D01*
X368113000Y-60326000D02*
X368113000Y-61086000D01*
X368113000Y-61086000D02*
X362113000Y-61086000D01*
X362113000Y-60386000D02*
X368113000Y-60386000D01*
X362113000Y-60506000D02*
X368113000Y-60506000D01*
X362113000Y-60626000D02*
X368113000Y-60626000D01*
X362113000Y-60746000D02*
X368113000Y-60746000D01*
X362113000Y-60866000D02*
X368113000Y-60866000D01*
X362113000Y-60986000D02*
X368113000Y-60986000D01*
X359055929Y-60326000D02*
X359453000Y-60326000D01*
X359055929Y-61086000D02*
X359453000Y-61086000D01*
X356583000Y-60326000D02*
X356970071Y-60326000D01*
X356583000Y-61086000D02*
X356970071Y-61086000D01*
X359453000Y-61976000D02*
X362113000Y-61976000D01*
X362113000Y-62866000D02*
X368113000Y-62866000D01*
X368113000Y-62866000D02*
X368113000Y-63626000D01*
X368113000Y-63626000D02*
X362113000Y-63626000D01*
X359055929Y-62866000D02*
X359453000Y-62866000D01*
X359055929Y-63626000D02*
X359453000Y-63626000D01*
X356515929Y-62866000D02*
X356970071Y-62866000D01*
X356515929Y-63626000D02*
X356970071Y-63626000D01*
X359453000Y-64516000D02*
X362113000Y-64516000D01*
X362113000Y-65406000D02*
X368113000Y-65406000D01*
X368113000Y-65406000D02*
X368113000Y-66166000D01*
X368113000Y-66166000D02*
X362113000Y-66166000D01*
X359055929Y-65406000D02*
X359453000Y-65406000D01*
X359055929Y-66166000D02*
X359453000Y-66166000D01*
X356515929Y-65406000D02*
X356970071Y-65406000D01*
X356515929Y-66166000D02*
X356970071Y-66166000D01*
X354203000Y-60706000D02*
X354203000Y-59436000D01*
X354203000Y-59436000D02*
X355473000Y-59436000D01*
%TO.C,F1*%
X65457000Y-69430000D02*
X56717000Y-69430000D01*
X65457000Y-69430000D02*
X65457000Y-65190000D01*
X56717000Y-65190000D02*
X56717000Y-69430000D01*
X56717000Y-65190000D02*
X65457000Y-65190000D01*
%TO.C,D2*%
X102385000Y-65747000D02*
X104625000Y-65747000D01*
X104625000Y-65747000D02*
X104625000Y-61507000D01*
X104625000Y-61507000D02*
X102385000Y-61507000D01*
X102385000Y-61507000D02*
X102385000Y-65747000D01*
X103505000Y-66397000D02*
X103505000Y-65747000D01*
X103505000Y-60857000D02*
X103505000Y-61507000D01*
X102385000Y-65027000D02*
X104625000Y-65027000D01*
X102385000Y-64907000D02*
X104625000Y-64907000D01*
X102385000Y-65147000D02*
X104625000Y-65147000D01*
%TO.C,D1*%
X98829000Y-65747000D02*
X101069000Y-65747000D01*
X101069000Y-65747000D02*
X101069000Y-61507000D01*
X101069000Y-61507000D02*
X98829000Y-61507000D01*
X98829000Y-61507000D02*
X98829000Y-65747000D01*
X99949000Y-66397000D02*
X99949000Y-65747000D01*
X99949000Y-60857000D02*
X99949000Y-61507000D01*
X98829000Y-65027000D02*
X101069000Y-65027000D01*
X98829000Y-64907000D02*
X101069000Y-64907000D01*
X98829000Y-65147000D02*
X101069000Y-65147000D01*
%TO.C,C5*%
X286146000Y-55399000D02*
X292386000Y-55399000D01*
X286146000Y-58139000D02*
X292386000Y-58139000D01*
X286146000Y-55399000D02*
X286146000Y-55844000D01*
X286146000Y-57694000D02*
X286146000Y-58139000D01*
X292386000Y-55399000D02*
X292386000Y-55844000D01*
X292386000Y-57694000D02*
X292386000Y-58139000D01*
%TO.C,C4*%
X286273000Y-70893000D02*
X292513000Y-70893000D01*
X286273000Y-73633000D02*
X292513000Y-73633000D01*
X286273000Y-70893000D02*
X286273000Y-71338000D01*
X286273000Y-73188000D02*
X286273000Y-73633000D01*
X292513000Y-70893000D02*
X292513000Y-71338000D01*
X292513000Y-73188000D02*
X292513000Y-73633000D01*
%TO.C,C3*%
X256551000Y-67968000D02*
X259791000Y-67968000D01*
X256551000Y-70208000D02*
X259791000Y-70208000D01*
X256551000Y-67968000D02*
X256551000Y-68033000D01*
X256551000Y-70143000D02*
X256551000Y-70208000D01*
X259791000Y-67968000D02*
X259791000Y-68033000D01*
X259791000Y-70143000D02*
X259791000Y-70208000D01*
%TO.C,C2*%
X259704000Y-54841000D02*
X256464000Y-54841000D01*
X259704000Y-52601000D02*
X256464000Y-52601000D01*
X259704000Y-54841000D02*
X259704000Y-54776000D01*
X259704000Y-52666000D02*
X259704000Y-52601000D01*
X256464000Y-54841000D02*
X256464000Y-54776000D01*
X256464000Y-52666000D02*
X256464000Y-52601000D01*
%TO.C,C1*%
X75387000Y-67310000D02*
G75*
G03*
X75387000Y-67310000I-2120000J0D01*
G01*
X73267000Y-68150000D02*
X73267000Y-69390000D01*
X73267000Y-65230000D02*
X73267000Y-66470000D01*
X73307000Y-68150000D02*
X73307000Y-69390000D01*
X73307000Y-65230000D02*
X73307000Y-66470000D01*
X73347000Y-68150000D02*
X73347000Y-69389000D01*
X73347000Y-65231000D02*
X73347000Y-66470000D01*
X73387000Y-65233000D02*
X73387000Y-66470000D01*
X73387000Y-68150000D02*
X73387000Y-69387000D01*
X73427000Y-65236000D02*
X73427000Y-66470000D01*
X73427000Y-68150000D02*
X73427000Y-69384000D01*
X73467000Y-65239000D02*
X73467000Y-66470000D01*
X73467000Y-68150000D02*
X73467000Y-69381000D01*
X73507000Y-65243000D02*
X73507000Y-66470000D01*
X73507000Y-68150000D02*
X73507000Y-69377000D01*
X73547000Y-65248000D02*
X73547000Y-66470000D01*
X73547000Y-68150000D02*
X73547000Y-69372000D01*
X73587000Y-65254000D02*
X73587000Y-66470000D01*
X73587000Y-68150000D02*
X73587000Y-69366000D01*
X73627000Y-65260000D02*
X73627000Y-66470000D01*
X73627000Y-68150000D02*
X73627000Y-69360000D01*
X73667000Y-65268000D02*
X73667000Y-66470000D01*
X73667000Y-68150000D02*
X73667000Y-69352000D01*
X73707000Y-65276000D02*
X73707000Y-66470000D01*
X73707000Y-68150000D02*
X73707000Y-69344000D01*
X73747000Y-65285000D02*
X73747000Y-66470000D01*
X73747000Y-68150000D02*
X73747000Y-69335000D01*
X73787000Y-65294000D02*
X73787000Y-66470000D01*
X73787000Y-68150000D02*
X73787000Y-69326000D01*
X73827000Y-65305000D02*
X73827000Y-66470000D01*
X73827000Y-68150000D02*
X73827000Y-69315000D01*
X73867000Y-65316000D02*
X73867000Y-66470000D01*
X73867000Y-68150000D02*
X73867000Y-69304000D01*
X73907000Y-65328000D02*
X73907000Y-66470000D01*
X73907000Y-68150000D02*
X73907000Y-69292000D01*
X73947000Y-65342000D02*
X73947000Y-66470000D01*
X73947000Y-68150000D02*
X73947000Y-69278000D01*
X73988000Y-65356000D02*
X73988000Y-66470000D01*
X73988000Y-68150000D02*
X73988000Y-69264000D01*
X74028000Y-65370000D02*
X74028000Y-66470000D01*
X74028000Y-68150000D02*
X74028000Y-69250000D01*
X74068000Y-65386000D02*
X74068000Y-66470000D01*
X74068000Y-68150000D02*
X74068000Y-69234000D01*
X74108000Y-65403000D02*
X74108000Y-66470000D01*
X74108000Y-68150000D02*
X74108000Y-69217000D01*
X74148000Y-65421000D02*
X74148000Y-66470000D01*
X74148000Y-68150000D02*
X74148000Y-69199000D01*
X74188000Y-65440000D02*
X74188000Y-66470000D01*
X74188000Y-68150000D02*
X74188000Y-69180000D01*
X74228000Y-65459000D02*
X74228000Y-66470000D01*
X74228000Y-68150000D02*
X74228000Y-69161000D01*
X74268000Y-65480000D02*
X74268000Y-66470000D01*
X74268000Y-68150000D02*
X74268000Y-69140000D01*
X74308000Y-65502000D02*
X74308000Y-66470000D01*
X74308000Y-68150000D02*
X74308000Y-69118000D01*
X74348000Y-65525000D02*
X74348000Y-66470000D01*
X74348000Y-68150000D02*
X74348000Y-69095000D01*
X74388000Y-65550000D02*
X74388000Y-66470000D01*
X74388000Y-68150000D02*
X74388000Y-69070000D01*
X74428000Y-65575000D02*
X74428000Y-66470000D01*
X74428000Y-68150000D02*
X74428000Y-69045000D01*
X74468000Y-65602000D02*
X74468000Y-66470000D01*
X74468000Y-68150000D02*
X74468000Y-69018000D01*
X74508000Y-65630000D02*
X74508000Y-66470000D01*
X74508000Y-68150000D02*
X74508000Y-68990000D01*
X74548000Y-65660000D02*
X74548000Y-66470000D01*
X74548000Y-68150000D02*
X74548000Y-68960000D01*
X74588000Y-65691000D02*
X74588000Y-66470000D01*
X74588000Y-68150000D02*
X74588000Y-68929000D01*
X74628000Y-65723000D02*
X74628000Y-66470000D01*
X74628000Y-68150000D02*
X74628000Y-68897000D01*
X74668000Y-65758000D02*
X74668000Y-66470000D01*
X74668000Y-68150000D02*
X74668000Y-68862000D01*
X74708000Y-65794000D02*
X74708000Y-66470000D01*
X74708000Y-68150000D02*
X74708000Y-68826000D01*
X74748000Y-65832000D02*
X74748000Y-66470000D01*
X74748000Y-68150000D02*
X74748000Y-68788000D01*
X74788000Y-65872000D02*
X74788000Y-66470000D01*
X74788000Y-68150000D02*
X74788000Y-68748000D01*
X74828000Y-65914000D02*
X74828000Y-66470000D01*
X74828000Y-68150000D02*
X74828000Y-68706000D01*
X74868000Y-65959000D02*
X74868000Y-68661000D01*
X74908000Y-66006000D02*
X74908000Y-68614000D01*
X74948000Y-66056000D02*
X74948000Y-68564000D01*
X74988000Y-66110000D02*
X74988000Y-68510000D01*
X75028000Y-66168000D02*
X75028000Y-68452000D01*
X75068000Y-66230000D02*
X75068000Y-68390000D01*
X75108000Y-66297000D02*
X75108000Y-68323000D01*
X75148000Y-66370000D02*
X75148000Y-68250000D01*
X75188000Y-66451000D02*
X75188000Y-68169000D01*
X75228000Y-66542000D02*
X75228000Y-68078000D01*
X75268000Y-66646000D02*
X75268000Y-67974000D01*
X75308000Y-66773000D02*
X75308000Y-67847000D01*
X75348000Y-66940000D02*
X75348000Y-67680000D01*
X70997199Y-66115000D02*
X71397199Y-66115000D01*
X71197199Y-65915000D02*
X71197199Y-66315000D01*
%TO.C,Boot1*%
X326374000Y-65825000D02*
X330874000Y-65825000D01*
X325124000Y-61825000D02*
X325124000Y-63325000D01*
X330874000Y-59325000D02*
X326374000Y-59325000D01*
X332124000Y-63325000D02*
X332124000Y-61825000D01*
%TO.C,USB1*%
D10*
X42203904Y-52067380D02*
X42203904Y-52876904D01*
X42251523Y-52972142D01*
X42299142Y-53019761D01*
X42394380Y-53067380D01*
X42584857Y-53067380D01*
X42680095Y-53019761D01*
X42727714Y-52972142D01*
X42775333Y-52876904D01*
X42775333Y-52067380D01*
X43203904Y-53019761D02*
X43346761Y-53067380D01*
X43584857Y-53067380D01*
X43680095Y-53019761D01*
X43727714Y-52972142D01*
X43775333Y-52876904D01*
X43775333Y-52781666D01*
X43727714Y-52686428D01*
X43680095Y-52638809D01*
X43584857Y-52591190D01*
X43394380Y-52543571D01*
X43299142Y-52495952D01*
X43251523Y-52448333D01*
X43203904Y-52353095D01*
X43203904Y-52257857D01*
X43251523Y-52162619D01*
X43299142Y-52115000D01*
X43394380Y-52067380D01*
X43632476Y-52067380D01*
X43775333Y-52115000D01*
X44537238Y-52543571D02*
X44680095Y-52591190D01*
X44727714Y-52638809D01*
X44775333Y-52734047D01*
X44775333Y-52876904D01*
X44727714Y-52972142D01*
X44680095Y-53019761D01*
X44584857Y-53067380D01*
X44203904Y-53067380D01*
X44203904Y-52067380D01*
X44537238Y-52067380D01*
X44632476Y-52115000D01*
X44680095Y-52162619D01*
X44727714Y-52257857D01*
X44727714Y-52353095D01*
X44680095Y-52448333D01*
X44632476Y-52495952D01*
X44537238Y-52543571D01*
X44203904Y-52543571D01*
X45727714Y-53067380D02*
X45156285Y-53067380D01*
X45442000Y-53067380D02*
X45442000Y-52067380D01*
X45346761Y-52210238D01*
X45251523Y-52305476D01*
X45156285Y-52353095D01*
%TO.C,D32*%
X244546380Y-126881285D02*
X243546380Y-126881285D01*
X243546380Y-126643190D01*
X243594000Y-126500333D01*
X243689238Y-126405095D01*
X243784476Y-126357476D01*
X243974952Y-126309857D01*
X244117809Y-126309857D01*
X244308285Y-126357476D01*
X244403523Y-126405095D01*
X244498761Y-126500333D01*
X244546380Y-126643190D01*
X244546380Y-126881285D01*
X243546380Y-125976523D02*
X243546380Y-125357476D01*
X243927333Y-125690809D01*
X243927333Y-125547952D01*
X243974952Y-125452714D01*
X244022571Y-125405095D01*
X244117809Y-125357476D01*
X244355904Y-125357476D01*
X244451142Y-125405095D01*
X244498761Y-125452714D01*
X244546380Y-125547952D01*
X244546380Y-125833666D01*
X244498761Y-125928904D01*
X244451142Y-125976523D01*
X243641619Y-124976523D02*
X243594000Y-124928904D01*
X243546380Y-124833666D01*
X243546380Y-124595571D01*
X243594000Y-124500333D01*
X243641619Y-124452714D01*
X243736857Y-124405095D01*
X243832095Y-124405095D01*
X243974952Y-124452714D01*
X244546380Y-125024142D01*
X244546380Y-124405095D01*
%TO.C,D103*%
X385541780Y-184240776D02*
X384541780Y-184240776D01*
X384541780Y-184002680D01*
X384589400Y-183859823D01*
X384684638Y-183764585D01*
X384779876Y-183716966D01*
X384970352Y-183669347D01*
X385113209Y-183669347D01*
X385303685Y-183716966D01*
X385398923Y-183764585D01*
X385494161Y-183859823D01*
X385541780Y-184002680D01*
X385541780Y-184240776D01*
X385541780Y-182716966D02*
X385541780Y-183288395D01*
X385541780Y-183002680D02*
X384541780Y-183002680D01*
X384684638Y-183097919D01*
X384779876Y-183193157D01*
X384827495Y-183288395D01*
X384541780Y-182097919D02*
X384541780Y-182002680D01*
X384589400Y-181907442D01*
X384637019Y-181859823D01*
X384732257Y-181812204D01*
X384922733Y-181764585D01*
X385160828Y-181764585D01*
X385351304Y-181812204D01*
X385446542Y-181859823D01*
X385494161Y-181907442D01*
X385541780Y-182002680D01*
X385541780Y-182097919D01*
X385494161Y-182193157D01*
X385446542Y-182240776D01*
X385351304Y-182288395D01*
X385160828Y-182336014D01*
X384922733Y-182336014D01*
X384732257Y-182288395D01*
X384637019Y-182240776D01*
X384589400Y-182193157D01*
X384541780Y-182097919D01*
X384541780Y-181431252D02*
X384541780Y-180812204D01*
X384922733Y-181145538D01*
X384922733Y-181002680D01*
X384970352Y-180907442D01*
X385017971Y-180859823D01*
X385113209Y-180812204D01*
X385351304Y-180812204D01*
X385446542Y-180859823D01*
X385494161Y-180907442D01*
X385541780Y-181002680D01*
X385541780Y-181288395D01*
X385494161Y-181383633D01*
X385446542Y-181431252D01*
%TO.C,D102*%
X385541780Y-203417776D02*
X384541780Y-203417776D01*
X384541780Y-203179680D01*
X384589400Y-203036823D01*
X384684638Y-202941585D01*
X384779876Y-202893966D01*
X384970352Y-202846347D01*
X385113209Y-202846347D01*
X385303685Y-202893966D01*
X385398923Y-202941585D01*
X385494161Y-203036823D01*
X385541780Y-203179680D01*
X385541780Y-203417776D01*
X385541780Y-201893966D02*
X385541780Y-202465395D01*
X385541780Y-202179680D02*
X384541780Y-202179680D01*
X384684638Y-202274919D01*
X384779876Y-202370157D01*
X384827495Y-202465395D01*
X384541780Y-201274919D02*
X384541780Y-201179680D01*
X384589400Y-201084442D01*
X384637019Y-201036823D01*
X384732257Y-200989204D01*
X384922733Y-200941585D01*
X385160828Y-200941585D01*
X385351304Y-200989204D01*
X385446542Y-201036823D01*
X385494161Y-201084442D01*
X385541780Y-201179680D01*
X385541780Y-201274919D01*
X385494161Y-201370157D01*
X385446542Y-201417776D01*
X385351304Y-201465395D01*
X385160828Y-201513014D01*
X384922733Y-201513014D01*
X384732257Y-201465395D01*
X384637019Y-201417776D01*
X384589400Y-201370157D01*
X384541780Y-201274919D01*
X384637019Y-200560633D02*
X384589400Y-200513014D01*
X384541780Y-200417776D01*
X384541780Y-200179680D01*
X384589400Y-200084442D01*
X384637019Y-200036823D01*
X384732257Y-199989204D01*
X384827495Y-199989204D01*
X384970352Y-200036823D01*
X385541780Y-200608252D01*
X385541780Y-199989204D01*
%TO.C,D101*%
X366491780Y-203417776D02*
X365491780Y-203417776D01*
X365491780Y-203179680D01*
X365539400Y-203036823D01*
X365634638Y-202941585D01*
X365729876Y-202893966D01*
X365920352Y-202846347D01*
X366063209Y-202846347D01*
X366253685Y-202893966D01*
X366348923Y-202941585D01*
X366444161Y-203036823D01*
X366491780Y-203179680D01*
X366491780Y-203417776D01*
X366491780Y-201893966D02*
X366491780Y-202465395D01*
X366491780Y-202179680D02*
X365491780Y-202179680D01*
X365634638Y-202274919D01*
X365729876Y-202370157D01*
X365777495Y-202465395D01*
X365491780Y-201274919D02*
X365491780Y-201179680D01*
X365539400Y-201084442D01*
X365587019Y-201036823D01*
X365682257Y-200989204D01*
X365872733Y-200941585D01*
X366110828Y-200941585D01*
X366301304Y-200989204D01*
X366396542Y-201036823D01*
X366444161Y-201084442D01*
X366491780Y-201179680D01*
X366491780Y-201274919D01*
X366444161Y-201370157D01*
X366396542Y-201417776D01*
X366301304Y-201465395D01*
X366110828Y-201513014D01*
X365872733Y-201513014D01*
X365682257Y-201465395D01*
X365587019Y-201417776D01*
X365539400Y-201370157D01*
X365491780Y-201274919D01*
X366491780Y-199989204D02*
X366491780Y-200560633D01*
X366491780Y-200274919D02*
X365491780Y-200274919D01*
X365634638Y-200370157D01*
X365729876Y-200465395D01*
X365777495Y-200560633D01*
%TO.C,D100*%
X315920380Y-203430476D02*
X314920380Y-203430476D01*
X314920380Y-203192380D01*
X314968000Y-203049523D01*
X315063238Y-202954285D01*
X315158476Y-202906666D01*
X315348952Y-202859047D01*
X315491809Y-202859047D01*
X315682285Y-202906666D01*
X315777523Y-202954285D01*
X315872761Y-203049523D01*
X315920380Y-203192380D01*
X315920380Y-203430476D01*
X315920380Y-201906666D02*
X315920380Y-202478095D01*
X315920380Y-202192380D02*
X314920380Y-202192380D01*
X315063238Y-202287619D01*
X315158476Y-202382857D01*
X315206095Y-202478095D01*
X314920380Y-201287619D02*
X314920380Y-201192380D01*
X314968000Y-201097142D01*
X315015619Y-201049523D01*
X315110857Y-201001904D01*
X315301333Y-200954285D01*
X315539428Y-200954285D01*
X315729904Y-201001904D01*
X315825142Y-201049523D01*
X315872761Y-201097142D01*
X315920380Y-201192380D01*
X315920380Y-201287619D01*
X315872761Y-201382857D01*
X315825142Y-201430476D01*
X315729904Y-201478095D01*
X315539428Y-201525714D01*
X315301333Y-201525714D01*
X315110857Y-201478095D01*
X315015619Y-201430476D01*
X314968000Y-201382857D01*
X314920380Y-201287619D01*
X314920380Y-200335238D02*
X314920380Y-200240000D01*
X314968000Y-200144761D01*
X315015619Y-200097142D01*
X315110857Y-200049523D01*
X315301333Y-200001904D01*
X315539428Y-200001904D01*
X315729904Y-200049523D01*
X315825142Y-200097142D01*
X315872761Y-200144761D01*
X315920380Y-200240000D01*
X315920380Y-200335238D01*
X315872761Y-200430476D01*
X315825142Y-200478095D01*
X315729904Y-200525714D01*
X315539428Y-200573333D01*
X315301333Y-200573333D01*
X315110857Y-200525714D01*
X315015619Y-200478095D01*
X314968000Y-200430476D01*
X314920380Y-200335238D01*
%TO.C,D99*%
X296870380Y-202954285D02*
X295870380Y-202954285D01*
X295870380Y-202716190D01*
X295918000Y-202573333D01*
X296013238Y-202478095D01*
X296108476Y-202430476D01*
X296298952Y-202382857D01*
X296441809Y-202382857D01*
X296632285Y-202430476D01*
X296727523Y-202478095D01*
X296822761Y-202573333D01*
X296870380Y-202716190D01*
X296870380Y-202954285D01*
X296870380Y-201906666D02*
X296870380Y-201716190D01*
X296822761Y-201620952D01*
X296775142Y-201573333D01*
X296632285Y-201478095D01*
X296441809Y-201430476D01*
X296060857Y-201430476D01*
X295965619Y-201478095D01*
X295918000Y-201525714D01*
X295870380Y-201620952D01*
X295870380Y-201811428D01*
X295918000Y-201906666D01*
X295965619Y-201954285D01*
X296060857Y-202001904D01*
X296298952Y-202001904D01*
X296394190Y-201954285D01*
X296441809Y-201906666D01*
X296489428Y-201811428D01*
X296489428Y-201620952D01*
X296441809Y-201525714D01*
X296394190Y-201478095D01*
X296298952Y-201430476D01*
X296870380Y-200954285D02*
X296870380Y-200763809D01*
X296822761Y-200668571D01*
X296775142Y-200620952D01*
X296632285Y-200525714D01*
X296441809Y-200478095D01*
X296060857Y-200478095D01*
X295965619Y-200525714D01*
X295918000Y-200573333D01*
X295870380Y-200668571D01*
X295870380Y-200859047D01*
X295918000Y-200954285D01*
X295965619Y-201001904D01*
X296060857Y-201049523D01*
X296298952Y-201049523D01*
X296394190Y-201001904D01*
X296441809Y-200954285D01*
X296489428Y-200859047D01*
X296489428Y-200668571D01*
X296441809Y-200573333D01*
X296394190Y-200525714D01*
X296298952Y-200478095D01*
%TO.C,D98*%
X277885580Y-202954285D02*
X276885580Y-202954285D01*
X276885580Y-202716190D01*
X276933200Y-202573333D01*
X277028438Y-202478095D01*
X277123676Y-202430476D01*
X277314152Y-202382857D01*
X277457009Y-202382857D01*
X277647485Y-202430476D01*
X277742723Y-202478095D01*
X277837961Y-202573333D01*
X277885580Y-202716190D01*
X277885580Y-202954285D01*
X277885580Y-201906666D02*
X277885580Y-201716190D01*
X277837961Y-201620952D01*
X277790342Y-201573333D01*
X277647485Y-201478095D01*
X277457009Y-201430476D01*
X277076057Y-201430476D01*
X276980819Y-201478095D01*
X276933200Y-201525714D01*
X276885580Y-201620952D01*
X276885580Y-201811428D01*
X276933200Y-201906666D01*
X276980819Y-201954285D01*
X277076057Y-202001904D01*
X277314152Y-202001904D01*
X277409390Y-201954285D01*
X277457009Y-201906666D01*
X277504628Y-201811428D01*
X277504628Y-201620952D01*
X277457009Y-201525714D01*
X277409390Y-201478095D01*
X277314152Y-201430476D01*
X277314152Y-200859047D02*
X277266533Y-200954285D01*
X277218914Y-201001904D01*
X277123676Y-201049523D01*
X277076057Y-201049523D01*
X276980819Y-201001904D01*
X276933200Y-200954285D01*
X276885580Y-200859047D01*
X276885580Y-200668571D01*
X276933200Y-200573333D01*
X276980819Y-200525714D01*
X277076057Y-200478095D01*
X277123676Y-200478095D01*
X277218914Y-200525714D01*
X277266533Y-200573333D01*
X277314152Y-200668571D01*
X277314152Y-200859047D01*
X277361771Y-200954285D01*
X277409390Y-201001904D01*
X277504628Y-201049523D01*
X277695104Y-201049523D01*
X277790342Y-201001904D01*
X277837961Y-200954285D01*
X277885580Y-200859047D01*
X277885580Y-200668571D01*
X277837961Y-200573333D01*
X277790342Y-200525714D01*
X277695104Y-200478095D01*
X277504628Y-200478095D01*
X277409390Y-200525714D01*
X277361771Y-200573333D01*
X277314152Y-200668571D01*
%TO.C,D97*%
X258643380Y-202954285D02*
X257643380Y-202954285D01*
X257643380Y-202716190D01*
X257691000Y-202573333D01*
X257786238Y-202478095D01*
X257881476Y-202430476D01*
X258071952Y-202382857D01*
X258214809Y-202382857D01*
X258405285Y-202430476D01*
X258500523Y-202478095D01*
X258595761Y-202573333D01*
X258643380Y-202716190D01*
X258643380Y-202954285D01*
X258643380Y-201906666D02*
X258643380Y-201716190D01*
X258595761Y-201620952D01*
X258548142Y-201573333D01*
X258405285Y-201478095D01*
X258214809Y-201430476D01*
X257833857Y-201430476D01*
X257738619Y-201478095D01*
X257691000Y-201525714D01*
X257643380Y-201620952D01*
X257643380Y-201811428D01*
X257691000Y-201906666D01*
X257738619Y-201954285D01*
X257833857Y-202001904D01*
X258071952Y-202001904D01*
X258167190Y-201954285D01*
X258214809Y-201906666D01*
X258262428Y-201811428D01*
X258262428Y-201620952D01*
X258214809Y-201525714D01*
X258167190Y-201478095D01*
X258071952Y-201430476D01*
X257643380Y-201097142D02*
X257643380Y-200430476D01*
X258643380Y-200859047D01*
%TO.C,D96*%
X159202380Y-201303285D02*
X158202380Y-201303285D01*
X158202380Y-201065190D01*
X158250000Y-200922333D01*
X158345238Y-200827095D01*
X158440476Y-200779476D01*
X158630952Y-200731857D01*
X158773809Y-200731857D01*
X158964285Y-200779476D01*
X159059523Y-200827095D01*
X159154761Y-200922333D01*
X159202380Y-201065190D01*
X159202380Y-201303285D01*
X159202380Y-200255666D02*
X159202380Y-200065190D01*
X159154761Y-199969952D01*
X159107142Y-199922333D01*
X158964285Y-199827095D01*
X158773809Y-199779476D01*
X158392857Y-199779476D01*
X158297619Y-199827095D01*
X158250000Y-199874714D01*
X158202380Y-199969952D01*
X158202380Y-200160428D01*
X158250000Y-200255666D01*
X158297619Y-200303285D01*
X158392857Y-200350904D01*
X158630952Y-200350904D01*
X158726190Y-200303285D01*
X158773809Y-200255666D01*
X158821428Y-200160428D01*
X158821428Y-199969952D01*
X158773809Y-199874714D01*
X158726190Y-199827095D01*
X158630952Y-199779476D01*
X158202380Y-198922333D02*
X158202380Y-199112809D01*
X158250000Y-199208047D01*
X158297619Y-199255666D01*
X158440476Y-199350904D01*
X158630952Y-199398523D01*
X159011904Y-199398523D01*
X159107142Y-199350904D01*
X159154761Y-199303285D01*
X159202380Y-199208047D01*
X159202380Y-199017571D01*
X159154761Y-198922333D01*
X159107142Y-198874714D01*
X159011904Y-198827095D01*
X158773809Y-198827095D01*
X158678571Y-198874714D01*
X158630952Y-198922333D01*
X158583333Y-199017571D01*
X158583333Y-199208047D01*
X158630952Y-199303285D01*
X158678571Y-199350904D01*
X158773809Y-199398523D01*
%TO.C,D95*%
X54046380Y-201303285D02*
X53046380Y-201303285D01*
X53046380Y-201065190D01*
X53094000Y-200922333D01*
X53189238Y-200827095D01*
X53284476Y-200779476D01*
X53474952Y-200731857D01*
X53617809Y-200731857D01*
X53808285Y-200779476D01*
X53903523Y-200827095D01*
X53998761Y-200922333D01*
X54046380Y-201065190D01*
X54046380Y-201303285D01*
X54046380Y-200255666D02*
X54046380Y-200065190D01*
X53998761Y-199969952D01*
X53951142Y-199922333D01*
X53808285Y-199827095D01*
X53617809Y-199779476D01*
X53236857Y-199779476D01*
X53141619Y-199827095D01*
X53094000Y-199874714D01*
X53046380Y-199969952D01*
X53046380Y-200160428D01*
X53094000Y-200255666D01*
X53141619Y-200303285D01*
X53236857Y-200350904D01*
X53474952Y-200350904D01*
X53570190Y-200303285D01*
X53617809Y-200255666D01*
X53665428Y-200160428D01*
X53665428Y-199969952D01*
X53617809Y-199874714D01*
X53570190Y-199827095D01*
X53474952Y-199779476D01*
X53046380Y-198874714D02*
X53046380Y-199350904D01*
X53522571Y-199398523D01*
X53474952Y-199350904D01*
X53427333Y-199255666D01*
X53427333Y-199017571D01*
X53474952Y-198922333D01*
X53522571Y-198874714D01*
X53617809Y-198827095D01*
X53855904Y-198827095D01*
X53951142Y-198874714D01*
X53998761Y-198922333D01*
X54046380Y-199017571D01*
X54046380Y-199255666D01*
X53998761Y-199350904D01*
X53951142Y-199398523D01*
%TO.C,D94*%
X366491780Y-183764585D02*
X365491780Y-183764585D01*
X365491780Y-183526490D01*
X365539400Y-183383633D01*
X365634638Y-183288395D01*
X365729876Y-183240776D01*
X365920352Y-183193157D01*
X366063209Y-183193157D01*
X366253685Y-183240776D01*
X366348923Y-183288395D01*
X366444161Y-183383633D01*
X366491780Y-183526490D01*
X366491780Y-183764585D01*
X366491780Y-182716966D02*
X366491780Y-182526490D01*
X366444161Y-182431252D01*
X366396542Y-182383633D01*
X366253685Y-182288395D01*
X366063209Y-182240776D01*
X365682257Y-182240776D01*
X365587019Y-182288395D01*
X365539400Y-182336014D01*
X365491780Y-182431252D01*
X365491780Y-182621728D01*
X365539400Y-182716966D01*
X365587019Y-182764585D01*
X365682257Y-182812204D01*
X365920352Y-182812204D01*
X366015590Y-182764585D01*
X366063209Y-182716966D01*
X366110828Y-182621728D01*
X366110828Y-182431252D01*
X366063209Y-182336014D01*
X366015590Y-182288395D01*
X365920352Y-182240776D01*
X365825114Y-181383633D02*
X366491780Y-181383633D01*
X365444161Y-181621728D02*
X366158447Y-181859823D01*
X366158447Y-181240776D01*
%TO.C,D93*%
X347441780Y-183764585D02*
X346441780Y-183764585D01*
X346441780Y-183526490D01*
X346489400Y-183383633D01*
X346584638Y-183288395D01*
X346679876Y-183240776D01*
X346870352Y-183193157D01*
X347013209Y-183193157D01*
X347203685Y-183240776D01*
X347298923Y-183288395D01*
X347394161Y-183383633D01*
X347441780Y-183526490D01*
X347441780Y-183764585D01*
X347441780Y-182716966D02*
X347441780Y-182526490D01*
X347394161Y-182431252D01*
X347346542Y-182383633D01*
X347203685Y-182288395D01*
X347013209Y-182240776D01*
X346632257Y-182240776D01*
X346537019Y-182288395D01*
X346489400Y-182336014D01*
X346441780Y-182431252D01*
X346441780Y-182621728D01*
X346489400Y-182716966D01*
X346537019Y-182764585D01*
X346632257Y-182812204D01*
X346870352Y-182812204D01*
X346965590Y-182764585D01*
X347013209Y-182716966D01*
X347060828Y-182621728D01*
X347060828Y-182431252D01*
X347013209Y-182336014D01*
X346965590Y-182288395D01*
X346870352Y-182240776D01*
X346441780Y-181907442D02*
X346441780Y-181288395D01*
X346822733Y-181621728D01*
X346822733Y-181478871D01*
X346870352Y-181383633D01*
X346917971Y-181336014D01*
X347013209Y-181288395D01*
X347251304Y-181288395D01*
X347346542Y-181336014D01*
X347394161Y-181383633D01*
X347441780Y-181478871D01*
X347441780Y-181764585D01*
X347394161Y-181859823D01*
X347346542Y-181907442D01*
%TO.C,D92*%
X328391780Y-183764585D02*
X327391780Y-183764585D01*
X327391780Y-183526490D01*
X327439400Y-183383633D01*
X327534638Y-183288395D01*
X327629876Y-183240776D01*
X327820352Y-183193157D01*
X327963209Y-183193157D01*
X328153685Y-183240776D01*
X328248923Y-183288395D01*
X328344161Y-183383633D01*
X328391780Y-183526490D01*
X328391780Y-183764585D01*
X328391780Y-182716966D02*
X328391780Y-182526490D01*
X328344161Y-182431252D01*
X328296542Y-182383633D01*
X328153685Y-182288395D01*
X327963209Y-182240776D01*
X327582257Y-182240776D01*
X327487019Y-182288395D01*
X327439400Y-182336014D01*
X327391780Y-182431252D01*
X327391780Y-182621728D01*
X327439400Y-182716966D01*
X327487019Y-182764585D01*
X327582257Y-182812204D01*
X327820352Y-182812204D01*
X327915590Y-182764585D01*
X327963209Y-182716966D01*
X328010828Y-182621728D01*
X328010828Y-182431252D01*
X327963209Y-182336014D01*
X327915590Y-182288395D01*
X327820352Y-182240776D01*
X327487019Y-181859823D02*
X327439400Y-181812204D01*
X327391780Y-181716966D01*
X327391780Y-181478871D01*
X327439400Y-181383633D01*
X327487019Y-181336014D01*
X327582257Y-181288395D01*
X327677495Y-181288395D01*
X327820352Y-181336014D01*
X328391780Y-181907442D01*
X328391780Y-181288395D01*
%TO.C,D91*%
X315920380Y-183777285D02*
X314920380Y-183777285D01*
X314920380Y-183539190D01*
X314968000Y-183396333D01*
X315063238Y-183301095D01*
X315158476Y-183253476D01*
X315348952Y-183205857D01*
X315491809Y-183205857D01*
X315682285Y-183253476D01*
X315777523Y-183301095D01*
X315872761Y-183396333D01*
X315920380Y-183539190D01*
X315920380Y-183777285D01*
X315920380Y-182729666D02*
X315920380Y-182539190D01*
X315872761Y-182443952D01*
X315825142Y-182396333D01*
X315682285Y-182301095D01*
X315491809Y-182253476D01*
X315110857Y-182253476D01*
X315015619Y-182301095D01*
X314968000Y-182348714D01*
X314920380Y-182443952D01*
X314920380Y-182634428D01*
X314968000Y-182729666D01*
X315015619Y-182777285D01*
X315110857Y-182824904D01*
X315348952Y-182824904D01*
X315444190Y-182777285D01*
X315491809Y-182729666D01*
X315539428Y-182634428D01*
X315539428Y-182443952D01*
X315491809Y-182348714D01*
X315444190Y-182301095D01*
X315348952Y-182253476D01*
X315920380Y-181301095D02*
X315920380Y-181872523D01*
X315920380Y-181586809D02*
X314920380Y-181586809D01*
X315063238Y-181682047D01*
X315158476Y-181777285D01*
X315206095Y-181872523D01*
%TO.C,D90*%
X296870380Y-183777285D02*
X295870380Y-183777285D01*
X295870380Y-183539190D01*
X295918000Y-183396333D01*
X296013238Y-183301095D01*
X296108476Y-183253476D01*
X296298952Y-183205857D01*
X296441809Y-183205857D01*
X296632285Y-183253476D01*
X296727523Y-183301095D01*
X296822761Y-183396333D01*
X296870380Y-183539190D01*
X296870380Y-183777285D01*
X296870380Y-182729666D02*
X296870380Y-182539190D01*
X296822761Y-182443952D01*
X296775142Y-182396333D01*
X296632285Y-182301095D01*
X296441809Y-182253476D01*
X296060857Y-182253476D01*
X295965619Y-182301095D01*
X295918000Y-182348714D01*
X295870380Y-182443952D01*
X295870380Y-182634428D01*
X295918000Y-182729666D01*
X295965619Y-182777285D01*
X296060857Y-182824904D01*
X296298952Y-182824904D01*
X296394190Y-182777285D01*
X296441809Y-182729666D01*
X296489428Y-182634428D01*
X296489428Y-182443952D01*
X296441809Y-182348714D01*
X296394190Y-182301095D01*
X296298952Y-182253476D01*
X295870380Y-181634428D02*
X295870380Y-181539190D01*
X295918000Y-181443952D01*
X295965619Y-181396333D01*
X296060857Y-181348714D01*
X296251333Y-181301095D01*
X296489428Y-181301095D01*
X296679904Y-181348714D01*
X296775142Y-181396333D01*
X296822761Y-181443952D01*
X296870380Y-181539190D01*
X296870380Y-181634428D01*
X296822761Y-181729666D01*
X296775142Y-181777285D01*
X296679904Y-181824904D01*
X296489428Y-181872523D01*
X296251333Y-181872523D01*
X296060857Y-181824904D01*
X295965619Y-181777285D01*
X295918000Y-181729666D01*
X295870380Y-181634428D01*
%TO.C,D89*%
X277820380Y-183777285D02*
X276820380Y-183777285D01*
X276820380Y-183539190D01*
X276868000Y-183396333D01*
X276963238Y-183301095D01*
X277058476Y-183253476D01*
X277248952Y-183205857D01*
X277391809Y-183205857D01*
X277582285Y-183253476D01*
X277677523Y-183301095D01*
X277772761Y-183396333D01*
X277820380Y-183539190D01*
X277820380Y-183777285D01*
X277248952Y-182634428D02*
X277201333Y-182729666D01*
X277153714Y-182777285D01*
X277058476Y-182824904D01*
X277010857Y-182824904D01*
X276915619Y-182777285D01*
X276868000Y-182729666D01*
X276820380Y-182634428D01*
X276820380Y-182443952D01*
X276868000Y-182348714D01*
X276915619Y-182301095D01*
X277010857Y-182253476D01*
X277058476Y-182253476D01*
X277153714Y-182301095D01*
X277201333Y-182348714D01*
X277248952Y-182443952D01*
X277248952Y-182634428D01*
X277296571Y-182729666D01*
X277344190Y-182777285D01*
X277439428Y-182824904D01*
X277629904Y-182824904D01*
X277725142Y-182777285D01*
X277772761Y-182729666D01*
X277820380Y-182634428D01*
X277820380Y-182443952D01*
X277772761Y-182348714D01*
X277725142Y-182301095D01*
X277629904Y-182253476D01*
X277439428Y-182253476D01*
X277344190Y-182301095D01*
X277296571Y-182348714D01*
X277248952Y-182443952D01*
X277820380Y-181777285D02*
X277820380Y-181586809D01*
X277772761Y-181491571D01*
X277725142Y-181443952D01*
X277582285Y-181348714D01*
X277391809Y-181301095D01*
X277010857Y-181301095D01*
X276915619Y-181348714D01*
X276868000Y-181396333D01*
X276820380Y-181491571D01*
X276820380Y-181682047D01*
X276868000Y-181777285D01*
X276915619Y-181824904D01*
X277010857Y-181872523D01*
X277248952Y-181872523D01*
X277344190Y-181824904D01*
X277391809Y-181777285D01*
X277439428Y-181682047D01*
X277439428Y-181491571D01*
X277391809Y-181396333D01*
X277344190Y-181348714D01*
X277248952Y-181301095D01*
%TO.C,D88*%
X249245380Y-183777285D02*
X248245380Y-183777285D01*
X248245380Y-183539190D01*
X248293000Y-183396333D01*
X248388238Y-183301095D01*
X248483476Y-183253476D01*
X248673952Y-183205857D01*
X248816809Y-183205857D01*
X249007285Y-183253476D01*
X249102523Y-183301095D01*
X249197761Y-183396333D01*
X249245380Y-183539190D01*
X249245380Y-183777285D01*
X248673952Y-182634428D02*
X248626333Y-182729666D01*
X248578714Y-182777285D01*
X248483476Y-182824904D01*
X248435857Y-182824904D01*
X248340619Y-182777285D01*
X248293000Y-182729666D01*
X248245380Y-182634428D01*
X248245380Y-182443952D01*
X248293000Y-182348714D01*
X248340619Y-182301095D01*
X248435857Y-182253476D01*
X248483476Y-182253476D01*
X248578714Y-182301095D01*
X248626333Y-182348714D01*
X248673952Y-182443952D01*
X248673952Y-182634428D01*
X248721571Y-182729666D01*
X248769190Y-182777285D01*
X248864428Y-182824904D01*
X249054904Y-182824904D01*
X249150142Y-182777285D01*
X249197761Y-182729666D01*
X249245380Y-182634428D01*
X249245380Y-182443952D01*
X249197761Y-182348714D01*
X249150142Y-182301095D01*
X249054904Y-182253476D01*
X248864428Y-182253476D01*
X248769190Y-182301095D01*
X248721571Y-182348714D01*
X248673952Y-182443952D01*
X248673952Y-181682047D02*
X248626333Y-181777285D01*
X248578714Y-181824904D01*
X248483476Y-181872523D01*
X248435857Y-181872523D01*
X248340619Y-181824904D01*
X248293000Y-181777285D01*
X248245380Y-181682047D01*
X248245380Y-181491571D01*
X248293000Y-181396333D01*
X248340619Y-181348714D01*
X248435857Y-181301095D01*
X248483476Y-181301095D01*
X248578714Y-181348714D01*
X248626333Y-181396333D01*
X248673952Y-181491571D01*
X248673952Y-181682047D01*
X248721571Y-181777285D01*
X248769190Y-181824904D01*
X248864428Y-181872523D01*
X249054904Y-181872523D01*
X249150142Y-181824904D01*
X249197761Y-181777285D01*
X249245380Y-181682047D01*
X249245380Y-181491571D01*
X249197761Y-181396333D01*
X249150142Y-181348714D01*
X249054904Y-181301095D01*
X248864428Y-181301095D01*
X248769190Y-181348714D01*
X248721571Y-181396333D01*
X248673952Y-181491571D01*
%TO.C,D87*%
X230195380Y-183777285D02*
X229195380Y-183777285D01*
X229195380Y-183539190D01*
X229243000Y-183396333D01*
X229338238Y-183301095D01*
X229433476Y-183253476D01*
X229623952Y-183205857D01*
X229766809Y-183205857D01*
X229957285Y-183253476D01*
X230052523Y-183301095D01*
X230147761Y-183396333D01*
X230195380Y-183539190D01*
X230195380Y-183777285D01*
X229623952Y-182634428D02*
X229576333Y-182729666D01*
X229528714Y-182777285D01*
X229433476Y-182824904D01*
X229385857Y-182824904D01*
X229290619Y-182777285D01*
X229243000Y-182729666D01*
X229195380Y-182634428D01*
X229195380Y-182443952D01*
X229243000Y-182348714D01*
X229290619Y-182301095D01*
X229385857Y-182253476D01*
X229433476Y-182253476D01*
X229528714Y-182301095D01*
X229576333Y-182348714D01*
X229623952Y-182443952D01*
X229623952Y-182634428D01*
X229671571Y-182729666D01*
X229719190Y-182777285D01*
X229814428Y-182824904D01*
X230004904Y-182824904D01*
X230100142Y-182777285D01*
X230147761Y-182729666D01*
X230195380Y-182634428D01*
X230195380Y-182443952D01*
X230147761Y-182348714D01*
X230100142Y-182301095D01*
X230004904Y-182253476D01*
X229814428Y-182253476D01*
X229719190Y-182301095D01*
X229671571Y-182348714D01*
X229623952Y-182443952D01*
X229195380Y-181920142D02*
X229195380Y-181253476D01*
X230195380Y-181682047D01*
%TO.C,D86*%
X211145380Y-183777285D02*
X210145380Y-183777285D01*
X210145380Y-183539190D01*
X210193000Y-183396333D01*
X210288238Y-183301095D01*
X210383476Y-183253476D01*
X210573952Y-183205857D01*
X210716809Y-183205857D01*
X210907285Y-183253476D01*
X211002523Y-183301095D01*
X211097761Y-183396333D01*
X211145380Y-183539190D01*
X211145380Y-183777285D01*
X210573952Y-182634428D02*
X210526333Y-182729666D01*
X210478714Y-182777285D01*
X210383476Y-182824904D01*
X210335857Y-182824904D01*
X210240619Y-182777285D01*
X210193000Y-182729666D01*
X210145380Y-182634428D01*
X210145380Y-182443952D01*
X210193000Y-182348714D01*
X210240619Y-182301095D01*
X210335857Y-182253476D01*
X210383476Y-182253476D01*
X210478714Y-182301095D01*
X210526333Y-182348714D01*
X210573952Y-182443952D01*
X210573952Y-182634428D01*
X210621571Y-182729666D01*
X210669190Y-182777285D01*
X210764428Y-182824904D01*
X210954904Y-182824904D01*
X211050142Y-182777285D01*
X211097761Y-182729666D01*
X211145380Y-182634428D01*
X211145380Y-182443952D01*
X211097761Y-182348714D01*
X211050142Y-182301095D01*
X210954904Y-182253476D01*
X210764428Y-182253476D01*
X210669190Y-182301095D01*
X210621571Y-182348714D01*
X210573952Y-182443952D01*
X210145380Y-181396333D02*
X210145380Y-181586809D01*
X210193000Y-181682047D01*
X210240619Y-181729666D01*
X210383476Y-181824904D01*
X210573952Y-181872523D01*
X210954904Y-181872523D01*
X211050142Y-181824904D01*
X211097761Y-181777285D01*
X211145380Y-181682047D01*
X211145380Y-181491571D01*
X211097761Y-181396333D01*
X211050142Y-181348714D01*
X210954904Y-181301095D01*
X210716809Y-181301095D01*
X210621571Y-181348714D01*
X210573952Y-181396333D01*
X210526333Y-181491571D01*
X210526333Y-181682047D01*
X210573952Y-181777285D01*
X210621571Y-181824904D01*
X210716809Y-181872523D01*
%TO.C,D85*%
X191968380Y-183777285D02*
X190968380Y-183777285D01*
X190968380Y-183539190D01*
X191016000Y-183396333D01*
X191111238Y-183301095D01*
X191206476Y-183253476D01*
X191396952Y-183205857D01*
X191539809Y-183205857D01*
X191730285Y-183253476D01*
X191825523Y-183301095D01*
X191920761Y-183396333D01*
X191968380Y-183539190D01*
X191968380Y-183777285D01*
X191396952Y-182634428D02*
X191349333Y-182729666D01*
X191301714Y-182777285D01*
X191206476Y-182824904D01*
X191158857Y-182824904D01*
X191063619Y-182777285D01*
X191016000Y-182729666D01*
X190968380Y-182634428D01*
X190968380Y-182443952D01*
X191016000Y-182348714D01*
X191063619Y-182301095D01*
X191158857Y-182253476D01*
X191206476Y-182253476D01*
X191301714Y-182301095D01*
X191349333Y-182348714D01*
X191396952Y-182443952D01*
X191396952Y-182634428D01*
X191444571Y-182729666D01*
X191492190Y-182777285D01*
X191587428Y-182824904D01*
X191777904Y-182824904D01*
X191873142Y-182777285D01*
X191920761Y-182729666D01*
X191968380Y-182634428D01*
X191968380Y-182443952D01*
X191920761Y-182348714D01*
X191873142Y-182301095D01*
X191777904Y-182253476D01*
X191587428Y-182253476D01*
X191492190Y-182301095D01*
X191444571Y-182348714D01*
X191396952Y-182443952D01*
X190968380Y-181348714D02*
X190968380Y-181824904D01*
X191444571Y-181872523D01*
X191396952Y-181824904D01*
X191349333Y-181729666D01*
X191349333Y-181491571D01*
X191396952Y-181396333D01*
X191444571Y-181348714D01*
X191539809Y-181301095D01*
X191777904Y-181301095D01*
X191873142Y-181348714D01*
X191920761Y-181396333D01*
X191968380Y-181491571D01*
X191968380Y-181729666D01*
X191920761Y-181824904D01*
X191873142Y-181872523D01*
%TO.C,D84*%
X173045380Y-183777285D02*
X172045380Y-183777285D01*
X172045380Y-183539190D01*
X172093000Y-183396333D01*
X172188238Y-183301095D01*
X172283476Y-183253476D01*
X172473952Y-183205857D01*
X172616809Y-183205857D01*
X172807285Y-183253476D01*
X172902523Y-183301095D01*
X172997761Y-183396333D01*
X173045380Y-183539190D01*
X173045380Y-183777285D01*
X172473952Y-182634428D02*
X172426333Y-182729666D01*
X172378714Y-182777285D01*
X172283476Y-182824904D01*
X172235857Y-182824904D01*
X172140619Y-182777285D01*
X172093000Y-182729666D01*
X172045380Y-182634428D01*
X172045380Y-182443952D01*
X172093000Y-182348714D01*
X172140619Y-182301095D01*
X172235857Y-182253476D01*
X172283476Y-182253476D01*
X172378714Y-182301095D01*
X172426333Y-182348714D01*
X172473952Y-182443952D01*
X172473952Y-182634428D01*
X172521571Y-182729666D01*
X172569190Y-182777285D01*
X172664428Y-182824904D01*
X172854904Y-182824904D01*
X172950142Y-182777285D01*
X172997761Y-182729666D01*
X173045380Y-182634428D01*
X173045380Y-182443952D01*
X172997761Y-182348714D01*
X172950142Y-182301095D01*
X172854904Y-182253476D01*
X172664428Y-182253476D01*
X172569190Y-182301095D01*
X172521571Y-182348714D01*
X172473952Y-182443952D01*
X172378714Y-181396333D02*
X173045380Y-181396333D01*
X171997761Y-181634428D02*
X172712047Y-181872523D01*
X172712047Y-181253476D01*
%TO.C,D83*%
X153930180Y-183777285D02*
X152930180Y-183777285D01*
X152930180Y-183539190D01*
X152977800Y-183396333D01*
X153073038Y-183301095D01*
X153168276Y-183253476D01*
X153358752Y-183205857D01*
X153501609Y-183205857D01*
X153692085Y-183253476D01*
X153787323Y-183301095D01*
X153882561Y-183396333D01*
X153930180Y-183539190D01*
X153930180Y-183777285D01*
X153358752Y-182634428D02*
X153311133Y-182729666D01*
X153263514Y-182777285D01*
X153168276Y-182824904D01*
X153120657Y-182824904D01*
X153025419Y-182777285D01*
X152977800Y-182729666D01*
X152930180Y-182634428D01*
X152930180Y-182443952D01*
X152977800Y-182348714D01*
X153025419Y-182301095D01*
X153120657Y-182253476D01*
X153168276Y-182253476D01*
X153263514Y-182301095D01*
X153311133Y-182348714D01*
X153358752Y-182443952D01*
X153358752Y-182634428D01*
X153406371Y-182729666D01*
X153453990Y-182777285D01*
X153549228Y-182824904D01*
X153739704Y-182824904D01*
X153834942Y-182777285D01*
X153882561Y-182729666D01*
X153930180Y-182634428D01*
X153930180Y-182443952D01*
X153882561Y-182348714D01*
X153834942Y-182301095D01*
X153739704Y-182253476D01*
X153549228Y-182253476D01*
X153453990Y-182301095D01*
X153406371Y-182348714D01*
X153358752Y-182443952D01*
X152930180Y-181920142D02*
X152930180Y-181301095D01*
X153311133Y-181634428D01*
X153311133Y-181491571D01*
X153358752Y-181396333D01*
X153406371Y-181348714D01*
X153501609Y-181301095D01*
X153739704Y-181301095D01*
X153834942Y-181348714D01*
X153882561Y-181396333D01*
X153930180Y-181491571D01*
X153930180Y-181777285D01*
X153882561Y-181872523D01*
X153834942Y-181920142D01*
%TO.C,D82*%
X134880180Y-183777285D02*
X133880180Y-183777285D01*
X133880180Y-183539190D01*
X133927800Y-183396333D01*
X134023038Y-183301095D01*
X134118276Y-183253476D01*
X134308752Y-183205857D01*
X134451609Y-183205857D01*
X134642085Y-183253476D01*
X134737323Y-183301095D01*
X134832561Y-183396333D01*
X134880180Y-183539190D01*
X134880180Y-183777285D01*
X134308752Y-182634428D02*
X134261133Y-182729666D01*
X134213514Y-182777285D01*
X134118276Y-182824904D01*
X134070657Y-182824904D01*
X133975419Y-182777285D01*
X133927800Y-182729666D01*
X133880180Y-182634428D01*
X133880180Y-182443952D01*
X133927800Y-182348714D01*
X133975419Y-182301095D01*
X134070657Y-182253476D01*
X134118276Y-182253476D01*
X134213514Y-182301095D01*
X134261133Y-182348714D01*
X134308752Y-182443952D01*
X134308752Y-182634428D01*
X134356371Y-182729666D01*
X134403990Y-182777285D01*
X134499228Y-182824904D01*
X134689704Y-182824904D01*
X134784942Y-182777285D01*
X134832561Y-182729666D01*
X134880180Y-182634428D01*
X134880180Y-182443952D01*
X134832561Y-182348714D01*
X134784942Y-182301095D01*
X134689704Y-182253476D01*
X134499228Y-182253476D01*
X134403990Y-182301095D01*
X134356371Y-182348714D01*
X134308752Y-182443952D01*
X133975419Y-181872523D02*
X133927800Y-181824904D01*
X133880180Y-181729666D01*
X133880180Y-181491571D01*
X133927800Y-181396333D01*
X133975419Y-181348714D01*
X134070657Y-181301095D01*
X134165895Y-181301095D01*
X134308752Y-181348714D01*
X134880180Y-181920142D01*
X134880180Y-181301095D01*
%TO.C,D81*%
X115895380Y-183777285D02*
X114895380Y-183777285D01*
X114895380Y-183539190D01*
X114943000Y-183396333D01*
X115038238Y-183301095D01*
X115133476Y-183253476D01*
X115323952Y-183205857D01*
X115466809Y-183205857D01*
X115657285Y-183253476D01*
X115752523Y-183301095D01*
X115847761Y-183396333D01*
X115895380Y-183539190D01*
X115895380Y-183777285D01*
X115323952Y-182634428D02*
X115276333Y-182729666D01*
X115228714Y-182777285D01*
X115133476Y-182824904D01*
X115085857Y-182824904D01*
X114990619Y-182777285D01*
X114943000Y-182729666D01*
X114895380Y-182634428D01*
X114895380Y-182443952D01*
X114943000Y-182348714D01*
X114990619Y-182301095D01*
X115085857Y-182253476D01*
X115133476Y-182253476D01*
X115228714Y-182301095D01*
X115276333Y-182348714D01*
X115323952Y-182443952D01*
X115323952Y-182634428D01*
X115371571Y-182729666D01*
X115419190Y-182777285D01*
X115514428Y-182824904D01*
X115704904Y-182824904D01*
X115800142Y-182777285D01*
X115847761Y-182729666D01*
X115895380Y-182634428D01*
X115895380Y-182443952D01*
X115847761Y-182348714D01*
X115800142Y-182301095D01*
X115704904Y-182253476D01*
X115514428Y-182253476D01*
X115419190Y-182301095D01*
X115371571Y-182348714D01*
X115323952Y-182443952D01*
X115895380Y-181301095D02*
X115895380Y-181872523D01*
X115895380Y-181586809D02*
X114895380Y-181586809D01*
X115038238Y-181682047D01*
X115133476Y-181777285D01*
X115181095Y-181872523D01*
%TO.C,D80*%
X96845380Y-183777285D02*
X95845380Y-183777285D01*
X95845380Y-183539190D01*
X95893000Y-183396333D01*
X95988238Y-183301095D01*
X96083476Y-183253476D01*
X96273952Y-183205857D01*
X96416809Y-183205857D01*
X96607285Y-183253476D01*
X96702523Y-183301095D01*
X96797761Y-183396333D01*
X96845380Y-183539190D01*
X96845380Y-183777285D01*
X96273952Y-182634428D02*
X96226333Y-182729666D01*
X96178714Y-182777285D01*
X96083476Y-182824904D01*
X96035857Y-182824904D01*
X95940619Y-182777285D01*
X95893000Y-182729666D01*
X95845380Y-182634428D01*
X95845380Y-182443952D01*
X95893000Y-182348714D01*
X95940619Y-182301095D01*
X96035857Y-182253476D01*
X96083476Y-182253476D01*
X96178714Y-182301095D01*
X96226333Y-182348714D01*
X96273952Y-182443952D01*
X96273952Y-182634428D01*
X96321571Y-182729666D01*
X96369190Y-182777285D01*
X96464428Y-182824904D01*
X96654904Y-182824904D01*
X96750142Y-182777285D01*
X96797761Y-182729666D01*
X96845380Y-182634428D01*
X96845380Y-182443952D01*
X96797761Y-182348714D01*
X96750142Y-182301095D01*
X96654904Y-182253476D01*
X96464428Y-182253476D01*
X96369190Y-182301095D01*
X96321571Y-182348714D01*
X96273952Y-182443952D01*
X95845380Y-181634428D02*
X95845380Y-181539190D01*
X95893000Y-181443952D01*
X95940619Y-181396333D01*
X96035857Y-181348714D01*
X96226333Y-181301095D01*
X96464428Y-181301095D01*
X96654904Y-181348714D01*
X96750142Y-181396333D01*
X96797761Y-181443952D01*
X96845380Y-181539190D01*
X96845380Y-181634428D01*
X96797761Y-181729666D01*
X96750142Y-181777285D01*
X96654904Y-181824904D01*
X96464428Y-181872523D01*
X96226333Y-181872523D01*
X96035857Y-181824904D01*
X95940619Y-181777285D01*
X95893000Y-181729666D01*
X95845380Y-181634428D01*
%TO.C,D79*%
X77795380Y-183777285D02*
X76795380Y-183777285D01*
X76795380Y-183539190D01*
X76843000Y-183396333D01*
X76938238Y-183301095D01*
X77033476Y-183253476D01*
X77223952Y-183205857D01*
X77366809Y-183205857D01*
X77557285Y-183253476D01*
X77652523Y-183301095D01*
X77747761Y-183396333D01*
X77795380Y-183539190D01*
X77795380Y-183777285D01*
X76795380Y-182872523D02*
X76795380Y-182205857D01*
X77795380Y-182634428D01*
X77795380Y-181777285D02*
X77795380Y-181586809D01*
X77747761Y-181491571D01*
X77700142Y-181443952D01*
X77557285Y-181348714D01*
X77366809Y-181301095D01*
X76985857Y-181301095D01*
X76890619Y-181348714D01*
X76843000Y-181396333D01*
X76795380Y-181491571D01*
X76795380Y-181682047D01*
X76843000Y-181777285D01*
X76890619Y-181824904D01*
X76985857Y-181872523D01*
X77223952Y-181872523D01*
X77319190Y-181824904D01*
X77366809Y-181777285D01*
X77414428Y-181682047D01*
X77414428Y-181491571D01*
X77366809Y-181396333D01*
X77319190Y-181348714D01*
X77223952Y-181301095D01*
%TO.C,D78*%
X58745380Y-183777285D02*
X57745380Y-183777285D01*
X57745380Y-183539190D01*
X57793000Y-183396333D01*
X57888238Y-183301095D01*
X57983476Y-183253476D01*
X58173952Y-183205857D01*
X58316809Y-183205857D01*
X58507285Y-183253476D01*
X58602523Y-183301095D01*
X58697761Y-183396333D01*
X58745380Y-183539190D01*
X58745380Y-183777285D01*
X57745380Y-182872523D02*
X57745380Y-182205857D01*
X58745380Y-182634428D01*
X58173952Y-181682047D02*
X58126333Y-181777285D01*
X58078714Y-181824904D01*
X57983476Y-181872523D01*
X57935857Y-181872523D01*
X57840619Y-181824904D01*
X57793000Y-181777285D01*
X57745380Y-181682047D01*
X57745380Y-181491571D01*
X57793000Y-181396333D01*
X57840619Y-181348714D01*
X57935857Y-181301095D01*
X57983476Y-181301095D01*
X58078714Y-181348714D01*
X58126333Y-181396333D01*
X58173952Y-181491571D01*
X58173952Y-181682047D01*
X58221571Y-181777285D01*
X58269190Y-181824904D01*
X58364428Y-181872523D01*
X58554904Y-181872523D01*
X58650142Y-181824904D01*
X58697761Y-181777285D01*
X58745380Y-181682047D01*
X58745380Y-181491571D01*
X58697761Y-181396333D01*
X58650142Y-181348714D01*
X58554904Y-181301095D01*
X58364428Y-181301095D01*
X58269190Y-181348714D01*
X58221571Y-181396333D01*
X58173952Y-181491571D01*
%TO.C,D77*%
X34869380Y-183777285D02*
X33869380Y-183777285D01*
X33869380Y-183539190D01*
X33917000Y-183396333D01*
X34012238Y-183301095D01*
X34107476Y-183253476D01*
X34297952Y-183205857D01*
X34440809Y-183205857D01*
X34631285Y-183253476D01*
X34726523Y-183301095D01*
X34821761Y-183396333D01*
X34869380Y-183539190D01*
X34869380Y-183777285D01*
X33869380Y-182872523D02*
X33869380Y-182205857D01*
X34869380Y-182634428D01*
X33869380Y-181920142D02*
X33869380Y-181253476D01*
X34869380Y-181682047D01*
%TO.C,D76*%
X385541780Y-164841585D02*
X384541780Y-164841585D01*
X384541780Y-164603490D01*
X384589400Y-164460633D01*
X384684638Y-164365395D01*
X384779876Y-164317776D01*
X384970352Y-164270157D01*
X385113209Y-164270157D01*
X385303685Y-164317776D01*
X385398923Y-164365395D01*
X385494161Y-164460633D01*
X385541780Y-164603490D01*
X385541780Y-164841585D01*
X384541780Y-163936823D02*
X384541780Y-163270157D01*
X385541780Y-163698728D01*
X384541780Y-162460633D02*
X384541780Y-162651109D01*
X384589400Y-162746347D01*
X384637019Y-162793966D01*
X384779876Y-162889204D01*
X384970352Y-162936823D01*
X385351304Y-162936823D01*
X385446542Y-162889204D01*
X385494161Y-162841585D01*
X385541780Y-162746347D01*
X385541780Y-162555871D01*
X385494161Y-162460633D01*
X385446542Y-162413014D01*
X385351304Y-162365395D01*
X385113209Y-162365395D01*
X385017971Y-162413014D01*
X384970352Y-162460633D01*
X384922733Y-162555871D01*
X384922733Y-162746347D01*
X384970352Y-162841585D01*
X385017971Y-162889204D01*
X385113209Y-162936823D01*
%TO.C,D75*%
X366491780Y-164841585D02*
X365491780Y-164841585D01*
X365491780Y-164603490D01*
X365539400Y-164460633D01*
X365634638Y-164365395D01*
X365729876Y-164317776D01*
X365920352Y-164270157D01*
X366063209Y-164270157D01*
X366253685Y-164317776D01*
X366348923Y-164365395D01*
X366444161Y-164460633D01*
X366491780Y-164603490D01*
X366491780Y-164841585D01*
X365491780Y-163936823D02*
X365491780Y-163270157D01*
X366491780Y-163698728D01*
X365491780Y-162413014D02*
X365491780Y-162889204D01*
X365967971Y-162936823D01*
X365920352Y-162889204D01*
X365872733Y-162793966D01*
X365872733Y-162555871D01*
X365920352Y-162460633D01*
X365967971Y-162413014D01*
X366063209Y-162365395D01*
X366301304Y-162365395D01*
X366396542Y-162413014D01*
X366444161Y-162460633D01*
X366491780Y-162555871D01*
X366491780Y-162793966D01*
X366444161Y-162889204D01*
X366396542Y-162936823D01*
%TO.C,D74*%
X347441780Y-164841585D02*
X346441780Y-164841585D01*
X346441780Y-164603490D01*
X346489400Y-164460633D01*
X346584638Y-164365395D01*
X346679876Y-164317776D01*
X346870352Y-164270157D01*
X347013209Y-164270157D01*
X347203685Y-164317776D01*
X347298923Y-164365395D01*
X347394161Y-164460633D01*
X347441780Y-164603490D01*
X347441780Y-164841585D01*
X346441780Y-163936823D02*
X346441780Y-163270157D01*
X347441780Y-163698728D01*
X346775114Y-162460633D02*
X347441780Y-162460633D01*
X346394161Y-162698728D02*
X347108447Y-162936823D01*
X347108447Y-162317776D01*
%TO.C,D73*%
X328391780Y-164841585D02*
X327391780Y-164841585D01*
X327391780Y-164603490D01*
X327439400Y-164460633D01*
X327534638Y-164365395D01*
X327629876Y-164317776D01*
X327820352Y-164270157D01*
X327963209Y-164270157D01*
X328153685Y-164317776D01*
X328248923Y-164365395D01*
X328344161Y-164460633D01*
X328391780Y-164603490D01*
X328391780Y-164841585D01*
X327391780Y-163936823D02*
X327391780Y-163270157D01*
X328391780Y-163698728D01*
X327391780Y-162984442D02*
X327391780Y-162365395D01*
X327772733Y-162698728D01*
X327772733Y-162555871D01*
X327820352Y-162460633D01*
X327867971Y-162413014D01*
X327963209Y-162365395D01*
X328201304Y-162365395D01*
X328296542Y-162413014D01*
X328344161Y-162460633D01*
X328391780Y-162555871D01*
X328391780Y-162841585D01*
X328344161Y-162936823D01*
X328296542Y-162984442D01*
%TO.C,D72*%
X315920380Y-164854285D02*
X314920380Y-164854285D01*
X314920380Y-164616190D01*
X314968000Y-164473333D01*
X315063238Y-164378095D01*
X315158476Y-164330476D01*
X315348952Y-164282857D01*
X315491809Y-164282857D01*
X315682285Y-164330476D01*
X315777523Y-164378095D01*
X315872761Y-164473333D01*
X315920380Y-164616190D01*
X315920380Y-164854285D01*
X314920380Y-163949523D02*
X314920380Y-163282857D01*
X315920380Y-163711428D01*
X315015619Y-162949523D02*
X314968000Y-162901904D01*
X314920380Y-162806666D01*
X314920380Y-162568571D01*
X314968000Y-162473333D01*
X315015619Y-162425714D01*
X315110857Y-162378095D01*
X315206095Y-162378095D01*
X315348952Y-162425714D01*
X315920380Y-162997142D01*
X315920380Y-162378095D01*
%TO.C,D71*%
X297313180Y-164854285D02*
X296313180Y-164854285D01*
X296313180Y-164616190D01*
X296360800Y-164473333D01*
X296456038Y-164378095D01*
X296551276Y-164330476D01*
X296741752Y-164282857D01*
X296884609Y-164282857D01*
X297075085Y-164330476D01*
X297170323Y-164378095D01*
X297265561Y-164473333D01*
X297313180Y-164616190D01*
X297313180Y-164854285D01*
X296313180Y-163949523D02*
X296313180Y-163282857D01*
X297313180Y-163711428D01*
X297313180Y-162378095D02*
X297313180Y-162949523D01*
X297313180Y-162663809D02*
X296313180Y-162663809D01*
X296456038Y-162759047D01*
X296551276Y-162854285D01*
X296598895Y-162949523D01*
%TO.C,D70*%
X259213180Y-164854285D02*
X258213180Y-164854285D01*
X258213180Y-164616190D01*
X258260800Y-164473333D01*
X258356038Y-164378095D01*
X258451276Y-164330476D01*
X258641752Y-164282857D01*
X258784609Y-164282857D01*
X258975085Y-164330476D01*
X259070323Y-164378095D01*
X259165561Y-164473333D01*
X259213180Y-164616190D01*
X259213180Y-164854285D01*
X258213180Y-163949523D02*
X258213180Y-163282857D01*
X259213180Y-163711428D01*
X258213180Y-162711428D02*
X258213180Y-162616190D01*
X258260800Y-162520952D01*
X258308419Y-162473333D01*
X258403657Y-162425714D01*
X258594133Y-162378095D01*
X258832228Y-162378095D01*
X259022704Y-162425714D01*
X259117942Y-162473333D01*
X259165561Y-162520952D01*
X259213180Y-162616190D01*
X259213180Y-162711428D01*
X259165561Y-162806666D01*
X259117942Y-162854285D01*
X259022704Y-162901904D01*
X258832228Y-162949523D01*
X258594133Y-162949523D01*
X258403657Y-162901904D01*
X258308419Y-162854285D01*
X258260800Y-162806666D01*
X258213180Y-162711428D01*
%TO.C,D69*%
X240036180Y-164854285D02*
X239036180Y-164854285D01*
X239036180Y-164616190D01*
X239083800Y-164473333D01*
X239179038Y-164378095D01*
X239274276Y-164330476D01*
X239464752Y-164282857D01*
X239607609Y-164282857D01*
X239798085Y-164330476D01*
X239893323Y-164378095D01*
X239988561Y-164473333D01*
X240036180Y-164616190D01*
X240036180Y-164854285D01*
X239036180Y-163425714D02*
X239036180Y-163616190D01*
X239083800Y-163711428D01*
X239131419Y-163759047D01*
X239274276Y-163854285D01*
X239464752Y-163901904D01*
X239845704Y-163901904D01*
X239940942Y-163854285D01*
X239988561Y-163806666D01*
X240036180Y-163711428D01*
X240036180Y-163520952D01*
X239988561Y-163425714D01*
X239940942Y-163378095D01*
X239845704Y-163330476D01*
X239607609Y-163330476D01*
X239512371Y-163378095D01*
X239464752Y-163425714D01*
X239417133Y-163520952D01*
X239417133Y-163711428D01*
X239464752Y-163806666D01*
X239512371Y-163854285D01*
X239607609Y-163901904D01*
X240036180Y-162854285D02*
X240036180Y-162663809D01*
X239988561Y-162568571D01*
X239940942Y-162520952D01*
X239798085Y-162425714D01*
X239607609Y-162378095D01*
X239226657Y-162378095D01*
X239131419Y-162425714D01*
X239083800Y-162473333D01*
X239036180Y-162568571D01*
X239036180Y-162759047D01*
X239083800Y-162854285D01*
X239131419Y-162901904D01*
X239226657Y-162949523D01*
X239464752Y-162949523D01*
X239559990Y-162901904D01*
X239607609Y-162854285D01*
X239655228Y-162759047D01*
X239655228Y-162568571D01*
X239607609Y-162473333D01*
X239559990Y-162425714D01*
X239464752Y-162378095D01*
%TO.C,D68*%
X220986180Y-164854285D02*
X219986180Y-164854285D01*
X219986180Y-164616190D01*
X220033800Y-164473333D01*
X220129038Y-164378095D01*
X220224276Y-164330476D01*
X220414752Y-164282857D01*
X220557609Y-164282857D01*
X220748085Y-164330476D01*
X220843323Y-164378095D01*
X220938561Y-164473333D01*
X220986180Y-164616190D01*
X220986180Y-164854285D01*
X219986180Y-163425714D02*
X219986180Y-163616190D01*
X220033800Y-163711428D01*
X220081419Y-163759047D01*
X220224276Y-163854285D01*
X220414752Y-163901904D01*
X220795704Y-163901904D01*
X220890942Y-163854285D01*
X220938561Y-163806666D01*
X220986180Y-163711428D01*
X220986180Y-163520952D01*
X220938561Y-163425714D01*
X220890942Y-163378095D01*
X220795704Y-163330476D01*
X220557609Y-163330476D01*
X220462371Y-163378095D01*
X220414752Y-163425714D01*
X220367133Y-163520952D01*
X220367133Y-163711428D01*
X220414752Y-163806666D01*
X220462371Y-163854285D01*
X220557609Y-163901904D01*
X220414752Y-162759047D02*
X220367133Y-162854285D01*
X220319514Y-162901904D01*
X220224276Y-162949523D01*
X220176657Y-162949523D01*
X220081419Y-162901904D01*
X220033800Y-162854285D01*
X219986180Y-162759047D01*
X219986180Y-162568571D01*
X220033800Y-162473333D01*
X220081419Y-162425714D01*
X220176657Y-162378095D01*
X220224276Y-162378095D01*
X220319514Y-162425714D01*
X220367133Y-162473333D01*
X220414752Y-162568571D01*
X220414752Y-162759047D01*
X220462371Y-162854285D01*
X220509990Y-162901904D01*
X220605228Y-162949523D01*
X220795704Y-162949523D01*
X220890942Y-162901904D01*
X220938561Y-162854285D01*
X220986180Y-162759047D01*
X220986180Y-162568571D01*
X220938561Y-162473333D01*
X220890942Y-162425714D01*
X220795704Y-162378095D01*
X220605228Y-162378095D01*
X220509990Y-162425714D01*
X220462371Y-162473333D01*
X220414752Y-162568571D01*
%TO.C,D67*%
X201809180Y-164854285D02*
X200809180Y-164854285D01*
X200809180Y-164616190D01*
X200856800Y-164473333D01*
X200952038Y-164378095D01*
X201047276Y-164330476D01*
X201237752Y-164282857D01*
X201380609Y-164282857D01*
X201571085Y-164330476D01*
X201666323Y-164378095D01*
X201761561Y-164473333D01*
X201809180Y-164616190D01*
X201809180Y-164854285D01*
X200809180Y-163425714D02*
X200809180Y-163616190D01*
X200856800Y-163711428D01*
X200904419Y-163759047D01*
X201047276Y-163854285D01*
X201237752Y-163901904D01*
X201618704Y-163901904D01*
X201713942Y-163854285D01*
X201761561Y-163806666D01*
X201809180Y-163711428D01*
X201809180Y-163520952D01*
X201761561Y-163425714D01*
X201713942Y-163378095D01*
X201618704Y-163330476D01*
X201380609Y-163330476D01*
X201285371Y-163378095D01*
X201237752Y-163425714D01*
X201190133Y-163520952D01*
X201190133Y-163711428D01*
X201237752Y-163806666D01*
X201285371Y-163854285D01*
X201380609Y-163901904D01*
X200809180Y-162997142D02*
X200809180Y-162330476D01*
X201809180Y-162759047D01*
%TO.C,D66*%
X182759180Y-164854285D02*
X181759180Y-164854285D01*
X181759180Y-164616190D01*
X181806800Y-164473333D01*
X181902038Y-164378095D01*
X181997276Y-164330476D01*
X182187752Y-164282857D01*
X182330609Y-164282857D01*
X182521085Y-164330476D01*
X182616323Y-164378095D01*
X182711561Y-164473333D01*
X182759180Y-164616190D01*
X182759180Y-164854285D01*
X181759180Y-163425714D02*
X181759180Y-163616190D01*
X181806800Y-163711428D01*
X181854419Y-163759047D01*
X181997276Y-163854285D01*
X182187752Y-163901904D01*
X182568704Y-163901904D01*
X182663942Y-163854285D01*
X182711561Y-163806666D01*
X182759180Y-163711428D01*
X182759180Y-163520952D01*
X182711561Y-163425714D01*
X182663942Y-163378095D01*
X182568704Y-163330476D01*
X182330609Y-163330476D01*
X182235371Y-163378095D01*
X182187752Y-163425714D01*
X182140133Y-163520952D01*
X182140133Y-163711428D01*
X182187752Y-163806666D01*
X182235371Y-163854285D01*
X182330609Y-163901904D01*
X181759180Y-162473333D02*
X181759180Y-162663809D01*
X181806800Y-162759047D01*
X181854419Y-162806666D01*
X181997276Y-162901904D01*
X182187752Y-162949523D01*
X182568704Y-162949523D01*
X182663942Y-162901904D01*
X182711561Y-162854285D01*
X182759180Y-162759047D01*
X182759180Y-162568571D01*
X182711561Y-162473333D01*
X182663942Y-162425714D01*
X182568704Y-162378095D01*
X182330609Y-162378095D01*
X182235371Y-162425714D01*
X182187752Y-162473333D01*
X182140133Y-162568571D01*
X182140133Y-162759047D01*
X182187752Y-162854285D01*
X182235371Y-162901904D01*
X182330609Y-162949523D01*
%TO.C,D65*%
X163582180Y-164854285D02*
X162582180Y-164854285D01*
X162582180Y-164616190D01*
X162629800Y-164473333D01*
X162725038Y-164378095D01*
X162820276Y-164330476D01*
X163010752Y-164282857D01*
X163153609Y-164282857D01*
X163344085Y-164330476D01*
X163439323Y-164378095D01*
X163534561Y-164473333D01*
X163582180Y-164616190D01*
X163582180Y-164854285D01*
X162582180Y-163425714D02*
X162582180Y-163616190D01*
X162629800Y-163711428D01*
X162677419Y-163759047D01*
X162820276Y-163854285D01*
X163010752Y-163901904D01*
X163391704Y-163901904D01*
X163486942Y-163854285D01*
X163534561Y-163806666D01*
X163582180Y-163711428D01*
X163582180Y-163520952D01*
X163534561Y-163425714D01*
X163486942Y-163378095D01*
X163391704Y-163330476D01*
X163153609Y-163330476D01*
X163058371Y-163378095D01*
X163010752Y-163425714D01*
X162963133Y-163520952D01*
X162963133Y-163711428D01*
X163010752Y-163806666D01*
X163058371Y-163854285D01*
X163153609Y-163901904D01*
X162582180Y-162425714D02*
X162582180Y-162901904D01*
X163058371Y-162949523D01*
X163010752Y-162901904D01*
X162963133Y-162806666D01*
X162963133Y-162568571D01*
X163010752Y-162473333D01*
X163058371Y-162425714D01*
X163153609Y-162378095D01*
X163391704Y-162378095D01*
X163486942Y-162425714D01*
X163534561Y-162473333D01*
X163582180Y-162568571D01*
X163582180Y-162806666D01*
X163534561Y-162901904D01*
X163486942Y-162949523D01*
%TO.C,D64*%
X144405180Y-164854285D02*
X143405180Y-164854285D01*
X143405180Y-164616190D01*
X143452800Y-164473333D01*
X143548038Y-164378095D01*
X143643276Y-164330476D01*
X143833752Y-164282857D01*
X143976609Y-164282857D01*
X144167085Y-164330476D01*
X144262323Y-164378095D01*
X144357561Y-164473333D01*
X144405180Y-164616190D01*
X144405180Y-164854285D01*
X143405180Y-163425714D02*
X143405180Y-163616190D01*
X143452800Y-163711428D01*
X143500419Y-163759047D01*
X143643276Y-163854285D01*
X143833752Y-163901904D01*
X144214704Y-163901904D01*
X144309942Y-163854285D01*
X144357561Y-163806666D01*
X144405180Y-163711428D01*
X144405180Y-163520952D01*
X144357561Y-163425714D01*
X144309942Y-163378095D01*
X144214704Y-163330476D01*
X143976609Y-163330476D01*
X143881371Y-163378095D01*
X143833752Y-163425714D01*
X143786133Y-163520952D01*
X143786133Y-163711428D01*
X143833752Y-163806666D01*
X143881371Y-163854285D01*
X143976609Y-163901904D01*
X143738514Y-162473333D02*
X144405180Y-162473333D01*
X143357561Y-162711428D02*
X144071847Y-162949523D01*
X144071847Y-162330476D01*
%TO.C,D63*%
X125355180Y-164854285D02*
X124355180Y-164854285D01*
X124355180Y-164616190D01*
X124402800Y-164473333D01*
X124498038Y-164378095D01*
X124593276Y-164330476D01*
X124783752Y-164282857D01*
X124926609Y-164282857D01*
X125117085Y-164330476D01*
X125212323Y-164378095D01*
X125307561Y-164473333D01*
X125355180Y-164616190D01*
X125355180Y-164854285D01*
X124355180Y-163425714D02*
X124355180Y-163616190D01*
X124402800Y-163711428D01*
X124450419Y-163759047D01*
X124593276Y-163854285D01*
X124783752Y-163901904D01*
X125164704Y-163901904D01*
X125259942Y-163854285D01*
X125307561Y-163806666D01*
X125355180Y-163711428D01*
X125355180Y-163520952D01*
X125307561Y-163425714D01*
X125259942Y-163378095D01*
X125164704Y-163330476D01*
X124926609Y-163330476D01*
X124831371Y-163378095D01*
X124783752Y-163425714D01*
X124736133Y-163520952D01*
X124736133Y-163711428D01*
X124783752Y-163806666D01*
X124831371Y-163854285D01*
X124926609Y-163901904D01*
X124355180Y-162997142D02*
X124355180Y-162378095D01*
X124736133Y-162711428D01*
X124736133Y-162568571D01*
X124783752Y-162473333D01*
X124831371Y-162425714D01*
X124926609Y-162378095D01*
X125164704Y-162378095D01*
X125259942Y-162425714D01*
X125307561Y-162473333D01*
X125355180Y-162568571D01*
X125355180Y-162854285D01*
X125307561Y-162949523D01*
X125259942Y-162997142D01*
%TO.C,D62*%
X106305180Y-164854285D02*
X105305180Y-164854285D01*
X105305180Y-164616190D01*
X105352800Y-164473333D01*
X105448038Y-164378095D01*
X105543276Y-164330476D01*
X105733752Y-164282857D01*
X105876609Y-164282857D01*
X106067085Y-164330476D01*
X106162323Y-164378095D01*
X106257561Y-164473333D01*
X106305180Y-164616190D01*
X106305180Y-164854285D01*
X105305180Y-163425714D02*
X105305180Y-163616190D01*
X105352800Y-163711428D01*
X105400419Y-163759047D01*
X105543276Y-163854285D01*
X105733752Y-163901904D01*
X106114704Y-163901904D01*
X106209942Y-163854285D01*
X106257561Y-163806666D01*
X106305180Y-163711428D01*
X106305180Y-163520952D01*
X106257561Y-163425714D01*
X106209942Y-163378095D01*
X106114704Y-163330476D01*
X105876609Y-163330476D01*
X105781371Y-163378095D01*
X105733752Y-163425714D01*
X105686133Y-163520952D01*
X105686133Y-163711428D01*
X105733752Y-163806666D01*
X105781371Y-163854285D01*
X105876609Y-163901904D01*
X105400419Y-162949523D02*
X105352800Y-162901904D01*
X105305180Y-162806666D01*
X105305180Y-162568571D01*
X105352800Y-162473333D01*
X105400419Y-162425714D01*
X105495657Y-162378095D01*
X105590895Y-162378095D01*
X105733752Y-162425714D01*
X106305180Y-162997142D01*
X106305180Y-162378095D01*
%TO.C,D61*%
X87128180Y-164854285D02*
X86128180Y-164854285D01*
X86128180Y-164616190D01*
X86175800Y-164473333D01*
X86271038Y-164378095D01*
X86366276Y-164330476D01*
X86556752Y-164282857D01*
X86699609Y-164282857D01*
X86890085Y-164330476D01*
X86985323Y-164378095D01*
X87080561Y-164473333D01*
X87128180Y-164616190D01*
X87128180Y-164854285D01*
X86128180Y-163425714D02*
X86128180Y-163616190D01*
X86175800Y-163711428D01*
X86223419Y-163759047D01*
X86366276Y-163854285D01*
X86556752Y-163901904D01*
X86937704Y-163901904D01*
X87032942Y-163854285D01*
X87080561Y-163806666D01*
X87128180Y-163711428D01*
X87128180Y-163520952D01*
X87080561Y-163425714D01*
X87032942Y-163378095D01*
X86937704Y-163330476D01*
X86699609Y-163330476D01*
X86604371Y-163378095D01*
X86556752Y-163425714D01*
X86509133Y-163520952D01*
X86509133Y-163711428D01*
X86556752Y-163806666D01*
X86604371Y-163854285D01*
X86699609Y-163901904D01*
X87128180Y-162378095D02*
X87128180Y-162949523D01*
X87128180Y-162663809D02*
X86128180Y-162663809D01*
X86271038Y-162759047D01*
X86366276Y-162854285D01*
X86413895Y-162949523D01*
%TO.C,D60*%
X68078180Y-164854285D02*
X67078180Y-164854285D01*
X67078180Y-164616190D01*
X67125800Y-164473333D01*
X67221038Y-164378095D01*
X67316276Y-164330476D01*
X67506752Y-164282857D01*
X67649609Y-164282857D01*
X67840085Y-164330476D01*
X67935323Y-164378095D01*
X68030561Y-164473333D01*
X68078180Y-164616190D01*
X68078180Y-164854285D01*
X67078180Y-163425714D02*
X67078180Y-163616190D01*
X67125800Y-163711428D01*
X67173419Y-163759047D01*
X67316276Y-163854285D01*
X67506752Y-163901904D01*
X67887704Y-163901904D01*
X67982942Y-163854285D01*
X68030561Y-163806666D01*
X68078180Y-163711428D01*
X68078180Y-163520952D01*
X68030561Y-163425714D01*
X67982942Y-163378095D01*
X67887704Y-163330476D01*
X67649609Y-163330476D01*
X67554371Y-163378095D01*
X67506752Y-163425714D01*
X67459133Y-163520952D01*
X67459133Y-163711428D01*
X67506752Y-163806666D01*
X67554371Y-163854285D01*
X67649609Y-163901904D01*
X67078180Y-162711428D02*
X67078180Y-162616190D01*
X67125800Y-162520952D01*
X67173419Y-162473333D01*
X67268657Y-162425714D01*
X67459133Y-162378095D01*
X67697228Y-162378095D01*
X67887704Y-162425714D01*
X67982942Y-162473333D01*
X68030561Y-162520952D01*
X68078180Y-162616190D01*
X68078180Y-162711428D01*
X68030561Y-162806666D01*
X67982942Y-162854285D01*
X67887704Y-162901904D01*
X67697228Y-162949523D01*
X67459133Y-162949523D01*
X67268657Y-162901904D01*
X67173419Y-162854285D01*
X67125800Y-162806666D01*
X67078180Y-162711428D01*
%TO.C,D59*%
X47631180Y-164854285D02*
X46631180Y-164854285D01*
X46631180Y-164616190D01*
X46678800Y-164473333D01*
X46774038Y-164378095D01*
X46869276Y-164330476D01*
X47059752Y-164282857D01*
X47202609Y-164282857D01*
X47393085Y-164330476D01*
X47488323Y-164378095D01*
X47583561Y-164473333D01*
X47631180Y-164616190D01*
X47631180Y-164854285D01*
X46631180Y-163378095D02*
X46631180Y-163854285D01*
X47107371Y-163901904D01*
X47059752Y-163854285D01*
X47012133Y-163759047D01*
X47012133Y-163520952D01*
X47059752Y-163425714D01*
X47107371Y-163378095D01*
X47202609Y-163330476D01*
X47440704Y-163330476D01*
X47535942Y-163378095D01*
X47583561Y-163425714D01*
X47631180Y-163520952D01*
X47631180Y-163759047D01*
X47583561Y-163854285D01*
X47535942Y-163901904D01*
X47631180Y-162854285D02*
X47631180Y-162663809D01*
X47583561Y-162568571D01*
X47535942Y-162520952D01*
X47393085Y-162425714D01*
X47202609Y-162378095D01*
X46821657Y-162378095D01*
X46726419Y-162425714D01*
X46678800Y-162473333D01*
X46631180Y-162568571D01*
X46631180Y-162759047D01*
X46678800Y-162854285D01*
X46726419Y-162901904D01*
X46821657Y-162949523D01*
X47059752Y-162949523D01*
X47154990Y-162901904D01*
X47202609Y-162854285D01*
X47250228Y-162759047D01*
X47250228Y-162568571D01*
X47202609Y-162473333D01*
X47154990Y-162425714D01*
X47059752Y-162378095D01*
%TO.C,D58*%
X385541780Y-145664585D02*
X384541780Y-145664585D01*
X384541780Y-145426490D01*
X384589400Y-145283633D01*
X384684638Y-145188395D01*
X384779876Y-145140776D01*
X384970352Y-145093157D01*
X385113209Y-145093157D01*
X385303685Y-145140776D01*
X385398923Y-145188395D01*
X385494161Y-145283633D01*
X385541780Y-145426490D01*
X385541780Y-145664585D01*
X384541780Y-144188395D02*
X384541780Y-144664585D01*
X385017971Y-144712204D01*
X384970352Y-144664585D01*
X384922733Y-144569347D01*
X384922733Y-144331252D01*
X384970352Y-144236014D01*
X385017971Y-144188395D01*
X385113209Y-144140776D01*
X385351304Y-144140776D01*
X385446542Y-144188395D01*
X385494161Y-144236014D01*
X385541780Y-144331252D01*
X385541780Y-144569347D01*
X385494161Y-144664585D01*
X385446542Y-144712204D01*
X384970352Y-143569347D02*
X384922733Y-143664585D01*
X384875114Y-143712204D01*
X384779876Y-143759823D01*
X384732257Y-143759823D01*
X384637019Y-143712204D01*
X384589400Y-143664585D01*
X384541780Y-143569347D01*
X384541780Y-143378871D01*
X384589400Y-143283633D01*
X384637019Y-143236014D01*
X384732257Y-143188395D01*
X384779876Y-143188395D01*
X384875114Y-143236014D01*
X384922733Y-143283633D01*
X384970352Y-143378871D01*
X384970352Y-143569347D01*
X385017971Y-143664585D01*
X385065590Y-143712204D01*
X385160828Y-143759823D01*
X385351304Y-143759823D01*
X385446542Y-143712204D01*
X385494161Y-143664585D01*
X385541780Y-143569347D01*
X385541780Y-143378871D01*
X385494161Y-143283633D01*
X385446542Y-143236014D01*
X385351304Y-143188395D01*
X385160828Y-143188395D01*
X385065590Y-143236014D01*
X385017971Y-143283633D01*
X384970352Y-143378871D01*
%TO.C,D57*%
X366491780Y-145664585D02*
X365491780Y-145664585D01*
X365491780Y-145426490D01*
X365539400Y-145283633D01*
X365634638Y-145188395D01*
X365729876Y-145140776D01*
X365920352Y-145093157D01*
X366063209Y-145093157D01*
X366253685Y-145140776D01*
X366348923Y-145188395D01*
X366444161Y-145283633D01*
X366491780Y-145426490D01*
X366491780Y-145664585D01*
X365491780Y-144188395D02*
X365491780Y-144664585D01*
X365967971Y-144712204D01*
X365920352Y-144664585D01*
X365872733Y-144569347D01*
X365872733Y-144331252D01*
X365920352Y-144236014D01*
X365967971Y-144188395D01*
X366063209Y-144140776D01*
X366301304Y-144140776D01*
X366396542Y-144188395D01*
X366444161Y-144236014D01*
X366491780Y-144331252D01*
X366491780Y-144569347D01*
X366444161Y-144664585D01*
X366396542Y-144712204D01*
X365491780Y-143807442D02*
X365491780Y-143140776D01*
X366491780Y-143569347D01*
%TO.C,D56*%
X347441780Y-145664585D02*
X346441780Y-145664585D01*
X346441780Y-145426490D01*
X346489400Y-145283633D01*
X346584638Y-145188395D01*
X346679876Y-145140776D01*
X346870352Y-145093157D01*
X347013209Y-145093157D01*
X347203685Y-145140776D01*
X347298923Y-145188395D01*
X347394161Y-145283633D01*
X347441780Y-145426490D01*
X347441780Y-145664585D01*
X346441780Y-144188395D02*
X346441780Y-144664585D01*
X346917971Y-144712204D01*
X346870352Y-144664585D01*
X346822733Y-144569347D01*
X346822733Y-144331252D01*
X346870352Y-144236014D01*
X346917971Y-144188395D01*
X347013209Y-144140776D01*
X347251304Y-144140776D01*
X347346542Y-144188395D01*
X347394161Y-144236014D01*
X347441780Y-144331252D01*
X347441780Y-144569347D01*
X347394161Y-144664585D01*
X347346542Y-144712204D01*
X346441780Y-143283633D02*
X346441780Y-143474109D01*
X346489400Y-143569347D01*
X346537019Y-143616966D01*
X346679876Y-143712204D01*
X346870352Y-143759823D01*
X347251304Y-143759823D01*
X347346542Y-143712204D01*
X347394161Y-143664585D01*
X347441780Y-143569347D01*
X347441780Y-143378871D01*
X347394161Y-143283633D01*
X347346542Y-143236014D01*
X347251304Y-143188395D01*
X347013209Y-143188395D01*
X346917971Y-143236014D01*
X346870352Y-143283633D01*
X346822733Y-143378871D01*
X346822733Y-143569347D01*
X346870352Y-143664585D01*
X346917971Y-143712204D01*
X347013209Y-143759823D01*
%TO.C,D55*%
X328391780Y-145664585D02*
X327391780Y-145664585D01*
X327391780Y-145426490D01*
X327439400Y-145283633D01*
X327534638Y-145188395D01*
X327629876Y-145140776D01*
X327820352Y-145093157D01*
X327963209Y-145093157D01*
X328153685Y-145140776D01*
X328248923Y-145188395D01*
X328344161Y-145283633D01*
X328391780Y-145426490D01*
X328391780Y-145664585D01*
X327391780Y-144188395D02*
X327391780Y-144664585D01*
X327867971Y-144712204D01*
X327820352Y-144664585D01*
X327772733Y-144569347D01*
X327772733Y-144331252D01*
X327820352Y-144236014D01*
X327867971Y-144188395D01*
X327963209Y-144140776D01*
X328201304Y-144140776D01*
X328296542Y-144188395D01*
X328344161Y-144236014D01*
X328391780Y-144331252D01*
X328391780Y-144569347D01*
X328344161Y-144664585D01*
X328296542Y-144712204D01*
X327391780Y-143236014D02*
X327391780Y-143712204D01*
X327867971Y-143759823D01*
X327820352Y-143712204D01*
X327772733Y-143616966D01*
X327772733Y-143378871D01*
X327820352Y-143283633D01*
X327867971Y-143236014D01*
X327963209Y-143188395D01*
X328201304Y-143188395D01*
X328296542Y-143236014D01*
X328344161Y-143283633D01*
X328391780Y-143378871D01*
X328391780Y-143616966D01*
X328344161Y-143712204D01*
X328296542Y-143759823D01*
%TO.C,D54*%
X315920380Y-145626485D02*
X314920380Y-145626485D01*
X314920380Y-145388390D01*
X314968000Y-145245533D01*
X315063238Y-145150295D01*
X315158476Y-145102676D01*
X315348952Y-145055057D01*
X315491809Y-145055057D01*
X315682285Y-145102676D01*
X315777523Y-145150295D01*
X315872761Y-145245533D01*
X315920380Y-145388390D01*
X315920380Y-145626485D01*
X314920380Y-144150295D02*
X314920380Y-144626485D01*
X315396571Y-144674104D01*
X315348952Y-144626485D01*
X315301333Y-144531247D01*
X315301333Y-144293152D01*
X315348952Y-144197914D01*
X315396571Y-144150295D01*
X315491809Y-144102676D01*
X315729904Y-144102676D01*
X315825142Y-144150295D01*
X315872761Y-144197914D01*
X315920380Y-144293152D01*
X315920380Y-144531247D01*
X315872761Y-144626485D01*
X315825142Y-144674104D01*
X315253714Y-143245533D02*
X315920380Y-143245533D01*
X314872761Y-143483628D02*
X315587047Y-143721723D01*
X315587047Y-143102676D01*
%TO.C,D53*%
X292171380Y-145677285D02*
X291171380Y-145677285D01*
X291171380Y-145439190D01*
X291219000Y-145296333D01*
X291314238Y-145201095D01*
X291409476Y-145153476D01*
X291599952Y-145105857D01*
X291742809Y-145105857D01*
X291933285Y-145153476D01*
X292028523Y-145201095D01*
X292123761Y-145296333D01*
X292171380Y-145439190D01*
X292171380Y-145677285D01*
X291171380Y-144201095D02*
X291171380Y-144677285D01*
X291647571Y-144724904D01*
X291599952Y-144677285D01*
X291552333Y-144582047D01*
X291552333Y-144343952D01*
X291599952Y-144248714D01*
X291647571Y-144201095D01*
X291742809Y-144153476D01*
X291980904Y-144153476D01*
X292076142Y-144201095D01*
X292123761Y-144248714D01*
X292171380Y-144343952D01*
X292171380Y-144582047D01*
X292123761Y-144677285D01*
X292076142Y-144724904D01*
X291171380Y-143820142D02*
X291171380Y-143201095D01*
X291552333Y-143534428D01*
X291552333Y-143391571D01*
X291599952Y-143296333D01*
X291647571Y-143248714D01*
X291742809Y-143201095D01*
X291980904Y-143201095D01*
X292076142Y-143248714D01*
X292123761Y-143296333D01*
X292171380Y-143391571D01*
X292171380Y-143677285D01*
X292123761Y-143772523D01*
X292076142Y-143820142D01*
%TO.C,D52*%
X273121380Y-145677285D02*
X272121380Y-145677285D01*
X272121380Y-145439190D01*
X272169000Y-145296333D01*
X272264238Y-145201095D01*
X272359476Y-145153476D01*
X272549952Y-145105857D01*
X272692809Y-145105857D01*
X272883285Y-145153476D01*
X272978523Y-145201095D01*
X273073761Y-145296333D01*
X273121380Y-145439190D01*
X273121380Y-145677285D01*
X272121380Y-144201095D02*
X272121380Y-144677285D01*
X272597571Y-144724904D01*
X272549952Y-144677285D01*
X272502333Y-144582047D01*
X272502333Y-144343952D01*
X272549952Y-144248714D01*
X272597571Y-144201095D01*
X272692809Y-144153476D01*
X272930904Y-144153476D01*
X273026142Y-144201095D01*
X273073761Y-144248714D01*
X273121380Y-144343952D01*
X273121380Y-144582047D01*
X273073761Y-144677285D01*
X273026142Y-144724904D01*
X272216619Y-143772523D02*
X272169000Y-143724904D01*
X272121380Y-143629666D01*
X272121380Y-143391571D01*
X272169000Y-143296333D01*
X272216619Y-143248714D01*
X272311857Y-143201095D01*
X272407095Y-143201095D01*
X272549952Y-143248714D01*
X273121380Y-143820142D01*
X273121380Y-143201095D01*
%TO.C,D51*%
X253944380Y-145677285D02*
X252944380Y-145677285D01*
X252944380Y-145439190D01*
X252992000Y-145296333D01*
X253087238Y-145201095D01*
X253182476Y-145153476D01*
X253372952Y-145105857D01*
X253515809Y-145105857D01*
X253706285Y-145153476D01*
X253801523Y-145201095D01*
X253896761Y-145296333D01*
X253944380Y-145439190D01*
X253944380Y-145677285D01*
X252944380Y-144201095D02*
X252944380Y-144677285D01*
X253420571Y-144724904D01*
X253372952Y-144677285D01*
X253325333Y-144582047D01*
X253325333Y-144343952D01*
X253372952Y-144248714D01*
X253420571Y-144201095D01*
X253515809Y-144153476D01*
X253753904Y-144153476D01*
X253849142Y-144201095D01*
X253896761Y-144248714D01*
X253944380Y-144343952D01*
X253944380Y-144582047D01*
X253896761Y-144677285D01*
X253849142Y-144724904D01*
X253944380Y-143201095D02*
X253944380Y-143772523D01*
X253944380Y-143486809D02*
X252944380Y-143486809D01*
X253087238Y-143582047D01*
X253182476Y-143677285D01*
X253230095Y-143772523D01*
%TO.C,D50*%
X234956180Y-145677285D02*
X233956180Y-145677285D01*
X233956180Y-145439190D01*
X234003800Y-145296333D01*
X234099038Y-145201095D01*
X234194276Y-145153476D01*
X234384752Y-145105857D01*
X234527609Y-145105857D01*
X234718085Y-145153476D01*
X234813323Y-145201095D01*
X234908561Y-145296333D01*
X234956180Y-145439190D01*
X234956180Y-145677285D01*
X233956180Y-144201095D02*
X233956180Y-144677285D01*
X234432371Y-144724904D01*
X234384752Y-144677285D01*
X234337133Y-144582047D01*
X234337133Y-144343952D01*
X234384752Y-144248714D01*
X234432371Y-144201095D01*
X234527609Y-144153476D01*
X234765704Y-144153476D01*
X234860942Y-144201095D01*
X234908561Y-144248714D01*
X234956180Y-144343952D01*
X234956180Y-144582047D01*
X234908561Y-144677285D01*
X234860942Y-144724904D01*
X233956180Y-143534428D02*
X233956180Y-143439190D01*
X234003800Y-143343952D01*
X234051419Y-143296333D01*
X234146657Y-143248714D01*
X234337133Y-143201095D01*
X234575228Y-143201095D01*
X234765704Y-143248714D01*
X234860942Y-143296333D01*
X234908561Y-143343952D01*
X234956180Y-143439190D01*
X234956180Y-143534428D01*
X234908561Y-143629666D01*
X234860942Y-143677285D01*
X234765704Y-143724904D01*
X234575228Y-143772523D01*
X234337133Y-143772523D01*
X234146657Y-143724904D01*
X234051419Y-143677285D01*
X234003800Y-143629666D01*
X233956180Y-143534428D01*
%TO.C,D49*%
X215844380Y-145677285D02*
X214844380Y-145677285D01*
X214844380Y-145439190D01*
X214892000Y-145296333D01*
X214987238Y-145201095D01*
X215082476Y-145153476D01*
X215272952Y-145105857D01*
X215415809Y-145105857D01*
X215606285Y-145153476D01*
X215701523Y-145201095D01*
X215796761Y-145296333D01*
X215844380Y-145439190D01*
X215844380Y-145677285D01*
X215177714Y-144248714D02*
X215844380Y-144248714D01*
X214796761Y-144486809D02*
X215511047Y-144724904D01*
X215511047Y-144105857D01*
X215844380Y-143677285D02*
X215844380Y-143486809D01*
X215796761Y-143391571D01*
X215749142Y-143343952D01*
X215606285Y-143248714D01*
X215415809Y-143201095D01*
X215034857Y-143201095D01*
X214939619Y-143248714D01*
X214892000Y-143296333D01*
X214844380Y-143391571D01*
X214844380Y-143582047D01*
X214892000Y-143677285D01*
X214939619Y-143724904D01*
X215034857Y-143772523D01*
X215272952Y-143772523D01*
X215368190Y-143724904D01*
X215415809Y-143677285D01*
X215463428Y-143582047D01*
X215463428Y-143391571D01*
X215415809Y-143296333D01*
X215368190Y-143248714D01*
X215272952Y-143201095D01*
%TO.C,D48*%
X196921380Y-145677285D02*
X195921380Y-145677285D01*
X195921380Y-145439190D01*
X195969000Y-145296333D01*
X196064238Y-145201095D01*
X196159476Y-145153476D01*
X196349952Y-145105857D01*
X196492809Y-145105857D01*
X196683285Y-145153476D01*
X196778523Y-145201095D01*
X196873761Y-145296333D01*
X196921380Y-145439190D01*
X196921380Y-145677285D01*
X196254714Y-144248714D02*
X196921380Y-144248714D01*
X195873761Y-144486809D02*
X196588047Y-144724904D01*
X196588047Y-144105857D01*
X196349952Y-143582047D02*
X196302333Y-143677285D01*
X196254714Y-143724904D01*
X196159476Y-143772523D01*
X196111857Y-143772523D01*
X196016619Y-143724904D01*
X195969000Y-143677285D01*
X195921380Y-143582047D01*
X195921380Y-143391571D01*
X195969000Y-143296333D01*
X196016619Y-143248714D01*
X196111857Y-143201095D01*
X196159476Y-143201095D01*
X196254714Y-143248714D01*
X196302333Y-143296333D01*
X196349952Y-143391571D01*
X196349952Y-143582047D01*
X196397571Y-143677285D01*
X196445190Y-143724904D01*
X196540428Y-143772523D01*
X196730904Y-143772523D01*
X196826142Y-143724904D01*
X196873761Y-143677285D01*
X196921380Y-143582047D01*
X196921380Y-143391571D01*
X196873761Y-143296333D01*
X196826142Y-143248714D01*
X196730904Y-143201095D01*
X196540428Y-143201095D01*
X196445190Y-143248714D01*
X196397571Y-143296333D01*
X196349952Y-143391571D01*
%TO.C,D47*%
X177871380Y-145677285D02*
X176871380Y-145677285D01*
X176871380Y-145439190D01*
X176919000Y-145296333D01*
X177014238Y-145201095D01*
X177109476Y-145153476D01*
X177299952Y-145105857D01*
X177442809Y-145105857D01*
X177633285Y-145153476D01*
X177728523Y-145201095D01*
X177823761Y-145296333D01*
X177871380Y-145439190D01*
X177871380Y-145677285D01*
X177204714Y-144248714D02*
X177871380Y-144248714D01*
X176823761Y-144486809D02*
X177538047Y-144724904D01*
X177538047Y-144105857D01*
X176871380Y-143820142D02*
X176871380Y-143153476D01*
X177871380Y-143582047D01*
%TO.C,D46*%
X158821380Y-145677285D02*
X157821380Y-145677285D01*
X157821380Y-145439190D01*
X157869000Y-145296333D01*
X157964238Y-145201095D01*
X158059476Y-145153476D01*
X158249952Y-145105857D01*
X158392809Y-145105857D01*
X158583285Y-145153476D01*
X158678523Y-145201095D01*
X158773761Y-145296333D01*
X158821380Y-145439190D01*
X158821380Y-145677285D01*
X158154714Y-144248714D02*
X158821380Y-144248714D01*
X157773761Y-144486809D02*
X158488047Y-144724904D01*
X158488047Y-144105857D01*
X157821380Y-143296333D02*
X157821380Y-143486809D01*
X157869000Y-143582047D01*
X157916619Y-143629666D01*
X158059476Y-143724904D01*
X158249952Y-143772523D01*
X158630904Y-143772523D01*
X158726142Y-143724904D01*
X158773761Y-143677285D01*
X158821380Y-143582047D01*
X158821380Y-143391571D01*
X158773761Y-143296333D01*
X158726142Y-143248714D01*
X158630904Y-143201095D01*
X158392809Y-143201095D01*
X158297571Y-143248714D01*
X158249952Y-143296333D01*
X158202333Y-143391571D01*
X158202333Y-143582047D01*
X158249952Y-143677285D01*
X158297571Y-143724904D01*
X158392809Y-143772523D01*
%TO.C,D45*%
X139644380Y-145677285D02*
X138644380Y-145677285D01*
X138644380Y-145439190D01*
X138692000Y-145296333D01*
X138787238Y-145201095D01*
X138882476Y-145153476D01*
X139072952Y-145105857D01*
X139215809Y-145105857D01*
X139406285Y-145153476D01*
X139501523Y-145201095D01*
X139596761Y-145296333D01*
X139644380Y-145439190D01*
X139644380Y-145677285D01*
X138977714Y-144248714D02*
X139644380Y-144248714D01*
X138596761Y-144486809D02*
X139311047Y-144724904D01*
X139311047Y-144105857D01*
X138644380Y-143248714D02*
X138644380Y-143724904D01*
X139120571Y-143772523D01*
X139072952Y-143724904D01*
X139025333Y-143629666D01*
X139025333Y-143391571D01*
X139072952Y-143296333D01*
X139120571Y-143248714D01*
X139215809Y-143201095D01*
X139453904Y-143201095D01*
X139549142Y-143248714D01*
X139596761Y-143296333D01*
X139644380Y-143391571D01*
X139644380Y-143629666D01*
X139596761Y-143724904D01*
X139549142Y-143772523D01*
%TO.C,D44*%
X120594380Y-145677285D02*
X119594380Y-145677285D01*
X119594380Y-145439190D01*
X119642000Y-145296333D01*
X119737238Y-145201095D01*
X119832476Y-145153476D01*
X120022952Y-145105857D01*
X120165809Y-145105857D01*
X120356285Y-145153476D01*
X120451523Y-145201095D01*
X120546761Y-145296333D01*
X120594380Y-145439190D01*
X120594380Y-145677285D01*
X119927714Y-144248714D02*
X120594380Y-144248714D01*
X119546761Y-144486809D02*
X120261047Y-144724904D01*
X120261047Y-144105857D01*
X119927714Y-143296333D02*
X120594380Y-143296333D01*
X119546761Y-143534428D02*
X120261047Y-143772523D01*
X120261047Y-143153476D01*
%TO.C,D43*%
X101544380Y-145677285D02*
X100544380Y-145677285D01*
X100544380Y-145439190D01*
X100592000Y-145296333D01*
X100687238Y-145201095D01*
X100782476Y-145153476D01*
X100972952Y-145105857D01*
X101115809Y-145105857D01*
X101306285Y-145153476D01*
X101401523Y-145201095D01*
X101496761Y-145296333D01*
X101544380Y-145439190D01*
X101544380Y-145677285D01*
X100877714Y-144248714D02*
X101544380Y-144248714D01*
X100496761Y-144486809D02*
X101211047Y-144724904D01*
X101211047Y-144105857D01*
X100544380Y-143820142D02*
X100544380Y-143201095D01*
X100925333Y-143534428D01*
X100925333Y-143391571D01*
X100972952Y-143296333D01*
X101020571Y-143248714D01*
X101115809Y-143201095D01*
X101353904Y-143201095D01*
X101449142Y-143248714D01*
X101496761Y-143296333D01*
X101544380Y-143391571D01*
X101544380Y-143677285D01*
X101496761Y-143772523D01*
X101449142Y-143820142D01*
%TO.C,D42*%
X82494380Y-145677285D02*
X81494380Y-145677285D01*
X81494380Y-145439190D01*
X81542000Y-145296333D01*
X81637238Y-145201095D01*
X81732476Y-145153476D01*
X81922952Y-145105857D01*
X82065809Y-145105857D01*
X82256285Y-145153476D01*
X82351523Y-145201095D01*
X82446761Y-145296333D01*
X82494380Y-145439190D01*
X82494380Y-145677285D01*
X81827714Y-144248714D02*
X82494380Y-144248714D01*
X81446761Y-144486809D02*
X82161047Y-144724904D01*
X82161047Y-144105857D01*
X81589619Y-143772523D02*
X81542000Y-143724904D01*
X81494380Y-143629666D01*
X81494380Y-143391571D01*
X81542000Y-143296333D01*
X81589619Y-143248714D01*
X81684857Y-143201095D01*
X81780095Y-143201095D01*
X81922952Y-143248714D01*
X82494380Y-143820142D01*
X82494380Y-143201095D01*
%TO.C,D41*%
X63571380Y-145677285D02*
X62571380Y-145677285D01*
X62571380Y-145439190D01*
X62619000Y-145296333D01*
X62714238Y-145201095D01*
X62809476Y-145153476D01*
X62999952Y-145105857D01*
X63142809Y-145105857D01*
X63333285Y-145153476D01*
X63428523Y-145201095D01*
X63523761Y-145296333D01*
X63571380Y-145439190D01*
X63571380Y-145677285D01*
X62904714Y-144248714D02*
X63571380Y-144248714D01*
X62523761Y-144486809D02*
X63238047Y-144724904D01*
X63238047Y-144105857D01*
X63571380Y-143201095D02*
X63571380Y-143772523D01*
X63571380Y-143486809D02*
X62571380Y-143486809D01*
X62714238Y-143582047D01*
X62809476Y-143677285D01*
X62857095Y-143772523D01*
%TO.C,D40*%
X44394380Y-145677285D02*
X43394380Y-145677285D01*
X43394380Y-145439190D01*
X43442000Y-145296333D01*
X43537238Y-145201095D01*
X43632476Y-145153476D01*
X43822952Y-145105857D01*
X43965809Y-145105857D01*
X44156285Y-145153476D01*
X44251523Y-145201095D01*
X44346761Y-145296333D01*
X44394380Y-145439190D01*
X44394380Y-145677285D01*
X43727714Y-144248714D02*
X44394380Y-144248714D01*
X43346761Y-144486809D02*
X44061047Y-144724904D01*
X44061047Y-144105857D01*
X43394380Y-143534428D02*
X43394380Y-143439190D01*
X43442000Y-143343952D01*
X43489619Y-143296333D01*
X43584857Y-143248714D01*
X43775333Y-143201095D01*
X44013428Y-143201095D01*
X44203904Y-143248714D01*
X44299142Y-143296333D01*
X44346761Y-143343952D01*
X44394380Y-143439190D01*
X44394380Y-143534428D01*
X44346761Y-143629666D01*
X44299142Y-143677285D01*
X44203904Y-143724904D01*
X44013428Y-143772523D01*
X43775333Y-143772523D01*
X43584857Y-143724904D01*
X43489619Y-143677285D01*
X43442000Y-143629666D01*
X43394380Y-143534428D01*
%TO.C,D39*%
X385541780Y-126868585D02*
X384541780Y-126868585D01*
X384541780Y-126630490D01*
X384589400Y-126487633D01*
X384684638Y-126392395D01*
X384779876Y-126344776D01*
X384970352Y-126297157D01*
X385113209Y-126297157D01*
X385303685Y-126344776D01*
X385398923Y-126392395D01*
X385494161Y-126487633D01*
X385541780Y-126630490D01*
X385541780Y-126868585D01*
X384541780Y-125963823D02*
X384541780Y-125344776D01*
X384922733Y-125678109D01*
X384922733Y-125535252D01*
X384970352Y-125440014D01*
X385017971Y-125392395D01*
X385113209Y-125344776D01*
X385351304Y-125344776D01*
X385446542Y-125392395D01*
X385494161Y-125440014D01*
X385541780Y-125535252D01*
X385541780Y-125820966D01*
X385494161Y-125916204D01*
X385446542Y-125963823D01*
X385541780Y-124868585D02*
X385541780Y-124678109D01*
X385494161Y-124582871D01*
X385446542Y-124535252D01*
X385303685Y-124440014D01*
X385113209Y-124392395D01*
X384732257Y-124392395D01*
X384637019Y-124440014D01*
X384589400Y-124487633D01*
X384541780Y-124582871D01*
X384541780Y-124773347D01*
X384589400Y-124868585D01*
X384637019Y-124916204D01*
X384732257Y-124963823D01*
X384970352Y-124963823D01*
X385065590Y-124916204D01*
X385113209Y-124868585D01*
X385160828Y-124773347D01*
X385160828Y-124582871D01*
X385113209Y-124487633D01*
X385065590Y-124440014D01*
X384970352Y-124392395D01*
%TO.C,D38*%
X366491780Y-126868585D02*
X365491780Y-126868585D01*
X365491780Y-126630490D01*
X365539400Y-126487633D01*
X365634638Y-126392395D01*
X365729876Y-126344776D01*
X365920352Y-126297157D01*
X366063209Y-126297157D01*
X366253685Y-126344776D01*
X366348923Y-126392395D01*
X366444161Y-126487633D01*
X366491780Y-126630490D01*
X366491780Y-126868585D01*
X365491780Y-125963823D02*
X365491780Y-125344776D01*
X365872733Y-125678109D01*
X365872733Y-125535252D01*
X365920352Y-125440014D01*
X365967971Y-125392395D01*
X366063209Y-125344776D01*
X366301304Y-125344776D01*
X366396542Y-125392395D01*
X366444161Y-125440014D01*
X366491780Y-125535252D01*
X366491780Y-125820966D01*
X366444161Y-125916204D01*
X366396542Y-125963823D01*
X365920352Y-124773347D02*
X365872733Y-124868585D01*
X365825114Y-124916204D01*
X365729876Y-124963823D01*
X365682257Y-124963823D01*
X365587019Y-124916204D01*
X365539400Y-124868585D01*
X365491780Y-124773347D01*
X365491780Y-124582871D01*
X365539400Y-124487633D01*
X365587019Y-124440014D01*
X365682257Y-124392395D01*
X365729876Y-124392395D01*
X365825114Y-124440014D01*
X365872733Y-124487633D01*
X365920352Y-124582871D01*
X365920352Y-124773347D01*
X365967971Y-124868585D01*
X366015590Y-124916204D01*
X366110828Y-124963823D01*
X366301304Y-124963823D01*
X366396542Y-124916204D01*
X366444161Y-124868585D01*
X366491780Y-124773347D01*
X366491780Y-124582871D01*
X366444161Y-124487633D01*
X366396542Y-124440014D01*
X366301304Y-124392395D01*
X366110828Y-124392395D01*
X366015590Y-124440014D01*
X365967971Y-124487633D01*
X365920352Y-124582871D01*
%TO.C,D37*%
X347441780Y-126868585D02*
X346441780Y-126868585D01*
X346441780Y-126630490D01*
X346489400Y-126487633D01*
X346584638Y-126392395D01*
X346679876Y-126344776D01*
X346870352Y-126297157D01*
X347013209Y-126297157D01*
X347203685Y-126344776D01*
X347298923Y-126392395D01*
X347394161Y-126487633D01*
X347441780Y-126630490D01*
X347441780Y-126868585D01*
X346441780Y-125963823D02*
X346441780Y-125344776D01*
X346822733Y-125678109D01*
X346822733Y-125535252D01*
X346870352Y-125440014D01*
X346917971Y-125392395D01*
X347013209Y-125344776D01*
X347251304Y-125344776D01*
X347346542Y-125392395D01*
X347394161Y-125440014D01*
X347441780Y-125535252D01*
X347441780Y-125820966D01*
X347394161Y-125916204D01*
X347346542Y-125963823D01*
X346441780Y-125011442D02*
X346441780Y-124344776D01*
X347441780Y-124773347D01*
%TO.C,D36*%
X328391780Y-126868585D02*
X327391780Y-126868585D01*
X327391780Y-126630490D01*
X327439400Y-126487633D01*
X327534638Y-126392395D01*
X327629876Y-126344776D01*
X327820352Y-126297157D01*
X327963209Y-126297157D01*
X328153685Y-126344776D01*
X328248923Y-126392395D01*
X328344161Y-126487633D01*
X328391780Y-126630490D01*
X328391780Y-126868585D01*
X327391780Y-125963823D02*
X327391780Y-125344776D01*
X327772733Y-125678109D01*
X327772733Y-125535252D01*
X327820352Y-125440014D01*
X327867971Y-125392395D01*
X327963209Y-125344776D01*
X328201304Y-125344776D01*
X328296542Y-125392395D01*
X328344161Y-125440014D01*
X328391780Y-125535252D01*
X328391780Y-125820966D01*
X328344161Y-125916204D01*
X328296542Y-125963823D01*
X327391780Y-124487633D02*
X327391780Y-124678109D01*
X327439400Y-124773347D01*
X327487019Y-124820966D01*
X327629876Y-124916204D01*
X327820352Y-124963823D01*
X328201304Y-124963823D01*
X328296542Y-124916204D01*
X328344161Y-124868585D01*
X328391780Y-124773347D01*
X328391780Y-124582871D01*
X328344161Y-124487633D01*
X328296542Y-124440014D01*
X328201304Y-124392395D01*
X327963209Y-124392395D01*
X327867971Y-124440014D01*
X327820352Y-124487633D01*
X327772733Y-124582871D01*
X327772733Y-124773347D01*
X327820352Y-124868585D01*
X327867971Y-124916204D01*
X327963209Y-124963823D01*
%TO.C,D35*%
X315920380Y-126881285D02*
X314920380Y-126881285D01*
X314920380Y-126643190D01*
X314968000Y-126500333D01*
X315063238Y-126405095D01*
X315158476Y-126357476D01*
X315348952Y-126309857D01*
X315491809Y-126309857D01*
X315682285Y-126357476D01*
X315777523Y-126405095D01*
X315872761Y-126500333D01*
X315920380Y-126643190D01*
X315920380Y-126881285D01*
X314920380Y-125976523D02*
X314920380Y-125357476D01*
X315301333Y-125690809D01*
X315301333Y-125547952D01*
X315348952Y-125452714D01*
X315396571Y-125405095D01*
X315491809Y-125357476D01*
X315729904Y-125357476D01*
X315825142Y-125405095D01*
X315872761Y-125452714D01*
X315920380Y-125547952D01*
X315920380Y-125833666D01*
X315872761Y-125928904D01*
X315825142Y-125976523D01*
X314920380Y-124452714D02*
X314920380Y-124928904D01*
X315396571Y-124976523D01*
X315348952Y-124928904D01*
X315301333Y-124833666D01*
X315301333Y-124595571D01*
X315348952Y-124500333D01*
X315396571Y-124452714D01*
X315491809Y-124405095D01*
X315729904Y-124405095D01*
X315825142Y-124452714D01*
X315872761Y-124500333D01*
X315920380Y-124595571D01*
X315920380Y-124833666D01*
X315872761Y-124928904D01*
X315825142Y-124976523D01*
%TO.C,D34*%
X296870380Y-126881285D02*
X295870380Y-126881285D01*
X295870380Y-126643190D01*
X295918000Y-126500333D01*
X296013238Y-126405095D01*
X296108476Y-126357476D01*
X296298952Y-126309857D01*
X296441809Y-126309857D01*
X296632285Y-126357476D01*
X296727523Y-126405095D01*
X296822761Y-126500333D01*
X296870380Y-126643190D01*
X296870380Y-126881285D01*
X295870380Y-125976523D02*
X295870380Y-125357476D01*
X296251333Y-125690809D01*
X296251333Y-125547952D01*
X296298952Y-125452714D01*
X296346571Y-125405095D01*
X296441809Y-125357476D01*
X296679904Y-125357476D01*
X296775142Y-125405095D01*
X296822761Y-125452714D01*
X296870380Y-125547952D01*
X296870380Y-125833666D01*
X296822761Y-125928904D01*
X296775142Y-125976523D01*
X296203714Y-124500333D02*
X296870380Y-124500333D01*
X295822761Y-124738428D02*
X296537047Y-124976523D01*
X296537047Y-124357476D01*
%TO.C,D33*%
X263469380Y-126881285D02*
X262469380Y-126881285D01*
X262469380Y-126643190D01*
X262517000Y-126500333D01*
X262612238Y-126405095D01*
X262707476Y-126357476D01*
X262897952Y-126309857D01*
X263040809Y-126309857D01*
X263231285Y-126357476D01*
X263326523Y-126405095D01*
X263421761Y-126500333D01*
X263469380Y-126643190D01*
X263469380Y-126881285D01*
X262469380Y-125976523D02*
X262469380Y-125357476D01*
X262850333Y-125690809D01*
X262850333Y-125547952D01*
X262897952Y-125452714D01*
X262945571Y-125405095D01*
X263040809Y-125357476D01*
X263278904Y-125357476D01*
X263374142Y-125405095D01*
X263421761Y-125452714D01*
X263469380Y-125547952D01*
X263469380Y-125833666D01*
X263421761Y-125928904D01*
X263374142Y-125976523D01*
X262469380Y-125024142D02*
X262469380Y-124405095D01*
X262850333Y-124738428D01*
X262850333Y-124595571D01*
X262897952Y-124500333D01*
X262945571Y-124452714D01*
X263040809Y-124405095D01*
X263278904Y-124405095D01*
X263374142Y-124452714D01*
X263421761Y-124500333D01*
X263469380Y-124595571D01*
X263469380Y-124881285D01*
X263421761Y-124976523D01*
X263374142Y-125024142D01*
%TO.C,D31*%
X225496380Y-126881285D02*
X224496380Y-126881285D01*
X224496380Y-126643190D01*
X224544000Y-126500333D01*
X224639238Y-126405095D01*
X224734476Y-126357476D01*
X224924952Y-126309857D01*
X225067809Y-126309857D01*
X225258285Y-126357476D01*
X225353523Y-126405095D01*
X225448761Y-126500333D01*
X225496380Y-126643190D01*
X225496380Y-126881285D01*
X224496380Y-125976523D02*
X224496380Y-125357476D01*
X224877333Y-125690809D01*
X224877333Y-125547952D01*
X224924952Y-125452714D01*
X224972571Y-125405095D01*
X225067809Y-125357476D01*
X225305904Y-125357476D01*
X225401142Y-125405095D01*
X225448761Y-125452714D01*
X225496380Y-125547952D01*
X225496380Y-125833666D01*
X225448761Y-125928904D01*
X225401142Y-125976523D01*
X225496380Y-124405095D02*
X225496380Y-124976523D01*
X225496380Y-124690809D02*
X224496380Y-124690809D01*
X224639238Y-124786047D01*
X224734476Y-124881285D01*
X224782095Y-124976523D01*
%TO.C,D30*%
X206381180Y-126881285D02*
X205381180Y-126881285D01*
X205381180Y-126643190D01*
X205428800Y-126500333D01*
X205524038Y-126405095D01*
X205619276Y-126357476D01*
X205809752Y-126309857D01*
X205952609Y-126309857D01*
X206143085Y-126357476D01*
X206238323Y-126405095D01*
X206333561Y-126500333D01*
X206381180Y-126643190D01*
X206381180Y-126881285D01*
X205381180Y-125976523D02*
X205381180Y-125357476D01*
X205762133Y-125690809D01*
X205762133Y-125547952D01*
X205809752Y-125452714D01*
X205857371Y-125405095D01*
X205952609Y-125357476D01*
X206190704Y-125357476D01*
X206285942Y-125405095D01*
X206333561Y-125452714D01*
X206381180Y-125547952D01*
X206381180Y-125833666D01*
X206333561Y-125928904D01*
X206285942Y-125976523D01*
X205381180Y-124738428D02*
X205381180Y-124643190D01*
X205428800Y-124547952D01*
X205476419Y-124500333D01*
X205571657Y-124452714D01*
X205762133Y-124405095D01*
X206000228Y-124405095D01*
X206190704Y-124452714D01*
X206285942Y-124500333D01*
X206333561Y-124547952D01*
X206381180Y-124643190D01*
X206381180Y-124738428D01*
X206333561Y-124833666D01*
X206285942Y-124881285D01*
X206190704Y-124928904D01*
X206000228Y-124976523D01*
X205762133Y-124976523D01*
X205571657Y-124928904D01*
X205476419Y-124881285D01*
X205428800Y-124833666D01*
X205381180Y-124738428D01*
%TO.C,D29*%
X187269380Y-126881285D02*
X186269380Y-126881285D01*
X186269380Y-126643190D01*
X186317000Y-126500333D01*
X186412238Y-126405095D01*
X186507476Y-126357476D01*
X186697952Y-126309857D01*
X186840809Y-126309857D01*
X187031285Y-126357476D01*
X187126523Y-126405095D01*
X187221761Y-126500333D01*
X187269380Y-126643190D01*
X187269380Y-126881285D01*
X186364619Y-125928904D02*
X186317000Y-125881285D01*
X186269380Y-125786047D01*
X186269380Y-125547952D01*
X186317000Y-125452714D01*
X186364619Y-125405095D01*
X186459857Y-125357476D01*
X186555095Y-125357476D01*
X186697952Y-125405095D01*
X187269380Y-125976523D01*
X187269380Y-125357476D01*
X187269380Y-124881285D02*
X187269380Y-124690809D01*
X187221761Y-124595571D01*
X187174142Y-124547952D01*
X187031285Y-124452714D01*
X186840809Y-124405095D01*
X186459857Y-124405095D01*
X186364619Y-124452714D01*
X186317000Y-124500333D01*
X186269380Y-124595571D01*
X186269380Y-124786047D01*
X186317000Y-124881285D01*
X186364619Y-124928904D01*
X186459857Y-124976523D01*
X186697952Y-124976523D01*
X186793190Y-124928904D01*
X186840809Y-124881285D01*
X186888428Y-124786047D01*
X186888428Y-124595571D01*
X186840809Y-124500333D01*
X186793190Y-124452714D01*
X186697952Y-124405095D01*
%TO.C,D28*%
X168219380Y-126881285D02*
X167219380Y-126881285D01*
X167219380Y-126643190D01*
X167267000Y-126500333D01*
X167362238Y-126405095D01*
X167457476Y-126357476D01*
X167647952Y-126309857D01*
X167790809Y-126309857D01*
X167981285Y-126357476D01*
X168076523Y-126405095D01*
X168171761Y-126500333D01*
X168219380Y-126643190D01*
X168219380Y-126881285D01*
X167314619Y-125928904D02*
X167267000Y-125881285D01*
X167219380Y-125786047D01*
X167219380Y-125547952D01*
X167267000Y-125452714D01*
X167314619Y-125405095D01*
X167409857Y-125357476D01*
X167505095Y-125357476D01*
X167647952Y-125405095D01*
X168219380Y-125976523D01*
X168219380Y-125357476D01*
X167647952Y-124786047D02*
X167600333Y-124881285D01*
X167552714Y-124928904D01*
X167457476Y-124976523D01*
X167409857Y-124976523D01*
X167314619Y-124928904D01*
X167267000Y-124881285D01*
X167219380Y-124786047D01*
X167219380Y-124595571D01*
X167267000Y-124500333D01*
X167314619Y-124452714D01*
X167409857Y-124405095D01*
X167457476Y-124405095D01*
X167552714Y-124452714D01*
X167600333Y-124500333D01*
X167647952Y-124595571D01*
X167647952Y-124786047D01*
X167695571Y-124881285D01*
X167743190Y-124928904D01*
X167838428Y-124976523D01*
X168028904Y-124976523D01*
X168124142Y-124928904D01*
X168171761Y-124881285D01*
X168219380Y-124786047D01*
X168219380Y-124595571D01*
X168171761Y-124500333D01*
X168124142Y-124452714D01*
X168028904Y-124405095D01*
X167838428Y-124405095D01*
X167743190Y-124452714D01*
X167695571Y-124500333D01*
X167647952Y-124595571D01*
%TO.C,D27*%
X149169380Y-126881285D02*
X148169380Y-126881285D01*
X148169380Y-126643190D01*
X148217000Y-126500333D01*
X148312238Y-126405095D01*
X148407476Y-126357476D01*
X148597952Y-126309857D01*
X148740809Y-126309857D01*
X148931285Y-126357476D01*
X149026523Y-126405095D01*
X149121761Y-126500333D01*
X149169380Y-126643190D01*
X149169380Y-126881285D01*
X148264619Y-125928904D02*
X148217000Y-125881285D01*
X148169380Y-125786047D01*
X148169380Y-125547952D01*
X148217000Y-125452714D01*
X148264619Y-125405095D01*
X148359857Y-125357476D01*
X148455095Y-125357476D01*
X148597952Y-125405095D01*
X149169380Y-125976523D01*
X149169380Y-125357476D01*
X148169380Y-125024142D02*
X148169380Y-124357476D01*
X149169380Y-124786047D01*
%TO.C,D26*%
X130119380Y-126881285D02*
X129119380Y-126881285D01*
X129119380Y-126643190D01*
X129167000Y-126500333D01*
X129262238Y-126405095D01*
X129357476Y-126357476D01*
X129547952Y-126309857D01*
X129690809Y-126309857D01*
X129881285Y-126357476D01*
X129976523Y-126405095D01*
X130071761Y-126500333D01*
X130119380Y-126643190D01*
X130119380Y-126881285D01*
X129214619Y-125928904D02*
X129167000Y-125881285D01*
X129119380Y-125786047D01*
X129119380Y-125547952D01*
X129167000Y-125452714D01*
X129214619Y-125405095D01*
X129309857Y-125357476D01*
X129405095Y-125357476D01*
X129547952Y-125405095D01*
X130119380Y-125976523D01*
X130119380Y-125357476D01*
X129119380Y-124500333D02*
X129119380Y-124690809D01*
X129167000Y-124786047D01*
X129214619Y-124833666D01*
X129357476Y-124928904D01*
X129547952Y-124976523D01*
X129928904Y-124976523D01*
X130024142Y-124928904D01*
X130071761Y-124881285D01*
X130119380Y-124786047D01*
X130119380Y-124595571D01*
X130071761Y-124500333D01*
X130024142Y-124452714D01*
X129928904Y-124405095D01*
X129690809Y-124405095D01*
X129595571Y-124452714D01*
X129547952Y-124500333D01*
X129500333Y-124595571D01*
X129500333Y-124786047D01*
X129547952Y-124881285D01*
X129595571Y-124928904D01*
X129690809Y-124976523D01*
%TO.C,D25*%
X111069380Y-126881285D02*
X110069380Y-126881285D01*
X110069380Y-126643190D01*
X110117000Y-126500333D01*
X110212238Y-126405095D01*
X110307476Y-126357476D01*
X110497952Y-126309857D01*
X110640809Y-126309857D01*
X110831285Y-126357476D01*
X110926523Y-126405095D01*
X111021761Y-126500333D01*
X111069380Y-126643190D01*
X111069380Y-126881285D01*
X110164619Y-125928904D02*
X110117000Y-125881285D01*
X110069380Y-125786047D01*
X110069380Y-125547952D01*
X110117000Y-125452714D01*
X110164619Y-125405095D01*
X110259857Y-125357476D01*
X110355095Y-125357476D01*
X110497952Y-125405095D01*
X111069380Y-125976523D01*
X111069380Y-125357476D01*
X110069380Y-124452714D02*
X110069380Y-124928904D01*
X110545571Y-124976523D01*
X110497952Y-124928904D01*
X110450333Y-124833666D01*
X110450333Y-124595571D01*
X110497952Y-124500333D01*
X110545571Y-124452714D01*
X110640809Y-124405095D01*
X110878904Y-124405095D01*
X110974142Y-124452714D01*
X111021761Y-124500333D01*
X111069380Y-124595571D01*
X111069380Y-124833666D01*
X111021761Y-124928904D01*
X110974142Y-124976523D01*
%TO.C,D24*%
X92019380Y-126881285D02*
X91019380Y-126881285D01*
X91019380Y-126643190D01*
X91067000Y-126500333D01*
X91162238Y-126405095D01*
X91257476Y-126357476D01*
X91447952Y-126309857D01*
X91590809Y-126309857D01*
X91781285Y-126357476D01*
X91876523Y-126405095D01*
X91971761Y-126500333D01*
X92019380Y-126643190D01*
X92019380Y-126881285D01*
X91114619Y-125928904D02*
X91067000Y-125881285D01*
X91019380Y-125786047D01*
X91019380Y-125547952D01*
X91067000Y-125452714D01*
X91114619Y-125405095D01*
X91209857Y-125357476D01*
X91305095Y-125357476D01*
X91447952Y-125405095D01*
X92019380Y-125976523D01*
X92019380Y-125357476D01*
X91352714Y-124500333D02*
X92019380Y-124500333D01*
X90971761Y-124738428D02*
X91686047Y-124976523D01*
X91686047Y-124357476D01*
%TO.C,D23*%
X72969380Y-126881285D02*
X71969380Y-126881285D01*
X71969380Y-126643190D01*
X72017000Y-126500333D01*
X72112238Y-126405095D01*
X72207476Y-126357476D01*
X72397952Y-126309857D01*
X72540809Y-126309857D01*
X72731285Y-126357476D01*
X72826523Y-126405095D01*
X72921761Y-126500333D01*
X72969380Y-126643190D01*
X72969380Y-126881285D01*
X72064619Y-125928904D02*
X72017000Y-125881285D01*
X71969380Y-125786047D01*
X71969380Y-125547952D01*
X72017000Y-125452714D01*
X72064619Y-125405095D01*
X72159857Y-125357476D01*
X72255095Y-125357476D01*
X72397952Y-125405095D01*
X72969380Y-125976523D01*
X72969380Y-125357476D01*
X71969380Y-125024142D02*
X71969380Y-124405095D01*
X72350333Y-124738428D01*
X72350333Y-124595571D01*
X72397952Y-124500333D01*
X72445571Y-124452714D01*
X72540809Y-124405095D01*
X72778904Y-124405095D01*
X72874142Y-124452714D01*
X72921761Y-124500333D01*
X72969380Y-124595571D01*
X72969380Y-124881285D01*
X72921761Y-124976523D01*
X72874142Y-125024142D01*
%TO.C,D22*%
X53919380Y-126881285D02*
X52919380Y-126881285D01*
X52919380Y-126643190D01*
X52967000Y-126500333D01*
X53062238Y-126405095D01*
X53157476Y-126357476D01*
X53347952Y-126309857D01*
X53490809Y-126309857D01*
X53681285Y-126357476D01*
X53776523Y-126405095D01*
X53871761Y-126500333D01*
X53919380Y-126643190D01*
X53919380Y-126881285D01*
X53014619Y-125928904D02*
X52967000Y-125881285D01*
X52919380Y-125786047D01*
X52919380Y-125547952D01*
X52967000Y-125452714D01*
X53014619Y-125405095D01*
X53109857Y-125357476D01*
X53205095Y-125357476D01*
X53347952Y-125405095D01*
X53919380Y-125976523D01*
X53919380Y-125357476D01*
X53014619Y-124976523D02*
X52967000Y-124928904D01*
X52919380Y-124833666D01*
X52919380Y-124595571D01*
X52967000Y-124500333D01*
X53014619Y-124452714D01*
X53109857Y-124405095D01*
X53205095Y-124405095D01*
X53347952Y-124452714D01*
X53919380Y-125024142D01*
X53919380Y-124405095D01*
%TO.C,D21*%
X34869380Y-126881285D02*
X33869380Y-126881285D01*
X33869380Y-126643190D01*
X33917000Y-126500333D01*
X34012238Y-126405095D01*
X34107476Y-126357476D01*
X34297952Y-126309857D01*
X34440809Y-126309857D01*
X34631285Y-126357476D01*
X34726523Y-126405095D01*
X34821761Y-126500333D01*
X34869380Y-126643190D01*
X34869380Y-126881285D01*
X33964619Y-125928904D02*
X33917000Y-125881285D01*
X33869380Y-125786047D01*
X33869380Y-125547952D01*
X33917000Y-125452714D01*
X33964619Y-125405095D01*
X34059857Y-125357476D01*
X34155095Y-125357476D01*
X34297952Y-125405095D01*
X34869380Y-125976523D01*
X34869380Y-125357476D01*
X34869380Y-124405095D02*
X34869380Y-124976523D01*
X34869380Y-124690809D02*
X33869380Y-124690809D01*
X34012238Y-124786047D01*
X34107476Y-124881285D01*
X34155095Y-124976523D01*
%TO.C,D20*%
X385592580Y-96858485D02*
X384592580Y-96858485D01*
X384592580Y-96620390D01*
X384640200Y-96477533D01*
X384735438Y-96382295D01*
X384830676Y-96334676D01*
X385021152Y-96287057D01*
X385164009Y-96287057D01*
X385354485Y-96334676D01*
X385449723Y-96382295D01*
X385544961Y-96477533D01*
X385592580Y-96620390D01*
X385592580Y-96858485D01*
X384687819Y-95906104D02*
X384640200Y-95858485D01*
X384592580Y-95763247D01*
X384592580Y-95525152D01*
X384640200Y-95429914D01*
X384687819Y-95382295D01*
X384783057Y-95334676D01*
X384878295Y-95334676D01*
X385021152Y-95382295D01*
X385592580Y-95953723D01*
X385592580Y-95334676D01*
X384592580Y-94715628D02*
X384592580Y-94620390D01*
X384640200Y-94525152D01*
X384687819Y-94477533D01*
X384783057Y-94429914D01*
X384973533Y-94382295D01*
X385211628Y-94382295D01*
X385402104Y-94429914D01*
X385497342Y-94477533D01*
X385544961Y-94525152D01*
X385592580Y-94620390D01*
X385592580Y-94715628D01*
X385544961Y-94810866D01*
X385497342Y-94858485D01*
X385402104Y-94906104D01*
X385211628Y-94953723D01*
X384973533Y-94953723D01*
X384783057Y-94906104D01*
X384687819Y-94858485D01*
X384640200Y-94810866D01*
X384592580Y-94715628D01*
%TO.C,D19*%
X366542580Y-96858485D02*
X365542580Y-96858485D01*
X365542580Y-96620390D01*
X365590200Y-96477533D01*
X365685438Y-96382295D01*
X365780676Y-96334676D01*
X365971152Y-96287057D01*
X366114009Y-96287057D01*
X366304485Y-96334676D01*
X366399723Y-96382295D01*
X366494961Y-96477533D01*
X366542580Y-96620390D01*
X366542580Y-96858485D01*
X366542580Y-95334676D02*
X366542580Y-95906104D01*
X366542580Y-95620390D02*
X365542580Y-95620390D01*
X365685438Y-95715628D01*
X365780676Y-95810866D01*
X365828295Y-95906104D01*
X366542580Y-94858485D02*
X366542580Y-94668009D01*
X366494961Y-94572771D01*
X366447342Y-94525152D01*
X366304485Y-94429914D01*
X366114009Y-94382295D01*
X365733057Y-94382295D01*
X365637819Y-94429914D01*
X365590200Y-94477533D01*
X365542580Y-94572771D01*
X365542580Y-94763247D01*
X365590200Y-94858485D01*
X365637819Y-94906104D01*
X365733057Y-94953723D01*
X365971152Y-94953723D01*
X366066390Y-94906104D01*
X366114009Y-94858485D01*
X366161628Y-94763247D01*
X366161628Y-94572771D01*
X366114009Y-94477533D01*
X366066390Y-94429914D01*
X365971152Y-94382295D01*
%TO.C,D18*%
X355163380Y-96858485D02*
X354163380Y-96858485D01*
X354163380Y-96620390D01*
X354211000Y-96477533D01*
X354306238Y-96382295D01*
X354401476Y-96334676D01*
X354591952Y-96287057D01*
X354734809Y-96287057D01*
X354925285Y-96334676D01*
X355020523Y-96382295D01*
X355115761Y-96477533D01*
X355163380Y-96620390D01*
X355163380Y-96858485D01*
X355163380Y-95334676D02*
X355163380Y-95906104D01*
X355163380Y-95620390D02*
X354163380Y-95620390D01*
X354306238Y-95715628D01*
X354401476Y-95810866D01*
X354449095Y-95906104D01*
X354591952Y-94763247D02*
X354544333Y-94858485D01*
X354496714Y-94906104D01*
X354401476Y-94953723D01*
X354353857Y-94953723D01*
X354258619Y-94906104D01*
X354211000Y-94858485D01*
X354163380Y-94763247D01*
X354163380Y-94572771D01*
X354211000Y-94477533D01*
X354258619Y-94429914D01*
X354353857Y-94382295D01*
X354401476Y-94382295D01*
X354496714Y-94429914D01*
X354544333Y-94477533D01*
X354591952Y-94572771D01*
X354591952Y-94763247D01*
X354639571Y-94858485D01*
X354687190Y-94906104D01*
X354782428Y-94953723D01*
X354972904Y-94953723D01*
X355068142Y-94906104D01*
X355115761Y-94858485D01*
X355163380Y-94763247D01*
X355163380Y-94572771D01*
X355115761Y-94477533D01*
X355068142Y-94429914D01*
X354972904Y-94382295D01*
X354782428Y-94382295D01*
X354687190Y-94429914D01*
X354639571Y-94477533D01*
X354591952Y-94572771D01*
%TO.C,D17*%
X336113380Y-96858485D02*
X335113380Y-96858485D01*
X335113380Y-96620390D01*
X335161000Y-96477533D01*
X335256238Y-96382295D01*
X335351476Y-96334676D01*
X335541952Y-96287057D01*
X335684809Y-96287057D01*
X335875285Y-96334676D01*
X335970523Y-96382295D01*
X336065761Y-96477533D01*
X336113380Y-96620390D01*
X336113380Y-96858485D01*
X336113380Y-95334676D02*
X336113380Y-95906104D01*
X336113380Y-95620390D02*
X335113380Y-95620390D01*
X335256238Y-95715628D01*
X335351476Y-95810866D01*
X335399095Y-95906104D01*
X335113380Y-95001342D02*
X335113380Y-94334676D01*
X336113380Y-94763247D01*
%TO.C,D16*%
X317063380Y-96858485D02*
X316063380Y-96858485D01*
X316063380Y-96620390D01*
X316111000Y-96477533D01*
X316206238Y-96382295D01*
X316301476Y-96334676D01*
X316491952Y-96287057D01*
X316634809Y-96287057D01*
X316825285Y-96334676D01*
X316920523Y-96382295D01*
X317015761Y-96477533D01*
X317063380Y-96620390D01*
X317063380Y-96858485D01*
X317063380Y-95334676D02*
X317063380Y-95906104D01*
X317063380Y-95620390D02*
X316063380Y-95620390D01*
X316206238Y-95715628D01*
X316301476Y-95810866D01*
X316349095Y-95906104D01*
X316063380Y-94477533D02*
X316063380Y-94668009D01*
X316111000Y-94763247D01*
X316158619Y-94810866D01*
X316301476Y-94906104D01*
X316491952Y-94953723D01*
X316872904Y-94953723D01*
X316968142Y-94906104D01*
X317015761Y-94858485D01*
X317063380Y-94763247D01*
X317063380Y-94572771D01*
X317015761Y-94477533D01*
X316968142Y-94429914D01*
X316872904Y-94382295D01*
X316634809Y-94382295D01*
X316539571Y-94429914D01*
X316491952Y-94477533D01*
X316444333Y-94572771D01*
X316444333Y-94763247D01*
X316491952Y-94858485D01*
X316539571Y-94906104D01*
X316634809Y-94953723D01*
%TO.C,D15*%
X297886380Y-96858485D02*
X296886380Y-96858485D01*
X296886380Y-96620390D01*
X296934000Y-96477533D01*
X297029238Y-96382295D01*
X297124476Y-96334676D01*
X297314952Y-96287057D01*
X297457809Y-96287057D01*
X297648285Y-96334676D01*
X297743523Y-96382295D01*
X297838761Y-96477533D01*
X297886380Y-96620390D01*
X297886380Y-96858485D01*
X297886380Y-95334676D02*
X297886380Y-95906104D01*
X297886380Y-95620390D02*
X296886380Y-95620390D01*
X297029238Y-95715628D01*
X297124476Y-95810866D01*
X297172095Y-95906104D01*
X296886380Y-94429914D02*
X296886380Y-94906104D01*
X297362571Y-94953723D01*
X297314952Y-94906104D01*
X297267333Y-94810866D01*
X297267333Y-94572771D01*
X297314952Y-94477533D01*
X297362571Y-94429914D01*
X297457809Y-94382295D01*
X297695904Y-94382295D01*
X297791142Y-94429914D01*
X297838761Y-94477533D01*
X297886380Y-94572771D01*
X297886380Y-94810866D01*
X297838761Y-94906104D01*
X297791142Y-94953723D01*
%TO.C,D14*%
X267406380Y-96858485D02*
X266406380Y-96858485D01*
X266406380Y-96620390D01*
X266454000Y-96477533D01*
X266549238Y-96382295D01*
X266644476Y-96334676D01*
X266834952Y-96287057D01*
X266977809Y-96287057D01*
X267168285Y-96334676D01*
X267263523Y-96382295D01*
X267358761Y-96477533D01*
X267406380Y-96620390D01*
X267406380Y-96858485D01*
X267406380Y-95334676D02*
X267406380Y-95906104D01*
X267406380Y-95620390D02*
X266406380Y-95620390D01*
X266549238Y-95715628D01*
X266644476Y-95810866D01*
X266692095Y-95906104D01*
X266739714Y-94477533D02*
X267406380Y-94477533D01*
X266358761Y-94715628D02*
X267073047Y-94953723D01*
X267073047Y-94334676D01*
%TO.C,D13*%
X248356380Y-96858485D02*
X247356380Y-96858485D01*
X247356380Y-96620390D01*
X247404000Y-96477533D01*
X247499238Y-96382295D01*
X247594476Y-96334676D01*
X247784952Y-96287057D01*
X247927809Y-96287057D01*
X248118285Y-96334676D01*
X248213523Y-96382295D01*
X248308761Y-96477533D01*
X248356380Y-96620390D01*
X248356380Y-96858485D01*
X248356380Y-95334676D02*
X248356380Y-95906104D01*
X248356380Y-95620390D02*
X247356380Y-95620390D01*
X247499238Y-95715628D01*
X247594476Y-95810866D01*
X247642095Y-95906104D01*
X247356380Y-95001342D02*
X247356380Y-94382295D01*
X247737333Y-94715628D01*
X247737333Y-94572771D01*
X247784952Y-94477533D01*
X247832571Y-94429914D01*
X247927809Y-94382295D01*
X248165904Y-94382295D01*
X248261142Y-94429914D01*
X248308761Y-94477533D01*
X248356380Y-94572771D01*
X248356380Y-94858485D01*
X248308761Y-94953723D01*
X248261142Y-95001342D01*
%TO.C,D12*%
X229306380Y-96858485D02*
X228306380Y-96858485D01*
X228306380Y-96620390D01*
X228354000Y-96477533D01*
X228449238Y-96382295D01*
X228544476Y-96334676D01*
X228734952Y-96287057D01*
X228877809Y-96287057D01*
X229068285Y-96334676D01*
X229163523Y-96382295D01*
X229258761Y-96477533D01*
X229306380Y-96620390D01*
X229306380Y-96858485D01*
X229306380Y-95334676D02*
X229306380Y-95906104D01*
X229306380Y-95620390D02*
X228306380Y-95620390D01*
X228449238Y-95715628D01*
X228544476Y-95810866D01*
X228592095Y-95906104D01*
X228401619Y-94953723D02*
X228354000Y-94906104D01*
X228306380Y-94810866D01*
X228306380Y-94572771D01*
X228354000Y-94477533D01*
X228401619Y-94429914D01*
X228496857Y-94382295D01*
X228592095Y-94382295D01*
X228734952Y-94429914D01*
X229306380Y-95001342D01*
X229306380Y-94382295D01*
%TO.C,D11*%
X210394380Y-96858485D02*
X209394380Y-96858485D01*
X209394380Y-96620390D01*
X209442000Y-96477533D01*
X209537238Y-96382295D01*
X209632476Y-96334676D01*
X209822952Y-96287057D01*
X209965809Y-96287057D01*
X210156285Y-96334676D01*
X210251523Y-96382295D01*
X210346761Y-96477533D01*
X210394380Y-96620390D01*
X210394380Y-96858485D01*
X210394380Y-95334676D02*
X210394380Y-95906104D01*
X210394380Y-95620390D02*
X209394380Y-95620390D01*
X209537238Y-95715628D01*
X209632476Y-95810866D01*
X209680095Y-95906104D01*
X210394380Y-94382295D02*
X210394380Y-94953723D01*
X210394380Y-94668009D02*
X209394380Y-94668009D01*
X209537238Y-94763247D01*
X209632476Y-94858485D01*
X209680095Y-94953723D01*
%TO.C,D10*%
X179660380Y-96858485D02*
X178660380Y-96858485D01*
X178660380Y-96620390D01*
X178708000Y-96477533D01*
X178803238Y-96382295D01*
X178898476Y-96334676D01*
X179088952Y-96287057D01*
X179231809Y-96287057D01*
X179422285Y-96334676D01*
X179517523Y-96382295D01*
X179612761Y-96477533D01*
X179660380Y-96620390D01*
X179660380Y-96858485D01*
X179660380Y-95334676D02*
X179660380Y-95906104D01*
X179660380Y-95620390D02*
X178660380Y-95620390D01*
X178803238Y-95715628D01*
X178898476Y-95810866D01*
X178946095Y-95906104D01*
X178660380Y-94715628D02*
X178660380Y-94620390D01*
X178708000Y-94525152D01*
X178755619Y-94477533D01*
X178850857Y-94429914D01*
X179041333Y-94382295D01*
X179279428Y-94382295D01*
X179469904Y-94429914D01*
X179565142Y-94477533D01*
X179612761Y-94525152D01*
X179660380Y-94620390D01*
X179660380Y-94715628D01*
X179612761Y-94810866D01*
X179565142Y-94858485D01*
X179469904Y-94906104D01*
X179279428Y-94953723D01*
X179041333Y-94953723D01*
X178850857Y-94906104D01*
X178755619Y-94858485D01*
X178708000Y-94810866D01*
X178660380Y-94715628D01*
%TO.C,D9*%
X160610380Y-96382295D02*
X159610380Y-96382295D01*
X159610380Y-96144200D01*
X159658000Y-96001342D01*
X159753238Y-95906104D01*
X159848476Y-95858485D01*
X160038952Y-95810866D01*
X160181809Y-95810866D01*
X160372285Y-95858485D01*
X160467523Y-95906104D01*
X160562761Y-96001342D01*
X160610380Y-96144200D01*
X160610380Y-96382295D01*
X160610380Y-95334676D02*
X160610380Y-95144200D01*
X160562761Y-95048961D01*
X160515142Y-95001342D01*
X160372285Y-94906104D01*
X160181809Y-94858485D01*
X159800857Y-94858485D01*
X159705619Y-94906104D01*
X159658000Y-94953723D01*
X159610380Y-95048961D01*
X159610380Y-95239438D01*
X159658000Y-95334676D01*
X159705619Y-95382295D01*
X159800857Y-95429914D01*
X160038952Y-95429914D01*
X160134190Y-95382295D01*
X160181809Y-95334676D01*
X160229428Y-95239438D01*
X160229428Y-95048961D01*
X160181809Y-94953723D01*
X160134190Y-94906104D01*
X160038952Y-94858485D01*
%TO.C,D8*%
X141560380Y-96382295D02*
X140560380Y-96382295D01*
X140560380Y-96144200D01*
X140608000Y-96001342D01*
X140703238Y-95906104D01*
X140798476Y-95858485D01*
X140988952Y-95810866D01*
X141131809Y-95810866D01*
X141322285Y-95858485D01*
X141417523Y-95906104D01*
X141512761Y-96001342D01*
X141560380Y-96144200D01*
X141560380Y-96382295D01*
X140988952Y-95239438D02*
X140941333Y-95334676D01*
X140893714Y-95382295D01*
X140798476Y-95429914D01*
X140750857Y-95429914D01*
X140655619Y-95382295D01*
X140608000Y-95334676D01*
X140560380Y-95239438D01*
X140560380Y-95048961D01*
X140608000Y-94953723D01*
X140655619Y-94906104D01*
X140750857Y-94858485D01*
X140798476Y-94858485D01*
X140893714Y-94906104D01*
X140941333Y-94953723D01*
X140988952Y-95048961D01*
X140988952Y-95239438D01*
X141036571Y-95334676D01*
X141084190Y-95382295D01*
X141179428Y-95429914D01*
X141369904Y-95429914D01*
X141465142Y-95382295D01*
X141512761Y-95334676D01*
X141560380Y-95239438D01*
X141560380Y-95048961D01*
X141512761Y-94953723D01*
X141465142Y-94906104D01*
X141369904Y-94858485D01*
X141179428Y-94858485D01*
X141084190Y-94906104D01*
X141036571Y-94953723D01*
X140988952Y-95048961D01*
%TO.C,D7*%
X122499380Y-96382295D02*
X121499380Y-96382295D01*
X121499380Y-96144200D01*
X121547000Y-96001342D01*
X121642238Y-95906104D01*
X121737476Y-95858485D01*
X121927952Y-95810866D01*
X122070809Y-95810866D01*
X122261285Y-95858485D01*
X122356523Y-95906104D01*
X122451761Y-96001342D01*
X122499380Y-96144200D01*
X122499380Y-96382295D01*
X121499380Y-95477533D02*
X121499380Y-94810866D01*
X122499380Y-95239438D01*
%TO.C,D6*%
X92146380Y-96382295D02*
X91146380Y-96382295D01*
X91146380Y-96144200D01*
X91194000Y-96001342D01*
X91289238Y-95906104D01*
X91384476Y-95858485D01*
X91574952Y-95810866D01*
X91717809Y-95810866D01*
X91908285Y-95858485D01*
X92003523Y-95906104D01*
X92098761Y-96001342D01*
X92146380Y-96144200D01*
X92146380Y-96382295D01*
X91146380Y-94953723D02*
X91146380Y-95144200D01*
X91194000Y-95239438D01*
X91241619Y-95287057D01*
X91384476Y-95382295D01*
X91574952Y-95429914D01*
X91955904Y-95429914D01*
X92051142Y-95382295D01*
X92098761Y-95334676D01*
X92146380Y-95239438D01*
X92146380Y-95048961D01*
X92098761Y-94953723D01*
X92051142Y-94906104D01*
X91955904Y-94858485D01*
X91717809Y-94858485D01*
X91622571Y-94906104D01*
X91574952Y-94953723D01*
X91527333Y-95048961D01*
X91527333Y-95239438D01*
X91574952Y-95334676D01*
X91622571Y-95382295D01*
X91717809Y-95429914D01*
%TO.C,D5*%
X73096380Y-96382295D02*
X72096380Y-96382295D01*
X72096380Y-96144200D01*
X72144000Y-96001342D01*
X72239238Y-95906104D01*
X72334476Y-95858485D01*
X72524952Y-95810866D01*
X72667809Y-95810866D01*
X72858285Y-95858485D01*
X72953523Y-95906104D01*
X73048761Y-96001342D01*
X73096380Y-96144200D01*
X73096380Y-96382295D01*
X72096380Y-94906104D02*
X72096380Y-95382295D01*
X72572571Y-95429914D01*
X72524952Y-95382295D01*
X72477333Y-95287057D01*
X72477333Y-95048961D01*
X72524952Y-94953723D01*
X72572571Y-94906104D01*
X72667809Y-94858485D01*
X72905904Y-94858485D01*
X73001142Y-94906104D01*
X73048761Y-94953723D01*
X73096380Y-95048961D01*
X73096380Y-95287057D01*
X73048761Y-95382295D01*
X73001142Y-95429914D01*
%TO.C,D4*%
X53919380Y-96382295D02*
X52919380Y-96382295D01*
X52919380Y-96144200D01*
X52967000Y-96001342D01*
X53062238Y-95906104D01*
X53157476Y-95858485D01*
X53347952Y-95810866D01*
X53490809Y-95810866D01*
X53681285Y-95858485D01*
X53776523Y-95906104D01*
X53871761Y-96001342D01*
X53919380Y-96144200D01*
X53919380Y-96382295D01*
X53252714Y-94953723D02*
X53919380Y-94953723D01*
X52871761Y-95191819D02*
X53586047Y-95429914D01*
X53586047Y-94810866D01*
%TO.C,D3*%
X34869380Y-96382295D02*
X33869380Y-96382295D01*
X33869380Y-96144200D01*
X33917000Y-96001342D01*
X34012238Y-95906104D01*
X34107476Y-95858485D01*
X34297952Y-95810866D01*
X34440809Y-95810866D01*
X34631285Y-95858485D01*
X34726523Y-95906104D01*
X34821761Y-96001342D01*
X34869380Y-96144200D01*
X34869380Y-96382295D01*
X33869380Y-95477533D02*
X33869380Y-94858485D01*
X34250333Y-95191819D01*
X34250333Y-95048961D01*
X34297952Y-94953723D01*
X34345571Y-94906104D01*
X34440809Y-94858485D01*
X34678904Y-94858485D01*
X34774142Y-94906104D01*
X34821761Y-94953723D01*
X34869380Y-95048961D01*
X34869380Y-95334676D01*
X34821761Y-95429914D01*
X34774142Y-95477533D01*
%TO.C,XTAL1*%
X285360380Y-66512809D02*
X286360380Y-65846142D01*
X285360380Y-65846142D02*
X286360380Y-66512809D01*
X285360380Y-65608047D02*
X285360380Y-65036619D01*
X286360380Y-65322333D02*
X285360380Y-65322333D01*
X286074666Y-64750904D02*
X286074666Y-64274714D01*
X286360380Y-64846142D02*
X285360380Y-64512809D01*
X286360380Y-64179476D01*
X286360380Y-63369952D02*
X286360380Y-63846142D01*
X285360380Y-63846142D01*
X286360380Y-62512809D02*
X286360380Y-63084238D01*
X286360380Y-62798523D02*
X285360380Y-62798523D01*
X285503238Y-62893761D01*
X285598476Y-62989000D01*
X285646095Y-63084238D01*
%TO.C,U1*%
X284039880Y-65277904D02*
X284849404Y-65277904D01*
X284944642Y-65230285D01*
X284992261Y-65182666D01*
X285039880Y-65087428D01*
X285039880Y-64896952D01*
X284992261Y-64801714D01*
X284944642Y-64754095D01*
X284849404Y-64706476D01*
X284039880Y-64706476D01*
X285039880Y-63706476D02*
X285039880Y-64277904D01*
X285039880Y-63992190D02*
X284039880Y-63992190D01*
X284182738Y-64087428D01*
X284277976Y-64182666D01*
X284325595Y-64277904D01*
%TO.C,Reset1*%
X313955714Y-58777380D02*
X313622380Y-58301190D01*
X313384285Y-58777380D02*
X313384285Y-57777380D01*
X313765238Y-57777380D01*
X313860476Y-57825000D01*
X313908095Y-57872619D01*
X313955714Y-57967857D01*
X313955714Y-58110714D01*
X313908095Y-58205952D01*
X313860476Y-58253571D01*
X313765238Y-58301190D01*
X313384285Y-58301190D01*
X314765238Y-58729761D02*
X314670000Y-58777380D01*
X314479523Y-58777380D01*
X314384285Y-58729761D01*
X314336666Y-58634523D01*
X314336666Y-58253571D01*
X314384285Y-58158333D01*
X314479523Y-58110714D01*
X314670000Y-58110714D01*
X314765238Y-58158333D01*
X314812857Y-58253571D01*
X314812857Y-58348809D01*
X314336666Y-58444047D01*
X315193809Y-58729761D02*
X315289047Y-58777380D01*
X315479523Y-58777380D01*
X315574761Y-58729761D01*
X315622380Y-58634523D01*
X315622380Y-58586904D01*
X315574761Y-58491666D01*
X315479523Y-58444047D01*
X315336666Y-58444047D01*
X315241428Y-58396428D01*
X315193809Y-58301190D01*
X315193809Y-58253571D01*
X315241428Y-58158333D01*
X315336666Y-58110714D01*
X315479523Y-58110714D01*
X315574761Y-58158333D01*
X316431904Y-58729761D02*
X316336666Y-58777380D01*
X316146190Y-58777380D01*
X316050952Y-58729761D01*
X316003333Y-58634523D01*
X316003333Y-58253571D01*
X316050952Y-58158333D01*
X316146190Y-58110714D01*
X316336666Y-58110714D01*
X316431904Y-58158333D01*
X316479523Y-58253571D01*
X316479523Y-58348809D01*
X316003333Y-58444047D01*
X316765238Y-58110714D02*
X317146190Y-58110714D01*
X316908095Y-57777380D02*
X316908095Y-58634523D01*
X316955714Y-58729761D01*
X317050952Y-58777380D01*
X317146190Y-58777380D01*
X318003333Y-58777380D02*
X317431904Y-58777380D01*
X317717619Y-58777380D02*
X317717619Y-57777380D01*
X317622380Y-57920238D01*
X317527142Y-58015476D01*
X317431904Y-58063095D01*
%TO.C,R4*%
X321651333Y-72926380D02*
X321318000Y-72450190D01*
X321079904Y-72926380D02*
X321079904Y-71926380D01*
X321460857Y-71926380D01*
X321556095Y-71974000D01*
X321603714Y-72021619D01*
X321651333Y-72116857D01*
X321651333Y-72259714D01*
X321603714Y-72354952D01*
X321556095Y-72402571D01*
X321460857Y-72450190D01*
X321079904Y-72450190D01*
X322508476Y-72259714D02*
X322508476Y-72926380D01*
X322270380Y-71878761D02*
X322032285Y-72593047D01*
X322651333Y-72593047D01*
%TO.C,R3*%
X93586380Y-63666666D02*
X93110190Y-64000000D01*
X93586380Y-64238095D02*
X92586380Y-64238095D01*
X92586380Y-63857142D01*
X92634000Y-63761904D01*
X92681619Y-63714285D01*
X92776857Y-63666666D01*
X92919714Y-63666666D01*
X93014952Y-63714285D01*
X93062571Y-63761904D01*
X93110190Y-63857142D01*
X93110190Y-64238095D01*
X92586380Y-63333333D02*
X92586380Y-62714285D01*
X92967333Y-63047619D01*
X92967333Y-62904761D01*
X93014952Y-62809523D01*
X93062571Y-62761904D01*
X93157809Y-62714285D01*
X93395904Y-62714285D01*
X93491142Y-62761904D01*
X93538761Y-62809523D01*
X93586380Y-62904761D01*
X93586380Y-63190476D01*
X93538761Y-63285714D01*
X93491142Y-63333333D01*
%TO.C,R2*%
X89268380Y-63666666D02*
X88792190Y-64000000D01*
X89268380Y-64238095D02*
X88268380Y-64238095D01*
X88268380Y-63857142D01*
X88316000Y-63761904D01*
X88363619Y-63714285D01*
X88458857Y-63666666D01*
X88601714Y-63666666D01*
X88696952Y-63714285D01*
X88744571Y-63761904D01*
X88792190Y-63857142D01*
X88792190Y-64238095D01*
X88363619Y-63285714D02*
X88316000Y-63238095D01*
X88268380Y-63142857D01*
X88268380Y-62904761D01*
X88316000Y-62809523D01*
X88363619Y-62761904D01*
X88458857Y-62714285D01*
X88554095Y-62714285D01*
X88696952Y-62761904D01*
X89268380Y-63333333D01*
X89268380Y-62714285D01*
%TO.C,R1*%
X84696380Y-63666666D02*
X84220190Y-64000000D01*
X84696380Y-64238095D02*
X83696380Y-64238095D01*
X83696380Y-63857142D01*
X83744000Y-63761904D01*
X83791619Y-63714285D01*
X83886857Y-63666666D01*
X84029714Y-63666666D01*
X84124952Y-63714285D01*
X84172571Y-63761904D01*
X84220190Y-63857142D01*
X84220190Y-64238095D01*
X84696380Y-62714285D02*
X84696380Y-63285714D01*
X84696380Y-63000000D02*
X83696380Y-63000000D01*
X83839238Y-63095238D01*
X83934476Y-63190476D01*
X83982095Y-63285714D01*
%TO.C,J1*%
X360794666Y-57888380D02*
X360794666Y-58602666D01*
X360747047Y-58745523D01*
X360651809Y-58840761D01*
X360508952Y-58888380D01*
X360413714Y-58888380D01*
X361794666Y-58888380D02*
X361223238Y-58888380D01*
X361508952Y-58888380D02*
X361508952Y-57888380D01*
X361413714Y-58031238D01*
X361318476Y-58126476D01*
X361223238Y-58174095D01*
%TO.C,F1*%
X60643666Y-70188571D02*
X60310333Y-70188571D01*
X60310333Y-70712380D02*
X60310333Y-69712380D01*
X60786523Y-69712380D01*
X61691285Y-70712380D02*
X61119857Y-70712380D01*
X61405571Y-70712380D02*
X61405571Y-69712380D01*
X61310333Y-69855238D01*
X61215095Y-69950476D01*
X61119857Y-69998095D01*
%TO.C,D2*%
X101837380Y-64365095D02*
X100837380Y-64365095D01*
X100837380Y-64127000D01*
X100885000Y-63984142D01*
X100980238Y-63888904D01*
X101075476Y-63841285D01*
X101265952Y-63793666D01*
X101408809Y-63793666D01*
X101599285Y-63841285D01*
X101694523Y-63888904D01*
X101789761Y-63984142D01*
X101837380Y-64127000D01*
X101837380Y-64365095D01*
X100932619Y-63412714D02*
X100885000Y-63365095D01*
X100837380Y-63269857D01*
X100837380Y-63031761D01*
X100885000Y-62936523D01*
X100932619Y-62888904D01*
X101027857Y-62841285D01*
X101123095Y-62841285D01*
X101265952Y-62888904D01*
X101837380Y-63460333D01*
X101837380Y-62841285D01*
X102157380Y-67698904D02*
X101157380Y-67698904D01*
X102157380Y-67127476D02*
X101585952Y-67556047D01*
X101157380Y-67127476D02*
X101728809Y-67698904D01*
%TO.C,D1*%
X98281380Y-64365095D02*
X97281380Y-64365095D01*
X97281380Y-64127000D01*
X97329000Y-63984142D01*
X97424238Y-63888904D01*
X97519476Y-63841285D01*
X97709952Y-63793666D01*
X97852809Y-63793666D01*
X98043285Y-63841285D01*
X98138523Y-63888904D01*
X98233761Y-63984142D01*
X98281380Y-64127000D01*
X98281380Y-64365095D01*
X98281380Y-62841285D02*
X98281380Y-63412714D01*
X98281380Y-63127000D02*
X97281380Y-63127000D01*
X97424238Y-63222238D01*
X97519476Y-63317476D01*
X97567095Y-63412714D01*
X98601380Y-67698904D02*
X97601380Y-67698904D01*
X98601380Y-67127476D02*
X98029952Y-67556047D01*
X97601380Y-67127476D02*
X98172809Y-67698904D01*
%TO.C,C5*%
X289099333Y-54626142D02*
X289051714Y-54673761D01*
X288908857Y-54721380D01*
X288813619Y-54721380D01*
X288670761Y-54673761D01*
X288575523Y-54578523D01*
X288527904Y-54483285D01*
X288480285Y-54292809D01*
X288480285Y-54149952D01*
X288527904Y-53959476D01*
X288575523Y-53864238D01*
X288670761Y-53769000D01*
X288813619Y-53721380D01*
X288908857Y-53721380D01*
X289051714Y-53769000D01*
X289099333Y-53816619D01*
X290004095Y-53721380D02*
X289527904Y-53721380D01*
X289480285Y-54197571D01*
X289527904Y-54149952D01*
X289623142Y-54102333D01*
X289861238Y-54102333D01*
X289956476Y-54149952D01*
X290004095Y-54197571D01*
X290051714Y-54292809D01*
X290051714Y-54530904D01*
X290004095Y-54626142D01*
X289956476Y-54673761D01*
X289861238Y-54721380D01*
X289623142Y-54721380D01*
X289527904Y-54673761D01*
X289480285Y-54626142D01*
%TO.C,C4*%
X289226333Y-70120142D02*
X289178714Y-70167761D01*
X289035857Y-70215380D01*
X288940619Y-70215380D01*
X288797761Y-70167761D01*
X288702523Y-70072523D01*
X288654904Y-69977285D01*
X288607285Y-69786809D01*
X288607285Y-69643952D01*
X288654904Y-69453476D01*
X288702523Y-69358238D01*
X288797761Y-69263000D01*
X288940619Y-69215380D01*
X289035857Y-69215380D01*
X289178714Y-69263000D01*
X289226333Y-69310619D01*
X290083476Y-69548714D02*
X290083476Y-70215380D01*
X289845380Y-69167761D02*
X289607285Y-69882047D01*
X290226333Y-69882047D01*
%TO.C,C3*%
X258004333Y-67195142D02*
X257956714Y-67242761D01*
X257813857Y-67290380D01*
X257718619Y-67290380D01*
X257575761Y-67242761D01*
X257480523Y-67147523D01*
X257432904Y-67052285D01*
X257385285Y-66861809D01*
X257385285Y-66718952D01*
X257432904Y-66528476D01*
X257480523Y-66433238D01*
X257575761Y-66338000D01*
X257718619Y-66290380D01*
X257813857Y-66290380D01*
X257956714Y-66338000D01*
X258004333Y-66385619D01*
X258337666Y-66290380D02*
X258956714Y-66290380D01*
X258623380Y-66671333D01*
X258766238Y-66671333D01*
X258861476Y-66718952D01*
X258909095Y-66766571D01*
X258956714Y-66861809D01*
X258956714Y-67099904D01*
X258909095Y-67195142D01*
X258861476Y-67242761D01*
X258766238Y-67290380D01*
X258480523Y-67290380D01*
X258385285Y-67242761D01*
X258337666Y-67195142D01*
%TO.C,C2*%
X257917333Y-56328142D02*
X257869714Y-56375761D01*
X257726857Y-56423380D01*
X257631619Y-56423380D01*
X257488761Y-56375761D01*
X257393523Y-56280523D01*
X257345904Y-56185285D01*
X257298285Y-55994809D01*
X257298285Y-55851952D01*
X257345904Y-55661476D01*
X257393523Y-55566238D01*
X257488761Y-55471000D01*
X257631619Y-55423380D01*
X257726857Y-55423380D01*
X257869714Y-55471000D01*
X257917333Y-55518619D01*
X258298285Y-55518619D02*
X258345904Y-55471000D01*
X258441142Y-55423380D01*
X258679238Y-55423380D01*
X258774476Y-55471000D01*
X258822095Y-55518619D01*
X258869714Y-55613857D01*
X258869714Y-55709095D01*
X258822095Y-55851952D01*
X258250666Y-56423380D01*
X258869714Y-56423380D01*
%TO.C,C1*%
X73100333Y-64417142D02*
X73052714Y-64464761D01*
X72909857Y-64512380D01*
X72814619Y-64512380D01*
X72671761Y-64464761D01*
X72576523Y-64369523D01*
X72528904Y-64274285D01*
X72481285Y-64083809D01*
X72481285Y-63940952D01*
X72528904Y-63750476D01*
X72576523Y-63655238D01*
X72671761Y-63560000D01*
X72814619Y-63512380D01*
X72909857Y-63512380D01*
X73052714Y-63560000D01*
X73100333Y-63607619D01*
X74052714Y-64512380D02*
X73481285Y-64512380D01*
X73767000Y-64512380D02*
X73767000Y-63512380D01*
X73671761Y-63655238D01*
X73576523Y-63750476D01*
X73481285Y-63798095D01*
%TO.C,Boot1*%
X327028761Y-58253571D02*
X327171619Y-58301190D01*
X327219238Y-58348809D01*
X327266857Y-58444047D01*
X327266857Y-58586904D01*
X327219238Y-58682142D01*
X327171619Y-58729761D01*
X327076380Y-58777380D01*
X326695428Y-58777380D01*
X326695428Y-57777380D01*
X327028761Y-57777380D01*
X327124000Y-57825000D01*
X327171619Y-57872619D01*
X327219238Y-57967857D01*
X327219238Y-58063095D01*
X327171619Y-58158333D01*
X327124000Y-58205952D01*
X327028761Y-58253571D01*
X326695428Y-58253571D01*
X327838285Y-58777380D02*
X327743047Y-58729761D01*
X327695428Y-58682142D01*
X327647809Y-58586904D01*
X327647809Y-58301190D01*
X327695428Y-58205952D01*
X327743047Y-58158333D01*
X327838285Y-58110714D01*
X327981142Y-58110714D01*
X328076380Y-58158333D01*
X328124000Y-58205952D01*
X328171619Y-58301190D01*
X328171619Y-58586904D01*
X328124000Y-58682142D01*
X328076380Y-58729761D01*
X327981142Y-58777380D01*
X327838285Y-58777380D01*
X328743047Y-58777380D02*
X328647809Y-58729761D01*
X328600190Y-58682142D01*
X328552571Y-58586904D01*
X328552571Y-58301190D01*
X328600190Y-58205952D01*
X328647809Y-58158333D01*
X328743047Y-58110714D01*
X328885904Y-58110714D01*
X328981142Y-58158333D01*
X329028761Y-58205952D01*
X329076380Y-58301190D01*
X329076380Y-58586904D01*
X329028761Y-58682142D01*
X328981142Y-58729761D01*
X328885904Y-58777380D01*
X328743047Y-58777380D01*
X329362095Y-58110714D02*
X329743047Y-58110714D01*
X329504952Y-57777380D02*
X329504952Y-58634523D01*
X329552571Y-58729761D01*
X329647809Y-58777380D01*
X329743047Y-58777380D01*
X330600190Y-58777380D02*
X330028761Y-58777380D01*
X330314476Y-58777380D02*
X330314476Y-57777380D01*
X330219238Y-57920238D01*
X330124000Y-58015476D01*
X330028761Y-58063095D01*
%TD*%
M02*
