M48
; DRILL file {KiCad (5.1.6)-1} date 09/21/20 09:23:48
; FORMAT={-:-/ absolute / inch / decimal}
; #@! TF.CreationDate,2020-09-21T09:23:48+02:00
; #@! TF.GenerationSoftware,Kicad,Pcbnew,(5.1.6)-1
; #@! TF.FileFunction,NonPlated,1,2,NPTH
FMAT,2
INCH
T1C0.0689
T2C0.1200
T3C0.1570
%
G90
G05
T1
X1.135Y-7.9025
X1.535Y-7.9025
X6.0175Y-4.9
X6.4175Y-4.9
X10.16Y-7.1475
X10.56Y-7.1475
X2.08Y-6.3975
X2.48Y-6.3975
X13.1025Y-6.3975
X13.5025Y-6.3975
X8.47Y-7.1475
X8.87Y-7.1475
X13.855Y-5.645
X14.255Y-5.645
X1.5125Y-3.715
X1.9125Y-3.715
X11.8575Y-6.3975
X12.2575Y-6.3975
X7.715Y-7.1475
X8.115Y-7.1475
X4.335Y-6.3975
X4.735Y-6.3975
X0.76Y-4.9
X1.16Y-4.9
X8.435Y-3.715
X8.835Y-3.715
X2.635Y-5.6475
X3.035Y-5.6475
X14.61Y-3.715
X15.01Y-3.715
X9.5975Y-7.9
X9.9975Y-7.9
X7.685Y-3.715
X8.085Y-3.715
X6.2125Y-7.1475
X6.6125Y-7.1475
X8.8475Y-6.3975
X9.2475Y-6.3975
X0.7625Y-7.1475
X1.1625Y-7.1475
X1.6075Y-7.1475
X2.0075Y-7.1475
X5.8375Y-6.3975
X6.2375Y-6.3975
X6.9625Y-7.1475
X7.3625Y-7.1475
X10.905Y-5.6475
X11.305Y-5.6475
X9.2225Y-7.1475
X9.6225Y-7.1475
X4.8875Y-5.6475
X5.2875Y-5.6475
X10.73Y-6.3975
X11.13Y-6.3975
X9.1875Y-3.715
X9.5875Y-3.715
X11.8575Y-4.9
X12.2575Y-4.9
X15.36Y-3.715
X15.76Y-3.715
X11.145Y-3.715
X11.545Y-3.715
X13.1025Y-7.1475
X13.5025Y-7.1475
X13.4Y-3.715
X13.8Y-3.715
X11.1025Y-7.9
X11.5025Y-7.9
X15.3575Y-6.3975
X15.7575Y-6.3975
X14.61Y-6.3975
X15.01Y-6.3975
X3.205Y-7.1475
X3.605Y-7.1475
X13.8575Y-6.3975
X14.2575Y-6.3975
X1.0475Y-6.3975
X1.4475Y-6.3975
X2.83Y-6.3975
X3.23Y-6.3975
X9.03Y-4.9
X9.43Y-4.9
X13.1025Y-4.9
X13.5025Y-4.9
X3.385Y-5.6475
X3.785Y-5.6475
X12.6475Y-3.715
X13.0475Y-3.715
X10.35Y-7.9
X10.75Y-7.9
X14.6075Y-4.9
X15.0075Y-4.9
X5.55Y-7.9025
X5.95Y-7.9025
X5.64Y-5.6475
X6.04Y-5.6475
X5.46Y-7.1475
X5.86Y-7.1475
X3.955Y-7.1475
X4.355Y-7.1475
X8.095Y-6.3975
X8.495Y-6.3975
X11.8575Y-7.1475
X12.2575Y-7.1475
X14.61Y-5.645
X15.01Y-5.645
X4.1375Y-5.6475
X4.5375Y-5.6475
X15.36Y-4.9
X15.76Y-4.9
X4.515Y-4.9
X4.915Y-4.9
X13.4775Y-7.9
X13.8775Y-7.9
X7.525Y-4.9
X7.925Y-4.9
X5.725Y-3.715
X6.125Y-3.715
X14.61Y-7.1475
X15.01Y-7.1475
X6.3925Y-5.6475
X6.7925Y-5.6475
X3.585Y-6.3975
X3.985Y-6.3975
X4.7075Y-7.1475
X5.1075Y-7.1475
X11.1025Y-7.1475
X11.5025Y-7.1475
X8.6475Y-5.6475
X9.0475Y-5.6475
X13.1025Y-5.6475
X13.5025Y-5.6475
X0.76Y-3.715
X1.16Y-3.715
X9.785Y-4.9
X10.185Y-4.9
X6.7675Y-4.9
X7.1675Y-4.9
X6.475Y-3.715
X6.875Y-3.715
X13.855Y-4.9
X14.255Y-4.9
X15.5575Y-7.3225
X15.5575Y-7.7225
X5.2675Y-4.9
X5.6675Y-4.9
X2.265Y-4.9
X2.665Y-4.9
X11.8575Y-7.9
X12.2575Y-7.9
X7.895Y-5.6475
X8.295Y-5.6475
X2.455Y-7.1475
X2.855Y-7.1475
X7.145Y-5.6475
X7.545Y-5.6475
X11.76Y-5.6475
X12.16Y-5.6475
X10.155Y-5.6475
X10.555Y-5.6475
X9.4Y-5.6475
X9.8Y-5.6475
X3.015Y-3.715
X3.415Y-3.715
X10.82Y-4.9
X11.22Y-4.9
X11.8975Y-3.715
X12.2975Y-3.715
X3.015Y-4.9
X3.415Y-4.9
X8.275Y-4.9
X8.675Y-4.9
X4.9725Y-3.715
X5.3725Y-3.715
X1.515Y-4.9
X1.915Y-4.9
X13.855Y-7.1475
X14.255Y-7.1475
X14.61Y-7.9
X15.01Y-7.9
X15.3575Y-5.645
X15.7575Y-5.645
X6.59Y-6.3975
X6.99Y-6.3975
X0.945Y-5.6475
X1.345Y-5.6475
X9.5975Y-6.3975
X9.9975Y-6.3975
X5.0875Y-6.3975
X5.4875Y-6.3975
X2.265Y-3.715
X2.665Y-3.715
X7.345Y-6.3975
X7.745Y-6.3975
X3.765Y-4.9
X4.165Y-4.9
X4.22Y-3.715
X4.62Y-3.715
X1.885Y-5.6475
X2.285Y-5.6475
X9.94Y-3.715
X10.34Y-3.715
T2
X3.1102Y-7.6275
X8.3898Y-7.6275
T3
X1.715Y-4.9
X14.055Y-7.1475
X14.81Y-7.9
X15.5575Y-5.645
X6.79Y-6.3975
X1.145Y-5.6475
X9.7975Y-6.3975
X5.2875Y-6.3975
X2.465Y-3.715
X7.545Y-6.3975
X3.965Y-4.9
X4.42Y-3.715
X2.085Y-5.6475
X10.14Y-3.715
X1.335Y-7.9025
X6.2175Y-4.9
X10.36Y-7.1475
X2.28Y-6.3975
X13.3025Y-6.3975
X8.67Y-7.1475
X14.055Y-5.645
X1.7125Y-3.715
X12.0575Y-6.3975
X7.915Y-7.1475
X4.535Y-6.3975
X0.96Y-4.9
X8.635Y-3.715
X2.835Y-5.6475
X14.81Y-3.715
X9.7975Y-7.9
X7.885Y-3.715
X6.4125Y-7.1475
X9.0475Y-6.3975
X0.9625Y-7.1475
X1.8075Y-7.1475
X6.0375Y-6.3975
X7.1625Y-7.1475
X11.105Y-5.6475
X9.4225Y-7.1475
X5.0875Y-5.6475
X10.93Y-6.3975
X9.3875Y-3.715
X12.0575Y-4.9
X15.56Y-3.715
X11.345Y-3.715
X13.3025Y-7.1475
X13.6Y-3.715
X11.3025Y-7.9
X15.5575Y-6.3975
X14.81Y-6.3975
X3.405Y-7.1475
X14.0575Y-6.3975
X1.2475Y-6.3975
X3.03Y-6.3975
X9.23Y-4.9
X13.3025Y-4.9
X3.585Y-5.6475
X12.8475Y-3.715
X10.55Y-7.9
X14.8075Y-4.9
X3.1102Y-8.2275
X5.75Y-7.9025
X8.3898Y-8.2275
X5.84Y-5.6475
X5.66Y-7.1475
X4.155Y-7.1475
X8.295Y-6.3975
X12.0575Y-7.1475
X14.81Y-5.645
X4.3375Y-5.6475
X15.56Y-4.9
X4.715Y-4.9
X13.6775Y-7.9
X7.725Y-4.9
X5.925Y-3.715
X14.81Y-7.1475
X6.5925Y-5.6475
X3.785Y-6.3975
X4.9075Y-7.1475
X11.3025Y-7.1475
X8.8475Y-5.6475
X13.3025Y-5.6475
X0.96Y-3.715
X9.985Y-4.9
X6.9675Y-4.9
X6.675Y-3.715
X14.055Y-4.9
X15.5575Y-7.5225
X5.4675Y-4.9
X2.465Y-4.9
X12.0575Y-7.9
X8.095Y-5.6475
X2.655Y-7.1475
X7.345Y-5.6475
X11.96Y-5.6475
X10.355Y-5.6475
X9.6Y-5.6475
X3.215Y-3.715
X11.02Y-4.9
X12.0975Y-3.715
X3.215Y-4.9
X8.475Y-4.9
X5.1725Y-3.715
T0
M30
